<?xml version="1.0" encoding="UTF-8"?>
<!DOCTYPE svg PUBLIC "-//W3C//DTD SVG 1.1//EN" "http://www.w3.org/Graphics/SVG/1.1/DTD/svg11.dtd">
<!-- Creator: CorelDRAW 2018 (64-Bit) -->
<svg xmlns="http://www.w3.org/2000/svg" xml:space="preserve" width="788px" height="788px" version="1.1" style="shape-rendering:geometricPrecision; text-rendering:geometricPrecision; image-rendering:optimizeQuality; fill-rule:evenodd; clip-rule:evenodd"
viewBox="0 0 91.78 91.78"
 xmlns:xlink="http://www.w3.org/1999/xlink">
 <defs>
  <style type="text/css">
   <![CDATA[
    .fil2 {fill:none}
    .fil1 {fill:black}
    .fil0 {fill:black;fill-rule:nonzero}
   ]]>
  </style>
 </defs>
 <g id="Слой_x0020_1">
  <metadata id="CorelCorpID_0Corel-Layer"/>
  <path class="fil0" d="M16.57 41.02c-0.4,0.08 -0.8,-0.18 -0.89,-0.59 -0.08,-0.41 0.18,-0.81 0.59,-0.89l1.02 -0.21c6.22,-1.28 8.54,-1.76 15.16,0.3 0.35,0.11 0.56,0.44 0.53,0.78 -0.01,0.46 -0.01,0.88 -0.01,1.28l0 0c-0.04,3.29 -0.07,5.57 -1.2,7.3 -0.13,0.2 -0.27,0.38 -0.43,0.56l-0.05 0.04c-1.14,1.24 -2.96,1.84 -4.83,1.91 -1.84,0.08 -3.76,-0.38 -5.11,-1.26 -0.23,-0.15 -0.46,-0.32 -0.67,-0.51 -1.81,-1.65 -2.47,-4.6 -3.35,-8.87l-0.76 0.16zm14.9 -0.11c-5.43,-1.63 -7.76,-1.35 -12.66,-0.35 0.82,3.99 1.43,6.73 2.89,8.05 0.13,0.12 0.29,0.25 0.48,0.37 1.09,0.71 2.68,1.08 4.23,1.02 1.49,-0.06 2.92,-0.51 3.78,-1.43l0.03 -0.04c0.1,-0.11 0.2,-0.24 0.29,-0.37 0.89,-1.36 0.91,-3.46 0.95,-6.49l0.01 -0.76z"/>
  <path class="fil0" d="M32.42 41.45c-0.41,0.06 -0.8,-0.22 -0.86,-0.64 -0.06,-0.41 0.23,-0.79 0.64,-0.85 0.97,-0.15 1.74,-0.15 2.58,-0.14 0.41,0 0.83,0 1.32,-0.01 0.42,-0.02 0.77,0.31 0.78,0.72 0.01,0.42 -0.31,0.77 -0.73,0.78 -0.49,0.02 -0.94,0.02 -1.37,0.02 -0.77,-0.01 -1.47,-0.01 -2.36,0.12z"/>
  <path class="fil0" d="M51.24 38.1c0.01,0.23 0.02,0.53 0.04,0.86 0.14,2.93 0.39,8.02 -1.5,9.68 -0.91,0.8 -2.44,1.32 -4.01,1.52 -1.64,0.21 -3.37,0.09 -4.52,-0.38l0 0c-1.51,-0.63 -2.65,-1.68 -3.58,-3.19 -0.88,-1.44 -1.58,-3.3 -2.24,-5.63 -0.07,-0.28 0.01,-0.56 0.21,-0.75 1.38,-1.52 3.07,-2.11 4.44,-2.59l0.08 -0.03c2.23,-0.78 4.24,-0.83 7.12,-0.88l0.91 -0.02 4.48 -0.15c0.42,-0.01 0.77,0.31 0.78,0.73 0.01,0.42 -0.31,0.77 -0.73,0.78l-1.48 0.05zm-1.47 0.93c-0.02,-0.32 -0.03,-0.6 -0.04,-0.88 -0.81,0.02 -1.61,0.05 -2.42,0.06 -2.74,0.06 -4.65,0.1 -6.65,0.8l-0.08 0.03c-1.12,0.4 -2.48,0.88 -3.57,1.92 0.58,2 1.2,3.61 1.95,4.84 0.76,1.24 1.68,2.09 2.87,2.58 0.91,0.38 2.35,0.47 3.75,0.28 1.3,-0.16 2.52,-0.56 3.2,-1.15 1.35,-1.19 1.12,-5.82 0.99,-8.48z"/>
  <path class="fil0" d="M66.64 32.21c0.38,-0.18 0.83,-0.03 1.01,0.35 0.18,0.37 0.03,0.83 -0.35,1.01 -2.89,1.39 -5.47,2.56 -8.11,3.57 -2.64,1.01 -5.35,1.86 -8.49,2.62 -0.4,0.1 -0.81,-0.15 -0.91,-0.55 -0.1,-0.41 0.15,-0.82 0.56,-0.92 3.05,-0.73 5.7,-1.57 8.3,-2.56 2.61,-1 5.16,-2.15 7.99,-3.52z"/>
  <path class="fil0" d="M41.5 35.73c-0.36,0.11 -0.74,-0.1 -0.85,-0.47 -0.1,-0.36 0.11,-0.74 0.48,-0.85 0.93,-0.26 1.68,-0.63 2.34,-0.95 1.16,-0.56 2.08,-1.01 3.29,-0.78 0.53,0.1 1.06,0.43 1.63,0.79 0.28,0.17 0.57,0.36 0.86,0.5 0.33,0.18 0.46,0.6 0.29,0.93 -0.18,0.34 -0.6,0.47 -0.93,0.29 -0.34,-0.18 -0.65,-0.37 -0.94,-0.56 -0.47,-0.28 -0.89,-0.55 -1.16,-0.6 -0.77,-0.14 -1.51,0.22 -2.44,0.67 -0.72,0.34 -1.53,0.74 -2.57,1.03z"/>
  <path class="fil0" d="M26.72 36.23c0.38,0.02 0.67,0.35 0.64,0.73 -0.03,0.38 -0.35,0.66 -0.73,0.64 -1.25,-0.09 -2.07,-0.13 -2.84,-0.05 -0.77,0.08 -1.55,0.29 -2.73,0.67 -0.36,0.12 -0.75,-0.08 -0.86,-0.44 -0.12,-0.36 0.08,-0.75 0.44,-0.87 1.26,-0.41 2.12,-0.63 3.01,-0.72 0.88,-0.1 1.76,-0.06 3.07,0.04z"/>
  <path class="fil0" d="M62.4 40.31c-0.17,0.34 -0.58,0.48 -0.92,0.31 -0.34,-0.17 -0.48,-0.58 -0.31,-0.92 1.01,-2.02 2.09,-3.55 3.13,-4.54 0.71,-0.67 1.41,-1.11 2.09,-1.32 0.76,-0.23 1.47,-0.19 2.13,0.14 0.32,0.16 0.61,0.38 0.88,0.66 0.84,0.89 1.35,1.96 1.6,3.1 0.27,1.26 0.21,2.6 -0.07,3.85 -0.28,1.26 -0.76,2.41 -1.22,3.52l-0.06 0.14c-0.43,1.04 -0.71,1.95 -0.96,2.74 -0.79,2.58 -1.26,4.1 -4.57,4.85 -0.37,0.08 -0.74,-0.15 -0.82,-0.52 -0.08,-0.37 0.15,-0.73 0.52,-0.82 2.53,-0.57 2.91,-1.81 3.56,-3.91 0.25,-0.83 0.55,-1.78 1,-2.86l0.06 -0.15c0.44,-1.06 0.9,-2.16 1.15,-3.28 0.24,-1.07 0.29,-2.21 0.06,-3.27 -0.19,-0.91 -0.59,-1.75 -1.25,-2.44 -0.16,-0.17 -0.32,-0.3 -0.49,-0.38 -0.33,-0.17 -0.7,-0.18 -1.11,-0.06 -0.48,0.15 -1,0.49 -1.55,1 -0.94,0.9 -1.92,2.29 -2.85,4.16z"/>
  <path class="fil0" d="M65.3 44.76c0.07,0.37 -0.18,0.73 -0.55,0.8 -0.37,0.07 -0.73,-0.17 -0.8,-0.55l-0.13 -0.64c-0.49,-2.59 -0.64,-3.35 0.78,-6.23 0.67,-1.36 1.44,-2.16 2.18,-2.48 0.5,-0.21 0.99,-0.23 1.43,-0.06 0.43,0.15 0.8,0.47 1.09,0.92 0.53,0.85 0.8,2.24 0.6,4 -0.05,0.38 -0.39,0.65 -0.77,0.61 -0.37,-0.04 -0.64,-0.39 -0.6,-0.76 0.17,-1.44 -0.01,-2.51 -0.39,-3.11 -0.13,-0.2 -0.26,-0.32 -0.4,-0.37 -0.12,-0.05 -0.26,-0.04 -0.42,0.03 -0.45,0.2 -0.97,0.78 -1.49,1.83 -1.21,2.46 -1.09,3.12 -0.66,5.36l0.13 0.65z"/>
  <path class="fil0" d="M63.93 40.76c-0.26,-0.27 -0.26,-0.7 0.01,-0.97 0.27,-0.26 0.71,-0.26 0.97,0.01l0.28 0.28c1.7,1.73 2.35,2.39 2.12,5.16 -0.03,0.37 -0.36,0.66 -0.74,0.62 -0.38,-0.03 -0.66,-0.36 -0.63,-0.74 0.18,-2.14 -0.35,-2.67 -1.73,-4.08l-0.28 -0.28z"/>
  <path class="fil0" d="M61.48 43.57c-0.08,-0.37 0.16,-0.73 0.53,-0.81 0.37,-0.08 0.73,0.16 0.81,0.53 0.61,2.95 1.09,5.44 1.47,7.94 0.38,2.5 0.66,5.03 0.87,8.03 0.03,0.38 -0.25,0.71 -0.63,0.74 -0.38,0.02 -0.71,-0.26 -0.74,-0.64 -0.21,-2.95 -0.48,-5.45 -0.86,-7.93 -0.38,-2.49 -0.85,-4.96 -1.45,-7.86z"/>
  <path class="fil0" d="M57.46 52.13c-0.02,-0.38 0.27,-0.7 0.65,-0.72 0.38,-0.01 0.7,0.28 0.72,0.66l0.01 0.36c0.3,6.81 0.45,10.36 -1.12,17.09 -0.09,0.37 -0.46,0.6 -0.83,0.51 -0.37,-0.09 -0.6,-0.45 -0.51,-0.82 1.53,-6.56 1.38,-10.04 1.09,-16.72l-0.01 -0.36z"/>
  <path class="fil0" d="M40.74 43.04c-0.31,0.22 -0.74,0.16 -0.96,-0.15 -0.23,-0.31 -0.16,-0.74 0.15,-0.96 1.88,-1.37 3.23,-2.16 4.7,-2.38 1.48,-0.22 2.98,0.16 5.16,1.14 0.35,0.16 0.5,0.57 0.35,0.91 -0.16,0.35 -0.57,0.5 -0.91,0.35 -1.93,-0.87 -3.22,-1.21 -4.4,-1.04 -1.2,0.18 -2.39,0.9 -4.09,2.13z"/>
  <path class="fil0" d="M22.55 43.27c-0.36,0.14 -0.75,-0.04 -0.89,-0.4 -0.13,-0.35 0.05,-0.75 0.4,-0.88l0.23 -0.09c3.42,-1.29 6.62,-2.49 9.39,0.84 0.24,0.29 0.21,0.72 -0.09,0.96 -0.29,0.25 -0.72,0.21 -0.96,-0.09 -2.15,-2.58 -4.91,-1.53 -7.85,-0.42l-0.23 0.08z"/>
  <circle class="fil1" cx="26.97" cy="43.1" r="1.53"/>
  <circle class="fil1" cx="45.58" cy="42.16" r="1.53"/>
  <path class="fil0" d="M20.44 49.13c0.02,-0.42 0.37,-0.74 0.79,-0.72 0.42,0.03 0.74,0.38 0.71,0.8 -0.07,1.25 -0.13,2.45 -0.15,3.57 -0.03,1.13 -0.02,2.23 0.03,3.32 0.19,3.76 1.83,7.1 3.86,11.25l0.11 0.24c0.71,1.43 1.74,2.8 2.94,4.06 1.39,1.44 3.01,2.72 4.64,3.77 5.38,3.49 9.06,1.55 15.49,-1.82 0.8,-0.42 1.64,-0.87 2.71,-1.41 0.37,-0.19 0.83,-0.05 1.02,0.32 0.19,0.38 0.04,0.83 -0.33,1.02 -0.84,0.43 -1.79,0.93 -2.7,1.4 -6.92,3.64 -10.89,5.73 -17.01,1.76 -1.72,-1.11 -3.43,-2.47 -4.9,-4 -1.31,-1.35 -2.43,-2.85 -3.21,-4.44l-0.12 -0.24c-2.1,-4.31 -3.8,-7.78 -4.01,-11.83 -0.05,-1.11 -0.06,-2.25 -0.03,-3.43 0.03,-1.2 0.09,-2.39 0.16,-3.62z"/>
  <path class="fil0" d="M36.49 78.44c-0.35,-0.24 -0.44,-0.71 -0.21,-1.05 0.24,-0.35 0.71,-0.44 1.05,-0.21l5.47 3.7c5.17,-2.45 8.79,-4.31 11.81,-6.81 3.09,-2.56 5.58,-5.82 8.53,-11.11 1.04,-1.88 1.93,-3.74 2.54,-5.74 0.61,-1.99 0.95,-4.11 0.92,-6.53 -0.01,-0.42 0.33,-0.76 0.75,-0.77 0.41,0 0.75,0.33 0.76,0.75 0.03,2.59 -0.33,4.87 -0.99,6.99 -0.64,2.11 -1.57,4.07 -2.66,6.03 -3.05,5.48 -5.65,8.86 -8.88,11.54 -3.22,2.66 -7.02,4.6 -12.49,7.18 -0.24,0.13 -0.54,0.12 -0.78,-0.04l-5.82 -3.93z"/>
  <path class="fil0" d="M27.94 62.05c0,0.38 -0.31,0.68 -0.69,0.68 -0.37,-0.01 -0.68,-0.32 -0.68,-0.69l0.01 -0.23c0.04,-4.97 0.05,-6.15 3.35,-10.15 0.25,-0.29 0.68,-0.33 0.97,-0.09 0.29,0.24 0.34,0.68 0.09,0.97 -3,3.62 -3.01,4.71 -3.04,9.28l-0.01 0.23z"/>
  <path class="fil0" d="M41.52 52.47c-0.27,-0.27 -0.26,-0.7 0.01,-0.97 0.27,-0.26 0.7,-0.26 0.97,0.01 0.84,0.85 1.67,1.59 2.43,2.27 1.6,1.43 2.92,2.6 3.72,4.29 0.55,1.19 0.61,2.57 0.68,4.28l0.03 0.79c0.01,0.38 -0.28,0.7 -0.66,0.72 -0.38,0.01 -0.7,-0.28 -0.71,-0.66l-0.04 -0.8c-0.06,-1.55 -0.11,-2.81 -0.55,-3.74 -0.67,-1.44 -1.89,-2.53 -3.38,-3.85 -0.77,-0.69 -1.61,-1.43 -2.5,-2.34z"/>
  <path class="fil0" d="M28.73 53.53c0.12,-0.36 0.5,-0.56 0.86,-0.45 0.37,0.12 0.57,0.5 0.46,0.86 -0.22,0.7 0.39,1 1.01,1.31 0.23,0.11 0.45,0.22 0.64,0.33 0.68,0.4 0.89,0.77 1.09,1.11 0.08,0.15 0.17,0.3 0.39,0.41 0.29,0.14 0.69,0.24 1.1,0.27 0.35,0.02 0.68,-0.02 0.95,-0.13 0.2,-0.09 0.3,-0.23 0.42,-0.4 0.22,-0.31 0.46,-0.64 1.04,-0.97 0.37,-0.2 0.8,-0.37 1.22,-0.49 0.42,-0.13 0.84,-0.19 1.18,-0.18 0.23,0.01 0.83,-0.17 1.36,-0.43 0.34,-0.16 0.62,-0.33 0.66,-0.44 0.14,-0.35 0.54,-0.53 0.89,-0.39 0.35,0.13 0.53,0.53 0.39,0.88 -0.18,0.48 -0.72,0.89 -1.33,1.19l-0.01 0c-0.71,0.35 -1.6,0.58 -2.02,0.56 -0.19,-0.01 -0.46,0.04 -0.74,0.12 -0.32,0.1 -0.65,0.23 -0.94,0.39 -0.31,0.17 -0.45,0.37 -0.58,0.56 -0.24,0.33 -0.45,0.63 -1,0.86 -0.47,0.21 -1.03,0.27 -1.57,0.24 -0.59,-0.04 -1.18,-0.19 -1.63,-0.41 -0.6,-0.3 -0.78,-0.62 -0.98,-0.96 -0.1,-0.19 -0.22,-0.39 -0.58,-0.6 -0.19,-0.11 -0.37,-0.2 -0.55,-0.29 -1.16,-0.57 -2.29,-1.13 -1.73,-2.95z"/>
  <path class="fil0" d="M30.1 63.2c-0.38,-0.04 -0.65,-0.38 -0.61,-0.76 0.04,-0.38 0.38,-0.65 0.76,-0.61 3.36,0.38 5.67,0.46 7.93,0.26 2.25,-0.2 4.5,-0.69 7.72,-1.45 0.36,-0.08 0.73,0.15 0.82,0.52 0.09,0.37 -0.14,0.74 -0.51,0.82 -3.26,0.77 -5.55,1.26 -7.91,1.47 -2.37,0.21 -4.76,0.13 -8.2,-0.25z"/>
  <path class="fil0" d="M33.05 66.86c-0.37,-0.1 -0.58,-0.48 -0.48,-0.85 0.1,-0.36 0.48,-0.58 0.84,-0.48l0.56 0.15c1.61,0.44 2.37,0.65 3.02,0.65 0.58,0 1.17,-0.17 2.3,-0.47 0.26,-0.07 0.55,-0.15 1.24,-0.33 0.36,-0.1 0.74,0.12 0.83,0.49 0.1,0.37 -0.12,0.74 -0.49,0.84 -0.25,0.06 -0.77,0.2 -1.22,0.33 -1.24,0.33 -1.9,0.51 -2.66,0.51 -0.83,0 -1.65,-0.22 -3.38,-0.69l-0.56 -0.15z"/>
  <path class="fil0" d="M27.9 62.28c-0.13,0.36 -0.53,0.54 -0.88,0.4 -0.36,-0.13 -0.54,-0.53 -0.4,-0.88 0.32,-0.87 0.9,-1.75 1.59,-2.58 0.83,-1 1.83,-1.93 2.7,-2.63 0.29,-0.24 0.73,-0.19 0.96,0.11 0.24,0.29 0.19,0.72 -0.1,0.96 -0.81,0.65 -1.73,1.51 -2.51,2.44 -0.59,0.72 -1.09,1.47 -1.36,2.18z"/>
  <path class="fil0" d="M39.74 57.47c-0.23,-0.31 -0.17,-0.74 0.14,-0.96 0.3,-0.23 0.73,-0.17 0.96,0.14 0.48,0.64 0.87,1.15 1.23,1.58l0 0c0.38,0.45 0.79,0.88 1.34,1.39 0.27,0.25 0.29,0.69 0.04,0.97 -0.26,0.28 -0.7,0.29 -0.97,0.04 -0.6,-0.55 -1.04,-1.02 -1.46,-1.51l0 -0.01c-0.44,-0.52 -0.81,-1.02 -1.28,-1.64z"/>
  <path class="fil0" d="M43.21 58.23c-0.29,-0.24 -0.33,-0.67 -0.09,-0.96 0.24,-0.29 0.68,-0.33 0.97,-0.09l2.47 2.08c0.3,0.24 0.33,0.67 0.09,0.96 -0.24,0.3 -0.68,0.33 -0.97,0.09l-2.47 -2.08z"/>
  <path class="fil0" d="M37.23 58.12c-0.18,-0.33 -0.05,-0.75 0.28,-0.93 0.34,-0.18 0.75,-0.05 0.93,0.28l1.42 2.63c0.18,0.33 0.06,0.75 -0.28,0.93 -0.33,0.18 -0.75,0.05 -0.93,-0.28l-1.42 -2.63z"/>
  <path class="fil0" d="M31.64 58.57c0.27,-0.27 0.7,-0.28 0.97,-0.01 0.27,0.27 0.28,0.7 0.01,0.97l-1.5 1.52c-0.26,0.27 -0.7,0.28 -0.97,0.01 -0.27,-0.26 -0.27,-0.7 -0.01,-0.97l1.5 -1.52z"/>
  <path class="fil0" d="M21.06 38.69c-0.02,0.41 -0.37,0.74 -0.78,0.73 -0.42,-0.02 -0.75,-0.37 -0.73,-0.79 0.06,-1.78 -0.01,-3.56 -0.07,-5.32 -0.08,-2.01 -0.16,-3.99 -0.04,-5.97 0.27,-4.64 0.92,-7.28 2.56,-8.93 1.64,-1.65 4.13,-2.17 8.09,-2.61 3.5,-0.38 6.72,-0.54 10.47,-0.73 0.86,-0.05 1.76,-0.09 2.68,-0.14 2.84,-0.16 5.09,-0.18 6.89,0.25 1.93,0.47 3.31,1.44 4.26,3.28 0.92,1.76 1.41,4.38 1.94,7.15 0.08,0.44 0.16,0.88 0.3,1.56 0.39,2 0.81,4.02 1.28,5.88 0.47,1.85 0.98,3.55 1.55,4.92 0.16,0.39 -0.02,0.83 -0.41,0.99 -0.39,0.16 -0.83,-0.02 -0.99,-0.41 -0.6,-1.45 -1.13,-3.21 -1.62,-5.13 -0.47,-1.9 -0.9,-3.95 -1.3,-5.97 -0.07,-0.36 -0.18,-0.96 -0.3,-1.56 -0.5,-2.66 -0.98,-5.17 -1.79,-6.74 -0.72,-1.4 -1.79,-2.14 -3.27,-2.5 -1.62,-0.39 -3.75,-0.36 -6.46,-0.22 -0.93,0.05 -1.82,0.1 -2.68,0.14 -3.73,0.19 -6.92,0.36 -10.39,0.74 -3.62,0.39 -5.86,0.84 -7.18,2.17 -1.33,1.34 -1.88,3.7 -2.12,7.94 -0.12,1.93 -0.04,3.87 0.03,5.83 0.07,1.79 0.14,3.59 0.08,5.44z"/>
  <path class="fil0" d="M68.35 33.64c0.06,0.45 -0.26,0.86 -0.71,0.92 -0.45,0.06 -0.86,-0.26 -0.92,-0.71 -0.18,-1.42 -0.28,-2.22 -0.37,-2.99 -0.49,-4.07 -0.93,-7.64 -1.76,-10.7 -0.47,-1.72 -0.97,-3.38 -1.69,-4.88 -0.69,-1.45 -1.59,-2.76 -2.84,-3.85 -1.02,-0.88 -2.53,-1.57 -4.08,-2.28 -0.49,-0.23 -0.98,-0.45 -1.24,-0.58 -3,-1.43 -6.61,-2.42 -10.59,-2.52 -3.4,-0.08 -7.08,0.5 -10.87,2.02l-0.63 0.25c-6.69,2.67 -13.15,5.25 -13.66,12.8 -0.08,1.19 -0.12,3.28 -0.01,5.58 0.09,1.64 0.25,3.39 0.55,4.99 0.14,0.81 0.52,1.72 0.87,2.6 0.28,0.68 0.55,1.34 0.72,1.97 0.12,0.44 -0.14,0.9 -0.58,1.01 -0.44,0.12 -0.89,-0.14 -1.01,-0.58 -0.14,-0.53 -0.4,-1.14 -0.66,-1.78 -0.38,-0.94 -0.78,-1.93 -0.96,-2.92 -0.31,-1.68 -0.49,-3.51 -0.57,-5.22 -0.12,-2.37 -0.08,-4.53 0.01,-5.76 0.58,-8.58 7.51,-11.35 14.7,-14.22l0.61 -0.25c4.02,-1.61 7.91,-2.22 11.53,-2.13 4.24,0.1 8.08,1.15 11.26,2.67 0.55,0.26 0.88,0.42 1.21,0.57 1.66,0.76 3.28,1.5 4.48,2.54 1.45,1.25 2.47,2.74 3.25,4.38 0.77,1.61 1.3,3.35 1.8,5.17 0.86,3.17 1.3,6.8 1.8,10.92 0.14,1.16 0.28,2.36 0.36,2.98z"/>
  <path class="fil0" d="M35.24 77.88c0.05,-0.38 0.39,-0.65 0.77,-0.61 0.37,0.05 0.64,0.39 0.6,0.77l-0.12 1.02c-0.34,2.78 -0.58,4.72 -0.1,7.28l0.03 -0.07c0.61,-1.19 0.94,-1.84 1.5,-2.38 0.66,-0.64 1.51,-1 3.37,-1.78l0.63 -0.27c0.35,-0.15 0.75,0.02 0.9,0.37 0.03,0.07 0.05,0.15 0.05,0.23l0.02 0.29c0.05,0.9 0.09,1.72 0.18,2.58 3.22,-2.44 3.88,-3.39 6.21,-6.74 0.12,-0.18 -0.27,0.38 0.65,-0.93 0.22,-0.31 0.65,-0.39 0.96,-0.17 0.31,0.21 0.38,0.64 0.16,0.95 -0.45,0.66 -0.11,0.17 -0.64,0.93 -2.64,3.79 -3.22,4.63 -7.42,7.73 -0.09,0.08 -0.2,0.13 -0.32,0.15 -0.38,0.06 -0.73,-0.19 -0.79,-0.57 -0.19,-1.12 -0.26,-2.11 -0.32,-3.18 -1.51,0.64 -2.23,0.96 -2.69,1.39 -0.39,0.39 -0.68,0.96 -1.22,2.02 -0.23,0.45 -0.5,0.99 -0.88,1.7 -0.08,0.17 -0.24,0.31 -0.44,0.37 -0.37,0.1 -0.74,-0.11 -0.85,-0.47 -1.07,-3.81 -0.79,-6.05 -0.36,-9.6l0.12 -1.01z"/>
  <path class="fil0" d="M22.62 63.56c0.44,-0.11 0.89,0.15 1,0.59 0.11,0.44 -0.15,0.89 -0.59,1 -0.97,0.26 -1.22,0.32 -1.49,0.38 -5.34,1.36 -11.54,2.93 -14.47,6.63 -0.28,0.36 -0.8,0.42 -1.15,0.14 -0.36,-0.28 -0.42,-0.8 -0.14,-1.16 3.28,-4.15 9.77,-5.79 15.36,-7.21l1.48 -0.37z"/>
  <path class="fil0" d="M67.09 50.85c-0.3,-0.35 -0.26,-0.87 0.08,-1.16 0.35,-0.3 0.87,-0.26 1.16,0.08 3.39,3.92 6.29,7.29 9.12,10.35 2.79,3.03 5.48,5.74 8.44,8.35 0.35,0.3 0.38,0.82 0.08,1.17 -0.3,0.34 -0.82,0.37 -1.17,0.07 -3,-2.64 -5.73,-5.39 -8.56,-8.47 -2.81,-3.04 -5.74,-6.44 -9.15,-10.39z"/>
  <path class="fil0" d="M45.13 15.83c-0.1,0.29 -0.41,0.43 -0.7,0.33 -0.28,-0.1 -0.43,-0.41 -0.33,-0.7 1.06,-2.94 1.96,-4.73 3.07,-6.07 1.12,-1.35 2.43,-2.21 4.3,-3.31 0.26,-0.15 0.6,-0.06 0.75,0.2 0.16,0.26 0.07,0.59 -0.19,0.75 -1.78,1.04 -3,1.84 -4.02,3.06 -1.02,1.23 -1.87,2.92 -2.88,5.74z"/>
  <path class="fil0" d="M41.8 15.78c-0.09,0.29 -0.4,0.45 -0.69,0.35 -0.29,-0.09 -0.45,-0.4 -0.35,-0.69 1.79,-5.59 1.86,-5.67 5.18,-9.42l0.79 -0.91c0.2,-0.23 0.55,-0.25 0.78,-0.05 0.23,0.2 0.25,0.55 0.05,0.78l-0.8 0.9c-3.17,3.59 -3.23,3.66 -4.96,9.04z"/>
  <path class="fil0" d="M37.58 16.22c-0.07,0.3 -0.37,0.48 -0.66,0.41 -0.3,-0.07 -0.48,-0.37 -0.41,-0.66 0.4,-1.66 0.77,-3.14 1.57,-4.86 0.8,-1.72 2.01,-3.66 4.08,-6.22 0.19,-0.23 0.54,-0.27 0.78,-0.08 0.23,0.2 0.27,0.54 0.08,0.78 -2.01,2.47 -3.18,4.34 -3.94,5.98 -0.76,1.63 -1.12,3.06 -1.5,4.65z"/>
  <path class="fil0" d="M33.51 16.35c-0.07,0.29 -0.37,0.47 -0.66,0.4 -0.3,-0.07 -0.48,-0.37 -0.41,-0.66 0.79,-3.21 1.47,-5.29 2.35,-6.88 0.89,-1.63 1.99,-2.74 3.61,-3.98 0.24,-0.19 0.59,-0.14 0.77,0.1 0.19,0.24 0.14,0.59 -0.1,0.77 -1.5,1.15 -2.51,2.16 -3.32,3.64 -0.83,1.5 -1.47,3.5 -2.24,6.61z"/>
  <path class="fil0" d="M29.14 16.94c-0.06,0.3 -0.36,0.49 -0.65,0.42 -0.3,-0.07 -0.49,-0.36 -0.42,-0.66l0.09 -0.39c0.56,-2.47 0.83,-3.68 1.35,-4.8 0.5,-1.08 1.2,-2.02 2.58,-3.87l0 0 0.44 -0.58c0.18,-0.24 0.53,-0.29 0.77,-0.11 0.24,0.18 0.29,0.52 0.11,0.77l-0.43 0.58 -0.01 0c-1.33,1.78 -2.01,2.69 -2.46,3.67 -0.48,1.02 -0.74,2.2 -1.28,4.58l-0.09 0.39z"/>
  <path class="fil0" d="M24.77 17.73c-0.09,0.29 -0.39,0.46 -0.68,0.38 -0.3,-0.08 -0.47,-0.39 -0.38,-0.68 0.21,-0.76 0.38,-1.43 0.54,-2.04 0.66,-2.65 1.07,-4.28 3.56,-6.51 0.22,-0.21 0.57,-0.19 0.77,0.04 0.21,0.22 0.19,0.57 -0.04,0.78 -2.24,2.01 -2.61,3.51 -3.23,5.96 -0.16,0.63 -0.33,1.31 -0.54,2.07z"/>
  <path class="fil0" d="M49.46 15.75c-0.1,0.28 -0.42,0.43 -0.7,0.32 -0.29,-0.1 -0.44,-0.41 -0.33,-0.7 0.95,-2.62 2.11,-4.2 3.41,-5.27 1.31,-1.07 2.73,-1.61 4.26,-2.18 0.28,-0.1 0.6,0.04 0.7,0.32 0.11,0.29 -0.04,0.6 -0.32,0.71 -1.44,0.53 -2.77,1.04 -3.94,2 -1.16,0.95 -2.2,2.38 -3.08,4.8z"/>
  <path class="fil0" d="M53.11 17.24c-0.11,0.28 -0.42,0.43 -0.71,0.32 -0.28,-0.1 -0.42,-0.42 -0.32,-0.7 0.73,-1.96 2,-3.37 3.35,-4.35 2.14,-1.55 4.55,-2.01 5.35,-1.85 0.3,0.05 0.49,0.34 0.43,0.64 -0.06,0.3 -0.35,0.49 -0.64,0.44 -0.63,-0.13 -2.62,0.3 -4.5,1.66 -1.19,0.87 -2.32,2.12 -2.96,3.84z"/>
  <path class="fil0" d="M21.81 20.08c0.02,0.3 -0.21,0.57 -0.51,0.59 -0.3,0.03 -0.57,-0.2 -0.59,-0.5 -0.1,-1.3 -0.03,-2.89 0.26,-4.38 0.25,-1.29 0.67,-2.53 1.28,-3.47 0.17,-0.25 0.51,-0.32 0.76,-0.15 0.26,0.16 0.33,0.5 0.16,0.76 -0.53,0.8 -0.9,1.9 -1.12,3.07 -0.27,1.39 -0.34,2.87 -0.24,4.08z"/>
  <path class="fil0" d="M55.07 20.91c-0.12,0.28 -0.45,0.4 -0.72,0.27 -0.28,-0.12 -0.4,-0.45 -0.27,-0.72 0.78,-1.72 1.9,-3.05 3.41,-4.07 1.5,-1 3.39,-1.68 5.73,-2.1 0.3,-0.05 0.59,0.15 0.64,0.45 0.05,0.3 -0.15,0.59 -0.45,0.64 -2.19,0.39 -3.94,1.01 -5.3,1.93 -1.35,0.89 -2.34,2.08 -3.04,3.6z"/>
  <path class="fil0" d="M55.87 25.37c-0.18,0.25 -0.52,0.31 -0.77,0.13 -0.24,-0.18 -0.3,-0.52 -0.12,-0.77 1.3,-1.79 2.27,-3.03 3.74,-3.95 1.46,-0.9 3.36,-1.44 6.49,-1.81 0.3,-0.03 0.57,0.18 0.61,0.49 0.03,0.3 -0.19,0.57 -0.49,0.6 -2.96,0.35 -4.72,0.84 -6.03,1.66 -1.3,0.8 -2.21,1.97 -3.43,3.65z"/>
  <path class="fil0" d="M56.65 29.24c-0.2,0.23 -0.55,0.25 -0.78,0.06 -0.23,-0.2 -0.25,-0.55 -0.05,-0.78 1.35,-1.55 2.72,-2.76 4.36,-3.67 1.64,-0.91 3.53,-1.52 5.91,-1.87 0.3,-0.04 0.58,0.17 0.62,0.47 0.05,0.3 -0.16,0.58 -0.46,0.62 -2.25,0.33 -4.02,0.9 -5.53,1.74 -1.52,0.84 -2.8,1.97 -4.07,3.43z"/>
  <path class="fil0" d="M57.44 33.22c-0.24,0.18 -0.59,0.13 -0.76,-0.11 -0.18,-0.25 -0.13,-0.59 0.11,-0.77 1.5,-1.1 2.95,-2.11 4.52,-3.01 1.58,-0.91 3.29,-1.7 5.29,-2.34 0.29,-0.1 0.59,0.06 0.69,0.35 0.09,0.29 -0.07,0.6 -0.36,0.69 -1.91,0.62 -3.55,1.38 -5.07,2.25 -1.54,0.88 -2.95,1.87 -4.42,2.94z"/>
  <path class="fil0" d="M35.25 58.89c-0.08,-0.37 0.15,-0.74 0.52,-0.82 0.37,-0.09 0.74,0.15 0.82,0.52l0.5 2.14c0.08,0.37 -0.15,0.73 -0.52,0.82 -0.37,0.08 -0.74,-0.15 -0.82,-0.52l-0.5 -2.14z"/>
  <path class="fil0" d="M33.18 58.87c0.05,-0.37 0.39,-0.63 0.77,-0.58 0.37,0.05 0.64,0.39 0.59,0.77l-0.24 1.78c-0.05,0.38 -0.4,0.64 -0.77,0.59 -0.38,-0.05 -0.64,-0.39 -0.59,-0.77l0.24 -1.79z"/>
  <rect class="fil2" width="91.78" height="91.78"/>
 </g>
</svg>
