<?xml version="1.0" encoding="UTF-8"?>
<!DOCTYPE svg PUBLIC "-//W3C//DTD SVG 1.1//EN" "http://www.w3.org/Graphics/SVG/1.1/DTD/svg11.dtd">
<!-- Creator: CorelDRAW 2018 (64-Bit) -->
<svg xmlns="http://www.w3.org/2000/svg" xml:space="preserve" width="845px" height="845px" version="1.1" style="shape-rendering:geometricPrecision; text-rendering:geometricPrecision; image-rendering:optimizeQuality; fill-rule:evenodd; clip-rule:evenodd"
viewBox="0 0 112.18 112.18"
 xmlns:xlink="http://www.w3.org/1999/xlink">
 <defs>
  <style type="text/css">
   <![CDATA[
    .fil2 {fill:none}
    .fil1 {fill:black}
    .fil0 {fill:black;fill-rule:nonzero}
   ]]>
  </style>
 </defs>
 <g id="Слой_x0020_1">
  <metadata id="CorelCorpID_0Corel-Layer"/>
  <g id="_2891713705152">
   <path class="fil0" d="M35.49 22.94c-0.83,0 -1.48,-0.18 -1.96,-0.57 -0.4,-0.33 -0.45,-0.93 -0.12,-1.33 0.33,-0.4 0.92,-0.45 1.32,-0.12 0.92,0.76 6.18,-1.18 9,-2.22 2.17,-0.8 4.04,-1.49 5.28,-1.7 4.98,-0.87 7.91,0.32 10.79,4.39 0.3,0.42 0.2,1.01 -0.22,1.31 -0.43,0.3 -1.01,0.2 -1.31,-0.22 -2.48,-3.49 -4.65,-4.37 -8.93,-3.63 -1.08,0.19 -2.96,0.88 -4.96,1.62 -3.89,1.43 -6.89,2.47 -8.89,2.47z"/>
   <path class="fil0" d="M62.05 20.06c-0.35,0 -0.68,-0.19 -0.84,-0.52 -1.01,-2.01 -7.07,-8.79 -13.77,-9.87 -3.37,-0.55 -6.39,0.48 -8.97,3.06 -1.44,1.43 -2.19,2.7 -2.86,3.83 -0.48,0.79 -0.88,1.48 -1.43,2.04 -0.37,0.38 -0.96,0.38 -1.33,0.02 -0.38,-0.36 -0.39,-0.96 -0.02,-1.33 0.39,-0.4 0.73,-0.97 1.16,-1.69 0.69,-1.16 1.55,-2.61 3.15,-4.21 3.03,-3.02 6.6,-4.23 10.6,-3.58 7.3,1.18 13.88,8.36 15.15,10.88 0.23,0.47 0.04,1.03 -0.42,1.27 -0.14,0.06 -0.28,0.1 -0.42,0.1z"/>
   <path class="fil0" d="M82.7 30.12c0,0 0,0 0,0 0,0 0,0 0,0zm-0.12 0.11l0.12 -0.11zm0.52 1.72c-0.3,0 -0.6,-0.14 -0.78,-0.42 -0.26,-0.39 -0.19,-0.92 0.16,-1.22 0.38,-0.83 -0.08,-5.07 -1,-6.63 -2.2,-3.71 -6.87,-4.27 -9.46,-4.27l-0.01 0 -0.42 0c-1.37,0.02 -1.76,-0.11 -2.39,-1.32 -0.14,-0.25 -0.31,-0.58 -0.57,-1.01l-0.45 -0.76c-1.19,-1.98 -2.21,-3.69 -3.78,-5.12 -2.12,-1.92 -6.63,-4.75 -13.01,-2.12 -0.08,0.03 -0.16,0.06 -0.24,0.09 -0.17,0.06 -0.19,0.06 -0.3,0.19 -0.35,0.38 -0.95,0.4 -1.33,0.05 -0.38,-0.35 -0.4,-0.94 -0.05,-1.33 0.4,-0.43 0.73,-0.57 1.06,-0.69 0.05,-0.01 0.1,-0.03 0.15,-0.05 5.35,-2.21 10.81,-1.31 14.98,2.47 1.78,1.62 2.92,3.53 4.13,5.55l0.45 0.75c0.29,0.47 0.48,0.84 0.62,1.1 0.06,0.11 0.12,0.24 0.17,0.32 0.13,0 0.34,0 0.54,0l0.44 0 0.01 0c3,0 8.4,0.68 11.08,5.19 1.03,1.74 2.24,7.94 0.52,9.08 -0.16,0.1 -0.34,0.15 -0.52,0.15z"/>
   <path class="fil0" d="M36.79 18.46c-0.11,0 -0.22,-0.03 -0.32,-0.09 -0.3,-0.19 -0.39,-0.57 -0.21,-0.87 4.43,-7.23 11.99,-6.71 17.11,-4.07 0.31,0.16 0.43,0.54 0.27,0.85 -0.15,0.31 -0.53,0.43 -0.84,0.27 -4.87,-2.51 -11.49,-2.88 -15.47,3.61 -0.12,0.19 -0.32,0.3 -0.54,0.3z"/>
   <path class="fil0" d="M73.55 74.28c-0.23,0 -0.45,-0.08 -0.63,-0.24 -0.39,-0.35 -0.42,-0.94 -0.07,-1.33 0.97,-1.08 0.97,-2.97 0.98,-4.96 0,-1.55 0.01,-3.15 0.43,-4.66 0.2,-0.7 0.43,-1.41 0.68,-2.15 0.63,-1.88 1.28,-3.83 1.51,-6.21 0.15,-1.5 -0.18,-3.56 -0.47,-5.37 -0.04,-0.27 -0.42,-2.69 -0.49,-4.71 -0.05,-1.32 -0.08,-2.53 -0.11,-3.63 -0.13,-5.2 -0.2,-8.06 -1.62,-11.24 -1.31,-2.91 -5.2,-8.38 -8.72,-8.48 -1.06,-0.05 -1.66,0.42 -2.48,1.12 -2.03,1.74 -4.17,2.63 -6.94,2.91 -2.4,0.23 -7.26,0.26 -10.31,-1.15 -0.48,-0.22 -0.76,-0.41 -0.95,-0.55 -0.15,0.05 -0.37,0.14 -0.54,0.2 -1.14,0.43 -6.93,2.79 -9.07,6.69 -1.61,2.92 -1.06,8.54 -0.57,13.5 0.26,2.59 0.5,5.03 0.41,6.92 -0.01,0.35 -0.03,0.69 -0.05,1.03 -0.1,1.89 -0.19,3.52 0.23,5.46 0.48,2.22 1.35,4.56 2.19,6.82 0.94,2.52 1.91,5.13 2.35,7.61 0.1,0.51 -0.25,1 -0.76,1.09 -0.51,0.09 -1,-0.25 -1.09,-0.76 -0.41,-2.31 -1.31,-4.73 -2.26,-7.28 -0.86,-2.32 -1.76,-4.73 -2.27,-7.09 -0.47,-2.18 -0.37,-4.01 -0.27,-5.96 0.02,-0.33 0.04,-0.67 0.05,-1.01 0.08,-1.75 -0.15,-4.13 -0.4,-6.64 -0.51,-5.24 -1.1,-11.17 0.79,-14.6 2.4,-4.36 8.3,-6.87 10.05,-7.54 1.03,-0.39 1.51,-0.57 2.26,0 0.14,0.1 0.32,0.23 0.69,0.4 2.33,1.08 6.47,1.27 9.33,0.98 2.4,-0.23 4.16,-0.97 5.91,-2.46 0.8,-0.69 1.91,-1.63 3.75,-1.57 4.66,0.13 9.01,6.52 10.38,9.59 1.58,3.53 1.66,6.7 1.79,11.96 0.03,1.1 0.06,2.3 0.11,3.62 0.06,1.9 0.43,4.21 0.47,4.47 0.31,1.93 0.66,4.11 0.49,5.85 -0.26,2.6 -0.97,4.74 -1.6,6.62 -0.24,0.73 -0.47,1.41 -0.66,2.07 -0.35,1.26 -0.36,2.73 -0.36,4.15 -0.01,2.26 -0.01,4.6 -1.46,6.22 -0.19,0.2 -0.44,0.31 -0.7,0.31z"/>
   <path class="fil0" d="M42.91 74.26c-0.03,0 -0.07,0 -0.11,0 -0.43,-0.07 -0.73,-0.46 -0.66,-0.89 0.18,-1.3 1.03,-2.3 1.92,-3.19 0.3,-0.3 0.6,-0.59 0.92,-0.89 1.51,-1.45 3.08,-2.95 3.87,-5.17 0.14,-0.41 0.59,-0.62 1,-0.47 0.41,0.14 0.62,0.59 0.47,1 -0.91,2.57 -2.69,4.27 -4.26,5.77 -0.3,0.29 -0.6,0.58 -0.89,0.87 -0.65,0.65 -1.36,1.42 -1.48,2.3 -0.06,0.39 -0.39,0.67 -0.78,0.67z"/>
   <path class="fil0" d="M69.88 74.95c-0.37,0 -0.7,-0.27 -0.77,-0.65 -0.46,-2.68 -1.53,-3.43 -2.87,-4.4 -0.91,-0.64 -1.93,-1.37 -2.79,-2.73 -0.2,-0.32 -0.4,-0.64 -0.59,-0.95 -0.61,-0.96 -1.18,-1.88 -1.75,-2.65 -0.26,-0.35 -0.19,-0.84 0.16,-1.1 0.35,-0.25 0.84,-0.18 1.1,0.16 0.61,0.82 1.2,1.77 1.82,2.77 0.19,0.3 0.38,0.62 0.59,0.93 0.69,1.1 1.51,1.68 2.37,2.3 1.44,1.03 2.93,2.09 3.5,5.4 0.08,0.43 -0.21,0.83 -0.63,0.91 -0.05,0.01 -0.09,0.01 -0.14,0.01z"/>
   <path class="fil0" d="M56.27 68.12c-1.11,0 -1.83,-0.28 -2.54,-0.55 -0.33,-0.12 -0.68,-0.26 -1.08,-0.36 -0.22,-0.06 -0.52,-0.08 -0.84,-0.09 -0.38,-0.02 -0.78,-0.04 -1.15,-0.13 -0.03,-0.01 -0.05,-0.02 -0.08,-0.03 -1.32,-0.47 -1.98,-1.5 -1.76,-2.75 0.24,-1.4 1.58,-2.72 2.74,-2.72 0.44,0 0.79,0.35 0.79,0.78 0,0.43 -0.35,0.79 -0.79,0.79 -0.3,0 -1.07,0.67 -1.2,1.42 -0.05,0.32 -0.02,0.72 0.71,0.99 0.22,0.05 0.51,0.07 0.81,0.08 0.39,0.02 0.8,0.04 1.18,0.14 0.48,0.13 0.88,0.28 1.24,0.42 0.64,0.25 1.15,0.45 1.97,0.45 0.52,0 1.48,-0.26 2.41,-0.51l0.68 -0.18c0.25,-0.06 0.49,-0.11 0.72,-0.16 1.1,-0.24 1.22,-0.26 1.24,-1.3 0,-0.5 -0.15,-1.13 -0.93,-1.33 -0.42,-0.11 -0.67,-0.53 -0.56,-0.95 0.11,-0.42 0.53,-0.68 0.95,-0.57 1.32,0.34 2.12,1.44 2.1,2.87 -0.03,2.29 -1.33,2.57 -2.48,2.81 -0.2,0.05 -0.42,0.09 -0.65,0.15l-0.66 0.18c-1.08,0.28 -2.1,0.55 -2.82,0.55z"/>
   <path class="fil0" d="M34.61 70.5c-2.34,0 -3.47,-1.73 -4.58,-3.41 -0.2,-0.3 -0.4,-0.61 -0.62,-0.92l-0.15 -0.21c-2.08,-2.98 -3.81,-5.58 -3.95,-7.36 -0.04,-0.52 -0.16,-1.21 -0.29,-1.94 -0.45,-2.55 -1.02,-5.74 0.81,-7.39 1.42,-1.29 4.34,-1.56 5.98,0.03 0.37,0.36 0.38,0.95 0.02,1.33 -0.37,0.37 -0.96,0.38 -1.33,0.02 -0.87,-0.84 -2.63,-0.69 -3.41,0.01 -1.05,0.96 -0.57,3.68 -0.22,5.67 0.14,0.78 0.27,1.52 0.32,2.13 0.11,1.4 2.3,4.55 3.61,6.42l0.15 0.21c0.23,0.33 0.44,0.65 0.65,0.97 1.41,2.13 2.11,3.2 4.86,2.15 0.48,-0.19 1.02,0.05 1.21,0.54 0.19,0.48 -0.06,1.03 -0.54,1.21 -0.97,0.38 -1.8,0.54 -2.52,0.54z"/>
   <path class="fil0" d="M78.8 67.3c-0.38,0 -0.78,-0.11 -1.16,-0.32 -0.46,-0.25 -0.62,-0.82 -0.37,-1.28 0.25,-0.45 0.82,-0.62 1.27,-0.37 0.11,0.06 0.21,0.09 0.27,0.09 2.72,-0.13 3.02,-0.83 3.83,-2.72 0.26,-0.59 0.55,-1.26 0.96,-2.02 1.33,-2.43 1.42,-4.46 1.52,-6.81 0.06,-1.25 0.12,-2.55 0.35,-4.03l0.06 -0.34c0.41,-2.55 0.31,-3.38 -1.11,-3.62 -1.34,-0.23 -2.7,1.11 -3.53,2.44 -0.28,0.44 -0.86,0.57 -1.3,0.3 -0.44,-0.27 -0.57,-0.85 -0.3,-1.29 1.49,-2.4 3.52,-3.64 5.44,-3.31 3.5,0.6 2.97,3.85 2.65,5.79l-0.05 0.32c-0.22,1.38 -0.27,2.63 -0.33,3.83 -0.11,2.47 -0.21,4.81 -1.75,7.62 -0.37,0.68 -0.64,1.31 -0.88,1.87 -0.88,2.05 -1.58,3.67 -5.47,3.85 -0.03,0 -0.06,0 -0.1,0z"/>
   <path class="fil0" d="M83.54 43.44c-0.48,0 -0.89,-0.37 -0.94,-0.85 -0.12,-1.25 -0.4,-2.99 -0.68,-4.66 -0.2,-1.25 -0.4,-2.43 -0.53,-3.45 -0.1,-0.76 -0.19,-1.51 -0.28,-2.19 -0.11,-0.93 -0.21,-1.74 -0.28,-2.13 -0.54,-3.25 -1.25,-4.38 -4.03,-6.36 -0.42,-0.31 -0.52,-0.89 -0.22,-1.32 0.31,-0.42 0.89,-0.52 1.32,-0.21 3.18,2.27 4.17,3.83 4.79,7.58 0.07,0.43 0.17,1.22 0.29,2.21 0.08,0.67 0.17,1.42 0.27,2.17 0.13,0.99 0.33,2.16 0.53,3.4 0.28,1.7 0.57,3.46 0.69,4.78 0.05,0.52 -0.33,0.98 -0.84,1.02 -0.03,0.01 -0.06,0.01 -0.09,0.01z"/>
   <path class="fil0" d="M64.11 14.71c-0.2,0 -0.39,-0.1 -0.52,-0.27 -1.82,-2.68 -3.71,-3.67 -6.97,-3.67 -0.34,0 -0.62,-0.28 -0.62,-0.63 0,-0.34 0.28,-0.62 0.62,-0.62 3.69,0 5.94,1.18 8.01,4.21 0.2,0.28 0.12,0.67 -0.16,0.87 -0.11,0.07 -0.24,0.11 -0.36,0.11z"/>
   <path class="fil0" d="M26.76 44.53c-0.35,0 -0.7,-0.21 -0.85,-0.55 -1.01,-2.19 -0.94,-6.93 -0.35,-10.48 0.11,-0.64 0.41,-1.53 0.8,-2.67 0.25,-0.73 0.53,-1.57 0.8,-2.46 0.35,-1.15 0.68,-2.4 0.98,-3.49 0.33,-1.22 0.59,-2.18 0.79,-2.74 1.36,-3.84 3.02,-6.3 5.09,-7.5 0.45,-0.27 1.02,-0.12 1.29,0.33 0.26,0.45 0.11,1.03 -0.34,1.29 -1.64,0.96 -3.08,3.15 -4.27,6.51 -0.17,0.49 -0.44,1.47 -0.74,2.6 -0.3,1.11 -0.64,2.37 -1,3.55 -0.28,0.91 -0.57,1.77 -0.82,2.52 -0.34,1.01 -0.64,1.88 -0.72,2.37 -0.61,3.69 -0.53,7.81 0.2,9.38 0.21,0.48 0.01,1.03 -0.47,1.25 -0.12,0.06 -0.26,0.09 -0.39,0.09z"/>
   <path class="fil0" d="M31.15 50.91c-0.25,0 -0.5,-0.1 -0.68,-0.3 -0.77,-0.81 -1.98,-3.36 -2.17,-4.86 -0.2,-1.54 -1.03,-9.45 2.06,-13.96 0.29,-0.43 0.88,-0.53 1.31,-0.24 0.43,0.29 0.54,0.88 0.24,1.31 -2.09,3.06 -2.25,8.72 -1.74,12.65 0.14,1.15 1.19,3.31 1.67,3.82 0.35,0.38 0.33,0.97 -0.05,1.33 -0.18,0.17 -0.41,0.25 -0.64,0.25z"/>
   <path class="fil0" d="M29.55 30.68c-0.05,0 -0.1,0 -0.14,-0.01 -0.34,-0.08 -0.55,-0.41 -0.48,-0.75 0.78,-3.44 5.85,-5.99 7.23,-5.99 0.35,0 0.63,0.29 0.63,0.63 0,0.35 -0.28,0.63 -0.63,0.63 -0.76,0 -5.37,2.2 -6,5 -0.07,0.3 -0.33,0.49 -0.61,0.49z"/>
   <path class="fil0" d="M79.76 42.31c-0.02,0 -0.04,0 -0.06,0 -0.34,-0.03 -0.6,-0.34 -0.57,-0.68l0.03 -0.37c0.19,-2.13 0.7,-7.78 -1.81,-12.85 -0.16,-0.31 -0.03,-0.69 0.28,-0.84 0.31,-0.15 0.69,-0.03 0.84,0.28 2.67,5.39 2.14,11.3 1.94,13.52l-0.03 0.36c-0.03,0.33 -0.3,0.58 -0.62,0.58z"/>
   <path class="fil0" d="M34.53 68.82c-0.36,0 -0.68,-0.25 -0.76,-0.6 -0.13,-0.39 -1.4,-3.6 -2.32,-5.95 -0.74,-1.89 -1.39,-3.51 -1.56,-3.98 -0.38,-1.02 -0.36,-2.12 -0.34,-3.09 0.01,-0.84 0.03,-1.64 -0.23,-2.01 -0.25,-0.36 -0.16,-0.85 0.2,-1.09 0.36,-0.25 0.85,-0.16 1.09,0.2 0.55,0.79 0.53,1.83 0.51,2.93 -0.02,0.87 -0.03,1.78 0.24,2.52 0.17,0.45 0.84,2.15 1.55,3.94 2.37,6.03 2.38,6.08 2.4,6.26 0.05,0.43 -0.26,0.82 -0.69,0.87 -0.03,0 -0.06,0 -0.09,0z"/>
   <path class="fil0" d="M46.93 75.55c-0.43,0 -0.82,-0.31 -0.92,-0.75 -0.11,-0.5 0.21,-1.01 0.72,-1.12 0.81,-0.17 3.59,-0.75 5.46,-0.84 1.17,-0.05 1.75,0.21 2.27,0.44 0.35,0.16 0.63,0.28 1.17,0.33 0.29,0.02 0.48,-0.06 0.86,-0.23 0.1,-0.05 0.21,-0.1 0.32,-0.15 0.74,-0.31 1.62,-0.39 2.76,-0.26 0.67,0.07 1.14,0.14 1.54,0.2 0.87,0.12 1.35,0.19 2.85,0.19 0.52,0 0.94,0.42 0.94,0.94 0,0.52 -0.42,0.94 -0.94,0.94 -1.63,0 -2.22,-0.08 -3.11,-0.21 -0.39,-0.06 -0.85,-0.12 -1.49,-0.19 -0.8,-0.09 -1.4,-0.05 -1.82,0.13 -0.09,0.03 -0.18,0.07 -0.26,0.11 -0.45,0.21 -1.01,0.47 -1.81,0.4 -0.86,-0.07 -1.37,-0.3 -1.77,-0.48 -0.43,-0.19 -0.7,-0.31 -1.42,-0.28 -1.77,0.09 -4.6,0.69 -5.15,0.8 -0.07,0.02 -0.13,0.03 -0.2,0.03z"/>
   <path class="fil0" d="M54.39 79.33c-2.04,0 -3.19,-0.54 -4.29,-1.06 -0.19,-0.09 -0.37,-0.18 -0.56,-0.26 -0.48,-0.22 -0.69,-0.77 -0.48,-1.25 0.21,-0.47 0.77,-0.68 1.25,-0.47 0.2,0.09 0.39,0.18 0.59,0.27 1.04,0.49 1.87,0.88 3.49,0.88 1.65,0 4.23,-0.55 6.44,-1.38 0.48,-0.18 1.03,0.06 1.21,0.55 0.18,0.49 -0.07,1.03 -0.55,1.21 -2,0.75 -4.96,1.51 -7.1,1.51z"/>
   <path class="fil0" d="M77.84 68.39c-0.43,0 -0.78,-0.35 -0.78,-0.79 0,-4.01 0.15,-6.62 3.13,-9.67 0.96,-0.98 2.04,-2.24 1.96,-3.33 -0.04,-0.53 -0.37,-1.02 -1.01,-1.49 -0.35,-0.26 -0.42,-0.75 -0.17,-1.1 0.26,-0.35 0.75,-0.42 1.1,-0.16 1.01,0.75 1.57,1.64 1.64,2.63 0.14,1.7 -1.14,3.25 -2.4,4.55 -2.44,2.49 -2.68,4.43 -2.68,8.57 0,0.44 -0.35,0.79 -0.79,0.79z"/>
   <path class="fil0" d="M77.16 84.65c-0.51,0 -0.92,-0.4 -0.94,-0.91l-0.01 -0.33c-0.58,-3.22 0.06,-4.36 0.63,-5.36 0.23,-0.41 0.42,-0.76 0.55,-1.27 0.72,-3.05 0.05,-3.85 -0.72,-4.78 -0.33,-0.39 -0.7,-0.83 -0.97,-1.42 -0.23,-0.47 -0.03,-1.03 0.44,-1.25 0.47,-0.22 1.03,-0.02 1.26,0.45 0.17,0.37 0.42,0.67 0.71,1.02 1.16,1.39 1.98,2.74 1.11,6.41 -0.19,0.77 -0.48,1.3 -0.74,1.76 -0.48,0.84 -0.89,1.57 -0.41,4.17 0.01,0.05 0.02,0.09 0.02,0.14l0.01 0.4c0.02,0.52 -0.39,0.96 -0.91,0.97 -0.01,0 -0.02,0 -0.03,0z"/>
   <path class="fil0" d="M74.89 85.9c-0.32,0 -0.63,-0.16 -0.81,-0.46 -2.36,-3.98 -1.7,-5.77 -1.17,-7.2 0.27,-0.72 0.44,-1.2 0.21,-1.95 -0.16,-0.49 0.12,-1.02 0.62,-1.17 0.49,-0.16 1.02,0.12 1.18,0.61 0.42,1.36 0.07,2.31 -0.24,3.16 -0.43,1.17 -0.88,2.38 1.02,5.59 0.27,0.45 0.12,1.03 -0.33,1.29 -0.15,0.09 -0.31,0.13 -0.48,0.13z"/>
   <path class="fil0" d="M66.69 90.93c-0.19,0 -0.39,-0.06 -0.56,-0.19 -0.42,-0.31 -0.5,-0.9 -0.19,-1.32 0.5,-0.65 1.18,-0.85 1.73,-1 0.63,-0.18 1.05,-0.3 1.4,-0.99 0.62,-1.25 0.9,-3.64 0.64,-5.56 -0.28,-2.14 -1.13,-3.65 -1.69,-4.65 -0.27,-0.48 -0.46,-0.82 -0.55,-1.15 -0.14,-0.5 0.15,-1.01 0.65,-1.15 0.5,-0.15 1.02,0.15 1.16,0.65 0.03,0.11 0.23,0.45 0.38,0.73 0.59,1.06 1.58,2.83 1.92,5.32 0.25,1.9 0.1,4.79 -0.83,6.65 -0.72,1.43 -1.83,1.75 -2.56,1.96 -0.4,0.11 -0.63,0.18 -0.74,0.33 -0.19,0.24 -0.47,0.37 -0.76,0.37z"/>
   <path class="fil0" d="M67.11 86.29c-0.52,0 -0.94,-0.42 -0.94,-0.94 0,-1.85 -0.47,-4.14 -1.36,-4.92 -0.26,-0.24 -0.53,-0.32 -0.89,-0.27 -0.51,0.06 -0.98,-0.3 -1.05,-0.82 -0.06,-0.51 0.3,-0.98 0.82,-1.05 0.88,-0.11 1.7,0.14 2.36,0.72 1.91,1.68 2,5.58 2,6.34 0,0.52 -0.42,0.94 -0.94,0.94z"/>
   <path class="fil0" d="M65.56 93.2c-0.25,0 -0.49,-0.09 -0.67,-0.28 -0.05,-0.05 -0.1,-0.1 -0.15,-0.15 -0.03,-0.04 -0.06,-0.07 -0.1,-0.1 -2.57,-1.06 -2.28,-3.31 -2.04,-5.11 0.28,-2.13 0.57,-4.32 -2.19,-6.42 -0.41,-0.32 -0.49,-0.91 -0.17,-1.32 0.31,-0.41 0.9,-0.49 1.31,-0.18 3.62,2.76 3.21,5.88 2.92,8.16 -0.28,2.09 -0.22,2.67 0.89,3.13 0.39,0.16 0.6,0.39 0.76,0.56l0.1 0.1c0.37,0.37 0.37,0.96 0,1.33 -0.18,0.19 -0.42,0.28 -0.66,0.28z"/>
   <path class="fil0" d="M56.71 89.79c-0.33,0 -0.65,-0.17 -0.82,-0.47 -0.26,-0.45 -0.1,-1.03 0.35,-1.29 2.33,-1.32 2.21,-2.3 1.92,-4.67 -0.05,-0.44 -0.11,-0.92 -0.16,-1.43 -0.04,-0.52 0.34,-0.97 0.86,-1.02 0.52,-0.04 0.97,0.34 1.02,0.86 0.04,0.49 0.1,0.94 0.15,1.37 0.3,2.46 0.56,4.58 -2.86,6.53 -0.15,0.08 -0.31,0.12 -0.46,0.12z"/>
   <path class="fil0" d="M56.7 94.19c-0.21,0 -0.42,-0.07 -0.6,-0.21 -0.94,-0.79 -2.11,-2.56 -2.43,-4.32 -0.44,-2.45 0.25,-5.16 1.14,-6.26 0.32,-0.41 0.92,-0.47 1.32,-0.14 0.4,0.32 0.47,0.92 0.14,1.32 -0.47,0.58 -1.12,2.67 -0.75,4.75 0.23,1.25 1.1,2.63 1.79,3.2 0.4,0.33 0.45,0.92 0.12,1.32 -0.19,0.23 -0.46,0.34 -0.73,0.34z"/>
   <path class="fil0" d="M54.91 96.34c-0.83,0 -1.75,-0.21 -2.79,-0.7 -0.47,-0.23 -0.67,-0.79 -0.45,-1.26 0.23,-0.47 0.79,-0.67 1.26,-0.44 3.04,1.44 4.35,-0.29 6.22,-3.23 0.47,-0.74 0.96,-1.51 1.5,-2.16 0.33,-0.41 0.92,-0.46 1.32,-0.13 0.4,0.33 0.46,0.92 0.13,1.32 -0.46,0.56 -0.9,1.25 -1.37,1.98 -1.28,2.02 -2.93,4.62 -5.82,4.62z"/>
   <path class="fil0" d="M51.36 96.11l-1.14 0c-0.96,0 -2.57,-0.94 -5.82,-3.05 -0.81,-0.53 -1.81,-1.18 -2.06,-1.28 -1.5,-0.56 -1.98,-2.21 -2.4,-3.67 -0.24,-0.84 -0.54,-1.89 -0.95,-2.09 -3.02,-1.43 -2.78,-3.33 -2.63,-4.59 0.07,-0.5 0.12,-0.93 -0.02,-1.22 -0.78,-1.59 -1.82,-5.56 -1.04,-7.5 0.3,-0.74 0.79,-1.05 1.14,-1.18 0.49,-0.18 1.03,0.07 1.21,0.56 0.18,0.48 -0.07,1.02 -0.54,1.2 -0.5,0.52 -0.06,4.09 0.91,6.09 0.4,0.79 0.3,1.58 0.21,2.28 -0.14,1.13 -0.22,1.81 1.57,2.66 1.17,0.56 1.57,1.94 1.95,3.27 0.3,1.03 0.64,2.2 1.25,2.43 0.4,0.15 1.11,0.61 2.43,1.46 1.34,0.88 4.12,2.69 4.81,2.75l1.12 0c0.51,0 0.94,0.42 0.94,0.94 0,0.52 -0.43,0.94 -0.94,0.94z"/>
   <path class="fil0" d="M41.63 85.32c-0.5,0 -0.92,-0.4 -0.94,-0.9l-0.01 -0.2c0,-0.05 0,-0.1 0.01,-0.15 0.18,-1.51 -0.2,-3.21 -0.54,-4.71 -0.46,-2.03 -0.86,-3.78 0.03,-5.05 0.29,-0.43 0.88,-0.53 1.31,-0.24 0.42,0.3 0.53,0.89 0.23,1.31 -0.41,0.59 -0.07,2.1 0.26,3.56 0.37,1.63 0.79,3.47 0.58,5.28l0.01 0.12c0.02,0.52 -0.38,0.96 -0.9,0.98 -0.01,0 -0.03,0 -0.04,0z"/>
   <path class="fil0" d="M45.42 91.15c-0.52,0 -0.94,-0.42 -0.94,-0.94 0,-1.01 0.1,-1.84 0.18,-2.58 0.08,-0.7 0.15,-1.3 0.12,-1.93 -0.04,-0.97 -0.32,-1.95 -0.62,-2.99 -0.35,-1.24 -0.72,-2.52 -0.75,-3.96 -0.01,-0.52 0.41,-0.94 0.93,-0.95 0.53,0.01 0.94,0.4 0.95,0.92 0.02,1.19 0.34,2.3 0.68,3.47 0.31,1.1 0.64,2.23 0.69,3.42 0.04,0.78 -0.04,1.49 -0.13,2.24 -0.08,0.72 -0.17,1.45 -0.17,2.36 0,0.52 -0.42,0.94 -0.94,0.94z"/>
   <path class="fil0" d="M51.36 96.12c-0.37,0 -0.73,-0.22 -0.88,-0.59l-0.23 -0.57c-1.6,-1.92 -1.89,-10.14 -1.4,-12.72 0.13,-0.73 0.42,-1.73 1.27,-1.98 0.5,-0.14 1.02,0.15 1.17,0.65 0.12,0.42 -0.07,0.86 -0.43,1.07 -0.81,1.48 -0.21,10.59 0.8,11.75 0.13,0.1 0.2,0.2 0.27,0.36l0.3 0.73c0.19,0.48 -0.04,1.03 -0.52,1.22 -0.11,0.05 -0.24,0.08 -0.35,0.08z"/>
   <g>
    <path class="fil0" d="M39.83 104.56l0.01 0 -0.01 0zm0.52 0.4l-0.52 -0.4zm-0.61 1.58c-0.05,0 -0.09,0 -0.13,-0.01 -1.48,-0.15 -1.62,-3.65 -1.62,-3.69 0,-1.21 -0.01,-2.19 -0.03,-3.03 -0.06,-3.32 -0.09,-4.7 1.45,-9.3 0.16,-0.49 0.7,-0.76 1.19,-0.59 0.49,0.16 0.76,0.69 0.59,1.19 -1.43,4.29 -1.41,5.39 -1.35,8.67 0.02,0.85 0.04,1.84 0.03,3.07 0.01,0.13 0.05,0.44 0.12,0.77 1.62,-1.41 4.92,-3.01 5.83,-3.16 0.28,-0.05 0.72,-0.12 1.24,-0.18 -1.75,-1.56 -4.02,-3.81 -4.81,-4.95 -0.3,-0.43 -0.19,-1.01 0.24,-1.31 0.43,-0.29 1.01,-0.19 1.31,0.24 0.93,1.35 4.6,4.82 5.99,5.86 0.13,0.09 0.23,0.16 0.32,0.22 0.46,0.11 0.81,0.31 0.96,0.63 0.17,0.39 0.06,0.86 -0.27,1.13 -0.14,0.11 -0.51,0.41 -1.35,0.02 -0.47,-0.07 -1.49,-0.12 -3.32,0.19 -0.99,0.17 -4.64,2.28 -5.23,3 -0.24,0.99 -0.74,1.23 -1.16,1.23z"/>
   </g>
   <path class="fil0" d="M51.75 102.05c-0.63,0 -1.18,-0.06 -1.71,-0.11l-0.44 -0.04c-0.51,-0.05 -0.9,-0.51 -0.85,-1.03 0.05,-0.52 0.51,-0.9 1.03,-0.85l0.45 0.05c1.48,0.15 2.88,0.3 5.73,-0.88 1.18,-0.49 5.95,-1.68 7.43,-1.64 1.4,0.03 2.99,0.58 4.38,1.06 0.69,0.23 1.33,0.45 1.8,0.56 0.23,0.05 0.43,0.1 0.6,0.14 0.09,-0.27 0.22,-0.61 0.44,-1.03 0.13,-0.25 0.27,-0.52 0.43,-0.81 1.29,-2.42 3.97,-7.46 2.79,-9.15 -0.3,-0.43 -0.19,-1.01 0.23,-1.31 0.43,-0.3 1.02,-0.19 1.31,0.23 1.84,2.64 -0.87,7.74 -2.67,11.12 -0.15,0.28 -0.3,0.55 -0.42,0.8 -0.3,0.56 -0.38,0.91 -0.44,1.14 -0.06,0.26 -0.16,0.65 -0.56,0.89 -0.42,0.25 -0.82,0.14 -1.27,0.02 -0.2,-0.05 -0.47,-0.12 -0.84,-0.21 -0.58,-0.12 -1.27,-0.36 -2.01,-0.61 -1.27,-0.44 -2.71,-0.93 -3.82,-0.96 -1.12,-0.04 -5.59,1.06 -6.67,1.5 -2.17,0.9 -3.69,1.12 -4.92,1.12z"/>
   <path class="fil0" d="M85.98 102.05c-0.13,0 -0.27,-0.03 -0.4,-0.09 -2.43,-1.15 -4.4,-4.06 -4.94,-4.92 -2.24,-3.55 -4.52,-6.97 -7.72,-9.75 -0.39,-0.34 -0.43,-0.94 -0.09,-1.33 0.34,-0.39 0.93,-0.43 1.32,-0.09 3.4,2.95 5.76,6.49 8.08,10.16 0.93,1.49 2.58,3.49 4.15,4.23 0.47,0.22 0.67,0.78 0.45,1.25 -0.16,0.34 -0.5,0.54 -0.85,0.54z"/>
   <path class="fil0" d="M29.48 105.04c-0.24,0 -0.47,-0.08 -0.65,-0.26 -0.37,-0.35 -0.4,-0.92 -0.05,-1.29 0.31,-0.35 3.31,-2.56 3.59,-2.69 2.2,-1.05 3.92,-5.09 5.06,-7.76 0.63,-1.47 1.13,-2.63 1.63,-3.23 0.33,-0.4 0.92,-0.46 1.32,-0.13 0.4,0.34 0.46,0.93 0.13,1.33 -0.33,0.39 -0.82,1.55 -1.35,2.77 -1.32,3.09 -3.12,7.31 -5.93,8.69 -0.4,0.28 -2.78,2.01 -3.08,2.3 -0.19,0.18 -0.43,0.27 -0.67,0.27z"/>
   <path class="fil0" d="M61.25 52.48c-0.18,0 -0.37,-0.07 -0.52,-0.2 -0.32,-0.29 -0.35,-0.79 -0.06,-1.11 0.51,-0.57 1.01,-1.02 1.53,-1.38 2.58,-1.78 4.21,-1.33 5.66,-0.71 0.3,0.13 0.68,0.34 1.09,0.56 0.62,0.33 1.32,0.7 1.85,0.87 0.42,0.14 0.64,0.58 0.51,0.99 -0.14,0.41 -0.58,0.64 -0.99,0.51 -0.67,-0.22 -1.43,-0.63 -2.11,-0.99 -0.37,-0.2 -0.73,-0.39 -0.97,-0.5 -1.21,-0.51 -2.21,-0.77 -4.15,0.56 -0.42,0.29 -0.83,0.66 -1.25,1.13 -0.16,0.18 -0.37,0.27 -0.59,0.27z"/>
   <path class="fil0" d="M40.65 53.67c-0.27,0 -0.54,-0.14 -0.68,-0.4 -0.21,-0.38 -0.08,-0.86 0.3,-1.07 0.68,-0.37 1.04,-0.7 1.4,-1.01 0.43,-0.38 0.87,-0.78 1.71,-1.11 1.47,-0.58 3.52,-0.24 4.69,0.37 0.19,0.1 0.36,0.21 0.53,0.31 0.41,0.25 0.68,0.42 1.1,0.42 0.43,0 0.78,0.35 0.78,0.78 0,0.44 -0.35,0.79 -0.78,0.79 -0.86,0 -1.43,-0.35 -1.92,-0.65 -0.14,-0.09 -0.29,-0.18 -0.44,-0.26 -0.97,-0.51 -2.52,-0.64 -3.38,-0.3 -0.58,0.23 -0.86,0.48 -1.25,0.82 -0.38,0.34 -0.85,0.76 -1.68,1.21 -0.12,0.07 -0.25,0.1 -0.38,0.1z"/>
   <path class="fil0" d="M38.19 52.19c-0.08,0 -0.17,-0.01 -0.25,-0.04 -0.41,-0.14 -0.63,-0.59 -0.49,-1 0.52,-1.52 2.55,-2.51 3.72,-2.97 2.98,-1.17 5.96,-0.65 8.52,-0.07 0.2,0.05 0.37,0.12 0.54,0.31 0.28,0.33 0.26,0.84 -0.06,1.12 -0.28,0.25 -0.67,0.28 -0.96,0.07 -2.32,-0.52 -4.96,-0.95 -7.47,0.03 -1.51,0.59 -2.58,1.36 -2.81,2.02 -0.11,0.33 -0.41,0.53 -0.74,0.53z"/>
   <path class="fil0" d="M59.42 50c-0.15,0 -0.3,-0.04 -0.44,-0.14 -0.36,-0.24 -0.45,-0.73 -0.2,-1.09 1.83,-2.67 5.62,-2.78 8.31,-2.64 0.9,0.05 3.97,0.32 5.31,1.78 0.3,0.32 0.28,0.81 -0.04,1.11 -0.32,0.29 -0.82,0.27 -1.11,-0.05 -0.61,-0.66 -2.32,-1.17 -4.25,-1.28 -2.31,-0.12 -5.54,-0.05 -6.93,1.97 -0.15,0.22 -0.4,0.34 -0.65,0.34z"/>
   <path class="fil0" d="M60.54 46.51c-0.25,0 -0.51,-0.1 -0.7,-0.31 -0.34,-0.39 -0.31,-0.99 0.08,-1.33 0.92,-0.82 3.31,-1.32 5.16,-1.59 0.47,-0.08 0.87,-0.16 1.22,-0.24 1.2,-0.25 2.14,-0.45 3.9,0.25 0.51,0.2 1,0.55 1.43,0.85 0.28,0.19 0.54,0.37 0.73,0.47 0.47,0.23 0.66,0.79 0.43,1.26 -0.24,0.46 -0.8,0.65 -1.27,0.42 -0.31,-0.16 -0.63,-0.38 -0.96,-0.61 -0.37,-0.25 -0.75,-0.52 -1.06,-0.64 -1.23,-0.49 -1.72,-0.39 -2.8,-0.16 -0.39,0.08 -0.82,0.18 -1.34,0.26 -2.77,0.41 -3.95,0.92 -4.19,1.13 -0.18,0.16 -0.4,0.24 -0.63,0.24z"/>
   <path class="fil0" d="M36.96 48.3c-0.47,0 -0.88,-0.35 -0.93,-0.84 -0.06,-0.51 0.31,-0.98 0.83,-1.03 0.14,-0.02 0.56,-0.33 0.87,-0.55 0.79,-0.58 1.87,-1.38 3.51,-1.75 1.24,-0.28 2.56,-0.08 4.39,0.19l0.68 0.1c0.3,0.04 0.6,0.08 0.93,0.12 0.76,0.09 1.62,0.2 2.71,0.42 0.51,0.1 0.85,0.59 0.74,1.1 -0.1,0.51 -0.59,0.84 -1.1,0.74 -1.03,-0.2 -1.85,-0.3 -2.58,-0.39 -0.34,-0.04 -0.66,-0.08 -0.97,-0.13l-0.69 -0.1c-1.63,-0.24 -2.8,-0.41 -3.7,-0.21 -1.25,0.28 -2.08,0.89 -2.81,1.42 -0.61,0.45 -1.13,0.83 -1.77,0.91 -0.04,0 -0.08,0 -0.11,0z"/>
   <path class="fil0" d="M59.39 60.69c-0.39,0 -0.75,-0.24 -0.89,-0.63 -0.49,-1.42 -0.56,-3.84 -0.63,-5.97 -0.03,-1.04 -0.07,-2.33 -0.17,-2.65 -0.15,-0.49 0.12,-1.02 0.62,-1.17 0.49,-0.16 1.02,0.12 1.18,0.61 0.16,0.54 0.2,1.5 0.25,3.15 0.06,1.8 0.13,4.26 0.53,5.41 0.17,0.49 -0.09,1.03 -0.58,1.2 -0.1,0.04 -0.21,0.05 -0.31,0.05z"/>
   <path class="fil0" d="M42.4 40.65c-0.32,0 -0.6,-0.24 -0.62,-0.57 -0.03,-0.34 0.22,-0.65 0.57,-0.68l0.08 0c2.38,-0.66 6.04,-0.59 8.62,-0.23 1.91,0.27 7.07,-0.01 9.13,-0.4 2.31,-0.44 5.33,-0.77 8.22,0.59 0.32,0.15 0.45,0.53 0.3,0.84 -0.15,0.31 -0.52,0.45 -0.83,0.3 -2,-0.95 -4.3,-1.1 -7.45,-0.5 -2.22,0.42 -7.44,0.71 -9.54,0.41 -2.4,-0.33 -5.97,-0.41 -8.16,0.21 -0.04,0.01 -0.08,0.02 -0.12,0.02l-0.15 0.01c-0.01,0 -0.03,0 -0.05,0z"/>
   <path class="fil0" d="M60.47 35.92c-1.87,0 -3.83,-0.2 -5.75,-0.4 -3.27,-0.34 -6.37,-0.67 -8.43,0.09 -0.32,0.12 -0.68,-0.05 -0.8,-0.38 -0.12,-0.32 0.05,-0.68 0.37,-0.8 2.33,-0.85 5.57,-0.52 8.99,-0.16 2.73,0.29 5.56,0.58 7.97,0.26 0.34,-0.05 0.65,0.19 0.7,0.54 0.05,0.34 -0.2,0.66 -0.54,0.7 -0.81,0.11 -1.65,0.15 -2.51,0.15z"/>
   <path class="fil1" d="M45.2 50.34c0.96,0 1.75,0.78 1.75,1.75 0,0.96 -0.79,1.75 -1.75,1.75 -0.97,0 -1.75,-0.79 -1.75,-1.75 0,-0.97 0.78,-1.75 1.75,-1.75z"/>
   <path class="fil1" d="M65.57 48.96c0.96,0 1.74,0.78 1.74,1.74 0,0.97 -0.78,1.75 -1.74,1.75 -0.97,0 -1.75,-0.78 -1.75,-1.75 0,-0.96 0.78,-1.74 1.75,-1.74z"/>
   <path class="fil0" d="M40.59 19.18c-0.11,0 -0.22,-0.03 -0.32,-0.09 -0.3,-0.18 -0.39,-0.57 -0.21,-0.86 1.92,-3.14 6,-6.23 10.1,-6.05 0.35,0.01 0.62,0.31 0.61,0.65 -0.02,0.35 -0.32,0.61 -0.66,0.6 -3.58,-0.15 -7.29,2.7 -8.98,5.45 -0.12,0.2 -0.32,0.3 -0.54,0.3z"/>
   <path class="fil0" d="M57.13 24.6c-0.19,0 -0.37,-0.08 -0.49,-0.24 -1.64,-2.05 -3.42,-2.85 -6.37,-2.85 -0.35,0 -0.63,-0.28 -0.63,-0.62 0,-0.35 0.28,-0.63 0.63,-0.63 3.34,0 5.47,0.96 7.35,3.32 0.21,0.27 0.17,0.67 -0.1,0.88 -0.12,0.09 -0.25,0.14 -0.39,0.14z"/>
   <path class="fil0" d="M70.88 101.19c-0.18,0 -0.37,-0.06 -0.53,-0.17 -3.97,-2.74 -5.92,-3.65 -10.44,-4.03 -0.51,-0.04 -0.9,-0.49 -0.86,-1.01 0.05,-0.52 0.5,-0.9 1.02,-0.86 4.87,0.4 7.2,1.49 11.35,4.35 0.42,0.3 0.53,0.88 0.24,1.31 -0.19,0.26 -0.48,0.41 -0.78,0.41z"/>
   <path class="fil0" d="M79.86 51.1c-0.23,0 -0.46,-0.14 -0.57,-0.37 -0.93,-2.04 -0.16,-6.72 1.74,-8.06 0.28,-0.2 0.68,-0.13 0.88,0.15 0.2,0.29 0.13,0.68 -0.16,0.88 -1.33,0.94 -2,5.02 -1.32,6.51 0.15,0.32 0.01,0.69 -0.31,0.83 -0.08,0.04 -0.17,0.06 -0.26,0.06z"/>
   <path class="fil0" d="M74.82 22.88c-0.11,0 -0.23,-0.03 -0.34,-0.1 -1.14,-0.74 -2.17,-1.19 -3.23,-1.38 -0.34,-0.07 -0.56,-0.39 -0.5,-0.73 0.06,-0.34 0.39,-0.57 0.73,-0.51 1.23,0.23 2.4,0.73 3.69,1.57 0.29,0.19 0.37,0.58 0.18,0.87 -0.12,0.18 -0.32,0.28 -0.53,0.28z"/>
  </g>
  <rect class="fil2" width="112.18" height="112.18"/>
 </g>
</svg>
