<?xml version="1.0" encoding="UTF-8"?>
<!DOCTYPE svg PUBLIC "-//W3C//DTD SVG 1.1//EN" "http://www.w3.org/Graphics/SVG/1.1/DTD/svg11.dtd">
<!-- Creator: CorelDRAW 2018 (64-Bit) -->
<svg xmlns="http://www.w3.org/2000/svg" xml:space="preserve" width="845px" height="845px" version="1.1" style="shape-rendering:geometricPrecision; text-rendering:geometricPrecision; image-rendering:optimizeQuality; fill-rule:evenodd; clip-rule:evenodd"
viewBox="0 0 112.18 112.18"
 xmlns:xlink="http://www.w3.org/1999/xlink">
 <defs>
  <style type="text/css">
   <![CDATA[
    .fil2 {fill:none}
    .fil0 {fill:black}
    .fil1 {fill:black;fill-rule:nonzero}
   ]]>
  </style>
 </defs>
 <g id="Слой_x0020_1">
  <metadata id="CorelCorpID_0Corel-Layer"/>
  <g id="_2891704782608">
   <path class="fil0" d="M70.63 43.43c0.95,0 1.71,0.76 1.71,1.7 0,0.95 -0.76,1.71 -1.71,1.71 -0.94,0 -1.7,-0.76 -1.7,-1.71 0,-0.94 0.76,-1.7 1.7,-1.7z"/>
   <path class="fil0" d="M82.65 43.42c0.66,0 1.18,0.53 1.18,1.18 0,0.65 -0.52,1.18 -1.18,1.18 -0.65,0 -1.18,-0.53 -1.18,-1.18 0,-0.65 0.53,-1.18 1.18,-1.18z"/>
   <path class="fil1" d="M40.7 65.64c-0.38,0 -0.73,-0.22 -0.88,-0.59 -0.28,-0.7 -1.16,-1.81 -2,-2.88 -1.12,-1.4 -2.27,-2.86 -2.72,-4.12 -0.17,-0.46 -0.3,-0.93 -0.44,-1.43 -0.41,-1.48 -0.84,-3 -2.07,-3.98 -1.69,-1.33 -2.36,-3.11 -3.01,-4.83 -0.61,-1.62 -1.19,-3.16 -2.61,-4.29 -3.35,-2.68 -5.01,-5.24 -5.94,-9.14 -1.75,-7.39 0.78,-12.15 2.14,-14.71 0.65,-1.22 0.7,-1.79 0.76,-2.45 0.05,-0.56 0.11,-1.2 0.48,-2.15 0.47,-1.24 1.3,-2.31 2.53,-3.27 2.08,-1.64 5.27,-3.29 8.53,-4.4 3.02,-1.03 5.32,-1.1 6.79,-1.07 1.17,0.03 1.98,0.21 3.01,0.44 0.93,0.2 2.09,0.46 3.91,0.68 1.61,0.2 3.15,1.06 4.31,1.79 2.35,1.47 2.56,1.46 4.6,1.29 0.48,-0.04 1.05,-0.08 1.76,-0.12 2.43,-0.12 4.99,0.97 6.53,1.62 0.42,0.18 0.95,0.4 1.11,0.43 0.51,0.05 0.88,0.51 0.83,1.03 -0.05,0.51 -0.51,0.89 -1.03,0.84 -0.37,-0.04 -0.8,-0.21 -1.65,-0.57 -1.47,-0.63 -3.7,-1.58 -5.69,-1.47 -0.69,0.03 -1.24,0.08 -1.71,0.12 -2.37,0.19 -2.97,0.17 -5.75,-1.58 -0.99,-0.62 -2.3,-1.36 -3.53,-1.51 -1.92,-0.24 -3.12,-0.5 -4.09,-0.71 -0.97,-0.22 -1.67,-0.37 -2.65,-0.39 -1.44,-0.04 -3.44,0.04 -6.14,0.96 -3.07,1.05 -6.05,2.58 -7.98,4.1 -0.95,0.75 -1.59,1.55 -1.94,2.46 -0.27,0.71 -0.31,1.15 -0.36,1.65 -0.07,0.76 -0.14,1.61 -0.97,3.16 -1.33,2.5 -3.55,6.69 -1.97,13.4 0.83,3.48 2.26,5.68 5.29,8.1 1.82,1.45 2.55,3.39 3.19,5.1 0.59,1.54 1.14,3.01 2.42,4.02 1.71,1.35 2.26,3.34 2.71,4.94 0.13,0.47 0.26,0.91 0.4,1.3 0.34,0.97 1.45,2.37 2.42,3.6 0.98,1.23 1.9,2.39 2.28,3.34 0.19,0.48 -0.04,1.03 -0.52,1.23 -0.12,0.04 -0.24,0.06 -0.35,0.06z"/>
   <path class="fil1" d="M25.4 98.64c-0.32,0 -0.63,-0.16 -0.8,-0.45 -0.28,-0.44 -0.14,-1.02 0.3,-1.29 1.13,-0.7 2.26,-1.31 3.35,-1.89 1.43,-0.77 2.9,-1.57 4.37,-2.55 3.24,-2.18 4.57,-3.77 5.26,-6.3 1.11,-4.02 2.06,-22.85 2.07,-27.89 0.01,-0.52 0.43,-0.94 0.95,-0.94l0 0c0.52,0.01 0.94,0.43 0.94,0.95 -0.02,4.88 -0.95,24.04 -2.14,28.38 -0.93,3.39 -2.92,5.27 -6.03,7.36 -1.55,1.04 -3.06,1.85 -4.53,2.64 -1.11,0.61 -2.17,1.17 -3.25,1.84 -0.15,0.09 -0.32,0.14 -0.49,0.14z"/>
   <path class="fil1" d="M47.02 61.64c-3.25,0 -4.36,-0.67 -6.46,-2.46 -0.13,-0.11 -0.27,-0.24 -0.4,-0.38 -2.08,-2.17 -4.44,-7.66 -3.25,-11.02 0.54,-1.54 1.75,-2.47 3.49,-2.69 2.45,-0.32 4.5,1.61 5.38,3.56 0.08,0.13 0.32,0.51 0.36,0.57 0.31,0.42 0.2,0.99 -0.21,1.29 -0.42,0.31 -1.03,0.2 -1.33,-0.21 -0.01,-0.01 -0.45,-0.7 -0.51,-0.83 -0.62,-1.39 -2,-2.7 -3.45,-2.52 -1.03,0.13 -1.65,0.6 -1.96,1.46 -0.88,2.48 1.09,7.27 2.83,9.09 0.09,0.09 0.18,0.17 0.27,0.25 1.92,1.63 2.64,2.01 5.24,2.01 0.52,0 0.95,0.42 0.95,0.94 0,0.52 -0.43,0.94 -0.95,0.94z"/>
   <path class="fil1" d="M43.64 56.14c0.01,0.01 0.01,0.02 0.02,0.03 0,-0.01 -0.01,-0.02 -0.02,-0.03zm0.69 0.3c-0.23,0 -0.47,-0.09 -0.65,-0.26 -0.13,-0.08 -0.54,-0.26 -0.73,-0.33 -2.19,-0.71 -2.72,-2.49 -2.51,-3.8 0.25,-1.59 1.52,-2.79 2.96,-2.79 0.52,0 0.94,0.42 0.94,0.94 0,0.52 -0.42,0.94 -0.94,0.94 -0.57,0 -1.01,0.62 -1.1,1.21 -0.08,0.47 -0.02,1.31 1.23,1.71 0.01,0.01 1.08,0.36 1.49,0.8 0.35,0.38 0.33,0.98 -0.05,1.33 -0.18,0.17 -0.41,0.25 -0.64,0.25z"/>
   <path class="fil1" d="M45.35 53.28c-0.32,0 -0.64,-0.17 -0.82,-0.48 -0.25,-0.45 -0.09,-1.02 0.36,-1.28l0.18 -0.1c0.11,-0.06 0.23,-0.1 0.36,-0.12 5.9,-0.62 9.97,-5.98 12.34,-10.37 0.8,-1.48 1.7,-3.17 2.61,-4.89 2.54,-4.78 5.17,-9.73 6.17,-11.07 1.58,-2.15 3.95,-3.45 6.67,-3.66 0.29,-0.02 1.44,-0.03 1.55,-0.03 0.52,0 0.94,0.42 0.94,0.94 0,0.52 -0.42,0.95 -0.94,0.95 -0.3,0 -1.24,0.01 -1.41,0.02 -2.16,0.16 -4.04,1.19 -5.3,2.89 -0.91,1.24 -3.62,6.34 -6.02,10.84 -0.91,1.73 -1.82,3.43 -2.61,4.9 -2.56,4.74 -7,10.53 -13.6,11.33l-0.01 0.01c-0.15,0.08 -0.31,0.12 -0.47,0.12z"/>
   <path class="fil1" d="M46.68 45.83c-0.37,0 -0.7,-0.26 -0.77,-0.63 -0.09,-0.42 0.18,-0.84 0.61,-0.93 8.43,-1.72 10.93,-8.07 13.83,-15.41 0.16,-0.4 0.62,-0.6 1.02,-0.44 0.4,0.16 0.6,0.61 0.44,1.02 -2.94,7.44 -5.71,14.47 -14.98,16.37 -0.05,0.01 -0.1,0.02 -0.15,0.02z"/>
   <path class="fil1" d="M49.11 41.2c-0.31,0 -0.6,-0.18 -0.72,-0.49 -0.16,-0.41 0.03,-0.86 0.44,-1.02 2.46,-0.98 6.39,-4.46 6.91,-7.71 0.07,-0.42 0.48,-0.71 0.9,-0.64 0.43,0.07 0.72,0.47 0.65,0.9 -0.65,3.98 -5.07,7.8 -7.89,8.91 -0.09,0.04 -0.19,0.05 -0.29,0.05z"/>
   <path class="fil1" d="M26.63 34.31c-0.25,0 -0.49,-0.12 -0.64,-0.33 -2.63,-3.69 -2.13,-8.49 1.39,-13.54 2.43,-3.48 5.79,-4.95 9.35,-6.5 0.49,-0.21 0.98,-0.43 1.47,-0.65 0.4,-0.18 0.86,0 1.04,0.39 0.18,0.4 0,0.86 -0.39,1.04 -0.51,0.22 -1,0.44 -1.49,0.66 -3.5,1.52 -6.52,2.84 -8.69,5.96 -2.21,3.15 -4.24,7.75 -1.4,11.73 0.25,0.35 0.17,0.84 -0.19,1.09 -0.13,0.1 -0.29,0.15 -0.45,0.15z"/>
   <path class="fil1" d="M28.42 29.31c-0.06,0 -0.11,-0.01 -0.17,-0.02 -0.42,-0.09 -0.69,-0.51 -0.6,-0.93 0.39,-1.78 1.63,-3.68 2.94,-5.69l0.21 -0.31c2.14,-3.28 4.65,-4.84 7.68,-4.75 0.43,0.01 0.77,0.37 0.76,0.81 -0.01,0.43 -0.39,0.77 -0.81,0.76 -2.46,-0.06 -4.48,1.21 -6.32,4.03l-0.2 0.32c-1.24,1.89 -2.4,3.67 -2.73,5.16 -0.08,0.37 -0.4,0.62 -0.76,0.62z"/>
   <path class="fil1" d="M31.22 33.88c-0.05,0 -0.1,0 -0.16,-0.01 -0.42,-0.09 -0.69,-0.51 -0.6,-0.93 2.09,-9.8 7.94,-11.91 13.59,-13.94 2.96,-1.07 6.02,-2.17 8.49,-4.42 0.32,-0.29 0.81,-0.27 1.11,0.05 0.29,0.32 0.27,0.82 -0.06,1.11 -2.69,2.46 -5.9,3.62 -9.01,4.73 -5.49,1.98 -10.68,3.85 -12.59,12.79 -0.08,0.37 -0.4,0.62 -0.77,0.62z"/>
   <g>
    <path class="fil1" d="M46.61 24.63c-0.31,0 -0.68,0.14 -1.09,0.68 -1.14,1.47 -1.5,4.5 -1.2,6.01 1.46,-0.33 4.69,-1.18 5.18,-1.45 0.33,-0.18 0.61,-0.42 0.84,-0.71 0.21,-0.26 0.17,-0.58 0.09,-0.81 -0.15,-0.5 -0.58,-0.96 -0.99,-1.08 -0.95,-0.27 -1.45,-1.1 -1.85,-1.76 -0.2,-0.33 -0.48,-0.78 -0.65,-0.83 -0.1,-0.03 -0.21,-0.05 -0.33,-0.05zm-2.09 7.29c0,0 0,0 0,0 0,0 0,0 0,0zm0 0l0.01 0 -0.01 0zm-0.86 1.41c-0.43,0 -0.59,-0.16 -0.78,-0.49 -1,-1.78 -0.61,-6.4 1.15,-8.68 0.91,-1.17 2.11,-1.64 3.38,-1.3 0.92,0.24 1.4,1.04 1.79,1.68 0.24,0.4 0.52,0.85 0.76,0.93 1.01,0.29 1.92,1.22 2.27,2.31 0.29,0.93 0.14,1.86 -0.42,2.56 -0.39,0.48 -0.85,0.87 -1.39,1.17 -0.53,0.3 -2.27,0.79 -3.63,1.14 -1.73,0.45 -2.61,0.68 -3.13,0.68z"/>
   </g>
   <path class="fil1" d="M55.23 20.34c-0.63,0 -1.13,0.09 -1.26,0.37 -0.21,0.4 -0.16,1.01 0.12,1.47 0.16,0.26 0.36,0.42 0.53,0.43 0.28,0.01 0.53,0.13 0.7,0.34 0.18,0.21 0.25,0.48 0.21,0.75 -0.19,1.12 -0.01,1.92 0.48,2.14 0.66,0.29 2.01,-0.26 3.12,-1.67 0.94,-1.2 1.44,-2.39 1.51,-2.99 0,-0.01 0,-0.02 0,-0.03 -0.17,-0.09 -0.61,-0.14 -0.8,-0.16 -0.36,-0.05 -0.8,-0.13 -1.31,-0.23 -0.73,-0.14 -2.21,-0.42 -3.3,-0.42zm1.19 7.46c-0.41,0 -0.8,-0.08 -1.17,-0.24 -0.57,-0.25 -1.78,-1.06 -1.67,-3.33 -0.43,-0.23 -0.81,-0.6 -1.1,-1.08 -0.61,-1.02 -0.69,-2.31 -0.2,-3.28 1.02,-2.03 4.25,-1.41 6.6,-0.96 0.48,0.1 0.89,0.17 1.18,0.21 0.73,0.09 2.66,0.32 2.45,2.26 -0.12,1.1 -0.85,2.61 -1.9,3.95 -1.23,1.57 -2.8,2.47 -4.19,2.47z"/>
   <path class="fil1" d="M50.93 24.75c-0.26,0 -0.52,-0.11 -0.7,-0.32 -0.24,-0.26 -0.64,-0.49 -1.03,-0.71 -0.65,-0.38 -1.4,-0.8 -1.65,-1.6 -0.27,-0.87 -0.06,-1.73 0.56,-2.3 0.6,-0.53 1.45,-0.51 2.04,-0.31 0.59,0.2 0.97,0.57 1.06,1.05 0.09,0.51 -0.25,1 -0.76,1.1 -0.37,0.06 -0.72,-0.09 -0.93,-0.37 -0.06,-0.02 -0.13,-0.02 -0.18,-0.03 -0.05,0.1 -0.01,0.23 0.01,0.29 0.06,0.12 0.5,0.37 0.79,0.54 0.49,0.28 1.05,0.6 1.49,1.09 0.35,0.39 0.31,0.98 -0.07,1.33 -0.18,0.16 -0.41,0.24 -0.63,0.24z"/>
   <g>
    <path class="fil1" d="M54.78 29.14l0 0 0 0zm-0.05 1.87c-0.06,0 -0.11,0 -0.16,0 -1.04,-0.11 -2.13,-1.2 -2.12,-3.03 0,-0.52 0.44,-0.95 0.95,-0.93 0.52,0 0.94,0.42 0.93,0.94 0,0.52 0.16,0.85 0.3,1.02 0,-0.01 0,-0.01 0,-0.02 0.1,-0.51 0.59,-0.84 1.1,-0.74 0.51,0.1 0.84,0.59 0.75,1.1 -0.23,1.17 -1.02,1.66 -1.75,1.66z"/>
   </g>
   <path class="fil1" d="M67.74 22.24c-0.97,0 -4.09,-0.13 -5.2,-1.78 -0.87,-1.29 -1.11,-2.79 -0.64,-4 0.42,-1.09 1.39,-1.87 2.71,-2.2 1.48,-0.36 3.13,-0.09 3.5,1.32 0.12,0.5 -0.18,1.01 -0.68,1.14 -0.51,0.13 -1.02,-0.17 -1.15,-0.67 -0.09,-0.06 -0.64,-0.1 -1.22,0.04 -0.73,0.18 -1.21,0.53 -1.41,1.05 -0.24,0.64 -0.07,1.49 0.46,2.27 0.66,1 4.54,1.14 5.37,0.74 0.3,-0.34 0.82,-0.41 1.21,-0.15 0.43,0.29 0.55,0.87 0.26,1.31 -0.41,0.61 -1.48,0.93 -3.19,0.93l-0.02 0z"/>
   <path class="fil1" d="M78.07 24.45c-0.25,0 -0.52,-0.03 -0.82,-0.09 -2.68,-0.57 -3.22,-1.94 -3.61,-2.95 -0.27,-0.69 -0.4,-1.01 -1.18,-1.2 -0.51,-0.12 -0.82,-0.63 -0.7,-1.13 0.12,-0.51 0.63,-0.82 1.14,-0.7 1.74,0.42 2.17,1.53 2.49,2.34 0.33,0.84 0.56,1.44 2.25,1.8 0.3,0.06 0.46,0.06 0.52,0.05 0.1,-0.27 0.01,-1.06 -0.05,-1.55 -0.04,-0.4 -0.09,-0.82 -0.1,-1.24 -0.07,-1.84 -1.24,-2.56 -3.17,-3.52 -0.31,-0.16 -0.61,-0.31 -0.89,-0.46l-0.26 -0.15c-3.74,-2.08 -5.17,-1.98 -5.71,-1.53 -0.4,0.33 -0.99,0.28 -1.32,-0.12 -0.34,-0.4 -0.28,-1 0.12,-1.33 2.18,-1.81 6.14,0.4 7.83,1.34l0.24 0.14c0.27,0.14 0.55,0.28 0.83,0.42 1.73,0.87 4.1,2.05 4.21,5.14 0.01,0.35 0.05,0.73 0.09,1.1 0.14,1.19 0.27,2.42 -0.55,3.16 -0.35,0.33 -0.8,0.48 -1.36,0.48z"/>
   <path class="fil1" d="M31.88 51.31c0,0.02 -0.01,0.04 -0.01,0.07 0,-0.02 0.01,-0.04 0.01,-0.07zm0.91 1.2c-0.09,0 -0.17,-0.01 -0.26,-0.03 -0.47,-0.14 -0.75,-0.61 -0.67,-1.08 0.01,-0.11 0.01,-0.44 0.01,-0.73 -0.01,-1.88 0.03,-4.01 0.5,-5.35 0.19,-0.54 -0.04,-2.27 -0.19,-3.42 -0.12,-0.91 -0.24,-1.78 -0.24,-2.43 0,-4.01 1.81,-4.55 4.54,-5.36 1.93,-0.57 3.21,-2.05 3.9,-2.84l0.09 -0.11c0.34,-0.39 0.94,-0.43 1.33,-0.09 0.39,0.34 0.43,0.93 0.09,1.33l-0.09 0.1c-0.76,0.87 -2.33,2.69 -4.74,3.4 -2.62,0.78 -3.23,0.96 -3.23,3.57 0,0.52 0.1,1.33 0.22,2.19 0.26,2 0.41,3.38 0.09,4.29 -0.4,1.14 -0.39,3.56 -0.39,4.72 0,0.77 0,0.96 -0.06,1.16 -0.11,0.41 -0.49,0.68 -0.9,0.68z"/>
   <path class="fil1" d="M34.52 46.77c-0.32,0 -0.63,-0.16 -0.81,-0.46 -0.24,-0.41 -0.13,-0.93 0.23,-1.22 0.02,-0.06 0.04,-0.15 0.05,-0.22 0.24,-1.16 0.74,-2.45 3.71,-3.1 0.35,-0.07 0.7,-0.14 1.03,-0.2 0.5,-0.1 0.97,-0.19 1.25,-0.27 0.46,-0.15 0.81,-0.87 0.78,-1.24 -0.03,-0.3 -0.07,-0.57 -0.12,-0.85 -0.1,-0.61 -0.23,-1.09 -0.35,-1.51 -0.5,-1.88 -0.46,-2.69 1.89,-4.42 0.42,-0.31 1.01,-0.21 1.32,0.2 0.3,0.42 0.21,1.01 -0.21,1.32 -1.52,1.12 -1.52,1.14 -1.18,2.41 0.12,0.44 0.27,0.98 0.39,1.68 0.05,0.32 0.1,0.65 0.13,1 0.11,1.17 -0.72,2.78 -2.1,3.2 -0.38,0.12 -0.87,0.22 -1.45,0.33 -0.31,0.06 -0.65,0.12 -0.98,0.19 -2.02,0.44 -2.14,1.05 -2.26,1.63 -0.09,0.41 -0.22,1.04 -0.84,1.4 -0.15,0.09 -0.31,0.13 -0.48,0.13z"/>
   <path class="fil1" d="M84.8 51.89c-0.45,0 -0.85,-0.33 -0.92,-0.79 -0.42,-2.43 -0.02,-4.19 0.35,-5.88 0.27,-1.2 0.52,-2.32 0.52,-3.72 0,-2.8 -0.15,-3.57 -0.47,-4.93 -1.09,-4.65 -3.36,-10.68 -6.15,-12.34 -0.44,-0.27 -0.59,-0.84 -0.32,-1.29 0.26,-0.45 0.84,-0.59 1.29,-0.33 4.24,2.54 6.58,11.72 7.01,13.53 0.34,1.46 0.52,2.36 0.52,5.36 0,1.6 -0.28,2.89 -0.56,4.12 -0.35,1.59 -0.69,3.1 -0.34,5.17 0.09,0.51 -0.26,1 -0.77,1.09 -0.05,0.01 -0.11,0.01 -0.16,0.01z"/>
   <path class="fil1" d="M85.49 50.37c-0.34,0 -0.67,-0.19 -0.84,-0.51 -0.24,-0.46 -0.06,-1.02 0.4,-1.27 1.21,-0.63 2.54,-2.72 3.39,-4.47 0.47,-0.98 0.95,-1.74 1.49,-2.39 2.48,-2.96 2.37,-5.36 -0.35,-8.02 -0.31,-0.31 -0.65,-0.65 -1,-1 -2.17,-2.17 -5.15,-5.15 -7.28,-5.62 -0.51,-0.11 -0.83,-0.61 -0.72,-1.12 0.11,-0.51 0.62,-0.83 1.12,-0.71 2.67,0.58 5.74,3.65 8.21,6.12 0.35,0.35 0.68,0.68 0.99,0.98 3.45,3.38 3.6,6.84 0.48,10.57 -0.28,0.34 -0.72,0.91 -1.25,2.01 -0.61,1.26 -2.23,4.28 -4.21,5.32 -0.13,0.07 -0.28,0.11 -0.43,0.11z"/>
   <path class="fil1" d="M84.53 60.02c-0.34,0 -0.66,-0.18 -0.83,-0.5 -0.25,-0.45 -0.08,-1.02 0.38,-1.27 1.31,-0.7 1.81,-1.2 1.98,-1.97 0.26,-1.1 -0.32,-2.09 -1.28,-3.6 -0.98,-1.55 -2.05,-3.25 -2.79,-4.59 -2.38,-4.32 -2.1,-5.37 -2,-5.77 0.59,-2.28 2.78,-3.46 5.46,-2.94 0.51,0.1 0.84,0.59 0.75,1.1 -0.1,0.51 -0.6,0.85 -1.11,0.75 -0.45,-0.09 -2.76,-0.43 -3.28,1.57 -0.04,0.28 0.29,1.59 1.83,4.39 0.71,1.28 1.77,2.96 2.7,4.43 1,1.58 2,3.16 1.56,5.08 -0.4,1.72 -1.72,2.55 -2.93,3.21 -0.14,0.07 -0.29,0.11 -0.44,0.11z"/>
   <path class="fil1" d="M79.28 58.95c-0.48,0 -0.89,-0.36 -0.94,-0.84 -0.05,-0.49 0.27,-0.92 0.74,-1.02 0.01,-0.01 0.02,-0.02 0.04,-0.02 1.65,-0.94 2.4,-0.91 3.43,-0.75 0.32,0.05 0.65,0.1 1.09,0.1 0.52,0 0.95,0.42 0.95,0.94 0,0.52 -0.43,0.94 -0.95,0.94 -0.59,0 -1.02,-0.07 -1.38,-0.12 -0.69,-0.11 -1.01,-0.16 -2.2,0.51 -0.15,0.09 -0.38,0.22 -0.68,0.25 -0.04,0.01 -0.07,0.01 -0.1,0.01z"/>
   <path class="fil1" d="M75.51 65.07c-0.23,0 -0.48,-0.01 -0.74,-0.04 -0.52,-0.05 -0.89,-0.51 -0.85,-1.02 0.05,-0.52 0.51,-0.9 1.03,-0.85 1.31,0.13 2.2,-0.21 3.23,-0.6 0.95,-0.35 2.02,-0.75 3.48,-0.82 0.8,-0.04 1.6,-0.04 2.13,-0.03 0.52,0.01 0.93,0.43 0.93,0.95 -0.01,0.52 -0.43,0.93 -0.94,0.93l-0.02 0c-0.5,-0.01 -1.26,-0.01 -2.01,0.03 -1.17,0.05 -2.01,0.37 -2.91,0.7 -0.97,0.37 -1.98,0.75 -3.33,0.75z"/>
   <path class="fil1" d="M79.47 65.92c-0.15,0 -0.31,0 -0.49,0l-0.68 0c-0.52,0 -0.94,-0.42 -0.94,-0.94 0,-0.52 0.42,-0.94 0.94,-0.94l0.69 0c1.65,0.01 2,0.01 3.87,-0.43 0.1,-0.03 0.19,-0.04 0.27,-0.04 0.35,-0.11 0.75,-0.01 1.01,0.3 0.33,0.4 0.27,0.99 -0.13,1.32 -0.32,0.27 -0.64,0.28 -0.8,0.27 -1.81,0.42 -2.42,0.46 -3.74,0.46z"/>
   <path class="fil1" d="M74.84 79.32c-1.87,0 -3.66,-0.23 -5.21,-0.69 -0.9,-0.26 -2.13,-0.48 -3.56,-0.73 -3.61,-0.62 -8.1,-1.4 -11.66,-3.69 -1.86,-1.19 -4.95,-3.93 -5.34,-6.19 -0.09,-0.51 0.26,-1 0.77,-1.09 0.51,-0.08 1,0.26 1.09,0.77 0.23,1.35 2.55,3.68 4.49,4.93 3.24,2.08 7.53,2.82 10.97,3.42 1.48,0.26 2.77,0.48 3.77,0.78 2.58,0.75 5.9,0.81 9.12,0.15 1.5,-0.3 2.09,-2.39 2.03,-3.78 -0.1,-2.3 0.61,-5.09 1.23,-7.56 0.36,-1.44 0.7,-2.8 0.83,-3.84 0.22,-1.82 0.55,-2.51 0.91,-3.16 0.09,-0.14 0.15,-0.26 0.2,-0.39 0.19,-0.48 0.73,-0.73 1.22,-0.54 0.48,0.19 0.72,0.73 0.54,1.22 -0.1,0.26 -0.22,0.46 -0.32,0.64 -0.23,0.4 -0.49,0.86 -0.68,2.46 -0.15,1.16 -0.5,2.57 -0.88,4.07 -0.59,2.34 -1.26,4.99 -1.17,7.02 0.11,2.46 -1.07,5.21 -3.53,5.71 -1.61,0.32 -3.24,0.49 -4.82,0.49z"/>
   <path class="fil1" d="M86.12 103.66c-0.05,0 -0.09,0 -0.14,-0.01 -5.57,-0.82 -12.53,-3.79 -15.54,-8.56 -2.58,-4.1 -3.34,-13.89 -2.9,-17.86 0.06,-0.51 0.51,-0.88 1.04,-0.83 0.51,0.06 0.89,0.53 0.83,1.04 -0.47,4.19 0.52,13.31 2.62,16.64 2.69,4.27 9.08,6.95 14.22,7.71 0.52,0.08 0.87,0.55 0.8,1.07 -0.07,0.47 -0.47,0.8 -0.93,0.8z"/>
   <path class="fil1" d="M54.74 104.26c-0.78,0 -1.43,0.47 -1.43,1.01 0,0.55 0.65,1.01 1.43,1.01 0.77,0 1.43,-0.46 1.43,-1.01 0,-0.54 -0.66,-1.01 -1.43,-1.01zm0 3.91c-1.83,0 -3.31,-1.3 -3.31,-2.9 0,-1.59 1.48,-2.89 3.31,-2.89 1.82,0 3.31,1.3 3.31,2.89 0,1.6 -1.49,2.9 -3.31,2.9z"/>
   <path class="fil1" d="M64.68 46.45c-0.42,0 -0.81,-0.29 -0.91,-0.72 -0.13,-0.5 0.18,-1.01 0.68,-1.14 0.75,-0.18 1.47,-0.66 2.24,-1.16 1.42,-0.92 3.02,-1.97 5.24,-1.5 0.17,0.03 0.31,0.05 0.46,0.08 0.39,0.07 0.83,0.14 1.61,0.36 0.5,0.14 0.79,0.66 0.65,1.16 -0.14,0.5 -0.66,0.79 -1.16,0.65 -0.68,-0.19 -1.05,-0.25 -1.42,-0.32 -0.17,-0.03 -0.33,-0.05 -0.52,-0.09 -1.46,-0.31 -2.56,0.41 -3.83,1.24 -0.87,0.56 -1.76,1.15 -2.81,1.41 -0.08,0.02 -0.16,0.03 -0.23,0.03z"/>
   <path class="fil1" d="M63.43 41.94c-0.3,0 -0.59,-0.14 -0.77,-0.4 -0.3,-0.42 -0.2,-1.01 0.23,-1.31 1.54,-1.09 5.3,-2.16 5.72,-2.28 3.34,-0.94 4.95,-0.53 7.21,0.25 0.49,0.17 0.75,0.71 0.58,1.2 -0.17,0.49 -0.71,0.75 -1.2,0.58 -1.96,-0.68 -3.21,-1.03 -6.08,-0.22 -1.54,0.43 -4.18,1.32 -5.15,2.01 -0.16,0.11 -0.35,0.17 -0.54,0.17z"/>
   <path class="fil1" d="M81.27 44.61c-0.28,0 -0.57,-0.13 -0.75,-0.37 -0.31,-0.42 -0.23,-1.01 0.19,-1.32 1.42,-1.07 1.62,-1.19 3.03,-1.17 0.22,0.01 0.48,0.01 0.81,0l0.01 0c0.51,0 0.93,0.42 0.94,0.93 0,0.52 -0.41,0.95 -0.93,0.96 -0.35,0 -0.62,0 -0.86,-0.01 -0.81,-0.01 -0.81,-0.01 -1.87,0.79 -0.17,0.13 -0.37,0.19 -0.57,0.19z"/>
   <path class="fil1" d="M45.35 50.68c-0.44,0 -0.84,-0.31 -0.92,-0.77 -0.1,-0.51 0.23,-1 0.74,-1.1 2.7,-0.52 3.42,-0.93 5.11,-2.32 0.41,-0.33 1,-0.27 1.33,0.13 0.33,0.4 0.27,0.99 -0.13,1.32 -1.93,1.59 -2.94,2.14 -5.95,2.72 -0.06,0.01 -0.12,0.02 -0.18,0.02z"/>
   <path class="fil0" d="M56.41 21.42c0.8,0 1.45,0.65 1.45,1.46 0,0.8 -0.65,1.45 -1.45,1.45 -0.81,0 -1.46,-0.65 -1.46,-1.45 0,-0.81 0.65,-1.46 1.46,-1.46z"/>
   <path class="fil0" d="M48.04 25.6c0.81,0 1.46,0.65 1.46,1.46 0,0.8 -0.65,1.45 -1.46,1.45 -0.8,0 -1.45,-0.65 -1.45,-1.45 0,-0.81 0.65,-1.46 1.45,-1.46z"/>
   <path class="fil0" d="M65.98 16.59c0.81,0 1.46,0.65 1.46,1.45 0,0.81 -0.65,1.46 -1.46,1.46 -0.8,0 -1.45,-0.65 -1.45,-1.46 0,-0.8 0.65,-1.45 1.45,-1.45z"/>
   <path class="fil0" d="M70.16 15.24c0.81,0 1.46,0.65 1.46,1.46 0,0.8 -0.65,1.45 -1.46,1.45 -0.8,0 -1.45,-0.65 -1.45,-1.45 0,-0.81 0.65,-1.46 1.45,-1.46z"/>
   <path class="fil0" d="M35.58 36.8c0.8,0 1.46,0.66 1.46,1.46 0,0.8 -0.66,1.46 -1.46,1.46 -0.8,0 -1.46,-0.66 -1.46,-1.46 0,-0.8 0.66,-1.46 1.46,-1.46z"/>
   <path class="fil0" d="M38.86 38.43c0.8,0 1.45,0.65 1.45,1.46 0,0.8 -0.65,1.45 -1.45,1.45 -0.81,0 -1.46,-0.65 -1.46,-1.45 0,-0.81 0.65,-1.46 1.46,-1.46z"/>
   <path class="fil1" d="M42.17 16.45c-0.37,0 -0.72,-0.22 -0.87,-0.58 -0.19,-0.48 0.04,-1.03 0.52,-1.23 4.91,-2.01 8.29,-3.16 12.91,-4.39 0.5,-0.14 1.02,0.16 1.15,0.67 0.13,0.5 -0.16,1.01 -0.67,1.15 -4.59,1.22 -7.79,2.31 -12.68,4.31 -0.12,0.05 -0.24,0.07 -0.36,0.07z"/>
   <path class="fil1" d="M52.42 105.35c-0.13,0 -0.27,-0.04 -0.39,-0.11 -6.96,-4.05 -11.6,-8.22 -16.02,-14.42 -0.25,-0.35 -0.17,-0.84 0.18,-1.09 0.35,-0.25 0.84,-0.17 1.09,0.18 4.34,6.08 8.7,10 15.53,13.98 0.38,0.21 0.51,0.69 0.29,1.07 -0.15,0.25 -0.41,0.39 -0.68,0.39z"/>
   <path class="fil1" d="M57.63 105.19c-0.27,0 -0.54,-0.14 -0.68,-0.4 -0.22,-0.38 -0.08,-0.86 0.29,-1.07 7.18,-4.03 10.01,-8.38 12.01,-12.48 0.19,-0.39 0.66,-0.55 1.05,-0.36 0.39,0.19 0.55,0.66 0.36,1.05 -2.01,4.12 -5.08,8.91 -12.65,13.16 -0.12,0.07 -0.25,0.1 -0.38,0.1z"/>
   <path class="fil1" d="M24.4 20.06c-0.17,0 -0.33,-0.06 -0.48,-0.17 -0.34,-0.26 -0.4,-0.76 -0.13,-1.1 3.04,-3.91 3.76,-4.2 7.76,-5.82l0.72 -0.3c0.41,-0.16 0.86,0.03 1.03,0.43 0.16,0.4 -0.03,0.86 -0.43,1.02l-0.73 0.3c-3.92,1.59 -4.33,1.75 -7.12,5.34 -0.15,0.19 -0.38,0.3 -0.62,0.3z"/>
   <path class="fil1" d="M88.81 40.22c-0.12,0 -0.24,-0.03 -0.36,-0.09 -0.38,-0.19 -0.53,-0.67 -0.33,-1.05 1.13,-2.21 1.72,-4.27 1.7,-5.96 0,-0.43 0.34,-0.78 0.78,-0.79 0,0 0,0 0.01,0 0.43,0 0.78,0.35 0.78,0.78 0.02,1.94 -0.63,4.25 -1.88,6.68 -0.14,0.27 -0.41,0.43 -0.7,0.43z"/>
  </g>
  <rect class="fil2" width="112.18" height="112.18"/>
 </g>
</svg>
