<?xml version="1.0" encoding="UTF-8"?>
<!DOCTYPE svg PUBLIC "-//W3C//DTD SVG 1.1//EN" "http://www.w3.org/Graphics/SVG/1.1/DTD/svg11.dtd">
<!-- Creator: CorelDRAW 2018 (64-Bit) -->
<svg xmlns="http://www.w3.org/2000/svg" xml:space="preserve" width="845px" height="845px" version="1.1" style="shape-rendering:geometricPrecision; text-rendering:geometricPrecision; image-rendering:optimizeQuality; fill-rule:evenodd; clip-rule:evenodd"
viewBox="0 0 216.05 216.05"
 xmlns:xlink="http://www.w3.org/1999/xlink">
 <defs>
  <style type="text/css">
   <![CDATA[
    .fil0 {fill:none}
    .fil2 {fill:black}
    .fil3 {fill:black}
    .fil1 {fill:black;fill-rule:nonzero}
   ]]>
  </style>
 </defs>
 <g id="Слой_x0020_1">
  <metadata id="CorelCorpID_0Corel-Layer"/>
  <rect class="fil0" width="216.05" height="216.05"/>
 </g>
 <g id="_1">
  <metadata id="CorelCorpID_1Corel-Layer"/>
  <path class="fil1" d="M102.68 102.16c-0.71,0 -1.38,-0.41 -1.67,-1.1 -0.4,-0.92 0.03,-1.99 0.95,-2.38 0.52,-0.22 1.68,-1.47 2.24,-2.08 0.5,-0.54 0.86,-0.94 1.2,-1.2 5.79,-4.55 10.25,-0.98 12.92,1.15 0.92,0.74 1.78,1.44 2.46,1.69 0.94,0.35 1.42,1.39 1.07,2.33 -0.35,0.94 -1.4,1.42 -2.33,1.07 -1.23,-0.46 -2.32,-1.33 -3.47,-2.26 -3.03,-2.42 -5.05,-3.78 -8.41,-1.13 -0.12,0.1 -0.5,0.51 -0.78,0.81 -1.23,1.33 -2.34,2.47 -3.48,2.96 -0.23,0.1 -0.47,0.14 -0.7,0.14z"/>
  <path class="fil1" d="M159.07 107.09c-3.75,0 -4.99,-2 -6.08,-3.77 -0.77,-1.24 -1.57,-2.52 -3.4,-3.79 -3.86,-2.69 -5.35,-1.52 -7.07,-0.16 -0.91,0.72 -1.93,1.53 -3.27,1.49 -1,-0.03 -1.79,-0.86 -1.76,-1.86 0.03,-0.98 0.82,-1.75 1.79,-1.76 0.2,-0.09 0.66,-0.45 1,-0.71 1.86,-1.47 5.32,-4.2 11.38,0.02 2.45,1.7 3.58,3.53 4.41,4.87 0.97,1.57 1.27,2.05 3,2.05 1,0 1.82,0.81 1.82,1.81 0,1 -0.82,1.81 -1.82,1.81z"/>
  <path class="fil1" d="M121.13 90.17c-0.35,0 -0.7,-0.1 -1.02,-0.31 -3.53,-2.39 -6.09,-4 -9.21,-4.49 -2.78,-0.44 -4.17,-0.03 -5.7,0.56 -1.69,0.64 -2.86,1.64 -3.81,2.44 -0.51,0.44 -0.95,0.81 -1.43,1.11 -0.85,0.52 -1.97,0.25 -2.49,-0.6 -0.53,-0.85 -0.26,-1.97 0.59,-2.49 0.24,-0.15 0.61,-0.46 0.99,-0.78 1.09,-0.93 2.59,-2.2 4.86,-3.07 1.82,-0.7 3.91,-1.33 7.56,-0.75 3.85,0.61 6.85,2.48 10.67,5.07 0.83,0.56 1.05,1.69 0.49,2.51 -0.35,0.52 -0.92,0.8 -1.5,0.8z"/>
  <path class="fil1" d="M156.7 92.52c-0.56,0 -1.12,-0.26 -1.47,-0.75 -1.15,-1.59 -5.07,-2.78 -7.71,-2.73 -2.29,0.03 -4.55,0.61 -5.27,1.35 -0.7,0.71 -1.85,0.72 -2.56,0.02 -0.72,-0.71 -0.73,-1.85 -0.02,-2.57 2.13,-2.17 6.5,-2.4 7.79,-2.43 3.14,-0.06 8.54,1.23 10.71,4.24 0.58,0.81 0.4,1.94 -0.41,2.53 -0.32,0.23 -0.69,0.34 -1.06,0.34z"/>
  <path class="fil1" d="M100.63 78.4c-0.58,0 -1.1,-0.43 -1.19,-1.02 -0.11,-0.66 0.34,-1.28 1,-1.38 2.25,-0.36 3.89,-0.79 5.47,-1.21 3,-0.78 5.84,-1.52 11.76,-1.42 2.6,0.05 4.76,0.28 6.85,0.51 2.97,0.32 5.77,0.62 9.62,0.37 0.92,-0.06 1.86,-0.12 2.8,-0.19 4.53,-0.31 9.21,-0.63 11.86,-0.31 0.66,0.08 1.14,0.68 1.06,1.35 -0.09,0.66 -0.69,1.13 -1.35,1.05 -2.43,-0.3 -6.99,0.02 -11.4,0.32 -0.95,0.07 -1.89,0.13 -2.81,0.19 -4.06,0.26 -7.1,-0.06 -10.04,-0.38 -2.03,-0.22 -4.14,-0.45 -6.63,-0.49 -5.6,-0.11 -8.15,0.57 -11.11,1.34 -1.56,0.41 -3.34,0.87 -5.7,1.25 -0.06,0.01 -0.13,0.02 -0.19,0.02z"/>
  <path class="fil1" d="M98.57 71.99c-0.56,0 -1.06,-0.4 -1.18,-0.97 -0.13,-0.65 0.29,-1.29 0.94,-1.43 1.8,-0.37 3.63,-0.8 5.39,-1.21 3.37,-0.8 6.84,-1.62 10.46,-2.11 4.78,-0.65 8.04,-0.47 12.17,-0.23 0.79,0.05 1.63,0.09 2.52,0.14 0.34,0.02 0.86,0.04 1.5,0.06 3.25,0.12 9.3,0.34 12.01,0.98 0.65,0.15 1.05,0.81 0.9,1.45 -0.16,0.65 -0.81,1.05 -1.45,0.9 -2.48,-0.58 -8.6,-0.81 -11.54,-0.92 -0.66,-0.02 -1.2,-0.04 -1.55,-0.06 -0.89,-0.04 -1.73,-0.09 -2.53,-0.14 -4.15,-0.23 -7.15,-0.41 -11.7,0.21 -3.5,0.48 -6.93,1.29 -10.23,2.07 -1.78,0.42 -3.62,0.85 -5.46,1.23 -0.09,0.02 -0.17,0.03 -0.25,0.03z"/>
  <path class="fil1" d="M125.54 169.27c-2.52,0 -5.11,-0.37 -7.83,-1.11 -4.21,-1.13 -14.06,-4.7 -17.86,-6.46 -3.41,-1.58 -6.57,-3.73 -7.92,-4.65 -0.19,-0.13 -0.33,-0.23 -0.42,-0.28 -0.72,-0.38 -1.12,-1.22 -0.91,-2.05 0.25,-0.97 1.24,-1.56 2.2,-1.31 0.35,0.09 0.49,0.18 1.17,0.64 1.27,0.87 4.26,2.9 7.4,4.36 3.6,1.67 13.29,5.18 17.29,6.25 7.66,2.07 13.9,0.93 20.86,-3.84 6.52,-4.45 10.51,-9.37 12.96,-15.96 2.67,-7.2 3.45,-18.01 3.63,-21.15 -0.01,-7.26 1.31,-14.04 2.71,-21.22l0.3 -1.55c0.82,-4.23 0.85,-5.75 0.91,-8.76 0.02,-0.87 0.04,-1.86 0.08,-3.05 0.07,-1.93 -0.87,-9.13 -2.55,-16.5 -2.37,-10.36 -6.66,-15.94 -13.13,-17.05 -0.99,-0.16 -1.65,-1.1 -1.48,-2.09 0.17,-0.98 1.09,-1.65 2.09,-1.48 7.96,1.37 13.36,8.03 16.05,19.81 1.5,6.58 2.74,14.73 2.64,17.43 -0.04,1.18 -0.06,2.15 -0.07,3 -0.07,3.12 -0.1,4.84 -0.98,9.38l-0.3 1.55c-1.37,7 -2.65,13.62 -2.65,20.63 -0.24,4.29 -1.08,14.84 -3.85,22.31 -2.73,7.34 -7.14,12.8 -14.31,17.7 -5.37,3.67 -10.52,5.45 -16.03,5.45z"/>
  <path class="fil1" d="M74.46 135.8c-0.76,0 -1.54,-0.1 -2.29,-0.3 -2.93,-0.76 -5.16,-2.91 -6.65,-6.41 -0.83,-1.97 -2.95,-9.61 -4.41,-15.52 -2.29,-9.26 -1.98,-15.11 0.92,-17.38 1.56,-1.21 3.67,-1.25 5.81,-0.12 3.3,1.75 6.67,6.36 6.37,10.76 -0.06,1 -0.93,1.77 -1.93,1.69 -0.99,-0.07 -1.75,-0.93 -1.68,-1.93 0.18,-2.74 -2.2,-6.12 -4.45,-7.31 -0.49,-0.26 -1.37,-0.63 -1.89,-0.23 -0.25,0.2 -2.44,2.3 0.36,13.65 1.7,6.84 3.63,13.55 4.24,14.97 1.03,2.44 2.41,3.86 4.22,4.32 1.45,0.38 2.6,0.09 2.74,-0.11 0.27,-0.96 1.28,-1.53 2.24,-1.26 0.96,0.27 1.52,1.27 1.26,2.23 -0.58,2.06 -2.62,2.95 -4.86,2.95z"/>
  <path class="fil1" d="M73.83 124.73c-1,0 -1.81,-0.81 -1.81,-1.81 0,-1.04 -0.51,-1.67 -1.57,-2.89 -1.47,-1.71 -3.48,-4.03 -3.45,-8.74 0.01,-1.83 0.21,-3.76 0.47,-4.59 0.29,-0.95 1.31,-1.48 2.27,-1.19 0.95,0.3 1.48,1.32 1.19,2.27 -0.09,0.28 -0.29,1.69 -0.31,3.53 -0.02,3.35 1.24,4.8 2.57,6.34 1.15,1.33 2.45,2.84 2.45,5.27 0,1 -0.81,1.81 -1.81,1.81z"/>
  <path class="fil1" d="M129.28 186.51c-1.82,0 -6.96,-2.23 -32.87,-18.63 -1.29,-0.81 -2.18,-1.38 -2.54,-1.6 -9.69,-5.88 -13.59,-10.67 -17.41,-21.35 -1.44,-4.04 -2.65,-8.17 -3.16,-10.3 -0.23,-0.98 0.37,-1.95 1.35,-2.19 0.97,-0.23 1.95,0.37 2.18,1.35 0.5,2.1 1.71,6.18 3.04,9.92 3.53,9.86 6.94,14.04 15.88,19.48 0.37,0.22 1.28,0.8 2.6,1.63 22.19,14.04 29.07,17.6 30.81,18.01 3.26,-1.2 6.46,-3.17 6.46,-4.99 0,-0.97 -0.02,-1.77 -0.04,-2.48 -0.02,-0.71 -0.03,-1.34 -0.02,-1.93 0.02,-1.65 0.32,-3.09 0.59,-4.35 0.37,-1.71 0.68,-3.19 0.31,-5.02 -0.2,-0.98 0.44,-1.94 1.42,-2.14 0.98,-0.19 1.93,0.44 2.13,1.42 0.52,2.57 0.1,4.56 -0.32,6.5 -0.25,1.2 -0.5,2.34 -0.51,3.63 -0.01,0.56 0.01,1.14 0.02,1.8 0.02,0.74 0.04,1.57 0.04,2.57 0,4.59 -5.75,7.31 -9.17,8.51 -0.22,0.08 -0.45,0.16 -0.79,0.16z"/>
  <path class="fil1" d="M108.48 131.64c-0.59,0 -1.16,-0.28 -1.51,-0.81 -0.55,-0.83 -0.33,-1.95 0.5,-2.51 2.95,-1.96 9.1,-7.28 12.33,-10.26 0.73,-0.68 1.88,-0.63 2.55,0.1 0.68,0.74 0.64,1.88 -0.1,2.56 -3.41,3.15 -9.63,8.53 -12.77,10.62 -0.31,0.21 -0.65,0.3 -1,0.3z"/>
  <path class="fil1" d="M147.9 131.59c-0.52,0 -1.04,-0.22 -1.4,-0.65 -2.63,-3.16 -4.94,-8.05 -6.22,-11.56 -0.34,-0.94 0.15,-1.98 1.09,-2.33 0.94,-0.34 1.98,0.15 2.32,1.09 1.12,3.08 3.26,7.67 5.6,10.48 0.64,0.77 0.53,1.91 -0.24,2.55 -0.33,0.29 -0.75,0.42 -1.15,0.42z"/>
  <path class="fil1" d="M134.56 131.83c-0.03,0 -0.06,0 -0.09,0 -2.41,-0.03 -4.71,-1.02 -6,-2.58 -0.74,-0.91 -1.4,-1.05 -2.23,-0.96 -2.37,0.23 -5.33,0.52 -7.03,-1.75 -0.91,-1.21 -1.29,-2.79 -1.2,-4.96 0.06,-1.46 0.73,-2.31 0.95,-2.59 0.62,-0.79 1.76,-0.92 2.55,-0.3 0.78,0.62 0.91,1.76 0.29,2.54 -0.08,0.1 -0.16,0.21 -0.17,0.5 -0.05,1.25 0.11,2.14 0.49,2.64 0.39,0.53 1.63,0.52 3.77,0.31 2.19,-0.21 3.95,0.53 5.38,2.26 0.61,0.74 1.91,1.25 3.23,1.26 1.1,0 2.06,-0.31 2.54,-0.87 1.01,-1.18 2.33,-1.58 3.29,-1.87 0.2,-0.06 0.39,-0.11 0.57,-0.18l0.38 -0.12c0.29,-0.09 0.83,-0.27 0.97,-0.4 0.07,-0.12 0.01,-0.66 -0.11,-0.88 -0.09,-0.12 -0.12,-0.19 -0.18,-0.33l-2.15 -5.36c-0.38,-0.93 0.07,-1.98 1,-2.36 0.93,-0.37 1.99,0.08 2.36,1.01l2.1 5.21c0.6,1.04 1,3.04 0.06,4.62 -0.74,1.23 -2.07,1.66 -2.95,1.94l-0.3 0.1c-0.23,0.08 -0.47,0.15 -0.71,0.22 -0.78,0.24 -1.27,0.4 -1.58,0.76 -1.17,1.36 -3.07,2.14 -5.23,2.14z"/>
  <path class="fil1" d="M111.1 107.17c-4.31,0 -7.04,-3.59 -8.53,-5.54 -0.19,-0.26 -0.37,-0.49 -0.53,-0.69 -0.42,-0.52 -0.34,-1.28 0.18,-1.7 0.52,-0.42 1.28,-0.34 1.7,0.18 0.17,0.22 0.36,0.47 0.57,0.74 2.38,3.13 5.09,6 9.68,3.82 0.6,-0.29 1.35,-0.06 1.64,0.54 0.29,0.59 0.09,1.29 -0.5,1.59 -0.01,0 -0.1,0.05 -0.1,0.05 -1.51,0.72 -2.87,1.01 -4.11,1.01z"/>
  <path class="fil1" d="M147.68 106.66c-1.55,0 -2.99,-0.39 -4.37,-1.18 -0.58,-0.33 -0.78,-1.07 -0.45,-1.65 0.33,-0.58 1.07,-0.78 1.65,-0.45 1.62,0.93 4.08,1.67 8.71,-0.86 0.59,-0.32 1.32,-0.11 1.64,0.48 0.32,0.58 0.11,1.31 -0.48,1.64 -2.48,1.35 -4.68,2.02 -6.7,2.02z"/>
  <path class="fil1" d="M95.77 103.27c-1.86,0 -3.71,-0.46 -5.19,-1.69 -0.52,-0.42 -0.59,-1.18 -0.17,-1.7 0.43,-0.51 1.19,-0.58 1.7,-0.16 2.89,2.38 8.53,0.49 10.14,-0.95 0.5,-0.44 1.26,-0.4 1.71,0.1 0.44,0.5 0.4,1.26 -0.1,1.71 -1.34,1.19 -4.73,2.69 -8.09,2.69z"/>
  <path class="fil1" d="M92.21 114.33c-0.1,0 -0.2,-0.01 -0.3,-0.03 -0.65,-0.17 -1.04,-0.83 -0.87,-1.47 0.28,-1.09 1.55,-3.11 1.94,-3.71 0.71,-1.11 2.5,-2.09 4.95,-3.34 1.04,-0.54 2.11,-1.09 2.49,-1.41 0.51,-0.44 1.27,-0.37 1.71,0.13 0.43,0.51 0.37,1.28 -0.14,1.71 -0.6,0.5 -1.69,1.07 -2.96,1.71 -1.34,0.7 -3.6,1.86 -4.02,2.51 -0.82,1.26 -1.52,2.55 -1.63,2.99 -0.14,0.55 -0.63,0.91 -1.17,0.91z"/>
  <g>
   <path class="fil1" d="M82.19 103.16c0,0 0,0 0,0 0,0 0,0 0,0zm0 0c0,0 0,0 0,0 0,0 0,0 0,0zm1.85 0.94l0.01 0 -0.01 0zm-1.44 2.86c-0.65,0 -1.24,-0.35 -1.56,-0.89 -0.14,-0.17 -0.26,-0.37 -0.36,-0.62 -2.21,-5.48 -2.21,-10.99 -0.02,-14.74 1.46,-2.49 3.34,-4.02 6.3,-5.12 0.93,-0.35 1.98,0.13 2.33,1.06 0.35,0.94 -0.13,1.99 -1.07,2.33 -2.19,0.82 -3.39,1.78 -4.43,3.56 -2.26,3.87 -0.66,9.16 0.11,11.19 0.42,0.46 0.48,1.02 0.5,1.22 0.11,1 -0.6,1.89 -1.6,2 -0.07,0.01 -0.13,0.01 -0.2,0.01z"/>
  </g>
  <path class="fil1" d="M72.27 98.59c-1,0 -1.81,-0.81 -1.81,-1.81 0,-8.08 6.58,-20.47 16.49,-20.73 1,-0.03 1.83,0.76 1.86,1.76 0.02,1 -0.76,1.83 -1.77,1.86 -7.39,0.19 -12.96,10.51 -12.96,17.11 0,1 -0.81,1.81 -1.81,1.81z"/>
  <path class="fil1" d="M66.08 87.9c-0.48,0 -0.95,-0.18 -1.3,-0.55 -0.7,-0.71 -0.68,-1.86 0.04,-2.56 1.19,-1.16 2.09,-2.97 3.13,-5.07 2.5,-5.05 5.93,-11.97 16.78,-13.56 0.99,-0.14 1.91,0.54 2.05,1.53 0.15,0.99 -0.54,1.91 -1.53,2.06 -8.97,1.31 -11.55,6.53 -14.05,11.58 -1.14,2.29 -2.22,4.47 -3.86,6.06 -0.35,0.34 -0.81,0.51 -1.26,0.51z"/>
  <path class="fil1" d="M72.35 63.35c-3.14,0 -6.2,-0.34 -8.99,-1.02 -0.05,-0.01 -0.23,0 -0.36,0l-0.35 0c-1,0 -1.81,-0.81 -1.81,-1.81 0,-1 0.81,-1.81 1.81,-1.81l0.23 0c0.35,-0.01 0.83,-0.03 1.35,0.1 7.2,1.77 16.33,0.96 23.84,-2.1 2.82,-1.16 5.5,-2.56 8.1,-3.91 1.69,-0.88 3.29,-1.72 4.93,-2.5 7.5,-3.54 20.5,-3.49 29.41,-1.94 1.5,0.26 2.84,0.55 4.13,0.84 1.19,0.26 2.31,0.5 3.38,0.68 0.99,0.16 1.65,1.1 1.49,2.08 -0.16,0.99 -1.09,1.66 -2.08,1.5 -1.17,-0.2 -2.33,-0.45 -3.57,-0.73 -1.26,-0.27 -2.55,-0.56 -3.97,-0.8 -8.63,-1.5 -20.76,-1.41 -27.24,1.65 -1.58,0.74 -3.15,1.56 -4.81,2.43 -2.66,1.39 -5.42,2.83 -8.4,4.05 -5.29,2.16 -11.34,3.29 -17.09,3.29z"/>
  <path class="fil1" d="M175.43 141.07c-0.24,0 -0.48,-0.05 -0.71,-0.15 -0.92,-0.39 -1.35,-1.45 -0.96,-2.37 1.1,-2.58 0.18,-3.41 -4.23,-5.8l-0.93 -0.51c-7.34,-4.05 -6.74,-9.54 -6.05,-15.89 0.08,-0.72 0.16,-1.47 0.24,-2.24 0.09,-1 0.98,-1.73 1.97,-1.63 1,0.09 1.73,0.98 1.63,1.97 -0.07,0.8 -0.16,1.56 -0.24,2.29 -0.68,6.29 -1.02,9.44 4.2,12.32l0.91 0.5c3.71,2.02 8.33,4.53 5.84,10.4 -0.29,0.69 -0.96,1.11 -1.67,1.11z"/>
  <path class="fil1" d="M186.78 127.39c-15.55,0 -17.6,-10.86 -18.96,-18.11 -0.45,-2.41 -0.88,-4.69 -1.67,-5.72 -0.61,-0.79 -0.46,-1.93 0.34,-2.54 0.79,-0.61 1.93,-0.46 2.54,0.34 1.31,1.71 1.79,4.28 2.35,7.25 1.37,7.29 2.9,15.56 16.35,15.14 1.95,-0.06 3.5,-0.64 4.59,-1.73 0.7,-0.71 1.85,-0.71 2.56,0 0.71,0.71 0.71,1.86 0,2.56 -1.77,1.77 -4.14,2.71 -7.05,2.8 -0.35,0.01 -0.71,0.01 -1.05,0.01z"/>
  <path class="fil1" d="M189.22 117.04c-2.74,0 -4.83,-1.19 -6.26,-2.45 -2.6,-2.28 -3.77,-5.81 -4.9,-9.23 -0.38,-1.14 -0.77,-2.32 -1.21,-3.44 -1.29,-3.31 -2.7,-4.77 -4.86,-5.04 -1,-0.12 -1.7,-1.03 -1.58,-2.02 0.13,-0.99 1.03,-1.7 2.02,-1.57 4.65,0.58 6.68,4.45 7.8,7.31 0.47,1.21 0.87,2.44 1.27,3.62 1.02,3.09 1.99,6.01 3.84,7.64 2.11,1.85 4.46,2.06 7.42,0.65 0.9,-0.43 1.98,-0.05 2.41,0.86 0.43,0.9 0.05,1.98 -0.86,2.41 -1.89,0.91 -3.59,1.26 -5.09,1.26z"/>
  <path class="fil1" d="M192.14 102.5c-0.72,0 -1.36,-0.13 -1.89,-0.3 -2.86,-0.91 -4.65,-3.73 -5.31,-5.86 -0.13,-0.41 -0.23,-0.84 -0.34,-1.26 -0.41,-1.63 -0.77,-3.03 -2.67,-4.72 -2.45,-2.19 -5.26,-2.99 -7.96,-3.75 -3.9,-1.11 -7.92,-2.25 -9.46,-7.51 -0.28,-0.96 0.27,-1.96 1.23,-2.25 0.96,-0.28 1.97,0.27 2.25,1.23 0.93,3.19 3.03,3.92 6.96,5.04 2.96,0.84 6.32,1.79 9.39,4.53 2.73,2.44 3.31,4.71 3.77,6.54 0.09,0.36 0.18,0.72 0.29,1.08 0.42,1.36 1.53,3.02 2.96,3.48 0.98,0.31 2.08,0.01 3.27,-0.89 0.8,-0.61 1.94,-0.46 2.54,0.34 0.61,0.8 0.46,1.93 -0.34,2.54 -1.76,1.34 -3.37,1.76 -4.69,1.76z"/>
  <path class="fil1" d="M191.24 84.49c-0.22,0 -0.45,-0.04 -0.68,-0.13 -0.92,-0.38 -1.37,-1.43 -1,-2.36 0.47,-1.16 0.54,-2.07 0.21,-2.7 -0.8,-1.54 -4.21,-2.33 -6.71,-2.91 -5.48,-1.28 -7.74,-3.66 -9.91,-5.96 -2.05,-2.16 -4.17,-4.39 -9.54,-6.23 -0.95,-0.33 -1.45,-1.36 -1.13,-2.3 0.32,-0.95 1.35,-1.46 2.3,-1.13 6.22,2.13 8.76,4.81 11,7.17 2.05,2.17 3.68,3.89 8.1,4.92 3.53,0.82 7.54,1.75 9.11,4.77 0.84,1.61 0.81,3.53 -0.07,5.72 -0.28,0.71 -0.96,1.14 -1.68,1.14z"/>
  <path class="fil1" d="M174.53 58.06c-0.49,0 -0.98,-0.2 -1.34,-0.59 -0.68,-0.73 -0.63,-1.88 0.11,-2.56 0.21,-0.19 0.15,-0.91 -0.4,-1.84 -1.43,-2.44 -5.69,-5.34 -10.28,-3.83 -3.53,1.16 -7.95,0.74 -11.85,0.37 -1.71,-0.16 -3.33,-0.31 -4.52,-0.28 -1.02,0.01 -1.84,-0.77 -1.86,-1.77 -0.03,-1 0.76,-1.83 1.77,-1.85 1.4,-0.04 3.13,0.12 4.95,0.3 3.55,0.33 7.57,0.71 10.38,-0.21 5.94,-1.96 12.06,1.22 14.54,5.44 1.43,2.44 1.32,4.87 -0.28,6.34 -0.35,0.32 -0.79,0.48 -1.22,0.48z"/>
  <path class="fil1" d="M134.66 45.58c-1.9,0 -3.86,-0.25 -5.84,-0.76 -0.97,-0.25 -1.55,-1.24 -1.3,-2.21 0.25,-0.96 1.24,-1.55 2.21,-1.3 4.18,1.08 8.22,0.81 11.37,-0.76 5.6,-2.78 16.18,-6.76 24.14,-2.24 2.16,1.23 2.98,2.36 3.46,3.03 0.08,0.1 0.14,0.2 0.21,0.28 0.87,0.42 1.25,1.46 0.86,2.35 -0.41,0.92 -1.48,1.33 -2.39,0.93 -0.83,-0.37 -1.26,-0.96 -1.61,-1.43 -0.39,-0.55 -0.84,-1.16 -2.33,-2.01 -6.49,-3.69 -15.77,-0.12 -20.73,2.34 -2.38,1.18 -5.14,1.78 -8.05,1.78z"/>
  <path class="fil1" d="M120.01 45.77c-1,0 -1.81,-0.81 -1.81,-1.81 0,-4.29 2.14,-7.31 5.58,-7.88 9.78,-1.61 9.78,-1.61 13.18,-4.76 1.1,-1.01 2.47,-2.28 4.51,-3.98 4.26,-3.54 8.45,-4.11 12.44,-1.7 2.28,1.38 3.42,3.87 2.76,6.05 -0.26,0.89 -1.53,3.77 -6.62,3.56 -1,-0.04 -1.78,-0.88 -1.74,-1.88 0.04,-1 0.89,-1.78 1.88,-1.74 1.87,0.07 2.85,-0.44 3.01,-0.98 0.15,-0.49 -0.21,-1.33 -1.17,-1.91 -2.67,-1.61 -5.13,-1.19 -8.24,1.39 -1.97,1.63 -3.3,2.87 -4.37,3.86 -4.08,3.77 -4.5,3.92 -15.05,5.67 -2.3,0.37 -2.55,3.13 -2.55,4.3 0,1 -0.81,1.81 -1.81,1.81z"/>
  <path class="fil1" d="M41.65 88.55c-3.41,0 -7.08,-1.05 -9.04,-4.11 -1.16,-1.8 -1.12,-3.33 -0.88,-4.3 0.39,-1.58 1.57,-2.97 3.44,-4.03 0.62,-0.35 1.4,-0.3 1.98,0.13 0.56,0.42 0.82,1.12 0.69,1.8 0.36,0.14 1.33,0.21 2.41,-0.29 0.92,-0.44 2.03,-1.35 2.03,-3.2 0,-1 0.81,-1.81 1.81,-1.81 1,0 1.81,0.81 1.81,1.81 0,2.87 -1.48,5.22 -4.06,6.45 -2.27,1.09 -4.9,1 -6.39,-0.2 -0.03,-0.03 -0.07,-0.05 -0.1,-0.08 -0.04,0.1 -0.08,0.19 -0.1,0.28 -0.04,0.15 -0.15,0.61 0.4,1.48 1.52,2.35 5.45,2.8 8.47,2.21 4.83,-0.93 6.01,-3.26 7.52,-6.2 1.07,-2.11 2.3,-4.5 4.97,-6.35 2.52,-1.74 5.39,-2.49 7.93,-3.14 1.59,-0.41 3.09,-0.8 4.26,-1.37 0.9,-0.44 1.98,-0.07 2.42,0.82 0.44,0.9 0.07,1.99 -0.83,2.43 -1.49,0.73 -3.17,1.17 -4.94,1.62 -2.36,0.61 -4.79,1.24 -6.78,2.62 -1.92,1.33 -2.84,3.12 -3.81,5.02 -1.63,3.21 -3.49,6.84 -10.05,8.11 -0.98,0.19 -2.06,0.3 -3.16,0.3z"/>
  <path class="fil1" d="M31.01 105.18c-2.37,0 -4.78,-1.65 -6.19,-4.24 -1.4,-2.56 -1.38,-5.31 0.05,-7.37 1.45,-2.09 5.01,-4.32 13.64,-3.06 4.68,0.68 7.68,0.62 10.37,-0.21 4.2,-1.3 10.84,-5.6 11.08,-8.63 0.07,-1 0.95,-1.75 1.94,-1.67 1,0.08 1.75,0.95 1.67,1.94 -0.46,5.94 -10.14,10.74 -13.62,11.82 -3.19,0.99 -6.77,1.09 -11.96,0.33 -7.43,-1.08 -9.57,0.73 -10.15,1.56 -0.93,1.33 -0.11,3.06 0.16,3.56 0.75,1.37 2.06,2.36 3.06,2.34 1.02,-0.05 1.84,0.75 1.87,1.75 0.04,1 -0.74,1.84 -1.74,1.87 -0.06,0 -0.12,0.01 -0.18,0.01z"/>
  <path class="fil1" d="M41.84 116.52c-0.42,0 -0.84,-0.02 -1.28,-0.07 -2.47,-0.24 -4.58,-1.39 -5.93,-3.23 -1.29,-1.74 -1.77,-3.96 -1.33,-6.07 0.75,-3.66 3.2,-5.65 8.19,-6.65 3.97,-0.8 9.4,-1.88 10.07,-4.55 0.25,-0.97 1.23,-1.55 2.2,-1.31 0.97,0.24 1.56,1.23 1.31,2.2 -1.23,4.88 -7.68,6.17 -12.87,7.21 -4.76,0.96 -5.1,2.62 -5.35,3.83 -0.23,1.11 0.02,2.27 0.7,3.19 0.52,0.71 1.53,1.6 3.37,1.78 2.05,0.2 3.92,-0.31 4.65,-1.27 0.53,-0.69 0.53,-1.76 0,-3.15 -0.36,-0.94 0.11,-1.99 1.05,-2.34 0.93,-0.36 1.98,0.11 2.33,1.05 1.26,3.3 0.43,5.43 -0.5,6.64 -1.34,1.75 -3.75,2.74 -6.61,2.74z"/>
  <path class="fil1" d="M54.15 132.38c-0.75,0 -1.54,-0.1 -2.38,-0.29 -3.28,-0.75 -5.97,-3.91 -6.71,-7.86 -0.77,-4.14 0.81,-7.99 4.24,-10.31 3.72,-2.51 6.04,-6.13 6.38,-9.91 0.09,-1 0.98,-1.73 1.96,-1.64 1,0.08 1.74,0.96 1.65,1.96 -0.43,4.87 -3.33,9.46 -7.96,12.59 -3.16,2.14 -2.95,5.36 -2.71,6.64 0.46,2.48 2.13,4.58 3.96,5 0.76,0.17 1.41,0.23 1.99,0.18 1.92,-0.18 3.07,-1.58 3.51,-2.84 0.37,-1.06 0.22,-1.96 -0.1,-2.26 -0.27,-0.26 -1.01,-0.34 -2.3,0.2 -0.93,0.38 -1.99,-0.06 -2.37,-0.99 -0.38,-0.92 0.06,-1.98 0.99,-2.36 3.41,-1.41 5.33,-0.29 6.17,0.51 1.46,1.38 1.85,3.71 1.03,6.09 -0.8,2.32 -2.96,4.93 -6.6,5.26 -0.25,0.02 -0.5,0.03 -0.75,0.03z"/>
  <path class="fil1" d="M44.33 70.39c-1.04,0 -2.06,-0.15 -3.05,-0.5 -1.76,-0.61 -4.08,-2.13 -5.14,-5.84 -0.27,-0.96 0.29,-1.97 1.25,-2.24 0.96,-0.27 1.97,0.28 2.24,1.25 0.51,1.8 1.45,2.92 2.85,3.41 2.55,0.9 6.14,-0.42 8.39,-2.03 1.56,-1.12 2.92,-3.2 4.36,-5.4 3.09,-4.75 6.95,-10.66 15.44,-10.66 1,0 1.81,0.81 1.81,1.81 0,1 -0.81,1.81 -1.81,1.81 -6.53,0 -9.52,4.59 -12.41,9.02 -1.63,2.5 -3.17,4.86 -5.28,6.37 -2.17,1.55 -5.44,3 -8.65,3z"/>
  <path class="fil1" d="M45.72 56.68c-0.26,0 -0.53,-0.01 -0.8,-0.03 -3.4,-0.29 -6.25,-2.4 -7.43,-5.51 -1.92,-5.03 -0.64,-8.07 0.78,-9.73 3,-3.54 8.96,-3.8 13.15,-2.94 1.59,0.33 3.18,0.71 4.72,1.09 2.85,0.69 5.54,1.34 7.22,1.34 2.29,0 4.16,-0.67 5,-1.78 0.48,-0.62 0.6,-1.36 0.36,-2.2 -0.27,-0.96 0.3,-1.96 1.26,-2.23 0.97,-0.27 1.96,0.29 2.23,1.25 0.54,1.94 0.2,3.84 -0.96,5.37 -1.55,2.04 -4.42,3.21 -7.89,3.21 -2.11,0 -4.87,-0.67 -8.07,-1.44 -1.51,-0.37 -3.07,-0.75 -4.59,-1.06 -4.12,-0.84 -8.09,-0.13 -9.67,1.73 -1.14,1.34 -1.19,3.39 -0.16,6.1 0.7,1.82 2.33,3.02 4.36,3.19 1.72,0.14 3.25,-0.5 3.92,-1.63 0.51,-0.86 1.63,-1.15 2.48,-0.64 0.87,0.51 1.15,1.62 0.64,2.48 -1.27,2.16 -3.74,3.43 -6.55,3.43z"/>
  <path class="fil1" d="M54.51 36.68c-0.04,0 -0.07,0 -0.11,0 -1,-0.06 -1.76,-0.91 -1.7,-1.91 0.14,-2.47 1.17,-4.52 3.07,-6.08 5.31,-4.36 15.34,-3.12 16.47,-2.96 3.47,0.48 8.1,0.28 10.67,-1.73 0.79,-0.61 1.93,-0.47 2.55,0.32 0.61,0.79 0.47,1.92 -0.32,2.54 -4.25,3.3 -10.79,2.82 -13.4,2.45 -4.54,-0.62 -10.76,-0.21 -13.66,2.18 -1.11,0.91 -1.68,2.05 -1.77,3.48 -0.05,0.97 -0.85,1.71 -1.8,1.71z"/>
  <path class="fil1" d="M112.22 33.49c-3.91,0 -10.16,-4.18 -11.92,-8.09 -1.8,-4.02 -3.21,-5.69 -6.52,-7.78 -2.12,-1.33 -4.92,-1.58 -8.34,-0.74 -3.71,0.91 -4.51,1.55 -7.19,3.69l-1.11 0.89c-1.13,0.88 -2.67,1.88 -4.68,1.75 -1,-0.06 -1.75,-0.93 -1.69,-1.92 0.07,-1 0.92,-1.77 1.93,-1.69 0.6,0.04 1.27,-0.26 2.19,-0.99l1.1 -0.87c2.82,-2.25 4.1,-3.28 8.59,-4.38 4.41,-1.08 8.15,-0.68 11.13,1.19 3.95,2.49 5.79,4.68 7.9,9.36 1.35,3.01 6.75,6.13 8.74,5.95 0.99,-0.11 1.88,0.63 1.98,1.62 0.1,1 -0.62,1.88 -1.62,1.99 -0.16,0.01 -0.32,0.02 -0.49,0.02z"/>
  <path class="fil1" d="M115.38 44.7c-1,0 -1.81,-0.81 -1.81,-1.81 0,-3.11 2.34,-6.37 4.6,-9.51 1.69,-2.36 3.43,-4.79 3.75,-6.6 0.39,-2.21 0.41,-5.18 -1.74,-6.78 -2.01,-1.49 -5.08,-1.26 -7.07,-0.26 -0.7,0.35 -2.33,1.35 -2.33,3.02 0,1 -0.81,1.81 -1.81,1.81 -1,0 -1.81,-0.81 -1.81,-1.81 0,-2.6 1.57,-4.88 4.32,-6.26 3.54,-1.78 8.01,-1.53 10.86,0.6 1.64,1.22 4.23,4.18 3.15,10.31 -0.46,2.62 -2.36,5.27 -4.38,8.08 -1.84,2.56 -3.92,5.45 -3.92,7.4 0,1 -0.81,1.81 -1.81,1.81z"/>
  <path class="fil1" d="M74.63 54.35c-0.53,0 -1.05,-0.23 -1.41,-0.68 -0.63,-0.78 -0.5,-1.92 0.28,-2.55 4.44,-3.57 8.58,-6.09 14.32,-6.79 2.52,-0.31 5.11,-0.36 7.61,-0.41 4.15,-0.08 8.07,-0.15 11.8,-1.31 0.96,-0.29 1.97,0.24 2.27,1.2 0.29,0.95 -0.24,1.97 -1.2,2.26 -4.22,1.31 -8.58,1.39 -12.8,1.47 -2.52,0.05 -4.9,0.09 -7.24,0.38 -4.91,0.6 -8.42,2.76 -12.5,6.03 -0.33,0.27 -0.73,0.4 -1.13,0.4z"/>
  <path class="fil1" d="M111.28 41.67c-0.09,0 -0.19,-0.01 -0.28,-0.02 -4.84,-0.78 -8.91,-2.62 -13.23,-4.58 -1.45,-0.66 -2.96,-1.34 -4.5,-1.98 -4.83,-2.01 -5.75,-1.9 -10.77,-0.12 -0.95,0.34 -1.98,-0.15 -2.32,-1.1 -0.33,-0.94 0.16,-1.97 1.1,-2.31 5.66,-2.01 7.57,-2.23 13.38,0.18 1.6,0.67 3.13,1.36 4.61,2.03 4.08,1.85 7.94,3.6 12.3,4.3 0.99,0.16 1.66,1.09 1.5,2.08 -0.14,0.89 -0.91,1.52 -1.79,1.52z"/>
  <path class="fil1" d="M120.57 121.73c-0.41,0 -0.82,-0.13 -1.16,-0.42 -0.77,-0.64 -0.87,-1.78 -0.23,-2.55 0.64,-0.76 1.17,-1.28 1.64,-1.74 0.85,-0.85 1.42,-1.4 2.24,-3.12 1.65,-3.45 2.42,-7.55 2.3,-9.66l-0.04 -0.72c-0.17,-3.67 -0.56,-7.34 -3.16,-8.39 -0.93,-0.37 -1.38,-1.43 -1.01,-2.36 0.38,-0.93 1.44,-1.37 2.36,-1 4.98,2.01 5.27,8.24 5.43,11.58l0.04 0.69c0.17,3.06 -0.95,7.86 -2.65,11.43 -1.1,2.29 -2.01,3.18 -2.97,4.13 -0.43,0.42 -0.88,0.86 -1.4,1.48 -0.36,0.43 -0.87,0.65 -1.39,0.65z"/>
  <path class="fil1" d="M101.4 97.42c-0.2,0 -0.41,-0.04 -0.62,-0.13 -0.76,-0.34 -1.1,-1.23 -0.75,-1.99 3.44,-7.66 11.08,-6.71 14.34,-6.3l0.3 0.04c0.47,0.05 0.92,0.26 1.43,0.51 0.06,0.03 0.11,0.06 0.15,0.08 0.58,0.17 1.02,0.68 1.08,1.32 0.07,0.83 -0.55,1.56 -1.38,1.63 -0.46,0.04 -0.78,-0.12 -1.19,-0.32 -0.13,-0.07 -0.43,-0.21 -0.54,-0.24l-0.22 -0.02c-4.21,-0.53 -8.89,-0.66 -11.22,4.53 -0.25,0.56 -0.8,0.89 -1.38,0.89z"/>
  <path class="fil1" d="M155.55 98.55c-0.74,0 -1.39,-0.54 -1.49,-1.3 -0.11,-0.79 -1.06,-1.79 -2.42,-2.56 -2.08,-1.16 -5.26,-1.85 -7.69,-0.77 -0.77,0.33 -1.66,-0.01 -1.99,-0.78 -0.34,-0.76 0.01,-1.65 0.77,-1.99 3.62,-1.59 7.85,-0.5 10.38,0.91 2.26,1.26 3.7,3.01 3.94,4.78 0.11,0.83 -0.47,1.59 -1.29,1.7 -0.07,0.01 -0.14,0.01 -0.21,0.01z"/>
  <path class="fil1" d="M129.71 149.28c-0.2,0 -0.41,-0.01 -0.64,-0.01l-0.87 0c-3.96,0 -6.03,-1.12 -7.69,-2.02 -0.75,-0.4 -1.33,-0.72 -1.99,-0.88 -0.97,-0.23 -1.57,-1.2 -1.34,-2.18 0.23,-0.97 1.21,-1.57 2.18,-1.34 1.12,0.26 2.01,0.75 2.88,1.22 1.43,0.77 2.92,1.58 5.96,1.58l0.89 0c1.94,0.01 2.4,0.01 4.76,-0.48 0.94,-0.19 2.24,-0.46 2.76,-0.92 0.74,-0.67 1.88,-0.62 2.56,0.12 0.67,0.74 0.61,1.89 -0.13,2.56 -1.25,1.13 -3.06,1.51 -4.39,1.78 -2.49,0.51 -3.32,0.57 -4.94,0.57z"/>
  <path class="fil1" d="M112.63 143.06c-1,0 -1.81,-0.81 -1.81,-1.81 0,-3.71 3.78,-10.25 8.27,-10.99 0.99,-0.16 1.92,0.5 2.08,1.49 0.17,0.98 -0.5,1.92 -1.49,2.08 -2.41,0.4 -5.24,5.2 -5.24,7.42 0,1 -0.81,1.81 -1.81,1.81z"/>
  <path class="fil1" d="M119.56 139.83c0,0.01 0,0.01 0,0.01 0,0 0,0 0,-0.01zm0 0.01l0 -0.01zm1.56 2.73c-0.31,0 -0.63,-0.08 -0.91,-0.25 -0.77,-0.45 -1.09,-1.38 -0.79,-2.19 0.02,-0.08 0.03,-0.18 0.05,-0.29 0.16,-1.04 0.5,-3.21 1.9,-5.57 1.07,-1.8 1.17,-1.96 1.97,-2.81 0.15,-0.16 0.33,-0.35 0.57,-0.6 0.68,-0.74 1.82,-0.79 2.56,-0.12 0.74,0.68 0.79,1.83 0.11,2.56 -0.25,0.28 -0.45,0.48 -0.61,0.65 -0.54,0.58 -0.54,0.58 -1.49,2.17 -1.04,1.76 -1.29,3.39 -1.43,4.27 -0.08,0.53 -0.14,0.9 -0.36,1.29 -0.34,0.57 -0.95,0.89 -1.57,0.89z"/>
  <path class="fil1" d="M129.27 142.76c-0.8,0 -1.53,-0.53 -1.75,-1.34 -1.13,-4.19 0.09,-6.91 0.75,-8.37 0.08,-0.18 0.15,-0.34 0.21,-0.49 0.38,-0.93 1.43,-1.38 2.36,-1.01 0.93,0.37 1.38,1.43 1.01,2.36 -0.08,0.19 -0.17,0.4 -0.28,0.63 -0.57,1.26 -1.34,3 -0.55,5.94 0.26,0.96 -0.31,1.96 -1.27,2.22 -0.16,0.04 -0.32,0.06 -0.48,0.06z"/>
  <path class="fil1" d="M137.53 142.66c-0.87,0 -1.64,-0.63 -1.79,-1.51 -0.1,-0.58 -1.11,-4.34 -1.71,-6.12 -0.32,-0.95 0.19,-1.97 1.13,-2.3 0.95,-0.32 1.98,0.19 2.3,1.14 0.61,1.8 1.71,5.81 1.85,6.68 0.17,0.99 -0.5,1.92 -1.48,2.09 -0.1,0.01 -0.21,0.02 -0.3,0.02z"/>
  <path class="fil1" d="M145.93 143.72c-0.89,0 -1.66,-0.65 -1.79,-1.56 -0.37,-2.6 -2.77,-6.93 -3.89,-7.03 -0.99,-0.09 -1.73,-0.96 -1.64,-1.96 0.08,-1 0.95,-1.74 1.96,-1.65 4.33,0.37 6.86,8.09 7.16,10.13 0.14,0.99 -0.55,1.91 -1.54,2.05 -0.09,0.01 -0.17,0.02 -0.26,0.02z"/>
  <path class="fil1" d="M105.44 142.61c-0.46,0 -0.93,-0.17 -1.28,-0.53 -0.43,-0.43 -0.6,-1.03 -0.5,-1.59 0.47,-2.96 2.07,-6.22 5.13,-6.55 1,-0.1 1.88,0.62 1.99,1.61 0.11,1 -0.61,1.89 -1.61,2 -0.95,0.1 -1.72,2.16 -1.94,3.52 -0.06,0.38 -0.24,0.74 -0.51,1.01 -0.35,0.36 -0.82,0.53 -1.28,0.53z"/>
  <g>
   <path class="fil1" d="M128.94 205.33l0.01 0 -0.01 0zm-0.42 3.55c-0.7,0 -1.35,-0.38 -1.98,-0.75 -0.35,-0.2 -0.8,-0.47 -1.36,-0.76 -6.6,-3.4 -11.67,-5.26 -16.3,-6.87 -20.41,-7.09 -35.2,-18.35 -51.04,-38.84 -0.63,-0.81 -1.09,-1.72 -1.39,-2.7 -1.34,-4.51 1.19,-9.59 5.42,-10.88 5.78,-1.76 7.94,-5.81 9.68,-9.07 0.94,-1.78 1.75,-3.31 3.03,-4.2 0.82,-0.57 1.95,-0.36 2.52,0.46 0.58,0.82 0.37,1.95 -0.45,2.52 -0.56,0.39 -1.21,1.62 -1.91,2.92 -1.83,3.44 -4.59,8.64 -11.82,10.84 -2.35,0.71 -3.78,3.75 -2.99,6.37 0.16,0.56 0.42,1.07 0.77,1.52 15.38,19.89 29.68,30.79 49.37,37.64 4.54,1.58 9.96,3.56 16.77,7.07 0.07,0.04 0.14,0.07 0.2,0.11 0.05,-2.13 0.24,-4.71 0.45,-7.44 0.29,-3.9 0.59,-7.94 0.53,-11.31 -0.02,-1 0.78,-1.82 1.78,-1.84 0.98,0.03 1.82,0.78 1.84,1.78 0.06,3.53 -0.24,7.65 -0.54,11.64 -0.2,2.7 -0.39,5.26 -0.43,7.3l-0.02 0.93c-0.02,1.54 -0.03,2.66 -1.15,3.29 -0.34,0.19 -0.66,0.27 -0.98,0.27z"/>
  </g>
  <path class="fil1" d="M167.4 195.91c-1.07,0 -2.51,-0.79 -5.12,-2.22 -0.75,-0.41 -1.6,-0.87 -2.57,-1.39 -10.82,-5.8 -18.87,-9.2 -22.67,-9.57 -0.99,-0.09 -1.72,-0.98 -1.62,-1.98 0.09,-0.99 0.98,-1.73 1.97,-1.63 4.39,0.43 12.47,3.79 24.04,9.98 0.97,0.53 1.84,1 2.59,1.41 0.33,0.18 0.66,0.36 0.97,0.53 -0.04,-0.11 -0.09,-0.22 -0.13,-0.34 -0.63,-1.65 -1.49,-3.93 -2.44,-6.83 -2.66,-8.2 -6.61,-18 -13.64,-20.93 -0.92,-0.38 -1.36,-1.44 -0.97,-2.37 0.38,-0.92 1.44,-1.36 2.37,-0.97 8.39,3.5 12.79,14.21 15.69,23.15 0.92,2.82 1.76,5.04 2.38,6.67 1.29,3.39 1.82,4.79 0.51,5.93 -0.43,0.38 -0.85,0.56 -1.36,0.56z"/>
  <path class="fil1" d="M179.87 166.34c-0.01,0 -0.03,0 -0.05,0 -5.25,-0.15 -12.67,-3.06 -19.21,-5.63 -4.92,-1.93 -9.56,-3.75 -11.96,-3.88 -1,-0.06 -1.76,-0.91 -1.71,-1.91 0.06,-1 0.91,-1.78 1.91,-1.71 2.98,0.17 7.66,2 13.08,4.13 6.27,2.46 13.38,5.24 17.99,5.37 1,0.03 1.79,0.86 1.76,1.86 -0.02,0.99 -0.83,1.77 -1.81,1.77z"/>
  <path class="fil1" d="M29.81 179.79c-0.93,0 -1.72,-0.72 -1.8,-1.67 -0.5,-5.87 16.72,-13.94 16.9,-14.02 0.59,-0.25 1.18,-0.5 1.76,-0.76 4.19,-1.78 8.53,-3.63 10,-5.89 0.55,-0.84 1.67,-1.08 2.51,-0.53 0.84,0.55 1.07,1.67 0.53,2.51 -2.08,3.18 -6.71,5.16 -11.61,7.25 -0.59,0.25 -1.17,0.49 -1.75,0.75 -5.16,2.23 -14.56,8.34 -14.73,10.41 0.08,1 -0.65,1.86 -1.65,1.95 -0.05,0 -0.11,0 -0.16,0z"/>
  <path class="fil1" d="M138.86 193.22c-0.02,0 -0.03,0 -0.05,0 -0.03,0.01 -0.12,0.02 -0.24,0.19 -0.18,0.28 -0.34,0.89 -0.15,1.68 0.3,1.26 1.2,1.92 1.6,1.87 0.03,-0.01 0.12,-0.02 0.24,-0.19 0.19,-0.28 0.34,-0.89 0.15,-1.68 -0.29,-1.21 -1.13,-1.87 -1.55,-1.87zm1.11 7.37c-2.26,0 -4.42,-1.93 -5.07,-4.66 -0.4,-1.66 -0.16,-3.32 0.67,-4.54 0.64,-0.96 1.6,-1.58 2.7,-1.75 2.47,-0.37 4.95,1.65 5.66,4.61 0.4,1.66 0.16,3.32 -0.67,4.54 -0.64,0.96 -1.6,1.58 -2.7,1.75 -0.19,0.03 -0.39,0.05 -0.59,0.05z"/>
  <path class="fil1" d="M136.24 27.81c-2.76,0 -5.67,-0.34 -8.47,-1.52 -1.84,-0.78 -3.88,-2.78 -5.8,-4.82 -0.57,-0.61 -0.54,-1.57 0.07,-2.14 0.61,-0.57 1.56,-0.54 2.13,0.07 0.98,1.04 3.26,3.47 4.77,4.1 4.18,1.76 8.74,1.33 12.77,0.95 2.88,-0.28 5.36,-0.51 7.32,0.1 0.79,0.25 1.23,1.1 0.98,1.9 -0.25,0.79 -1.1,1.24 -1.89,0.98 -1.37,-0.43 -3.57,-0.22 -6.13,0.02 -1.76,0.17 -3.72,0.36 -5.75,0.36z"/>
  <path class="fil1" d="M108.45 18.89l-0.18 0c-0.13,0 -16.34,-2.21 -17.07,-2.7 -0.69,-0.47 -0.88,-1.4 -0.42,-2.1 0.35,-0.52 0.97,-0.75 1.55,-0.64 1.7,0.29 14.71,2.4 15.95,2.42 2.07,0.01 4.26,-0.12 5.21,-0.17 0.69,-0.04 0.97,-0.05 1.39,0.22 0.7,0.45 0.9,1.38 0.45,2.08 -0.29,0.46 -0.81,0.67 -1.29,0.69 -0.07,0.01 -0.21,0.02 -0.39,0.03 -0.94,0.05 -3.11,0.17 -5.2,0.17z"/>
  <g>
   <path class="fil1" d="M188.96 77.62l0 0 0 0zm1.81 1.8c-0.94,0 -1.72,-0.72 -1.8,-1.64 -0.08,-0.25 -0.37,-0.87 -0.57,-1.18 -0.24,-0.38 -0.45,-0.73 -0.66,-1.06 -0.78,-1.27 -1.3,-2.1 -2,-2.8 -1.64,-1.63 -3.08,-2.41 -4.6,-3.24 -2.55,-1.38 -5.19,-2.82 -8.32,-7.83 -1.92,-3.07 -2.33,-5.03 -1.33,-6.36 0.52,-0.68 1.54,-1.38 3.53,-0.8 0.97,0.27 1.52,1.27 1.25,2.24 -0.19,0.65 -0.72,1.12 -1.34,1.26 0.2,0.43 0.49,0.99 0.96,1.73 2.63,4.21 4.65,5.31 6.98,6.58 1.6,0.87 3.41,1.86 5.42,3.85 1.01,1 1.65,2.03 2.54,3.47l0.64 1.03c0.04,0.07 1.11,1.77 1.11,2.93 0.01,1 -0.8,1.82 -1.8,1.82l-0.01 0z"/>
  </g>
  <path class="fil2" d="M110.39 96.07c1.68,0 3.04,1.37 3.04,3.05 0,1.68 -1.36,3.05 -3.04,3.05 -1.69,0 -3.05,-1.37 -3.05,-3.05 0,-1.68 1.36,-3.05 3.05,-3.05z"/>
  <path class="fil3" d="M145.65 95.83c1.68,0 3.05,1.37 3.05,3.05 0,1.68 -1.37,3.05 -3.05,3.05 -1.68,0 -3.05,-1.37 -3.05,-3.05 0,-1.68 1.37,-3.05 3.05,-3.05z"/>
  <path class="fil1" d="M73.15 45.48c-0.48,0 -0.96,-0.23 -1.25,-0.67 -0.47,-0.69 -0.29,-1.63 0.41,-2.09 6.3,-4.25 11.19,-4.56 18.49,-4.56 0.84,0 1.51,0.68 1.51,1.51 0,0.84 -0.67,1.51 -1.51,1.51 -6.71,0 -11.1,0.2 -16.81,4.04 -0.25,0.17 -0.55,0.26 -0.84,0.26z"/>
  <path class="fil1" d="M151.99 141.82c-0.22,0 -0.44,-0.04 -0.66,-0.13 -0.93,-0.36 -1.39,-1.41 -1.03,-2.34 0.35,-0.91 -1.1,-2.5 -2.24,-3.35 -0.31,-0.23 -0.56,-0.57 -0.67,-0.94 -0.29,-0.96 0.26,-1.97 1.22,-2.26 0.58,-0.17 1.17,-0.04 1.62,0.3 2.4,1.78 4.56,4.7 3.45,7.56 -0.28,0.72 -0.97,1.16 -1.69,1.16z"/>
 </g>
</svg>
