<?xml version="1.0" encoding="UTF-8"?>
<!DOCTYPE svg PUBLIC "-//W3C//DTD SVG 1.1//EN" "http://www.w3.org/Graphics/SVG/1.1/DTD/svg11.dtd">
<!-- Creator: CorelDRAW 2018 (64-Bit) -->
<svg xmlns="http://www.w3.org/2000/svg" xml:space="preserve" width="845px" height="845px" version="1.1" style="shape-rendering:geometricPrecision; text-rendering:geometricPrecision; image-rendering:optimizeQuality; fill-rule:evenodd; clip-rule:evenodd"
viewBox="0 0 391.26 391.26"
 xmlns:xlink="http://www.w3.org/1999/xlink">
 <defs>
  <style type="text/css">
   <![CDATA[
    .fil0 {fill:none}
    .fil2 {fill:black}
    .fil1 {fill:black;fill-rule:nonzero}
   ]]>
  </style>
 </defs>
 <g id="Слой_x0020_1">
  <metadata id="CorelCorpID_0Corel-Layer"/>
  <rect class="fil0" width="391.26" height="391.26"/>
 </g>
 <g id="_1">
  <metadata id="CorelCorpID_1Corel-Layer"/>
  <path class="fil1" d="M211.3 159.09c-0.06,0 -0.12,0 -0.19,0 -10.66,-0.6 -19.93,-3.67 -28.9,-6.64 -2.81,-0.93 -5.72,-1.89 -8.63,-2.76 -5.1,-1.53 -12.59,-2.6 -18.29,-1.03 -1.75,0.49 -3.55,-0.54 -4.04,-2.28 -0.48,-1.75 0.55,-3.56 2.29,-4.04 5.99,-1.66 14.18,-1.26 21.93,1.06 2.99,0.9 5.95,1.88 8.8,2.82 8.96,2.97 17.42,5.77 27.21,6.32 1.81,0.1 3.2,1.65 3.09,3.46 -0.1,1.74 -1.54,3.09 -3.27,3.09z"/>
  <path class="fil1" d="M133.96 159.35c-0.74,0 -1.48,-0.25 -2.09,-0.76 -7.28,-6.06 -19.42,-10.33 -28.55,-6.78 -0.83,0.33 -1.4,0.48 -2.04,0.65 -0.72,0.19 -1.46,0.39 -3.08,1.06 -1.68,0.69 -3.59,-0.11 -4.28,-1.78 -0.7,-1.67 0.1,-3.59 1.77,-4.28 2.02,-0.84 3.06,-1.12 3.9,-1.34 0.42,-0.11 0.8,-0.21 1.35,-0.42 12.04,-4.69 26.64,0.78 35.12,7.85 1.4,1.16 1.59,3.22 0.43,4.62 -0.65,0.78 -1.59,1.18 -2.53,1.18z"/>
  <path class="fil1" d="M126.87 168.65c-0.25,0 -0.5,-0.03 -0.76,-0.09 -1.57,-0.37 -3.02,-1.29 -4.71,-2.36 -2.27,-1.43 -4.84,-3.06 -7.51,-3.09 -4.47,-0.03 -10.22,2.31 -11.58,3.89 -1.19,1.37 -3.26,1.52 -4.63,0.34 -1.38,-1.19 -1.53,-3.26 -0.34,-4.63 2.91,-3.37 10.62,-6.21 16.64,-6.16 4.53,0.06 8.23,2.4 10.93,4.1 0.98,0.63 2.21,1.4 2.71,1.52 1.76,0.42 2.86,2.18 2.44,3.95 -0.36,1.51 -1.7,2.53 -3.19,2.53z"/>
  <path class="fil1" d="M202.1 168.76c-6.88,0 -11.17,-1.51 -16.04,-3.24 -2.35,-0.83 -4.78,-1.69 -7.87,-2.54 -3.99,-1.11 -11.47,-2.96 -16.67,-2.96 -1.82,0 -3.28,-1.47 -3.28,-3.28 0,-1.81 1.46,-3.28 3.28,-3.28 5.97,0 14.1,2 18.42,3.19 3.31,0.91 5.97,1.86 8.31,2.69 5.42,1.91 9.01,3.18 16.26,2.79 1.84,-0.1 3.35,1.29 3.45,3.1 0.1,1.81 -1.29,3.36 -3.1,3.45 -0.97,0.06 -1.89,0.08 -2.76,0.08z"/>
  <path class="fil1" d="M120.11 220.4c-4.81,0 -7.47,-3.54 -9.52,-6.26 -0.46,-0.62 -0.93,-1.25 -1.44,-1.85l-1 -1.18c-3.52,-4.11 -5.5,-6.98 -1.92,-13.83 0.74,-1.42 1.69,-2.86 2.82,-4.28 1.85,-2.32 3.23,-3.97 4.36,-5.33 2.22,-2.66 3.33,-3.99 5.22,-7 5.11,-8.11 7.42,-13.8 10.6,-21.67 0.53,-1.32 1.1,-2.71 1.7,-4.18 0.69,-1.68 2.61,-2.47 4.28,-1.79 1.68,0.69 2.48,2.61 1.79,4.28 -0.6,1.46 -1.15,2.84 -1.69,4.15 -3.31,8.19 -5.7,14.1 -11.12,22.71 -2.13,3.38 -3.49,5.01 -5.74,7.71 -1.11,1.32 -2.46,2.94 -4.27,5.21 -0.86,1.09 -1.58,2.17 -2.13,3.22 -1.71,3.27 -1.71,3.27 1.08,6.53l1.06 1.24c0.57,0.69 1.12,1.4 1.65,2.11 2.6,3.46 3.39,4.13 5.91,3.35 1.14,-0.35 1.56,-0.88 2.31,-1.83 1.89,-2.43 4.1,-4.53 10.19,-3.81 0.92,0.11 1.99,0.43 3.35,0.84 1.79,0.53 5.98,1.79 7.2,1.15 0.55,-0.28 1.25,-0.98 1.48,-1.38 -0.04,-1.65 1.17,-3.1 2.85,-3.32 1.8,-0.24 3.44,1.03 3.68,2.82 0.46,3.5 -2.82,6.59 -4.99,7.71 -3.58,1.86 -8.51,0.38 -12.11,-0.7 -0.84,-0.25 -1.88,-0.56 -2.24,-0.6 -2.92,-0.35 -3.26,0.07 -4.25,1.33 -0.96,1.23 -2.42,3.1 -5.52,4.06 -1.32,0.41 -2.51,0.59 -3.59,0.59z"/>
  <path class="fil1" d="M112.66 243.86c-1.54,0 -2.91,-1.09 -3.22,-2.66 -0.34,-1.77 0.82,-3.49 2.6,-3.84 2.79,-0.54 4.36,-1.54 5.75,-2.41 3.17,-2.01 6.01,-3.21 11.27,0.89 2.11,1.63 2.34,1.51 4.15,0.57 2.43,-1.26 6.11,-3.16 13.08,-0.78 4.7,1.6 6.4,1.02 8.98,0.14 2.25,-0.77 5.06,-1.74 9.73,-1.35 1.8,0.15 3.15,1.74 3,3.54 -0.15,1.81 -1.74,3.15 -3.55,3 -3.3,-0.27 -5.04,0.33 -7.06,1.02 -2.99,1.03 -6.39,2.19 -13.22,-0.14 -4.33,-1.47 -6,-0.61 -7.94,0.4 -3.04,1.58 -6.19,2.67 -11.2,-1.22 -1.68,-1.31 -2.26,-1.35 -2.26,-1.35 -0.22,0.04 -0.94,0.49 -1.47,0.83 -1.6,1 -4.01,2.53 -8.01,3.3 -0.21,0.04 -0.42,0.06 -0.63,0.06z"/>
  <path class="fil1" d="M129.12 256c-2.49,0 -4.99,-0.25 -7.24,-0.47 -0.65,-0.07 -1.29,-0.13 -1.9,-0.19 -1.8,-0.15 -3.14,-1.75 -2.98,-3.55 0.16,-1.81 1.77,-3.14 3.56,-2.98 0.63,0.05 1.29,0.12 1.98,0.19 4.2,0.42 9.42,0.94 12.54,-0.56 1.63,-0.79 3.59,-0.1 4.38,1.54 0.78,1.63 0.09,3.59 -1.54,4.38 -2.64,1.26 -5.72,1.64 -8.8,1.64z"/>
  <path class="fil1" d="M110.64 234.56c-1.81,0 -3.28,-1.46 -3.28,-3.28 0,-4.31 3.18,-11.87 4.81,-14.78 0.88,-1.59 2.88,-2.15 4.46,-1.27 1.59,0.89 2.15,2.89 1.27,4.47 -1.57,2.81 -3.98,9.12 -3.98,11.58 0,1.82 -1.47,3.28 -3.28,3.28z"/>
  <path class="fil1" d="M142.42 295.69c-1.95,0 -4.29,-0.15 -6.74,-0.31 -2.88,-0.18 -5.86,-0.38 -8.13,-0.31 -11.46,0.33 -20.34,-9.57 -24.46,-27.2 -0.23,-1.01 -0.58,-2.41 -1.01,-4.11 -1.77,-7.04 -4.73,-18.82 -6.35,-30.02 -0.57,-3.92 -0.8,-8.25 -1.04,-12.82 -0.08,-1.5 -0.16,-3.01 -0.26,-4.51 -0.24,-4.02 -0.84,-7.7 -1.43,-11.25 -0.86,-5.27 -1.74,-10.71 -1.46,-17.15 0.21,-4.7 0.74,-9.05 1.41,-11.63 0.9,-3.44 0.74,-8.52 0.67,-10.43 0,-0.18 -0.01,-0.34 -0.01,-0.49 -3.55,-11.55 -2.5,-14.87 -0.01,-22.75 0.68,-2.15 1.44,-4.58 2.29,-7.7 1.3,-4.83 5.08,-10.9 8.05,-15.2 0.87,-2.47 3.93,-8.34 11.55,-22.26 1.12,-2.04 2.18,-3.97 2.48,-4.56 3.18,-9.83 12.6,-16.19 18.86,-20.4 2.29,-1.55 4.65,-3.14 5.34,-4.05 1.1,-1.44 3.16,-1.71 4.6,-0.62 1.44,1.1 1.72,3.16 0.62,4.6 -1.34,1.77 -3.79,3.42 -6.89,5.51 -5.88,3.96 -13.92,9.38 -16.34,17.14 -0.14,0.46 -0.15,0.48 -2.91,5.53 -2.87,5.25 -10.51,19.2 -11.14,21.31 -0.09,0.56 -0.38,0.97 -0.69,1.41 -3.75,5.4 -6.37,10.25 -7.2,13.3 -0.87,3.26 -1.7,5.87 -2.36,7.96 -2.33,7.36 -2.95,9.33 0.16,19.31 0.13,0.39 0.17,0.79 0.15,1.19 0,0.13 0.01,0.32 0.01,0.56 0.08,2.38 0.26,7.94 -0.88,12.3 -0.55,2.13 -1.02,6.06 -1.2,10.27 -0.26,5.75 0.54,10.63 1.38,15.79 0.61,3.71 1.23,7.55 1.51,11.9 0.09,1.52 0.17,3.05 0.25,4.57 0.24,4.42 0.46,8.6 0.98,12.23 1.58,10.87 4.48,22.44 6.22,29.36 0.44,1.75 0.8,3.18 1.05,4.22 1.57,6.77 6.47,22.46 17.86,22.13 2.58,-0.08 5.72,0.13 8.75,0.32 2.93,0.19 5.68,0.37 7.49,0.27 6.75,-0.37 11.27,-1.47 17.52,-3 2.9,-0.71 6.19,-1.51 10.24,-2.37 24,-5.12 61.91,-26.78 69.14,-50.42 0.53,-1.74 2.37,-2.72 4.1,-2.18 1.73,0.53 2.71,2.36 2.18,4.09 -8.24,26.96 -49.02,49.59 -74.05,54.93 -3.95,0.84 -7.2,1.63 -10.06,2.33 -6.34,1.54 -11.35,2.77 -18.71,3.17 -0.48,0.03 -0.99,0.04 -1.53,0.04z"/>
  <path class="fil1" d="M94.79 195.34c-1.41,0 -2.72,-0.92 -3.15,-2.34 -1.06,-3.57 -3.12,-5.48 -5.5,-7.43 -3.69,-3.02 -5.99,-5.9 -7.7,-9.63 -5.99,-13.1 -5.55,-14.9 -0.29,-25.03 0.51,-0.99 1.08,-2.08 1.7,-3.3 1.53,-3.02 2.97,-6.42 3.18,-10.82 0.06,-1.28 0.98,-5.04 1.53,-7.16 0.94,-3.72 2.12,-6.46 3.06,-8.66 0.88,-2.06 1.52,-3.56 1.65,-4.99 0.14,-1.65 -0.09,-3.49 -0.33,-5.43 -0.39,-3.07 -0.82,-6.54 0.04,-10.39 0.89,-3.95 2.5,-6.54 4.21,-9.27 1.39,-2.23 2.83,-4.54 4.29,-8.12 1.59,-3.88 6.36,-6.32 10.56,-8.48 1.35,-0.69 2.62,-1.34 3.55,-1.93 0.98,-0.61 1.4,-1.41 2.06,-2.75 2.44,-4.95 5.67,-7.2 15.76,-4.94 2.06,0.46 3.66,0.39 5.18,-0.23 1.68,-0.67 3.6,0.14 4.27,1.82 0.68,1.68 -0.14,3.6 -1.82,4.27 -2.79,1.13 -5.68,1.3 -9.06,0.54 -6.97,-1.55 -7.46,-0.55 -8.44,1.44 -0.78,1.59 -1.85,3.77 -4.46,5.41 -1.18,0.74 -2.57,1.45 -4.04,2.21 -2.71,1.39 -6.81,3.49 -7.48,5.13 -1.68,4.09 -3.41,6.87 -4.8,9.1 -1.59,2.54 -2.73,4.38 -3.38,7.24 -0.61,2.73 -0.28,5.35 0.07,8.13 0.28,2.2 0.56,4.47 0.35,6.82 -0.22,2.48 -1.11,4.58 -2.15,7 -0.9,2.1 -1.91,4.48 -2.74,7.71 -0.92,3.59 -1.29,5.52 -1.33,5.89 -0.27,5.6 -2.11,9.93 -3.88,13.43 -0.63,1.23 -1.2,2.35 -1.73,3.35 -4.45,8.59 -4.45,8.59 0.44,19.28 1.08,2.36 2.49,4.5 5.89,7.28 2.85,2.35 6.04,5.29 7.63,10.63 0.52,1.73 -0.46,3.56 -2.2,4.08 -0.32,0.1 -0.63,0.14 -0.94,0.14z"/>
  <path class="fil1" d="M127.54 69.08c-1.09,0 -2.16,-0.55 -2.79,-1.54 -1.82,-2.93 -1.6,-5.45 -1.1,-7.05 1.65,-5.22 8.36,-8.07 13.76,-10.36 1.54,-0.66 3.65,-1.55 4.15,-1.97 1.22,-1.34 3.26,-1.39 4.59,-0.16 1.34,1.22 1.39,3.33 0.17,4.67 -1.14,1.25 -3.06,2.1 -6.35,3.5 -3.26,1.38 -9.33,3.96 -10.06,6.29 -0.05,0.17 -0.2,0.63 0.41,1.6 0.96,1.54 0.49,3.56 -1.05,4.52 -0.54,0.34 -1.14,0.5 -1.73,0.5z"/>
  <g>
   <path class="fil1" d="M240.41 45.5l0 0 0 0zm-83.8 14.96c-8.2,0 -16.37,-6.1 -17.15,-12.81 -0.23,-1.95 -0.18,-8.52 9.98,-10.91 1.76,-0.41 3.52,0.68 3.94,2.45 0.42,1.76 -0.68,3.53 -2.44,3.94 -1.96,0.46 -5.22,1.56 -4.96,3.77 0.32,2.75 5.03,7 10.63,7 6.23,0 14.83,-1.87 23.14,-3.68 5.43,-1.18 10.55,-2.29 15.14,-2.94 3.4,-0.48 10.37,-0.51 18.45,-0.54 9.18,-0.04 24.49,-0.11 27.21,-1.35 1.4,-1.01 3.37,-0.77 4.47,0.59 1.15,1.4 0.94,3.47 -0.47,4.61 -2.72,2.22 -10.17,2.62 -31.18,2.71 -7.51,0.03 -14.61,0.06 -17.57,0.48 -4.34,0.61 -9.35,1.7 -14.65,2.85 -8.65,1.88 -17.6,3.83 -24.54,3.83z"/>
  </g>
  <path class="fil1" d="M163.57 49.85c-4.38,0 -8.38,-0.91 -11.36,-3.51 -3.07,-2.69 -3.31,-6.95 -0.59,-10.37 3.78,-4.76 12.07,-6.52 19.42,-1.23 1.47,1.06 1.8,3.11 0.74,4.58 -1.06,1.47 -3.11,1.8 -4.58,0.74 -4.59,-3.3 -8.87,-1.99 -10.45,-0.01 -0.72,0.91 -0.41,1.19 -0.22,1.35 4.25,3.71 15,1.14 22.85,-0.74 2.48,-0.59 4.82,-1.15 6.8,-1.48 2,-0.34 3.86,-0.7 5.7,-1.07 3.39,-0.66 6.89,-1.36 11.11,-1.82 11.06,-1.21 32.7,-1.1 43.69,4.34 0.72,0.35 1.21,0.81 1.57,1.14 0.09,0.09 0.18,0.19 0.31,0.27 0.01,0 0.09,0.02 0.34,0.02 1.81,0 3.28,1.47 3.28,3.29 0,1.81 -1.47,3.28 -3.28,3.28 -2.9,0 -4.34,-1.33 -5.11,-2.04 -0.05,-0.05 -0.1,-0.1 -0.15,-0.14 -9.17,-4.45 -29.21,-4.8 -39.94,-3.63 -3.93,0.43 -7.15,1.06 -10.55,1.73 -1.9,0.38 -3.82,0.76 -5.88,1.1 -1.76,0.3 -4,0.83 -6.36,1.4 -5.49,1.31 -11.72,2.8 -17.34,2.8z"/>
  <path class="fil1" d="M181.46 43.89c-0.07,0 -0.14,0 -0.21,0 -8.88,-0.56 -11.56,-4.46 -12.36,-6.73 -1.08,-3.03 -0.06,-6.37 2.72,-8.94 4.51,-4.15 14.51,-6.88 27.85,-0.9 1.66,0.75 2.7,1.58 3.46,2.18 1.06,0.85 1.55,1.24 4.4,1.24 1.81,0 3.28,1.47 3.28,3.28 0,1.81 -1.47,3.28 -3.28,3.28 -4.77,0 -6.61,-1.16 -8.5,-2.67 -0.64,-0.51 -1.15,-0.92 -2.05,-1.32 -9.7,-4.35 -17.54,-3.19 -20.71,-0.27 -0.76,0.71 -1.15,1.47 -0.99,1.93 0.25,0.69 1.94,2.07 6.59,2.37 1.81,0.11 3.19,1.67 3.07,3.48 -0.11,1.74 -1.55,3.07 -3.27,3.07z"/>
  <path class="fil1" d="M233.22 73.99c-4.43,0 -9.74,-0.22 -14.16,-0.64 -7.75,-0.75 -11.84,-2 -15.13,-3 -4.98,-1.52 -7.99,-2.44 -21.61,-0.24 -14.08,2.27 -23.38,3.37 -36.49,-2.35 -5.51,-2.4 -9.11,-7.84 -8.36,-12.64 0.49,-3.2 2.9,-5.41 6.29,-5.77 1.81,-0.19 3.42,1.12 3.6,2.92 0.19,1.8 -1.11,3.42 -2.92,3.61 -0.35,0.03 -0.47,0.12 -0.47,0.12 -0.02,0.05 -0.13,0.51 0.15,1.35 0.46,1.41 1.84,3.31 4.33,4.4 11.46,4.99 19.54,4.02 32.82,1.88 14.42,-2.33 18.54,-1.4 24.58,0.44 3.16,0.97 6.75,2.06 13.84,2.74 7.47,0.72 17.33,0.78 20.16,0.33 4.72,-0.76 8.37,-1.72 11.91,-2.65 7.15,-1.89 13.33,-3.52 24.18,-2.15 3.05,0.39 4.83,1.21 6.13,1.8 0.76,0.35 1.18,0.54 1.66,0.61 1.79,0.29 3.01,1.97 2.72,3.76 -0.28,1.79 -1.96,3.01 -3.75,2.73 -1.39,-0.22 -2.44,-0.71 -3.37,-1.13 -1.11,-0.51 -2.17,-1 -4.22,-1.25 -9.58,-1.22 -14.92,0.19 -21.68,1.97 -3.52,0.93 -7.5,1.97 -12.54,2.79 -1.59,0.25 -4.39,0.37 -7.67,0.37z"/>
  <path class="fil1" d="M300.12 119.59c-1.67,0 -3.29,-0.3 -4.81,-0.92 -5.16,-2.1 -8.11,-7.26 -8.11,-14.15 0,-3.2 1.31,-6.04 3.59,-7.81 2.27,-1.75 5.21,-2.27 8.29,-1.46 1.76,0.45 2.81,2.24 2.35,4 -0.46,1.75 -2.25,2.8 -4,2.35 -0.76,-0.2 -1.83,-0.31 -2.62,0.31 -0.67,0.51 -1.05,1.46 -1.05,2.61 0,4.15 1.43,7.01 4.03,8.08 3.01,1.23 7.06,-0.12 10.31,-3.43 1.83,-1.87 2.76,-3.96 2.76,-6.23 0,-9.13 -0.64,-11.38 -8.05,-16.6 -3.98,-2.81 -14.85,-4.08 -20.62,-3.11 -5.71,0.96 -10.8,2 -17.15,3.36 -14.42,3.08 -27,4.49 -41.44,1.37l-1.16 -0.15c-1.8,-0.23 -3.06,-1.88 -2.82,-3.68 0.23,-1.79 1.88,-3.07 3.68,-2.82l1.29 0.17c0.09,0.01 0.18,0.02 0.26,0.04 13.37,2.9 25.18,1.56 38.81,-1.35 6.45,-1.38 11.61,-2.43 17.44,-3.41 6.58,-1.11 19.46,-0.04 25.5,4.22 9.4,6.63 10.83,10.86 10.83,21.96 0,3.99 -1.61,7.73 -4.64,10.82 -3.71,3.78 -8.33,5.83 -12.67,5.83z"/>
  <path class="fil1" d="M301.6 85.33c-1.07,0 -2.12,-0.52 -2.75,-1.49 -1.03,-1.58 -2.15,-3.5 -3.33,-5.54 -4.09,-7.03 -9.68,-16.67 -17.52,-22.12 -6.21,-4.33 -13.05,-5.02 -18.55,-5.57 -1,-0.1 -1.95,-0.19 -2.84,-0.3 -1.8,-0.23 -3.08,-1.86 -2.85,-3.66 0.22,-1.8 1.86,-3.09 3.65,-2.86 0.85,0.11 1.75,0.2 2.7,0.29 5.92,0.6 14.04,1.41 21.65,6.71 9.02,6.29 15.04,16.65 19.43,24.22 1.19,2.04 2.22,3.81 3.16,5.25 0.99,1.52 0.55,3.55 -0.96,4.54 -0.56,0.36 -1.18,0.53 -1.79,0.53z"/>
  <path class="fil1" d="M232.89 62.68c-2.95,0 -5.73,-0.3 -7.77,-1.1 -1.13,-0.44 -1.69,-1.7 -1.25,-2.83 0.44,-1.12 1.7,-1.68 2.83,-1.25 4.03,1.57 13.49,0.58 18.77,-0.74 4.29,-1.07 9.37,-1.96 14.29,-2.83 2.7,-0.47 5.35,-0.94 7.79,-1.42 2.54,-0.5 7.01,-0.01 9.6,0.46 0.72,-0.28 1.56,-0.19 2.18,0.32 0.93,0.75 1.12,2.06 0.39,3 -0.77,0.98 -1.69,1.32 -2.91,1.07 -2.62,-0.53 -6.72,-0.89 -8.41,-0.56 -2.47,0.49 -5.15,0.96 -7.89,1.44 -4.84,0.85 -9.84,1.73 -13.99,2.76 -3.36,0.84 -8.74,1.68 -13.63,1.68z"/>
  <path class="fil1" d="M266.34 120.6c-1.34,0 -2.73,-0.07 -4.17,-0.2 -19.72,-1.84 -24.97,-7.93 -36.5,-21.27l-0.21 -0.25c-1.24,-1.43 -2.22,-2.62 -3.06,-3.63 -3.14,-3.79 -4.08,-4.93 -9.99,-8.57l-0.35 -0.22c-6.21,-3.83 -6.21,-3.83 -11.48,-5.5l-2.21 -0.71c-1.73,-0.56 -2.68,-2.41 -2.12,-4.13 0.55,-1.73 2.41,-2.68 4.13,-2.12l2.19 0.7c5.93,1.89 6.17,2 12.93,6.17l0.35 0.22c6.83,4.21 8.23,5.9 11.6,9.97 0.82,0.99 1.77,2.14 2.97,3.53l0.22 0.25c11.26,13.04 15.05,17.43 32.14,19.02 7.72,0.71 13.27,-0.8 16.52,-4.52 1.09,-1.25 1.57,-2.27 1.66,-2.82 0.29,-1.79 1.98,-2.99 3.77,-2.7 1.79,0.29 3,1.98 2.7,3.77 -0.4,2.46 -1.95,4.65 -3.18,6.06 -4.03,4.62 -10.05,6.95 -17.91,6.95z"/>
  <path class="fil1" d="M277.36 155.88c-3.79,0 -8.14,-1.45 -12.6,-5.04 -1.41,-1.14 -1.64,-3.2 -0.5,-4.61 1.13,-1.41 3.2,-1.64 4.61,-0.5 6.86,5.51 11.65,3.56 13.41,1.54 1.26,-1.46 1.44,-3.66 0.49,-5.89 -3.02,-7.07 -14.58,-9.89 -20.13,-11.25 -3.43,-0.84 -5.86,-0.86 -8.43,-0.88 -4.16,-0.03 -8.46,-0.07 -15.98,-3.51 -1.64,-0.75 -2.37,-2.7 -1.61,-4.35 0.75,-1.64 2.7,-2.37 4.35,-1.61 6.23,2.85 9.51,2.88 13.3,2.91 2.7,0.02 5.76,0.05 9.93,1.07 6.58,1.61 20.29,4.95 24.6,15.03 1.97,4.6 1.39,9.37 -1.56,12.77 -2.24,2.58 -5.72,4.32 -9.88,4.32z"/>
  <path class="fil1" d="M308.9 149.71c-1.81,0 -3.28,-1.47 -3.28,-3.29 0,-1.81 1.47,-3.28 3.28,-3.28 1.18,0 2.28,-0.6 3.25,-1.78 1.99,-2.4 2.95,-6.6 2.3,-9.97 -1.37,-7.06 -7.1,-12.61 -12.27,-11.85 -1.79,0.27 -3.46,-0.98 -3.72,-2.78 -0.26,-1.79 0.99,-3.45 2.78,-3.71 8.76,-1.26 17.58,6.4 19.65,17.09 1.02,5.3 -0.45,11.49 -3.67,15.4 -2.22,2.68 -5.18,4.17 -8.32,4.17z"/>
  <path class="fil1" d="M297.15 195.92c-1.4,0 -2.74,-0.08 -4.01,-0.23 -6.92,-0.82 -12.1,-4.26 -14.6,-9.69 -0.76,-1.65 -0.04,-3.6 1.61,-4.36 1.65,-0.75 3.59,-0.03 4.35,1.61 1.55,3.38 4.72,5.37 9.41,5.93 6.8,0.8 16.38,-0.74 20.98,-7.75 1.81,-2.76 2.73,-6.23 2.73,-10.31 0,-11.19 -7.95,-16.17 -25.79,-16.17 -1.81,0 -3.28,-1.47 -3.28,-3.29 0,-1.81 1.47,-3.28 3.28,-3.28 21.47,0 32.36,7.65 32.36,22.74 0,5.38 -1.29,10.06 -3.82,13.91 -5.32,8.12 -15.09,10.89 -23.22,10.89z"/>
  <path class="fil1" d="M253.28 218.5c-1.44,0 -2.86,-0.19 -4.27,-0.58 -5.31,-1.47 -9.6,-5.54 -12.1,-11.47 -2.67,-6.36 -2.56,-13.52 -2.46,-20.45 0.06,-3.72 0.12,-7.57 -0.28,-11.09 -1.41,-12.51 -4.94,-18.71 -7.63,-19.17 -1.79,-0.3 -2.99,-2 -2.68,-3.78 0.3,-1.79 1.99,-2.99 3.79,-2.68 9.08,1.55 12.07,16.26 13.04,24.89 0.45,3.95 0.38,8 0.33,11.92 -0.1,6.55 -0.19,12.73 1.94,17.82 1.7,4.03 4.47,6.76 7.81,7.68 3.08,0.86 6.49,0.07 9.6,-2.22 2.23,-1.63 3.42,-2.56 4.14,-4.41 0.67,-1.68 2.58,-2.51 4.26,-1.85 1.69,0.67 2.51,2.57 1.85,4.26 -1.46,3.7 -3.95,5.52 -6.37,7.29 -3.45,2.53 -7.23,3.84 -10.97,3.84zm24.54 7.27c-1.8,0 -3.26,-1.44 -3.28,-3.24 -0.03,-1.81 1.42,-3.3 3.24,-3.32 13.64,-0.17 35.28,-6.81 35.28,-23.94 0,-1.81 1.47,-3.28 3.28,-3.28 1.81,0 3.28,1.47 3.28,3.28 0,21.85 -25.62,30.3 -41.76,30.5l-0.04 0z"/>
  <path class="fil1" d="M263.1 195.6c-1.14,0 -2.31,-0.11 -3.44,-0.41 -7.94,-2.15 -11.96,-10.68 -11.32,-24.02 0.04,-0.96 0.11,-2 0.18,-3.11 0.38,-6.06 0.95,-15.2 -1.54,-19.28 -1.93,-3.16 -3.67,-3.7 -6.31,-4.52 -1.44,-0.44 -3.07,-0.95 -4.76,-1.93 -1.56,-0.92 -2.09,-2.93 -1.17,-4.49 0.92,-1.57 2.93,-2.09 4.49,-1.18 1.03,0.61 2.12,0.94 3.37,1.33 3.02,0.93 6.76,2.09 9.99,7.37 3.56,5.84 2.93,15.82 2.48,23.11 -0.07,1.07 -0.13,2.09 -0.18,3.01 -0.22,4.64 -0.03,15.61 6.48,17.37 1.45,0.39 3.53,0.1 5.36,-0.16 0.61,-0.08 1.2,-0.16 1.76,-0.23 1.81,-0.18 3.42,1.11 3.61,2.91 0.2,1.8 -1.1,3.42 -2.9,3.62 -0.49,0.05 -1.02,0.13 -1.56,0.2 -1.37,0.19 -2.93,0.41 -4.54,0.41z"/>
  <path class="fil1" d="M161.63 310.12c-5.14,0 -29.09,-2.74 -34.43,-7.07 -2.27,-1.84 -2.79,-2.28 -4.95,-4.3 -1.32,-1.23 -1.4,-3.31 -0.16,-4.63 1.23,-1.33 3.31,-1.4 4.64,-0.17 2.03,1.9 2.43,2.23 4.6,4 2.82,2.29 23.34,5.6 30.3,5.6 26.3,0 48.64,-12.54 68.87,-26.09 11.59,-7.77 31.61,-30.13 28.26,-41.9 -0.5,-1.75 0.51,-3.56 2.25,-4.06 1.74,-0.49 3.56,0.52 4.06,2.26 4.77,16.78 -20.18,41.96 -30.92,49.15 -21.08,14.13 -44.46,27.21 -72.52,27.21z"/>
  <path class="fil1" d="M258.51 233.01c-3.93,0 -7.67,-0.97 -10.44,-2.87 -7.82,-5.36 -5.24,-10.34 -3.69,-13.32 0.27,-0.53 0.56,-1.08 0.8,-1.66 0.69,-1.68 2.6,-2.48 4.28,-1.79 1.68,0.68 2.48,2.6 1.79,4.27 -0.31,0.77 -0.68,1.5 -1.05,2.2 -1.34,2.6 -1.45,2.81 1.58,4.89 2.91,1.99 8.22,2.29 12.61,0.7 2.27,-0.82 6.26,-2.87 7.54,-7.42 0.02,-0.06 1.36,-4.34 2.25,-5.32 1.21,-1.35 3.28,-1.46 4.63,-0.25 1.14,1.03 1.4,2.68 0.7,3.98 -0.25,0.6 -1.15,3.02 -1.28,3.43 -1.52,5.4 -5.65,9.6 -11.61,11.75 -2.62,0.95 -5.41,1.41 -8.11,1.41z"/>
  <path class="fil1" d="M122.12 334.28l-0.03 0c-1.69,-0.01 -3.08,-1.31 -3.23,-2.96l-0.1 -0.6c-0.4,-2.5 -0.76,-5.06 -0.76,-6.77 0,-3.27 0.88,-8.15 1.81,-13.33 0.83,-4.55 2.07,-11.44 1.64,-13.05 -0.74,-1.66 0.03,-3.54 1.69,-4.27 1.65,-0.74 3.61,0.07 4.35,1.73 1.22,2.76 0.38,7.9 -1.22,16.76 -0.84,4.66 -1.71,9.48 -1.71,12.16 0,1.43 0.5,4.56 0.68,5.74 0.13,0.76 0.16,1.26 0.16,1.34 -0.02,1.8 -1.48,3.25 -3.28,3.25z"/>
  <path class="fil1" d="M150.27 327.01c-9.78,0 -18.35,-2.03 -25.55,-11.81 -1.07,-1.46 -0.76,-3.51 0.69,-4.59 1.47,-1.07 3.52,-0.76 4.59,0.7 7.54,10.23 16.53,9.61 30.15,8.68 14.22,-0.98 40.71,-6.18 51.86,-13.08 1.54,-0.95 3.56,-0.47 4.52,1.07 0.95,1.54 0.47,3.56 -1.07,4.52 -13.21,8.16 -42.14,13.16 -54.69,14.02 -3.64,0.25 -7.14,0.49 -10.5,0.49z"/>
  <path class="fil1" d="M175.16 347.31c-1.63,0 -3.04,-1.21 -3.25,-2.86 -0.23,-1.8 1.04,-3.44 2.84,-3.67 22.4,-2.86 44.59,-17.11 59.34,-38.12 8.88,-12.66 17.11,-26.05 19.1,-30.07 5.72,-11.57 8.82,-20.4 8.82,-33.88 0,-1.81 1.47,-3.28 3.28,-3.28 1.81,0 3.28,1.47 3.28,3.28 0,14.7 -3.48,24.62 -9.5,36.79 -2.35,4.76 -11.24,19 -19.61,30.93 -15.79,22.5 -39.67,37.77 -63.88,40.86 -0.15,0.02 -0.29,0.02 -0.42,0.02z"/>
  <path class="fil1" d="M84.09 325.83c-1.81,0 -3.28,-1.47 -3.28,-3.28 0,-12.19 11.29,-47.81 28.74,-48.45 1.87,-0.08 3.34,1.35 3.4,3.17 0.07,1.81 -1.35,3.33 -3.16,3.39 -11.52,0.42 -22.42,30.7 -22.42,41.89 0,1.81 -1.47,3.28 -3.28,3.28z"/>
  <path class="fil1" d="M273.64 225.11c0,0 0.01,0 0.01,0 0,0 -0.01,0 -0.01,0zm26.64 115.6c-1.81,0 -3.28,-1.47 -3.28,-3.28 0,-9.48 -17.95,-105.63 -23.49,-112.43 -1.33,-1.11 -1.57,-3.08 -0.51,-4.48 1.08,-1.45 3.14,-1.74 4.59,-0.65 1.61,1.21 5.39,4.04 16.07,58.34 5.09,25.87 9.9,54.65 9.9,59.22 0,1.81 -1.47,3.28 -3.28,3.28z"/>
  <path class="fil1" d="M106.45 374.2c-2.81,0 -4.08,-0.79 -4.73,-1.19 -1.54,-0.95 -2.02,-2.97 -1.07,-4.52 0.95,-1.54 2.97,-2.02 4.51,-1.07 0.76,0.47 5.09,0.64 15.84,-4.13 4.03,-1.8 7.05,-3.37 7.83,-3.93 8.93,-6.45 15.4,-3.36 18.51,-1.87 0.39,0.19 0.91,0.43 1.15,0.51 8.73,0.48 11.23,-2.35 14.14,-5.61 1.56,-1.76 3.34,-3.76 6.05,-4.96 2.13,-0.95 3.77,-4.23 3.56,-6.15 -0.07,-0.65 -0.25,-0.71 -0.68,-0.79 -3.89,-0.8 -12.74,1.46 -19.85,3.28 -4.89,1.25 -9.51,2.44 -12.97,2.83 -5.26,0.6 -9.14,-1.97 -11.96,-3.84 -1.35,-0.89 -2.63,-1.74 -3.55,-1.92 -8.7,-1.68 -16.63,5.04 -19.27,12.49 -0.95,2.7 -1.61,5.8 -1.81,8.5 -0.13,1.81 -1.71,3.16 -3.51,3.04 -1.81,-0.13 -3.17,-1.7 -3.03,-3.51 0.23,-3.31 1,-6.94 2.16,-10.21 4.13,-11.68 15.61,-18.88 26.7,-16.75 2.21,0.43 4.1,1.68 5.93,2.89 2.42,1.61 4.71,3.12 7.6,2.79 3,-0.34 7.41,-1.47 12.08,-2.67 8.56,-2.19 17.41,-4.45 22.8,-3.35 3.31,0.67 5.51,3.11 5.88,6.51 0.54,4.94 -2.86,10.83 -7.41,12.85 -1.42,0.63 -2.48,1.82 -3.82,3.33 -3.18,3.58 -7.54,8.47 -19.55,7.8 -1.23,-0.07 -2.32,-0.59 -3.47,-1.14 -2.84,-1.36 -6.07,-2.9 -11.84,1.26 -1.6,1.16 -5.7,3.14 -9.01,4.61 -8.7,3.87 -13.98,4.92 -17.21,4.92z"/>
  <path class="fil1" d="M148.91 335.13l-5.04 0c-7.28,0 -9.97,-1.29 -13.25,-3.25 -1.1,-0.66 -2.14,-1.28 -3.68,-1.88 -1.69,-0.65 -2.53,-2.55 -1.88,-4.24 0.65,-1.69 2.55,-2.53 4.24,-1.88 2.07,0.8 3.46,1.63 4.69,2.37 2.33,1.39 3.87,2.32 9.88,2.32l5.04 0c1.81,0 3.28,1.46 3.28,3.28 0,1.81 -1.47,3.28 -3.28,3.28z"/>
  <path class="fil1" d="M298.97 194.79c-0.98,0 -1.86,-0.66 -2.12,-1.64 -0.3,-1.17 0.4,-2.37 1.57,-2.67 4.49,-1.15 7.88,-7.76 8.13,-12.98 0.09,-1.86 -0.66,-4.1 -2.04,-6.14 -3.23,-4.77 -10.94,-6.53 -17.16,-6.19 -5.51,0.32 -8.89,2.13 -9.7,3.68 -0.55,1.07 -1.88,1.48 -2.95,0.93 -1.07,-0.56 -1.49,-1.88 -0.93,-2.95 1.77,-3.39 6.75,-5.64 13.33,-6.02 6.9,-0.39 16.56,1.48 21.03,8.09 1.93,2.86 2.92,5.98 2.79,8.81 -0.32,6.85 -4.77,15.3 -11.4,17.01 -0.19,0.05 -0.37,0.07 -0.55,0.07z"/>
  <path class="fil1" d="M261.26 105.15c-12.3,0 -22.99,-6.53 -29.48,-10.49 -2.07,-1.26 -4.65,-2.83 -5.41,-2.92 -1.18,0.07 -2.2,-0.87 -2.26,-2.08 -0.06,-1.2 0.91,-2.23 2.11,-2.29 1.81,-0.09 4.11,1.28 7.83,3.56 8.53,5.2 22.79,13.9 38.1,7.73 1.13,-0.45 2.4,0.09 2.85,1.21 0.45,1.12 -0.09,2.4 -1.21,2.85 -4.29,1.72 -8.5,2.43 -12.53,2.43z"/>
  <path class="fil1" d="M234.1 227.77c-0.93,0 -1.85,-0.38 -2.5,-1.14 -8.31,-9.69 -7.34,-15.35 -5.49,-20.77 0.93,-2.71 1.39,-4.07 -0.38,-6.76 -1.01,-1.51 -0.59,-3.55 0.92,-4.55 1.51,-0.99 3.55,-0.58 4.55,0.93 3.55,5.38 2.21,9.33 1.12,12.5 -1.23,3.61 -2.3,6.73 4.26,14.37 1.18,1.38 1.03,3.45 -0.35,4.63 -0.62,0.53 -1.38,0.79 -2.13,0.79z"/>
  <path class="fil2" d="M113.04 159.78c3.05,0 5.53,2.48 5.53,5.53 0,3.05 -2.48,5.52 -5.53,5.52 -3.05,0 -5.52,-2.47 -5.52,-5.52 0,-3.05 2.47,-5.53 5.52,-5.53z"/>
  <path class="fil2" d="M176.92 158.18c3.65,0 6.6,2.95 6.6,6.59 0,3.65 -2.95,6.6 -6.6,6.6 -3.64,0 -6.59,-2.95 -6.59,-6.6 0,-3.64 2.95,-6.59 6.59,-6.59z"/>
  <path class="fil1" d="M301.19 208.33c-8.27,0 -16.17,-2.36 -22.08,-6.79 -2.55,-1.91 -3.78,-3.78 -4.92,-5.67 -0.62,-1.04 -0.28,-2.38 0.75,-3 1.04,-0.63 2.38,-0.29 3.01,0.75 1,1.67 1.86,2.97 3.79,4.42 7.45,5.59 18.64,7.39 29.19,4.7 0.35,-0.09 0.63,-0.15 1.07,-0.11 1.21,0 2.2,0.98 2.2,2.19 0,1.2 -0.97,2.18 -2.18,2.18 -0.04,0 -0.07,0 -0.1,0 -3.56,0.89 -7.18,1.33 -10.73,1.33z"/>
  <path class="fil1" d="M303.35 142.32c-0.04,0 -0.07,0 -0.11,-0.01 -1.2,-0.05 -2.14,-1.08 -2.08,-2.28 0.09,-1.87 -0.66,-4.11 -2.04,-6.15 -3.66,-5.42 -13.04,-7.06 -20,-5.86 -1.19,0.2 -2.32,-0.6 -2.53,-1.79 -0.21,-1.19 0.59,-2.32 1.79,-2.52 8.52,-1.47 19.62,0.71 24.37,7.71 1.92,2.85 2.91,5.98 2.78,8.81 -0.05,1.17 -1.02,2.09 -2.18,2.09z"/>
  <path class="fil1" d="M92.29 119.93c-0.69,0 -1.36,-0.32 -1.79,-0.93 -0.69,-0.99 -0.45,-2.35 0.54,-3.05 1.91,-1.33 5.47,-7.69 8.62,-13.3 4.06,-7.22 8.25,-14.69 11.87,-17.57 0.94,-0.76 2.32,-0.6 3.07,0.35 0.75,0.94 0.6,2.32 -0.35,3.07 -2.94,2.35 -7.1,9.76 -10.77,16.29 -3.87,6.89 -7.21,12.84 -9.93,14.75 -0.38,0.27 -0.82,0.39 -1.26,0.39z"/>
  <path class="fil1" d="M301.12 279.32c-1.48,0 -2.92,-0.38 -4.26,-1.16 -1.56,-0.91 -2.09,-2.92 -1.18,-4.49 0.91,-1.56 2.92,-2.09 4.49,-1.18 0.97,0.57 2.08,0.08 2.83,-0.42 2.33,-1.55 4.39,-5.41 3.82,-9.79 -0.21,-1.55 -1.07,-3.57 -2.36,-5.56 -3.51,-5.38 -6.83,-7.35 -10.68,-9.63 -5.84,-3.47 -12.47,-7.4 -19,-23.36 -0.69,-1.68 0.12,-3.59 1.79,-4.28 1.68,-0.68 3.6,0.12 4.28,1.8 5.7,13.92 10.84,16.97 16.28,20.2 3.98,2.35 8.49,5.03 12.83,11.69 1.86,2.86 3.03,5.73 3.36,8.29 0.97,7.41 -2.66,13.43 -6.68,16.11 -1.79,1.18 -3.68,1.78 -5.52,1.78z"/>
  <path class="fil1" d="M314.11 244.12c-0.89,0 -1.78,-0.36 -2.43,-1.07 -2.3,-2.51 -3.56,-3.79 -4.52,-4.57 -2.29,-1.86 -4.43,-2.89 -6.5,-3.9 -4.36,-2.11 -8.88,-4.3 -11.78,-13.09 -0.56,-1.72 0.37,-3.58 2.09,-4.15 1.72,-0.56 3.58,0.37 4.15,2.09 2.02,6.16 4.43,7.32 8.41,9.25 2.29,1.11 4.89,2.37 7.77,4.71 1.24,1.01 2.66,2.43 5.23,5.23 1.22,1.34 1.13,3.42 -0.21,4.64 -0.63,0.58 -1.42,0.86 -2.21,0.86z"/>
 </g>
</svg>
