<?xml version="1.0" encoding="UTF-8"?>
<!DOCTYPE svg PUBLIC "-//W3C//DTD SVG 1.1//EN" "http://www.w3.org/Graphics/SVG/1.1/DTD/svg11.dtd">
<!-- Creator: CorelDRAW 2018 (64-Bit) -->
<svg xmlns="http://www.w3.org/2000/svg" xml:space="preserve" width="845px" height="845px" version="1.1" style="shape-rendering:geometricPrecision; text-rendering:geometricPrecision; image-rendering:optimizeQuality; fill-rule:evenodd; clip-rule:evenodd"
viewBox="0 0 116.01 116.01"
 xmlns:xlink="http://www.w3.org/1999/xlink">
 <defs>
  <style type="text/css">
   <![CDATA[
    .fil0 {fill:none}
    .fil2 {fill:black}
    .fil1 {fill:black;fill-rule:nonzero}
   ]]>
  </style>
 </defs>
 <g id="Слой_x0020_1">
  <metadata id="CorelCorpID_0Corel-Layer"/>
  <rect class="fil0" width="116.01" height="116.01"/>
 </g>
 <g id="_1">
  <metadata id="CorelCorpID_1Corel-Layer"/>
  <path class="fil1" d="M60.8 26.75l0 0zm-0.63 0.53c0,0 0,0 -0.01,0 0.01,0 0.01,0 0.01,0zm0.99 11.47c0,0 0,0 0,0 0,0 0,0 0,0zm0.34 0.03c0.56,0.07 1.41,0.21 2.51,0.41 2.27,0.39 8.25,1.44 9.36,0.76 0.19,-1.64 -0.41,-5.3 -0.92,-6.95 -0.44,-1.42 -1.35,-2.41 -3.05,-3.3 -0.43,-0.23 -0.76,-0.43 -1.05,-0.61 -0.69,-0.42 -1.07,-0.66 -2.22,-0.84 -0.19,-0.03 -0.63,-0.13 -1.2,-0.25 -1.01,-0.22 -3.57,-0.76 -4.46,-0.8 -0.26,0.64 -0.62,2.41 -0.82,3.41l-0.07 0.35c-0.09,0.42 -0.2,0.81 -0.29,1.15 -0.32,1.11 -0.48,1.67 0.21,2.56 0.36,0.46 0.72,1.29 1.13,2.25 0.24,0.58 0.63,1.48 0.87,1.86zm10.16 3.31c-2.07,0 -4.89,-0.45 -7.99,-0.99 -1.18,-0.2 -2.19,-0.38 -2.61,-0.4l0 0c-0.95,-0.05 -1.4,-1.1 -2.22,-3.01 -0.3,-0.7 -0.67,-1.56 -0.87,-1.82 -1.3,-1.67 -0.91,-3.06 -0.56,-4.29 0.1,-0.33 0.19,-0.66 0.26,-1.01l0.07 -0.34c0.58,-2.86 0.88,-4.13 1.51,-4.63 0.52,-0.58 1.71,-0.44 6.09,0.5 0.52,0.11 0.92,0.2 1.1,0.23 1.53,0.24 2.18,0.64 2.93,1.1 0.28,0.17 0.56,0.35 0.94,0.55 2.17,1.14 3.4,2.51 4,4.44 0.59,1.93 1.27,5.97 0.97,7.93 -0.07,0.46 -0.32,0.85 -0.72,1.13 -0.6,0.44 -1.6,0.61 -2.9,0.61z"/>
  <path class="fil1" d="M46.34 26.17c0,0.01 0,0.02 0,0.02 0,0 0,-0.01 0,-0.02zm-14.74 10.99c1.16,0.05 3.66,-0.03 4.07,-0.1 1.42,-0.34 2.52,-0.32 3.78,-0.31 0.26,0 0.53,0.01 0.81,0.01 1.41,0 2.11,-0.09 3,-0.2 0.5,-0.06 1.06,-0.13 1.82,-0.19 0.25,-0.02 1.07,-0.46 1.04,-5.29l0 -0.32c0,-1.19 -0.71,-2.37 -1.19,-3.15 -0.23,-0.39 -0.39,-0.65 -0.47,-0.92 -0.26,-0.06 -1.3,-0.12 -4.67,1.42l-0.14 0.06c-0.29,0.13 -0.58,0.26 -0.87,0.38 -2.17,0.95 -4.22,1.85 -4.93,3.7 -0.29,0.74 -1.01,2.27 -1.65,3.63 -0.2,0.42 -0.42,0.89 -0.6,1.28zm1.01 1.97c-1.06,0 -2.02,-0.07 -2.35,-0.27 -0.06,-0.04 -0.07,-0.04 -0.11,-0.05 -0.12,-0.03 -0.49,-0.11 -0.71,-0.5 -0.15,-0.26 -0.18,-0.55 -0.08,-0.87 0,0 0,0 0,0 0.08,-0.26 0.36,-0.86 1.08,-2.39 0.6,-1.26 1.33,-2.83 1.59,-3.5 1.01,-2.61 3.65,-3.76 5.97,-4.78 0.29,-0.12 0.57,-0.25 0.85,-0.37l0.14 -0.07c3.35,-1.52 5.27,-1.93 6.41,-1.35 0.47,0.23 0.8,0.64 0.93,1.16 0.04,0.09 0.16,0.29 0.27,0.46 0.55,0.91 1.47,2.43 1.47,4.16l0 0.31c0.01,2.28 0.04,7.01 -2.84,7.24 -0.71,0.05 -1.23,0.12 -1.74,0.18 -0.91,0.11 -1.7,0.21 -3.23,0.21 -0.29,0 -0.56,0 -0.83,-0.01 -1.19,-0.01 -2.12,-0.02 -3.32,0.26 -0.12,0.03 -1.91,0.18 -3.5,0.18z"/>
  <path class="fil1" d="M77.75 46.78c0,0 0,0 0,0 0,0 0,0 0,0zm-0.29 1.94c-1.06,0 -2.47,-0.35 -4.15,-0.82 -0.61,-0.17 -1.18,-0.33 -1.46,-0.37 -3.08,-0.46 -6.36,-0.44 -9.52,-0.43 -0.53,0 -1.05,0 -1.58,0 -2.69,0 -4.12,-2.58 -5.16,-4.46 -0.2,-0.35 -0.38,-0.68 -0.57,-0.98 -0.41,-0.68 -0.75,-1.39 -1.08,-2.09 -0.38,-0.77 -0.73,-1.51 -1.17,-2.18 -0.29,-0.45 -0.16,-1.06 0.29,-1.35 0.46,-0.29 1.06,-0.16 1.35,0.29 0.5,0.78 0.9,1.61 1.28,2.4 0.33,0.68 0.63,1.32 0.99,1.91 0.2,0.32 0.4,0.68 0.61,1.06 0.9,1.62 1.92,3.46 3.46,3.46 0.52,0 1.05,0 1.57,-0.01 3.24,-0.01 6.59,-0.02 9.81,0.46 0.4,0.06 0.97,0.22 1.69,0.41 1.02,0.28 3.37,0.93 3.97,0.73 0.41,-0.31 1,-0.24 1.33,0.16 0.34,0.42 0.28,1.03 -0.13,1.37 -0.38,0.31 -0.89,0.44 -1.53,0.44z"/>
  <path class="fil1" d="M32 46.38c-0.36,0 -0.72,-0.21 -0.88,-0.56 -0.23,-0.49 -0.01,-1.07 0.47,-1.3 0.44,-0.2 1.02,-0.29 1.54,-0.37 0.22,-0.03 0.51,-0.08 0.61,-0.11 0.92,-0.29 5.89,-0.43 7.18,-0.46 1.13,-0.02 2.03,0.04 2.82,0.09 1.27,0.08 2.37,0.15 4.1,-0.11 1.27,-0.19 2.52,-2.71 3.43,-4.56 0.56,-1.12 1.04,-2.09 1.56,-2.75 0.34,-0.42 0.95,-0.49 1.37,-0.15 0.42,0.33 0.49,0.95 0.15,1.37 -0.39,0.49 -0.85,1.41 -1.33,2.39 -1.23,2.48 -2.62,5.28 -4.89,5.63 -1.94,0.29 -3.19,0.21 -4.51,0.12 -0.79,-0.05 -1.61,-0.1 -2.67,-0.08 -3.02,0.05 -6.17,0.25 -6.63,0.37 -0.24,0.07 -0.54,0.12 -0.89,0.17 -0.33,0.06 -0.83,0.13 -1.02,0.22 -0.13,0.06 -0.27,0.09 -0.41,0.09z"/>
  <path class="fil1" d="M52.77 50.71c-0.61,0 -1.2,-0.13 -1.72,-0.46 -1.31,-0.81 -1.94,-1.64 -2.49,-2.38 -0.37,-0.48 -0.71,-0.94 -1.24,-1.38 -0.41,-0.34 -0.47,-0.95 -0.13,-1.37 0.34,-0.41 0.96,-0.47 1.37,-0.12 0.7,0.58 1.15,1.17 1.55,1.7 0.52,0.68 0.97,1.28 1.97,1.9 0.96,0.6 3.32,-0.52 4.59,-1.59 0.03,-0.02 0.06,-0.05 0.09,-0.07l0.04 -0.07c0.26,-0.47 0.85,-0.64 1.32,-0.38 0.47,0.26 0.64,0.85 0.38,1.32l-0.04 0.08c-0.13,0.23 -0.21,0.37 -0.45,0.54 -0.02,0.02 -0.04,0.04 -0.09,0.07 -0.88,0.74 -3.13,2.21 -5.15,2.21z"/>
  <path class="fil1" d="M96.15 77.27c-0.46,0 -0.87,-0.32 -0.96,-0.79 -0.35,-1.83 -0.59,-3.76 -0.84,-5.8 -0.57,-4.68 -1.17,-9.52 -3.24,-12.99 -1.23,-2.07 -2.05,-2.53 -2.25,-2.53l0 0c-1.43,0.03 -2.78,0.29 -4.2,0.57 -1.74,0.34 -3.54,0.7 -5.78,0.7 -2.13,0 -4.08,-1.9 -6.34,-4.09 -2.5,-2.43 -5.33,-5.17 -8.5,-5.24 -0.54,-0.02 -0.96,-0.46 -0.95,-1 0.01,-0.54 0.45,-0.99 1,-0.95 3.93,0.09 7.05,3.12 9.8,5.79 1.88,1.82 3.65,3.54 4.99,3.54 2.05,0 3.76,-0.34 5.41,-0.66 1.51,-0.3 2.93,-0.58 4.54,-0.6 0.01,0 0.02,0 0.03,0 1.25,0 2.53,1.13 3.93,3.47 2.28,3.82 2.89,8.87 3.49,13.75 0.25,2.01 0.48,3.91 0.82,5.67 0.11,0.53 -0.24,1.04 -0.77,1.14 -0.06,0.01 -0.12,0.02 -0.18,0.02z"/>
  <path class="fil1" d="M94.36 79.68c-0.45,0 -0.85,-0.31 -0.95,-0.77 -0.11,-0.53 0.23,-1.04 0.75,-1.15 2.62,-0.55 3.37,-9.17 2.76,-17.01 -0.3,-3.78 -2.23,-7.51 -5.05,-9.74 -2.33,-1.85 -3.95,-1.67 -5.66,-1.47 -1.59,0.18 -3.4,0.39 -5.51,-1.12 -0.44,-0.31 -0.54,-0.92 -0.23,-1.36 0.32,-0.43 0.93,-0.53 1.36,-0.22 1.5,1.07 2.68,0.94 4.16,0.77 1.84,-0.21 4.13,-0.48 7.09,1.87 3.28,2.6 5.43,6.75 5.78,11.12 0.33,4.19 0.99,17.95 -4.29,19.06 -0.07,0.02 -0.14,0.02 -0.21,0.02z"/>
  <path class="fil1" d="M81.69 65.08c-3.14,0 -4.53,-2.87 -5.68,-5.24 -0.79,-1.63 -1.61,-3.32 -2.85,-4.02 -0.47,-0.26 -0.64,-0.86 -0.37,-1.33 0.26,-0.46 0.85,-0.63 1.32,-0.37 1.78,1 2.73,2.97 3.65,4.87 1.42,2.93 2.35,4.58 4.82,4.04l0.08 -0.04c0.49,-0.24 1.07,-0.05 1.31,0.43 0.24,0.48 0.05,1.07 -0.43,1.31l-0.2 0.09c-0.06,0.04 -0.13,0.06 -0.21,0.08 -0.51,0.12 -0.99,0.18 -1.44,0.18z"/>
  <path class="fil1" d="M79.82 67.53c-3.57,0 -4.63,-2.57 -5.4,-4.45 -0.37,-0.91 -0.72,-1.77 -1.26,-2.28 -0.39,-0.37 -0.41,-0.99 -0.04,-1.38 0.37,-0.39 0.99,-0.41 1.38,-0.04 0.84,0.8 1.29,1.9 1.72,2.96 0.83,2.01 1.45,3.25 3.6,3.25 0.53,0 0.97,0.43 0.97,0.97 0,0.54 -0.44,0.97 -0.97,0.97z"/>
  <path class="fil1" d="M78.24 71c-3.17,0 -4.13,-1.56 -4.86,-2.74 -0.19,-0.3 -0.37,-0.59 -0.57,-0.8 -0.36,-0.39 -0.33,-1.01 0.06,-1.37 0.4,-0.37 1.01,-0.34 1.38,0.06 0.31,0.34 0.55,0.72 0.78,1.09 0.7,1.13 1.3,2.1 4.38,1.74 0.54,-0.07 1.02,0.31 1.08,0.85 0.07,0.53 -0.31,1.01 -0.85,1.08 -0.51,0.06 -0.97,0.09 -1.4,0.09z"/>
  <path class="fil1" d="M76.44 73.81c-2.86,0 -3.59,-0.16 -4.78,-1.87 -0.3,-0.44 -0.19,-1.05 0.25,-1.35 0.44,-0.31 1.04,-0.2 1.35,0.24 0.7,1 0.72,1.04 3.18,1.04 0.53,0 0.97,0.43 0.97,0.97 0,0.54 -0.44,0.97 -0.97,0.97z"/>
  <path class="fil1" d="M52.3 92.17c-0.15,0 -0.29,0 -0.44,-0.01 -4.97,-0.21 -8.54,-1.68 -12.29,-5.08 -2.55,-2.3 -6.63,-10.6 -7.06,-13.7 -0.11,-0.84 -0.08,-1.39 -0.05,-1.88 0.04,-0.63 0.07,-1.13 -0.3,-2.31 -2.23,-6.95 -1.8,-14.72 1.11,-20.29 0.43,-0.81 0.63,-1.24 0.77,-1.95 0.11,-0.53 0.63,-0.87 1.15,-0.76 0.53,0.11 0.87,0.63 0.76,1.15 -0.2,0.98 -0.51,1.61 -0.95,2.46 -2.68,5.13 -3.06,12.33 -0.99,18.8 0.49,1.52 0.44,2.28 0.39,3.02 -0.02,0.44 -0.05,0.85 0.04,1.5 0.4,2.93 4.37,10.65 6.43,12.52 3.43,3.1 6.54,4.39 11.07,4.58 5.59,0.23 12.63,-5.48 15.45,-10.76 1.68,-3.16 2.93,-6.27 3.36,-7.6 0.15,-0.44 0.29,-0.88 0.45,-1.33 0.86,-2.56 1.75,-5.2 1.75,-7.74 0,-0.53 0.44,-0.97 0.97,-0.97 0.54,0 0.98,0.44 0.98,0.97 0,2.86 -0.95,5.66 -1.86,8.37 -0.15,0.44 -0.3,0.87 -0.44,1.31 -0.54,1.66 -1.87,4.85 -3.49,7.9 -2.68,5.03 -9.94,11.8 -16.81,11.8z"/>
  <path class="fil1" d="M45.38 49.66c-0.06,0 -0.13,0 -0.2,-0.02 -0.47,-0.1 -0.8,-0.26 -1.08,-0.4 -0.42,-0.21 -0.85,-0.43 -2.11,-0.49l-0.08 0c-2.18,-0.12 -3.52,-0.06 -4,0.15 -0.49,0.22 -1.07,0.01 -1.29,-0.48 -0.22,-0.49 0,-1.07 0.49,-1.29 1.01,-0.46 2.95,-0.43 4.9,-0.33l0.08 0.01c1.66,0.08 2.34,0.42 2.88,0.69 0.23,0.11 0.38,0.19 0.61,0.24 0.52,0.11 0.86,0.62 0.75,1.15 -0.09,0.46 -0.5,0.77 -0.95,0.77z"/>
  <path class="fil1" d="M36.11 55.6c-0.37,0 -0.73,-0.21 -0.89,-0.57 -0.22,-0.49 0,-1.06 0.49,-1.28 1.21,-0.55 1.57,-0.83 1.96,-1.12 0.25,-0.2 0.53,-0.42 1.01,-0.68 2.35,-1.29 6.86,-1.5 9.04,2.19 0.27,0.46 0.12,1.06 -0.35,1.33 -0.46,0.27 -1.06,0.12 -1.33,-0.34 -1.67,-2.83 -5.11,-2.2 -6.43,-1.47 -0.34,0.19 -0.52,0.33 -0.76,0.51 -0.43,0.33 -0.92,0.71 -2.34,1.35 -0.13,0.06 -0.27,0.08 -0.4,0.08z"/>
  <path class="fil1" d="M69.19 57.2c-0.01,0 -0.02,0 -0.04,0 -1.24,-0.05 -2.4,-0.97 -2.73,-1.25 -0.14,-0.11 -0.28,-0.24 -0.42,-0.37 -0.59,-0.53 -1.26,-1.13 -2.14,-1.43 -1.18,-0.39 -2.18,-0.3 -3.24,0.31 -0.17,0.1 -0.35,0.22 -0.54,0.35 -0.53,0.35 -1.19,0.79 -1.98,1 -0.52,0.14 -1.06,-0.16 -1.2,-0.68 -0.14,-0.52 0.17,-1.06 0.69,-1.2 0.49,-0.13 0.95,-0.44 1.41,-0.74 0.23,-0.15 0.44,-0.3 0.66,-0.42 1.53,-0.88 3.11,-1.03 4.81,-0.46 1.27,0.42 2.17,1.23 2.83,1.83 0.13,0.12 0.26,0.23 0.38,0.33 0.43,0.37 1.09,0.77 1.55,0.78 0.54,0.02 0.95,0.48 0.93,1.01 -0.02,0.53 -0.45,0.94 -0.97,0.94z"/>
  <g>
   <path class="fil1" d="M47.51 66.73l0.01 0 -0.01 0zm3.76 3.43c-0.81,0 -1.66,-0.24 -2.32,-0.68 -0.5,-0.33 -0.8,-0.86 -0.96,-1.23 -0.44,0.14 -1.14,0.35 -1.76,-0.09 -0.64,-0.47 -0.71,-1.3 -0.71,-1.89 0,-0.54 0.43,-0.97 0.97,-0.97 0.54,0 0.97,0.43 0.97,0.97 0,0.04 0.01,0.07 0.01,0.1 0.27,-0.09 0.58,-0.18 0.92,-0.17 0.68,0.02 1.12,0.37 1.3,1.04l0.03 0.09c0.08,0.27 0.23,0.48 0.31,0.53 0.43,0.29 1.13,0.43 1.63,0.32 0.35,-0.08 0.45,-0.25 0.49,-0.31l0.03 -0.06c0.22,-0.36 0.61,-1.03 1.55,-1.11 0.39,-0.04 0.77,0.07 1.09,0.32 0.09,0.06 0.3,0.13 0.46,0.16 0.05,-0.49 0.47,-0.87 0.97,-0.87 0.54,0 0.97,0.44 0.97,0.98 0,0.75 -0.34,1.35 -0.94,1.64 -0.77,0.38 -1.78,0.14 -2.38,-0.2 -0.01,0.02 -0.03,0.05 -0.04,0.07l-0.04 0.07c-0.37,0.62 -0.97,1.03 -1.74,1.2 -0.26,0.06 -0.53,0.09 -0.81,0.09z"/>
  </g>
  <path class="fil1" d="M49.41 62.41c-0.04,0 -0.07,0 -0.11,-0.01 -0.53,-0.05 -0.92,-0.53 -0.86,-1.07 0.03,-0.34 0.14,-0.63 0.22,-0.86 0.03,-0.08 0.06,-0.16 0.07,-0.23 0.37,-3.33 0.02,-5.73 -0.94,-6.57 -0.4,-0.36 -0.44,-0.97 -0.08,-1.38 0.35,-0.4 0.97,-0.44 1.37,-0.08 1.51,1.32 2.04,4.1 1.59,8.25 -0.03,0.25 -0.11,0.47 -0.18,0.66 -0.05,0.16 -0.11,0.3 -0.12,0.42 -0.05,0.5 -0.47,0.87 -0.96,0.87z"/>
  <path class="fil1" d="M56.94 76.31c-1.13,0 -1.97,-0.36 -2.6,-0.63 -0.6,-0.26 -0.81,-0.33 -0.98,-0.25 -1.7,0.79 -2.36,0.64 -3.56,0.07 -0.22,-0.11 -0.48,-0.23 -0.8,-0.36 -0.7,-0.28 -1.68,0.14 -2.35,0.49 -1.23,0.63 -1.98,0.62 -2.58,0.56 -0.42,-0.04 -0.73,-0.18 -1.01,-0.3 -0.22,-0.1 -0.45,-0.2 -0.79,-0.28 -0.52,-0.13 -0.84,-0.66 -0.71,-1.18 0.12,-0.52 0.65,-0.84 1.17,-0.72 0.51,0.13 0.86,0.28 1.12,0.4 0.21,0.09 0.31,0.13 0.41,0.14 0.3,0.03 0.67,0.07 1.51,-0.36 1.01,-0.51 2.53,-1.14 3.96,-0.55 0.36,0.14 0.66,0.28 0.91,0.4 0.8,0.38 0.86,0.41 1.9,-0.07 0.99,-0.46 1.83,-0.1 2.57,0.22 0.84,0.36 1.7,0.73 3.18,0.23 0.51,-0.17 1.06,0.11 1.23,0.61 0.18,0.51 -0.1,1.07 -0.61,1.24 -0.74,0.25 -1.39,0.34 -1.97,0.34z"/>
  <path class="fil1" d="M51.81 80.31c-2.48,0 -4.99,-0.85 -6.2,-1.66 -0.45,-0.3 -0.57,-0.9 -0.27,-1.35 0.3,-0.44 0.9,-0.57 1.35,-0.27 1.46,0.97 5.54,2 7.83,0.75 0.47,-0.25 1.06,-0.08 1.32,0.39 0.25,0.48 0.08,1.07 -0.39,1.32 -1.08,0.59 -2.35,0.82 -3.64,0.82z"/>
  <path class="fil1" d="M43.83 107.28c-0.53,0 -0.97,-0.43 -0.97,-0.97 0,-1.48 -1.55,-16.38 -2.97,-19.02 -0.25,-0.48 -0.07,-1.07 0.4,-1.32 0.47,-0.25 1.06,-0.08 1.32,0.4 1.68,3.15 3.2,18.46 3.2,19.94 0,0.54 -0.44,0.97 -0.98,0.97z"/>
  <path class="fil1" d="M26.99 97.38c-0.13,0 -0.25,-0.03 -0.37,-0.08 -0.5,-0.2 -0.74,-0.77 -0.53,-1.26 2.12,-5.2 6.12,-6.97 9.04,-8.26 1.28,-0.57 2.39,-1.06 2.78,-1.63 0.31,-0.44 0.91,-0.56 1.36,-0.25 0.44,0.3 0.55,0.91 0.25,1.35 -0.71,1.02 -2.05,1.62 -3.6,2.31 -2.77,1.22 -6.2,2.74 -8.03,7.21 -0.16,0.38 -0.52,0.61 -0.9,0.61z"/>
  <path class="fil1" d="M53.4 107.48c-0.52,0 -0.95,-0.41 -0.97,-0.94 -0.12,-2.66 2.54,-6.92 5.76,-11.79 0.78,-1.19 1.45,-2.21 1.89,-2.96 0.83,-1.43 1.54,-3.02 2.16,-4.42 0.83,-1.85 1.33,-2.93 1.88,-3.48 0.38,-0.38 0.99,-0.39 1.37,-0.01 0.39,0.38 0.39,1 0.01,1.38 -0.32,0.33 -0.94,1.7 -1.48,2.91 -0.64,1.44 -1.38,3.07 -2.26,4.6 -0.46,0.79 -1.15,1.84 -1.95,3.05 -2.21,3.34 -5.54,8.39 -5.44,10.64 0.02,0.54 -0.39,0.99 -0.93,1.01 -0.02,0.01 -0.03,0.01 -0.04,0.01z"/>
  <path class="fil1" d="M76.14 78.1c-2.46,0 -3.92,-0.87 -5.47,-3.05 -0.31,-0.44 -0.21,-1.05 0.23,-1.36 0.44,-0.31 1.04,-0.21 1.35,0.23 1.48,2.07 2.55,2.49 5.46,2.13 1.29,-0.17 1.77,-0.48 2.5,-0.94 0.33,-0.21 0.7,-0.45 1.18,-0.7 0.48,-0.25 1.07,-0.06 1.31,0.41 0.25,0.48 0.06,1.07 -0.41,1.32 -0.41,0.2 -0.72,0.41 -1.03,0.6 -0.81,0.53 -1.58,1.02 -3.31,1.24 -0.66,0.08 -1.26,0.12 -1.81,0.12z"/>
  <path class="fil1" d="M68.49 102.29c-0.11,0 -0.23,-0.02 -0.35,-0.06 -0.5,-0.19 -0.75,-0.76 -0.56,-1.26 0.31,-0.81 0.52,-2.16 0.74,-3.6 0.19,-1.21 0.4,-2.58 0.71,-3.84 0.37,-1.56 1.47,-4.01 2.64,-6.61 1.05,-2.35 2.64,-5.91 2.56,-6.69 -0.12,-0.52 0.21,-1.03 0.73,-1.15 0.53,-0.12 1.05,0.22 1.17,0.74 0.26,1.15 -0.62,3.28 -2.69,7.89 -1.07,2.41 -2.19,4.89 -2.52,6.27 -0.29,1.19 -0.48,2.46 -0.67,3.68 -0.25,1.62 -0.47,3.01 -0.85,4.01 -0.15,0.38 -0.52,0.62 -0.91,0.62z"/>
  <g>
   <path class="fil1" d="M79.84 45.04l0.01 0.01 -0.01 -0.01zm-52 1.87c-0.71,0 -1.77,-0.15 -2.53,-1.05 -1.15,-1.35 -1.18,-3.91 -0.11,-8.05 0.58,-2.23 2.91,-9.03 5.88,-10.92 0.61,-0.39 1.18,-0.77 1.75,-1.14 1.91,-1.25 3.71,-2.43 6.12,-3.6 4.09,-1.99 5.31,-1.97 8.58,-1.93 0.55,0.01 1.17,0.02 1.88,0.02 1.75,0 3.4,0.28 4.85,0.54 1.08,0.18 2.01,0.35 2.66,0.33 1.85,-0.06 3.1,0.27 4.31,0.58 0.8,0.2 1.56,0.39 2.48,0.48 3.16,0.28 7.48,2.67 9.53,4.04 3.85,2.56 4.42,4.08 5.46,6.84 0.25,0.66 0.53,1.41 0.89,2.27 0.74,1.75 0.58,4.82 0.46,7.28 -0.06,1 -0.12,2.24 -0.05,2.64 0.23,0.37 0.18,0.85 -0.13,1.18 -0.37,0.39 -0.99,0.4 -1.37,0.03 -0.55,-0.52 -0.53,-1.37 -0.4,-3.95 0.11,-2.15 0.26,-5.08 -0.3,-6.42 -0.38,-0.9 -0.67,-1.67 -0.92,-2.34 -0.99,-2.62 -1.39,-3.7 -4.72,-5.92 -2.05,-1.37 -6.04,-3.49 -8.62,-3.72 -1.08,-0.09 -1.95,-0.32 -2.79,-0.53 -1.13,-0.29 -2.2,-0.56 -3.78,-0.52 -0.84,0.03 -1.86,-0.15 -3.04,-0.36 -1.38,-0.24 -2.94,-0.51 -4.52,-0.51 -0.72,0 -1.35,-0.01 -1.91,-0.01 -3.17,-0.05 -4.03,-0.06 -7.69,1.73 -2.3,1.12 -4.06,2.26 -5.91,3.48 -0.58,0.37 -1.16,0.76 -1.78,1.15 -1.95,1.24 -4.18,6.47 -5.04,9.77 -1.15,4.43 -0.67,5.85 -0.29,6.3 0.17,0.19 0.49,0.43 1.47,0.34 0.59,-0.06 1.2,-0.16 1.79,-0.27 0.72,-0.13 1.36,-0.22 1.83,-0.24 0.54,0.01 0.97,0.44 0.97,0.98 0,0.54 -0.44,0.97 -0.97,0.97l-0.01 0c-0.32,0 -0.88,0.1 -1.48,0.21 -0.6,0.1 -1.28,0.22 -1.95,0.29 -0.13,0.01 -0.34,0.03 -0.6,0.03z"/>
  </g>
  <path class="fil1" d="M81.27 48.6c-0.05,0 -0.1,0 -0.15,-0.01 -0.53,-0.08 -0.9,-0.57 -0.82,-1.1 0.61,-4.14 1.2,-11.85 -1.61,-16.92 -0.64,-1.16 -1.71,-2.2 -2.74,-3.2 -0.98,-0.96 -1.91,-1.86 -2.4,-2.83 -0.77,-1.49 -2.25,-3.2 -4.17,-4.8 -2.04,-1.71 -4.42,-3.15 -6.36,-3.85 -1.67,-0.6 -3.09,-0.73 -3.9,-0.39 -0.12,0.98 -0.49,2.04 -0.83,3 -0.23,0.64 -0.46,1.31 -0.5,1.65 -0.05,0.53 -0.52,0.92 -1.06,0.87 -0.53,-0.05 -0.92,-0.53 -0.87,-1.06 0.05,-0.57 0.3,-1.28 0.59,-2.11 0.34,-0.95 0.76,-2.14 0.76,-2.92 0,-0.3 0.13,-0.58 0.37,-0.76 1.65,-1.31 4.23,-0.78 6.1,-0.11 2.17,0.79 4.7,2.31 6.95,4.18 1.5,1.25 3.52,3.21 4.65,5.42 0.35,0.68 1.16,1.47 2.03,2.31 1.08,1.05 2.3,2.24 3.08,3.66 2.94,5.29 2.62,12.78 1.84,18.14 -0.07,0.48 -0.49,0.83 -0.96,0.83z"/>
  <path class="fil1" d="M40.12 22.96c-0.02,0 -0.04,0 -0.06,0 -0.53,-0.03 -0.95,-0.49 -0.92,-1.03 0.25,-4.43 8.89,-6.74 11.31,-7 0.68,-0.07 1.74,-0.34 2.77,-0.6 1.47,-0.37 2.98,-0.76 3.99,-0.76 0.54,0 0.98,0.44 0.98,0.98 0,0.53 -0.44,0.97 -0.98,0.97 -0.77,0 -2.22,0.37 -3.51,0.69 -1.15,0.29 -2.23,0.57 -3.04,0.66 -3.2,0.34 -9.44,2.76 -9.57,5.17 -0.03,0.52 -0.46,0.92 -0.97,0.92z"/>
  <path class="fil1" d="M36.59 81.99c-0.31,0 -0.62,-0.15 -0.8,-0.43 -1.36,-2.02 -2.84,-3.27 -4.28,-4.48 -1.91,-1.61 -3.71,-3.13 -4.79,-6.08 -1.84,-5 -1.19,-13.3 -0.75,-18.79l0.03 -0.45c0.16,-2.04 0.17,-3.12 0.18,-4.61l0.01 -0.89c0.01,-0.53 0.45,-0.95 0.99,-0.96 0.54,0.01 0.97,0.45 0.96,0.99l-0.01 0.88c-0.01,1.47 -0.02,2.64 -0.19,4.74l-0.03 0.45c-0.42,5.33 -1.06,13.37 0.63,17.97 0.91,2.47 2.44,3.76 4.22,5.26 1.47,1.24 3.13,2.64 4.64,4.89 0.3,0.44 0.18,1.05 -0.26,1.35 -0.17,0.11 -0.36,0.16 -0.55,0.16z"/>
  <path class="fil1" d="M94.37 79.68c-0.02,0 -0.04,0 -0.06,0 -3.43,-0.18 -4.08,-3.47 -4.71,-6.65 -0.49,-2.45 -1.04,-5.23 -2.78,-7.18 -1.85,-2.09 -4.02,-3.59 -6.27,-4.33 -0.51,-0.17 -0.78,-0.72 -0.61,-1.23 0.17,-0.51 0.72,-0.79 1.23,-0.62 2.57,0.85 5.02,2.54 7.11,4.89 2.08,2.35 2.69,5.4 3.22,8.09 0.71,3.54 1.17,5 2.91,5.09 0.54,0.03 0.95,0.48 0.93,1.02 -0.03,0.52 -0.46,0.92 -0.97,0.92z"/>
  <g>
   <path class="fil1" d="M52.5 33.28l0 0 0 0zm0.73 1.61c-0.22,0 -0.45,-0.08 -0.63,-0.24 -0.36,-0.31 -0.44,-0.82 -0.21,-1.22 0.27,-1.08 -0.07,-7.54 -0.46,-8.5 -0.26,-0.47 -0.09,-1.04 0.37,-1.31 0.47,-0.27 1.07,-0.09 1.34,0.38 0.43,0.74 0.63,3.61 0.72,5.25 0.23,4.59 -0.16,5.03 -0.39,5.3 -0.19,0.22 -0.46,0.34 -0.74,0.34z"/>
  </g>
  <path class="fil2" d="M63 53.36c0.87,0 1.57,0.7 1.57,1.57 0,0.87 -0.7,1.58 -1.57,1.58 -0.87,0 -1.58,-0.71 -1.58,-1.58 0,-0.87 0.71,-1.57 1.58,-1.57z"/>
  <path class="fil2" d="M42.33 52.05c0.87,0 1.57,0.71 1.57,1.58 0,0.87 -0.7,1.57 -1.57,1.57 -0.87,0 -1.58,-0.7 -1.58,-1.57 0,-0.87 0.71,-1.58 1.58,-1.58z"/>
  <path class="fil1" d="M80.1 53.06c-0.46,0 -0.9,-0.04 -1.28,-0.18 -0.65,-0.23 -1.58,-0.81 -2.2,-1.19 -0.19,-0.12 -0.34,-0.22 -0.42,-0.26 -0.27,-0.1 -0.45,-0.37 -0.42,-0.67 0.03,-0.36 0.35,-0.63 0.7,-0.59 0.2,0.02 0.29,0.08 0.83,0.42 0.53,0.33 1.42,0.88 1.95,1.07 0.39,0.14 1.14,0.1 1.74,0.06 0.28,-0.01 0.54,-0.03 0.77,-0.03 0.35,0 0.64,0.29 0.64,0.65 0,0.36 -0.29,0.65 -0.64,0.65 -0.2,0 -0.44,0.01 -0.69,0.03 -0.32,0.02 -0.65,0.04 -0.98,0.04z"/>
  <path class="fil1" d="M84.56 52.75c-0.3,0 -0.58,-0.22 -0.64,-0.53 -0.06,-0.36 0.17,-0.69 0.53,-0.76 2.36,-0.43 3.43,-0.56 4.54,-0.12 0.34,0.13 0.5,0.51 0.37,0.84 -0.13,0.34 -0.51,0.5 -0.84,0.37 -0.76,-0.3 -1.59,-0.22 -3.84,0.19 -0.04,0.01 -0.08,0.01 -0.12,0.01z"/>
  <path class="fil1" d="M74.11 81.33c-1.86,0 -3.78,0 -5.2,-1.97 -0.31,-0.44 -0.21,-1.05 0.23,-1.36 0.44,-0.31 1.04,-0.21 1.36,0.22 0.79,1.12 1.78,1.17 3.61,1.17 0.53,0 0.97,0.43 0.97,0.97 0,0.54 -0.44,0.97 -0.97,0.97z"/>
  <path class="fil1" d="M78.57 82.56c-0.5,0 -0.93,-0.39 -0.97,-0.91 -0.04,-0.53 0.36,-1 0.9,-1.04 0.25,-0.02 0.7,-0.24 1.17,-0.48 1.54,-0.79 3.88,-1.98 7.84,-0.96 0.52,0.14 0.84,0.67 0.7,1.19 -0.13,0.52 -0.66,0.83 -1.18,0.7 -3.26,-0.84 -5.04,0.07 -6.48,0.8 -0.68,0.35 -1.27,0.65 -1.91,0.69 -0.02,0.01 -0.04,0.01 -0.07,0.01z"/>
  <path class="fil1" d="M32.89 42.33c-0.36,0 -0.65,-0.29 -0.65,-0.65 0,-0.36 0.29,-0.65 0.65,-0.65 2.33,0 8.64,-0.15 9.7,-0.51 0.34,-0.12 0.71,0.06 0.82,0.4 0.12,0.34 -0.06,0.71 -0.4,0.83 -1.59,0.54 -10.03,0.58 -10.12,0.58z"/>
  <path class="fil1" d="M66.57 51.21c-0.23,0 -0.47,-0.08 -0.66,-0.25 -0.21,-0.19 -0.8,-0.37 -1.4,-0.43l-0.09 -0.01c-2.17,-0.2 -3.51,-0.2 -4,-0.01 -0.5,0.2 -1.06,-0.04 -1.26,-0.54 -0.21,-0.5 0.04,-1.06 0.53,-1.26 1.03,-0.42 2.97,-0.31 4.91,-0.12l0.09 0c0.51,0.05 1.78,0.24 2.54,0.93 0.39,0.36 0.42,0.98 0.06,1.38 -0.19,0.21 -0.46,0.31 -0.72,0.31z"/>
  <path class="fil1" d="M97.65 93.73c-0.37,0 -0.72,-0.21 -0.89,-0.57 -3.11,-6.74 -4.5,-7.39 -10.57,-9.35 -0.51,-0.16 -0.79,-0.71 -0.63,-1.22 0.17,-0.51 0.72,-0.79 1.23,-0.63 6.34,2.04 8.32,2.96 11.74,10.39 0.22,0.49 0.01,1.06 -0.48,1.29 -0.13,0.06 -0.27,0.09 -0.4,0.09z"/>
  <path class="fil1" d="M64.55 44.23c-2,0 -3.28,-0.07 -4.48,-0.86 -0.3,-0.2 -0.38,-0.6 -0.18,-0.9 0.19,-0.3 0.6,-0.38 0.89,-0.19 0.99,0.66 2.12,0.66 4.37,0.65l0.75 0c0.35,0 0.64,0.29 0.64,0.65 0,0.35 -0.29,0.64 -0.64,0.64l-0.75 0.01c-0.21,0 -0.41,0 -0.6,0z"/>
 </g>
</svg>
