<?xml version="1.0" encoding="UTF-8"?>
<!DOCTYPE svg PUBLIC "-//W3C//DTD SVG 1.1//EN" "http://www.w3.org/Graphics/SVG/1.1/DTD/svg11.dtd">
<!-- Creator: CorelDRAW 2018 (64-Bit) -->
<svg xmlns="http://www.w3.org/2000/svg" xml:space="preserve" width="845px" height="845px" version="1.1" style="shape-rendering:geometricPrecision; text-rendering:geometricPrecision; image-rendering:optimizeQuality; fill-rule:evenodd; clip-rule:evenodd"
viewBox="0 0 116.01 116.01"
 xmlns:xlink="http://www.w3.org/1999/xlink">
 <defs>
  <style type="text/css">
   <![CDATA[
    .fil0 {fill:none}
    .fil2 {fill:black}
    .fil1 {fill:black;fill-rule:nonzero}
   ]]>
  </style>
 </defs>
 <g id="Слой_x0020_1">
  <metadata id="CorelCorpID_0Corel-Layer"/>
  <rect class="fil0" width="116.01" height="116.01"/>
 </g>
 <g id="_1">
  <metadata id="CorelCorpID_1Corel-Layer"/>
  <path class="fil1" d="M37.13 65.82c-0.82,0 -1.75,-0.34 -2.64,-1 -1.1,-0.8 -1.89,-2.19 -2.46,-3.31 -0.79,-1.55 -2.09,-4.89 -2.64,-6.63 -0.47,-1.49 -1.52,-5.27 -1,-8.2 0.16,-0.92 0.5,-2.17 1.18,-2.91 0.84,-0.92 2.32,-1.15 4.17,-0.66 3.38,0.9 4.26,4.1 4.68,7.11 0.12,0.8 0.23,1.62 0.46,2.32 0.17,0.51 -0.11,1.06 -0.62,1.23 -0.51,0.17 -1.06,-0.11 -1.23,-0.62 -0.28,-0.87 -0.41,-1.78 -0.53,-2.66 -0.49,-3.46 -1.4,-5 -3.26,-5.5 -1.05,-0.28 -1.93,-0.24 -2.24,0.09 -0.2,0.22 -0.51,0.86 -0.7,1.94 -0.3,1.73 0.05,4.45 0.95,7.27 0.52,1.66 1.79,4.91 2.52,6.34 0.27,0.54 1.01,1.99 1.87,2.62 0.82,0.61 1.53,0.7 1.76,0.57 0.18,-0.09 0.27,-0.46 0.24,-0.96 -0.02,-0.54 0.39,-0.99 0.93,-1.02 0.54,-0.02 0.99,0.39 1.02,0.93 0.08,1.77 -0.76,2.5 -1.27,2.77 -0.35,0.19 -0.75,0.28 -1.19,0.28z"/>
  <path class="fil1" d="M32.84 51.54c0,0 0,0 0,0 0,0 0,0 0,0zm-0.73 1.63c-0.26,0 -0.53,-0.11 -0.72,-0.33 -0.65,-0.72 -1.19,-3.74 -0.27,-5.41 0.52,-0.95 1.44,-1.38 2.55,-1.19 0.53,0.09 0.88,0.59 0.79,1.12 -0.09,0.53 -0.59,0.89 -1.12,0.8 -0.34,-0.06 -0.41,0.04 -0.47,0.13 -0.53,0.75 -0.23,2.83 0.01,3.31 0.31,0.4 0.26,0.97 -0.12,1.32 -0.18,0.16 -0.42,0.25 -0.65,0.25z"/>
  <path class="fil1" d="M35.59 58.82c-0.52,0 -0.95,-0.41 -0.97,-0.93 -0.01,-0.16 -0.05,-0.42 -0.09,-0.74 -0.28,-2.02 -0.47,-4.09 0.38,-5.2 0.32,-0.41 0.75,-0.67 1.26,-0.73 0.54,-0.07 1.02,0.3 1.09,0.84 0.07,0.53 -0.3,1.02 -0.84,1.09l-0.12 -0.97 0.12 0.97c-0.17,0.18 -0.34,1 0.04,3.74 0.05,0.39 0.09,0.69 0.1,0.91 0.03,0.54 -0.39,0.99 -0.92,1.02 -0.02,0 -0.04,0 -0.05,0z"/>
  <g>
   <path class="fil1" d="M36.02 44.39c0,0.01 0,0.01 0.01,0.02 -0.01,-0.01 -0.01,-0.01 -0.01,-0.02zm0.02 0.05l0.01 0 -0.01 0zm-0.84 1.45c-0.32,0 -0.64,-0.16 -0.82,-0.45 -0.71,-1.11 -0.52,-5.94 -0.19,-6.92 0.17,-0.51 0.72,-0.79 1.23,-0.62 0.51,0.17 0.78,0.72 0.61,1.23 -0.22,0.69 -0.26,4.58 0.01,5.3 0.26,0.45 0.12,1.02 -0.32,1.3 -0.16,0.11 -0.34,0.16 -0.52,0.16z"/>
  </g>
  <path class="fil1" d="M40.76 53.28c-0.49,0 -0.91,-0.37 -0.96,-0.86 -0.18,-1.6 -0.6,-3.16 -1,-4.67 -0.83,-3.12 -1.69,-6.35 -0.22,-9.58 0.22,-0.49 0.8,-0.7 1.29,-0.48 0.49,0.22 0.7,0.8 0.48,1.29 -1.18,2.6 -0.48,5.23 0.33,8.27 0.42,1.58 0.86,3.21 1.05,4.95 0.06,0.53 -0.32,1.02 -0.86,1.08 -0.03,0 -0.07,0 -0.11,0z"/>
  <path class="fil1" d="M42.9 50.19c-0.43,0 -0.83,-0.29 -0.94,-0.73 -0.26,-1.03 -0.66,-3.19 -0.7,-4.36 -0.03,-0.77 -0.05,-3.38 0.86,-4.92 0.27,-0.47 0.86,-0.62 1.33,-0.35 0.46,0.27 0.62,0.87 0.35,1.33 -0.42,0.7 -0.65,2.26 -0.6,3.87 0.04,0.93 0.38,2.92 0.64,3.95 0.14,0.52 -0.18,1.05 -0.7,1.18 -0.08,0.02 -0.16,0.03 -0.24,0.03z"/>
  <path class="fil1" d="M53.07 54.89c-0.42,0 -0.81,-0.28 -0.93,-0.71 -0.15,-0.51 0.15,-1.05 0.67,-1.2 1.26,-0.35 2.04,-0.81 2.96,-1.35 0.69,-0.41 1.41,-0.83 2.39,-1.25 1.64,-0.68 2.93,-0.6 3.28,-0.55 0.65,0.07 1.05,0.32 1.52,0.6 0.35,0.21 0.78,0.47 1.51,0.79 0.28,0.12 1.14,0.65 1.45,1.02 0.34,0.41 0.28,1.03 -0.13,1.37 -0.42,0.34 -1.03,0.28 -1.37,-0.13 -0.1,-0.09 -0.58,-0.41 -0.73,-0.48 -0.84,-0.37 -1.36,-0.68 -1.73,-0.9 -0.4,-0.24 -0.53,-0.32 -0.75,-0.34 -0.37,-0.04 -1.28,-0.01 -2.3,0.42 -0.86,0.36 -1.52,0.75 -2.16,1.13 -0.94,0.55 -1.91,1.13 -3.42,1.55 -0.08,0.02 -0.17,0.03 -0.26,0.03z"/>
  <path class="fil1" d="M54.14 49.84c-0.36,0 -0.71,-0.2 -0.88,-0.56 -0.23,-0.48 -0.02,-1.06 0.47,-1.29 0.62,-0.29 1.04,-0.52 1.41,-0.72 0.96,-0.51 1.5,-0.77 3.22,-1.13 0.42,-0.08 0.78,-0.16 1.11,-0.24 2.01,-0.43 2.76,-0.59 5.5,-0.16l0.28 0.04c0.9,0.13 2.01,0.29 2.78,1 0.4,0.36 0.43,0.98 0.07,1.37 -0.37,0.4 -0.98,0.43 -1.38,0.07 -0.33,-0.31 -1.15,-0.43 -1.75,-0.52l-0.3 -0.04c-2.39,-0.37 -2.89,-0.26 -4.78,0.15 -0.34,0.07 -0.71,0.15 -1.14,0.24 -1.52,0.31 -1.86,0.49 -2.69,0.94 -0.37,0.2 -0.84,0.45 -1.51,0.76 -0.13,0.06 -0.27,0.09 -0.41,0.09z"/>
  <path class="fil1" d="M85.15 50.64c0,0 0,0 0,0 0,0 0,0 0,0zm0.12 0.15l-0.12 -0.15zm0.87 0.53c-0.31,0 -0.6,-0.15 -0.79,-0.4 -0.4,-0.24 -1.84,-0.5 -2.33,-0.59 -0.24,-0.05 -0.44,-0.09 -0.58,-0.12 -2.14,-0.47 -3.83,-0.44 -5.48,0.11 -0.51,0.17 -1.06,-0.1 -1.23,-0.61 -0.17,-0.51 0.1,-1.06 0.61,-1.23 1.98,-0.66 4.06,-0.72 6.52,-0.17 0.12,0.03 0.3,0.06 0.51,0.1 2.15,0.4 3.24,0.72 3.63,1.5 0.25,0.48 0.06,1.06 -0.42,1.3 -0.14,0.07 -0.3,0.11 -0.44,0.11z"/>
  <path class="fil1" d="M83.97 55.75c-0.26,0 -0.52,-0.11 -0.71,-0.31 -0.18,-0.2 -0.35,-0.41 -0.52,-0.64 -0.16,-0.22 -0.3,-0.41 -0.42,-0.58 -0.71,-1 -0.71,-1 -2.51,-1.34 -0.86,-0.16 -1.55,-0.25 -1.78,-0.24 -0.4,0.01 -0.78,0.1 -1.19,0.3 -0.29,0.13 -1.27,0.75 -1.46,0.91 -0.42,0.35 -1.03,0.28 -1.37,-0.13 -0.34,-0.42 -0.28,-1.03 0.13,-1.37 0.34,-0.28 1.46,-0.98 1.87,-1.17 0.67,-0.31 1.31,-0.47 1.99,-0.48 0.62,-0.01 1.81,0.21 2.17,0.27 2.41,0.45 2.65,0.59 3.74,2.12 0.12,0.17 0.25,0.36 0.4,0.57 0.12,0.16 0.24,0.31 0.37,0.45 0.37,0.39 0.35,1.01 -0.05,1.38 -0.18,0.17 -0.42,0.26 -0.66,0.26z"/>
  <path class="fil1" d="M74.24 67.38c-0.92,0 -2.02,-0.33 -2.65,-0.97 -0.06,-0.07 -0.12,-0.13 -0.18,-0.2 -0.18,-0.21 -0.3,-0.34 -0.85,-0.49 -0.97,-0.26 -1.41,-0.03 -2.02,0.3 -0.66,0.35 -1.56,0.82 -2.91,0.4 -1.52,-0.49 -2.43,-2.7 -2.31,-4.48 0.09,-1.47 1.02,-2.69 1.86,-3.03 0.5,-0.2 1.07,0.05 1.27,0.55 0.19,0.49 -0.04,1.05 -0.53,1.25 -0.18,0.11 -0.62,0.65 -0.66,1.36 -0.07,1.16 0.54,2.36 0.96,2.49 0.57,0.18 0.85,0.04 1.4,-0.26 0.74,-0.39 1.74,-0.92 3.45,-0.46 1.04,0.28 1.46,0.69 1.81,1.1 0.03,0.03 0.07,0.07 0.1,0.11 0.27,0.27 1.14,0.47 1.55,0.35 0.29,-0.09 0.47,-0.22 0.7,-0.38 0.23,-0.17 0.49,-0.35 0.84,-0.47 0.69,-0.24 1.14,0.12 1.31,0.25 0.09,0.07 0.17,0.14 0.51,0.18 0.06,0.01 0.15,0.02 0.18,-0.02 0.09,-0.11 0.15,-0.47 -0.02,-0.92 -0.13,-0.39 -1.2,-1.9 -1.83,-2.8 -0.58,-0.82 -1.13,-1.6 -1.4,-2.07 -1.49,-2.55 -2.12,-4.44 -1.45,-7.69 0.1,-0.52 0.62,-0.86 1.15,-0.75 0.52,0.11 0.86,0.62 0.75,1.15 -0.55,2.67 -0.09,4.05 1.23,6.31 0.23,0.4 0.76,1.14 1.31,1.93 1.15,1.64 1.86,2.67 2.07,3.26 0.38,1.03 0.26,2.11 -0.3,2.81 -0.46,0.56 -1.17,0.83 -1.94,0.72 -0.55,-0.07 -0.91,-0.22 -1.18,-0.38 -0.02,0.02 -0.05,0.04 -0.08,0.06 -0.29,0.21 -0.68,0.5 -1.3,0.68 -0.25,0.07 -0.54,0.11 -0.84,0.11z"/>
  <path class="fil1" d="M57.75 74.65c-0.25,0 -0.49,-0.15 -0.6,-0.39l-0.03 -0.09c-0.54,-0.95 -0.45,-2.37 0.24,-4.23 0.56,-1.49 2.08,-3.35 3.43,-5 0.51,-0.63 1,-1.23 1.39,-1.75 0.21,-0.28 0.62,-0.34 0.9,-0.13 0.29,0.21 0.35,0.62 0.14,0.91 -0.4,0.54 -0.9,1.15 -1.43,1.79 -1.28,1.57 -2.73,3.34 -3.21,4.63 -0.54,1.44 -0.66,2.59 -0.32,3.16 0.01,0.02 0.02,0.05 0.03,0.07l0.06 0.12c0.14,0.33 -0.01,0.71 -0.34,0.86 -0.09,0.03 -0.17,0.05 -0.26,0.05z"/>
  <path class="fil1" d="M79.98 73.64c-0.33,0 -0.61,-0.24 -0.64,-0.58 -0.11,-1.01 -0.41,-1.91 -0.7,-2.77 -0.2,-0.58 -0.4,-1.18 -0.54,-1.79 -0.07,-0.35 0.15,-0.7 0.5,-0.78 0.34,-0.08 0.69,0.14 0.77,0.49 0.12,0.55 0.3,1.09 0.5,1.66 0.31,0.94 0.63,1.9 0.76,3.05 0.03,0.36 -0.22,0.68 -0.58,0.72 -0.02,0 -0.05,0 -0.07,0z"/>
  <path class="fil1" d="M78.2 75.41c-0.22,0 -0.45,-0.08 -0.64,-0.24 -0.14,-0.12 -0.3,-0.28 -0.47,-0.45 -0.5,-0.5 -1.07,-1.07 -1.79,-1.25 -0.79,-0.2 -2.05,-0.01 -2.89,0.12 -0.15,0.03 -0.3,0.05 -0.43,0.07 -2.8,0.39 -4.2,0.03 -5.83,-0.4 -0.8,-0.21 -1.62,-0.42 -2.74,-0.57 -0.3,-0.04 -0.54,-0.1 -0.75,-0.15 -0.56,-0.14 -0.9,-0.22 -2.51,0.49 -0.49,0.22 -1.07,-0.01 -1.29,-0.5 -0.21,-0.49 0.01,-1.07 0.5,-1.28 2.07,-0.92 2.81,-0.84 3.77,-0.6 0.16,0.04 0.33,0.08 0.54,0.11 1.23,0.17 2.16,0.41 2.97,0.62 1.54,0.4 2.65,0.69 5.07,0.35 0.12,-0.02 0.26,-0.04 0.41,-0.06 0.99,-0.16 2.48,-0.39 3.66,-0.09 1.23,0.32 2.07,1.15 2.68,1.76 0.14,0.14 0.26,0.27 0.38,0.37 0.41,0.35 0.45,0.97 0.1,1.37 -0.2,0.22 -0.47,0.33 -0.74,0.33z"/>
  <path class="fil1" d="M70.4 77.71c-2.64,0 -5.45,-0.73 -6.8,-1.73 -0.09,-0.05 -0.6,-0.32 -0.71,-0.37 -0.49,-0.21 -0.72,-0.78 -0.51,-1.27 0.21,-0.49 0.77,-0.73 1.26,-0.52 0.12,0.05 0.89,0.42 1.12,0.6 1.88,1.4 7.39,1.93 9.16,0.53 0.43,-0.34 1.04,-0.27 1.37,0.15 0.33,0.42 0.26,1.04 -0.16,1.37 -1.1,0.88 -2.87,1.24 -4.73,1.24z"/>
  <path class="fil1" d="M67.93 40.84c6.23,0 13.38,0.46 17.79,2.26 0.15,0.06 0.41,0.16 0.76,0.29 1.5,0.54 2.74,1.03 3.77,1.49 -2.81,-2.26 -7.43,-5.16 -9.97,-6.4 -4.74,-2.3 -13.1,-3.3 -17.06,-3.11 -8.02,0.38 -13.25,1.03 -21.49,2.66 6.27,3.18 13.15,3.3 18.59,3.02 2.11,-0.12 4.77,-0.21 7.61,-0.21zm21.77 9.73c-0.85,0 -1.7,-0.07 -2.42,-0.12 -0.46,-0.03 -1.04,-0.07 -1.19,-0.05 -0.53,0.06 -1.02,-0.32 -1.08,-0.85 -0.07,-0.53 0.3,-1.01 0.83,-1.08 0.32,-0.04 0.76,-0.02 1.58,0.04 1.19,0.09 2.99,0.22 4.07,-0.05 0.36,-0.09 0.6,-0.18 0.74,-0.25 -0.46,-0.46 -1.94,-1.36 -6.42,-3 -0.38,-0.13 -0.67,-0.24 -0.83,-0.31 -6.29,-2.57 -19.26,-2.19 -24.55,-1.91 -6.35,0.34 -14.56,0.13 -21.81,-4.5 -0.25,-0.15 -0.41,-0.42 -0.44,-0.71 -0.04,-0.29 0.07,-0.59 0.28,-0.79 0.24,-0.25 0.45,-0.38 2.82,-0.85 8.29,-1.65 13.8,-2.33 21.85,-2.72 4.27,-0.2 12.91,0.84 18,3.31 1.45,0.7 12.42,6.83 13.35,10.21 0.18,0.65 0.02,1.13 -0.16,1.44 0,0 0,0.01 0,0.01 -0.07,1.38 -1.79,1.81 -2.36,1.95 -0.67,0.17 -1.47,0.23 -2.26,0.23z"/>
  <path class="fil1" d="M52.27 35.94c-0.29,0 -0.55,-0.19 -0.63,-0.48 -0.45,-1.66 -0.19,-4.4 0,-5.89 0.27,-2.14 1.47,-9.4 5.28,-13.26 0.25,-0.25 0.66,-0.25 0.92,0 0.25,0.25 0.25,0.66 0,0.91 -2.8,2.84 -4.37,8.33 -4.92,12.51 -0.3,2.37 -0.31,4.33 -0.03,5.39 0.1,0.34 -0.11,0.7 -0.45,0.79 -0.06,0.02 -0.12,0.03 -0.17,0.03z"/>
  <path class="fil1" d="M31 44.84c-0.38,0 -0.74,-0.22 -0.9,-0.59 -0.23,-0.55 -0.94,-2.23 2.19,-13.13 1.8,-6.27 5.39,-10.98 10.67,-13.99 8.06,-4.6 18.99,-4.36 25.73,-2.19 4.88,1.56 10.49,4.86 15.41,9.05 3.73,3.17 4.58,10.77 4.91,17.78 0.02,0.54 -0.39,1 -0.93,1.02 -0.52,0.03 -0.99,-0.39 -1.01,-0.92 -0.19,-3.99 -0.64,-13.34 -4.24,-16.4 -4.72,-4.03 -10.1,-7.19 -14.73,-8.68 -6.35,-2.05 -16.62,-2.28 -24.18,2.03 -4.82,2.75 -8.1,7.07 -9.76,12.84 -2.32,8.08 -2.52,11.24 -2.27,11.83 0.21,0.5 -0.02,1.07 -0.51,1.28 -0.13,0.05 -0.26,0.07 -0.38,0.07z"/>
  <path class="fil1" d="M77.06 30.18c-0.38,0 -0.72,-0.43 -1.52,-1.43 -0.83,-1.04 -2.08,-2.61 -2.88,-3.09 -0.46,-0.28 -1.09,-0.81 -1.75,-1.36 -0.22,-0.19 -0.45,-0.39 -0.67,-0.57 0.08,0.91 0,1.93 -0.08,2.85 -0.06,0.67 -0.13,1.49 -0.05,1.74 0.1,0.35 -0.09,0.71 -0.43,0.81 -0.34,0.11 -0.71,-0.09 -0.81,-0.43 -0.15,-0.49 -0.09,-1.25 0,-2.23 0.08,-0.99 0.17,-2.11 0.03,-2.96 -0.02,-0.16 -0.06,-0.32 -0.09,-0.45 -0.09,-0.39 -0.21,-0.89 0.24,-1.18 0.48,-0.31 0.97,0.05 1.44,0.4 0.37,0.27 0.82,0.66 1.26,1.03 0.59,0.5 1.21,1.01 1.58,1.23 0.93,0.57 2.12,2.01 3.03,3.16 0.02,-0.47 0.04,-1.05 0.06,-1.77 0.03,-0.64 0.06,-1.43 0.05,-1.58 -0.03,-0.36 0.23,-0.67 0.59,-0.7 0.35,-0.03 0.67,0.23 0.7,0.59 0.02,0.22 0,0.74 -0.04,1.74 -0.04,0.97 -0.11,2.79 -0.04,3.12 0.2,0.6 -0.09,0.87 -0.28,0.97 -0.12,0.07 -0.24,0.11 -0.34,0.11z"/>
  <g>
   <path class="fil1" d="M73.3 24.5l0.01 0 -0.01 0zm0.23 5.4c-0.08,0 -0.16,-0.01 -0.24,-0.05 -0.33,-0.13 -0.49,-0.51 -0.36,-0.84 0.13,-0.49 0.42,-3.86 0.24,-4.61 -0.38,-0.31 -0.75,-0.89 -1.29,-1.75 -0.34,-0.54 -0.91,-1.45 -1.15,-1.59 -0.35,-0.08 -0.54,-0.42 -0.46,-0.77 0.08,-0.35 0.46,-0.56 0.81,-0.48 0.62,0.15 1.13,0.91 1.9,2.15 0.33,0.53 0.82,1.32 1.03,1.45 1.06,0.69 0.14,6.04 0.13,6.09 -0.11,0.25 -0.35,0.4 -0.61,0.4z"/>
  </g>
  <path class="fil1" d="M73.92 24.26c-0.01,0 -0.02,0 -0.03,0 -0.36,0 -0.64,-0.3 -0.63,-0.66 0,-0.36 0.31,-0.63 0.66,-0.63 0.22,-0.03 0.73,-0.74 0.95,-1.05 0.18,-0.24 0.34,-0.48 0.51,-0.66 0.24,-0.26 0.65,-0.28 0.92,-0.04 0.26,0.24 0.28,0.65 0.04,0.91 -0.12,0.13 -0.26,0.33 -0.42,0.55 -0.5,0.7 -1.14,1.58 -2,1.58z"/>
  <path class="fil1" d="M64.94 15.38c-0.33,0 -0.61,-0.24 -0.65,-0.57 -0.11,-1.03 -0.71,-1.5 -1.19,-1.73 -0.38,-0.17 -1.16,-0.21 -1.83,0.06 -0.32,0.13 -0.73,0.39 -0.91,0.86 -0.12,0.34 -0.49,0.51 -0.83,0.39 -0.34,-0.13 -0.51,-0.5 -0.38,-0.84 0.26,-0.72 0.83,-1.28 1.62,-1.61 0.94,-0.38 2.1,-0.4 2.88,-0.03 1.1,0.51 1.79,1.48 1.93,2.75 0.04,0.35 -0.21,0.68 -0.57,0.72 -0.02,0 -0.05,0 -0.07,0z"/>
  <path class="fil1" d="M64.75 92.66c-0.61,0 -1.24,-0.04 -1.88,-0.12 -4.5,-0.59 -9.12,-2.88 -11.94,-4.82 -4.24,-2.91 -11.09,-9.05 -11.49,-11.23 -0.1,-0.53 0.25,-1.04 0.78,-1.14 0.53,-0.09 1.03,0.26 1.13,0.78 0.28,1.06 5.4,6.36 10.68,9.99 2.64,1.81 6.94,3.94 11.09,4.49 6.5,0.85 11.17,-3.69 14.51,-7.75 2.1,-2.55 3.88,-5.31 4.54,-7.03 2.01,-5.32 2.74,-11.89 2.74,-16.26 0,-0.86 -0.05,-1.87 -0.09,-2.85 -0.09,-1.98 -0.16,-3.68 0.07,-4.64 0.33,-1.32 0.04,-3.48 -0.22,-5.38 -0.13,-0.97 -0.26,-1.89 -0.29,-2.65 -0.03,-0.54 0.39,-0.99 0.92,-1.02 0.54,-0.03 0.99,0.39 1.02,0.93 0.03,0.67 0.15,1.55 0.28,2.47 0.28,2.08 0.6,4.43 0.18,6.12 -0.17,0.68 -0.09,2.49 -0.01,4.09 0.04,0.99 0.09,2.02 0.08,2.93 0,4.55 -0.75,11.39 -2.86,16.95 -0.74,1.93 -2.6,4.84 -4.86,7.58 -3.34,4.06 -7.93,8.56 -14.38,8.56z"/>
  <path class="fil1" d="M34.26 88.13c-0.44,0 -0.84,-0.3 -0.95,-0.75 -0.07,-0.28 -0.06,-0.66 0.46,-7.58 0.15,-2.12 0.3,-4.12 0.33,-4.75 0.09,-1.95 0.13,-4.17 0.16,-6.13 0.03,-1.85 0.06,-3.45 0.12,-4.39 0.04,-0.54 0.5,-0.95 1.04,-0.91 0.54,0.04 0.94,0.5 0.91,1.04 -0.06,0.89 -0.09,2.47 -0.12,4.29 -0.04,1.98 -0.07,4.21 -0.16,6.19 -0.03,0.66 -0.18,2.58 -0.34,4.81 -0.21,2.77 -0.49,6.56 -0.49,7.1 0.06,0.48 -0.25,0.94 -0.74,1.06 -0.07,0.01 -0.15,0.02 -0.22,0.02z"/>
  <path class="fil1" d="M26.72 87.19c-0.33,0 -0.65,-0.17 -0.83,-0.48 -0.28,-0.45 -0.13,-1.05 0.33,-1.33 3.15,-1.9 3.66,-3.76 4.16,-5.57 0.2,-0.73 0.39,-1.43 0.75,-2.09 0.51,-0.95 3.14,-2.65 3.16,-2.67 0.46,-0.28 1.06,-0.14 1.34,0.31 0.29,0.46 0.15,1.06 -0.31,1.34 -0.77,0.48 -2.26,1.63 -2.49,1.96 -0.24,0.45 -0.39,1.02 -0.57,1.67 -0.52,1.86 -1.22,4.41 -5.04,6.72 -0.15,0.09 -0.33,0.14 -0.5,0.14z"/>
  <path class="fil1" d="M73.89 103.11c-0.26,0 -0.52,-0.1 -0.71,-0.31 -0.96,-1.02 -3.01,-2.7 -3.88,-3.42 -0.51,-0.42 -0.52,-0.43 -0.6,-0.53 -1.25,-1.6 -0.32,-2.98 0.36,-3.98 0.29,-0.43 0.57,-0.85 0.73,-1.28 -1.73,-0.17 -5.42,-0.51 -8.3,-0.78 -2.77,-0.25 -5.15,-0.47 -5.44,-0.51 -8.62,-0.91 -14.9,-1.66 -23.48,-3.66 -0.52,-0.12 -0.85,-0.64 -0.72,-1.17 0.12,-0.52 0.64,-0.84 1.16,-0.72 8.47,1.97 14.7,2.71 23.24,3.62 0.3,0.03 2.67,0.25 5.42,0.51 9.56,0.88 9.56,0.88 9.8,1.06 0.24,0.17 0.38,0.44 0.4,0.74 0.06,1.4 -0.64,2.44 -1.2,3.28 -0.68,1 -0.76,1.24 -0.48,1.63 0.07,0.06 0.19,0.16 0.35,0.29 0.98,0.8 3.02,2.48 4.06,3.59 0.37,0.4 0.34,1.01 -0.05,1.38 -0.19,0.17 -0.42,0.26 -0.66,0.26z"/>
  <path class="fil1" d="M61.09 100.84c-2.76,0 -5.46,-0.19 -7.62,-0.81 -4.98,-1.42 -13.52,-3.54 -16.67,-3.55 -0.54,0 -0.98,-0.44 -0.98,-0.97 0.01,-0.54 0.44,-0.97 0.98,-0.97l0 0c3.61,0 12.83,2.37 17.21,3.62 3.67,1.05 9.34,0.73 13.89,0.48 0.8,-0.05 1.56,-0.09 2.27,-0.12 0.53,-0.03 0.99,0.39 1.02,0.92 0.02,0.54 -0.39,1 -0.93,1.02 -0.7,0.03 -1.46,0.08 -2.25,0.12 -2.16,0.12 -4.56,0.26 -6.92,0.26z"/>
  <path class="fil1" d="M57.47 56.79c-0.3,0 -0.56,-0.2 -0.63,-0.49 -0.09,-0.35 0.13,-0.7 0.48,-0.79 0.54,-0.12 0.87,-0.18 1.22,-0.23 0.21,-0.04 0.44,-0.07 0.74,-0.13 0.78,-0.15 1.38,-0.18 1.91,-0.2 1.01,-0.05 1.68,-0.09 3,-0.98 0.3,-0.2 0.7,-0.12 0.9,0.17 0.2,0.3 0.12,0.7 -0.17,0.91 -1.63,1.09 -2.58,1.14 -3.67,1.19 -0.51,0.03 -1.04,0.05 -1.73,0.18 -0.31,0.06 -0.55,0.1 -0.77,0.14 -0.34,0.05 -0.63,0.1 -1.13,0.22 -0.05,0.01 -0.1,0.01 -0.15,0.01z"/>
  <path class="fil1" d="M80.93 56.66c-1.8,0 -5.2,-1.43 -6.51,-2.1 -0.32,-0.17 -0.45,-0.56 -0.28,-0.88 0.16,-0.31 0.55,-0.44 0.87,-0.28 1.44,0.74 4.66,2.03 6,1.96 0.35,-0.01 0.66,0.26 0.68,0.61 0.02,0.36 -0.26,0.67 -0.62,0.68 -0.05,0.01 -0.09,0.01 -0.14,0.01z"/>
  <path class="fil2" d="M59.46 50.83c0.83,-0.04 1.54,0.6 1.58,1.44 0.04,0.83 -0.61,1.54 -1.44,1.58 -0.84,0.04 -1.54,-0.61 -1.58,-1.44 -0.04,-0.84 0.6,-1.55 1.44,-1.58z"/>
  <path class="fil2" d="M78.81 51.3c0.81,-0.04 1.5,0.59 1.54,1.4 0.04,0.82 -0.59,1.51 -1.4,1.55 -0.81,0.03 -1.5,-0.59 -1.54,-1.41 -0.04,-0.81 0.59,-1.5 1.4,-1.54z"/>
  <path class="fil1" d="M46.02 47.79c-0.42,0 -0.8,-0.26 -0.93,-0.68 -0.51,-1.59 -1.18,-4.55 -0.06,-6.47 0.27,-0.46 0.87,-0.62 1.33,-0.35 0.46,0.27 0.62,0.87 0.35,1.33 -0.63,1.08 -0.29,3.24 0.23,4.9 0.17,0.52 -0.12,1.06 -0.63,1.22 -0.1,0.04 -0.2,0.05 -0.29,0.05z"/>
  <path class="fil1" d="M31.03 41.64c-0.35,0 -0.68,-0.18 -0.86,-0.51 -0.25,-0.48 -0.07,-1.06 0.4,-1.32 0.2,-0.1 0.51,-0.33 0.61,-0.43 1.25,-1.33 6.74,-2.88 8.12,-2.67 0.53,0.09 0.89,0.59 0.8,1.12 -0.08,0.53 -0.58,0.89 -1.11,0.81 -0.87,-0.11 -5.62,1.25 -6.39,2.08 -0.31,0.32 -0.85,0.67 -1.11,0.81 -0.15,0.08 -0.31,0.11 -0.46,0.11z"/>
  <path class="fil1" d="M52.02 91.62c-0.09,0 -0.17,-0.02 -0.26,-0.06 -3.65,-1.59 -5.55,-3.14 -7.96,-5.11 -0.59,-0.49 -1.22,-1 -1.91,-1.54 -0.28,-0.23 -0.33,-0.63 -0.11,-0.91 0.22,-0.29 0.63,-0.34 0.91,-0.11 0.7,0.55 1.33,1.06 1.93,1.55 2.33,1.91 4.18,3.41 7.66,4.93 0.33,0.15 0.48,0.53 0.34,0.86 -0.11,0.24 -0.35,0.39 -0.6,0.39z"/>
  <path class="fil1" d="M35.93 102.09c-0.29,0 -0.55,-0.19 -0.63,-0.48 -0.09,-0.34 0.12,-0.7 0.46,-0.79 4.57,-1.23 6.63,-1.02 10.84,-0.42 3.24,0.45 5.92,0.02 8.75,-0.44 1.76,-0.29 3.57,-0.58 5.59,-0.68 0.35,-0.01 0.66,0.26 0.68,0.62 0.02,0.36 -0.26,0.66 -0.62,0.68 -1.94,0.09 -3.72,0.38 -5.44,0.66 -2.93,0.47 -5.71,0.93 -9.14,0.44 -4.14,-0.58 -5.99,-0.78 -10.32,0.39 -0.06,0.02 -0.11,0.02 -0.17,0.02z"/>
  <path class="fil1" d="M56.44 78.79c-0.18,0 -0.36,-0.08 -0.49,-0.22 -3.61,-4.12 -3.91,-5.62 -3.85,-8.87 0.01,-0.36 0.31,-0.63 0.66,-0.64 0.36,0.01 0.65,0.3 0.64,0.66 -0.05,2.89 0.1,4.08 3.53,7.99 0.23,0.27 0.21,0.68 -0.06,0.92 -0.13,0.11 -0.28,0.16 -0.43,0.16z"/>
 </g>
</svg>
