<?xml version="1.0" encoding="UTF-8"?>
<!DOCTYPE svg PUBLIC "-//W3C//DTD SVG 1.1//EN" "http://www.w3.org/Graphics/SVG/1.1/DTD/svg11.dtd">
<!-- Creator: CorelDRAW 2018 (64-Bit) -->
<svg xmlns="http://www.w3.org/2000/svg" xml:space="preserve" width="845px" height="845px" version="1.1" style="shape-rendering:geometricPrecision; text-rendering:geometricPrecision; image-rendering:optimizeQuality; fill-rule:evenodd; clip-rule:evenodd"
viewBox="0 0 116.01 116.01"
 xmlns:xlink="http://www.w3.org/1999/xlink">
 <defs>
  <style type="text/css">
   <![CDATA[
    .fil0 {fill:none}
    .fil2 {fill:black}
    .fil1 {fill:black;fill-rule:nonzero}
   ]]>
  </style>
 </defs>
 <g id="Слой_x0020_1">
  <metadata id="CorelCorpID_0Corel-Layer"/>
  <rect class="fil0" width="116.01" height="116.01"/>
 </g>
 <g id="_1">
  <metadata id="CorelCorpID_1Corel-Layer"/>
  <g>
   <path class="fil1" d="M59.06 44.45l0 0 0 0zm9.36 2.81c-0.21,0 -0.43,-0.07 -0.61,-0.22 -0.91,-0.73 -1.12,-1.34 -1.29,-1.82 -0.02,-0.08 -0.05,-0.15 -0.08,-0.22 -0.17,-0.45 -0.38,-0.83 -1.16,-1.05 -0.84,-0.23 -1.8,0.02 -3.03,0.78l-0.21 0.13c-2.19,1.39 -2.59,1.54 -2.98,1.54 -0.54,0 -0.98,-0.44 -0.98,-0.97 0,-0.48 0.35,-0.88 0.81,-0.96 0.19,-0.08 0.71,-0.37 2.11,-1.25l0.22 -0.14c0.62,-0.39 2.53,-1.58 4.58,-1 1.59,0.44 2.16,1.47 2.45,2.19 0.04,0.11 0.08,0.21 0.11,0.31 0.12,0.35 0.2,0.56 0.67,0.95 0.42,0.33 0.49,0.95 0.15,1.36 -0.19,0.24 -0.48,0.37 -0.76,0.37z"/>
  </g>
  <path class="fil1" d="M56.28 46.31c-0.36,0 -0.7,-0.19 -0.87,-0.53 -0.25,-0.48 -0.06,-1.06 0.42,-1.31 0.35,-0.17 0.59,-0.28 0.8,-0.38 0.38,-0.18 0.58,-0.26 1.16,-0.67 0.65,-0.45 1.01,-0.97 1.42,-1.57 0.65,-0.93 1.38,-1.98 3.18,-2.63 1.42,-0.5 4.52,-0.51 5.65,0.43 0.42,0.34 0.48,0.95 0.13,1.36 -0.34,0.42 -0.95,0.48 -1.37,0.14 -0.39,-0.29 -2.59,-0.51 -3.76,-0.09 -1.21,0.43 -1.66,1.08 -2.23,1.9 -0.46,0.66 -0.98,1.41 -1.91,2.06 -0.72,0.5 -1.03,0.64 -1.46,0.84 -0.19,0.09 -0.41,0.19 -0.72,0.35 -0.14,0.07 -0.3,0.1 -0.44,0.1z"/>
  <path class="fil1" d="M85.74 48.82c-0.45,0 -0.85,-0.31 -0.95,-0.77 -0.11,-0.54 -0.57,-1.39 -1.24,-2 -0.24,-0.21 -0.63,-0.41 -0.9,-0.52 -0.63,-0.26 -2.18,-0.18 -3.4,0.35 -0.63,0.28 -1.07,0.63 -1.2,0.96 -0.19,0.5 -0.75,0.76 -1.25,0.57 -0.5,-0.19 -0.76,-0.75 -0.57,-1.26 0.32,-0.84 1.1,-1.56 2.24,-2.05 1.64,-0.72 3.71,-0.87 4.92,-0.37 0.27,0.11 0.95,0.42 1.46,0.88 0.9,0.81 1.63,2.01 1.85,3.03 0.11,0.53 -0.23,1.05 -0.75,1.16 -0.07,0.01 -0.14,0.02 -0.21,0.02z"/>
  <path class="fil1" d="M85.85 49.71c-0.41,0 -0.79,-0.26 -0.92,-0.67 -0.17,-0.53 -0.19,-1.47 -0.16,-3.04 0,-0.25 0.01,-0.45 0,-0.55 -0.05,-1.56 -0.74,-2.73 -1.82,-3.14 -1.37,-0.51 -3.13,0.19 -4.72,1.87 -0.37,0.39 -0.99,0.41 -1.38,0.04 -0.39,-0.37 -0.4,-0.99 -0.04,-1.38 2.15,-2.27 4.7,-3.15 6.82,-2.35 1.85,0.7 3,2.52 3.09,4.89 0,0.12 0,0.36 -0.01,0.66 -0.01,0.51 -0.03,2.05 0.07,2.4 0.15,0.51 -0.13,1.06 -0.64,1.22 -0.1,0.03 -0.2,0.05 -0.29,0.05z"/>
  <path class="fil1" d="M59.66 39.59c-0.34,0 -0.67,-0.18 -0.85,-0.5 -0.27,-0.47 -0.1,-1.06 0.37,-1.32 0.79,-0.45 2.73,-1.49 3.73,-1.59 2.4,-0.25 3.21,-0.01 5.17,0.58l0.4 0.12c0.4,0.12 1.34,0.4 1.73,0.3 0.52,-0.13 1.05,0.18 1.18,0.7 0.13,0.53 -0.19,1.05 -0.71,1.19 -0.83,0.21 -1.82,-0.05 -2.75,-0.33l-0.41 -0.12c-1.84,-0.55 -2.39,-0.72 -4.41,-0.51 -0.35,0.04 -1.56,0.55 -2.98,1.35 -0.15,0.09 -0.31,0.13 -0.47,0.13z"/>
  <path class="fil1" d="M75.92 59.36c-0.66,0 -1.33,-0.15 -1.9,-0.52 -0.74,-0.47 -1.49,-0.33 -2.65,-0.04 -0.65,0.17 -1.33,0.34 -2,0.27l-0.11 0c-1.4,-0.1 -2.18,-0.8 -2.32,-2.09 -0.06,-0.54 0.33,-1.02 0.86,-1.07 0.54,-0.06 1.02,0.33 1.07,0.86 0.04,0.32 0.04,0.32 0.52,0.35l0.15 0.02c0.35,0.03 0.84,-0.09 1.36,-0.22 1.12,-0.29 2.67,-0.67 4.17,0.28 0.63,0.41 1.69,0.16 2.21,-0.14 0.97,-0.56 0.48,-3.45 -0.23,-5.23 -0.8,-2 -0.82,-2.93 -0.86,-4.62l-0.02 -0.74c-0.13,-3.89 -0.09,-4.17 -0.08,-4.27 0.29,-2.41 1.51,-2.97 2.93,-3.62 0.17,-0.07 0.35,-0.15 0.53,-0.24 0.19,-0.09 0.38,-0.19 0.58,-0.29 0.95,-0.48 2.14,-1.07 3.69,-1.22 2.18,-0.2 4.84,2.52 5.5,4.01 0.22,0.49 0,1.06 -0.5,1.28 -0.49,0.22 -1.06,-0.01 -1.28,-0.5 -0.51,-1.16 -2.57,-2.94 -3.54,-2.85 -1.18,0.11 -2.11,0.57 -3,1.02 -0.21,0.11 -0.41,0.21 -0.61,0.3 -0.2,0.1 -0.38,0.18 -0.56,0.26 -1.34,0.61 -1.65,0.76 -1.81,2.08 -0.01,0.18 0.01,1.52 0.09,3.98l0.02 0.75c0.04,1.65 0.06,2.27 0.73,3.95 0.1,0.24 2.33,5.94 -0.61,7.63 -0.63,0.37 -1.48,0.62 -2.33,0.62z"/>
  <path class="fil1" d="M55.8 73.06c0,0 0,0 0,0 0,0 0,0 0,0zm-31.66 14l-0.02 0c-5.02,-0.09 -7.18,-2.17 -7.23,-6.95 -0.01,-0.83 -0.26,-1.39 -0.58,-2.1 -0.41,-0.89 -0.87,-1.9 -0.86,-3.52 0.01,-1.68 0.96,-3.22 1.89,-4.7 0.54,-0.87 1.06,-1.7 1.32,-2.47 0.38,-1.09 0.35,-1.95 0.31,-2.87 -0.03,-0.87 -0.07,-1.76 0.23,-2.84 0.38,-1.4 1.43,-2.85 3.11,-5.05 0.37,-0.49 0.71,-1.12 1,-1.84 0.35,-0.86 0.61,-1.65 0.84,-2.34 0.86,-2.61 1.48,-4.49 5.16,-6.5 1.58,-0.87 3.35,-1.33 4.92,-1.74 1.67,-0.43 3.25,-0.85 4.01,-1.61 1.13,-1.15 1.65,-2.86 1.98,-4.22 0.32,-1.34 0.52,-2.62 0.74,-3.97 0.11,-0.74 0.23,-1.49 0.37,-2.25 0.21,-1.12 0.76,-2.36 1,-2.89 0.26,-0.59 0.56,-1.08 0.85,-1.55 0.32,-0.52 0.62,-1.01 0.81,-1.56 1.65,-4.71 3.65,-5.37 5.57,-6.01 0.98,-0.33 1.9,-0.63 2.84,-1.57 4.6,-4.6 6.69,-4.72 8.95,-4.39 1.31,0.19 2.51,0.02 3.78,-0.15 1.87,-0.26 4,-0.55 6.89,0.21 2.65,0.7 6.42,2.19 9.06,4.27 4.16,3.27 7.09,9.61 8.05,14.11 0.71,3.34 0.85,6.97 0.39,10.51l-0.07 0.53c-0.27,2.12 -0.56,4.32 -0.45,6.43 0.09,1.67 0.27,2.68 0.43,3.57 0.29,1.61 0.51,2.87 0.02,6.46 -0.11,0.81 -0.44,3.49 -0.72,5.86l-0.06 0.5c-0.13,1.03 -1.37,10.07 -6.42,11.77 -1.03,0.34 -2.06,1.28 -3.15,2.27 -3.17,2.89 -7.51,6.85 -16.2,-0.59 -0.44,-0.37 -1.72,-1.1 -2.96,-1.8 -3.96,-2.24 -5.84,-3.43 -6.06,-4.68 -0.09,-0.53 0.27,-1.03 0.8,-1.12 0.51,-0.09 0.99,0.24 1.11,0.73 0.39,0.7 3.45,2.44 5.11,3.38 1.5,0.85 2.69,1.52 3.26,2.01 7.39,6.32 10.42,3.56 13.63,0.63 1.25,-1.13 2.43,-2.2 3.84,-2.68 3.19,-1.07 4.74,-7.11 5.11,-10.16l0.06 -0.5c0.3,-2.48 0.61,-5.06 0.72,-5.88 0.45,-3.29 0.26,-4.36 0,-5.85 -0.17,-0.95 -0.37,-2.03 -0.46,-3.82 -0.12,-2.28 0.18,-4.57 0.46,-6.78l0.07 -0.53c0.43,-3.32 0.31,-6.73 -0.36,-9.85 -0.92,-4.31 -3.74,-10.15 -7.35,-12.99 -2.41,-1.9 -5.9,-3.27 -8.36,-3.92 -2.51,-0.66 -4.35,-0.41 -6.13,-0.17 -1.34,0.19 -2.74,0.38 -4.32,0.15 -1.48,-0.21 -3.01,-0.43 -7.3,3.85 -1.26,1.26 -2.5,1.67 -3.59,2.03 -1.69,0.56 -3.02,1.01 -4.35,4.82 -0.26,0.74 -0.63,1.34 -0.99,1.93 -0.27,0.44 -0.53,0.85 -0.73,1.32 -0.21,0.47 -0.7,1.56 -0.86,2.45 -0.14,0.75 -0.26,1.48 -0.37,2.21 -0.21,1.32 -0.43,2.7 -0.77,4.12 -0.39,1.6 -1.02,3.64 -2.49,5.13 -1.13,1.14 -2.96,1.62 -4.9,2.13 -1.53,0.39 -3.11,0.81 -4.48,1.56 -3,1.64 -3.42,2.9 -4.25,5.4 -0.24,0.72 -0.51,1.53 -0.87,2.46 -0.36,0.88 -0.78,1.65 -1.26,2.28 -1.49,1.97 -2.5,3.33 -2.78,4.39 -0.22,0.79 -0.19,1.47 -0.16,2.26 0.03,1 0.08,2.14 -0.42,3.58 -0.34,0.97 -0.93,1.93 -1.51,2.86 -0.78,1.25 -1.59,2.55 -1.59,3.68 -0.01,1.2 0.33,1.93 0.68,2.7 0.35,0.77 0.74,1.64 0.76,2.89 0.04,3.73 1.33,4.95 5.31,5.02 0.54,0.01 0.97,0.45 0.96,0.99 -0.01,0.53 -0.44,0.96 -0.97,0.96z"/>
  <path class="fil1" d="M29.83 47.67c-0.23,0 -0.45,-0.08 -0.64,-0.24 -0.4,-0.35 -0.44,-0.97 -0.09,-1.37 0.84,-0.96 1.47,-1.52 1.97,-1.98 1.1,-0.98 1.43,-1.28 2.24,-5.05 0.18,-0.8 0.28,-1.66 0.38,-2.56 0.23,-1.95 0.49,-4.16 1.61,-6.51 1.18,-2.5 3.29,-4.76 4.86,-5.89 1.26,-0.91 1.6,-1.53 2.08,-2.38 0.36,-0.64 0.77,-1.36 1.58,-2.29 2.13,-2.45 4.93,-4.43 8.34,-5.89 4.74,-2.04 7.26,-2.26 12.44,-1.89 2.61,0.19 4.92,0.62 6.86,1.29 1.25,0.44 6.17,3.04 7.52,4.13 0.41,0.34 0.48,0.96 0.14,1.37 -0.34,0.42 -0.95,0.49 -1.37,0.15 -1.15,-0.94 -5.88,-3.45 -6.93,-3.81 -1.78,-0.61 -3.92,-1.01 -6.36,-1.19 -4.9,-0.35 -7.13,-0.15 -11.54,1.74 -3.13,1.34 -5.7,3.15 -7.63,5.37 -0.69,0.79 -1.02,1.39 -1.35,1.97 -0.53,0.95 -1.04,1.84 -2.64,3.01 -1.32,0.95 -3.21,2.97 -4.25,5.15 -0.98,2.06 -1.2,4.01 -1.43,5.9 -0.11,0.95 -0.21,1.84 -0.4,2.74 -0.91,4.19 -1.41,4.8 -2.85,6.09 -0.46,0.42 -1.04,0.94 -1.81,1.81 -0.19,0.22 -0.46,0.33 -0.73,0.33z"/>
  <path class="fil1" d="M33.76 45.86c-0.2,0 -0.41,-0.09 -0.53,-0.27 -0.21,-0.3 -0.14,-0.7 0.16,-0.91 2.53,-1.77 2.87,-3.17 3.68,-6.52 0.28,-1.16 0.62,-2.6 1.14,-4.31 0.12,-0.43 0.22,-0.84 0.32,-1.25 0.37,-1.53 0.76,-3.1 2.35,-5.15 0.22,-0.28 0.63,-0.34 0.91,-0.11 0.29,0.22 0.34,0.62 0.12,0.91 -1.43,1.83 -1.76,3.2 -2.12,4.65 -0.1,0.44 -0.21,0.87 -0.34,1.32 -0.5,1.68 -0.83,3.04 -1.12,4.24 -0.81,3.37 -1.26,5.23 -4.2,7.28 -0.11,0.08 -0.24,0.12 -0.37,0.12z"/>
  <path class="fil1" d="M25.18 85.94c-0.19,0 -0.37,-0.08 -0.5,-0.24 -3.41,-4.2 -3.69,-8.7 -0.78,-12.69 1.47,-2.02 1.3,-4.43 1.14,-6.77 -0.07,-0.96 -0.13,-1.87 -0.08,-2.73 0.06,-0.85 0.59,-1.66 1.22,-2.59 0.3,-0.46 0.65,-0.98 0.97,-1.55 0.45,-0.82 0.84,-1.92 1.16,-2.81 0.16,-0.45 0.3,-0.85 0.43,-1.17 1.94,-4.69 3.23,-5.49 5.59,-6.94 0.96,-0.59 2.16,-1.33 3.7,-2.54 2.28,-1.79 4.84,-7.88 5.88,-10.85 0.18,-0.49 0.35,-1 0.52,-1.49 0.55,-1.6 1.07,-3.11 1.4,-3.85 0.15,-0.33 0.28,-0.67 0.42,-1.02 0.82,-2.07 1.76,-4.42 5.04,-5.21 0.35,-0.08 0.7,0.13 0.79,0.48 0.08,0.35 -0.14,0.7 -0.48,0.78 -2.63,0.63 -3.37,2.48 -4.14,4.43 -0.15,0.36 -0.29,0.72 -0.44,1.06 -0.31,0.7 -0.82,2.18 -1.36,3.75 -0.18,0.5 -0.35,1 -0.52,1.5 -1.16,3.32 -3.8,9.47 -6.31,11.44 -1.59,1.25 -2.83,2.01 -3.82,2.62 -2.26,1.39 -3.3,2.03 -5.07,6.34 -0.12,0.3 -0.26,0.68 -0.41,1.1 -0.33,0.94 -0.74,2.1 -1.25,3.01 -0.34,0.61 -0.7,1.16 -1.02,1.64 -0.52,0.78 -0.97,1.45 -1,1.95 -0.05,0.78 0.01,1.64 0.07,2.56 0.18,2.45 0.37,5.22 -1.38,7.62 -2.56,3.52 -2.31,7.36 0.73,11.11 0.23,0.28 0.19,0.69 -0.09,0.91 -0.12,0.1 -0.26,0.15 -0.41,0.15z"/>
  <path class="fil1" d="M33.96 86.08c-0.44,0 -0.91,-0.05 -1.41,-0.15 -1.65,-0.35 -4.39,-1.6 -4.21,-6.15 0.06,-1.23 0.58,-2.23 1.26,-3.48 0.53,-1 1.13,-2.12 1.69,-3.72 0.9,-2.52 0.45,-4.32 -0.07,-6.39 -0.52,-2.11 -1.11,-4.49 -0.2,-7.79 1.28,-4.62 3.15,-6.59 7.72,-8.11 3,-1 3.56,-2.31 4.69,-4.92 0.25,-0.59 0.54,-1.25 0.88,-1.96 0.29,-0.63 0.71,-2.2 1.15,-3.86 1.68,-6.32 3.18,-11.17 5.88,-11.34 0.54,-0.04 1,0.37 1.03,0.91 0.03,0.53 -0.37,0.99 -0.91,1.03 -1.51,0.1 -3.34,6.97 -4.12,9.9 -0.5,1.9 -0.9,3.41 -1.28,4.2 -0.32,0.67 -0.59,1.29 -0.85,1.89 -1.18,2.74 -2.03,4.72 -5.86,6 -3.91,1.3 -5.36,2.82 -6.46,6.78 -0.77,2.8 -0.29,4.74 0.22,6.8 0.54,2.18 1.11,4.44 0.01,7.51 -0.61,1.73 -1.27,2.98 -1.81,3.98 -0.57,1.08 -0.99,1.86 -1.02,2.66 -0.1,2.4 0.77,3.76 2.66,4.15 1.3,0.28 2.05,0.02 2.29,-0.28 0.07,-0.09 0.1,-0.16 0.11,-0.18 -0.02,0 -0.11,-0.11 -0.42,-0.26 -0.49,-0.22 -0.71,-0.79 -0.49,-1.28 0.23,-0.49 0.8,-0.71 1.29,-0.49 0.84,0.39 1.35,0.92 1.51,1.6 0.15,0.61 -0.02,1.25 -0.48,1.82 -0.59,0.74 -1.58,1.13 -2.8,1.13z"/>
  <path class="fil1" d="M39.4 82.55c-0.43,0 -0.82,-0.28 -0.94,-0.71 -0.93,-3.33 -0.25,-4.83 0.35,-6.15 0.43,-0.96 0.8,-1.78 0.57,-3.45 -0.35,-2.53 -1.78,-4.98 -3.05,-7.14 -1.71,-2.92 -3.48,-5.95 -0.91,-7.83 0.93,-0.68 2.29,-1.29 3.72,-1.94 0.69,-0.32 1.41,-0.65 2.07,-0.98 2.41,-1.21 4.84,-4.64 5.6,-7.08 0.27,-0.85 0.36,-1.67 0.46,-2.53 0.13,-1.12 0.26,-2.28 0.77,-3.64 0.18,-0.5 0.74,-0.76 1.25,-0.57 0.5,0.18 0.76,0.74 0.57,1.25 -0.42,1.14 -0.54,2.13 -0.66,3.18 -0.1,0.91 -0.21,1.86 -0.53,2.89 -0.89,2.87 -3.6,6.74 -6.59,8.24 -0.69,0.35 -1.42,0.68 -2.14,1.01 -1.33,0.6 -2.6,1.18 -3.37,1.74 -1.04,0.77 -0.36,2.2 1.44,5.27 1.36,2.32 2.9,4.95 3.3,7.86 0.31,2.23 -0.24,3.44 -0.73,4.52 -0.53,1.17 -0.98,2.18 -0.24,4.82 0.14,0.52 -0.16,1.06 -0.68,1.2 -0.09,0.03 -0.17,0.04 -0.26,0.04z"/>
  <g>
   <path class="fil1" d="M40.43 57.36c-0.1,0.07 -0.21,0.12 -0.34,0.15 0.14,-0.03 0.25,-0.08 0.34,-0.15zm-0.34 0.15c0,0 0,0 0,0 0,0 0,0 0,0zm0 0l0 0 0 0zm3.95 7.97c-3.06,0 -5.02,-1.91 -5.39,-5.23 0,-0.05 -0.41,-4.32 1.01,-4.64 0.53,-0.11 1.05,0.22 1.16,0.74 0.06,0.23 0.02,0.45 -0.07,0.64 -0.15,0.55 -0.63,3.63 0.62,5.37 0.57,0.79 1.45,1.18 2.67,1.18 0.71,0 1.49,-0.22 1.62,-0.63 0.17,-0.51 0.72,-0.8 1.23,-0.63 0.51,0.16 0.79,0.71 0.63,1.22 -0.47,1.46 -2.11,1.98 -3.48,1.98z"/>
  </g>
  <path class="fil1" d="M42.85 59.12c-0.53,0 -0.97,-0.44 -0.97,-0.98 0,-0.53 0.44,-0.97 0.97,-0.97 0.46,0 0.77,-0.2 0.93,-0.59 0.16,-0.38 0.09,-0.8 -0.06,-0.95 -0.38,-0.38 -0.39,-0.99 -0.02,-1.38 0.38,-0.38 0.99,-0.39 1.38,-0.02 0.74,0.72 0.95,1.99 0.51,3.08 -0.46,1.13 -1.48,1.81 -2.74,1.81z"/>
  <path class="fil1" d="M79.66 67.61c-1.02,0 -1.59,-0.42 -2.14,-0.83 -0.11,-0.08 -0.22,-0.16 -0.35,-0.25 -0.08,0.05 -0.16,0.12 -0.23,0.17 -0.73,0.53 -2.26,1.64 -4.08,0.03 -0.48,-0.43 -0.95,-0.62 -1.24,-0.5 -1.85,0.75 -2.53,0.77 -3.57,0.75 -0.53,-0.01 -1.12,-0.02 -2.16,0.13 -0.52,0.07 -1.02,-0.3 -1.09,-0.83 -0.08,-0.54 0.3,-1.03 0.83,-1.1 1.19,-0.17 1.89,-0.15 2.45,-0.14 0.8,0.01 1.24,0.02 2.81,-0.62 1.01,-0.4 2.2,-0.09 3.27,0.85 0.61,0.55 0.88,0.4 1.63,-0.15 0.48,-0.35 1.29,-0.93 2.14,-0.41 0.29,0.17 0.52,0.35 0.74,0.5 0.47,0.35 0.62,0.45 0.99,0.45 0.54,0 0.98,0.43 0.98,0.97 0,0.54 -0.44,0.98 -0.98,0.98z"/>
  <g>
   <path class="fil1" d="M80.97 77.25l0 0 0 0zm-9.64 16.57c-0.16,0 -0.32,-0.01 -0.5,-0.01 -6.96,-0.33 -13.49,-7.04 -18.25,-11.94l-0.57 -0.59c-1.73,-1.77 -3.59,-3.69 -4.27,-4.5 -1.22,-1.44 -2.2,-2.1 -3.06,-2.68 -1.89,-1.27 -2.89,-2.15 -3.13,-6.61 -0.01,-0.07 -0.06,-0.28 -0.08,-0.38l-0.02 -0.08c-0.13,-0.53 0.2,-1.05 0.72,-1.17 0.52,-0.13 1.05,0.2 1.17,0.72l0.02 0.07c0.06,0.27 0.12,0.51 0.13,0.73 0.2,3.71 0.81,4.12 2.28,5.1 0.87,0.59 2.06,1.4 3.46,3.05 0.65,0.77 2.57,2.75 4.17,4.4l0.57 0.58c4.54,4.67 10.76,11.06 16.96,11.35 3.04,0.14 3.6,-1.14 4.53,-3.27 0.41,-0.95 0.89,-2.04 1.67,-3.02 0.45,-0.63 3.57,-7.5 3.85,-8.46 0.08,-0.46 0.48,-0.82 0.96,-0.82l0.02 0c0.53,0.01 0.96,0.45 0.96,0.99 -0.02,0.9 -3.96,9.13 -4.27,9.51 -0.62,0.78 -1.02,1.7 -1.41,2.58 -0.91,2.09 -1.94,4.45 -5.91,4.45z"/>
  </g>
  <path class="fil1" d="M69.77 102.54c-6.13,0 -14.91,-7.08 -18.47,-10.81 -2.96,-3.11 -5.67,-7.43 -6.68,-9.05l-0.07 -0.11c-1.24,-1.98 -1.57,-3.56 -1.99,-7.61 -0.11,-1.03 -0.08,-1.9 0.08,-2.73 0.11,-0.52 0.62,-0.86 1.15,-0.76 0.53,0.11 0.87,0.62 0.76,1.15 -0.13,0.64 -0.15,1.3 -0.06,2.13 0.42,4.01 0.72,5.22 1.71,6.79l0.07 0.11c0.98,1.57 3.61,5.77 6.44,8.73 3.84,4.03 13.06,11.13 18,10.13 0.79,-0.16 2.17,-0.44 2.98,-1.65 2.24,-3.34 2.93,-7.96 3.43,-11.33l0.12 -0.82c0.09,-0.53 0.58,-0.9 1.11,-0.82 0.53,0.08 0.9,0.58 0.82,1.11l-0.13 0.82c-0.53,3.55 -1.25,8.42 -3.74,12.13 -1.25,1.87 -3.29,2.28 -4.16,2.46 -0.43,0.09 -0.89,0.13 -1.37,0.13z"/>
  <path class="fil1" d="M70.51 98.5c-1.61,0 -2.79,-0.7 -3.95,-1.39 -0.56,-0.33 -1.14,-0.67 -1.78,-0.93 -4.86,-1.97 -6.99,-4.07 -9.93,-6.98 -0.69,-0.67 -1.42,-1.4 -2.25,-2.18 -0.39,-0.37 -0.41,-0.99 -0.04,-1.38 0.37,-0.39 0.99,-0.41 1.38,-0.04 0.84,0.8 1.58,1.53 2.27,2.21 2.89,2.86 4.8,4.74 9.3,6.56 0.78,0.32 1.42,0.7 2.05,1.07 1.38,0.82 2.38,1.41 4.12,0.94 0.3,-0.08 1.03,-0.46 1.52,-0.71 0.18,-0.09 0.36,-0.19 0.52,-0.27 0.95,-0.47 2.13,-1.98 2.39,-2.71 0.18,-0.51 0.74,-0.77 1.25,-0.59 0.5,0.18 0.76,0.74 0.58,1.24 -0.39,1.08 -1.85,3.05 -3.35,3.8 -0.15,0.08 -0.32,0.17 -0.5,0.26 -0.82,0.43 -1.44,0.74 -1.9,0.86 -0.61,0.17 -1.17,0.24 -1.68,0.24z"/>
  <path class="fil1" d="M95.35 102.77c-0.24,0 -0.48,-0.09 -0.67,-0.26 -0.11,-0.1 -0.22,-0.24 -0.54,-0.63 -0.34,-0.42 -0.86,-1.07 -1.21,-1.41 -0.87,-0.87 -3.46,-2.7 -5.75,-4.31 -3.55,-2.5 -5.03,-3.58 -5.44,-4.21 -0.82,-1.28 -1.62,-2.01 -2.45,-2.79 -0.59,-0.54 -1.2,-1.11 -1.86,-1.88 -0.35,-0.41 -0.3,-1.03 0.11,-1.37 0.41,-0.35 1.03,-0.3 1.37,0.11 0.58,0.68 1.13,1.19 1.7,1.72 0.89,0.82 1.81,1.67 2.76,3.15 0.35,0.45 3,2.32 4.93,3.68 2.46,1.74 5.01,3.54 6,4.52 0.43,0.42 0.97,1.08 1.36,1.57 0.16,0.21 0.29,0.37 0.36,0.44 0.39,0.36 0.41,0.97 0.05,1.36 -0.19,0.21 -0.45,0.31 -0.72,0.31z"/>
  <path class="fil1" d="M14.81 93.59c-0.41,0 -0.78,-0.25 -0.92,-0.66 -0.18,-0.5 0.09,-1.06 0.6,-1.23 2.19,-0.76 4.03,-2.35 5.97,-4.02 1.53,-1.32 3.11,-2.69 4.96,-3.72l0.67 -0.37c0.7,-0.38 1.57,-0.87 1.74,-0.99 0.39,-0.37 0.98,-0.34 1.35,0.05 0.37,0.39 0.33,1.03 -0.06,1.4 -0.2,0.19 -0.6,0.42 -2.09,1.25l-0.66 0.36c-1.67,0.94 -3.18,2.23 -4.64,3.49 -1.99,1.72 -4.06,3.5 -6.61,4.38 -0.1,0.04 -0.21,0.06 -0.31,0.06z"/>
  <path class="fil1" d="M65.53 60.17c-0.05,0 -0.1,-0.01 -0.15,-0.01 -0.35,-0.03 -0.62,-0.35 -0.59,-0.7 0.03,-0.36 0.35,-0.62 0.7,-0.59 0.49,0.05 1.01,-1.22 1.4,-2.14 0.38,-0.91 0.78,-1.86 1.36,-2.44 0.25,-0.25 0.66,-0.25 0.92,0 0.25,0.26 0.25,0.67 0,0.92 -0.4,0.4 -0.75,1.22 -1.09,2.02 -0.57,1.38 -1.23,2.94 -2.55,2.94z"/>
  <path class="fil1" d="M63.12 49.25c-0.91,0 -1.95,-0.21 -3.09,-0.82 -0.32,-0.16 -0.44,-0.56 -0.27,-0.87 0.17,-0.32 0.56,-0.44 0.88,-0.27 2.34,1.24 4.07,0.46 5.21,-0.07 0.45,-0.2 0.81,-0.36 1.15,-0.39 0.36,-0.03 0.67,0.24 0.7,0.59 0.03,0.36 -0.24,0.67 -0.59,0.7 -0.12,0.01 -0.46,0.16 -0.73,0.28 -0.73,0.34 -1.85,0.85 -3.26,0.85z"/>
  <path class="fil1" d="M83.82 51.68c-2.36,0 -5.75,-1.88 -6.71,-3.44 -0.18,-0.31 -0.09,-0.71 0.22,-0.9 0.3,-0.18 0.7,-0.09 0.89,0.22 0.92,1.5 5.01,3.41 6.37,2.68 0.32,-0.17 0.71,-0.05 0.88,0.27 0.17,0.31 0.05,0.71 -0.27,0.88 -0.38,0.2 -0.85,0.29 -1.38,0.29z"/>
  <path class="fil1" d="M94.7 80.74c-0.37,0 -0.72,-0.21 -0.88,-0.57 -1.14,-2.46 -0.11,-5.4 0.97,-8.5 0.99,-2.84 2.02,-5.78 1.74,-8.82 -0.36,-3.85 -1.27,-5.24 -2.54,-7.16 -0.75,-1.13 -1.59,-2.42 -2.47,-4.4 -0.93,-2.11 -0.99,-5.47 -1.05,-8.73 -0.11,-6.57 -2.04,-9.9 -5.54,-15.93 -0.27,-0.47 -0.11,-1.06 0.36,-1.33 0.46,-0.27 1.06,-0.11 1.33,0.35 3.54,6.11 5.68,9.8 5.8,16.88 0.05,2.91 0.11,6.22 0.88,7.98 0.81,1.83 1.61,3.04 2.31,4.11 1.32,1.99 2.45,3.71 2.86,8.05 0.32,3.46 -0.83,6.74 -1.84,9.64 -1,2.84 -1.85,5.3 -1.05,7.05 0.23,0.49 0.02,1.06 -0.47,1.29 -0.13,0.06 -0.27,0.09 -0.41,0.09z"/>
  <path class="fil1" d="M88.8 89.64c-0.25,0 -0.49,-0.1 -0.68,-0.28 -0.38,-0.38 -0.39,-1 -0.01,-1.38 0.65,-0.65 1.06,-1.37 1.22,-2.13 0.28,-1.36 0.07,-3.02 -0.19,-3.65 -1.6,-3.89 0.03,-6.62 1.47,-9.02 3.06,-5.13 2.3,-10.89 -0.19,-13.52 -0.37,-0.39 -0.36,-1 0.03,-1.37 0.39,-0.37 1.01,-0.36 1.38,0.03 2.95,3.11 4.12,9.71 0.46,15.83 -1.39,2.33 -2.58,4.32 -1.35,7.31 0.42,1.03 0.65,3.1 0.29,4.79 -0.24,1.13 -0.82,2.18 -1.74,3.1 -0.19,0.19 -0.44,0.29 -0.69,0.29z"/>
  <path class="fil1" d="M85.52 91.3c-0.13,0 -0.26,-0.04 -0.37,-0.12 -3.33,-2.35 -2.11,-4.82 -1.22,-6.62 0.26,-0.53 0.5,-1.02 0.62,-1.47 0.46,-1.64 0.47,-2.45 0.48,-3.09 0.02,-1.27 0.11,-1.95 2.01,-4.73 2.18,-3.17 3.29,-7.36 2.85,-10.66 -0.05,-0.35 0.2,-0.68 0.56,-0.73 0.35,-0.04 0.68,0.2 0.73,0.56 0.58,4.37 -1.2,8.84 -3.07,11.56 -1.76,2.58 -1.77,3.06 -1.78,4.01 -0.01,0.69 -0.03,1.62 -0.53,3.43 -0.15,0.56 -0.43,1.14 -0.71,1.69 -0.87,1.76 -1.62,3.28 0.81,4.99 0.29,0.21 0.36,0.62 0.15,0.91 -0.12,0.18 -0.32,0.27 -0.53,0.27z"/>
  <path class="fil2" d="M63.26 43.32c0.82,0 1.48,0.66 1.48,1.48 0,0.81 -0.66,1.47 -1.48,1.47 -0.81,0 -1.47,-0.66 -1.47,-1.47 0,-0.82 0.66,-1.48 1.47,-1.48z"/>
  <path class="fil2" d="M81.27 44.55c0.82,0 1.48,0.66 1.48,1.48 0,0.81 -0.66,1.47 -1.48,1.47 -0.81,0 -1.47,-0.66 -1.47,-1.47 0,-0.82 0.66,-1.48 1.47,-1.48z"/>
  <path class="fil1" d="M80.5 61.86c-0.24,0 -0.48,-0.14 -0.59,-0.38 -0.85,-1.86 -1.22,-3.23 -1.74,-5.13l-0.03 -0.11c-0.1,-0.35 0.11,-0.7 0.45,-0.8 0.35,-0.09 0.71,0.11 0.8,0.46l0.03 0.11c0.52,1.9 0.87,3.16 1.67,4.94 0.15,0.32 0.01,0.71 -0.32,0.86 -0.08,0.03 -0.18,0.05 -0.27,0.05z"/>
 </g>
</svg>
