<?xml version="1.0" encoding="UTF-8"?>
<!DOCTYPE svg PUBLIC "-//W3C//DTD SVG 1.1//EN" "http://www.w3.org/Graphics/SVG/1.1/DTD/svg11.dtd">
<!-- Creator: CorelDRAW 2018 (64-Bit) -->
<svg xmlns="http://www.w3.org/2000/svg" xml:space="preserve" width="845px" height="845px" version="1.1" style="shape-rendering:geometricPrecision; text-rendering:geometricPrecision; image-rendering:optimizeQuality; fill-rule:evenodd; clip-rule:evenodd"
viewBox="0 0 117.19 117.19"
 xmlns:xlink="http://www.w3.org/1999/xlink">
 <defs>
  <style type="text/css">
   <![CDATA[
    .fil0 {fill:none}
    .fil2 {fill:black}
    .fil1 {fill:black;fill-rule:nonzero}
   ]]>
  </style>
 </defs>
 <g id="Слой_x0020_1">
  <metadata id="CorelCorpID_0Corel-Layer"/>
  <rect class="fil0" width="117.19" height="117.19"/>
 </g>
 <g id="_1">
  <metadata id="CorelCorpID_1Corel-Layer"/>
  <path class="fil1" d="M41.14 58.09c-0.35,0 -0.69,-0.2 -0.87,-0.53 -0.25,-0.48 -0.07,-1.08 0.41,-1.33 1.06,-0.55 1.95,-1.18 2.81,-1.79 2.69,-1.92 5.24,-3.72 11.78,-3.08 1.33,0.13 2.57,0.53 3.9,1.27 0.47,0.26 0.64,0.86 0.38,1.33 -0.26,0.48 -0.86,0.65 -1.33,0.39 -1.11,-0.61 -2.07,-0.93 -3.14,-1.04 -5.81,-0.56 -7.96,0.96 -10.45,2.73 -0.92,0.65 -1.86,1.32 -3.03,1.93 -0.15,0.08 -0.31,0.12 -0.46,0.12z"/>
  <path class="fil1" d="M68.52 52.87c-0.29,0 -0.57,-0.13 -0.77,-0.38 -0.34,-0.42 -0.27,-1.04 0.16,-1.38 1.78,-1.41 6.81,-3.54 9.66,-2.39 0.5,0.2 0.75,0.78 0.54,1.28 -0.2,0.5 -0.77,0.74 -1.28,0.54 -1.93,-0.78 -6.21,0.93 -7.7,2.11 -0.18,0.15 -0.39,0.22 -0.61,0.22z"/>
  <path class="fil1" d="M68.16 58.14c-0.43,0 -0.83,-0.28 -0.95,-0.72 -0.13,-0.48 0.12,-0.97 0.56,-1.16 0.09,-0.09 0.27,-0.33 0.4,-0.5 0.75,-0.97 2,-2.59 4.32,-2.85 2.42,-0.27 3.49,0.33 4.83,1.28 0.07,0.04 0.18,0.14 0.33,0.27 0.1,0.09 0.33,0.3 0.48,0.41 0.33,0.04 0.63,0.23 0.78,0.55 0.24,0.48 0.04,1.07 -0.44,1.31 -0.81,0.4 -1.55,-0.27 -2.14,-0.82 -0.07,-0.05 -0.12,-0.1 -0.16,-0.13 -1.07,-0.75 -1.67,-1.12 -3.46,-0.92 -1.49,0.17 -2.32,1.24 -2.98,2.1 -0.43,0.56 -0.77,1 -1.31,1.15 -0.09,0.02 -0.18,0.03 -0.26,0.03z"/>
  <path class="fil1" d="M46.66 60.47c-0.54,0 -0.98,-0.44 -0.98,-0.98 -0.01,-0.52 0.39,-0.94 0.89,-0.98 0.13,-0.09 0.37,-0.36 0.55,-0.56 0.27,-0.31 0.61,-0.68 1.03,-1.06 0.86,-0.74 2.16,-1.34 3.06,-1.61 1.65,-0.48 3.59,0.01 6.09,1.56 0.46,0.29 0.6,0.9 0.32,1.36 -0.29,0.46 -0.9,0.6 -1.35,0.31 -1.97,-1.22 -3.44,-1.66 -4.5,-1.35 -0.82,0.24 -1.79,0.75 -2.33,1.22 -0.33,0.29 -0.6,0.59 -0.86,0.88 -0.53,0.59 -1.07,1.2 -1.92,1.21l0 0z"/>
  <path class="fil1" d="M64.21 72.92c-0.02,0 -0.04,0 -0.07,0 -1.12,-0.02 -1.64,-0.36 -2.11,-0.75 -0.19,-0.15 -0.26,-0.2 -0.4,-0.24 -0.1,-0.03 -0.23,-0.04 -0.38,-0.05 -0.26,-0.03 -0.58,-0.05 -0.93,-0.18 -0.94,-0.32 -1.28,-0.6 -1.46,-0.78 -0.38,-0.39 -0.37,-1.02 0.02,-1.39 0.39,-0.38 1.02,-0.37 1.39,0.02l0 0c0.01,0 0.18,0.12 0.69,0.3 0.12,0.04 0.28,0.05 0.46,0.07 0.21,0.02 0.45,0.04 0.72,0.11 0.55,0.15 0.88,0.42 1.13,0.61 0.25,0.21 0.37,0.31 0.9,0.31 0.33,0.01 0.33,0.01 0.58,-0.19 0.16,-0.13 0.39,-0.31 0.72,-0.5l0.3 -0.18c0.42,-0.24 0.45,-0.26 0.53,-0.3 0.34,-0.14 0.91,-0.43 1.02,-0.82 0.09,-0.34 -0.12,-0.88 -0.59,-1.52 -0.39,-0.52 -1.12,-1.76 -1.66,-4.19 -0.11,-0.51 -0.21,-1.43 -0.32,-2.4 -0.1,-0.89 -0.2,-1.81 -0.3,-2.32 -0.11,-0.54 0.24,-1.05 0.77,-1.16 0.54,-0.1 1.05,0.25 1.16,0.78 0.11,0.59 0.22,1.55 0.33,2.48 0.09,0.88 0.2,1.79 0.28,2.2 0.48,2.14 1.08,3.12 1.31,3.44 0.87,1.17 1.18,2.25 0.91,3.21 -0.24,0.9 -0.95,1.6 -2.1,2.09 -0.06,0.04 -0.19,0.12 -0.35,0.21l-0.29 0.17c-0.22,0.13 -0.36,0.24 -0.5,0.35 -0.45,0.36 -0.85,0.62 -1.76,0.62z"/>
  <path class="fil1" d="M65.05 42.18c-0.98,0 -1.91,-0.09 -2.73,-0.28 -1.61,-0.39 -2.75,-1.17 -3.27,-2.26 -0.24,-0.48 -0.04,-1.07 0.45,-1.31 0.49,-0.24 1.07,-0.04 1.31,0.45 0.33,0.68 1.26,1.03 1.97,1.2 2.93,0.71 7.28,-0.22 8.93,-1.46 0.44,-0.33 1.05,-0.24 1.38,0.19 0.33,0.44 0.24,1.05 -0.2,1.38 -1.72,1.29 -4.96,2.09 -7.84,2.09z"/>
  <path class="fil1" d="M69.97 45.36c-3.3,0 -4.84,-1.38 -6.8,-3.14 -0.41,-0.36 -0.44,-0.99 -0.08,-1.39 0.37,-0.4 0.99,-0.44 1.39,-0.07 1.99,1.78 3.05,2.64 5.49,2.64l0 0c3.54,0 6.68,-0.59 9.86,-1.84l0.28 -0.16c0.47,-0.27 1.07,-0.1 1.34,0.38 0.26,0.47 0.1,1.07 -0.38,1.33l-0.34 0.19c-0.04,0.03 -0.07,0.04 -0.12,0.06 -3.44,1.37 -6.82,2 -10.64,2l0 0z"/>
  <path class="fil1" d="M76.46 48.85c-0.6,0 -1.26,-0.04 -2,-0.13 -2.5,-0.3 -3.5,-1.36 -4.75,-2.71 -0.24,-0.25 -0.49,-0.52 -0.76,-0.8 -0.38,-0.39 -0.38,-1.01 0.01,-1.39 0.39,-0.38 1.01,-0.37 1.39,0.01 0.29,0.3 0.55,0.58 0.79,0.84 1.18,1.25 1.76,1.89 3.56,2.1 1.79,0.22 3.04,0.07 4.35,-0.08 0.43,-0.05 0.86,-0.1 1.31,-0.14 0.54,-0.05 1.02,0.35 1.07,0.89 0.04,0.54 -0.36,1.01 -0.9,1.06 -0.43,0.04 -0.84,0.09 -1.24,0.14 -0.88,0.1 -1.77,0.21 -2.83,0.21z"/>
  <path class="fil1" d="M40.7 55.1c-0.1,0 -0.21,-0.01 -0.31,-0.05 -0.52,-0.17 -0.79,-0.73 -0.62,-1.25 0.08,-0.23 0.21,-0.57 0.34,-0.9 0.09,-0.23 0.22,-0.56 0.26,-0.69 0.54,-4.06 4.13,-5.36 7.29,-6.5 0.95,-0.34 1.84,-0.67 2.66,-1.05 4.2,-1.99 4.41,-2.37 6.44,-6.02 0.27,-0.47 0.87,-0.64 1.34,-0.38 0.48,0.27 0.64,0.86 0.38,1.34 -2.26,4.06 -2.73,4.66 -7.32,6.83 -0.9,0.43 -1.88,0.79 -2.83,1.13 -3.03,1.09 -5.65,2.04 -6.02,4.96 -0.02,0.19 -0.08,0.36 -0.37,1.09 -0.11,0.3 -0.24,0.62 -0.31,0.83 -0.14,0.41 -0.52,0.66 -0.93,0.66z"/>
  <path class="fil1" d="M42.6 46.31c-0.45,0 -0.86,-0.31 -0.96,-0.77 -0.12,-0.53 0.21,-1.06 0.74,-1.18 3.73,-0.83 5.31,-2.14 8.54,-5.4 0.39,-0.39 1.01,-0.39 1.39,-0.01 0.39,0.38 0.39,1 0.01,1.39 -3.2,3.22 -5.07,4.95 -9.51,5.94 -0.07,0.02 -0.14,0.03 -0.21,0.03z"/>
  <path class="fil1" d="M55.74 12.61c-0.81,0 -1.45,0.04 -1.74,0.16 -3.08,1.18 -5.35,1.97 -8.7,2.06 -1.74,0.05 -2.13,0.37 -2.73,0.85 -0.64,0.52 -1.45,1.17 -3.55,1.57 -1.68,0.32 -3.85,2.7 -4.09,4.47 -0.22,1.72 -2.88,4.4 -4.19,5.3 -1.45,0.99 -3.85,7.88 -4.68,11.14 -0.19,0.75 -0.39,1.41 -0.56,1.99 -0.64,2.16 -1.03,3.47 -0.24,6.31 0.34,1.21 0.48,2.36 0.62,3.49 0.21,1.59 0.39,3.1 1.11,4.63 0.94,2.01 0.33,4.26 -0.31,6.63 -0.75,2.8 -1.53,5.7 0.34,8.24 0.66,0.88 0.61,1.86 0.57,2.64 -0.06,1.13 -0.1,1.85 1.69,2.55 0.33,-0.42 0.55,-0.83 0.78,-1.25 0.44,-0.83 0.9,-1.69 2.07,-2.46 1.15,-0.76 2.12,-0.73 2.77,-0.71 0.09,0 0.2,0.01 0.29,0 0.17,-0.52 0.16,-2.21 -0.06,-5.02 -0.17,-2.15 0.57,-3.32 1.21,-4.34 0.89,-1.4 1.72,-2.72 0.11,-7.44 -1.42,-4.15 2.25,-11.74 6.65,-13.76 0.92,-0.42 1.11,-0.59 1.36,-0.81 0.12,-0.11 0.25,-0.22 0.43,-0.36 0.37,-0.28 0.65,-0.54 0.93,-0.8 1.52,-1.38 2.43,-1.99 8.18,-1.82 2.11,0.07 4.1,-0.38 6.2,-0.85 2.21,-0.5 4.49,-1.01 6.98,-0.92 1.91,0.07 7.8,0.8 9.94,2.56 4.85,3.96 5.48,5.9 6.52,9.12l0.04 0.11c0.36,1.1 0.74,1.88 1.08,2.57 0.77,1.58 1.39,2.83 0.66,5.91 -0.28,1.18 -0.31,2.76 -0.08,4.43 0.17,1.31 0.5,2.44 0.85,3.64 0.38,1.33 0.78,2.71 0.99,4.41 0.26,2.07 0.62,5.65 0.25,6.97 0.19,-0.14 0.43,-0.29 0.74,-0.4 1.05,-0.39 1.49,-1.6 1.86,-3.44 0.3,-1.45 0.64,-2.58 0.94,-3.57 0.69,-2.25 1.14,-3.74 0.52,-7.09 -0.25,-1.31 -0.6,-2.75 -0.92,-4.03l-0.21 -0.84c-0.46,-1.9 -0.73,-4.06 -0.99,-6.15 -0.29,-2.37 -0.59,-4.83 -1.18,-6.82 -0.59,-1.98 -1.42,-3.93 -2.23,-5.82 -1.01,-2.34 -2.04,-4.77 -2.67,-7.35 -0.58,-2.38 -1.4,-3.67 -2.35,-5.17l-0.29 -0.45c-0.41,-0.65 -0.59,-1.32 -0.75,-1.91 -0.38,-1.41 -0.64,-2.35 -4.35,-2.63 -2.1,-0.16 -2.71,-0.84 -3.07,-1.96 -0.15,-0.47 -0.29,-0.92 -2.32,-1.32 -1.09,-0.22 -1.88,-0.29 -2.64,-0.35 -1.37,-0.11 -2.67,-0.22 -5.17,-1.14 -0.03,-0.01 -0.07,-0.03 -0.1,-0.04 -0.7,-0.36 -4.25,-0.73 -6.51,-0.73zm-26.15 64.17c-0.1,0 -0.21,-0.02 -0.3,-0.05 -3.85,-1.24 -3.74,-3.35 -3.67,-4.74 0.04,-0.67 0.05,-1.07 -0.18,-1.37 -2.44,-3.3 -1.49,-6.82 -0.65,-9.92 0.54,-2.02 1.06,-3.93 0.42,-5.29 -0.85,-1.81 -1.07,-3.54 -1.28,-5.22 -0.13,-1.1 -0.26,-2.14 -0.56,-3.2 -0.95,-3.39 -0.45,-5.07 0.25,-7.4 0.17,-0.59 0.35,-1.2 0.53,-1.91 0.03,-0.11 2.8,-10.44 5.48,-12.28 1.34,-0.93 3.25,-3.17 3.35,-3.93 0.35,-2.63 3.16,-5.67 5.68,-6.15 1.61,-0.31 2.13,-0.72 2.68,-1.17 0.88,-0.71 1.68,-1.22 3.91,-1.28 3.04,-0.09 5.07,-0.79 8.04,-1.94 1.76,-0.67 8.32,-0.03 9.78,0.62 2.22,0.81 3.33,0.9 4.61,1.01 0.78,0.06 1.67,0.14 2.87,0.38 2.92,0.59 3.47,1.59 3.81,2.66 0.11,0.35 0.16,0.5 1.34,0.59 4.72,0.36 5.53,1.99 6.1,4.08 0.13,0.5 0.26,0.97 0.52,1.37l0.28 0.44c0.96,1.51 1.95,3.07 2.6,5.76 0.59,2.43 1.59,4.78 2.56,7.05 0.84,1.94 1.7,3.94 2.32,6.04 0.63,2.14 0.94,4.68 1.25,7.13 0.25,2.04 0.51,4.14 0.94,5.92l0.21 0.84c0.32,1.3 0.68,2.78 0.94,4.14 0.71,3.82 0.15,5.68 -0.57,8.02 -0.29,0.95 -0.62,2.04 -0.89,3.4 -0.4,1.95 -1,4.11 -3.1,4.88 -0.22,0.08 -0.32,0.18 -0.46,0.32 -0.96,0.95 -1.8,0.44 -2.57,-0.25 -0.2,-0.17 -0.31,-0.42 -0.33,-0.68l-0.01 -0.17c-0.04,-0.61 -0.05,-0.92 0.05,-1.21 0.17,-0.46 0.11,-2.79 -0.31,-6.17 -0.19,-1.56 -0.57,-2.86 -0.93,-4.11 -0.35,-1.22 -0.72,-2.47 -0.91,-3.93 -0.18,-1.35 -0.31,-3.34 0.12,-5.14 0.56,-2.39 0.2,-3.13 -0.52,-4.6 -0.35,-0.71 -0.78,-1.59 -1.18,-2.82l-0.04 -0.12c-0.99,-3.06 -1.49,-4.6 -5.9,-8.2 -1.37,-1.13 -6.18,-2.02 -8.76,-2.12 -2.24,-0.08 -4.3,0.38 -6.48,0.87 -2.13,0.48 -4.33,0.97 -6.69,0.91 -5.19,-0.16 -5.7,0.3 -6.79,1.3 -0.3,0.27 -0.63,0.58 -1.07,0.91 -0.13,0.1 -0.23,0.19 -0.32,0.27 -0.41,0.36 -0.74,0.62 -1.84,1.12 -3.45,1.59 -6.7,8.16 -5.61,11.34 1.91,5.61 0.73,7.48 -0.3,9.12 -0.58,0.92 -1.04,1.65 -0.92,3.14 0.34,4.42 0.23,5.84 -0.5,6.61 -0.54,0.57 -1.24,0.55 -1.75,0.54 -0.51,-0.02 -1,-0.03 -1.63,0.38 -0.75,0.5 -1.03,1.02 -1.42,1.74 -0.34,0.64 -0.73,1.37 -1.49,2.16 -0.19,0.2 -0.45,0.31 -0.71,0.31z"/>
  <path class="fil1" d="M63.09 94.37c-1.24,0 -2.54,-0.23 -3.96,-0.67 -2.85,-0.89 -4.49,-1.93 -6.56,-3.26 -0.38,-0.24 -0.78,-0.5 -1.2,-0.76 -4.22,-2.65 -6.83,-5.4 -9.31,-9.81 -1.35,-2.41 -2.3,-5.49 -3,-7.73l-0.05 -0.18c-1.66,-5.32 -1.97,-9.7 -2.09,-11.35l-0.03 -0.38c-0.05,-0.54 0.36,-1.01 0.9,-1.06 0.53,-0.04 1.01,0.36 1.06,0.9l0.03 0.4c0.11,1.58 0.41,5.8 2,10.91l0.06 0.17c0.67,2.16 1.59,5.12 2.84,7.35 2.33,4.16 4.67,6.63 8.63,9.11 0.43,0.27 0.84,0.53 1.22,0.78 2.02,1.29 3.48,2.22 6.09,3.03 4.38,1.37 7.38,0.34 11.87,-4.05 3.95,-3.86 6.46,-7.77 7.69,-11.97 0.38,-1.31 0.7,-3.97 1.01,-6.54 0.25,-2.02 0.48,-3.92 0.74,-5.23 0.38,-1.93 0.21,-4.45 -0.48,-7.09 -0.33,-1.23 -1.59,-7.04 -1.62,-9.32 0,-0.54 0.43,-0.99 0.97,-0.99 0.54,0.02 0.99,0.43 1,0.97 0.02,1.94 1.18,7.45 1.55,8.84 0.77,2.93 0.95,5.76 0.5,7.98 -0.24,1.23 -0.47,3.1 -0.7,5.07 -0.33,2.66 -0.66,5.4 -1.08,6.86 -1.33,4.53 -4.01,8.73 -8.21,12.83 -3.67,3.58 -6.58,5.19 -9.87,5.19z"/>
  <path class="fil1" d="M57.92 79.47c-0.78,0 -1.75,-0.16 -2.38,-0.84 -0.37,-0.4 -0.34,-1.02 0.06,-1.39 0.39,-0.37 1.02,-0.34 1.38,0.05 0.2,0.21 0.99,0.28 1.7,0.14 0.2,-0.03 0.36,-0.14 0.65,-0.35 0.34,-0.25 0.77,-0.57 1.42,-0.75 0.53,-0.15 0.97,-0.19 1.65,0.03 0.19,0.07 0.9,0.32 1.18,0.44 0.08,-0.04 0.22,-0.14 0.33,-0.21 0.3,-0.2 0.71,-0.48 1.27,-0.66 0.31,-0.1 1.06,-0.34 1.84,0.03 0.1,0.04 0.21,0.1 0.33,0.16 0.58,0.32 1.31,0.72 2.67,0.05 0.49,-0.24 1.08,-0.04 1.32,0.45 0.24,0.48 0.04,1.07 -0.45,1.31 -2.27,1.13 -3.77,0.31 -4.49,-0.08 -0.07,-0.05 -0.14,-0.08 -0.2,-0.11 -0.07,-0.03 -0.19,-0.01 -0.42,0.06 -0.29,0.09 -0.52,0.25 -0.77,0.42 -0.48,0.33 -1.22,0.83 -2.21,0.39 -0.13,-0.06 -0.73,-0.28 -1.03,-0.38 -0.23,-0.08 -0.26,-0.07 -0.49,-0.01 -0.31,0.09 -0.52,0.25 -0.8,0.45 -0.35,0.25 -0.79,0.57 -1.44,0.7 -0.21,0.04 -0.63,0.1 -1.12,0.1z"/>
  <path class="fil1" d="M63.82 83.17c-1.59,0 -3.26,-0.51 -4.3,-1.36 -0.42,-0.34 -0.48,-0.96 -0.14,-1.38 0.35,-0.42 0.97,-0.48 1.39,-0.14 0.69,0.57 2.22,1.07 3.69,0.88 1.01,-0.13 1.78,-0.56 2.29,-1.26 0.32,-0.44 0.93,-0.54 1.37,-0.22 0.44,0.32 0.54,0.93 0.22,1.37 -0.82,1.14 -2.08,1.85 -3.62,2.06 -0.3,0.03 -0.59,0.05 -0.9,0.05z"/>
  <path class="fil1" d="M49.09 35.33c-0.33,0 -0.64,-0.04 -0.94,-0.13 -0.82,-0.24 -1.47,-0.79 -1.89,-1.6 -0.15,-0.29 -0.31,-0.56 -0.46,-0.82 -0.6,-1.03 -1.21,-2.09 -0.66,-3.12 0.52,-0.93 1.79,-1.36 4.39,-1.48 0.4,-0.02 1.5,-0.12 2.42,-0.24 -0.32,-0.27 -0.66,-0.55 -0.95,-0.78 -1.93,-1.58 -2.56,-2.15 -2.61,-2.89 -0.02,-0.32 0.09,-0.62 0.3,-0.84 0.91,-0.95 3.18,-3.05 4.81,-2 0.02,0.01 1.88,1.34 1.84,2.36 -0.02,0.54 -0.46,0.96 -1.02,0.95 -0.43,-0.02 -0.79,-0.31 -0.91,-0.7 -0.17,-0.24 -0.71,-0.76 -0.94,-0.93 -0.3,0.01 -1.07,0.48 -1.83,1.16 0.42,0.4 1.1,0.96 1.61,1.36 1.88,1.54 2.5,2.1 2.56,2.82 0.02,0.26 -0.08,0.56 -0.26,0.76 -0.6,0.68 -3.92,0.88 -4.93,0.93 -1.97,0.09 -2.56,0.35 -2.72,0.45 0.05,0.26 0.38,0.82 0.6,1.2 0.17,0.29 0.34,0.59 0.51,0.9 0.17,0.33 0.4,0.54 0.7,0.63 0.43,0.13 1.01,0.01 1.6,-0.32l0.5 -0.28c1.46,-0.84 2.52,-1.44 4.81,-1.55 1.74,-0.08 3.01,1.33 3.33,2.71 0.12,0.52 -0.21,1.05 -0.74,1.17 -0.53,0.13 -1.06,-0.2 -1.18,-0.73 -0.14,-0.61 -0.66,-1.23 -1.32,-1.19 -1.82,0.09 -2.52,0.49 -3.92,1.29l-0.52 0.3c-0.72,0.4 -1.47,0.61 -2.18,0.61z"/>
  <g>
   <path class="fil1" d="M57.25 27.87l0 0 0 0zm3.7 -6.59l0 0 0 0zm2.09 2.02l-2.09 -2.02zm0.21 8.75c-0.08,0 -0.16,-0.01 -0.23,-0.03 -0.53,-0.13 -0.85,-0.66 -0.73,-1.18 0.27,-1.13 0.88,-1.99 1.48,-2.81 0.66,-0.93 1.24,-1.74 1.27,-2.83 -0.35,-0.44 -1.35,-1.41 -1.82,-1.78 -0.55,0.39 -1.58,2.26 -2.39,4.72 -0.32,0.98 -0.32,0.98 -0.53,1.95l-1.92 -0.41c0.22,-1.06 0.23,-1.1 0.58,-2.14 0.97,-2.97 2.56,-6.43 4.59,-6.12 0.7,0.11 3.4,2.55 3.45,3.46 0.08,1.89 -0.83,3.16 -1.63,4.29 -0.51,0.7 -0.99,1.37 -1.17,2.12 -0.11,0.45 -0.51,0.76 -0.95,0.76z"/>
  </g>
  <path class="fil1" d="M62.42 33.88c-0.53,0 -0.96,-0.41 -0.98,-0.93 -0.03,-0.55 0.39,-1.01 0.93,-1.03 0.65,-0.03 1.24,-0.08 1.82,-0.12 0.54,-0.05 1.07,-0.09 1.66,-0.12 0.38,-0.02 0.5,-0.59 0.44,-2.05 0,-0.04 -0.01,-0.08 -0.01,-0.12 -0.47,-0.03 -1.84,0.12 -5.54,1.55 -0.41,0.16 -0.48,0.19 -0.6,0.21 -0.54,0.1 -1.05,-0.26 -1.14,-0.8 -0.09,-0.5 0.22,-0.98 0.7,-1.12 0.06,-0.02 0.17,-0.06 0.33,-0.12 4.29,-1.66 6.47,-2.05 7.53,-1.33 0.43,0.29 0.67,0.74 0.68,1.27 0,0.11 0,0.24 0.01,0.38 0.05,1.08 0.18,3.96 -2.3,4.09 -0.57,0.03 -1.09,0.08 -1.61,0.12 -0.6,0.04 -1.2,0.09 -1.88,0.12 -0.01,0 -0.03,0 -0.04,0z"/>
  <g>
   <path class="fil1" d="M57.08 24.1c0,0 0,0 0,0 0,0 0,0 0,0zm0 0c0,0 0,0 0,0 0,0 0,0 0,0zm0.17 0.28l0.01 0 -0.01 0zm-0.9 1.36c-0.26,0 -0.53,-0.1 -0.72,-0.32 -0.4,-0.43 -0.57,-2.24 -0.53,-5.37 0.01,-0.54 0.48,-0.96 1,-0.96 0.54,0.01 0.98,0.45 0.97,0.99 -0.01,0.79 0.04,3.64 0.17,4.25 0.18,0.39 0.1,0.86 -0.22,1.16 -0.19,0.17 -0.43,0.25 -0.67,0.25z"/>
  </g>
  <path class="fil1" d="M34.22 76.15c-0.23,0 -0.47,-0.08 -0.66,-0.25 -0.4,-0.37 -0.43,-0.99 -0.06,-1.39 1.36,-1.49 5.34,-2.08 7.61,-1.13 0.5,0.22 0.73,0.79 0.52,1.29 -0.21,0.5 -0.78,0.74 -1.29,0.53 -1.53,-0.65 -4.66,-0.17 -5.39,0.63 -0.19,0.21 -0.46,0.32 -0.73,0.32z"/>
  <path class="fil1" d="M40.13 83.77c-0.04,0 -0.08,-0.01 -0.12,-0.01 -0.54,-0.06 -0.92,-0.55 -0.86,-1.09 0.16,-1.35 -0.08,-2.05 -0.92,-2.69 -0.67,-0.51 -1.82,-0.51 -2.6,0 -0.56,0.37 -0.77,0.88 -0.61,1.54 0.12,0.52 -0.21,1.05 -0.74,1.18 -0.52,0.12 -1.05,-0.21 -1.18,-0.73 -0.34,-1.46 0.2,-2.82 1.46,-3.63 1.48,-0.97 3.52,-0.94 4.86,0.07 1.8,1.37 1.85,3.12 1.68,4.49 -0.06,0.5 -0.48,0.87 -0.97,0.87zm-0.02 6.64c-0.04,0 -0.07,-0.01 -0.11,-0.01 -0.54,-0.06 -0.93,-0.55 -0.87,-1.09 0.07,-0.57 -0.57,-1.76 -1.73,-2.34 -0.96,-0.48 -1.86,-0.33 -2.69,0.45 -0.13,0.19 -0.28,1.02 -0.08,1.37 0.25,0.48 0.08,1.08 -0.4,1.33 -0.48,0.26 -1.07,0.08 -1.33,-0.39 -0.64,-1.18 -0.28,-3.04 0.46,-3.74 1.42,-1.34 3.22,-1.63 4.92,-0.78 1.75,0.88 2.98,2.78 2.81,4.32 -0.06,0.51 -0.49,0.87 -0.98,0.88z"/>
  <path class="fil1" d="M81.71 79.96c-0.54,0 -0.98,-0.44 -0.98,-0.97 -0.01,-0.55 0.42,-0.99 0.97,-1 0.97,-0.01 2.85,-0.82 3.48,-2.02 0.29,-0.55 0.54,-1.36 0.07,-2.09 -0.47,-0.74 -1.54,-1.15 -2.79,-1.1 -0.54,0.03 -1,-0.39 -1.03,-0.93 -0.02,-0.55 0.4,-1.01 0.94,-1.03 1.98,-0.09 3.68,0.66 4.54,2 0.74,1.17 0.75,2.65 0.01,4.06 -1.03,1.98 -3.68,3.06 -5.2,3.08l-0.01 0z"/>
  <path class="fil1" d="M82.66 86.05c-0.44,0 -0.84,-0.3 -0.95,-0.74 -0.14,-0.52 0.17,-1.06 0.7,-1.2 1.45,-0.37 5.76,-3.82 4.75,-8.67 -0.11,-0.53 0.23,-1.05 0.76,-1.16 0.54,-0.11 1.06,0.23 1.17,0.76 1.27,6.15 -3.98,10.4 -6.18,10.97 -0.09,0.03 -0.17,0.04 -0.25,0.04z"/>
  <path class="fil1" d="M49.7 109.74c-0.23,0 -0.46,-0.08 -0.65,-0.24 -4.65,-4.06 -5.61,-15.52 -6.32,-23.89 -0.18,-2.2 -0.34,-4.11 -0.55,-5.61 -0.07,-0.54 0.31,-1.03 0.85,-1.11 0.54,-0.07 1.03,0.31 1.1,0.85 0.21,1.55 0.37,3.47 0.56,5.71 0.64,7.58 1.6,19.03 5.65,22.57 0.41,0.35 0.45,0.98 0.1,1.38 -0.2,0.23 -0.47,0.34 -0.74,0.34z"/>
  <path class="fil1" d="M20.84 104.78c-0.28,0 -0.56,-0.12 -0.76,-0.36 -0.35,-0.41 -0.29,-1.03 0.12,-1.38 3.85,-3.22 7.04,-4.19 10.12,-5.13 2.12,-0.64 4.12,-1.25 6.34,-2.56 2.31,-1.38 4.69,-3.52 6.2,-5.61 0.32,-0.44 0.93,-0.54 1.37,-0.22 0.44,0.32 0.54,0.94 0.22,1.38 -1.66,2.28 -4.26,4.64 -6.79,6.14 -2.42,1.43 -4.63,2.1 -6.76,2.75 -3.04,0.92 -5.9,1.79 -9.43,4.76 -0.19,0.15 -0.41,0.23 -0.63,0.23z"/>
  <g>
   <path class="fil1" d="M70.19 107.91l0 0 0 0zm-0.1 1.18c-0.15,0 -0.29,-0.03 -0.43,-0.09 -0.49,-0.24 -0.69,-0.83 -0.46,-1.32l0.02 -0.03c0.15,-1.99 1.36,-4.44 2.64,-7.04 0.86,-1.74 1.75,-3.54 2.18,-5 1.41,-4.81 1.83,-9.27 1.02,-10.86 -0.25,-0.48 -0.06,-1.08 0.43,-1.32 0.48,-0.25 1.07,-0.06 1.32,0.43 1.64,3.22 -0.45,10.82 -0.89,12.31 -0.47,1.62 -1.4,3.5 -2.3,5.31 -1.17,2.39 -2.39,4.86 -2.45,6.46 -0.01,0.14 -0.04,0.27 -0.1,0.39l-0.1 0.21c-0.17,0.35 -0.52,0.55 -0.88,0.55z"/>
  </g>
  <path class="fil1" d="M93.22 96.76c-2.19,0 -3.57,-1.94 -5.16,-4.16 -2.28,-3.2 -5.11,-7.17 -11.58,-8.61 -0.53,-0.11 -0.87,-0.64 -0.75,-1.17 0.12,-0.53 0.64,-0.86 1.17,-0.75 7.21,1.6 10.42,6.1 12.76,9.38 1.59,2.23 2.56,3.49 3.81,3.33 0.54,-0.07 1.03,0.32 1.09,0.85 0.07,0.54 -0.31,1.03 -0.85,1.1 -0.17,0.02 -0.33,0.03 -0.49,0.03z"/>
  <path class="fil1" d="M77.67 106.44c-0.08,0 -0.16,-0.01 -0.24,-0.03 -0.52,-0.13 -0.84,-0.67 -0.71,-1.19 0.98,-3.91 2.44,-11.82 1.66,-16.69 -0.09,-0.54 0.28,-1.04 0.82,-1.13 0.53,-0.08 1.04,0.28 1.12,0.82 1.02,6.39 -1.41,16.36 -1.69,17.48 -0.12,0.44 -0.52,0.74 -0.96,0.74z"/>
  <path class="fil1" d="M87.87 99.76l-0.01 0c-0.54,-0.01 -0.98,-0.46 -0.97,-1 0.03,-2.29 -2.77,-6.22 -4.67,-8.3 -0.36,-0.41 -0.33,-1.03 0.07,-1.39 0.4,-0.37 1.02,-0.34 1.39,0.06 0.21,0.24 5.23,5.8 5.18,9.66 -0.01,0.54 -0.45,0.97 -0.99,0.97z"/>
  <path class="fil1" d="M75.65 37.55c-0.24,0 -0.47,-0.14 -0.59,-0.38 -0.15,-0.32 -0.01,-0.71 0.31,-0.87 1.47,-0.7 2.41,-3.24 1.85,-5.03 -0.01,-0.03 -0.02,-0.06 -0.03,-0.08 -0.07,-0.14 -0.12,-0.29 -0.14,-0.56 -0.01,-0.36 0.27,-0.67 0.63,-0.68 0.35,-0.01 0.67,0.26 0.68,0.62l0.02 0.08c0.03,0.06 0.06,0.14 0.09,0.23 0.68,2.17 -0.28,5.53 -2.53,6.6 -0.09,0.05 -0.19,0.07 -0.29,0.07z"/>
  <path class="fil1" d="M70.79 36.16c-0.14,0 -0.27,-0.04 -0.39,-0.13 -0.29,-0.21 -0.35,-0.62 -0.14,-0.91 2.1,-2.87 2.55,-4.01 1.84,-7.73 -0.06,-0.35 0.17,-0.69 0.52,-0.76 0.36,-0.07 0.7,0.16 0.77,0.52 0.78,4.07 0.23,5.6 -2.07,8.74 -0.13,0.18 -0.33,0.27 -0.53,0.27z"/>
  <path class="fil1" d="M43.14 40.33c-2.69,0 -5.89,-1.09 -7.18,-2.7 -0.22,-0.28 -0.18,-0.69 0.1,-0.92 0.28,-0.22 0.7,-0.18 0.92,0.1 1.39,1.73 6.08,2.79 8.25,1.86 0.33,-0.14 0.71,0.01 0.86,0.34 0.14,0.34 -0.02,0.72 -0.35,0.87 -0.72,0.3 -1.63,0.45 -2.6,0.45z"/>
  <path class="fil1" d="M30.43 67.29c-0.19,0 -0.38,-0.08 -0.51,-0.24 -0.22,-0.28 -0.18,-0.69 0.1,-0.92 0.36,-0.39 0.28,-2.99 -0.17,-5.35 -1.34,-6.99 -1.32,-7.7 -1.13,-14.43l0.01 -0.21c0,-0.36 0.3,-0.66 0.67,-0.63 0.36,0.01 0.65,0.31 0.64,0.67l-0.01 0.21c-0.19,6.74 -0.21,7.29 1.1,14.15 0.25,1.29 0.96,5.58 -0.28,6.6 -0.13,0.1 -0.27,0.15 -0.42,0.15z"/>
  <path class="fil1" d="M31.96 35.49c-0.35,0 -0.64,-0.28 -0.66,-0.63 -0.2,-4.38 1.85,-6.04 3.66,-7.49 1.21,-0.98 2.26,-1.83 2.67,-3.41 0.09,-0.35 0.45,-0.56 0.8,-0.47 0.35,0.09 0.56,0.45 0.47,0.8 -0.52,2 -1.84,3.07 -3.12,4.1 -1.72,1.38 -3.34,2.69 -3.17,6.41 0.02,0.36 -0.26,0.67 -0.62,0.68 -0.01,0.01 -0.02,0.01 -0.03,0.01z"/>
  <path class="fil1" d="M88.25 64.63c-0.02,0 -0.05,0 -0.08,0 -0.54,-0.05 -0.94,-0.52 -0.9,-1.06l0.02 -0.21c0.18,-2.23 0.56,-6.87 -0.27,-8.8 -0.64,-1.49 -0.69,-2.26 -0.74,-3.01 -0.04,-0.52 -0.07,-0.97 -0.32,-1.75 -0.17,-0.52 0.12,-1.07 0.63,-1.24 0.52,-0.17 1.07,0.12 1.24,0.63 0.33,1.02 0.37,1.66 0.41,2.23 0.04,0.64 0.08,1.19 0.58,2.36 1.03,2.39 0.65,6.99 0.43,9.74l-0.02 0.21c-0.04,0.51 -0.47,0.9 -0.98,0.9z"/>
  <path class="fil1" d="M82.28 44.37c-0.08,0 -0.15,-0.01 -0.23,-0.04 -0.34,-0.12 -0.51,-0.5 -0.38,-0.84 1.36,-3.65 1.04,-4.97 0.59,-6.79 -0.24,-0.97 -0.52,-2.07 -0.59,-3.68 -0.02,-0.36 0.26,-0.67 0.62,-0.68 0.37,-0.02 0.67,0.26 0.69,0.62 0.07,1.48 0.31,2.47 0.55,3.43 0.49,1.97 0.87,3.53 -0.64,7.56 -0.09,0.26 -0.34,0.42 -0.61,0.42z"/>
  <path class="fil2" d="M52.8 56.57c1.06,0 1.92,0.86 1.92,1.92 0,1.06 -0.86,1.92 -1.92,1.92 -1.06,0 -1.92,-0.86 -1.92,-1.92 0,-1.06 0.86,-1.92 1.92,-1.92z"/>
  <path class="fil2" d="M73.42 54.36c1.01,0 1.83,0.82 1.83,1.83 0,1.01 -0.82,1.83 -1.83,1.83 -1.01,0 -1.83,-0.82 -1.83,-1.83 0,-1.01 0.82,-1.83 1.83,-1.83z"/>
  <path class="fil1" d="M33.29 95.79c-0.19,0 -0.38,-0.06 -0.55,-0.17 -3.72,-2.54 -3.48,-6.52 -3.28,-10.03 0.06,-1.03 0.12,-2.01 0.08,-2.93 -0.01,-0.34 -0.02,-0.68 -0.02,-1.04 -0.01,-1.43 -0.02,-3.05 -0.86,-5.51 -0.18,-0.51 0.09,-1.07 0.61,-1.25 0.51,-0.17 1.07,0.1 1.25,0.61 0.95,2.77 0.96,4.64 0.97,6.14 0,0.34 0,0.66 0.01,0.97 0.05,1.02 -0.02,2.09 -0.08,3.13 -0.19,3.28 -0.37,6.37 2.43,8.29 0.45,0.3 0.56,0.91 0.26,1.36 -0.19,0.28 -0.5,0.43 -0.82,0.43z"/>
  <path class="fil1" d="M47.28 38c-2.91,0 -5.31,-2.15 -5.76,-4.2 -0.08,-0.36 0.15,-0.7 0.5,-0.78 0.36,-0.07 0.71,0.15 0.78,0.5 0.34,1.55 2.29,3.22 4.6,3.17 0.37,-0.02 0.66,0.28 0.67,0.64 0.01,0.36 -0.28,0.66 -0.64,0.67 -0.05,0 -0.1,0 -0.15,0z"/>
  <path class="fil1" d="M38.42 45.28c-0.05,0 -0.1,-0.01 -0.15,-0.02 -2.68,-0.65 -3.31,-1.04 -3.92,-1.41 -0.27,-0.17 -0.49,-0.31 -0.93,-0.48 -0.34,-0.13 -0.51,-0.51 -0.37,-0.85 0.13,-0.33 0.51,-0.5 0.84,-0.37 0.55,0.21 0.86,0.4 1.15,0.58 0.52,0.33 1.06,0.66 3.54,1.25 0.35,0.09 0.57,0.44 0.48,0.79 -0.07,0.3 -0.34,0.51 -0.64,0.51z"/>
  <path class="fil1" d="M43.94 23.83c-0.16,0 -0.33,-0.06 -0.46,-0.19 -2.54,-2.54 -2.08,-5.48 -1.72,-7.85 0.08,-0.5 0.15,-0.97 0.19,-1.4 0.03,-0.36 0.35,-0.63 0.71,-0.6 0.36,0.03 0.63,0.35 0.6,0.71 -0.05,0.48 -0.12,0.97 -0.2,1.49 -0.34,2.18 -0.72,4.65 1.35,6.72 0.25,0.26 0.25,0.68 0,0.93 -0.13,0.13 -0.3,0.19 -0.47,0.19z"/>
  <path class="fil1" d="M29.48 43.06c-0.36,0 -0.66,-0.29 -0.66,-0.65 0,-0.89 0.37,-4.24 1.19,-5.2 0.23,-0.27 0.65,-0.3 0.92,-0.07 0.28,0.24 0.31,0.65 0.08,0.93 -0.43,0.49 -0.88,3.18 -0.88,4.34 0,0.36 -0.29,0.65 -0.65,0.65z"/>
  <path class="fil1" d="M68.59 19.39c-0.36,0 -0.66,-0.3 -0.66,-0.66 0,-4.19 -0.59,-4.49 -1.16,-4.78 -0.15,-0.08 -0.29,-0.15 -0.44,-0.25 -0.3,-0.2 -0.39,-0.6 -0.19,-0.91 0.2,-0.3 0.61,-0.38 0.91,-0.18 0.1,0.07 0.21,0.12 0.32,0.17 1.13,0.58 1.88,1.31 1.88,5.95 0,0.36 -0.3,0.66 -0.66,0.66z"/>
  <path class="fil1" d="M52.34 62.08c-2.73,0 -4.11,-1.28 -5.01,-2.39 -0.23,-0.28 -0.18,-0.7 0.1,-0.92 0.28,-0.23 0.69,-0.19 0.92,0.1 0.81,1.01 1.87,1.94 4.14,1.89 0.36,-0.01 0.66,0.28 0.67,0.65 0.01,0.36 -0.28,0.66 -0.64,0.66 -0.06,0 -0.12,0.01 -0.18,0.01z"/>
  <path class="fil1" d="M72.71 59.81c-0.05,0 -0.1,0 -0.15,0 -0.36,-0.01 -0.64,-0.3 -0.64,-0.67 0.01,-0.36 0.3,-0.65 0.67,-0.64 1.83,0.05 3.3,-0.72 4.63,-2.38 0.22,-0.29 0.64,-0.33 0.92,-0.11 0.28,0.23 0.33,0.64 0.1,0.93 -1.55,1.93 -3.36,2.87 -5.53,2.87z"/>
 </g>
</svg>
