<?xml version="1.0" encoding="UTF-8"?>
<!DOCTYPE svg PUBLIC "-//W3C//DTD SVG 1.1//EN" "http://www.w3.org/Graphics/SVG/1.1/DTD/svg11.dtd">
<!-- Creator: CorelDRAW 2018 (64-Bit) -->
<svg xmlns="http://www.w3.org/2000/svg" xml:space="preserve" width="845px" height="845px" version="1.1" style="shape-rendering:geometricPrecision; text-rendering:geometricPrecision; image-rendering:optimizeQuality; fill-rule:evenodd; clip-rule:evenodd"
viewBox="0 0 117.19 117.19"
 xmlns:xlink="http://www.w3.org/1999/xlink">
 <defs>
  <style type="text/css">
   <![CDATA[
    .fil0 {fill:none}
    .fil2 {fill:black}
    .fil1 {fill:black;fill-rule:nonzero}
   ]]>
  </style>
 </defs>
 <g id="Слой_x0020_1">
  <metadata id="CorelCorpID_0Corel-Layer"/>
  <rect class="fil0" width="117.19" height="117.19"/>
 </g>
 <g id="_1">
  <metadata id="CorelCorpID_1Corel-Layer"/>
  <path class="fil1" d="M35.52 41.1c-0.2,0 -0.4,-0.06 -0.58,-0.19 -0.44,-0.32 -0.53,-0.94 -0.2,-1.38 0.22,-0.29 0.34,-0.51 0.45,-0.73 0.44,-0.81 0.8,-1.24 2.27,-1.7 2.42,-0.78 5.55,-0.39 6.46,-0.25 0.31,0.05 0.64,0.11 0.96,0.16 0.76,0.13 1.91,0.33 2.23,0.24 0.51,-0.19 1.07,0.07 1.26,0.58 0.19,0.5 -0.07,1.07 -0.58,1.26 -0.77,0.29 -1.92,0.09 -3.25,-0.14 -0.31,-0.05 -0.62,-0.11 -0.92,-0.15 -1.64,-0.26 -3.97,-0.34 -5.57,0.17 -0.87,0.28 -0.9,0.34 -1.13,0.76 -0.12,0.24 -0.3,0.57 -0.61,0.98 -0.19,0.26 -0.48,0.39 -0.79,0.39z"/>
  <path class="fil1" d="M71.28 38.56c-0.18,0 -0.36,-0.05 -0.52,-0.15 -1.16,-0.72 -2.19,-1.24 -3.13,-1.58 -1.54,-0.57 -4.37,-0.19 -6.64,0.11 -1.13,0.15 -2.2,0.29 -3.06,0.32 -0.54,0.02 -1,-0.41 -1.01,-0.95 -0.02,-0.55 0.4,-1 0.95,-1.02 0.76,-0.02 1.78,-0.16 2.86,-0.3 2.62,-0.35 5.58,-0.74 7.58,-0.01 1.07,0.4 2.21,0.97 3.49,1.76 0.46,0.28 0.6,0.89 0.31,1.35 -0.18,0.3 -0.5,0.47 -0.83,0.47z"/>
  <path class="fil1" d="M58.58 43.35c-0.26,0 -0.52,-0.1 -0.71,-0.3 -0.38,-0.39 -0.37,-1.01 0.02,-1.39 3.15,-3.05 6.89,-3.65 10.25,-1.62l0.34 0.2c0.68,0.42 1.27,0.78 1.93,0.87 0.11,0.01 0.22,0.04 0.32,0.09l0.12 0.07c0.49,0.24 0.68,0.83 0.44,1.32 -0.24,0.48 -0.82,0.67 -1.31,0.44 -0.99,-0.17 -1.77,-0.65 -2.53,-1.11l-0.32 -0.2c-2.58,-1.55 -5.37,-1.07 -7.87,1.35 -0.19,0.19 -0.44,0.28 -0.68,0.28z"/>
  <path class="fil1" d="M36.12 46.57c-0.29,0 -0.58,-0.13 -0.77,-0.37 -0.34,-0.43 -0.26,-1.05 0.17,-1.38 0.09,-0.08 0.42,-0.45 0.83,-1.02 2.09,-2.98 3.48,-3.58 7.09,-3.11 1.38,0.18 1.95,0.57 2.55,1.05 0.37,0.3 0.67,0.54 1.56,0.74 0.53,0.12 0.86,0.64 0.74,1.17 -0.11,0.53 -0.64,0.87 -1.17,0.75 -1.34,-0.3 -1.91,-0.76 -2.36,-1.13 -0.38,-0.31 -0.64,-0.51 -1.57,-0.63 -2.89,-0.38 -3.57,-0.08 -5.24,2.29 -0.17,0.25 -0.78,1.09 -1.22,1.44 -0.18,0.14 -0.4,0.2 -0.61,0.2z"/>
  <path class="fil1" d="M33.93 59.63c-1.53,0 -2.92,-2.34 -2.93,-2.37 -1.15,-2.05 -1.36,-3.73 -1.57,-5.35 -0.15,-1.17 -0.29,-2.28 -0.79,-3.51 -0.58,-1.43 -0.38,-3.02 0.49,-3.95 0.7,-0.74 1.72,-0.96 2.79,-0.6 0.17,0.05 0.37,0.16 1.18,0.64 0.18,0.11 0.33,0.2 0.39,0.23 0.48,0.26 0.66,0.85 0.41,1.33 -0.26,0.48 -0.84,0.66 -1.32,0.41 -0.07,-0.03 -0.26,-0.14 -0.48,-0.28 -0.23,-0.13 -0.69,-0.4 -0.84,-0.48 -0.47,-0.15 -0.63,0.03 -0.69,0.09 -0.3,0.32 -0.42,1.1 -0.11,1.87 0.6,1.47 0.76,2.76 0.92,4 0.19,1.5 0.37,2.92 1.33,4.64 0.2,0.34 0.89,1.16 1.23,1.34 0.46,-0.07 0.91,0.18 1.08,0.62 0.19,0.51 -0.07,1.08 -0.57,1.27 -0.18,0.07 -0.35,0.1 -0.52,0.1z"/>
  <path class="fil1" d="M51.88 57.73c-0.77,0 -1.53,-0.22 -2.07,-0.65 -1.3,-1.05 -1.54,-0.9 -2.01,-0.6 -0.17,0.11 -0.36,0.23 -0.59,0.33 -0.79,0.37 -2.01,0.2 -2.75,-0.15 -0.46,-0.22 -1.21,-0.79 -1.18,-2.26 0.04,-1.6 1.09,-3.97 2.27,-4.46 0.5,-0.21 1.07,0.03 1.28,0.53 0.21,0.49 -0.02,1.05 -0.5,1.27 -0.27,0.21 -0.88,1.28 -1.04,2.33 -0.09,0.53 -0.01,0.78 0.03,0.83 0.35,0.16 0.92,0.18 1.08,0.12 0.12,-0.05 0.23,-0.13 0.34,-0.2 1.21,-0.77 2.3,-0.89 4.31,0.73 0.39,0.32 1.47,0.25 1.76,-0.04 0.12,-0.12 0.17,-0.19 0.23,-0.29 0.17,-0.25 0.36,-0.5 0.82,-0.75 1.99,-1.07 2.93,-0.62 3.79,0.45 0.34,0.42 0.51,0.63 1.14,0.63 0.52,0 0.9,-0.09 1.03,-0.26 0.32,-0.42 0,-1.72 -0.24,-2.68 -0.11,-0.46 -0.23,-0.75 -0.39,-0.94 -0.08,-0.09 -0.18,-0.17 -0.29,-0.23 -0.48,-0.25 -0.66,-0.84 -0.41,-1.32 0.26,-0.48 0.85,-0.67 1.33,-0.41 0.33,0.17 0.63,0.41 0.87,0.7 0.36,0.43 0.61,0.96 0.79,1.68 0.38,1.55 0.8,3.24 -0.11,4.41 -0.53,0.67 -1.4,1.02 -2.58,1.02 -1.57,0 -2.25,-0.85 -2.67,-1.36 -0.09,-0.12 -0.24,-0.31 -0.3,-0.33 0,0 -0.24,-0.05 -1.03,0.37 -0.03,0.02 -0.05,0.03 -0.07,0.05 -0.01,0 -0.02,0.03 -0.04,0.05 -0.08,0.13 -0.22,0.34 -0.48,0.6 -0.55,0.55 -1.43,0.83 -2.32,0.83z"/>
  <path class="fil1" d="M81.08 63.06c-0.19,0 -0.37,-0.01 -0.53,-0.02 -0.54,-0.06 -0.93,-0.54 -0.88,-1.08 0.06,-0.54 0.54,-0.93 1.08,-0.88 0.95,0.1 2.6,-0.23 3.62,-0.92 0.17,-0.12 0.44,-0.54 0.67,-0.92 0.23,-0.35 0.48,-0.75 0.8,-1.17 0.32,-0.43 0.63,-0.78 0.93,-1.12 0.55,-0.62 1.02,-1.17 1.41,-2.01 0.55,-1.18 0.98,-2.6 1.17,-3.21l0.06 -0.19c0.88,-2.83 1.16,-7.24 0.22,-8.18 -1.25,-1.23 -2.13,-1 -4.19,-0.33l-0.21 0.07c-0.59,0.19 -0.84,0.46 -1.18,0.83 -0.19,0.2 -0.41,0.44 -0.69,0.66 -0.44,0.32 -1.05,0.24 -1.38,-0.19 -0.33,-0.44 -0.24,-1.05 0.19,-1.38 0.15,-0.11 0.28,-0.26 0.44,-0.43 0.39,-0.42 0.93,-1.01 2.01,-1.36l0.21 -0.07c2.07,-0.68 4.03,-1.32 6.18,0.81 1.97,1.95 1.02,7.79 0.27,10.16l-0.05 0.18c-0.2,0.64 -0.66,2.15 -1.26,3.45 -0.51,1.11 -1.13,1.81 -1.73,2.49 -0.27,0.31 -0.56,0.64 -0.84,1.01 -0.26,0.35 -0.48,0.7 -0.69,1.03 -0.39,0.62 -0.73,1.15 -1.23,1.49 -1.27,0.87 -3.09,1.28 -4.4,1.28z"/>
  <path class="fil1" d="M83.74 56.98c-0.3,0 -0.6,-0.14 -0.79,-0.4 -0.32,-0.44 -0.23,-1.05 0.21,-1.38 1.37,-1.02 2.69,-3.36 3.34,-5.1 0.69,-1.89 0.79,-3 0.73,-3.24 -0.17,-0.39 -0.48,-0.59 -0.94,-0.55 -0.48,0.05 -1.05,0.39 -1.15,0.89 -0.12,0.53 -0.64,0.87 -1.17,0.76 -0.53,-0.11 -0.87,-0.63 -0.76,-1.16 0.27,-1.29 1.5,-2.32 2.91,-2.44 1.31,-0.12 2.44,0.56 2.93,1.78 0.46,1.12 -0.25,3.39 -0.71,4.64 -0.71,1.92 -2.19,4.65 -4.01,6 -0.18,0.13 -0.38,0.2 -0.59,0.2z"/>
  <path class="fil1" d="M33.03 46.57c-0.42,0 -0.82,-0.28 -0.94,-0.71 -0.14,-0.49 0,-12.88 0.5,-14.08 0.61,-1.49 0.92,-2.67 1.24,-3.91 0.45,-1.7 0.91,-3.45 2.15,-6 1.71,-3.52 3.93,-4.65 7.68,-3.92 6.12,1.19 6.5,1.1 8.93,0.48 1.18,-0.3 2.8,-0.7 5.59,-1.15 0.84,-0.13 1.7,-0.3 2.62,-0.48 5.01,-0.97 11.24,-2.18 14.77,2.75 2.24,3.12 2.15,6.24 2.04,9.86 -0.02,0.78 -0.04,1.59 -0.04,2.43l0 0.18c0,2.42 0,3.63 1.26,5 0.36,0.4 0.34,1.02 -0.06,1.38 -0.4,0.37 -1.02,0.35 -1.39,-0.05 -1.78,-1.93 -1.78,-3.78 -1.78,-6.33l0 -0.18c0,-0.86 0.03,-1.69 0.05,-2.49 0.1,-3.4 0.17,-6.08 -1.68,-8.66 -2.79,-3.9 -7.88,-2.91 -12.8,-1.96 -0.93,0.18 -1.81,0.35 -2.68,0.49 -2.71,0.43 -4.27,0.83 -5.42,1.12 -2.77,0.7 -3.41,0.78 -9.79,-0.46 -2.87,-0.56 -4.21,0.13 -5.53,2.85 -1.16,2.37 -1.57,3.96 -2.01,5.63 -0.33,1.26 -0.67,2.56 -1.34,4.17 -0.28,1.03 -0.49,11.84 -0.4,12.89 0.09,0.49 -0.21,0.97 -0.69,1.12 -0.1,0.02 -0.19,0.03 -0.28,0.03z"/>
  <path class="fil1" d="M83.74 43.82c-0.23,0 -0.47,-0.08 -0.66,-0.25 -0.4,-0.37 -0.43,-0.99 -0.06,-1.39 0.28,-0.31 1.07,-1.6 1.34,-3.79 0.31,-2.48 -0.03,-3.85 -0.46,-5.59 -0.2,-0.81 -0.42,-1.72 -0.6,-2.83 -0.27,-1.65 -0.38,-3.31 -0.44,-4.56 -0.15,-2.72 -0.92,-3.38 -1.98,-4.3 -0.54,-0.47 -1.16,-1 -1.72,-1.82 -3.03,-4.44 -3.75,-4.51 -4.45,-4.57 -0.87,-0.08 -1.7,-0.25 -3.1,-1.46 -3.46,-3.01 -5.29,-3.24 -6.63,-3.41 -0.72,-0.09 -1.39,-0.17 -2.04,-0.65 -2.74,-2.05 -3.11,-2.01 -4.31,-1.86 -0.9,0.11 -2.14,0.26 -4.47,-0.08 -0.87,-0.12 -2.79,0.03 -4.26,0.45 -0.27,0.07 -0.66,0.34 -1.12,0.64 -0.47,0.32 -1.05,0.71 -1.76,1.07 -0.65,0.34 -1.5,0.61 -2.25,0.85 -0.3,0.1 -0.59,0.19 -0.84,0.28 -1.3,0.46 -1.46,0.9 -1.74,1.63l-0.07 0.19c-0.17,0.44 -0.47,0.8 -0.76,1.16 -0.07,0.08 -0.14,0.16 -0.2,0.25 -0.7,0.88 -1.69,1.22 -2.56,1.52 -1.04,0.36 -1.6,0.58 -1.8,1.27l-0.07 0.24c-0.14,0.49 -0.34,1.16 -0.57,2.07 -0.12,0.48 -0.23,0.94 -0.34,1.38l-0.13 0.58c-0.33,1.37 -0.76,2.51 -1.19,3.61 -0.57,1.49 -1.11,2.89 -1.25,4.61 -0.03,0.29 -0.09,0.74 -0.17,1.29 -0.95,6.8 -0.11,7.5 0.18,7.55 0.53,0.09 0.89,0.6 0.79,1.14 -0.1,0.53 -0.61,0.89 -1.14,0.79 -3.06,-0.55 -2.25,-6.31 -1.77,-9.75 0.07,-0.51 0.13,-0.92 0.15,-1.18 0.17,-2.01 0.78,-3.61 1.38,-5.15 0.4,-1.05 0.81,-2.13 1.11,-3.36l0.13 -0.57c0.11,-0.46 0.22,-0.93 0.34,-1.42 0.24,-0.95 0.45,-1.64 0.6,-2.15l0.07 -0.24c0.49,-1.69 1.91,-2.17 3.04,-2.57 0.68,-0.23 1.32,-0.45 1.66,-0.88 0.07,-0.1 0.15,-0.19 0.23,-0.28 0.18,-0.22 0.38,-0.47 0.44,-0.62l0.06 -0.17c0.34,-0.9 0.76,-2.02 2.92,-2.79 0.27,-0.1 0.58,-0.19 0.9,-0.3 0.67,-0.22 1.44,-0.46 1.95,-0.73 0.61,-0.31 1.12,-0.65 1.57,-0.95 0.59,-0.4 1.11,-0.74 1.67,-0.9 1.61,-0.46 3.84,-0.68 5.09,-0.5 2.07,0.3 3.11,0.17 3.94,0.07 1.78,-0.22 2.62,-0.09 5.73,2.23 0.22,0.17 0.51,0.21 1.1,0.28 1.5,0.19 3.76,0.47 7.68,3.88 1.03,0.89 1.48,0.93 1.99,0.98 1.45,0.14 2.51,0.47 5.89,5.42 0.42,0.61 0.89,1.01 1.38,1.44 1.22,1.05 2.47,2.13 2.66,5.69 0.06,1.2 0.17,2.78 0.42,4.34 0.16,1.04 0.37,1.87 0.57,2.68 0.46,1.86 0.85,3.46 0.5,6.3 -0.29,2.43 -1.18,4.14 -1.84,4.87 -0.19,0.21 -0.46,0.32 -0.73,0.32z"/>
  <path class="fil1" d="M52.91 83.98c-1.92,0 -3.26,-0.65 -6.18,-2.16 -0.54,-0.28 -1.14,-0.59 -1.81,-0.93 -1.92,-0.97 -3.07,-1.81 -3.97,-2.9 -2.38,-2.88 -4.47,-6.94 -5.61,-10.86 -0.43,-1.5 -0.64,-2.77 -0.85,-4 -0.27,-1.58 -0.52,-3.07 -1.22,-4.95 -0.75,-2.04 -1.09,-5.28 -1.33,-8.18 -0.04,-0.54 0.36,-1.01 0.9,-1.05 0.54,-0.05 1.02,0.35 1.06,0.9 0.15,1.81 0.46,5.59 1.22,7.65 0.75,2.05 1.03,3.7 1.3,5.3 0.2,1.18 0.41,2.39 0.81,3.79 1.06,3.67 3.02,7.47 5.23,10.15 0.52,0.63 1.29,1.36 3.35,2.4 0.68,0.34 1.28,0.65 1.82,0.93 4.12,2.13 4.46,2.3 8.33,1.55 2.09,-0.41 3.09,-0.82 4.2,-1.42 2.76,-1.49 4.79,-2.53 7.57,-3.69 1.55,-0.65 5.19,-2.17 5.94,-3.23 0.31,-0.45 0.93,-0.55 1.37,-0.24 0.44,0.31 0.55,0.92 0.24,1.37 -0.89,1.27 -3.26,2.44 -6.8,3.92 -2.72,1.13 -4.62,2.1 -7.38,3.6 -1.25,0.68 -2.43,1.16 -4.77,1.62 -1.44,0.28 -2.5,0.43 -3.42,0.43z"/>
  <path class="fil1" d="M43.05 60.06c-0.16,0 -0.33,-0.05 -0.47,-0.15 -0.37,-0.26 -0.45,-0.77 -0.19,-1.14 0.34,-0.48 1.19,-2.41 1.45,-3.54 0.1,-0.44 0.54,-0.71 0.98,-0.61 0.44,0.1 0.71,0.54 0.61,0.98 -0.3,1.31 -1.22,3.43 -1.71,4.12 -0.16,0.22 -0.41,0.34 -0.67,0.34z"/>
  <path class="fil1" d="M62.61 59.36c-0.2,0 -0.4,-0.08 -0.56,-0.22 -1.05,-0.99 -1.82,-2.74 -2.03,-3.25 -0.17,-0.42 0.03,-0.9 0.45,-1.07 0.41,-0.17 0.89,0.03 1.06,0.45 0.37,0.89 1,2.07 1.64,2.67 0.33,0.31 0.35,0.83 0.04,1.16 -0.16,0.17 -0.38,0.26 -0.6,0.26z"/>
  <path class="fil1" d="M63.38 66.56c0,0 0,0 0,0 0,0 0,0 0,0zm0 0c0,0 0,0 0,0 0,0 0,0 0,0zm0 0c0,0 0,0 0,0 0,0 0,0 0,0zm0 0l0 0zm-17.9 2.2c-0.38,0 -0.73,-0.08 -1.1,-0.22 -0.34,-0.12 -0.53,-0.19 -1.09,-0.02 -0.52,0.17 -1.07,-0.12 -1.23,-0.64 -0.16,-0.52 0.13,-1.07 0.65,-1.23 1.19,-0.37 1.88,-0.12 2.34,0.05 0.41,0.15 0.8,0.29 2.85,-1.22 1.35,-1 2.52,-0.38 3.37,0.08 1.07,0.56 2,1.06 4.02,-0.49 0.81,-0.61 1.87,-0.59 2.76,0.06 0.14,0.1 0.29,0.23 0.44,0.35 0.46,0.4 0.86,0.74 1.63,0.74 0.11,-0.01 0.53,-0.17 0.81,-0.28 0.67,-0.27 1.43,-0.57 2.15,-0.58 0.61,-0.03 1.64,0.39 2,0.93 0.21,0.31 0.26,0.69 0.12,1.02 -0.21,0.5 -0.79,0.74 -1.29,0.53 -0.2,-0.08 -0.35,-0.22 -0.46,-0.39 -0.12,-0.06 -0.28,-0.12 -0.36,-0.13 -0.34,0.01 -0.95,0.25 -1.44,0.44 -0.58,0.23 -1.08,0.43 -1.53,0.43 -1.49,0 -2.34,-0.73 -2.91,-1.21 -0.11,-0.1 -0.21,-0.19 -0.32,-0.26 -0.26,-0.19 -0.35,-0.12 -0.41,-0.08 -3.02,2.3 -4.89,1.31 -6.13,0.65 -0.87,-0.46 -0.98,-0.46 -1.28,-0.23 -1.72,1.26 -2.73,1.7 -3.59,1.7z"/>
  <path class="fil1" d="M51.65 71.68c-1.26,0 -1.81,-0.13 -2.3,-0.24 -0.26,-0.07 -0.47,-0.12 -0.81,-0.14 -0.54,-0.04 -0.95,-0.5 -0.91,-1.05 0.03,-0.54 0.5,-0.95 1.04,-0.91 0.5,0.03 0.84,0.11 1.14,0.18 0.42,0.1 0.81,0.2 1.84,0.2 2.21,0 5.07,-0.19 5.64,-0.45 0.5,-0.23 1.08,-0.02 1.31,0.47 0.23,0.5 0.01,1.08 -0.48,1.31 -1.32,0.61 -5.95,0.63 -6.47,0.63z"/>
  <path class="fil1" d="M49.81 76c-0.37,0 -0.73,-0.22 -0.9,-0.59 -0.22,-0.49 0.01,-1.07 0.5,-1.29 2.43,-1.09 6.61,-1.08 8.8,-0.73 0.54,0.09 0.9,0.6 0.82,1.13 -0.09,0.54 -0.59,0.9 -1.13,0.81 -2.27,-0.36 -5.9,-0.22 -7.69,0.58 -0.13,0.06 -0.26,0.09 -0.4,0.09z"/>
  <g>
   <path class="fil1" d="M82.11 70.51l0.01 0 -0.01 0zm-37.21 16.31c-0.42,0 -0.78,-0.25 -0.93,-0.64 -0.57,-1.58 -0.68,-2.65 -0.79,-3.68 -0.08,-0.8 -0.16,-1.62 -0.48,-2.76l-0.01 -0.05c-0.08,-0.26 -0.09,-0.37 -0.08,-0.66 0.02,-0.54 0.49,-0.96 1.02,-0.94 0.55,0.02 0.97,0.47 0.95,1.02l0 0.03 0.02 0.08c0.35,1.29 0.45,2.24 0.54,3.08 0.08,0.82 0.15,1.55 0.46,2.54 0.75,-0.03 1.54,-0.11 2.31,-0.18 1.07,-0.1 2.07,-0.19 2.97,-0.18l0 0c0.67,0 7.68,-0.81 8.63,-0.99 1.93,-0.38 3.62,-1.2 5.41,-2.07 0.48,-0.23 0.97,-0.47 1.46,-0.7 0.94,-0.43 1.63,-0.86 2.43,-1.35 0.4,-0.25 0.82,-0.5 1.29,-0.77 0.5,-0.29 1.02,-0.61 1.54,-0.93 0.7,-0.43 1.43,-0.88 2.14,-1.27 0.45,-0.25 1.92,-1.57 2.66,-2.3 0.32,-0.32 0.63,-0.64 0.93,-0.96 1.16,-1.22 2.36,-2.47 4,-3.35 0.1,-0.22 0.17,-0.37 0.23,-0.6 0.12,-0.61 0.48,-6.63 0.43,-7.3 -0.04,-0.54 0.36,-1.01 0.9,-1.06 0.54,-0.04 1.01,0.35 1.06,0.89 0.06,0.74 -0.3,7.25 -0.49,7.97 -0.11,0.42 -0.24,0.7 -0.38,0.98 -0.03,0.08 -0.07,0.16 -0.11,0.25 -0.1,0.2 -0.26,0.37 -0.46,0.47 -1.49,0.73 -2.59,1.88 -3.76,3.1 -0.31,0.33 -0.63,0.67 -0.96,1 -0.41,0.41 -2.25,2.17 -3.11,2.63 -0.66,0.37 -1.37,0.8 -2.05,1.22 -0.53,0.33 -1.07,0.66 -1.59,0.96 -0.45,0.26 -0.86,0.51 -1.24,0.75 -0.82,0.5 -1.59,0.97 -2.63,1.45 -0.49,0.23 -0.96,0.46 -1.43,0.69 -1.91,0.92 -3.71,1.8 -5.89,2.23 -0.96,0.18 -8.11,1.02 -9.03,1.02l-0.02 0c-0.77,-0.01 -1.73,0.08 -2.74,0.18 -1.06,0.1 -2.16,0.2 -3.2,0.2z"/>
  </g>
  <g>
   <path class="fil1" d="M84.12 71.59l0 0 0 0zm-24.58 20.14c-0.01,0.01 -0.01,0.02 -0.02,0.02 0.01,0 0.01,-0.01 0.02,-0.02zm-0.97 0.41c0,0 0,0 0,0 0,0 0,0 0,0zm-0.73 0.32c-0.23,0 -0.47,-0.09 -0.66,-0.26 -0.4,-0.37 -0.43,-0.99 -0.06,-1.39 0.28,-0.31 0.73,-0.49 1.23,-0.67 0.04,-0.01 0.07,-0.02 0.09,-0.03 0.2,-0.11 0.45,-0.18 0.9,-0.3 1.02,-0.28 2.91,-0.8 4.45,-1.89 1.81,-1.26 3.49,-2.62 4.83,-3.7 0.86,-0.69 1.53,-1.24 2.04,-1.6 3.43,-2.45 5.93,-4.32 6.53,-4.89 0.37,-0.34 0.83,-0.73 1.36,-1.18 1.68,-1.42 4.2,-3.55 4.58,-5.06 -0.01,-1.3 -0.41,-2.44 -0.73,-2.55 -0.52,-0.17 -0.8,-0.72 -0.63,-1.24 0.16,-0.52 0.72,-0.8 1.24,-0.63 2,0.65 2.09,3.89 2.09,4.53 0,0.06 -0.01,0.12 -0.02,0.19 -0.44,2.19 -3.11,4.45 -5.26,6.26 -0.51,0.44 -0.96,0.81 -1.29,1.12 -0.97,0.9 -5.02,3.83 -6.72,5.05 -0.47,0.33 -1.16,0.88 -1.95,1.53 -1.37,1.1 -3.08,2.48 -4.94,3.78 -1.83,1.28 -3.93,1.86 -5.06,2.17 -0.2,0.06 -0.36,0.1 -0.46,0.13 -0.11,0.07 -0.23,0.11 -0.38,0.16 -0.12,0.04 -0.4,0.14 -0.51,0.21 -0.19,0.17 -0.43,0.26 -0.67,0.26z"/>
  </g>
  <path class="fil1" d="M50.04 95.44c-0.29,0 -0.59,-0.04 -0.9,-0.11 -1.88,-0.45 -4.3,-2.45 -5.18,-4.29 -2.36,-4.91 -2.12,-5.31 -1.86,-5.74 0.17,-0.28 0.51,-0.49 0.84,-0.5 0.04,0 0.25,-0.02 1.2,-0.14 0.14,-0.02 0.2,-0.03 0.3,-0.02 0.54,0.05 0.94,0.53 0.89,1.07 -0.04,0.48 -0.42,0.84 -0.88,0.89l-0.07 0.01c-0.08,0.01 -0.15,0.02 -0.22,0.03 0.37,0.95 1.05,2.48 1.57,3.55 0.63,1.31 2.55,2.91 3.87,3.23 0.3,0.07 0.55,0.07 0.79,0.01 0.49,-0.13 2.09,-1.45 2.69,-1.95 0.28,-0.22 0.51,-0.42 0.68,-0.54 0.59,-0.46 1.81,-1.41 2.61,-0.45 0.11,0.13 0.2,0.23 0.27,0.3 0.4,-0.3 1.06,-0.77 2.25,-0.8 0.53,0 0.99,0.42 1.01,0.96 0.01,0.55 -0.42,1 -0.96,1.01 -0.6,0.01 -0.86,0.21 -1.17,0.43 -0.9,0.66 -1.62,0.63 -2.46,-0.16 -0.09,0.07 -0.21,0.15 -0.35,0.26 -0.16,0.12 -0.37,0.3 -0.62,0.51 -1.39,1.14 -2.61,2.11 -3.45,2.33 -0.27,0.07 -0.56,0.11 -0.85,0.11z"/>
  <path class="fil1" d="M34.09 94.67c0,0 0,0 0,0 0,0 0,0 0,0zm0.13 1.96c-0.48,0 -0.9,-0.36 -0.97,-0.85 -0.07,-0.53 0.28,-1.01 0.8,-1.1 1.19,-0.46 6.82,-6.72 7.55,-8.02 0.27,-0.47 0.87,-0.64 1.34,-0.38 0.47,0.27 0.64,0.87 0.37,1.34 -0.51,0.92 -6.94,8.73 -8.95,9 -0.05,0 -0.09,0.01 -0.14,0.01z"/>
  <path class="fil1" d="M42.29 102.97c-1.72,0 -3.2,-0.22 -4.11,-0.82 -0.15,-0.1 -0.27,-0.24 -0.35,-0.4 -0.78,-1.65 -0.08,-3.21 0.47,-4.45 0.32,-0.73 0.63,-1.41 0.63,-2 0,-0.45 -0.01,-0.84 -0.01,-1.18 -0.02,-1.56 -0.03,-2.27 0.61,-2.76 0.6,-0.46 1.28,-0.26 2.21,0.01 0.73,0.21 1.84,0.53 3.46,0.76 0.58,0.08 0.93,0.2 1.24,0.31 0.39,0.13 0.69,0.24 1.54,0.27 0.54,0.02 0.96,0.47 0.95,1.01 -0.02,0.55 -0.48,0.99 -1.02,0.95 -1.15,-0.04 -1.66,-0.22 -2.12,-0.38 -0.26,-0.09 -0.48,-0.16 -0.86,-0.22 -1.76,-0.24 -2.95,-0.59 -3.73,-0.82 -0.11,-0.03 -0.22,-0.06 -0.32,-0.08 0,0.26 0,0.59 0.01,0.92 0,0.35 0,0.75 0,1.21 0,1 -0.4,1.91 -0.79,2.79 -0.49,1.1 -0.78,1.85 -0.59,2.55 0.92,0.41 3.22,0.63 8.81,-0.21 0.44,-0.07 0.83,-0.05 1.15,-0.04 0.06,0.01 0.12,0.01 0.19,0.01 -0.01,-0.25 -0.06,-0.74 -0.27,-1.67 -0.22,-0.99 -0.24,-1.23 -0.2,-1.76 0.01,-0.17 0.03,-0.4 0.03,-0.78 0,-0.55 0.44,-0.99 0.98,-0.99 0.55,0 0.99,0.44 0.99,0.99 0,0.46 -0.02,0.72 -0.04,0.93 -0.02,0.29 -0.03,0.36 0.16,1.18 0.44,1.95 0.42,2.86 -0.1,3.49 -0.52,0.62 -1.27,0.59 -1.82,0.57 -0.26,-0.01 -0.52,-0.02 -0.78,0.01 -2.05,0.31 -4.34,0.6 -6.32,0.6z"/>
  <path class="fil1" d="M50.91 102.21c-0.19,0 -0.39,-0.01 -0.58,-0.03 -0.55,-0.04 -0.94,-0.52 -0.9,-1.06 0.05,-0.54 0.53,-0.94 1.07,-0.89 3.56,0.31 6.54,-3.65 8.72,-6.55 0.46,-0.6 0.88,-1.16 1.28,-1.64 0.34,-0.42 0.96,-0.48 1.38,-0.13 0.42,0.34 0.48,0.96 0.13,1.38 -0.36,0.45 -0.78,1 -1.22,1.58 -2.35,3.12 -5.54,7.34 -9.88,7.34z"/>
  <g>
   <path class="fil1" d="M93.47 80.97l0 0 0 0zm-26.64 33.59c-0.49,0 -0.93,-0.37 -0.99,-0.87 -0.11,-0.89 0.74,-1.08 1.19,-1.18 3.07,-0.68 4.17,-1.18 4.57,-1.45 -0.17,-1.24 -0.67,-4.71 -0.76,-5.17 -0.32,-1 -0.26,-1.9 0.18,-2.67 0.93,-1.6 3.2,-2.08 5.03,-2.46 0.43,-0.09 0.83,-0.18 1.16,-0.27 0.75,-0.2 1.67,-0.24 2.56,-0.28 0.93,-0.04 2.66,-0.11 2.67,-0.53 0.2,-6.14 4.3,-11.58 8.69,-16.54 0.46,-0.51 0.85,-0.94 1.18,-1.3 0.38,-0.41 0.74,-0.81 0.94,-1.07 -0.08,-0.07 -0.18,-0.14 -0.26,-0.21 -0.28,-0.22 -0.63,-0.5 -1.05,-0.88 -1.84,-1.67 -3.29,-4.32 -4.57,-6.65 -1.31,-2.39 -2.79,-5.09 -4.02,-5.17 -0.55,-0.04 -0.96,-0.51 -0.92,-1.05 0.04,-0.54 0.51,-0.95 1.05,-0.91 2.3,0.15 3.83,2.95 5.61,6.18 1.27,2.31 2.58,4.7 4.17,6.15 0.37,0.33 0.69,0.58 0.95,0.79 0.58,0.46 1.08,0.86 1.14,1.56 0.06,0.78 -0.42,1.31 -1.59,2.59 -0.32,0.35 -0.71,0.77 -1.16,1.28 -4.15,4.68 -8.02,9.77 -8.2,15.29 -0.07,2.25 -2.66,2.36 -4.54,2.43 -0.79,0.04 -1.59,0.07 -2.13,0.22 -0.38,0.1 -0.81,0.19 -1.28,0.29 -1.36,0.29 -3.24,0.68 -3.72,1.52 -0.06,0.11 -0.24,0.42 -0.01,1.12 0.03,0.1 0.08,0.23 0.5,3.13 0.45,3.14 0.45,3.14 0.26,3.46 -0.57,0.96 -2.31,1.69 -6.02,2.52 -0.1,0.02 -0.19,0.04 -0.25,0.06 -0.11,0.04 -0.23,0.07 -0.35,0.07 -0.01,0 -0.02,0 -0.03,0z"/>
  </g>
  <path class="fil1" d="M47.38 46.97c-0.47,0 -0.88,-0.34 -0.97,-0.82 -0.08,-0.47 0.19,-0.91 0.61,-1.08 0.63,-0.82 0.95,-4.75 0.06,-5.68 -0.38,-0.4 -0.36,-1.02 0.03,-1.39 0.39,-0.38 1.02,-0.36 1.39,0.03 1.42,1.49 1.26,5.16 0.61,7.13 -0.13,0.4 -0.53,1.61 -1.56,1.79 -0.06,0.01 -0.11,0.02 -0.17,0.02z"/>
  <path class="fil1" d="M59.71 47.11c-0.14,0 -0.29,-0.03 -0.42,-0.09 -3.16,-1.52 -3.09,-4.47 -3.04,-6.84 0.01,-0.33 0.01,-0.66 0.01,-0.98 0,-0.55 0.44,-0.99 0.99,-0.99 0.54,0 0.98,0.44 0.98,0.99 0,0.34 -0.01,0.68 -0.02,1.02 -0.05,2.52 0.01,4.11 1.93,5.03 0.49,0.23 0.69,0.82 0.46,1.31 -0.17,0.35 -0.52,0.55 -0.89,0.55z"/>
  <path class="fil2" d="M42.13 40.89c1.01,0 1.83,0.82 1.83,1.83 0,1.01 -0.82,1.83 -1.83,1.83 -1.01,0 -1.83,-0.82 -1.83,-1.83 0,-1.01 0.82,-1.83 1.83,-1.83z"/>
  <path class="fil2" d="M64.81 39.9c0.94,0 1.71,0.77 1.71,1.71 0,0.94 -0.77,1.71 -1.71,1.71 -0.94,0 -1.71,-0.77 -1.71,-1.71 0,-0.94 0.77,-1.71 1.71,-1.71z"/>
  <path class="fil1" d="M63.94 45.44c0,0 -0.01,0 -0.02,0 -2.07,-0.05 -4.1,-0.9 -5.88,-2.45 -0.34,-0.3 -0.38,-0.82 -0.08,-1.16 0.3,-0.34 0.81,-0.38 1.15,-0.08 1.49,1.3 3.17,2.01 4.86,2.05 0.45,0.02 0.81,0.39 0.79,0.85 -0.01,0.44 -0.37,0.79 -0.82,0.79z"/>
  <path class="fil1" d="M79.8 44.46c-0.1,0 -0.2,-0.02 -0.3,-0.07 -0.32,-0.17 -0.44,-0.57 -0.28,-0.89 1.15,-2.22 2.46,-4.74 1.66,-7.36 -0.11,-0.34 0.08,-0.71 0.43,-0.82 0.34,-0.1 0.71,0.09 0.82,0.44 0.96,3.13 -0.54,6.02 -1.74,8.35 -0.12,0.22 -0.35,0.35 -0.59,0.35z"/>
  <path class="fil1" d="M48.64 20.44c-0.02,0 -0.04,0 -0.06,0 -0.36,-0.03 -0.63,-0.35 -0.59,-0.71 0.05,-0.5 -0.79,-1.35 -1.43,-1.6 -2.93,-1.15 -2.4,-3.06 -2.14,-3.98 0.05,-0.19 0.12,-0.43 0.11,-0.52 -0.02,-0.36 0.26,-0.67 0.62,-0.69 0.36,-0.02 0.67,0.25 0.69,0.61 0.02,0.31 -0.07,0.62 -0.16,0.95 -0.26,0.95 -0.47,1.69 1.36,2.41 0.82,0.33 2.38,1.56 2.25,2.94 -0.03,0.34 -0.31,0.59 -0.65,0.59z"/>
  <path class="fil1" d="M50.94 20.45l-0.01 0c-0.36,-0.01 -0.65,-0.31 -0.64,-0.67 0,-0.35 0.12,-0.7 0.25,-1.06 0.3,-0.87 0.55,-1.62 -0.51,-2.52 -1.67,-1.42 -1.97,-2.11 -1.36,-3.24 0.25,-0.47 0.54,-1.01 0.02,-2.55 -0.12,-0.34 0.07,-0.71 0.41,-0.83 0.34,-0.12 0.71,0.07 0.83,0.41 0.65,1.92 0.3,2.83 -0.11,3.59 -0.19,0.35 -0.27,0.5 1.05,1.62 1.75,1.48 1.22,3.02 0.91,3.94 -0.09,0.26 -0.18,0.52 -0.18,0.66 -0.01,0.36 -0.3,0.65 -0.66,0.65z"/>
  <path class="fil1" d="M55.35 19.53c-0.24,0 -0.47,-0.14 -0.59,-0.36 -0.06,-0.12 -0.16,-0.25 -0.26,-0.4 -0.34,-0.45 -0.85,-1.13 -0.45,-2.02 0.21,-0.48 0.01,-0.83 -0.56,-1.62 -0.29,-0.39 -0.62,-0.85 -0.85,-1.38 -0.28,-0.68 -0.41,-1.72 -0.06,-2.53 0.21,-0.47 0.56,-0.8 1.01,-0.96 0.34,-0.13 0.71,0.05 0.84,0.39 0.12,0.34 -0.06,0.72 -0.4,0.84 -0.07,0.02 -0.17,0.08 -0.25,0.26 -0.18,0.41 -0.11,1.08 0.07,1.49 0.16,0.4 0.43,0.76 0.69,1.12 0.56,0.76 1.25,1.7 0.71,2.92 -0.07,0.16 -0.02,0.28 0.3,0.71 0.13,0.18 0.27,0.37 0.38,0.58 0.17,0.33 0.04,0.72 -0.28,0.88 -0.1,0.05 -0.2,0.08 -0.3,0.08z"/>
  <path class="fil1" d="M58.34 19.02c-0.01,0 -0.01,0 -0.02,0 -0.36,-0.01 -0.65,-0.31 -0.64,-0.67 0.03,-0.97 0.38,-1.44 0.64,-1.78 0.06,-0.07 0.11,-0.14 0.16,-0.22 0.28,-0.5 0.37,-0.93 0.27,-1.41 -0.04,-0.22 -0.09,-0.31 -0.48,-0.94 -0.11,-0.18 -0.24,-0.4 -0.4,-0.66 -0.69,-1.16 -0.61,-2.09 0.25,-2.75 0.28,-0.23 0.7,-0.17 0.92,0.11 0.22,0.29 0.17,0.7 -0.12,0.92 -0.2,0.16 -0.38,0.29 0.08,1.04 0.15,0.27 0.28,0.48 0.39,0.66 0.4,0.65 0.56,0.9 0.65,1.36 0.16,0.79 0.02,1.55 -0.42,2.32 -0.08,0.13 -0.17,0.25 -0.26,0.37 -0.2,0.26 -0.35,0.46 -0.37,1.01 -0.01,0.36 -0.3,0.64 -0.65,0.64z"/>
  <path class="fil1" d="M63.58 18.1c-0.32,0 -0.6,-0.24 -0.64,-0.56 -0.12,-0.8 0.15,-1.38 0.37,-1.84 0.32,-0.69 0.54,-1.15 -0.92,-2.63 -0.26,-0.26 -0.25,-0.68 0,-0.93 0.26,-0.25 0.68,-0.25 0.93,0.01 1.95,1.97 1.68,3.03 1.17,4.11 -0.18,0.38 -0.32,0.68 -0.26,1.09 0.06,0.36 -0.19,0.69 -0.55,0.74 -0.03,0.01 -0.07,0.01 -0.1,0.01z"/>
  <path class="fil1" d="M68.13 17.72c-0.08,0 -0.17,-0.02 -0.25,-0.05 -0.34,-0.15 -0.49,-0.53 -0.35,-0.86 0.07,-0.17 0.12,-0.28 0.16,-0.37 0.01,-0.02 0.03,-0.05 0.03,-0.07 0,-0.03 0,-0.06 0,-0.11 -0.01,-0.09 -0.02,-0.21 -0.03,-0.36 0,-0.09 -0.09,-0.23 -0.18,-0.39 -0.24,-0.39 -0.64,-1.04 -0.22,-1.97 0.15,-0.33 0.54,-0.48 0.87,-0.32 0.33,0.15 0.48,0.54 0.32,0.86 -0.12,0.29 -0.07,0.4 0.15,0.75 0.15,0.26 0.35,0.58 0.37,1 0.01,0.15 0.02,0.25 0.02,0.33 0.03,0.38 0.02,0.49 -0.14,0.84 -0.03,0.07 -0.08,0.17 -0.14,0.32 -0.11,0.25 -0.35,0.4 -0.61,0.4z"/>
  <path class="fil1" d="M41.99 19.07c-0.35,0 -0.63,-0.27 -0.65,-0.62 -0.01,-0.15 -0.12,-0.33 -0.25,-0.54 -0.29,-0.48 -0.73,-1.2 -0.25,-2.26 0.15,-0.32 0.54,-0.47 0.87,-0.32 0.33,0.15 0.47,0.54 0.32,0.87 -0.18,0.41 -0.08,0.6 0.18,1.03 0.19,0.3 0.41,0.67 0.44,1.15 0.01,0.36 -0.26,0.67 -0.62,0.69 -0.02,0 -0.03,0 -0.04,0z"/>
  <path class="fil1" d="M79.53 36.07c-0.28,0 -0.54,-0.17 -0.63,-0.45 -0.36,-1.12 -0.4,-2.11 -0.14,-3.14 0.09,-0.35 0.44,-0.56 0.79,-0.47 0.36,0.09 0.57,0.44 0.48,0.79 -0.2,0.78 -0.16,1.55 0.12,2.42 0.11,0.34 -0.08,0.71 -0.42,0.82 -0.07,0.02 -0.14,0.03 -0.2,0.03z"/>
  <path class="fil1" d="M81.49 33.43l-0.02 0c-0.36,0 -0.64,-0.3 -0.64,-0.66 0.04,-1.88 -0.15,-3.48 -0.61,-5.03 -0.1,-0.35 0.1,-0.71 0.44,-0.81 0.35,-0.11 0.72,0.09 0.82,0.44 0.49,1.69 0.7,3.41 0.66,5.42 0,0.36 -0.3,0.64 -0.65,0.64z"/>
  <path class="fil1" d="M79.45 26.38c-0.01,0 -0.01,0 -0.02,0 -0.36,-0.01 -0.64,-0.31 -0.63,-0.67 0.03,-1.32 -0.15,-2.45 -0.6,-3.54 -0.13,-0.34 0.03,-0.72 0.37,-0.86 0.33,-0.13 0.72,0.03 0.85,0.37 0.51,1.26 0.73,2.56 0.69,4.07 -0.01,0.35 -0.31,0.63 -0.66,0.63z"/>
  <path class="fil1" d="M79.4 51.93c-0.03,0 -0.06,0 -0.09,-0.01 -0.36,-0.05 -0.61,-0.38 -0.56,-0.74 0.07,-0.47 0.07,-0.94 0.07,-1.44 0.01,-1.22 0.01,-2.6 1.09,-4.1 0.21,-0.29 0.62,-0.36 0.91,-0.14 0.3,0.21 0.36,0.62 0.15,0.91 -0.83,1.16 -0.83,2.17 -0.84,3.34 0,0.52 0,1.06 -0.08,1.62 -0.05,0.32 -0.33,0.56 -0.65,0.56z"/>
 </g>
</svg>
