<?xml version="1.0" encoding="UTF-8"?>
<!DOCTYPE svg PUBLIC "-//W3C//DTD SVG 1.1//EN" "http://www.w3.org/Graphics/SVG/1.1/DTD/svg11.dtd">
<!-- Creator: CorelDRAW 2018 (64-Bit) -->
<svg xmlns="http://www.w3.org/2000/svg" xml:space="preserve" width="845px" height="845px" version="1.1" style="shape-rendering:geometricPrecision; text-rendering:geometricPrecision; image-rendering:optimizeQuality; fill-rule:evenodd; clip-rule:evenodd"
viewBox="0 0 117.19 117.19"
 xmlns:xlink="http://www.w3.org/1999/xlink">
 <defs>
  <style type="text/css">
   <![CDATA[
    .fil0 {fill:none}
    .fil2 {fill:black}
    .fil1 {fill:black;fill-rule:nonzero}
   ]]>
  </style>
 </defs>
 <g id="Слой_x0020_1">
  <metadata id="CorelCorpID_0Corel-Layer"/>
  <rect class="fil0" width="117.19" height="117.19"/>
 </g>
 <g id="_1">
  <metadata id="CorelCorpID_1Corel-Layer"/>
  <path class="fil1" d="M88.25 44.01c-1.44,0 -3.07,-0.71 -4.3,-2.32 -1.32,-1.74 -1.17,-4.36 -1.02,-6.89 0.08,-1.4 0.15,-2.72 -0.02,-3.78 -1.21,-7.53 -5.36,-12.55 -13.06,-15.79 -5.8,-2.44 -11.63,-3.1 -15.23,-1.73 -2.82,1.07 -4.9,3 -6.01,5.58 -0.67,1.54 -0.64,2.96 0.09,4.75 0.66,1.6 2.24,3.2 4.04,4.06 3.38,1.63 7.22,0.41 8.32,0 0.48,-0.18 0.86,-0.4 1.27,-0.64 0.92,-0.53 1.87,-1.09 3.67,-0.88 1.42,0.17 2.94,1.51 3.69,3.26 0.86,1.98 0.76,4.49 -0.26,6.56 -0.87,1.77 -2.3,3 -4.03,3.44 -0.52,0.14 -1.06,-0.18 -1.19,-0.7 -0.14,-0.53 0.18,-1.06 0.7,-1.2 1.17,-0.3 2.14,-1.15 2.76,-2.41 0.75,-1.54 0.84,-3.47 0.22,-4.91 -0.52,-1.19 -1.5,-2.01 -2.12,-2.08 -1.15,-0.14 -1.64,0.15 -2.46,0.62 -0.43,0.25 -0.92,0.54 -1.56,0.78 -1.65,0.61 -5.89,1.84 -9.86,-0.07 -2.25,-1.08 -4.16,-3.03 -5,-5.09 -0.93,-2.26 -0.96,-4.26 -0.09,-6.27 1.33,-3.07 3.79,-5.37 7.12,-6.64 4.11,-1.56 10.35,-0.91 16.69,1.76 8.39,3.53 12.91,9.02 14.24,17.28 0.21,1.28 0.12,2.77 0.04,4.21 -0.13,2.18 -0.26,4.43 0.63,5.59 1.29,1.7 3.04,1.81 3.8,1.23 0.67,-0.5 0.93,-1.46 0.78,-2.06 -0.1,-0.41 -0.34,-0.5 -0.53,-0.53 -0.53,-0.09 -0.9,-0.59 -0.82,-1.13 0.09,-0.53 0.59,-0.9 1.13,-0.81 1.06,0.16 1.86,0.91 2.13,1.99 0.36,1.46 -0.27,3.19 -1.51,4.12 -0.61,0.45 -1.4,0.7 -2.25,0.7z"/>
  <path class="fil1" d="M54 28.18c-0.09,0 -0.17,-0.02 -0.25,-0.05 -2.72,-1.11 -3.83,-3.01 -3.72,-6.34 0.09,-2.49 2.74,-6.07 5.17,-6.98l0.32 -0.11c0.32,-0.12 0.8,-0.29 0.91,-0.34 0.26,-0.12 0.59,-0.06 0.78,0.18 0.23,0.27 0.19,0.69 -0.08,0.92 -0.1,0.08 -0.1,0.08 -1.16,0.47l-0.32 0.11c-1.9,0.71 -4.24,3.85 -4.31,5.8 -0.1,2.8 0.69,4.17 2.91,5.08 0.33,0.13 0.49,0.51 0.35,0.85 -0.1,0.25 -0.34,0.41 -0.6,0.41z"/>
  <path class="fil1" d="M58.53 27.93c-0.45,0 -0.93,-0.14 -1.43,-0.42 -1.36,-0.76 -2.86,-2.6 -2.91,-4.84 -0.06,-2.48 1.03,-5.61 6.56,-6.45l0.13 -0.02c0.36,-0.05 0.7,0.19 0.75,0.55 0.06,0.36 -0.19,0.69 -0.54,0.75l-0.14 0.02c-1.38,0.21 -5.56,0.84 -5.45,5.12 0.04,1.65 1.15,3.13 2.24,3.73 0.42,0.24 0.82,0.31 1.02,0.2 0.31,-0.19 0.71,-0.08 0.9,0.23 0.18,0.31 0.07,0.72 -0.24,0.9 -0.26,0.16 -0.57,0.23 -0.89,0.23z"/>
  <path class="fil1" d="M80.15 47.02c-0.15,0 -0.29,-0.01 -0.44,-0.02 -1.56,-0.16 -3.02,-1.11 -4,-2.63 -1.73,-2.68 -1.51,-6 -1.34,-8.67 0.4,-6.01 -1.35,-12.88 -6.16,-14.69 -2.95,-1.11 -5.22,-0.92 -6.39,0.54 -0.9,1.12 -0.85,2.58 -0.47,3.16 0.15,0.23 0.27,0.22 0.42,0.18 0.52,-0.14 1.06,0.17 1.2,0.7 0.14,0.52 -0.17,1.06 -0.69,1.2 -1.02,0.28 -1.98,-0.1 -2.57,-1 -0.84,-1.29 -0.86,-3.69 0.58,-5.47 1.01,-1.26 3.47,-3.09 8.61,-1.15 5.76,2.16 7.88,9.92 7.44,16.66 -0.2,3.02 -0.26,5.5 1.02,7.48 0.65,1 1.58,1.64 2.54,1.73 0.82,0.09 1.6,-0.24 2.27,-0.92 0.37,-0.39 1,-0.4 1.39,-0.02 0.39,0.38 0.39,1 0.02,1.39 -0.97,1 -2.18,1.53 -3.43,1.53z"/>
  <path class="fil1" d="M76.44 53.05c-0.34,0 -0.7,-0.04 -1.1,-0.14 -1.1,-0.29 -2.1,-1.15 -2.97,-2.56 -2.78,-4.5 -2.27,-8.95 -1.79,-13.25 0.19,-1.68 0.39,-3.41 0.39,-5.14 0,-0.54 0.44,-0.98 0.98,-0.98 0.55,0 0.99,0.44 0.99,0.98 0,1.84 -0.21,3.63 -0.4,5.36 -0.47,4.16 -0.92,8.08 1.5,12 0.58,0.94 1.21,1.53 1.79,1.68 0.74,0.19 1.16,0.09 1.96,-0.45 0.45,-0.31 1.06,-0.2 1.37,0.25 0.3,0.45 0.19,1.06 -0.26,1.37 -0.77,0.53 -1.52,0.88 -2.46,0.88z"/>
  <path class="fil1" d="M88.56 48.06c-0.33,0 -0.69,-0.03 -1.07,-0.08 -0.97,-0.12 -1.46,-0.47 -2.04,-0.87l-0.13 -0.09c-0.45,-0.31 -0.56,-0.92 -0.25,-1.37 0.31,-0.44 0.92,-0.56 1.37,-0.25l0.13 0.1c0.51,0.35 0.68,0.47 1.18,0.54 1.68,0.22 2.79,-0.2 3.38,-1.28 0.76,-1.38 0.43,-3.37 0.12,-3.92 -0.35,-0.14 -0.6,-0.48 -0.61,-0.88 -0.02,-0.54 0.41,-1 0.95,-1.02 0.31,-0.01 0.91,0.1 1.37,0.94 0.71,1.3 1,4.26 -0.35,6.23 -0.64,0.93 -1.84,1.95 -4.05,1.95z"/>
  <g>
   <path class="fil1" d="M89.09 51.58l0 0 0 0zm-1.52 4.17c-0.33,0 -0.66,-0.06 -0.99,-0.18 -1.99,-0.72 -3.4,-3.42 -3.83,-4.96 -0.09,-0.32 -0.24,-0.93 -0.24,-1.37 0,-0.36 0.3,-0.65 0.66,-0.65 0.36,0 0.65,0.29 0.65,0.65 0,0.2 0.08,0.6 0.2,1.02 0.38,1.39 1.64,3.59 3,4.08 0.54,0.19 1.07,0.1 1.61,-0.28 0.15,-0.1 0.4,-0.64 0.48,-1.36 0.07,-0.63 -0.03,-1.01 -0.1,-1.13 -0.32,-0.06 -0.56,-0.35 -0.54,-0.69 0.03,-0.36 0.34,-0.63 0.7,-0.61 0.26,0.02 0.9,0.16 1.16,1.09 0.32,1.15 -0.06,3.15 -0.95,3.78 -0.58,0.4 -1.19,0.61 -1.81,0.61z"/>
  </g>
  <path class="fil1" d="M84.01 61.82c-0.02,0 -0.04,0 -0.06,0 -1.87,-0.04 -3.66,-2.06 -5.49,-6.16 -0.15,-0.33 0,-0.72 0.33,-0.86 0.33,-0.15 0.72,0 0.87,0.33 2.07,4.64 3.59,5.37 4.32,5.38 1,0.03 1.76,-1.26 2.04,-1.81 0.29,-0.58 0.29,-1.37 0.29,-1.37 -0.01,-0.37 0.28,-0.66 0.64,-0.67 0.36,0 0.66,0.28 0.67,0.65 0,0.11 0,1.12 -0.43,1.97 -0.47,0.96 -1.52,2.54 -3.18,2.54z"/>
  <path class="fil1" d="M81.51 73.58c-0.21,0 -0.42,-0.01 -0.63,-0.04 -3.43,-0.52 -4.05,-2.99 -4.65,-5.37l-0.13 -0.51c-0.69,-2.65 -0.64,-5.58 -0.59,-8.41 0.04,-2.32 0.08,-4.5 -0.32,-6.09 -0.14,-0.53 0.18,-1.06 0.71,-1.2 0.52,-0.13 1.06,0.19 1.19,0.71 0.47,1.85 0.43,4.16 0.39,6.61 -0.05,2.7 -0.1,5.5 0.52,7.89l0.13 0.52c0.61,2.42 1,3.59 3.05,3.9 0.72,0.11 1.52,-0.15 2.18,-0.72 0.67,-0.56 1.06,-1.34 1.06,-2.08l0 -0.11c0,-0.54 0.44,-0.98 0.98,-0.98 0.55,0 0.99,0.44 0.99,0.98l0 0.11c0,1.32 -0.64,2.62 -1.75,3.58 -0.91,0.79 -2.03,1.21 -3.13,1.21z"/>
  <path class="fil1" d="M83.45 66.63c0,0 -0.01,0 -0.02,0 -2.86,-0.09 -4.15,-3.48 -4.15,-5.86 0,-0.36 0.29,-0.66 0.65,-0.66 0.36,0 0.66,0.3 0.66,0.66 0,1.8 0.91,4.49 2.88,4.55 0.36,0.01 0.65,0.31 0.64,0.67 -0.01,0.36 -0.3,0.64 -0.66,0.64z"/>
  <path class="fil1" d="M63.09 46.42c-0.33,0 -0.65,-0.16 -0.84,-0.46 -0.29,-0.46 -0.15,-1.07 0.31,-1.35 0.21,-0.14 0.41,-0.28 0.59,-0.41 0.54,-0.38 1.09,-0.77 1.84,-0.91 1.22,-0.21 2.61,0.18 3.95,0.56 0.59,0.16 1.15,0.32 1.67,0.42 0.54,0.1 0.89,0.62 0.78,1.15 -0.1,0.53 -0.61,0.88 -1.15,0.78 -0.6,-0.11 -1.22,-0.29 -1.83,-0.46 -1.13,-0.32 -2.3,-0.65 -3.08,-0.51 -0.31,0.06 -0.63,0.28 -1.04,0.57 -0.21,0.16 -0.44,0.32 -0.68,0.47 -0.17,0.1 -0.35,0.15 -0.52,0.15z"/>
  <path class="fil1" d="M51.92 44.44c-0.18,0 -0.37,-0.05 -0.54,-0.16 -0.61,-0.41 -1.13,-0.81 -1.59,-1.17 -1.95,-1.51 -2.61,-2.01 -5.94,0.51 -0.43,0.33 -1.05,0.24 -1.38,-0.19 -0.32,-0.43 -0.24,-1.05 0.19,-1.37 4.31,-3.27 5.98,-2.32 8.33,-0.5 0.46,0.35 0.92,0.71 1.48,1.08 0.45,0.3 0.57,0.91 0.27,1.37 -0.19,0.28 -0.5,0.43 -0.82,0.43z"/>
  <path class="fil1" d="M52.58 50.32c-0.04,0 -0.09,0 -0.13,-0.01 -0.99,-0.12 -1.7,-0.83 -2.38,-1.52 -1.14,-1.15 -2.04,-2.06 -4.21,-1.13l-0.11 0.05c-2.06,0.88 -2.89,1.09 -5.23,-0.8 -0.42,-0.35 -0.48,-0.97 -0.14,-1.39 0.34,-0.42 0.96,-0.48 1.38,-0.14 1.53,1.24 1.53,1.24 3.21,0.52l0.12 -0.05c3.4,-1.45 5.19,0.36 6.38,1.56 0.44,0.45 0.9,0.91 1.23,0.95 0.54,0.07 0.92,0.56 0.85,1.1 -0.06,0.5 -0.49,0.86 -0.97,0.86z"/>
  <path class="fil1" d="M71.17 53.39c-1.35,0 -2.79,-0.85 -3.69,-2 -0.82,-1.04 -2.03,-1.17 -3.59,-0.38 -0.26,0.13 -0.47,0.25 -0.66,0.37 -0.54,0.3 -1.04,0.59 -1.94,0.76 -0.54,0.09 -1.05,-0.26 -1.14,-0.8 -0.1,-0.53 0.26,-1.04 0.79,-1.14 0.57,-0.1 0.83,-0.25 1.3,-0.52 0.22,-0.13 0.46,-0.27 0.77,-0.43 2.41,-1.22 4.6,-0.88 6.02,0.93 0.83,1.07 2.12,1.47 2.63,1.09 0.44,-0.32 1.05,-0.23 1.38,0.21 0.32,0.43 0.23,1.05 -0.21,1.37 -0.5,0.37 -1.07,0.54 -1.66,0.54z"/>
  <path class="fil1" d="M41.78 49.66c-0.24,0 -0.47,-0.14 -0.59,-0.37 -0.16,-0.32 -0.03,-0.71 0.3,-0.88 0.38,-0.19 1.07,-0.37 2.12,-0.54 0.36,-0.06 0.7,0.18 0.76,0.53 0.06,0.36 -0.18,0.7 -0.54,0.76 -1.23,0.21 -1.64,0.37 -1.76,0.43 -0.09,0.04 -0.19,0.07 -0.29,0.07z"/>
  <path class="fil1" d="M70.07 54.5c-0.16,0 -0.32,-0.06 -0.45,-0.17 -0.27,-0.25 -0.51,-0.38 -0.75,-0.41 -0.36,-0.03 -0.63,-0.35 -0.59,-0.71 0.03,-0.36 0.35,-0.62 0.71,-0.59 0.53,0.05 1.05,0.3 1.52,0.75 0.27,0.25 0.28,0.66 0.04,0.93 -0.13,0.13 -0.31,0.2 -0.48,0.2z"/>
  <path class="fil1" d="M54.17 63.12c-1.13,0 -1.64,-0.87 -1.92,-1.34 -0.26,-0.43 -0.31,-0.47 -0.42,-0.49 -1.06,-0.11 -1.79,-0.49 -2.16,-1.13 -0.32,-0.54 -0.34,-1.22 -0.05,-1.91 0.21,-0.49 0.69,-0.75 1.07,-0.93 0.5,-0.22 1.08,0 1.3,0.5 0.22,0.49 0,1.07 -0.49,1.3 -0.05,0.02 -0.09,0.03 -0.12,0.05 0,0 0,0 0,0 0.07,0.04 0.26,0.13 0.66,0.17 1.12,0.12 1.61,0.95 1.9,1.44 0.08,0.13 0.2,0.33 0.26,0.38 0,-0.01 0.16,-0.01 0.52,-0.17 1.51,-0.68 2.24,-0.46 2.93,-0.14l0.07 0.03c0.5,0.22 0.72,0.8 0.49,1.3 -0.22,0.49 -0.8,0.71 -1.29,0.49l-0.09 -0.04c-0.32,-0.14 -0.48,-0.22 -1.3,0.15 -0.53,0.24 -0.98,0.34 -1.36,0.34z"/>
  <path class="fil1" d="M60.54 69.34c-0.64,0 -1.29,-0.02 -2,-0.26 -1.14,-0.39 -1.47,-0.59 -2.18,-1.04 -0.19,-0.12 -0.42,-0.27 -0.72,-0.45 -1.04,-0.63 -1.68,-0.52 -2.36,-0.4 -0.62,0.1 -1.38,0.23 -2.12,-0.32 -1.81,-1.34 -2.59,-1.3 -3.57,-1.24 -0.74,0.04 -1.58,0.09 -2.74,-0.35 -0.51,-0.19 -0.76,-0.76 -0.57,-1.27 0.19,-0.51 0.76,-0.76 1.27,-0.57 0.77,0.29 1.28,0.27 1.93,0.23 1.16,-0.07 2.47,-0.14 4.85,1.62 0.06,0.05 0.28,0.02 0.61,-0.04 0.82,-0.14 2.05,-0.35 3.71,0.66 0.32,0.19 0.56,0.34 0.77,0.47 0.61,0.39 0.79,0.51 1.76,0.84 0.43,0.15 0.89,0.15 1.47,0.15l0.1 0c0.55,0 0.99,0.44 0.99,0.98 0,0.55 -0.44,0.99 -0.99,0.99l-0.1 0c-0.04,0 -0.07,0 -0.11,0z"/>
  <path class="fil1" d="M53.6 71.61c-4.43,0 -6.52,-2.7 -7.3,-4.08 -0.26,-0.47 -0.1,-1.07 0.38,-1.34 0.47,-0.26 1.07,-0.1 1.34,0.38 0.92,1.64 3.31,4.15 8.88,2.56 0.52,-0.15 1.06,0.15 1.21,0.68 0.15,0.52 -0.15,1.06 -0.67,1.21 -1.44,0.41 -2.72,0.59 -3.84,0.59z"/>
  <path class="fil1" d="M53.95 81.67c-2.55,0 -4.86,-0.92 -7.97,-2.87 -3.08,-1.94 -5.42,-4.24 -6.95,-6.83 -1.43,-2.43 -2.07,-4.98 -2,-8.02 0.1,-4.42 0.04,-9.83 -0.06,-12.98 -0.14,-4.3 1.46,-6.9 3.02,-9.42 0.64,-1.05 1.31,-2.13 1.85,-3.34 1.53,-3.43 3.27,-7.33 5.7,-10.88 0.3,-0.45 0.92,-0.56 1.36,-0.25 0.45,0.3 0.57,0.91 0.26,1.36 -2.33,3.41 -4.03,7.21 -5.53,10.57 -0.59,1.33 -1.29,2.47 -1.97,3.57 -1.53,2.48 -2.85,4.62 -2.73,8.33 0.1,3.18 0.16,8.63 0.06,13.08 -0.06,2.66 0.49,4.88 1.73,6.99 1.37,2.31 3.49,4.39 6.31,6.16 4.42,2.78 6.66,3.34 12.05,1.49 2.22,-0.76 6.79,-2.72 9.14,-4.02 0.48,-0.26 1.08,-0.08 1.34,0.39 0.26,0.48 0.09,1.07 -0.39,1.34 -2.48,1.36 -7.12,3.34 -9.45,4.15 -2.24,0.77 -4.06,1.18 -5.77,1.18z"/>
  <g>
   <path class="fil1" d="M67.37 80.35l0 0 0 0zm-0.98 0.96c-0.01,0 -0.02,0 -0.03,0 -0.54,-0.02 -0.97,-0.47 -0.95,-1.01 0,-0.31 0.02,-0.78 4.22,-8.3 2.94,-5.27 4.28,-8.41 5.93,-15.57 0.12,-0.53 0.65,-0.86 1.18,-0.74 0.53,0.13 0.86,0.65 0.74,1.18 -1.71,7.39 -3.1,10.64 -6.14,16.09 -2.53,4.53 -3.81,7.03 -3.98,7.52 -0.08,0.47 -0.49,0.83 -0.97,0.83z"/>
  </g>
  <path class="fil1" d="M25.27 55.82c-0.32,0 -0.65,-0.02 -1,-0.06 -1.35,-0.14 -2.33,-0.85 -2.75,-1.98 -0.49,-1.34 -0.08,-3.07 0.99,-4.2 0.68,-0.71 1.79,-1.04 2.83,-0.83 1.03,0.2 1.83,0.87 2.2,1.83 0.2,0.51 -0.05,1.08 -0.56,1.27 -0.51,0.2 -1.08,-0.05 -1.27,-0.56 -0.16,-0.42 -0.5,-0.56 -0.75,-0.62 -0.38,-0.07 -0.81,0.03 -1.02,0.26 -0.54,0.57 -0.8,1.55 -0.57,2.17 0.05,0.15 0.22,0.61 1.11,0.71 1.56,0.16 2.7,-0.13 3.49,-0.9 2,-1.96 1.57,-6.81 1.26,-10.35 -0.04,-0.44 -0.08,-0.86 -0.11,-1.26 -0.13,-1.62 -0.69,-9.99 0.62,-15.81 1.18,-5.21 5.12,-8.67 11.38,-10.01 1.94,-0.41 5.49,-0.96 7.41,0.05 0.48,0.25 0.67,0.85 0.42,1.33 -0.25,0.48 -0.85,0.66 -1.33,0.41 -0.96,-0.5 -3.36,-0.45 -6.09,0.13 -5.54,1.19 -8.86,4.05 -9.87,8.52 -0.97,4.3 -0.92,10.89 -0.58,15.23 0.03,0.39 0.07,0.8 0.11,1.23 0.36,4.15 0.81,9.32 -1.85,11.93 -1.01,1 -2.38,1.51 -4.07,1.51z"/>
  <path class="fil1" d="M30.3 32.15c-0.02,0 -0.04,0 -0.06,0 -0.36,-0.04 -0.63,-0.36 -0.59,-0.72 0.36,-3.65 7.1,-10.6 11.18,-10.6 0.36,0 0.65,0.29 0.65,0.65 0,0.36 -0.29,0.66 -0.65,0.66 -3.42,0 -9.57,6.34 -9.88,9.42 -0.03,0.34 -0.31,0.59 -0.65,0.59z"/>
  <path class="fil1" d="M30.16 42.63c0,0 -0.01,0 -0.02,0 -0.36,-0.01 -0.64,-0.31 -0.63,-0.68 0.16,-4.85 5.17,-14.36 10.84,-14.36 0.36,0 0.65,0.3 0.65,0.66 0,0.36 -0.29,0.65 -0.65,0.65 -4.79,0 -9.39,8.9 -9.53,13.1 -0.01,0.35 -0.3,0.63 -0.66,0.63z"/>
  <path class="fil1" d="M32.04 49.71c-0.2,0 -0.4,-0.1 -0.53,-0.27 -0.21,-0.3 -0.14,-0.71 0.15,-0.92 1.03,-0.73 1.72,-3.25 2.39,-5.69 0.89,-3.25 1.81,-6.6 3.86,-7.68 0.32,-0.17 0.72,-0.05 0.89,0.27 0.17,0.33 0.04,0.72 -0.28,0.89 -1.55,0.81 -2.43,4.03 -3.2,6.86 -0.77,2.79 -1.49,5.42 -2.9,6.42 -0.11,0.08 -0.25,0.12 -0.38,0.12z"/>
  <path class="fil1" d="M64.38 36.26c-0.04,0 -0.07,-0.01 -0.09,-0.01 -0.36,0 -0.64,-0.29 -0.64,-0.65 0,-0.33 0.25,-0.61 0.57,-0.65 0.51,-0.32 0.71,-0.83 0.71,-1.79 0,-0.72 -0.42,-1.12 -0.77,-1.32 -0.55,-0.32 -1.16,-0.32 -1.38,-0.19 -0.31,0.18 -0.71,0.07 -0.89,-0.25 -0.18,-0.31 -0.07,-0.71 0.24,-0.89 0.7,-0.4 1.81,-0.32 2.69,0.2 0.9,0.52 1.42,1.41 1.42,2.45 0,1.02 -0.17,2.29 -1.5,3.01 -0.14,0.07 -0.27,0.09 -0.36,0.09z"/>
  <path class="fil1" d="M82.48 42.73c-1.43,0 -2.56,-0.43 -3.34,-1.29 -1.76,-1.92 -1.43,-5.54 -1.17,-8.45 0.09,-0.95 0.17,-1.84 0.17,-2.56 0,-0.36 0.29,-0.65 0.65,-0.65 0.36,0 0.66,0.29 0.66,0.65 0,0.78 -0.09,1.7 -0.17,2.67 -0.24,2.66 -0.54,5.96 0.82,7.45 0.54,0.59 1.32,0.87 2.38,0.87 0.36,0 0.65,0.3 0.65,0.66 0,0.36 -0.29,0.65 -0.65,0.65z"/>
  <path class="fil1" d="M25.38 96.53c-0.21,0 -0.41,-0.1 -0.53,-0.28 -3.48,-4.86 -0.97,-9.47 1.24,-13.54l0.46 -0.85c0.86,-1.59 0.41,-5.83 -1.01,-9.65 -0.73,-1.96 -1.14,-5.07 0.1,-7.39 0.71,-1.33 1.88,-2.22 3.38,-2.58 0.35,-0.08 0.7,0.14 0.79,0.49 0.08,0.35 -0.14,0.7 -0.49,0.79 -1.14,0.27 -1.99,0.92 -2.52,1.92 -1.04,1.93 -0.66,4.61 -0.03,6.31 1.59,4.28 1.98,8.79 0.94,10.73l-0.47 0.86c-2.13,3.91 -4.33,7.95 -1.33,12.15 0.21,0.3 0.14,0.7 -0.15,0.91 -0.12,0.09 -0.25,0.13 -0.38,0.13z"/>
  <path class="fil1" d="M35.9 99.51c-0.11,0 -0.23,-0.02 -0.34,-0.06 -0.51,-0.19 -0.77,-0.75 -0.58,-1.26 1.54,-4.2 1.39,-4.94 0.67,-8.5 -0.08,-0.38 -0.16,-0.79 -0.25,-1.23 -0.77,-3.91 0.15,-7.75 1.04,-11.46 0.6,-2.53 1.17,-4.92 1.17,-7.19 0,-0.54 0.44,-0.98 0.99,-0.98 0.54,0 0.98,0.44 0.98,0.98 0,2.5 -0.63,5.12 -1.23,7.65 -0.84,3.51 -1.71,7.13 -1.02,10.62 0.08,0.44 0.17,0.84 0.24,1.22 0.74,3.63 0.99,4.85 -0.75,9.56 -0.14,0.4 -0.52,0.65 -0.92,0.65z"/>
  <path class="fil1" d="M43.15 100.92c-0.16,0 -0.32,-0.04 -0.46,-0.12 -0.48,-0.25 -0.67,-0.85 -0.41,-1.33 1.06,-2.01 -0.27,-10.9 -1.31,-15.31 -0.69,-2.92 -0.25,-5.63 0.07,-7.61 0.09,-0.56 0.18,-1.09 0.23,-1.54 0.05,-0.54 0.53,-0.93 1.07,-0.88 0.54,0.05 0.94,0.54 0.88,1.08 -0.05,0.5 -0.14,1.06 -0.24,1.66 -0.31,1.91 -0.7,4.3 -0.1,6.84 0.03,0.13 2.97,13.22 1.14,16.68 -0.18,0.34 -0.52,0.53 -0.87,0.53z"/>
  <path class="fil1" d="M60.14 94.66c-1.1,0 -2.27,-0.42 -3.2,-1.17 -1.93,-1.57 -2.65,-3.77 -1.98,-6.04 0.84,-2.79 3.53,-4.97 6.55,-5.29 8.68,-0.91 13.59,-1.89 13.59,-11.59 0,-0.54 0.44,-0.98 0.98,-0.98 0.55,0 0.99,0.44 0.99,0.98 0,11.11 -6.08,12.58 -15.36,13.55 -2.21,0.23 -4.26,1.87 -4.86,3.89 -0.31,1.06 -0.34,2.6 1.33,3.95 0.7,0.57 1.67,0.85 2.4,0.69 0.51,-0.11 0.89,-0.42 1.15,-0.95 0.44,-0.89 0.32,-1.6 0.06,-1.96 -0.13,-0.19 -0.28,-0.26 -0.36,-0.25 -0.12,0.01 -0.31,0.21 -0.46,0.61 -0.19,0.5 -0.76,0.76 -1.27,0.57 -0.51,-0.19 -0.76,-0.76 -0.57,-1.27 0.4,-1.06 1.15,-1.74 2.04,-1.86 0.84,-0.11 1.67,0.29 2.22,1.06 0.77,1.07 0.8,2.55 0.1,3.97 -0.53,1.07 -1.39,1.76 -2.49,2 -0.28,0.06 -0.57,0.09 -0.86,0.09z"/>
  <path class="fil1" d="M58.39 104.1c-0.96,0 -1.96,-0.37 -2.89,-1.43 -1.18,-1.34 -1.42,-2.94 -0.67,-4.39 0.75,-1.45 2.39,-2.42 3.81,-2.27 1.07,0.12 1.85,0.82 2.15,1.92 0.26,0.98 -0.43,1.68 -0.7,1.94 -0.38,0.38 -1,0.38 -1.39,0 -0.38,-0.38 -0.38,-1.01 0,-1.39 0.08,-0.07 0.12,-0.12 0.15,-0.16 -0.12,-0.32 -0.31,-0.34 -0.42,-0.35 -0.55,-0.05 -1.44,0.42 -1.85,1.22 -0.38,0.72 -0.24,1.45 0.4,2.18 1.1,1.26 2.24,0.85 4.09,-0.43 0.41,-0.28 0.73,-0.5 1.05,-0.62 1.7,-0.63 2.02,-3.45 2.36,-6.44 0.48,-4.16 1.05,-9.34 6.42,-9.23 0.55,0.01 0.98,0.46 0.97,1 -0.02,0.54 -0.46,1 -1.01,0.97 -0.04,-0.01 -0.07,-0.01 -0.11,-0.01 -3.22,0 -3.78,2.84 -4.32,7.49 -0.39,3.45 -0.8,7.01 -3.63,8.07 -0.1,0.04 -0.4,0.24 -0.62,0.39 -0.78,0.54 -2.22,1.54 -3.79,1.54z"/>
  <path class="fil1" d="M73.27 82.93c-0.37,0 -0.66,-0.29 -0.66,-0.66 0,-0.36 0.29,-0.65 0.66,-0.65 0.39,0 0.69,-0.05 1.01,-0.1 0.4,-0.06 0.82,-0.12 1.4,-0.1 1.9,0.07 4.26,-1.07 6.33,-3.06 2.09,-2.01 3.39,-4.45 3.39,-6.38 0,-0.36 0.29,-0.65 0.65,-0.65 0.36,0 0.66,0.29 0.66,0.65 0,2.3 -1.42,5.04 -3.8,7.33 -2.32,2.23 -5.04,3.52 -7.28,3.42 -0.46,-0.02 -0.78,0.03 -1.15,0.09 -0.34,0.05 -0.72,0.11 -1.21,0.11z"/>
  <path class="fil1" d="M88.56 89.08c-0.5,0 -0.97,-0.12 -1.38,-0.32 -2.42,-1.15 -3.94,-5.03 -2.25,-8.75 1.17,-2.57 5.38,-5.36 7.97,-6.39 2.04,-0.81 3.27,-2.1 3.55,-3.75 0.34,-1.94 -0.66,-4.21 -2.6,-5.92 -0.75,-0.66 -1.42,-1.03 -2.07,-1.38 -1.32,-0.71 -2.57,-1.39 -3.42,-4.05 -0.16,-0.52 0.13,-1.07 0.64,-1.23 0.52,-0.17 1.07,0.12 1.24,0.63 0.6,1.91 1.31,2.29 2.48,2.93 0.67,0.36 1.51,0.82 2.43,1.63 2.45,2.16 3.69,5.12 3.24,7.72 -0.41,2.33 -2.1,4.19 -4.77,5.25 -2.51,1 -6.07,3.56 -6.9,5.37 -1.27,2.78 -0.07,5.51 1.31,6.17 0.72,0.34 1.34,0 1.87,-1l0.08 -0.3c0.15,-0.52 0.69,-0.82 1.21,-0.68 0.53,0.15 0.83,0.69 0.68,1.21l-0.11 0.39c-0.01,0.06 -0.03,0.12 -0.06,0.17 -0.85,1.7 -2.05,2.3 -3.14,2.3z"/>
  <path class="fil1" d="M89.26 72.41c0,0.01 -0.01,0.01 -0.01,0.01 0,0 0.01,0 0.01,-0.01zm-0.83 0.45c-0.18,0 -0.37,-0.06 -0.54,-0.17 -0.45,-0.3 -0.57,-0.91 -0.28,-1.36 0.19,-0.28 0.44,-0.39 0.71,-0.51 0.37,-0.17 0.92,-0.42 1.36,-1.04 0.43,-0.61 0.76,-1.53 0.54,-2.2 -0.14,-0.43 -0.51,-0.74 -1.12,-0.95 -0.52,-0.18 -0.79,-0.73 -0.62,-1.25 0.17,-0.51 0.73,-0.79 1.24,-0.61 1.53,0.51 2.13,1.48 2.37,2.2 0.46,1.41 -0.11,2.96 -0.8,3.94 -0.75,1.06 -1.7,1.49 -2.16,1.7 -0.04,0.01 -0.06,0.03 -0.09,0.04 -0.17,0.13 -0.39,0.21 -0.61,0.21z"/>
  <path class="fil1" d="M94.72 85.31c-0.18,0 -0.36,-0.07 -0.49,-0.21 -0.14,-0.16 -0.32,-0.34 -0.52,-0.54 -0.86,-0.85 -2.04,-2.02 -2.15,-3.39 -0.23,-2.98 1.95,-4.15 3.87,-5.19 1.14,-0.62 2.33,-1.26 3.1,-2.24 1.18,-1.52 1.66,-4.14 1.04,-5.72 -0.3,-0.77 -0.84,-1.23 -1.6,-1.35 -0.35,-0.06 -0.6,-0.4 -0.54,-0.75 0.06,-0.36 0.4,-0.6 0.75,-0.54 1.23,0.19 2.13,0.95 2.61,2.16 0.78,1.99 0.23,5.13 -1.23,7 -0.94,1.21 -2.24,1.91 -3.51,2.59 -2.07,1.12 -3.34,1.91 -3.18,3.94 0.07,0.88 1.05,1.85 1.77,2.57 0.21,0.21 0.41,0.4 0.57,0.58 0.24,0.27 0.22,0.68 -0.05,0.92 -0.13,0.12 -0.28,0.17 -0.44,0.17z"/>
  <path class="fil1" d="M71.4 97.01c-0.33,0 -0.61,-0.24 -0.65,-0.57 -0.05,-0.35 0.2,-0.68 0.55,-0.74 5.31,-0.75 5.32,-2.61 5.35,-5.43 0.02,-1.74 0.04,-3.73 1.39,-5.66 0.2,-0.3 0.61,-0.37 0.91,-0.17 0.3,0.21 0.37,0.62 0.16,0.92 -1.11,1.6 -1.13,3.29 -1.15,4.93 -0.03,2.85 -0.06,5.8 -6.47,6.71 -0.03,0.01 -0.06,0.01 -0.09,0.01z"/>
  <path class="fil1" d="M68.17 98.86c-0.2,0 -0.4,-0.1 -0.53,-0.28 -0.21,-0.3 -0.14,-0.71 0.16,-0.92l0.27 -0.18c0.04,-0.03 0.09,-0.06 0.14,-0.08 2.55,-0.99 2.56,-2.56 2.56,-4.74 0.01,-1.68 0.01,-3.58 1.32,-5.36 0.21,-0.29 0.62,-0.35 0.91,-0.14 0.3,0.22 0.36,0.63 0.14,0.92 -1.05,1.43 -1.05,3.03 -1.06,4.58 0,2.27 -0.01,4.62 -3.32,5.93l-0.21 0.15c-0.11,0.08 -0.25,0.12 -0.38,0.12z"/>
  <path class="fil1" d="M89.3 59.2c-0.44,0 -0.85,-0.3 -0.95,-0.75 -0.13,-0.53 0.19,-1.06 0.72,-1.18 2.83,-0.68 5.02,-4.42 5.86,-9.99 0.59,-3.87 0.27,-8.4 -0.07,-10.34 -0.61,-3.44 -2.01,-6.47 -4.69,-10.14 -3.03,-4.14 -8.08,-9.8 -14.96,-13.2 -8.26,-4.09 -23.93,-5.28 -28.74,2.25 -0.3,0.45 -0.9,0.59 -1.36,0.3 -0.46,-0.3 -0.59,-0.9 -0.3,-1.36 5.46,-8.56 22.17,-7.46 31.28,-2.95 7.23,3.58 12.51,9.48 15.67,13.8 2.87,3.93 4.38,7.21 5.03,10.96 0.38,2.15 0.71,6.84 0.09,10.97 -0.99,6.49 -3.67,10.72 -7.35,11.61 -0.08,0.02 -0.15,0.02 -0.23,0.02z"/>
  <path class="fil1" d="M42.22 111.85c-0.24,0 -0.49,-0.04 -0.74,-0.13 -2.76,-0.99 -2.64,-7.04 -2.36,-9.28 0.22,-1.75 0.54,-12 0.14,-13.39 -0.24,-0.41 -0.15,-0.94 0.22,-1.25 0.42,-0.35 1.04,-0.29 1.39,0.13 1.11,1.34 0.21,14.63 0.2,14.75 -0.46,3.72 0.33,6.92 1.08,7.19 0.21,0.07 1.09,-0.25 2.6,-2.64 0.82,-1.29 6.97,-10.11 10.2,-11.26 0.52,-0.18 1.08,0.09 1.26,0.6 0.18,0.51 -0.09,1.08 -0.6,1.26 -2.17,0.76 -7.5,7.76 -9.2,10.45 -0.59,0.93 -2.25,3.57 -4.19,3.57z"/>
  <path class="fil1" d="M96.74 102.36c-0.42,0 -0.81,-0.27 -0.94,-0.7 -1.56,-5.14 -10.22,-11.42 -14.92,-11.8 -0.54,-0.04 -0.95,-0.52 -0.9,-1.06 0.04,-0.54 0.51,-0.94 1.06,-0.9 5.42,0.44 14.81,7.17 16.64,13.19 0.16,0.52 -0.14,1.07 -0.66,1.23 -0.09,0.03 -0.19,0.04 -0.28,0.04z"/>
  <path class="fil1" d="M58.86 105.68c-0.37,0 -0.66,-0.29 -0.66,-0.65 0,-0.37 0.29,-0.66 0.66,-0.66 1.18,0 4.35,-0.99 5.06,-1.58 0.77,-0.65 3.24,-1.15 6.9,-1.84 1.69,-0.32 3.44,-0.66 3.98,-0.88 5.83,-2.43 5.83,-3.8 5.83,-9.56 0,-0.36 0.29,-0.66 0.65,-0.66 0.37,0 0.66,0.3 0.66,0.66 0,6.21 -0.28,8.12 -6.63,10.77 -0.64,0.26 -2.03,0.53 -4.24,0.95 -2.29,0.44 -5.74,1.09 -6.31,1.56 -1.02,0.86 -4.5,1.89 -5.9,1.89z"/>
  <path class="fil2" d="M47.73 46.43c0.8,-0.03 1.49,0.59 1.53,1.4 0.04,0.81 -0.59,1.49 -1.39,1.53 -0.81,0.04 -1.5,-0.59 -1.54,-1.39 -0.03,-0.81 0.59,-1.5 1.4,-1.54z"/>
  <path class="fil2" d="M65.41 49.99c0.81,-0.04 1.49,0.58 1.53,1.39 0.04,0.81 -0.59,1.49 -1.39,1.53 -0.81,0.04 -1.5,-0.59 -1.53,-1.39 -0.04,-0.81 0.58,-1.5 1.39,-1.53z"/>
  <path class="fil1" d="M52.71 56.91c-0.17,0 -0.34,-0.07 -0.47,-0.19 -0.25,-0.26 -0.25,-0.67 0,-0.93 0.58,-0.58 1.63,-4.44 1.51,-5.13 -0.07,-0.35 0.15,-0.7 0.5,-0.78 0.35,-0.07 0.69,0.13 0.77,0.48 0.25,1.02 -0.94,5.44 -1.85,6.35 -0.13,0.13 -0.29,0.2 -0.46,0.2z"/>
  <path class="fil1" d="M67.19 55.62c-0.36,0 -0.65,-0.3 -0.65,-0.66 -0.01,-0.13 -0.18,-0.47 -0.28,-0.56 -0.3,-0.2 -0.38,-0.59 -0.18,-0.9 0.2,-0.3 0.61,-0.38 0.91,-0.19 0.48,0.31 0.86,1.15 0.86,1.65 0,0.36 -0.3,0.66 -0.66,0.66z"/>
  <path class="fil1" d="M44.98 51.08c0,0 0,0 0,0 0,0 0,0 0,0zm-0.62 0.45c-0.07,0 -0.14,-0.01 -0.2,-0.03 -0.35,-0.11 -0.54,-0.47 -0.43,-0.82 0.09,-0.28 0.34,-0.65 1.48,-1.03 0.35,-0.12 0.72,0.06 0.83,0.41 0.12,0.34 -0.06,0.71 -0.41,0.83 -0.37,0.12 -0.62,0.25 -0.71,0.31 -0.11,0.21 -0.33,0.33 -0.56,0.33z"/>
  <path class="fil1" d="M46.37 50.8c-0.01,0 -0.02,0 -0.04,0 -0.98,-0.05 -3.3,-1.65 -3.74,-2.26 -0.22,-0.29 -0.15,-0.7 0.14,-0.91 0.29,-0.22 0.7,-0.16 0.91,0.14 0.32,0.42 2.27,1.68 2.76,1.72 0.36,0.02 0.64,0.33 0.61,0.69 -0.02,0.35 -0.3,0.62 -0.64,0.62z"/>
  <path class="fil1" d="M66.38 54.5c-0.02,0 -0.05,0 -0.07,0 -0.36,-0.03 -0.63,-0.34 -0.61,-0.7 0.02,-0.36 0.33,-0.64 0.7,-0.61 0.43,0.01 2.27,-0.54 2.58,-0.84 0.25,-0.24 0.67,-0.25 0.92,0 0.25,0.25 0.28,0.64 0.04,0.9 -0.59,0.63 -2.8,1.25 -3.56,1.25z"/>
  <path class="fil1" d="M44.19 67.19c-0.21,0 -0.41,-0.09 -0.54,-0.27 -1.25,-1.78 -1.57,-3.26 -0.91,-4.29 0.05,-0.09 0.05,-0.09 1.32,-1.14l0.78 -0.65c0.28,-0.23 0.7,-0.2 0.93,0.08 0.23,0.28 0.19,0.69 -0.09,0.93l-0.79 0.65c-0.5,0.41 -0.91,0.76 -1.09,0.9 -0.26,0.55 0.08,1.57 0.92,2.76 0.21,0.29 0.14,0.7 -0.15,0.91 -0.12,0.08 -0.25,0.12 -0.38,0.12z"/>
  <g>
   <path class="fil1" d="M62.11 70.58l0.01 0 -0.01 0zm-0.07 0.79c-0.11,0 -0.22,-0.03 -0.33,-0.08 -0.31,-0.18 -0.42,-0.58 -0.24,-0.9l0.06 -0.11c0.42,-0.98 0.67,-3.13 -0.1,-3.7 -0.29,-0.21 -0.35,-0.62 -0.14,-0.91 0.22,-0.29 0.63,-0.35 0.92,-0.14 1.51,1.11 1.06,4.06 0.5,5.32 -0.01,0.02 -0.02,0.03 -0.03,0.05l-0.07 0.14c-0.12,0.21 -0.35,0.33 -0.57,0.33z"/>
  </g>
  <path class="fil1" d="M25.55 105.06c-1.41,0 -2.84,-0.44 -4.11,-1.32 -0.3,-0.2 -0.37,-0.61 -0.17,-0.91 0.21,-0.3 0.62,-0.37 0.91,-0.17 2.19,1.52 4.81,1.46 6.84,-0.13 1.8,-1.42 3.35,-4.52 1.79,-8.57 -2.14,-5.55 -1.31,-7.06 -0.34,-8.82 0.77,-1.41 1.64,-3.01 1.07,-7.64 -0.92,-7.52 -1.72,-14.01 6.38,-15.46 0.36,-0.06 0.7,0.18 0.76,0.53 0.06,0.36 -0.17,0.7 -0.53,0.76 -6.23,1.11 -6.4,5.12 -5.3,14.01 0.62,5.05 -0.41,6.92 -1.24,8.43 -0.87,1.59 -1.5,2.74 0.42,7.72 1.5,3.88 0.63,7.84 -2.2,10.07 -1.27,1 -2.77,1.5 -4.28,1.5z"/>
  <path class="fil1" d="M29.1 58.34c-1.73,0 -3.13,-0.55 -3.79,-0.87 -1.84,-0.88 -3.58,-2.54 -3.22,-3.89 0.1,-0.35 0.46,-0.55 0.81,-0.46 0.34,0.1 0.55,0.46 0.46,0.81 -0.07,0.26 0.69,1.48 2.53,2.36 1.27,0.61 5.7,2.19 9.37,-2.86 0.4,-0.55 0.91,-1.56 1.36,-2.45 0.35,-0.68 0.67,-1.33 0.94,-1.76 0.19,-0.3 0.6,-0.4 0.9,-0.2 0.31,0.19 0.41,0.59 0.21,0.9 -0.23,0.38 -0.55,1 -0.88,1.65 -0.5,0.98 -1.01,1.99 -1.47,2.63 -2.38,3.27 -5.05,4.14 -7.22,4.14z"/>
  <path class="fil1" d="M19.13 99.15c-0.77,0 -1.92,-0.33 -2.96,-1.87 -1.61,-2.41 -2.39,-7.09 -0.89,-10.76 0.62,-1.53 1.67,-2.53 2.59,-3.41 1.45,-1.38 2.6,-2.47 2.37,-5.35 -0.07,-0.79 -0.33,-1.48 -0.63,-2.28 -0.54,-1.43 -1.22,-3.21 -0.94,-6.22 0.51,-5.5 4.08,-10.28 9.1,-12.18 0.51,-0.19 1.07,0.07 1.27,0.57 0.19,0.51 -0.07,1.08 -0.57,1.27 -4.32,1.64 -7.4,5.77 -7.84,10.52 -0.24,2.56 0.3,3.98 0.82,5.34 0.32,0.86 0.66,1.75 0.75,2.83 0.3,3.81 -1.44,5.46 -2.97,6.92 -0.86,0.82 -1.67,1.59 -2.13,2.73 -1.2,2.93 -0.6,6.98 0.71,8.92 0.25,0.37 0.75,1 1.32,1 0.54,0 0.98,0.44 0.98,0.98 0,0.55 -0.44,0.99 -0.98,0.99z"/>
 </g>
</svg>
