<?xml version="1.0" encoding="UTF-8"?>
<!DOCTYPE svg PUBLIC "-//W3C//DTD SVG 1.1//EN" "http://www.w3.org/Graphics/SVG/1.1/DTD/svg11.dtd">
<!-- Creator: CorelDRAW 2018 (64-Bit) -->
<svg xmlns="http://www.w3.org/2000/svg" xml:space="preserve" width="845px" height="845px" version="1.1" style="shape-rendering:geometricPrecision; text-rendering:geometricPrecision; image-rendering:optimizeQuality; fill-rule:evenodd; clip-rule:evenodd"
viewBox="0 0 117.19 117.19"
 xmlns:xlink="http://www.w3.org/1999/xlink">
 <defs>
  <style type="text/css">
   <![CDATA[
    .fil0 {fill:none}
    .fil2 {fill:black}
    .fil1 {fill:black;fill-rule:nonzero}
   ]]>
  </style>
 </defs>
 <g id="Слой_x0020_1">
  <metadata id="CorelCorpID_0Corel-Layer"/>
  <rect class="fil0" width="117.19" height="117.19"/>
 </g>
 <g id="_1">
  <metadata id="CorelCorpID_1Corel-Layer"/>
  <path class="fil1" d="M63.56 32.38c-0.54,0 -0.98,-0.44 -0.98,-0.98 0,-2.11 -0.47,-4.95 -1.8,-6.63 -2.18,-2.76 -3,-6.14 -2.31,-9.52 0.45,-2.21 2.68,-4.07 4.47,-4.53 0.53,-0.13 1.07,0.19 1.2,0.72 0.13,0.52 -0.19,1.06 -0.72,1.19 -1.17,0.3 -2.75,1.68 -3.02,3.02 -0.59,2.84 0.08,5.57 1.93,7.9 2.06,2.61 2.22,6.67 2.22,7.85 0,0.54 -0.44,0.98 -0.99,0.98z"/>
  <path class="fil1" d="M71.27 27.36c-0.34,0 -0.67,-0.03 -1,-0.08 -1.72,-0.29 -3.23,-1.3 -4.37,-2.92 -0.31,-0.45 -0.21,-1.06 0.24,-1.37 0.44,-0.31 1.06,-0.2 1.37,0.24 0.83,1.18 1.89,1.91 3.08,2.11 1.26,0.21 2.65,-0.18 3.92,-1.1 3.45,-2.51 3.32,-5.44 2.39,-6.79 -0.53,-0.77 -1.49,-1.34 -2.61,-0.61 -0.46,0.29 -1.07,0.16 -1.36,-0.29 -0.3,-0.46 -0.17,-1.07 0.29,-1.36 1.84,-1.19 4.02,-0.72 5.3,1.15 1.69,2.45 1.25,6.5 -2.86,9.49 -1.38,1 -2.91,1.53 -4.39,1.53z"/>
  <path class="fil1" d="M64.14 23.31c-0.48,0 -0.94,-0.26 -1.24,-0.71 -0.71,-1.08 -0.6,-3.26 0.6,-4.57 0.75,-0.8 2.48,-1.88 5.78,-0.07 2.09,1.15 2.7,1.3 5.05,0.53 0.52,-0.17 1.08,0.11 1.25,0.63 0.17,0.51 -0.12,1.07 -0.63,1.24 -2.93,0.96 -4.1,0.7 -6.62,-0.68 -0.91,-0.5 -2.55,-1.21 -3.38,-0.32 -0.53,0.58 -0.58,1.53 -0.48,1.97 0.34,0.06 0.63,0.29 0.75,0.64 0.18,0.51 -0.08,1.07 -0.6,1.25 -0.16,0.06 -0.32,0.09 -0.48,0.09z"/>
  <path class="fil1" d="M50.66 29.78c-0.2,0 -0.29,-0.01 -0.44,-0.07 -0.66,-0.28 -1.89,-0.42 -3.19,-0.57 -4.44,-0.51 -11.15,-1.28 -12.5,-8.75 -0.09,-0.54 0.26,-1.05 0.8,-1.14 0.53,-0.1 1.04,0.26 1.14,0.79 1.08,6.03 6.46,6.65 10.79,7.15 1.39,0.16 2.61,0.3 3.52,0.63l0.22 -0.01c0.54,0 0.98,0.44 0.98,0.99 0,0.54 -0.44,0.98 -0.98,0.98l-0.14 0c-0.08,0 -0.14,0 -0.2,0z"/>
  <path class="fil1" d="M56.63 28.86c-0.25,0 -0.5,-0.1 -0.69,-0.29l-0.28 -0.27c-1.65,-1.66 -4.51,-2.99 -6.47,-3.53 -5.19,-1.42 -7.96,-3.96 -9.27,-8.49 -0.15,-0.52 0.15,-1.06 0.67,-1.21 0.52,-0.15 1.07,0.15 1.22,0.67 1.11,3.83 3.4,5.9 7.9,7.14 2.27,0.62 5.42,2.11 7.34,4.03l0.27 0.27c0.39,0.38 0.39,1 0.01,1.39 -0.2,0.19 -0.45,0.29 -0.7,0.29z"/>
  <path class="fil1" d="M59.4 27.36c-0.46,0 -0.87,-0.32 -0.96,-0.79 -0.2,-0.97 -1.93,-2.83 -3.46,-4.46 -1.72,-1.84 -3.5,-3.74 -4.41,-5.54 -0.72,-1.42 -1.27,-4.24 -0.55,-5.62 0.25,-0.48 0.84,-0.67 1.32,-0.41 0.48,0.25 0.67,0.84 0.42,1.32 -0.26,0.5 -0.09,2.54 0.56,3.82 0.79,1.55 2.47,3.35 4.1,5.08 1.95,2.1 3.64,3.9 3.95,5.43 0.1,0.53 -0.25,1.05 -0.78,1.15 -0.06,0.01 -0.13,0.02 -0.19,0.02z"/>
  <path class="fil1" d="M46.72 33.79c-4.64,0 -13.14,-1.71 -15.55,-8.1 -0.45,-1.19 -0.65,-2.49 -0.61,-3.86 0.02,-0.54 0.46,-0.98 1.02,-0.95 0.54,0.02 0.97,0.47 0.95,1.02 -0.04,1.1 0.12,2.15 0.48,3.09 1.77,4.69 8.35,6.83 13.71,6.83 0.54,0 0.98,0.44 0.98,0.98 0,0.55 -0.44,0.99 -0.98,0.99z"/>
  <path class="fil1" d="M40.76 37.69c-0.21,0 -0.42,-0.07 -0.6,-0.21 -0.17,-0.11 -0.9,-0.26 -1.49,-0.39 -2.37,-0.5 -6.33,-1.34 -9.91,-5.06 -2.42,-2.51 -3.32,-5.1 -2.53,-7.3 0.19,-0.51 0.75,-0.78 1.26,-0.6 0.51,0.19 0.78,0.75 0.59,1.26 -0.73,2.04 1.23,4.37 2.1,5.28 3.16,3.28 6.75,4.04 8.9,4.5 1.08,0.23 1.79,0.38 2.28,0.76 0.43,0.33 0.51,0.94 0.18,1.37 -0.2,0.26 -0.49,0.39 -0.78,0.39z"/>
  <path class="fil1" d="M37.72 40.78c-0.27,0 -0.54,-0.12 -0.74,-0.34 -0.09,-0.11 -0.49,-0.46 -1.88,-0.77 -0.82,-0.19 -1.57,-0.26 -2.36,-0.34 -1.14,-0.12 -2.32,-0.24 -3.7,-0.69 -4.4,-1.45 -7.03,-4.26 -7.03,-7.51 0,-0.55 0.44,-0.99 0.98,-0.99 0.54,0 0.98,0.44 0.98,0.99 0,2.78 2.94,4.74 5.69,5.64 1.17,0.39 2.19,0.49 3.28,0.6 0.81,0.08 1.65,0.17 2.59,0.38 1.43,0.32 2.39,0.77 2.94,1.4 0.35,0.41 0.31,1.03 -0.1,1.38 -0.19,0.17 -0.42,0.25 -0.65,0.25z"/>
  <path class="fil1" d="M29.65 60.32c-2.21,0 -4.69,-1.04 -5.82,-3.55 -0.23,-0.49 -0.01,-1.07 0.49,-1.3 0.49,-0.22 1.07,0 1.3,0.49 0.86,1.91 2.95,2.56 4.63,2.36 1.28,-0.16 2.75,-0.86 3.02,-2.36 0.05,-0.25 0.06,-1.05 0.06,-1.76 0.01,-2.25 0.06,-4.06 0.52,-5.07 0.23,-0.49 0.81,-0.71 1.3,-0.48 0.5,0.23 0.71,0.81 0.49,1.3 -0.32,0.7 -0.34,2.93 -0.34,4.27 -0.01,1.07 -0.02,1.7 -0.09,2.1 -0.39,2.1 -2.24,3.65 -4.73,3.95 -0.27,0.03 -0.54,0.05 -0.83,0.05z"/>
  <path class="fil1" d="M33.11 41.45l0.07 0.97 0.01 -0.98c-0.02,0 -0.06,0 -0.08,0.01zm-4.85 2.89c-0.85,0 -1.74,-0.21 -2.67,-0.82 -0.97,-0.63 -1.54,-1.38 -1.7,-2.22 -0.15,-0.76 0.05,-1.54 0.59,-2.33 0.31,-0.44 0.92,-0.55 1.37,-0.24 0.45,0.31 0.56,0.92 0.25,1.36 -0.23,0.34 -0.33,0.62 -0.28,0.84 0.05,0.29 0.35,0.62 0.85,0.95 1.17,0.77 2.16,0.53 3.68,0.07 0.87,-0.26 1.77,-0.54 2.76,-0.51l0 0c0.48,-0.1 1.01,0.17 1.17,0.65 0.16,0.52 -0.08,1.06 -0.6,1.22 -0.25,0.09 -0.36,0.1 -0.59,0.1 -0.71,-0.03 -1.42,0.19 -2.18,0.42 -0.79,0.24 -1.68,0.51 -2.65,0.51z"/>
  <path class="fil1" d="M32.71 46.18l-0.02 0.01c0.01,0 0.01,-0.01 0.02,-0.01zm-6.71 8.53c-2.81,0 -5.1,-1.68 -5.73,-4.2 -0.27,-1.09 -0.09,-2.25 0.49,-3.2 0.46,-0.75 1.13,-1.27 1.83,-1.43 0.97,-0.23 1.98,-0.06 2.83,0.47 0.87,0.55 1.48,1.41 1.71,2.43 0.12,0.53 -0.21,1.06 -0.74,1.18 -0.53,0.12 -1.05,-0.21 -1.17,-0.74 -0.12,-0.51 -0.42,-0.94 -0.85,-1.2 -0.4,-0.25 -0.88,-0.33 -1.34,-0.23 -0.11,0.03 -0.36,0.17 -0.59,0.55 -0.31,0.5 -0.4,1.12 -0.26,1.7 0.42,1.67 1.94,2.74 3.91,2.7 1.26,-0.02 1.75,-0.95 2.56,-3.08 0.29,-0.75 0.6,-1.53 1,-2.27 1.33,-2.43 1.73,-2.69 1.95,-2.84 0.45,-0.29 1.06,-0.17 1.36,0.28 0.29,0.44 0.19,1.02 -0.23,1.33 -0.06,0.07 -0.42,0.48 -1.36,2.18 -0.34,0.62 -0.61,1.34 -0.88,2.03 -0.78,2.01 -1.65,4.3 -4.37,4.34 -0.04,0 -0.08,0 -0.12,0z"/>
  <path class="fil1" d="M72.72 33.62c-0.52,0 -0.96,-0.41 -0.98,-0.93 -0.03,-0.54 0.39,-1 0.93,-1.03l0.24 -0.01c1.38,-0.19 2.41,-0.16 3.32,-0.14 1.67,0.03 2.67,0.06 4.74,-1.27 1.57,-1.01 2.52,-4.48 1.85,-6.76 -0.47,-1.61 -1.44,-1.61 -1.76,-1.61 -0.54,0 -0.98,-0.44 -0.98,-0.98 0,-0.55 0.44,-0.99 0.98,-0.99 1.75,0 3.08,1.1 3.65,3.02 0.83,2.82 -0.16,7.36 -2.68,8.97 -2.57,1.65 -4.08,1.62 -5.85,1.58 -0.84,-0.02 -1.8,-0.04 -3.04,0.13 -0.03,0 -0.06,0.01 -0.09,0.01l-0.28 0.01c-0.02,0 -0.04,0 -0.05,0z"/>
  <path class="fil1" d="M68.33 31.57c-0.19,0 -0.38,-0.06 -0.55,-0.18 -0.45,-0.3 -0.57,-0.91 -0.26,-1.36 0.12,-0.21 0.29,-0.36 0.53,-0.47 1.16,-0.55 2.87,-0.73 4.68,-0.92 2.61,-0.27 5.57,-0.58 6.46,-1.97 0.39,-0.59 0.39,-1.43 0.02,-2.55 -0.17,-0.51 0.1,-1.07 0.62,-1.24 0.51,-0.17 1.07,0.11 1.24,0.62 0.57,1.7 0.49,3.12 -0.22,4.24 -1.41,2.18 -4.86,2.54 -7.91,2.86 -1.55,0.16 -3.02,0.32 -3.91,0.67 -0.19,0.19 -0.44,0.3 -0.7,0.3z"/>
  <path class="fil1" d="M75.53 37.04c-0.44,0 -0.84,-0.3 -0.95,-0.75 -0.13,-0.52 0.19,-1.06 0.72,-1.19 0.95,-0.24 1.91,-0.35 2.85,-0.47 1.73,-0.22 3.37,-0.42 4.77,-1.32 3.53,-2.29 2.89,-6.4 2.45,-8.05 -0.14,-0.53 0.17,-1.07 0.69,-1.21 0.53,-0.14 1.07,0.18 1.2,0.7 1.15,4.32 -0.07,8.13 -3.27,10.21 -1.78,1.15 -3.72,1.39 -5.6,1.62 -0.92,0.11 -1.78,0.22 -2.62,0.43 -0.08,0.02 -0.16,0.03 -0.24,0.03z"/>
  <path class="fil1" d="M81.37 41.26c-1.06,0 -2.16,-0.15 -3.28,-0.47 -0.53,-0.14 -0.83,-0.69 -0.68,-1.21 0.14,-0.52 0.68,-0.83 1.21,-0.68 2.4,0.67 4.66,0.49 6.38,-0.52 1.53,-0.91 2.6,-2.44 3.07,-4.45 0.19,-0.8 0.22,-1.47 0.24,-2.07 0.03,-0.65 0.05,-1.27 0.28,-1.89 0.19,-0.51 0.76,-0.77 1.26,-0.58 0.51,0.19 0.77,0.76 0.58,1.26 -0.12,0.33 -0.13,0.75 -0.16,1.29 -0.02,0.65 -0.05,1.46 -0.29,2.44 -0.6,2.54 -1.98,4.51 -3.98,5.69 -1.35,0.79 -2.93,1.19 -4.63,1.19z"/>
  <path class="fil1" d="M87.71 52.34c-0.83,0 -1.65,-0.23 -2.29,-0.68 -0.64,-0.45 -1.26,-1.04 -1.84,-1.75 -0.59,-0.72 -0.99,-1.36 -1.35,-1.93 -0.56,-0.89 -1.04,-1.66 -2.12,-2.6 -0.29,-0.26 -0.45,-0.35 -0.52,-0.38 -0.49,0 -0.91,-0.37 -0.97,-0.87 -0.06,-0.54 0.33,-1.03 0.86,-1.09 0.74,-0.08 1.41,0.41 1.92,0.86 1.3,1.13 1.91,2.1 2.5,3.03 0.34,0.55 0.7,1.11 1.2,1.74 0.47,0.57 0.95,1.04 1.44,1.38 0.57,0.4 1.57,0.43 2.27,0.06 0.64,-0.33 0.64,-0.79 0.64,-0.95 0,-0.54 0.44,-0.98 0.98,-0.98 0.55,0 0.98,0.44 0.98,0.98 0,1.15 -0.62,2.13 -1.7,2.7 -0.61,0.32 -1.31,0.48 -2,0.48z"/>
  <g>
   <path class="fil1" d="M90.42 42.79l0 0 0 0zm-6.62 0.58l0 0 0 0zm4.98 1.85c-1.66,0 -3.32,-0.91 -4.33,-1.46 -0.28,-0.15 -0.63,-0.33 -0.77,-0.39 -0.49,-0.04 -0.88,-0.44 -0.89,-0.95 -0.02,-0.54 0.4,-0.99 0.95,-1.01 0.46,-0.02 0.91,0.23 1.65,0.63 2.27,1.23 3.8,1.72 4.81,0.53 0.01,-0.02 0.01,-0.04 0.01,-0.05 -0.18,-0.36 -0.14,-0.81 0.15,-1.12 0.37,-0.4 0.99,-0.42 1.39,-0.06 0.68,0.63 0.41,1.9 0.12,2.29 -0.89,1.19 -1.99,1.59 -3.09,1.59z"/>
  </g>
  <path class="fil1" d="M83.62 55.06c-3.34,0 -3.94,-2.55 -4.66,-5.64l-0.05 -0.19c-0.12,-0.53 0.2,-1.06 0.73,-1.19 0.53,-0.12 1.06,0.21 1.19,0.74l0.04 0.19c0.91,3.87 1.1,4.67 4.5,3.89 0.53,-0.12 1.05,0.21 1.18,0.74 0.12,0.53 -0.21,1.05 -0.74,1.18 -0.84,0.19 -1.56,0.28 -2.19,0.28z"/>
  <path class="fil1" d="M62.7 45.33c-0.36,0 -0.7,-0.2 -0.88,-0.53 -0.25,-0.48 -0.06,-1.08 0.42,-1.33 0.45,-0.23 1.12,-0.43 1.9,-0.66 0.97,-0.29 2.07,-0.61 2.8,-1.02 0.28,-0.16 2.78,-1.52 5.05,-1.45 1.26,0.04 2.6,0.77 3.69,1.36 0.28,0.15 0.54,0.3 0.77,0.41 0.49,0.23 0.7,0.82 0.46,1.31 -0.23,0.49 -0.82,0.69 -1.31,0.46 -0.25,-0.12 -0.54,-0.28 -0.86,-0.45 -0.85,-0.46 -2.02,-1.1 -2.81,-1.12 -1.25,-0.04 -2.95,0.59 -4.03,1.19 -0.92,0.52 -2.13,0.88 -3.2,1.19 -0.62,0.19 -1.27,0.38 -1.55,0.52 -0.14,0.08 -0.3,0.12 -0.45,0.12z"/>
  <path class="fil1" d="M41.78 50.47c-0.2,0 -0.4,-0.06 -0.58,-0.19 -0.44,-0.33 -0.53,-0.94 -0.2,-1.38 0.58,-0.79 2.41,-2.55 3.45,-3.14 1.7,-0.96 5.38,-0.89 7.29,-0.69 0.72,0.07 1.33,0 1.56,-0.1 0.49,-0.23 1.08,-0.01 1.3,0.48 0.23,0.49 0.01,1.08 -0.48,1.3 -0.85,0.39 -2.09,0.32 -2.58,0.27 -2.49,-0.25 -5.24,-0.05 -6.12,0.45 -0.76,0.43 -2.4,2.01 -2.85,2.61 -0.19,0.26 -0.49,0.39 -0.79,0.39z"/>
  <path class="fil1" d="M53.83 52.44c0,0.01 0.01,0.01 0.02,0.02 -0.01,-0.01 -0.02,-0.01 -0.02,-0.02zm-9.35 3.07c-0.24,0 -0.49,-0.09 -0.68,-0.27 -0.39,-0.37 -0.41,-1 -0.03,-1.39 0.14,-0.14 0.26,-0.3 0.4,-0.47 0.59,-0.73 1.4,-1.74 3.33,-2.47 0.62,-0.23 1.32,-0.43 2.1,-0.58 0.25,-0.05 0.46,-0.09 0.64,-0.13 0.96,-0.21 1.33,-0.26 2.74,0.09 0.11,0.03 0.28,0.05 0.46,0.09 0.7,0.12 1.06,0.19 1.33,0.34 0.47,0.26 0.65,0.86 0.39,1.33 -0.25,0.46 -0.82,0.64 -1.29,0.42 -0.14,-0.05 -0.54,-0.12 -0.77,-0.16 -0.24,-0.04 -0.46,-0.08 -0.59,-0.11 -1.03,-0.26 -1.11,-0.24 -1.85,-0.08 -0.19,0.04 -0.42,0.09 -0.69,0.14 -0.67,0.13 -1.26,0.29 -1.77,0.49 -1.43,0.53 -1.98,1.21 -2.5,1.86 -0.17,0.22 -0.34,0.42 -0.51,0.6 -0.19,0.2 -0.45,0.3 -0.71,0.3z"/>
  <path class="fil1" d="M65.76 50.83c-0.29,0 -0.58,-0.13 -0.77,-0.37 -0.34,-0.42 -0.27,-1.04 0.16,-1.38 0.52,-0.42 0.71,-0.66 0.87,-0.85 0.55,-0.68 0.94,-0.82 2.71,-1.23 0.11,-0.03 0.25,-0.06 0.41,-0.11 0.75,-0.21 1.78,-0.49 2.69,-0.3 1.09,0.22 2.02,0.62 2.92,1.26 0.44,0.31 0.55,0.92 0.23,1.37 -0.31,0.44 -0.92,0.55 -1.37,0.23 -0.67,-0.47 -1.36,-0.77 -2.18,-0.94 -0.45,-0.09 -1.27,0.14 -1.77,0.28 -0.18,0.05 -0.35,0.09 -0.49,0.13 -0.37,0.08 -1.36,0.31 -1.52,0.42 -0.03,0.03 -0.06,0.07 -0.1,0.12 -0.19,0.24 -0.48,0.6 -1.18,1.16 -0.18,0.14 -0.4,0.21 -0.61,0.21z"/>
  <path class="fil1" d="M51.33 56.78c-0.27,0 -0.52,-0.16 -0.61,-0.42 -0.13,-0.34 0.04,-0.72 0.38,-0.85 0.31,-0.11 0.67,-0.22 1.05,-0.34 1.14,-0.36 2.71,-0.85 3.09,-1.61 0.48,-0.96 0.6,-2.54 0.69,-3.82 0.11,-1.37 0.18,-2.17 0.52,-2.64 0.21,-0.29 0.62,-0.35 0.91,-0.14 0.29,0.21 0.36,0.62 0.15,0.91 -0.14,0.22 -0.22,1.23 -0.27,1.97 -0.11,1.39 -0.24,3.11 -0.83,4.3 -0.62,1.26 -2.42,1.82 -3.87,2.28 -0.36,0.11 -0.69,0.22 -0.98,0.32 -0.08,0.03 -0.16,0.04 -0.23,0.04z"/>
  <path class="fil1" d="M66.47 53.39c-3.83,0 -4.5,-1.52 -5.19,-3.84 -0.21,-0.7 -0.45,-1.5 -0.85,-2.32 -0.16,-0.32 -0.03,-0.71 0.3,-0.88 0.32,-0.16 0.71,-0.02 0.87,0.3 0.46,0.92 0.71,1.77 0.93,2.52 0.66,2.21 0.99,3.32 5.97,2.79 0.36,-0.03 0.68,0.23 0.72,0.59 0.04,0.36 -0.23,0.68 -0.59,0.72 -0.81,0.08 -1.53,0.12 -2.16,0.12z"/>
  <path class="fil1" d="M52.19 77.39c-0.22,0 -0.43,-0.1 -0.55,-0.29l-0.11 -0.18c-0.03,-0.03 -0.05,-0.07 -0.07,-0.12 -0.33,-0.85 -0.71,-1.56 -1.04,-2.19 -0.43,-0.8 -0.77,-1.43 -0.81,-2.01 -0.09,-1 0.44,-1.63 1.04,-2.37 0.39,-0.47 0.83,-1.01 1.26,-1.79 1.06,-1.88 1.57,-3.57 1.57,-5.18 0,-1.64 0.36,-2.31 0.67,-2.9 0.16,-0.28 0.29,-0.53 0.38,-0.9 0.08,-0.35 0.44,-0.56 0.79,-0.48 0.35,0.09 0.57,0.44 0.48,0.79 -0.13,0.54 -0.32,0.9 -0.49,1.21 -0.28,0.52 -0.52,0.97 -0.52,2.28 0,1.84 -0.57,3.74 -1.73,5.82 -0.5,0.88 -0.99,1.49 -1.4,1.98 -0.54,0.67 -0.79,0.98 -0.75,1.43 0.03,0.31 0.32,0.87 0.66,1.51 0.33,0.61 0.73,1.36 1.09,2.26l0.07 0.12c0.2,0.3 0.12,0.71 -0.18,0.9 -0.12,0.08 -0.24,0.11 -0.36,0.11z"/>
  <g>
   <path class="fil1" d="M64.6 59.51c0,0 0,0 0,0 0,0 0,0 0,0zm-0.31 0.26c0,0 0,0 0,0 0,0 0,0 0,0zm-7.71 1.59l0.01 0 -0.01 0zm1.85 1.41c0,0 0,0 0,0 0,0 0,0 0,0zm2.56 1.23c-0.01,0 -0.03,0 -0.05,0 -0.82,-0.01 -1.83,-0.34 -2.37,-1.03 -0.13,0.01 -0.33,0.04 -0.6,0.09 -1,0.2 -1.98,0.4 -2.72,-0.27 -0.75,-0.67 -0.76,-1.83 -0.68,-2.76 0.04,-0.54 0.51,-0.95 1.06,-0.9 0.54,0.04 0.94,0.52 0.9,1.06 -0.06,0.67 -0.01,0.98 0.03,1.1 0.21,0 0.64,-0.08 0.97,-0.14 0.73,-0.15 1.99,-0.39 2.59,0.62 0.07,0.09 0.5,0.29 0.95,0.26 0.25,-0.01 0.39,-0.09 0.42,-0.13 0.66,-1.05 1.32,-1.21 1.99,-1.3 0.11,-0.01 0.22,-0.02 0.34,-0.05 0.31,-0.08 0.41,-0.12 0.44,-0.15 0,0 0.07,-0.13 0.03,-0.59 -0.03,-0.1 -0.12,-0.27 -0.2,-0.37 -0.31,-0.14 -0.54,-0.43 -0.58,-0.79 -0.06,-0.54 0.32,-1.03 0.86,-1.09 0.22,-0.03 0.56,0 0.91,0.28 0.44,0.36 0.91,1.2 0.96,1.74 0.24,2.36 -1.31,2.72 -1.97,2.88 -0.19,0.05 -0.37,0.07 -0.54,0.09 -0.35,0.05 -0.36,0.05 -0.58,0.4 -0.42,0.67 -1.21,1.05 -2.16,1.05z"/>
  </g>
  <path class="fil1" d="M54.34 73.36c-0.26,0 -0.51,-0.03 -0.74,-0.12 -0.51,-0.19 -0.77,-0.76 -0.57,-1.27 0.19,-0.5 0.75,-0.75 1.25,-0.57 0.16,0.02 0.68,-0.07 1.22,-0.3 0.15,-0.07 0.43,-0.25 0.72,-0.44 0.82,-0.53 1.93,-1.25 3.23,-1.52 0.02,0 1.97,-0.38 2.98,0.23 0.12,-0.03 0.3,-0.11 0.44,-0.17 0.68,-0.29 1.7,-0.73 3.03,-0.37 0.46,0.12 0.9,0.3 1.38,0.48 0.47,0.19 0.97,0.39 1.47,0.52 0.53,0.14 0.97,0.14 1.19,0.13l0.11 1.96c-0.57,0.03 -1.21,-0.03 -1.8,-0.19 -0.62,-0.16 -1.19,-0.39 -1.7,-0.59 -0.41,-0.16 -0.81,-0.32 -1.16,-0.41 -0.67,-0.18 -1.19,0.04 -1.74,0.28 -0.62,0.26 -1.46,0.62 -2.27,0.02 -0.15,-0.06 -0.93,-0.09 -1.53,0.04 -0.94,0.19 -1.84,0.77 -2.56,1.24 -0.38,0.24 -0.7,0.46 -1,0.59 -0.3,0.13 -1.15,0.46 -1.95,0.46z"/>
  <path class="fil1" d="M61.55 75.94c-1.42,0 -2.5,-0.36 -3.62,-0.73l-0.31 -0.1c-0.52,-0.17 -0.8,-0.73 -0.63,-1.25 0.17,-0.51 0.73,-0.79 1.24,-0.62l0.32 0.11c1.39,0.46 2.39,0.79 4.09,0.55 0.31,-0.05 0.61,-0.09 0.9,-0.12 1.18,-0.15 1.96,-0.24 2.86,-0.83 0.45,-0.29 1.06,-0.16 1.36,0.29 0.29,0.46 0.16,1.07 -0.29,1.36 -1.28,0.83 -2.4,0.97 -3.69,1.13 -0.27,0.03 -0.56,0.07 -0.86,0.11 -0.49,0.07 -0.95,0.1 -1.37,0.1z"/>
  <path class="fil1" d="M65.64 79.85c0,0 0,0 0,0 0,0 0,0 0,0zm0.07 0.04l0 0zm-6.32 0.54c-0.21,0 -0.42,-0.11 -0.55,-0.3 -0.19,-0.3 -0.11,-0.71 0.19,-0.91 1.71,-1.12 2.92,-1.39 5.01,-1.11 0.02,0 2.01,0.38 2.43,0.72 0.28,0.23 0.32,0.64 0.09,0.92 -0.21,0.27 -0.59,0.32 -0.87,0.13 -0.26,-0.12 -1.54,-0.44 -1.82,-0.48 -1.76,-0.23 -2.69,-0.02 -4.12,0.92 -0.11,0.07 -0.23,0.11 -0.36,0.11z"/>
  <path class="fil1" d="M72.12 74.62c-0.36,0 -0.66,-0.3 -0.66,-0.66 0,-0.83 0.12,-1.32 0.24,-1.83 0.07,-0.27 0.14,-0.56 0.2,-0.93 0.04,-0.25 0.09,-0.51 0.15,-0.77 0.12,-0.5 0.23,-1.01 0.18,-1.38 -0.09,-0.72 -0.53,-1.39 -1.03,-2.17 -0.13,-0.19 -0.25,-0.38 -0.38,-0.58 -0.31,-0.5 -0.62,-0.93 -0.96,-1.39 -0.39,-0.53 -0.79,-1.08 -1.18,-1.74 -0.19,-0.31 -0.41,-0.67 -0.56,-0.89 -0.21,-0.3 -0.15,-0.71 0.15,-0.92 0.29,-0.21 0.7,-0.14 0.91,0.15 0.17,0.24 0.37,0.57 0.63,0.99 0.35,0.6 0.72,1.1 1.11,1.63 0.33,0.46 0.68,0.94 1.01,1.47 0.12,0.2 0.25,0.38 0.36,0.57 0.57,0.87 1.11,1.69 1.24,2.71 0.08,0.6 -0.06,1.23 -0.2,1.84 -0.05,0.23 -0.1,0.46 -0.14,0.68 -0.06,0.43 -0.14,0.75 -0.21,1.04 -0.12,0.47 -0.21,0.84 -0.21,1.52 0,0.36 -0.29,0.66 -0.65,0.66z"/>
  <path class="fil1" d="M31.98 63.87c-1.83,0 -3.65,-0.46 -4.75,-1.22 -0.45,-0.31 -0.56,-0.92 -0.25,-1.37 0.3,-0.44 0.92,-0.56 1.36,-0.25 1.8,1.24 6.09,1.26 7.27,-0.36 0.32,-0.44 0.93,-0.54 1.37,-0.22 0.44,0.32 0.53,0.93 0.21,1.37 -1.05,1.45 -3.14,2.05 -5.21,2.05z"/>
  <g>
   <path class="fil1" d="M38.81 63.41l0.01 0 -0.01 0zm13.81 21.08c-0.17,0 -0.34,-0.04 -0.5,-0.14 -0.17,-0.1 -0.31,-0.18 -0.42,-0.25 -0.11,-0.07 -0.18,-0.12 -0.25,-0.15 -0.03,0 -0.28,0.02 -0.56,0.04 -4.32,0.34 -6.48,-2.68 -8.18,-6 -0.12,-0.24 -0.24,-0.47 -0.35,-0.69 -0.67,-1.28 -1.24,-2.38 -1.63,-4.1 -0.13,-0.58 -0.24,-0.81 -0.36,-1.07 -0.11,-0.23 -0.23,-0.49 -0.35,-0.93 -0.24,-0.88 -0.91,-2.25 -1.56,-3.57 -1,-2.06 -1.61,-3.37 -1.61,-4.22 0,-0.54 0.44,-0.98 0.98,-0.98 0.54,0 0.98,0.44 0.98,0.98 0.01,0.46 0.86,2.21 1.42,3.36 0.68,1.4 1.39,2.85 1.68,3.91 0.08,0.27 0.15,0.42 0.24,0.62 0.15,0.32 0.32,0.68 0.5,1.47 0.33,1.47 0.82,2.42 1.45,3.62 0.12,0.23 0.24,0.46 0.36,0.71 1.65,3.22 3.27,5.16 6.24,4.94 1.04,-0.09 1.28,-0.09 2.04,0.39 0.1,0.06 0.22,0.14 0.38,0.23 0.47,0.28 0.62,0.88 0.34,1.35 -0.18,0.31 -0.51,0.48 -0.84,0.48z"/>
  </g>
  <path class="fil1" d="M69.9 82.89c0,0 0,0 0,0 0,0 0,0 0,0zm-8.11 6.26c-0.56,0 -1.12,-0.01 -1.65,-0.03 -0.52,-0.01 -1.02,-0.02 -1.51,-0.02 -4.66,0 -7.91,-5.03 -7.91,-9.55 0,-0.54 0.43,-0.98 0.98,-0.98 0.54,0 0.98,0.44 0.98,0.98 0,3.17 2.26,7.58 5.95,7.58 0.51,0 1.03,0.01 1.56,0.03 2.82,0.08 5.72,0.16 7.4,-1.77 0.39,-0.45 0.79,-0.69 1.11,-0.88 0.47,-0.27 0.73,-0.43 1.02,-1.35 0.02,-0.05 0.05,-0.14 0.09,-0.24 0.03,-0.09 0.07,-0.18 0.09,-0.25 0.06,-0.45 0.43,-0.81 0.89,-0.85 0.54,-0.05 1.02,0.36 1.06,0.9 0.03,0.28 -0.06,0.51 -0.21,0.9l-0.05 0.13c-0.47,1.51 -1.13,2.01 -1.88,2.45 -0.25,0.15 -0.45,0.27 -0.64,0.49 -1.88,2.15 -4.69,2.46 -7.28,2.46z"/>
  <path class="fil1" d="M72.12 84.65c-0.45,0 -0.85,-0.31 -0.96,-0.77 -0.11,-0.53 0.22,-1.05 0.75,-1.17 2.43,-0.54 3.05,-2.26 3.85,-4.45 0.37,-1.03 0.76,-2.1 1.38,-3.07 0.6,-0.96 0.81,-1.7 1.09,-2.73l0.16 -0.57c0.42,-1.45 0.68,-3.03 0.81,-4.82 0.23,-3.04 0.67,-11.92 0.05,-16.45 -0.07,-0.53 0.31,-1.03 0.84,-1.1 0.55,-0.07 1.04,0.3 1.11,0.84 0.64,4.69 0.19,13.76 -0.03,16.85 -0.14,1.93 -0.43,3.64 -0.89,5.22l-0.15 0.55c-0.29,1.06 -0.57,2.06 -1.33,3.26 -0.51,0.79 -0.84,1.72 -1.2,2.69 -0.83,2.31 -1.78,4.92 -5.26,5.7 -0.07,0.01 -0.15,0.02 -0.22,0.02z"/>
  <path class="fil1" d="M80.66 67.25c-0.24,0 -0.49,-0.09 -0.68,-0.28 -0.39,-0.38 -0.4,-1 -0.02,-1.39 0.2,-0.21 0.42,-0.26 0.61,-0.31 0.52,-0.13 0.69,-0.22 0.74,-0.26 1.24,-1.72 1.3,-2.84 1.39,-4.27 0.06,-1.02 0.12,-2.17 0.62,-3.64 0.18,-0.52 0.73,-0.79 1.25,-0.62 0.51,0.18 0.79,0.73 0.61,1.25 -0.41,1.22 -0.47,2.19 -0.52,3.13 -0.09,1.53 -0.18,3.12 -1.8,5.34 -0.41,0.57 -1.15,0.81 -1.82,0.98l-0.04 0.01c-0.11,0.04 -0.23,0.06 -0.34,0.06z"/>
  <path class="fil1" d="M39.84 74.52c-0.01,0 -0.01,0 -0.01,0 0,0 0,0 0.01,0zm0.71 0.13c-0.25,0 -0.49,-0.05 -0.68,-0.1 -0.04,-0.01 -0.08,-0.02 -0.11,-0.03 -1.88,0.01 -4.15,-2.21 -4.32,-3.81 -0.24,-2.17 -1.09,-3.39 -2.26,-5.09 -0.25,-0.36 -0.51,-0.73 -0.77,-1.13 -0.3,-0.45 -0.18,-1.06 0.27,-1.36 0.45,-0.3 1.06,-0.17 1.36,0.28 0.26,0.38 0.51,0.75 0.75,1.09 1.24,1.79 2.31,3.33 2.6,6 0.07,0.61 1.51,2.1 2.34,2.06 0.21,-0.01 0.4,0.03 0.58,0.08 0.17,-0.1 0.36,-0.15 0.57,-0.13 0.54,0.03 0.95,0.5 0.91,1.04 -0.02,0.35 -0.19,0.66 -0.47,0.86 -0.24,0.19 -0.51,0.24 -0.77,0.24z"/>
  <path class="fil1" d="M54.19 98.58c-0.19,0 -0.37,-0.06 -0.54,-0.17 -2.54,-1.67 -8.16,-13.68 -8.3,-16.86 -0.02,-0.55 0.4,-1 0.94,-1.03 0.54,-0.02 1,0.4 1.02,0.94 0.12,2.81 5.6,14.11 7.42,15.31 0.45,0.3 0.58,0.91 0.28,1.36 -0.19,0.29 -0.5,0.45 -0.82,0.45z"/>
  <path class="fil1" d="M70.38 94.89c-0.09,0 -0.19,-0.02 -0.28,-0.04 -0.51,-0.16 -0.81,-0.69 -0.66,-1.2 0.02,-0.09 5.07,-11.85 5.54,-12.44 0.34,-0.42 0.96,-0.49 1.38,-0.15 0.4,0.32 0.49,0.88 0.21,1.3 -0.44,0.82 -5,11.1 -5.25,11.84 -0.13,0.42 -0.52,0.69 -0.94,0.69z"/>
  <path class="fil1" d="M54.3 108.27c-0.16,0 -0.32,-0.04 -0.47,-0.12 -0.53,-0.29 -1.15,-1.01 -2.03,-2.16l-0.18 -0.23c-0.42,-0.53 -1.59,-2.5 -2.68,-4.36 -0.09,-0.15 -0.16,-0.27 -0.2,-0.34 -1.12,-1.23 -1.82,-3.34 -2.49,-5.38 -0.31,-0.96 -0.61,-1.86 -0.91,-2.52 -0.37,-0.8 -0.7,-1.43 -0.99,-1.98 -0.9,-1.72 -1.49,-2.85 -1.49,-5.94 0,-1.05 -0.06,-1.96 -0.11,-2.84 -0.04,-0.59 -0.08,-1.18 -0.1,-1.8 -0.04,-1.16 -0.04,-1.21 0.03,-1.48 0.01,-0.03 0.04,-0.12 0.08,-0.53 0.05,-0.54 0.53,-0.93 1.07,-0.88 0.54,0.05 0.93,0.53 0.88,1.07 -0.04,0.49 -0.09,0.69 -0.12,0.83 0,0.13 0.01,0.49 0.02,0.92 0.02,0.61 0.06,1.17 0.1,1.75 0.06,0.91 0.12,1.85 0.12,2.96 0,2.61 0.42,3.42 1.26,5.02 0.3,0.58 0.65,1.23 1.04,2.08 0.34,0.76 0.66,1.72 0.99,2.73 0.59,1.79 1.26,3.82 2.12,4.71 0.08,0.09 0.08,0.09 0.4,0.63 1.42,2.42 2.27,3.81 2.52,4.14l0.19 0.24c0.74,0.96 1.22,1.51 1.43,1.64 0.47,0.26 0.64,0.86 0.38,1.33 -0.18,0.33 -0.51,0.51 -0.86,0.51z"/>
  <path class="fil1" d="M76.15 80.28c0,0 0,0 0,0 0,0 0,0 0,0zm-2.68 27.88c-0.5,0 -0.93,-0.38 -0.97,-0.9 -0.08,-0.93 2.31,-12.73 2.33,-12.83 0.11,-0.46 0.23,-0.93 0.35,-1.4 1.04,-4.21 2.12,-8.56 1.39,-11.52 -0.2,-0.79 -0.4,-1.16 -0.48,-1.26 -0.45,-0.25 -0.64,-0.8 -0.42,-1.27 0.22,-0.49 0.81,-0.71 1.3,-0.48 0.68,0.3 1.16,1.11 1.51,2.54 0.84,3.43 -0.29,8.02 -1.39,12.46 -0.12,0.47 -0.24,0.93 -0.35,1.4 -0.31,1.26 -2.23,11.27 -2.28,12.25 0.01,0.52 -0.38,0.96 -0.9,1.01 -0.03,0 -0.06,0 -0.09,0z"/>
  <path class="fil1" d="M93.19 89.53c-0.12,0 -0.25,-0.03 -0.37,-0.08l-0.13 -0.03c-0.45,-0.15 -0.92,-0.3 -1.24,-0.48 -1.51,-0.84 -3.36,-1.41 -5.65,-1.73 -2.23,-0.32 -2.78,-0.6 -3.31,-1.3 -0.1,-0.13 -0.16,-0.21 -0.39,-0.35 -0.44,-0.27 -0.86,-0.56 -1.27,-0.85 -1.05,-0.75 -1.97,-1.41 -3,-1.32 -0.54,0.05 -1.02,-0.35 -1.07,-0.9 -0.04,-0.54 0.36,-1.01 0.9,-1.06 1.75,-0.14 3.11,0.82 4.31,1.68 0.39,0.27 0.76,0.54 1.14,0.76 0.56,0.33 0.79,0.65 0.95,0.85 0.09,0.12 0.22,0.29 2.01,0.54 2.54,0.36 4.61,1 6.34,1.97 0.17,0.09 0.68,0.25 0.87,0.31 0.26,0.08 0.41,0.12 0.58,0.28 0.4,0.37 0.43,0.99 0.06,1.39 -0.19,0.21 -0.46,0.32 -0.73,0.32z"/>
  <g>
   <path class="fil1" d="M27.1 96.9l0 0 0 0zm-0.13 0.15l0.13 -0.15zm-0.81 0.43c-0.19,0 -0.39,-0.06 -0.56,-0.17 -0.44,-0.31 -0.56,-0.92 -0.25,-1.37 0.5,-0.73 4.45,-2.32 4.64,-2.35 0.87,-0.17 2.37,-0.96 3.69,-1.66 0.97,-0.51 1.88,-1 2.62,-1.29 0.98,-0.38 1.66,-0.82 2.09,-1.32 0.12,-0.15 0.35,-0.58 0.54,-0.96 0.82,-1.58 2.19,-4.24 4.89,-3.95 0.54,0.06 0.93,0.55 0.87,1.09 -0.06,0.54 -0.55,0.93 -1.08,0.87 -1.25,-0.14 -2.1,1.29 -2.93,2.9 -0.29,0.56 -0.52,1 -0.79,1.32 -0.64,0.76 -1.58,1.37 -2.87,1.88 -0.64,0.25 -1.5,0.71 -2.42,1.19 -1.49,0.79 -3.04,1.61 -4.19,1.85 -0.51,0.17 -3.06,1.33 -3.54,1.67 -0.19,0.2 -0.45,0.3 -0.71,0.3z"/>
  </g>
  <path class="fil1" d="M36.31 106.38c-0.54,0 -0.98,-0.44 -0.98,-0.99l0 -0.78c0,-0.52 0,-1.03 0,-1.55 -0.01,-1.24 0.15,-2.55 0.3,-3.82 0.11,-0.89 0.22,-1.73 0.24,-2.43 0.02,-0.66 1.41,-6.91 2.73,-7.65 0.47,-0.27 1.07,-0.1 1.34,0.37 0.24,0.43 0.12,0.96 -0.25,1.26 -0.55,0.76 -1.83,5.26 -1.85,6.09 -0.03,0.78 -0.14,1.67 -0.25,2.6 -0.15,1.2 -0.31,2.45 -0.29,3.56 0,0.53 0,1.05 0,1.58l0 0.77c0,0.55 -0.45,0.99 -0.99,0.99z"/>
  <g>
   <path class="fil1" d="M83.44 86.55l0 0 0 0zm3.84 9.8c-0.36,0 -0.7,-0.2 -0.87,-0.54 -0.13,-0.26 -0.32,-0.83 -0.62,-1.75 -0.18,-0.52 -0.44,-1.31 -0.52,-1.47 -0.17,-0.37 -0.38,-1.02 -0.72,-2.13 -0.34,-1.13 -1.04,-3.42 -1.45,-3.99 -0.36,-0.16 -0.6,-0.54 -0.57,-0.97 0.03,-0.54 0.5,-0.94 1.05,-0.91 1.16,0.09 1.7,1.52 2.85,5.29 0.24,0.79 0.49,1.6 0.61,1.85 0.13,0.26 0.32,0.82 0.61,1.72 0.18,0.52 0.44,1.32 0.52,1.48 0.23,0.49 0.03,1.08 -0.45,1.32 -0.14,0.07 -0.29,0.1 -0.44,0.1z"/>
  </g>
  <path class="fil2" d="M49.32 51.09c0.72,-0.03 1.33,0.52 1.36,1.24 0.04,0.72 -0.52,1.33 -1.24,1.37 -0.72,0.03 -1.33,-0.52 -1.37,-1.24 -0.03,-0.72 0.53,-1.33 1.25,-1.37z"/>
  <path class="fil2" d="M69.54 47.59c0.72,-0.04 1.33,0.52 1.36,1.24 0.04,0.72 -0.52,1.33 -1.24,1.36 -0.72,0.04 -1.33,-0.52 -1.36,-1.24 -0.04,-0.72 0.52,-1.33 1.24,-1.36z"/>
  <path class="fil1" d="M22.92 44.46c-0.23,0 -0.47,-0.09 -0.66,-0.26 -1.16,-1.06 -1.81,-2.5 -1.85,-4.17 -0.07,-2.35 0.52,-3.35 1,-4.16 0.42,-0.71 0.75,-1.27 0.61,-3 -0.5,-6.38 2.87,-8.27 5.85,-9.94 1.88,-1.07 3.67,-2.07 4.55,-4.16 1,-2.39 2.15,-3.21 3.61,-4.26 0.44,-0.31 0.89,-0.64 1.4,-1.04 2.28,-1.84 4.21,-2.3 6.45,-2.83 0.44,-0.11 0.91,-0.22 1.39,-0.35 3.44,-0.89 4.75,-0.69 6.4,-0.44 0.92,0.14 1.95,0.3 3.63,0.3 2.72,0 4.09,-0.54 5.3,-1.01 0.86,-0.34 1.68,-0.66 2.75,-0.68 2.04,-0.07 5.05,1.03 6.4,2.85 0.31,0.42 0.54,0.84 0.75,1.21 0.53,0.97 0.7,1.17 1.26,1.16 0.01,0 0.02,0 0.03,0 0.53,0 0.96,0.42 0.98,0.96 0.01,0.54 -0.42,0.99 -0.96,1 -1.82,0.04 -2.48,-1.18 -3.03,-2.16 -0.19,-0.33 -0.38,-0.68 -0.61,-1 -0.9,-1.22 -3.28,-2.1 -4.78,-2.06 -0.72,0.02 -1.29,0.24 -2.07,0.55 -1.3,0.51 -2.93,1.14 -6.02,1.14 -1.82,0 -2.99,-0.18 -3.92,-0.32 -1.55,-0.23 -2.56,-0.39 -5.61,0.41 -0.5,0.13 -0.98,0.24 -1.43,0.35 -2.09,0.5 -3.74,0.89 -5.68,2.45 -0.55,0.44 -1.05,0.8 -1.49,1.11 -1.34,0.97 -2.16,1.55 -2.94,3.42 -1.14,2.72 -3.41,3.99 -5.4,5.11 -2.93,1.65 -5.25,2.95 -4.85,8.07 0.19,2.35 -0.38,3.32 -0.88,4.16 -0.42,0.71 -0.78,1.32 -0.73,3.1 0.03,1.14 0.44,2.08 1.21,2.78 0.41,0.36 0.44,0.98 0.07,1.39 -0.19,0.21 -0.46,0.32 -0.73,0.32z"/>
 </g>
</svg>
