<?xml version="1.0" encoding="UTF-8"?>
<!DOCTYPE svg PUBLIC "-//W3C//DTD SVG 1.1//EN" "http://www.w3.org/Graphics/SVG/1.1/DTD/svg11.dtd">
<!-- Creator: CorelDRAW 2018 (64-Bit) -->
<svg xmlns="http://www.w3.org/2000/svg" xml:space="preserve" width="845px" height="845px" version="1.1" style="shape-rendering:geometricPrecision; text-rendering:geometricPrecision; image-rendering:optimizeQuality; fill-rule:evenodd; clip-rule:evenodd"
viewBox="0 0 117.19 117.19"
 xmlns:xlink="http://www.w3.org/1999/xlink">
 <defs>
  <style type="text/css">
   <![CDATA[
    .fil0 {fill:none}
    .fil2 {fill:black}
    .fil1 {fill:black;fill-rule:nonzero}
   ]]>
  </style>
 </defs>
 <g id="Слой_x0020_1">
  <metadata id="CorelCorpID_0Corel-Layer"/>
  <rect class="fil0" width="117.19" height="117.19"/>
 </g>
 <g id="_1">
  <metadata id="CorelCorpID_1Corel-Layer"/>
  <path class="fil1" d="M57.82 59.86c-0.2,0 -0.39,-0.06 -0.57,-0.18 -1.19,-0.84 -4.02,-2.28 -6.04,-2.69 -0.86,-0.18 -1.83,0.02 -2.85,0.22 -0.8,0.16 -1.62,0.32 -2.46,0.32 -0.54,0 -0.98,-0.44 -0.98,-0.98 0,-0.54 0.44,-0.98 0.98,-0.98 0.65,0 1.34,-0.14 2.08,-0.29 1.16,-0.23 2.37,-0.47 3.62,-0.22 2.42,0.49 5.48,2.09 6.79,3.01 0.44,0.31 0.55,0.93 0.23,1.37 -0.19,0.27 -0.49,0.42 -0.8,0.42z"/>
  <path class="fil1" d="M78.32 63.31c-0.37,0 -0.72,-0.21 -0.89,-0.57 -1.29,-2.76 -6.22,-1.96 -8.45,-0.95 -0.49,0.22 -1.08,0.01 -1.3,-0.49 -0.23,-0.49 -0.01,-1.07 0.49,-1.3 3.38,-1.53 9.22,-1.99 11.04,1.91 0.23,0.49 0.02,1.08 -0.47,1.31 -0.14,0.06 -0.28,0.09 -0.42,0.09z"/>
  <path class="fil1" d="M56.95 65.29c-0.17,0 -0.35,-0.05 -0.51,-0.15 -0.8,-0.49 -1.26,-0.81 -1.59,-1.12 -0.19,-0.18 -0.36,-0.35 -0.53,-0.51 -0.76,-0.74 -1.22,-1.19 -2.28,-1.41 -0.94,-0.2 -1.69,0.01 -2.54,0.26 -0.66,0.18 -1.4,0.39 -2.26,0.41 -0.75,0.02 -1.82,-0.3 -2.53,-1.04 -0.49,-0.52 -0.73,-1.16 -0.68,-1.85 0.03,-0.54 0.51,-0.95 1.05,-0.92 0.54,0.04 0.95,0.51 0.91,1.05 -0.01,0.1 0.01,0.22 0.15,0.37 0.26,0.27 0.75,0.43 1.06,0.42 0.61,-0.01 1.17,-0.17 1.76,-0.34 0.97,-0.27 2.06,-0.58 3.48,-0.29 1.63,0.34 2.42,1.12 3.26,1.94 0.15,0.15 0.31,0.31 0.49,0.47 0.22,0.21 0.62,0.48 1.28,0.89 0.46,0.28 0.6,0.89 0.32,1.35 -0.19,0.3 -0.51,0.47 -0.84,0.47z"/>
  <path class="fil1" d="M76.33 68.11c-0.72,0 -1.58,-0.25 -2.61,-0.91l-0.14 -0.1c-1.2,-0.78 -1.93,-1.26 -3.69,-1.04 -0.6,0.08 -0.92,0.17 -1.36,0.3 -0.37,0.11 -0.8,0.24 -1.46,0.37 -0.53,0.11 -1.05,-0.23 -1.15,-0.76 -0.11,-0.54 0.23,-1.05 0.76,-1.16 0.58,-0.12 0.94,-0.23 1.29,-0.33 0.47,-0.14 0.91,-0.28 1.68,-0.37 2.48,-0.3 3.7,0.5 5,1.35l0.14 0.09c1.54,1 2.04,0.49 2.28,0.25 0.37,-0.39 1,-0.4 1.39,-0.03 0.39,0.38 0.39,1 0.02,1.39 -0.49,0.51 -1.19,0.95 -2.15,0.95z"/>
  <path class="fil1" d="M59.62 80.12c-0.98,0 -1.76,-0.29 -2.42,-0.87 -0.16,-0.14 -0.29,-0.28 -0.42,-0.42 -0.27,-0.29 -0.51,-0.54 -1.26,-0.94 -0.11,-0.06 -0.21,-0.12 -0.32,-0.18 -0.24,-0.15 -0.48,-0.29 -1.07,-0.45 -1.73,-0.46 -2.52,-1.85 -2.38,-2.92 0.09,-0.76 0.66,-1.29 1.36,-1.29 0.54,0 0.98,0.44 0.98,0.98 0,0.3 -0.13,0.56 -0.34,0.74 0.1,0.19 0.35,0.45 0.89,0.59 0.87,0.23 1.28,0.49 1.58,0.67 0.07,0.04 0.14,0.08 0.21,0.12 1.05,0.55 1.45,0.99 1.78,1.34 0.09,0.09 0.18,0.19 0.29,0.28 0.25,0.22 0.83,0.73 3.08,-0.01 0.73,-0.24 1.51,-0.46 2.33,-0.42 0.15,0.03 0.48,-0.18 0.65,-0.36 -0.43,-0.26 -0.58,-0.82 -0.35,-1.27 0.25,-0.49 0.84,-0.68 1.32,-0.43 1.03,0.52 1.21,1.41 1.03,2.07 -0.29,1.08 -1.6,2 -2.75,1.96 -0.49,-0.03 -1.07,0.14 -1.62,0.32 -0.99,0.32 -1.83,0.49 -2.57,0.49z"/>
  <path class="fil1" d="M67.19 85.93c-0.01,0 -0.03,0 -0.04,0 0.01,0 0.03,0 0.04,0zm-16.93 -2.18c0.12,0.15 0.23,0.3 0.34,0.45 1.36,1.83 2.66,3.56 5.7,4.05 2,0.33 3.75,0.26 4.92,-0.2 0.73,-0.28 1.5,-0.91 2.01,-1.32 0.19,-0.16 0.35,-0.29 0.48,-0.38 -0.19,-0.04 -0.38,-0.08 -0.56,-0.12 -1.08,-0.24 -2.1,-0.47 -3.32,-0.33 -0.53,0.06 -0.95,0.11 -1.29,0.15 -0.97,0.12 -1.34,0.17 -1.7,0.11 -0.37,-0.06 -0.65,-0.26 -0.94,-0.47 -0.38,-0.27 -0.96,-0.67 -2.08,-1.04 -0.63,-0.22 -2.09,-0.56 -3.56,-0.9zm8.37 6.67c-0.96,0 -1.88,-0.1 -2.64,-0.23 -3.83,-0.61 -5.57,-2.95 -6.97,-4.82 -0.31,-0.42 -0.61,-0.81 -0.91,-1.18 -0.24,-0.28 -0.29,-0.65 -0.17,-0.97 -0.51,-0.17 -0.96,-0.47 -1.31,-0.7 -0.08,-0.05 -0.19,-0.13 -0.27,-0.17 -0.38,-0.06 -0.71,-0.35 -0.8,-0.75 -0.13,-0.53 0.2,-1.06 0.73,-1.18 0.54,-0.13 0.97,0.16 1.43,0.46 0.27,0.18 0.64,0.42 0.88,0.48l0.18 0.04c2.07,0.47 4.65,1.04 5.66,1.38 1.39,0.46 2.14,0.99 2.59,1.31 0.07,0.05 0.13,0.09 0.19,0.13 0.17,-0.01 0.58,-0.06 1.09,-0.12 0.34,-0.04 0.76,-0.09 1.29,-0.15 1.55,-0.18 2.84,0.11 3.97,0.36 0.37,0.08 0.74,0.16 1.11,0.23 0.34,0.05 1.14,-0.22 1.52,-0.35 0.36,-0.13 0.6,-0.21 0.84,-0.22 0.53,-0.03 1,0.38 1.04,0.92 0.03,0.52 -0.36,0.97 -0.87,1.03 -0.09,0.03 -0.21,0.07 -0.36,0.13 -0.51,0.17 -1.16,0.4 -1.79,0.45 0.02,0.02 0.03,0.04 0.05,0.06 0.31,0.44 0.21,1.06 -0.23,1.37 -0.11,0.08 -0.24,0.19 -0.4,0.32 -0.61,0.49 -1.53,1.24 -2.55,1.64 -1.03,0.39 -2.19,0.53 -3.3,0.53z"/>
  <path class="fil1" d="M63.27 37.28c-1.59,0 -3.32,-0.3 -4.73,-1.27 -1.4,-0.97 -2.25,-2.44 -2.52,-4.36 -0.13,-0.91 -0.03,-1.91 0.31,-3.16 0.37,-1.32 2.13,-3.34 3.57,-3.72 2.28,-0.6 5.61,-0.46 7.55,1.3 0.81,0.74 1.69,2.06 1.34,4.18 -0.31,1.92 -2.2,3.54 -3.84,4 -1.73,0.49 -3.3,-0.35 -4.08,-1.41 -0.75,-1.01 -0.84,-2.22 -0.23,-3.16 0.37,-0.59 1.16,-1.18 2.05,-1.18 0.55,0 0.99,0.44 0.99,0.98 0,0.54 -0.44,0.98 -0.99,0.98 -0.09,0 -0.3,0.13 -0.4,0.28 -0.23,0.35 0.07,0.8 0.16,0.93 0.38,0.52 1.14,0.93 1.97,0.69 1.01,-0.28 2.26,-1.35 2.43,-2.43 0.17,-1.02 -0.07,-1.81 -0.72,-2.4 -1.32,-1.2 -3.93,-1.34 -5.72,-0.86 -0.61,0.16 -1.95,1.52 -2.18,2.35 -0.27,0.97 -0.36,1.72 -0.27,2.35 0.2,1.38 0.76,2.37 1.7,3.02 1.92,1.33 4.88,0.94 6.48,0.59 0.53,-0.11 1.05,0.22 1.17,0.75 0.12,0.53 -0.22,1.06 -0.75,1.17 -0.85,0.19 -2.02,0.38 -3.29,0.38z"/>
  <path class="fil1" d="M51.95 26.08l0 0zm4.21 11.01c-1.65,0 -3.49,-0.04 -4.99,-0.95 -3.3,-2.02 -5.14,-4.35 -5.64,-7.13 -0.39,-2.16 0.05,-4.23 1.25,-5.82 1.11,-1.46 2.74,-2.37 4.57,-2.54 1.77,-0.17 4.42,0.31 6.03,1.78 0.9,0.81 1.37,1.84 1.37,2.98 0,2.87 -2.1,5.04 -4.17,5.69 -1.82,0.58 -3.58,0.03 -4.59,-1.41 -0.86,-1.24 -1.29,-3.17 -0.45,-4.48 0.57,-0.89 1.61,-1.27 2.84,-1.04 0.95,0.17 1.71,1.25 1.79,2.1 0.08,0.71 -0.27,1.32 -0.9,1.58 -0.5,0.2 -1.08,-0.04 -1.29,-0.54 -0.14,-0.35 -0.07,-0.74 0.16,-1.01 -0.05,-0.08 -0.11,-0.17 -0.17,-0.21 -0.6,-0.09 -0.73,0.11 -0.78,0.18 -0.27,0.42 -0.16,1.46 0.41,2.29 0.71,1.01 1.8,0.85 2.39,0.67 1.39,-0.44 2.79,-1.89 2.79,-3.82 0,-0.59 -0.23,-1.08 -0.72,-1.52 -1.11,-1.01 -3.16,-1.42 -4.52,-1.29 -1.28,0.13 -2.41,0.76 -3.19,1.78 -0.87,1.14 -1.18,2.67 -0.89,4.28 0.4,2.22 1.91,4.07 4.74,5.8 1.08,0.66 2.65,0.66 4.16,0.66l0.19 0c0.54,0 0.98,0.44 0.98,0.98 0,0.55 -0.44,0.99 -0.98,0.99l-0.19 0 -0.2 0z"/>
  <path class="fil1" d="M46.73 34.68c-1.93,0 -3.68,-1.1 -5.24,-2.08 -0.56,-0.34 -1.08,-0.67 -1.57,-0.93 -1.04,-0.54 -1.95,-1.39 -2.62,-2.47 -1.25,-2 -1.52,-4.5 -0.71,-6.52 1.05,-2.6 3.14,-3.12 5.04,-3.29 1.5,-0.13 2.81,0.24 3.69,1.05 0.78,0.72 1.19,1.73 1.19,2.95 0,1.93 -0.81,3.41 -2.28,4.18 -1.43,0.74 -2.95,0.78 -4.06,0.09 -0.99,-0.61 -1.51,-1.68 -1.5,-3.01 0.01,-0.46 0.21,-1.97 2.54,-2.03 0.7,-0.02 1.06,0.28 1.34,0.58 0.36,0.4 0.34,1.02 -0.06,1.39 -0.38,0.35 -0.96,0.34 -1.33,0 -0.31,0.01 -0.45,0.06 -0.52,0.09 0,0.65 0.19,1.08 0.56,1.3 0.5,0.32 1.34,0.25 2.12,-0.16 0.82,-0.42 1.23,-1.24 1.23,-2.43 0,-0.66 -0.19,-1.16 -0.56,-1.5 -0.46,-0.43 -1.24,-0.62 -2.19,-0.54 -1.95,0.17 -2.84,0.71 -3.38,2.07 -0.59,1.44 -0.37,3.26 0.55,4.74 0.48,0.78 1.13,1.39 1.86,1.77 0.56,0.29 1.11,0.64 1.7,1.01 1.6,1 3.25,2.04 4.81,1.71 0.53,-0.11 1.06,0.23 1.17,0.76 0.11,0.53 -0.24,1.05 -0.77,1.16 -0.34,0.08 -0.68,0.11 -1.01,0.11z"/>
  <path class="fil1" d="M79.8 38c-0.1,0 -0.19,-0.02 -0.28,-0.06 -0.33,-0.15 -0.47,-0.55 -0.32,-0.88 0.26,-0.56 1.27,-1.29 3.84,-2.77l0.23 -0.13c0.68,-0.4 1.22,-1.34 1.46,-2.59 0.5,-2.61 -1.02,-4.19 -1.97,-4.89 -1.7,-1.27 -4.01,-1.62 -5.5,-0.84 -1.28,0.67 -2.2,1.67 -2.51,2.73 -0.25,0.86 -0.13,1.75 0.38,2.66 0.96,1.71 3.14,2.11 4.76,1.76 1.29,-0.28 2.16,-1 2.22,-1.81 0.08,-0.94 -0.12,-1.67 -0.55,-2 -0.45,-0.34 -1.12,-0.21 -1.61,-0.04 -0.32,0.11 -0.33,0.15 -0.37,0.42l-0.02 0.1c-0.03,0.13 -0.02,0.24 0.03,0.29 0.05,0.06 0.17,0.09 0.32,0.09 0.36,0 0.66,0.3 0.66,0.66 0,0.36 -0.3,0.65 -0.66,0.65 -0.56,0 -1.03,-0.2 -1.33,-0.57 -0.3,-0.36 -0.41,-0.85 -0.31,-1.37l0.02 -0.08c0.06,-0.37 0.18,-1.06 1.23,-1.43 1.44,-0.5 2.34,-0.14 2.84,0.25 0.8,0.61 1.17,1.72 1.06,3.13 -0.11,1.43 -1.36,2.57 -3.25,2.99 -2.08,0.45 -4.89,-0.1 -6.18,-2.4 -0.68,-1.21 -0.85,-2.48 -0.5,-3.68 0.42,-1.41 1.55,-2.66 3.16,-3.51 1.94,-1.02 4.77,-0.63 6.89,0.95 2.04,1.51 2.94,3.77 2.47,6.19 -0.18,0.95 -0.7,2.67 -2.08,3.47l-0.24 0.13c-2.49,1.44 -3.17,1.99 -3.31,2.21 -0.11,0.23 -0.34,0.37 -0.58,0.37z"/>
  <path class="fil1" d="M80.55 42.59c-0.27,0 -0.53,-0.11 -0.73,-0.33 -0.36,-0.4 -0.34,-1.01 0.06,-1.37 0.38,-0.35 2.15,-1.51 2.4,-1.66 0.64,-0.38 1.24,-0.7 1.81,-1.02 2.06,-1.11 3.54,-1.91 4.54,-4.12 0.54,-1.2 0.38,-2.6 0.21,-4.07l-0.04 -0.36c-0.15,-1.38 -0.68,-2.45 -1.67,-3.36 -2.5,-2.32 -7.44,-3.3 -10.99,-2.18 -1.62,0.5 -3.15,1.7 -3.9,3.04 -0.81,1.44 -0.77,2.56 -0.39,4.4 0.26,1.22 2.16,3.03 3.19,3.03 0.54,0 0.98,0.44 0.98,0.98 0,0.55 -0.44,0.99 -0.98,0.99 -2.1,0 -4.7,-2.64 -5.11,-4.6 -0.45,-2.17 -0.5,-3.81 0.59,-5.76 1,-1.78 2.93,-3.3 5.03,-3.96 4.22,-1.33 9.9,-0.18 12.92,2.62 1.33,1.23 2.08,2.73 2.28,4.58l0.05 0.35c0.18,1.6 0.39,3.41 -0.38,5.11 -1.27,2.81 -3.18,3.85 -5.39,5.04 -0.56,0.3 -1.14,0.62 -1.74,0.98 -0.37,0.22 -1.86,1.22 -2.08,1.42 -0.19,0.16 -0.42,0.25 -0.66,0.25z"/>
  <path class="fil1" d="M64.17 46.96c-1.74,0 -3.01,-0.59 -3.89,-1.27 -2.08,-1.61 -2.77,-4.34 -2.37,-6.09 0.23,-0.99 0.83,-1.66 1.63,-1.83 0.53,-0.11 1.05,0.23 1.16,0.77 0.11,0.52 -0.22,1.02 -0.73,1.15 -0.28,0.28 -0.42,1.94 0.59,3.45 1.53,2.29 4.44,2.47 8.2,0.5 0.48,-0.25 1.08,-0.06 1.33,0.42 0.25,0.48 0.06,1.07 -0.42,1.32 -2.21,1.16 -4.02,1.58 -5.5,1.58z"/>
  <g>
   <path class="fil1" d="M72.78 44.98l0 0.01 0 -0.01zm2.31 3.81c-0.98,0 -1.91,-0.18 -2.6,-0.59 -1.45,-0.86 -1.7,-1.27 -1.68,-2.79l0.01 -0.43c0,-1.02 0.98,-1.7 1.89,-1.7 0.54,0 0.98,0.44 0.98,0.98 0,0.52 -0.4,0.94 -0.91,0.98l0 0.19c0,0.26 -0.01,0.55 0.02,0.63 0.06,0.08 0.54,0.36 0.69,0.45 0.85,0.51 3.2,0.41 4.95,-0.47 0.88,-0.44 1.41,-0.99 1.47,-1.51 0.27,-2.58 -1.24,-3.35 -4.49,-4.02 -0.69,-0.14 -1.67,-0.09 -2.72,-0.03 -1.98,0.11 -4.22,0.22 -5.6,-1 -2.35,-2.09 -1.72,-3.92 -0.69,-5.59 0.29,-0.46 0.89,-0.6 1.36,-0.32 0.46,0.29 0.6,0.89 0.32,1.35 -0.92,1.49 -0.87,2.04 0.32,3.09 0.77,0.69 2.59,0.59 4.19,0.51 1.17,-0.07 2.28,-0.12 3.21,0.07 2.29,0.46 6.55,1.33 6.05,6.15 -0.13,1.22 -1.03,2.3 -2.54,3.06 -1.19,0.6 -2.78,0.99 -4.23,0.99z"/>
  </g>
  <path class="fil1" d="M79.5 58.06c-3.3,0 -4.04,-0.37 -6.46,-1.62l-0.17 -0.09c-2.9,-1.49 -5.1,-5.29 -4.99,-8.65 0.01,-0.54 0.45,-0.97 1.01,-0.95 0.54,0.02 0.97,0.47 0.95,1.01 -0.08,2.58 1.72,5.71 3.93,6.84l0.17 0.09c2.31,1.19 2.73,1.41 5.56,1.41 1.5,0 2.46,-0.8 3.01,-1.47 0.97,-1.2 1.39,-2.93 1.08,-4.41 -0.11,-0.53 -0.41,-1.94 -3.61,-1.3 -1.59,0.32 -2.3,1.23 -2.1,2.71 0.11,0.83 0.52,0.89 0.74,0.92 0.01,0 0.01,0 0.01,0 -0.07,-0.22 -0.06,-0.46 0.04,-0.68 0.22,-0.49 0.76,-0.72 1.25,-0.52 0.79,0.33 1.19,1.1 0.98,1.86 -0.21,0.77 -1.1,1.5 -2.55,1.29 -1.34,-0.19 -2.22,-1.14 -2.42,-2.6 -0.35,-2.55 1.03,-4.38 3.67,-4.91 4.61,-0.92 5.67,1.67 5.91,2.82 0.44,2.07 -0.12,4.39 -1.47,6.05 -1.15,1.42 -2.76,2.2 -4.54,2.2z"/>
  <path class="fil1" d="M83.88 55.74c-0.31,0 -0.62,-0.15 -0.81,-0.42 -0.31,-0.45 -0.19,-1.06 0.25,-1.38 0.24,-0.16 0.59,-0.3 0.77,-0.35 0.8,-0.23 1.3,-1.09 1.57,-1.77 0.85,-2.1 0.66,-5.11 -0.08,-6.38 -0.94,-1.63 -1.29,-1.73 -3.34,-1.73 -0.54,0 -0.98,-0.44 -0.98,-0.99 0,-0.54 0.44,-0.98 0.98,-0.98 2.61,0 3.71,0.39 5.04,2.71 1.13,1.95 1.22,5.59 0.2,8.11 -0.62,1.55 -1.61,2.56 -2.84,2.92 -0.05,0.01 -0.17,0.06 -0.21,0.08 -0.17,0.12 -0.36,0.18 -0.55,0.18z"/>
  <path class="fil1" d="M86.59 43.92c-0.55,0 -0.99,-0.44 -0.99,-0.98 0,-1.61 0.93,-2.48 1.63,-3 0.35,-0.26 0.68,-0.5 0.99,-0.72 1.78,-1.27 2.67,-1.9 3.36,-4.44 0.37,-1.36 0.35,-2.86 -0.06,-4.7 -0.64,-2.93 -2.19,-3.07 -2.69,-3.12 -0.55,-0.05 -0.94,-0.53 -0.89,-1.07 0.05,-0.54 0.53,-0.93 1.07,-0.88 1.59,0.14 3.64,1.07 4.43,4.65 0.48,2.16 0.49,3.95 0.03,5.63 -0.87,3.22 -2.23,4.19 -4.11,5.53 -0.3,0.21 -0.62,0.44 -0.96,0.7 -0.61,0.45 -0.83,0.83 -0.83,1.42 0,0.54 -0.44,0.98 -0.98,0.98z"/>
  <path class="fil1" d="M86.59 25.01c-0.34,0 -0.67,-0.18 -0.86,-0.5 -0.27,-0.47 -0.11,-1.07 0.36,-1.34 0.74,-0.42 1.12,-1.12 1.16,-2.15 0.08,-2.17 -1.47,-5.19 -3.34,-6.47 -1.08,-0.74 -2.47,-1.42 -4.24,-2.06 -0.74,-0.27 -1.41,-0.51 -2,-0.76 -4.99,-2.06 -9.01,-3.61 -15.37,-4.87 -1.73,-0.34 -3.55,-0.49 -5.42,-0.46 -5.68,0.1 -10.52,1.88 -13.27,4.88 -1.92,2.09 -2.78,4.73 -2.56,7.84 0.01,0.11 0.08,0.6 0.1,0.7 0.09,0.53 -0.26,1.04 -0.79,1.14 -0.53,0.1 -1.04,-0.25 -1.15,-0.77 -0.02,-0.13 -0.11,-0.79 -0.12,-0.94 -0.26,-3.67 0.77,-6.79 3.07,-9.3 3.11,-3.4 8.46,-5.41 14.69,-5.52 2,-0.03 3.97,0.14 5.83,0.51 6.54,1.29 10.65,2.87 15.74,4.97 0.55,0.23 1.2,0.47 1.89,0.72 1.96,0.71 3.49,1.46 4.72,2.3 2.42,1.66 4.29,5.33 4.18,8.17 -0.06,1.7 -0.8,3.01 -2.13,3.77 -0.16,0.09 -0.33,0.14 -0.49,0.14z"/>
  <path class="fil1" d="M83.54 24c-0.25,0 -0.51,-0.1 -0.7,-0.29 -0.38,-0.39 -0.38,-1.01 0.01,-1.39 1.23,-1.23 0.84,-2.39 -0.27,-4 -0.16,-0.23 -0.28,-0.41 -0.37,-0.59 -0.24,-0.49 -0.04,-1.08 0.45,-1.32 0.48,-0.24 1.07,-0.04 1.31,0.45 0.04,0.09 0.13,0.2 0.23,0.35 0.73,1.06 2.68,3.88 0.03,6.5 -0.19,0.19 -0.44,0.29 -0.69,0.29z"/>
  <path class="fil1" d="M44.2 18.86c-0.52,0 -0.95,-0.41 -0.98,-0.94 -0.26,-5.7 6.6,-8.08 9.56,-8.83 4.13,-1.06 7.4,-0.86 11.34,-0.19 10.19,1.72 15.63,3.9 16.17,6.48 0.11,0.53 -0.23,1.06 -0.76,1.17 -0.53,0.11 -1.05,-0.23 -1.16,-0.76 -0.27,-1.25 -4.94,-3.33 -14.58,-4.95 -3.69,-0.63 -6.73,-0.82 -10.52,0.15 -2.5,0.64 -8.28,2.58 -8.08,6.84 0.02,0.55 -0.4,1 -0.94,1.03 -0.01,0 -0.03,0 -0.05,0z"/>
  <path class="fil1" d="M49.68 22.51c-0.48,0 -0.9,-0.35 -0.97,-0.84 -0.04,-0.28 -0.14,-0.66 -0.24,-1.06 -0.51,-1.98 -1.35,-5.3 1.92,-7.39 3.44,-2.2 8.23,-1.2 11.1,-0.59 1.29,0.27 2.45,0.25 3.67,0.24 2.23,-0.03 4.52,-0.06 7.34,1.73 0.46,0.29 0.59,0.89 0.3,1.35 -0.29,0.46 -0.89,0.6 -1.35,0.31 -2.33,-1.47 -4.15,-1.45 -6.26,-1.43 -1.28,0.02 -2.6,0.03 -4.1,-0.28 -3.33,-0.7 -7.09,-1.31 -9.64,0.32 -1.92,1.23 -1.64,3.03 -1.08,5.25 0.12,0.45 0.23,0.88 0.28,1.27 0.08,0.53 -0.29,1.03 -0.83,1.11 -0.05,0.01 -0.09,0.01 -0.14,0.01z"/>
  <path class="fil1" d="M78.5 23.7c-0.46,0 -0.87,-0.33 -0.96,-0.79 -0.28,-1.36 -0.97,-2.46 -1.97,-3.09 -0.46,-0.29 -0.59,-0.9 -0.3,-1.36 0.29,-0.45 0.9,-0.59 1.35,-0.3 1.46,0.93 2.47,2.47 2.84,4.36 0.11,0.53 -0.23,1.05 -0.77,1.16 -0.06,0.01 -0.13,0.02 -0.19,0.02z"/>
  <path class="fil1" d="M54.77 20.56c-0.39,0 -0.76,-0.24 -0.91,-0.63 -0.43,-1.09 0.04,-2.11 1.19,-2.58 1.09,-0.45 3.04,-0.52 5.81,-0.2 0.53,0.06 1.21,0.17 1.93,0.29 1.7,0.29 4.26,0.72 5.28,0.4 0.51,-0.16 1.07,0.13 1.23,0.64 0.16,0.52 -0.12,1.07 -0.64,1.24 -1.47,0.46 -3.98,0.04 -6.2,-0.34 -0.69,-0.12 -1.34,-0.23 -1.82,-0.28 -3.31,-0.38 -4.49,-0.08 -4.84,0.07 -0.05,0.02 -0.08,0.03 -0.11,0.05 0.2,0.5 -0.05,1.07 -0.56,1.27 -0.12,0.04 -0.24,0.07 -0.36,0.07z"/>
  <path class="fil1" d="M61.69 25.38c-0.53,0 -0.97,-0.43 -0.98,-0.96 -0.02,-0.6 0.18,-1.14 0.57,-1.54 0.94,-0.98 2.71,-1 4.59,-1.02 1.26,-0.02 2.83,-0.03 3.41,-0.44 0.44,-0.31 1.06,-0.21 1.37,0.24 0.31,0.44 0.2,1.05 -0.24,1.37 -1.08,0.75 -2.83,0.77 -4.52,0.79 -1.13,0.02 -2.83,0.04 -3.19,0.42 -0.01,0.01 -0.03,0.03 -0.03,0.13 0.01,0.54 -0.41,0.99 -0.96,1.01 -0.01,0 -0.01,0 -0.02,0z"/>
  <path class="fil1" d="M56.39 43.34c-0.33,0 -0.65,-0.17 -0.84,-0.47l-0.11 -0.18c-0.04,-0.07 -0.07,-0.15 -0.1,-0.23 -0.45,-1.46 -1.69,-2.39 -2.99,-3.38 -0.55,-0.41 -1.11,-0.84 -1.61,-1.31 -0.4,-0.37 -0.42,-0.99 -0.05,-1.39 0.37,-0.39 0.99,-0.41 1.39,-0.04 0.43,0.4 0.93,0.77 1.45,1.17 1.4,1.06 2.98,2.25 3.65,4.25l0.05 0.08c0.28,0.46 0.14,1.07 -0.33,1.35 -0.16,0.1 -0.33,0.15 -0.51,0.15z"/>
  <g>
   <path class="fil1" d="M51.84 43.03c0,0 0,0 0,0 0,0 0,0 0,0zm0 0.01c0,0 0,0 0,0 0,0 0,0 0,0zm0.18 0.33l0 0 0 0zm0.77 0.39c-0.33,0 -0.63,-0.16 -0.81,-0.43 -0.19,-0.16 -0.97,-0.76 -4.21,-2.76l-0.2 -0.12c-2.67,-1.67 -5.06,-4 -6.73,-6.57 -0.3,-0.45 -0.17,-1.06 0.29,-1.36 0.45,-0.29 1.06,-0.16 1.36,0.29 1.51,2.33 3.69,4.45 6.12,5.97l0.19 0.12c4.75,2.94 4.81,3.17 4.94,3.62 0.14,0.53 -0.17,1.06 -0.7,1.21 -0.08,0.02 -0.17,0.03 -0.25,0.03z"/>
  </g>
  <path class="fil1" d="M46.32 43.44c-0.15,0 -0.32,-0.04 -0.46,-0.12 -3.94,-2.14 -11.07,-10.09 -11.01,-12.91 0.01,-0.53 0.45,-0.96 0.99,-0.96 0,0 0.01,0 0.02,0 0.54,0.01 0.97,0.46 0.96,1 -0.04,1.6 6.07,9.02 9.97,11.15 0.48,0.25 0.66,0.85 0.4,1.33 -0.18,0.33 -0.52,0.51 -0.87,0.51z"/>
  <path class="fil1" d="M35.44 57.45c0,0.01 0,0.03 0,0.05 0,-0.02 0,-0.03 0,-0.05zm0.98 0.98c-0.52,0 -0.95,-0.4 -0.98,-0.91 -0.13,-0.66 -1.67,-4.52 -1.98,-5.03 -0.31,-0.52 -0.66,-1.15 -1.04,-2.21 -0.39,-1.09 -0.56,-2.57 -0.48,-4.16 0.11,-1.91 0.48,-3.98 0.83,-5.99 0.31,-1.76 0.63,-3.59 0.76,-5.21 0.03,-0.49 0.06,-0.98 0.09,-1.48 0.15,-2.81 0.32,-6 2.39,-9.3 0.29,-0.46 0.9,-0.6 1.35,-0.31 0.46,0.28 0.6,0.89 0.31,1.35 -1.8,2.87 -1.95,5.67 -2.09,8.37 -0.03,0.51 -0.06,1.02 -0.09,1.52 -0.13,1.72 -0.46,3.59 -0.78,5.41 -0.35,1.94 -0.7,3.96 -0.8,5.74 -0.08,1.32 0.06,2.55 0.36,3.39 0.34,0.95 0.63,1.46 0.87,1.86 0.29,0.47 2.26,5.12 2.26,5.98 0,0.54 -0.44,0.98 -0.98,0.98z"/>
  <path class="fil1" d="M38.75 53.4c-0.1,0 -0.21,-0.01 -0.31,-0.05 -0.07,0 -0.15,-0.01 -0.23,-0.03 -3.04,-0.66 -5.23,-4.4 -6.18,-7.4 -0.16,-0.51 0.12,-1.07 0.64,-1.23 0.52,-0.16 1.07,0.12 1.23,0.64 0.82,2.57 2.61,5.53 4.64,6.05 0.25,-0.01 0.46,0.07 0.63,0.15 0.49,0.23 0.7,0.82 0.47,1.31 -0.17,0.35 -0.52,0.56 -0.89,0.56z"/>
  <path class="fil1" d="M43.78 49.95c-4.09,0 -9,-5.87 -10.32,-9.06 -0.14,-0.34 0.02,-0.72 0.36,-0.86 0.33,-0.13 0.71,0.02 0.85,0.36 1.19,2.9 5.76,8.25 9.11,8.25 0.36,0 0.66,0.29 0.66,0.65 0,0.36 -0.3,0.66 -0.66,0.66z"/>
  <path class="fil1" d="M43.83 45.67c-3.64,0 -9.15,-7.23 -10.2,-10.64 -0.16,-0.52 0.13,-1.07 0.65,-1.23 0.51,-0.16 1.07,0.13 1.23,0.65 1,3.27 6.07,9.25 8.32,9.25 0.55,0 0.99,0.44 0.99,0.98 0,0.55 -0.44,0.99 -0.99,0.99z"/>
  <path class="fil1" d="M34.88 71.44c-0.29,0 -0.58,-0.13 -0.77,-0.38 -1.12,-1.42 -1.44,-2.86 -1.58,-4.59l-0.05 -0.67c-0.08,-1.04 -0.11,-1.43 -0.45,-2.63 -0.06,-0.2 -0.1,-0.39 -0.13,-0.56 -0.25,-1.39 -0.09,-2.39 0.08,-3.37 0.1,-0.61 0.21,-1.25 0.21,-2.02 0,-0.3 -0.04,-0.65 -0.08,-1.01 -0.08,-0.69 -0.16,-1.4 -0.01,-2.08 0.31,-1.37 0.94,-2.32 1.88,-2.81 0.49,-0.24 1.08,-0.06 1.33,0.43 0.25,0.48 0.06,1.07 -0.43,1.32 -0.4,0.21 -0.69,0.7 -0.86,1.49 -0.08,0.35 -0.02,0.9 0.04,1.42 0.05,0.41 0.1,0.83 0.09,1.25 0,0.93 -0.12,1.68 -0.23,2.34 -0.16,0.91 -0.28,1.64 -0.09,2.7 0.02,0.11 0.05,0.23 0.09,0.37 0.4,1.38 0.44,1.93 0.52,3.02l0.05 0.65c0.12,1.45 0.35,2.49 1.17,3.54 0.33,0.43 0.25,1.05 -0.17,1.38 -0.18,0.14 -0.4,0.21 -0.61,0.21z"/>
  <path class="fil1" d="M57.25 101.34c-5.7,0 -11.3,-2.89 -15.77,-8.16 -3.89,-4.57 -5,-7.6 -5.69,-11.58 -0.59,-3.39 -0.51,-5.93 -0.44,-8.17 0.01,-0.37 0.02,-0.73 0.03,-1.08 0.02,-0.94 -0.08,-1.91 -0.17,-2.94 -0.14,-1.42 -0.28,-2.9 -0.09,-4.3 0.08,-0.66 0.23,-1.33 0.38,-2.04 0.26,-1.17 0.52,-2.38 0.52,-3.61 0,-0.54 0.44,-0.98 0.98,-0.98 0.54,0 0.98,0.44 0.98,0.98 0,1.44 -0.29,2.81 -0.56,4.03 -0.14,0.66 -0.28,1.3 -0.35,1.88 -0.16,1.18 -0.04,2.48 0.09,3.86 0.1,1.03 0.2,2.11 0.18,3.16 -0.01,0.36 -0.02,0.73 -0.03,1.1 -0.07,2.25 -0.13,4.58 0.42,7.78 0.64,3.72 1.63,6.39 5.25,10.64 4.09,4.82 9.16,7.47 14.27,7.47 6.94,0 15.81,-8.49 18.52,-15.52 1.65,-4.29 2.72,-8.01 3.59,-12.42 0.11,-0.53 0.14,-1.43 0.18,-2.3 0.04,-1.13 0.09,-2.19 0.27,-2.9 0.51,-2.04 0.97,-3.49 1.39,-4.77 0.62,-1.96 1.17,-3.65 1.72,-6.89 0.09,-0.53 0.59,-0.89 1.13,-0.8 0.53,0.09 0.89,0.6 0.8,1.13 -0.57,3.37 -1.13,5.13 -1.78,7.16 -0.42,1.31 -0.86,2.67 -1.36,4.65 -0.13,0.52 -0.17,1.57 -0.21,2.5 -0.04,0.99 -0.08,1.92 -0.21,2.59 -0.89,4.54 -1.99,8.35 -3.69,12.76 -2.99,7.76 -12.53,16.77 -20.35,16.77z"/>
  <path class="fil1" d="M59.34 113.91c-0.52,0 -0.93,-0.28 -1.29,-0.53 -0.3,-0.2 -0.61,-0.41 -1.02,-0.53 -3.42,-0.95 -13.88,-8.11 -16.5,-10.98 -4.75,-5.22 -7.99,-12.91 -4.52,-18.35 0.29,-0.46 0.9,-0.59 1.35,-0.3 0.46,0.29 0.6,0.9 0.3,1.36 -2.91,4.56 0.08,11.3 4.32,15.96 2.37,2.6 12.54,9.57 15.57,10.42 0.73,0.2 1.24,0.55 1.61,0.8 0.02,0.01 0.05,0.03 0.07,0.05 0.15,-0.25 0.4,-0.75 0.8,-1.75 0.48,-1.19 1.25,-2.44 2.07,-3.76 1.68,-2.7 3.59,-5.77 2.87,-8.58 -0.13,-0.52 0.19,-1.06 0.71,-1.19 0.53,-0.13 1.06,0.18 1.2,0.71 0.92,3.62 -1.22,7.06 -3.11,10.1 -0.77,1.24 -1.5,2.42 -1.91,3.45 -0.72,1.81 -1.32,3.09 -2.49,3.11 -0.01,0.01 -0.02,0.01 -0.03,0.01z"/>
  <path class="fil1" d="M22.49 95.52c-0.27,0 -0.53,-0.11 -0.73,-0.32 -0.37,-0.4 -0.34,-1.02 0.06,-1.39 0.1,-0.1 0.46,-0.53 0.54,-0.65 0.91,-1.92 4.27,-4.01 7.82,-6.22 2.44,-1.51 4.96,-3.08 5.8,-4.16 0.33,-0.42 0.95,-0.5 1.38,-0.17 0.43,0.34 0.5,0.96 0.17,1.38 -1.05,1.35 -3.61,2.94 -6.31,4.62 -2.86,1.78 -6.42,4 -7.12,5.44 -0.16,0.34 -0.79,1.06 -0.95,1.21 -0.19,0.17 -0.43,0.26 -0.66,0.26z"/>
  <path class="fil1" d="M93.15 83.23c-0.11,0 -0.23,-0.03 -0.35,-0.07 -0.52,-0.2 -1.84,-0.43 -2.9,-0.61 -0.64,-0.11 -1.22,-0.21 -1.64,-0.3 -4.37,-0.95 -6.43,-0.53 -8.08,-0.19 -0.88,0.19 -1.72,0.36 -2.69,0.24 -0.53,-0.07 -0.91,-0.56 -0.84,-1.1 0.07,-0.54 0.55,-0.92 1.1,-0.85 0.63,0.08 1.22,-0.04 2.04,-0.21 1.73,-0.36 4.11,-0.85 8.89,0.19 0.39,0.08 0.95,0.18 1.55,0.28 1.27,0.22 2.58,0.45 3.28,0.71 0.5,0.2 0.76,0.77 0.56,1.27 -0.15,0.4 -0.52,0.64 -0.92,0.64z"/>
  <path class="fil1" d="M83.05 111.93c-0.25,0 -0.5,-0.1 -0.69,-0.29 -0.39,-0.38 -0.78,-0.74 -1.2,-1.13 -0.51,-0.48 -1.05,-0.98 -1.64,-1.56 -1.69,-1.68 -3.46,-2.81 -5.16,-3.91 -3.1,-1.98 -6.02,-3.85 -7.77,-8.46 -0.19,-0.51 0.07,-1.08 0.58,-1.27 0.51,-0.19 1.07,0.06 1.26,0.57 1.51,4 4.05,5.63 6.99,7.51 1.79,1.15 3.65,2.34 5.49,4.16 0.56,0.57 1.09,1.06 1.59,1.52 0.43,0.4 0.84,0.78 1.24,1.17 0.39,0.38 0.39,1 0.01,1.39 -0.19,0.2 -0.45,0.3 -0.7,0.3z"/>
  <path class="fil1" d="M84.36 104.42c-0.24,0 -0.47,-0.09 -0.66,-0.26 -0.2,-0.18 -0.37,-0.39 -0.51,-0.62 -1.3,-2.15 -3.92,-3.97 -6.23,-5.57 -2.98,-2.07 -5.56,-3.85 -5.5,-6.27 0.01,-0.54 0.45,-0.96 1,-0.96 0.55,0.02 0.98,0.47 0.96,1.01 -0.03,1.36 2.35,3.01 4.66,4.61 2.47,1.71 5.27,3.65 6.79,6.17 0.04,0.06 0.1,0.13 0.15,0.18 0.4,0.36 0.43,0.99 0.07,1.39 -0.2,0.21 -0.46,0.32 -0.73,0.32z"/>
  <path class="fil1" d="M34.88 108.87c-0.3,0 -0.59,-0.14 -0.79,-0.4 -0.8,-1.08 -0.99,-1.74 -1.14,-2.27 -0.21,-0.73 -0.41,-1.42 -3.31,-4.11 -4.07,-3.76 -4.08,-5.71 -3.75,-9.11 0.08,-0.76 0.17,-1.63 0.19,-2.62 0.01,-0.54 0.44,-0.97 1,-0.96 0.54,0.01 0.97,0.46 0.96,1 -0.02,1.07 -0.11,1.97 -0.19,2.77 -0.29,2.89 -0.42,4.21 3.12,7.48 3.08,2.84 3.53,3.83 3.87,5.01 0.13,0.45 0.24,0.85 0.83,1.64 0.32,0.43 0.23,1.05 -0.2,1.37 -0.18,0.13 -0.38,0.2 -0.59,0.2z"/>
  <path class="fil2" d="M51.62 61.12c0.82,-0.04 1.52,0.6 1.56,1.42 0.04,0.83 -0.6,1.53 -1.42,1.57 -0.83,0.04 -1.53,-0.6 -1.57,-1.43 -0.04,-0.82 0.6,-1.52 1.43,-1.56z"/>
  <path class="fil2" d="M71.26 64.62c0.82,-0.04 1.52,0.59 1.56,1.42 0.04,0.82 -0.6,1.52 -1.42,1.56 -0.83,0.04 -1.53,-0.59 -1.57,-1.42 -0.04,-0.82 0.6,-1.53 1.43,-1.56z"/>
  <path class="fil1" d="M50.64 62.11c-0.12,0 -0.25,-0.03 -0.36,-0.1 -0.11,-0.08 -0.38,-0.16 -0.65,-0.24 -0.96,-0.3 -2.57,-0.8 -2.57,-2.73 0,-0.36 0.29,-0.65 0.65,-0.65 0.37,0 0.66,0.29 0.66,0.65 0,0.9 0.62,1.16 1.65,1.47 0.36,0.12 0.71,0.22 0.98,0.4 0.3,0.19 0.39,0.6 0.19,0.9 -0.13,0.2 -0.33,0.3 -0.55,0.3z"/>
  <path class="fil1" d="M74.54 66.37c-0.38,0 -0.81,-0.06 -1.32,-0.18 -0.35,-0.08 -0.57,-0.44 -0.48,-0.79 0.08,-0.35 0.44,-0.57 0.79,-0.48 1.65,0.39 1.88,-0.07 2.22,-0.69 0.17,-0.32 0.57,-0.45 0.89,-0.28 0.31,0.18 0.44,0.57 0.27,0.89 -0.49,0.91 -1.11,1.53 -2.37,1.53z"/>
  <path class="fil1" d="M63.77 72.74c-0.36,0 -0.65,-0.29 -0.66,-0.64l-0.01 -0.44c-0.03,-1.06 -0.07,-2.65 0.26,-4.05 0.09,-0.36 0.44,-0.57 0.79,-0.49 0.35,0.08 0.57,0.44 0.49,0.79 -0.3,1.24 -0.26,2.67 -0.23,3.71l0.01 0.45c0.01,0.36 -0.28,0.66 -0.64,0.67l-0.01 0z"/>
  <path class="fil1" d="M65.86 43.03c-0.64,0 -1.3,-0.14 -2.03,-0.54 -0.73,-0.39 -1.32,-1.28 -1.49,-2.27 -0.15,-0.81 0,-1.52 0.42,-2 0.24,-0.28 0.66,-0.3 0.93,-0.06 0.27,0.24 0.3,0.65 0.06,0.92 -0.15,0.17 -0.2,0.52 -0.12,0.91 0.1,0.59 0.44,1.14 0.82,1.35 1,0.53 1.7,0.44 2.96,0.12 0.35,-0.09 0.71,0.12 0.8,0.47 0.09,0.35 -0.12,0.71 -0.47,0.8 -0.66,0.17 -1.26,0.3 -1.88,0.3z"/>
 </g>
</svg>
