<?xml version="1.0" encoding="UTF-8"?>
<!DOCTYPE svg PUBLIC "-//W3C//DTD SVG 1.1//EN" "http://www.w3.org/Graphics/SVG/1.1/DTD/svg11.dtd">
<!-- Creator: CorelDRAW 2018 (64-Bit) -->
<svg xmlns="http://www.w3.org/2000/svg" xml:space="preserve" width="845px" height="845px" version="1.1" style="shape-rendering:geometricPrecision; text-rendering:geometricPrecision; image-rendering:optimizeQuality; fill-rule:evenodd; clip-rule:evenodd"
viewBox="0 0 117.19 117.19"
 xmlns:xlink="http://www.w3.org/1999/xlink">
 <defs>
  <style type="text/css">
   <![CDATA[
    .fil0 {fill:none}
    .fil2 {fill:black}
    .fil1 {fill:black;fill-rule:nonzero}
   ]]>
  </style>
 </defs>
 <g id="Слой_x0020_1">
  <metadata id="CorelCorpID_0Corel-Layer"/>
  <rect class="fil0" width="117.19" height="117.19"/>
 </g>
 <g id="_1">
  <metadata id="CorelCorpID_1Corel-Layer"/>
  <path class="fil1" d="M56.31 43.29c-0.19,0 -0.38,-0.06 -0.55,-0.17 -2.17,-1.46 -3.84,-1.98 -6.87,-2.16 -1.55,-0.09 -3.59,0.02 -6.42,0.33 -0.54,0.06 -1.03,-0.33 -1.09,-0.87 -0.06,-0.54 0.33,-1.03 0.87,-1.09 2.99,-0.33 5.07,-0.43 6.76,-0.33 2.94,0.17 5.06,0.62 7.84,2.49 0.46,0.3 0.58,0.91 0.27,1.36 -0.19,0.28 -0.5,0.44 -0.81,0.44z"/>
  <path class="fil1" d="M63.91 44.75c-0.12,0 -0.25,-0.02 -0.37,-0.07 -0.5,-0.2 -0.74,-0.78 -0.54,-1.28 1.87,-4.58 11.12,-6.34 15.65,-4.81 0.51,0.18 0.78,0.74 0.61,1.25 -0.17,0.51 -0.73,0.79 -1.25,0.61 -4.05,-1.37 -11.84,0.36 -13.19,3.69 -0.15,0.38 -0.52,0.61 -0.91,0.61z"/>
  <path class="fil1" d="M53.53 47.27c-0.35,0 -0.69,-0.19 -0.87,-0.52 -0.97,-1.82 -2.81,-2.16 -4.16,-2.12 -1.71,0.04 -3.23,1.15 -3.63,1.53 -0.39,0.37 -1.01,0.36 -1.38,-0.03 -0.38,-0.39 -0.37,-1.01 0.02,-1.39 0.72,-0.69 2.68,-2.02 4.94,-2.08 2.7,-0.07 4.81,1.05 5.94,3.16 0.26,0.48 0.08,1.08 -0.4,1.33 -0.15,0.08 -0.3,0.12 -0.46,0.12z"/>
  <path class="fil1" d="M66.61 47.11c-0.22,0 -0.44,-0.07 -0.62,-0.22 -0.42,-0.34 -0.48,-0.96 -0.14,-1.38 2.95,-3.6 6.56,-4.19 10.73,-1.76 0.14,0.08 0.24,0.14 0.32,0.17 0.49,0.23 0.71,0.81 0.49,1.3 -0.22,0.5 -0.8,0.72 -1.3,0.5 -0.11,-0.05 -0.28,-0.15 -0.5,-0.27 -1.44,-0.85 -4.84,-2.82 -8.22,1.3 -0.19,0.24 -0.48,0.36 -0.76,0.36z"/>
  <path class="fil1" d="M60.31 62.79c-0.62,0 -1.28,-0.21 -1.96,-0.61 -0.49,-0.29 -0.75,-0.49 -0.92,-0.63 -0.05,-0.04 -0.08,-0.07 -0.13,-0.1 -0.11,-0.05 -0.76,-0.14 -1.07,-0.18 -0.47,-0.06 -1.9,-0.25 -2.19,-1.68 -0.1,-0.54 0.24,-1.05 0.77,-1.16 0.54,-0.11 1.05,0.24 1.16,0.77l0 0.02c0,-0.02 0.1,0.05 0.52,0.1 1.34,0.18 1.6,0.25 2.16,0.69 0.14,0.11 0.33,0.25 0.7,0.48 0.33,0.19 0.92,0.48 1.28,0.24 0.55,-0.37 0.82,-0.62 1.03,-0.83 0.17,-0.17 0.35,-0.34 0.6,-0.48 0.6,-0.34 1.18,-0.31 1.61,-0.29 0.09,0 0.18,0.01 0.28,0.01 0.42,0 0.82,-0.42 0.94,-0.8 0.06,-0.24 -0.01,-0.29 -0.06,-0.32 -0.46,-0.29 -0.6,-0.89 -0.31,-1.35 0.29,-0.46 0.89,-0.6 1.35,-0.31 0.85,0.53 1.2,1.5 0.9,2.52 -0.31,1.11 -1.38,2.22 -2.82,2.22 -0.13,0 -0.26,0 -0.38,-0.01 -0.28,-0.01 -0.45,-0.02 -0.54,0.04 -0.03,0.01 -0.12,0.1 -0.2,0.17 -0.24,0.24 -0.61,0.6 -1.32,1.07 -0.42,0.28 -0.9,0.42 -1.4,0.42z"/>
  <path class="fil1" d="M60.73 71.11c-0.05,0 -0.1,0 -0.15,0 -0.27,-0.02 -1.04,-0.17 -1.53,-0.48 -2.05,-1.35 -2.72,-1.25 -3.83,-1.1 -0.74,0.11 -1.64,0.23 -3.01,0.04 -0.53,-0.08 -0.91,-0.57 -0.83,-1.11 0.07,-0.54 0.57,-0.91 1.11,-0.84 1.09,0.16 1.78,0.06 2.45,-0.03 1.57,-0.22 2.7,-0.24 5.19,1.39 0.1,0.06 0.45,0.16 0.59,0.17 0.09,-0.01 0.42,-0.3 0.64,-0.52 0.52,-0.51 1.23,-1.21 2.4,-1.49 0.69,-0.15 1.75,-0.08 3.3,0.04 0.63,0.05 1.22,0.09 1.6,0.09 0.54,0 0.98,0.44 0.98,0.99 0,0.54 -0.44,0.98 -0.98,0.98 -0.46,0 -1.09,-0.05 -1.75,-0.1 -0.9,-0.07 -2.27,-0.18 -2.7,-0.08 -0.63,0.15 -1.04,0.55 -1.47,0.97 -0.49,0.49 -1.1,1.08 -2.01,1.08z"/>
  <path class="fil1" d="M60.1 74.3c-1.7,0 -3.43,-0.51 -5.12,-1.53 -0.46,-0.28 -0.61,-0.89 -0.33,-1.35 0.28,-0.46 0.89,-0.61 1.35,-0.33 2.96,1.79 5.83,1.67 8.54,-0.34 0.43,-0.32 1.05,-0.23 1.37,0.2 0.33,0.44 0.24,1.05 -0.2,1.38 -1.76,1.31 -3.67,1.97 -5.61,1.97z"/>
  <path class="fil1" d="M61.18 5.49c0,0 0,0 0,0zm-0.15 0.09c0,0 0,0 0,0 0,0 0,0 0,0zm-25.9 48.2l25.9 -48.2zm-34.27 93.34c-0.47,0 -0.89,-0.34 -0.97,-0.82 -0.09,-0.53 0.27,-1.04 0.8,-1.13 5.01,-0.86 14.34,-11.52 14.9,-17.03 0.54,-5.34 -1.3,-11.2 -2.64,-15.48l-0.09 -0.3c-0.11,-0.34 -0.21,-0.67 -0.32,-0.99 -0.24,-0.77 -0.46,-1.46 -0.62,-2.04 -3.48,-0.29 -4.23,-2.53 -4.38,-3.25 -0.35,-1.64 0.39,-3.42 1.72,-4.24 -0.3,-3.72 0.18,-6.87 0.69,-10.2 0.19,-1.19 0.38,-2.42 0.54,-3.72 0.47,-3.87 2.1,-6.53 3.68,-9.1 0.78,-1.28 1.6,-2.6 2.28,-4.09 2.01,-4.39 5.69,-6.64 11.24,-6.87 2.02,-0.09 3.11,-1.3 3.39,-1.67 0.88,-1.14 1.18,-4.65 1.42,-7.47 0.37,-4.22 0.6,-6.27 1.94,-6.78 0.51,-0.19 1.07,0.07 1.26,0.58 0.18,0.46 -0.02,0.98 -0.45,1.21 -0.4,0.58 -0.63,3.33 -0.79,5.16 -0.29,3.39 -0.59,6.9 -1.82,8.5 -1.11,1.44 -2.93,2.35 -4.86,2.43 -4.81,0.21 -7.84,2.03 -9.55,5.73 -0.73,1.59 -1.57,2.97 -2.39,4.3 -1.53,2.5 -2.98,4.86 -3.4,8.31 -0.17,1.32 -0.36,2.57 -0.54,3.78 -0.52,3.4 -0.97,6.33 -0.67,9.88 0.04,0.45 -0.19,1.06 -0.43,1.35 -0.1,0.11 -0.22,0.2 -0.36,0.26 -0.71,0.32 -1.17,1.37 -0.98,2.24 0.23,1.12 1.39,1.73 3.25,1.73 0.48,0 0.89,0.35 0.97,0.82 0.09,0.53 0.4,1.51 0.73,2.55 0.11,0.32 0.22,0.66 0.32,1l0.1 0.3c1.39,4.44 3.3,10.53 2.72,16.27 -0.67,6.52 -10.55,17.74 -16.52,18.76 -0.06,0.01 -0.12,0.02 -0.17,0.02z"/>
  <path class="fil1" d="M59.94 82.93c-2.27,0 -4.37,-0.73 -6.62,-1.66 -4.66,-1.91 -7.88,-3.6 -10.12,-9.57 -0.2,-0.51 0.06,-1.08 0.57,-1.27 0.51,-0.19 1.07,0.07 1.27,0.57 1.9,5.07 4.32,6.53 9.02,8.46 4.11,1.68 6.94,2.5 11.61,-0.33 0.67,-0.41 1.57,-0.84 2.53,-1.29 0.81,-0.38 1.65,-0.78 2.46,-1.21 5.62,-3 7.66,-10.67 8.39,-16.57 0.22,-1.77 0.57,-3.18 0.91,-4.54 0.17,-0.68 0.33,-1.31 0.47,-1.98 1.23,-5.88 0.39,-10.79 -1.26,-16.35 -0.26,-0.91 -0.55,-1.83 -0.86,-2.77 -1.65,-5.11 -4.74,-8.84 -8.94,-10.78 -2.27,-1.05 -3.61,-1.16 -5.3,-1.29 -0.93,-0.07 -1.97,-0.16 -3.26,-0.41 -0.65,-0.13 -1.15,-0.31 -1.53,-0.54 -0.47,-0.27 -0.62,-0.88 -0.35,-1.34 0.28,-0.47 0.88,-0.62 1.35,-0.35 0.11,0.07 0.37,0.19 0.92,0.3 1.17,0.23 2.11,0.31 3.02,0.38 1.74,0.14 3.39,0.27 5.98,1.47 4.71,2.18 8.16,6.31 9.98,11.96 0.31,0.95 0.61,1.89 0.88,2.81 1.5,5.06 2.69,10.66 1.29,17.31 -0.15,0.71 -0.32,1.39 -0.48,2.05 -0.33,1.31 -0.67,2.66 -0.87,4.31 -0.78,6.37 -3.05,14.66 -9.42,18.06 -0.84,0.46 -1.74,0.88 -2.54,1.26 -0.91,0.43 -1.77,0.84 -2.35,1.19 -2.55,1.54 -4.72,2.12 -6.75,2.12z"/>
  <path class="fil1" d="M80.45 60.17c-0.54,0 -0.98,-0.44 -0.98,-0.98 0,-0.55 0.44,-0.99 0.98,-0.99 1.02,0 1.1,-0.18 1.45,-0.96 0.19,-0.44 0.44,-0.99 0.9,-1.53 0.44,-0.51 0.59,-1.3 0.35,-1.88 -0.23,-0.52 -0.74,-0.82 -1.52,-0.87 -0.54,-0.04 -0.95,-0.5 -0.92,-1.05 0.04,-0.54 0.5,-0.95 1.05,-0.91 1.52,0.1 2.69,0.85 3.2,2.07 0.53,1.27 0.26,2.85 -0.67,3.93 -0.27,0.32 -0.43,0.67 -0.6,1.04 -0.39,0.9 -0.94,2.13 -3.24,2.13z"/>
  <path class="fil1" d="M84.21 55.87c-0.12,0 -0.24,-0.03 -0.36,-0.07 -0.5,-0.2 -0.75,-0.77 -0.55,-1.28 4.57,-11.63 7.19,-28.48 -6.32,-42.65 -3.7,-3.88 -8.19,-5.7 -16.03,-6.5 -0.54,-0.06 -0.93,-0.54 -0.88,-1.08 0.06,-0.54 0.54,-0.94 1.08,-0.88 8.25,0.85 13.25,2.9 17.25,7.1 14.23,14.92 11.51,32.56 6.73,44.73 -0.16,0.39 -0.53,0.63 -0.92,0.63z"/>
  <path class="fil1" d="M34.53 55.54c-0.22,0 -0.44,-0.07 -0.61,-0.22 -0.09,-0.06 -0.31,-0.2 -0.56,-0.36 -0.86,-0.57 -1.06,-0.7 -1.17,-0.8 -4.4,-3.9 -2.78,-16.74 -1.86,-19.46 0.38,-1.12 0.33,-1.69 0.23,-2.1 -2.23,-9.43 3.02,-16 8.6,-21.92 4.86,-5.17 10.66,-7.42 19.38,-7.54 0.55,-0.01 0.99,0.42 0.99,0.97 0.01,0.54 -0.42,0.98 -0.97,0.99 -8.24,0.12 -13.45,2.12 -17.97,6.93 -6.52,6.92 -9.93,12.43 -8.12,20.12 0.16,0.64 0.26,1.58 -0.28,3.18 -0.87,2.58 -2.14,14.31 1.31,17.36 0.07,0.05 0.61,0.41 0.94,0.62 0.78,0.52 0.78,0.52 0.9,0.69 0.31,0.45 0.19,1.06 -0.25,1.37 -0.17,0.11 -0.37,0.17 -0.56,0.17z"/>
  <path class="fil1" d="M31.6 33.8c-0.07,0 -0.14,0 -0.2,-0.02 -0.53,-0.1 -0.88,-0.62 -0.77,-1.16 2.42,-11.94 10.55,-20.86 23.53,-25.81 0.51,-0.19 1.07,0.07 1.27,0.57 0.19,0.51 -0.06,1.08 -0.57,1.27 -8.59,3.27 -19.43,10.15 -22.3,24.36 -0.1,0.47 -0.51,0.79 -0.96,0.79z"/>
  <path class="fil1" d="M30.7 41.74c-0.01,0 -0.02,0 -0.04,0 -0.36,-0.03 -0.63,-0.34 -0.61,-0.7 0.14,-2.22 1.96,-6.17 2.94,-8.29 0.22,-0.48 0.38,-0.84 0.47,-1.04 4.63,-11.45 7.4,-14.43 19.79,-21.3 0.31,-0.17 0.71,-0.06 0.89,0.26 0.17,0.31 0.06,0.71 -0.26,0.89 -12.16,6.74 -14.68,9.44 -19.21,20.64 -0.09,0.21 -0.26,0.6 -0.49,1.09 -0.88,1.9 -2.7,5.86 -2.82,7.83 -0.03,0.35 -0.31,0.62 -0.66,0.62z"/>
  <path class="fil1" d="M33.59 54.06c-0.36,0 -0.66,-0.3 -0.66,-0.66 0,-13.69 0.52,-17.07 6.95,-28.94 0.17,-0.32 0.57,-0.44 0.89,-0.26 0.32,0.17 0.43,0.57 0.26,0.89 -6.33,11.67 -6.79,14.7 -6.79,28.31 0,0.36 -0.29,0.66 -0.65,0.66z"/>
  <path class="fil1" d="M84.92 53.13c-0.08,0 -0.16,-0.01 -0.25,-0.03 -0.52,-0.14 -0.84,-0.68 -0.7,-1.2 0.14,-0.53 0.27,-2.41 -0.35,-9.06l-0.02 -0.17c-1.27,-13.71 -6.8,-20.44 -19.7,-23.97 -0.53,-0.15 -0.84,-0.69 -0.69,-1.21 0.14,-0.53 0.68,-0.84 1.21,-0.69 13.67,3.75 19.79,11.19 21.14,25.69l0.02 0.17c0.51,5.45 0.6,8.54 0.29,9.73 -0.11,0.44 -0.51,0.74 -0.95,0.74z"/>
  <path class="fil1" d="M87.7 42.9c-0.3,0 -0.58,-0.21 -0.64,-0.52 -0.17,-0.82 -0.37,-1.88 -0.58,-3.02 -0.51,-2.67 -1.13,-6 -1.66,-7.5 -2.21,-6.3 -5.85,-10.77 -11.44,-14.08 -3.17,-1.88 -5.45,-2.54 -8.33,-3.38 -0.86,-0.26 -1.79,-0.53 -2.81,-0.85 -0.34,-0.11 -0.53,-0.48 -0.42,-0.82 0.11,-0.35 0.47,-0.54 0.82,-0.43 1.01,0.32 1.92,0.59 2.78,0.84 2.97,0.87 5.31,1.55 8.62,3.51 5.88,3.48 9.69,8.17 12.02,14.77 0.56,1.6 1.17,4.84 1.7,7.7 0.22,1.13 0.41,2.18 0.58,2.99 0.08,0.35 -0.15,0.7 -0.5,0.77 -0.05,0.01 -0.1,0.02 -0.14,0.02z"/>
  <path class="fil1" d="M86.98 28.91c-0.37,0 -0.72,-0.21 -0.89,-0.56 -5.02,-10.66 -10.21,-14.94 -22.24,-18.33 -0.52,-0.14 -0.83,-0.69 -0.68,-1.21 0.15,-0.52 0.69,-0.83 1.21,-0.68 12.54,3.53 18.24,8.23 23.49,19.38 0.23,0.49 0.02,1.08 -0.47,1.31 -0.14,0.06 -0.28,0.09 -0.42,0.09z"/>
  <path class="fil1" d="M80.52 103.46c-0.23,0 -0.46,-0.07 -0.65,-0.23 -10.72,-9.28 -9.37,-15.49 -6.67,-27.87l0.12 -0.52c0.11,-0.53 0.63,-0.87 1.17,-0.75 0.53,0.11 0.86,0.64 0.75,1.17l-0.12 0.51c-2.69,12.35 -3.8,17.46 6.04,25.97 0.41,0.35 0.45,0.97 0.1,1.38 -0.2,0.23 -0.47,0.34 -0.74,0.34z"/>
  <g>
   <path class="fil1" d="M72.57 110.48c0,0 0,0 0,0 0,0 0,0 0,0zm0 0l0 0 0 0zm-2.97 1.93c-0.99,0.01 -1.91,-0.2 -2.29,-0.86 -0.63,-1.09 -0.65,-1.9 -0.67,-2.56 -0.03,-0.78 -0.05,-1.4 -1.35,-2.84 -0.11,-0.12 -0.22,-0.26 -0.33,-0.39 -0.26,-0.33 -0.49,-0.61 -0.81,-0.74 -0.5,-0.2 -0.74,-0.78 -0.54,-1.28 0.2,-0.5 0.78,-0.75 1.28,-0.54 0.8,0.32 1.26,0.9 1.6,1.33 0.09,0.1 0.17,0.2 0.25,0.3 1.67,1.83 1.83,2.9 1.86,4.1 0.02,0.52 0.03,0.9 0.32,1.47 0.36,0.07 1.17,0.04 1.98,-0.07 0,-0.01 0,-0.02 0,-0.03 0.13,-1.12 0.39,-3.47 -0.82,-5.89 -0.78,-1.55 -2.76,-3.29 -4.35,-4.68 -0.94,-0.83 -1.68,-1.48 -2.11,-2.02 -0.76,-0.96 -4.09,-3.04 -7.75,-4.84 -1.43,-0.7 -2.8,-1.17 -4.12,-1.62 -1.56,-0.54 -3.04,-1.04 -4.42,-1.87 -1.26,-0.76 -2.38,-1.73 -3.46,-2.68 -1.02,-0.88 -1.98,-1.72 -2.95,-2.28 -0.47,-0.27 -0.63,-0.87 -0.36,-1.34 0.27,-0.47 0.87,-0.63 1.34,-0.36 1.14,0.66 2.22,1.59 3.26,2.5 1.02,0.89 2.07,1.8 3.18,2.47 1.2,0.72 2.58,1.2 4.05,1.7 1.38,0.47 2.81,0.96 4.35,1.72 2.53,1.25 7.15,3.78 8.42,5.38 0.32,0.4 1.07,1.06 1.87,1.76 1.72,1.51 3.86,3.38 4.81,5.28 1.47,2.94 1.16,5.68 1.02,6.99 -0.02,0.16 -0.04,0.3 -0.05,0.39 0.05,0.18 0.04,0.36 -0.01,0.54 -0.1,0.34 -0.39,0.59 -0.73,0.67 -0.69,0.14 -1.61,0.29 -2.47,0.29z"/>
  </g>
  <path class="fil1" d="M60.99 101.44c-0.14,0 -0.29,-0.03 -0.43,-0.1 -0.99,-0.49 -1.52,-1.04 -2.04,-1.57 -0.95,-0.98 -2.02,-2.09 -6.79,-3.52 -6.96,-2.1 -8.2,-3.29 -10.15,-5.58 -0.65,-0.77 -1.38,-1.63 -2.58,-2.72 -0.4,-0.37 -0.43,-0.99 -0.06,-1.39 0.36,-0.4 0.99,-0.43 1.39,-0.07 1.28,1.18 2.1,2.14 2.75,2.9 1.67,1.97 2.5,2.96 9.22,4.97 5.26,1.58 6.57,2.94 7.63,4.04 0.48,0.49 0.82,0.84 1.5,1.18 0.48,0.24 0.68,0.83 0.44,1.31 -0.17,0.35 -0.52,0.55 -0.88,0.55z"/>
  <path class="fil1" d="M63.92 96.23c0,0 -0.01,0.01 -0.01,0.01 0,0 0.01,0 0.01,-0.01zm0.47 1.85c-0.35,0 -0.69,-0.19 -0.87,-0.52 -0.25,-0.47 -0.08,-1.04 0.37,-1.31 0.4,-0.32 1.75,-2.25 2.74,-3.66 2.1,-3.01 3.68,-5.21 4.76,-6.01 0.43,-0.32 1.05,-0.23 1.37,0.2 0.33,0.44 0.24,1.05 -0.2,1.38 -0.91,0.67 -2.8,3.38 -4.32,5.55 -2.01,2.89 -2.77,3.93 -3.39,4.25 -0.15,0.08 -0.3,0.12 -0.46,0.12z"/>
  <path class="fil1" d="M68.77 101.48c-0.32,0 -0.63,-0.15 -0.82,-0.42 -0.3,-0.45 -0.19,-1.06 0.26,-1.37 0.93,-0.63 2.29,-4.48 2.95,-6.33 0.25,-0.71 0.47,-1.33 0.65,-1.78 0.2,-0.5 0.78,-0.75 1.28,-0.55 0.5,0.21 0.75,0.78 0.55,1.28 -0.18,0.43 -0.39,1.03 -0.63,1.71 -1.22,3.44 -2.34,6.37 -3.69,7.29 -0.17,0.12 -0.36,0.17 -0.55,0.17z"/>
  <path class="fil1" d="M63.64 99.31c-0.19,0 -0.33,0.1 -0.67,0.35l-0.27 0.19c-0.3,0.21 -0.64,0.52 -0.63,0.84 0.02,0.72 1.45,1.66 2.42,2.27 0.6,-0.45 1.79,-1.36 1.94,-1.5 0.11,-0.44 -1.53,-1.82 -2.25,-2.03 -0.26,-0.08 -0.41,-0.12 -0.54,-0.12zm0.85 5.13c-0.1,0 -0.19,-0.05 -0.32,-0.13 0,0 0,0 0,0l-0.19 -0.12c-1.42,-0.89 -3.18,-1.99 -3.22,-3.47 -0.02,-0.72 0.38,-1.37 1.18,-1.94l0.26 -0.18c0.74,-0.54 1.15,-0.79 2.35,-0.43 0.63,0.19 2.83,1.55 3.17,2.89 0.12,0.5 -0.01,0.98 -0.37,1.33 -0.04,0.05 -0.17,0.18 -1.32,1.06 -0.99,0.75 -1.31,0.99 -1.54,0.99z"/>
  <path class="fil1" d="M59.37 114.19c-0.1,0 -0.21,-0.01 -0.32,-0.03 -0.43,-0.07 -1.69,-0.72 -2.77,-1.59 -0.33,-0.27 -0.9,-0.56 -1.28,-0.74 -0.51,-0.26 -0.99,-0.49 -0.99,-1.13 0,-0.32 0,-0.32 2.99,-4.95 2.91,-4.5 3.12,-4.75 3.21,-4.85 0.35,-0.42 0.97,-0.47 1.38,-0.12 0.41,0.35 0.46,0.97 0.12,1.38 -0.36,0.47 -3.91,5.97 -5.32,8.17 0.38,0.2 0.8,0.44 1.13,0.71 0.82,0.67 1.62,1.06 1.88,1.17 0.69,-0.22 1.98,-3.42 2.34,-5.2 0.14,-0.7 1.03,-2.43 1.89,-2.97 0.45,-0.29 1.06,-0.15 1.35,0.3 0.29,0.46 0.16,1.07 -0.3,1.36 -0.28,0.2 -0.93,1.33 -1.01,1.7 -0.02,0.07 -1.41,6.79 -4.3,6.79z"/>
  <path class="fil2" d="M48.57 43.58c0.99,0 1.79,0.81 1.79,1.8 0,0.99 -0.8,1.79 -1.79,1.79 -1,0 -1.8,-0.8 -1.8,-1.79 0,-0.99 0.8,-1.8 1.8,-1.8z"/>
  <path class="fil2" d="M71.82 42.93c0.99,0 1.8,0.8 1.8,1.79 0,1 -0.81,1.8 -1.8,1.8 -0.99,0 -1.79,-0.8 -1.79,-1.8 0,-0.99 0.8,-1.79 1.79,-1.79z"/>
  <path class="fil1" d="M39.27 63.5c-0.44,0 -0.84,-0.3 -0.96,-0.74l-0.43 -1.66c-0.36,-1.39 -0.78,-2.65 -1.22,-3.99 -0.52,-1.61 -1.07,-3.27 -1.52,-5.18 -0.13,-0.53 0.2,-1.06 0.73,-1.18 0.52,-0.13 1.05,0.2 1.18,0.73 0.43,1.82 0.97,3.45 1.48,5.02 0.43,1.31 0.87,2.66 1.25,4.11l0.44 1.65c0.13,0.53 -0.18,1.07 -0.71,1.2 -0.08,0.03 -0.16,0.04 -0.24,0.04z"/>
  <path class="fil1" d="M62.81 50.91c-0.01,0 -0.01,0 -0.02,0 -0.36,-0.01 -0.65,-0.32 -0.64,-0.68 0.04,-1.28 0.13,-2.38 0.3,-3.68 0.05,-0.36 0.37,-0.62 0.74,-0.57 0.35,0.05 0.61,0.38 0.56,0.74 -0.16,1.25 -0.25,2.31 -0.29,3.55 -0.01,0.36 -0.3,0.64 -0.65,0.64z"/>
 </g>
</svg>
