<?xml version="1.0" encoding="UTF-8"?>
<!DOCTYPE svg PUBLIC "-//W3C//DTD SVG 1.1//EN" "http://www.w3.org/Graphics/SVG/1.1/DTD/svg11.dtd">
<!-- Creator: CorelDRAW 2018 (64-Bit) -->
<svg xmlns="http://www.w3.org/2000/svg" xml:space="preserve" width="845px" height="845px" version="1.1" style="shape-rendering:geometricPrecision; text-rendering:geometricPrecision; image-rendering:optimizeQuality; fill-rule:evenodd; clip-rule:evenodd"
viewBox="0 0 117.14 117.14"
 xmlns:xlink="http://www.w3.org/1999/xlink">
 <defs>
  <style type="text/css">
   <![CDATA[
    .fil0 {fill:none}
    .fil2 {fill:black}
    .fil1 {fill:black;fill-rule:nonzero}
   ]]>
  </style>
 </defs>
 <g id="Слой_x0020_1">
  <metadata id="CorelCorpID_0Corel-Layer"/>
  <rect class="fil0" width="117.14" height="117.14"/>
 </g>
 <g id="_1">
  <metadata id="CorelCorpID_1Corel-Layer"/>
  <path class="fil1" d="M34.07 50.43c0,0 0,0 0,0.01 0,-0.01 0,-0.01 0,-0.01zm-0.98 1.07c-0.51,0 -0.94,-0.38 -0.98,-0.9 -0.03,-0.34 0.1,-0.59 0.19,-0.76 0.01,-0.03 0.03,-0.06 0.05,-0.09 0.25,-2.94 6.73,-4.04 8.04,-4.04 2.23,0 3.07,0.61 3.93,1.41 0.26,0.24 0.51,0.47 0.85,0.67 0.46,0.28 0.61,0.88 0.33,1.35 -0.28,0.47 -0.88,0.62 -1.35,0.34 -0.51,-0.31 -0.86,-0.63 -1.16,-0.91 -0.6,-0.56 -0.97,-0.9 -2.6,-0.9 -1.77,0 -6.03,1.33 -6.09,2.25 -0.02,0.37 -0.17,0.65 -0.26,0.82 -0.09,0.41 -0.43,0.72 -0.87,0.76 -0.03,0 -0.06,0 -0.08,0z"/>
  <path class="fil1" d="M50.98 47.01c-0.15,0 -0.3,-0.04 -0.44,-0.11 -0.48,-0.24 -0.68,-0.83 -0.44,-1.32 0.91,-1.82 2.42,-2.94 4.6,-3.44 2.4,-0.54 6.67,-0.92 8.33,-0.23 0.08,0.01 0.19,0.04 0.32,0.06 0.45,0.1 1.11,0.23 1.26,0.27 0.53,0.14 0.84,0.68 0.71,1.2 -0.14,0.53 -0.68,0.84 -1.2,0.71 -0.14,-0.04 -0.75,-0.17 -1.17,-0.25 -0.53,-0.11 -0.53,-0.11 -0.65,-0.17 -0.79,-0.38 -4.41,-0.29 -7.17,0.33 -1.61,0.36 -2.62,1.11 -3.27,2.4 -0.17,0.35 -0.52,0.55 -0.88,0.55z"/>
  <path class="fil1" d="M53.66 50.79c-0.15,0 -0.31,-0.03 -0.45,-0.1 -0.48,-0.25 -0.67,-0.84 -0.43,-1.33 1.94,-3.77 6.31,-4.14 9.47,-3.31 0.42,0.1 0.44,0.1 0.88,0.1l0.23 0c0.54,0 0.98,0.44 0.98,0.98 0,0.55 -0.44,0.99 -0.98,0.99l-0.22 0c-0.54,0 -0.75,-0.01 -1.38,-0.17 -2.58,-0.68 -5.83,-0.43 -7.23,2.31 -0.17,0.34 -0.52,0.53 -0.87,0.53z"/>
  <path class="fil1" d="M35.95 54.78c-0.23,0 -0.46,-0.08 -0.65,-0.25 -0.4,-0.36 -0.44,-0.98 -0.08,-1.38 0.44,-0.49 0.69,-0.9 0.91,-1.27 0.6,-0.98 1.13,-1.66 2.88,-2.04 1.59,-0.35 3.75,-0.83 5.46,0.45 0.44,0.32 0.53,0.94 0.2,1.37 -0.32,0.44 -0.94,0.53 -1.37,0.2 -1,-0.74 -2.51,-0.4 -3.85,-0.11 -1.08,0.24 -1.21,0.45 -1.64,1.16 -0.26,0.41 -0.57,0.93 -1.12,1.55 -0.2,0.21 -0.47,0.32 -0.74,0.32z"/>
  <g>
   <path class="fil1" d="M56.03 61.6l0 0 0 0zm0 0c0,0 0,0 0,0 0,0 0,0 0,0zm0 0c0,0.01 0,0.01 0,0.01 0,0 0,0 0,-0.01zm-7.72 4.96l7.72 -4.96zm-7.72 6.92c-0.22,0 -0.44,-0.04 -0.64,-0.13 -4.37,-2.09 -5.16,-2.46 -4.24,-5.71 0.24,-0.83 0.53,-1.87 0.76,-3.38 0.38,-2.42 0.54,-4.85 0.47,-7.2 -0.12,-4.17 -0.82,-8.83 -1.02,-9.37 -0.17,-0.51 0.07,-1.08 0.57,-1.27 0.5,-0.19 1.06,0.04 1.26,0.53 0.35,0.85 1.03,6.04 1.15,10.05 0.08,2.47 -0.09,5.02 -0.48,7.56 -0.26,1.63 -0.58,2.78 -0.82,3.62 -0.3,1.05 -0.36,1.35 -0.23,1.51 0.32,0.39 1.56,0.99 3.29,1.82 0.23,-0.07 0.77,-0.34 1.39,-0.87 0.3,-0.25 0.42,-0.42 0.54,-0.59 0.4,-0.55 0.76,-0.83 1.82,-1.07 0.32,-0.07 0.64,-0.12 0.95,-0.18 0.6,-0.09 1.16,-0.19 1.44,-0.39 0.22,-0.16 0.28,-0.28 0.29,-0.31 0,-0.07 -0.05,-0.22 -0.37,-0.58 -0.13,-0.15 -0.3,-0.34 -0.35,-0.65 -0.08,-0.53 0.29,-1.04 0.82,-1.12 0.4,-0.06 0.78,0.12 0.98,0.44l0.03 0.03c0.28,0.33 0.95,1.09 0.84,2.1 -0.08,0.65 -0.44,1.21 -1.09,1.68 -0.65,0.47 -1.47,0.61 -2.27,0.74 -0.27,0.05 -0.56,0.09 -0.84,0.16 -0.45,0.1 -0.54,0.16 -0.55,0.17 -0.04,0.04 -0.07,0.08 -0.11,0.14 -0.15,0.21 -0.38,0.52 -0.86,0.93 -0.65,0.55 -1.76,1.34 -2.73,1.34z"/>
  </g>
  <path class="fil1" d="M48.48 46.48c-0.25,0 -0.49,-0.15 -0.6,-0.39 -0.54,-1.19 -0.48,-2.71 -0.41,-4.19 0.04,-1.07 0.09,-2.19 -0.17,-2.78 -0.15,-0.33 0,-0.72 0.33,-0.87 0.33,-0.14 0.72,0 0.87,0.34 0.39,0.87 0.33,2.09 0.28,3.37 -0.06,1.32 -0.12,2.68 0.29,3.59 0.16,0.33 0.01,0.72 -0.32,0.87 -0.09,0.04 -0.18,0.06 -0.27,0.06z"/>
  <path class="fil1" d="M46.11 74.55c-0.36,0 -0.78,-0.04 -1.3,-0.13 -0.53,-0.1 -0.88,-0.61 -0.79,-1.14 0.1,-0.54 0.6,-0.89 1.14,-0.79 1.1,0.19 1.38,0.08 1.81,-0.1 0.88,-0.37 1.84,-0.63 4.56,-0.2 0.14,-0.05 0.42,-0.19 0.63,-0.3 0.64,-0.32 1.51,-0.75 2.49,-0.95 0.99,-0.2 1.87,-0.22 2.65,-0.24 1.06,-0.03 1.89,-0.05 2.63,-0.47 0.47,-0.27 1.07,-0.11 1.34,0.36 0.27,0.47 0.11,1.07 -0.36,1.34 -1.17,0.67 -2.33,0.7 -3.55,0.73 -0.74,0.02 -1.5,0.04 -2.33,0.21 -0.72,0.14 -1.42,0.49 -1.98,0.78 -0.69,0.34 -1.18,0.59 -1.72,0.5 -2.49,-0.41 -3.09,-0.16 -3.61,0.06 -0.47,0.19 -0.92,0.34 -1.61,0.34z"/>
  <path class="fil1" d="M79 60.01c-0.54,0 -0.98,-0.44 -0.98,-0.98 0,-0.54 0.44,-0.98 0.98,-0.98 1,0 1.68,-0.31 1.76,-1.8 0.08,-1.56 0.73,-3.74 1.42,-6.05 0.97,-3.24 2.17,-7.26 1.39,-8.8 -0.44,-0.87 -0.85,-0.92 -1.02,-0.94 -0.3,-0.03 -1.67,0.38 -2.37,1.05 -0.19,0.17 -0.29,0.34 -0.29,0.46 -0.01,0.54 -0.45,0.99 -1,0.97 -0.54,0 -0.97,-0.45 -0.97,-0.99 0.01,-0.5 0.19,-1.25 1.03,-1.99 1.1,-0.95 2.97,-1.56 3.85,-1.45 1.07,0.14 1.91,0.81 2.52,1.99 1.14,2.25 -0.08,6.32 -1.25,10.26 -0.66,2.2 -1.28,4.27 -1.35,5.59 -0.12,2.33 -1.47,3.66 -3.72,3.66z"/>
  <path class="fil1" d="M79.36 52.82c-0.23,0 -0.45,-0.07 -0.64,-0.23 -0.41,-0.36 -0.45,-0.98 -0.1,-1.39 0.43,-0.49 1.08,-2.7 0.53,-3.89 -0.13,-0.3 -0.35,-0.58 -1,-0.58 -0.54,0 -0.98,-0.44 -0.98,-0.98 0,-0.54 0.44,-0.98 0.98,-0.98 1.29,0 2.28,0.61 2.79,1.72 0.86,1.88 0.09,4.93 -0.83,5.99 -0.2,0.23 -0.47,0.34 -0.75,0.34z"/>
  <path class="fil1" d="M31.51 22.35c-0.31,0 -0.62,-0.15 -0.81,-0.43 -0.31,-0.45 -0.19,-1.06 0.26,-1.36 0.51,-0.35 2.18,-1.49 2.44,-1.63 7.46,-3.9 10.07,-1.7 11.94,0.66 0.23,0.29 0.58,0.74 0.73,0.79 0.54,-0.07 1.02,0.31 1.09,0.85 0.07,0.54 -0.32,1.03 -0.86,1.1 -1.18,0.14 -1.88,-0.74 -2.5,-1.52 -1.2,-1.52 -2.85,-3.61 -9.49,-0.14 -0.14,0.09 -1.18,0.78 -2.24,1.51 -0.17,0.11 -0.37,0.17 -0.56,0.17z"/>
  <path class="fil1" d="M28.37 29.08c-0.39,0 -0.76,-0.23 -0.91,-0.62 -0.2,-0.5 0.05,-1.08 0.55,-1.28 0.45,-0.18 1.14,-1.01 1.79,-1.82 2.1,-2.58 5.27,-6.47 11.42,-4.01 0.5,0.2 0.75,0.77 0.55,1.28 -0.2,0.5 -0.78,0.75 -1.28,0.54 -4.81,-1.92 -7.12,0.92 -9.16,3.43 -0.89,1.09 -1.66,2.04 -2.6,2.41 -0.11,0.05 -0.24,0.07 -0.36,0.07z"/>
  <path class="fil1" d="M49.18 20.25c-0.22,0 -0.43,-0.07 -0.61,-0.21 -0.82,-0.64 -1.51,-1.21 -2.11,-1.7 -3.71,-3.03 -3.71,-3.03 -10.42,-1.65 -0.53,0.11 -1.05,-0.23 -1.16,-0.76 -0.11,-0.53 0.23,-1.05 0.76,-1.16 7.27,-1.5 7.84,-1.4 12.06,2.05 0.59,0.48 1.27,1.04 2.08,1.67 0.43,0.34 0.5,0.96 0.17,1.38 -0.19,0.25 -0.48,0.38 -0.77,0.38z"/>
  <path class="fil1" d="M51.8 17.83c-0.12,0 -0.24,-0.02 -0.36,-0.06 -0.19,-0.08 -0.3,-0.19 -0.41,-0.3 -2.14,-2.16 -3.26,-2.91 -3.58,-3.02 -0.5,0 -0.93,-0.38 -0.97,-0.89 -0.05,-0.54 0.34,-1.02 0.88,-1.07 0.45,-0.04 1.38,-0.13 5.07,3.6l0.04 0.05c0.29,0.26 0.39,0.69 0.24,1.07 -0.15,0.39 -0.52,0.62 -0.91,0.62z"/>
  <path class="fil1" d="M55.5 90.27c-1.02,0 -1.87,-0.18 -2.6,-0.34 -0.48,-0.1 -0.93,-0.2 -1.36,-0.23 -1.07,-0.08 -2.61,-0.92 -4.37,-1.93 -0.43,-0.25 -0.97,-0.56 -1.12,-0.62 -7.26,-2.65 -9.67,-11.51 -11.42,-17.98l-0.2 -0.73c-1.38,-5.06 -2.39,-8.67 -2.58,-9.21 -0.13,-0.36 -0.51,-1.29 -0.95,-2.37 -0.37,-0.92 -0.81,-2.01 -1.24,-3.1 -0.77,-1.92 -1.25,-3.6 -1.72,-5.23 -0.32,-1.13 -0.66,-2.3 -1.09,-3.54 -0.39,-1.14 -0.67,-1.86 -0.73,-1.98 -1.68,-2.8 -0.22,-10.72 -0.04,-11.62 0.38,-1.99 0.97,-3.11 1.54,-4.2 0.44,-0.83 0.9,-1.7 1.3,-3.05 1.16,-3.89 1.75,-4.57 3.8,-6.56 0.47,-0.45 1.02,-0.98 1.69,-1.67 1.96,-2.02 2.32,-2.4 2.38,-2.48 1.72,-1.96 3.9,-2.4 6,-2.82 0.68,-0.13 1.37,-0.27 2.05,-0.46 7.08,-1.97 9.45,-0.66 11.43,0.97 0.6,0.5 0.91,0.74 1.38,0.77 0.54,0.03 0.95,0.49 0.92,1.03 -0.03,0.55 -0.51,0.96 -1.04,0.93 -1.13,-0.07 -1.83,-0.65 -2.51,-1.21 -1.32,-1.1 -2.97,-2.46 -9.65,-0.59 -0.75,0.21 -1.48,0.35 -2.19,0.49 -1.95,0.39 -3.63,0.72 -4.91,2.19 -0.06,0.06 -0.25,0.28 -2.46,2.55 -0.68,0.7 -1.24,1.25 -1.72,1.71 -1.84,1.78 -2.23,2.15 -3.28,5.71 -0.46,1.54 -0.99,2.53 -1.45,3.41 -0.55,1.04 -1.02,1.94 -1.35,3.66 -0.75,3.87 -1.07,8.79 -0.18,10.27 0.12,0.2 0.42,0.98 0.88,2.31 0.44,1.28 0.79,2.48 1.12,3.64 0.48,1.65 0.92,3.21 1.65,5.05 0.43,1.08 0.87,2.16 1.24,3.08 0.49,1.2 0.84,2.06 0.98,2.46 0.31,0.88 2.09,7.37 2.62,9.34l0.2 0.74c1.65,6.05 3.9,14.34 10.2,16.65 0.29,0.1 0.69,0.33 1.43,0.75 0.99,0.57 2.83,1.63 3.55,1.68 0.56,0.05 1.09,0.16 1.61,0.27 1.03,0.22 2.11,0.45 3.57,0.15 1.83,-0.37 5.87,-2.3 9.01,-4.31 3.67,-2.34 5.97,-5.62 7.25,-7.96 3.18,-5.81 3.85,-12.82 4.26,-19.49 0.03,-0.54 0.49,-0.96 1.04,-0.92 0.54,0.03 0.95,0.49 0.92,1.04 -0.42,6.9 -1.12,14.15 -4.5,20.32 -1.39,2.54 -3.89,6.1 -7.91,8.67 -3.37,2.15 -7.62,4.16 -9.68,4.58 -0.64,0.13 -1.23,0.18 -1.77,0.18z"/>
  <path class="fil1" d="M59.14 96.68c-3.12,0 -6.26,-1.75 -7.37,-4.19 -0.72,-1.6 -1.41,-2.15 -2.13,-2.73 -0.52,-0.42 -1.05,-0.85 -1.53,-1.6 -0.29,-0.46 -0.16,-1.06 0.3,-1.36 0.46,-0.29 1.06,-0.15 1.35,0.31 0.31,0.47 0.66,0.76 1.11,1.12 0.79,0.63 1.77,1.42 2.69,3.44 0.86,1.89 3.61,3.25 6.13,3.02 4.34,-0.39 10.44,-7.48 13.72,-11.29l0.74 -0.85c0.64,-0.76 7.13,-11.1 8.04,-12.96 -1.42,-2.45 -1.51,-5.38 -1.59,-8.22 -0.03,-1.04 -0.06,-2.01 -0.15,-2.95 -0.05,-0.54 0.34,-1.02 0.88,-1.07 0.55,-0.05 1.02,0.34 1.08,0.88 0.09,1 0.12,2.06 0.15,3.08 0.08,2.72 0.16,5.53 1.51,7.59 0.13,0.19 0.18,0.43 0.15,0.66l-0.02 0.21c-0.16,1.29 -8.49,13.97 -8.57,14.07l-0.73 0.85c-3.7,4.3 -9.9,11.49 -15.03,11.95 -0.24,0.03 -0.49,0.04 -0.73,0.04z"/>
  <path class="fil1" d="M80.58 37.89c0,0 0,0 0,0 0,0 0,0 0,0zm0 0c0,0 0,0 0,0 0,0 0,0 0,0zm0.75 1.62c-0.23,0 -0.45,-0.08 -0.64,-0.24 -0.3,-0.25 -0.41,-0.65 -0.31,-1.01 0,-0.23 -0.06,-0.78 -0.09,-0.95 -0.39,-1.92 -0.48,-3.19 -0.56,-4.41 -0.07,-1.02 -0.14,-1.98 -0.38,-3.29 -0.59,-3.25 -3.8,-9.69 -6.36,-10.91 -2.2,-1.04 -3.77,-2.58 -5.16,-3.94 -2.57,-2.5 -4.42,-4.3 -8.99,-2.59 -0.51,0.19 -1.07,-0.07 -1.26,-0.58 -0.19,-0.5 0.07,-1.07 0.57,-1.26 5.74,-2.15 8.44,0.48 11.05,3.02 1.34,1.31 2.73,2.67 4.64,3.58 3.48,1.66 6.85,9.03 7.44,12.33 0.26,1.41 0.34,2.47 0.41,3.5 0.08,1.16 0.16,2.37 0.53,4.17 0.22,1.11 0.17,1.86 -0.14,2.23 -0.2,0.23 -0.47,0.35 -0.75,0.35z"/>
  <path class="fil1" d="M70.94 18.56c-0.03,0 -0.06,-0.01 -0.09,-0.01 -1.72,-0.16 -3.22,-0.94 -4.66,-1.7 -1.65,-0.87 -3.22,-1.69 -5.17,-1.69 -0.54,0 -0.98,-0.44 -0.98,-0.98 0,-0.54 0.44,-0.98 0.98,-0.98 2.44,0 4.38,1.01 6.09,1.91 1.33,0.7 2.58,1.36 3.92,1.49 0.54,0.05 0.94,0.52 0.89,1.06 -0.05,0.51 -0.47,0.9 -0.98,0.9z"/>
  <path class="fil1" d="M75.77 24.05c-0.13,0 -0.26,-0.02 -0.39,-0.08 -0.22,-0.08 -1.29,-0.39 -1.56,-0.44 -2.05,-0.08 -4,-1.19 -6.06,-2.37 -2.57,-1.46 -5.22,-2.97 -8.55,-2.97 -0.55,0 -0.99,-0.44 -0.99,-0.98 0,-0.54 0.44,-0.98 0.99,-0.98 3.85,0 6.86,1.71 9.52,3.23 1.95,1.1 3.62,2.06 5.21,2.11 0.39,0.02 2.06,0.51 2.27,0.62 0.49,0.25 0.68,0.84 0.44,1.32 -0.17,0.34 -0.52,0.54 -0.88,0.54z"/>
  <path class="fil1" d="M77.79 29c-0.15,0 -0.29,-0.03 -0.43,-0.1 -0.4,-0.15 -2.54,-0.75 -2.93,-0.82 -1.43,-0.12 -3.79,-1.41 -7.21,-3.35 -1.74,-0.99 -4.12,-2.35 -4.71,-2.4 -0.53,-0.04 -0.96,-0.5 -0.93,-1.03 0.03,-0.53 0.46,-0.92 0.98,-0.93 0.98,0.02 2.69,0.97 5.63,2.65 2.25,1.28 5.33,3.03 6.41,3.1 0.17,0.01 3.38,0.81 3.78,1.11 0.43,0.32 0.52,0.94 0.2,1.37 -0.19,0.26 -0.49,0.4 -0.79,0.4z"/>
  <path class="fil1" d="M76.07 33.34c-0.22,0 -0.44,-0.07 -0.62,-0.22 -0.21,-0.12 -1.42,-0.41 -2.44,-0.58 -1.88,-0.3 -3.9,-1.45 -5.37,-2.29 -0.44,-0.25 -0.98,-0.55 -1.21,-0.64 -0.41,-0.02 -0.79,-0.31 -0.9,-0.73 -0.14,-0.53 0.17,-1.07 0.7,-1.21 0.58,-0.15 1.1,0.15 2.38,0.87 1.27,0.73 3.18,1.81 4.71,2.06 0.81,0.13 2.77,0.49 3.38,1.01 0.42,0.34 0.48,0.96 0.13,1.38 -0.19,0.23 -0.47,0.35 -0.76,0.35z"/>
  <g>
   <path class="fil1" d="M80.35 38.89l0 0 0 0zm0.44 0.18c-0.18,0 -0.37,-0.06 -0.56,-0.19 -2.72,-0.24 -5.3,-1.42 -7.02,-2.2 -0.67,-0.31 -1.52,-0.69 -1.76,-0.71 -0.54,-0.05 -0.95,-0.53 -0.9,-1.07 0.05,-0.54 0.52,-0.94 1.06,-0.89 0.59,0.05 1.32,0.38 2.42,0.88 1.71,0.78 4.05,1.85 6.46,2.04 0.12,0.01 0.23,0.03 0.34,0.06 0,0 0,0 0,0 0.46,-0.29 1.07,-0.14 1.35,0.33 0.28,0.46 0.13,1.07 -0.33,1.35 -0.29,0.17 -0.66,0.4 -1.06,0.4z"/>
  </g>
  <path class="fil1" d="M63.55 68.32c-0.17,0 -0.35,-0.07 -0.47,-0.2 -1.94,-2.03 -5.69,-4.28 -8.34,-5.79 -0.32,-0.18 -0.42,-0.58 -0.24,-0.9 0.17,-0.31 0.57,-0.42 0.89,-0.24 2.72,1.56 6.58,3.87 8.63,6.02 0.25,0.27 0.24,0.68 -0.02,0.93 -0.12,0.12 -0.29,0.18 -0.45,0.18z"/>
  <path class="fil1" d="M28.29 100.32c-0.21,0 -0.43,-0.07 -0.61,-0.21 -0.42,-0.34 -0.49,-0.96 -0.15,-1.39 0.23,-0.29 0.37,-0.43 0.53,-0.56 0.05,-0.05 0.1,-0.09 0.17,-0.18 0.68,-0.75 1.11,-1.53 1.62,-2.43 0.73,-1.31 1.65,-2.93 3.59,-4.97 2.57,-2.7 5.08,-4.36 7.67,-5.08 0.79,-0.21 3.67,-0.57 4.35,-0.61 0.54,-0.05 1.01,0.38 1.04,0.92 0.03,0.54 -0.38,1.01 -0.92,1.04 -0.71,0.05 -3.39,0.4 -3.94,0.55 -2.24,0.61 -4.46,2.1 -6.78,4.53 -1.77,1.87 -2.58,3.31 -3.3,4.58 -0.54,0.96 -1.05,1.87 -1.86,2.78 -0.14,0.16 -0.24,0.24 -0.33,0.33 -0.09,0.08 -0.16,0.14 -0.31,0.33 -0.19,0.24 -0.48,0.37 -0.77,0.37z"/>
  <path class="fil1" d="M47.69 109.71c-0.04,0 -0.08,0 -0.11,0 -0.54,-0.07 -0.93,-0.55 -0.87,-1.09 0.15,-1.24 0.7,-3.98 1.35,-7.14 0.86,-4.2 2.15,-10.55 2,-11.69 -0.07,-0.54 0.31,-1.03 0.85,-1.1 0.53,-0.07 1.03,0.31 1.1,0.85 0.18,1.36 -0.69,5.77 -2.02,12.33 -0.61,2.99 -1.19,5.82 -1.33,6.97 -0.05,0.5 -0.48,0.87 -0.97,0.87z"/>
  <path class="fil1" d="M63.14 110.52c-0.46,0 -0.87,-0.33 -0.96,-0.8 -0.17,-0.94 -4.1,-12.05 -4.47,-12.9 -0.26,-0.48 -0.07,-1.05 0.41,-1.3 0.48,-0.26 1.09,-0.06 1.34,0.42 0.22,0.4 4.41,12.09 4.65,13.42 0.1,0.54 -0.25,1.05 -0.79,1.15 -0.06,0.01 -0.12,0.01 -0.18,0.01z"/>
  <path class="fil1" d="M67.29 109.92c-0.14,0 -0.29,-0.04 -0.42,-0.1 -0.49,-0.23 -0.7,-0.82 -0.47,-1.31 2.25,-4.75 4.62,-8.94 7.12,-13.37 1.16,-2.04 2.35,-4.16 3.53,-6.32 2.13,-3.92 4.45,-8.85 5.92,-12.57 0.84,-2.16 0.3,-3.57 -0.22,-4.93 -0.23,-0.61 -0.47,-1.24 -0.57,-1.89 -0.07,-0.44 0.16,-0.86 0.56,-1.04 0.4,-0.19 0.87,-0.08 1.16,0.25 0.51,0.6 1.15,1.24 1.83,1.91 0.8,0.78 1.62,1.59 2.38,2.49 2.87,3.37 8.26,7.49 12.27,10.35 0.44,0.31 0.54,0.93 0.23,1.37 -0.32,0.44 -0.93,0.55 -1.37,0.23 -4.1,-2.92 -9.62,-7.15 -12.63,-10.68 -0.42,-0.5 -0.88,-0.98 -1.35,-1.45 0.2,1.13 0.17,2.48 -0.47,4.11 -1.49,3.78 -3.85,8.8 -6.02,12.79 -1.18,2.18 -2.38,4.3 -3.54,6.35 -2.49,4.4 -4.83,8.55 -7.06,13.24 -0.16,0.36 -0.52,0.57 -0.88,0.57z"/>
  <path class="fil2" d="M58.45 46.8c0.88,-0.04 1.63,0.64 1.67,1.51 0.04,0.88 -0.64,1.63 -1.52,1.67 -0.88,0.04 -1.62,-0.64 -1.67,-1.51 -0.04,-0.88 0.64,-1.63 1.52,-1.67z"/>
  <path class="fil2" d="M40.57 50.61c0.88,-0.04 1.63,0.64 1.67,1.52 0.04,0.88 -0.64,1.62 -1.52,1.67 -0.88,0.04 -1.62,-0.64 -1.66,-1.52 -0.05,-0.88 0.63,-1.62 1.51,-1.67z"/>
  <path class="fil1" d="M75.09 47.48c-0.36,0 -0.66,-0.29 -0.66,-0.65 0,-2.66 -0.76,-5.24 -2.1,-7.09 -0.21,-0.3 -0.14,-0.71 0.15,-0.92 0.29,-0.21 0.71,-0.14 0.92,0.15 1.49,2.07 2.34,4.93 2.34,7.86 0,0.36 -0.29,0.65 -0.65,0.65z"/>
  <path class="fil1" d="M55.54 16.84c-0.11,0 -0.22,-0.01 -0.32,-0.05 -0.23,-0.08 -0.35,-0.21 -0.46,-0.32 -1.15,-1.22 -2.15,-2.12 -2.76,-2.46 -0.47,-0.27 -0.64,-0.87 -0.37,-1.34 0.27,-0.47 0.87,-0.64 1.34,-0.37 1,0.56 2.3,1.85 3.22,2.82l0.04 0.04c0.26,0.26 0.36,0.65 0.24,1.02 -0.14,0.41 -0.52,0.66 -0.93,0.66z"/>
  <path class="fil1" d="M41.13 57.46c0,0 0,0 0,0 0,0 0,0 0,0zm-0.42 0.15c-0.18,0 -0.37,-0.08 -0.5,-0.24 -0.23,-0.28 -0.19,-0.69 0.09,-0.92 0.2,-0.17 0.46,-0.24 0.78,-0.31 0.75,-0.19 2.02,-0.5 2.87,-2.57 0.13,-0.33 0.52,-0.49 0.85,-0.36 0.34,0.14 0.5,0.52 0.36,0.86 -1.1,2.68 -2.9,3.13 -3.77,3.34 -0.1,0.02 -0.24,0.06 -0.3,0.08 -0.11,0.08 -0.24,0.12 -0.38,0.12z"/>
  <path class="fil1" d="M60.11 55.05c-2.3,0 -4.46,-0.55 -6.43,-1.63 -0.32,-0.17 -0.43,-0.57 -0.26,-0.89 0.17,-0.32 0.57,-0.43 0.89,-0.26 1.77,0.98 3.72,1.47 5.8,1.47 0.36,0 0.65,0.29 0.65,0.65 0,0.37 -0.29,0.66 -0.65,0.66z"/>
  <path class="fil1" d="M42.47 72.07c-0.36,0 -0.66,-0.3 -0.66,-0.66 0,-0.95 0.68,-2.31 1.56,-3.97 0.25,-0.48 0.49,-0.94 0.62,-1.24 0.14,-0.33 0.53,-0.48 0.86,-0.34 0.33,0.14 0.49,0.53 0.34,0.86 -0.15,0.35 -0.39,0.8 -0.66,1.33 -0.56,1.06 -1.4,2.65 -1.4,3.36 0,0.36 -0.3,0.66 -0.66,0.66z"/>
  <path class="fil1" d="M27.02 34.36c-0.11,0 -0.22,-0.03 -0.32,-0.09 -0.32,-0.17 -0.43,-0.57 -0.26,-0.89 0.38,-0.68 2.57,-2.52 3.54,-2.32 0.36,0.07 0.59,0.42 0.52,0.77 -0.07,0.33 -0.37,0.56 -0.7,0.53 -0.44,0.09 -1.95,1.19 -2.21,1.66 -0.12,0.21 -0.34,0.34 -0.57,0.34z"/>
  <path class="fil1" d="M26.66 40.85c-0.36,0 -0.65,-0.29 -0.65,-0.65l0 -0.13c-0.01,-0.41 0.01,-0.49 0.15,-0.89 0.94,-2.74 1.01,-2.96 2.48,-3.85 0.29,-0.18 0.64,-0.39 1.09,-0.69 0.3,-0.2 0.7,-0.12 0.9,0.18 0.21,0.3 0.12,0.71 -0.18,0.91 -0.46,0.31 -0.83,0.53 -1.13,0.72 -1.06,0.64 -1.06,0.64 -1.91,3.11 -0.1,0.28 -0.1,0.28 -0.09,0.5l0 0.14c0,0.36 -0.3,0.65 -0.66,0.65z"/>
  <path class="fil1" d="M27.18 43.66l-0.01 0c-0.37,-0.01 -0.65,-0.31 -0.65,-0.67 0.02,-1.04 1.92,-4.26 2.81,-4.47 0.36,-0.08 0.71,0.13 0.79,0.49 0.08,0.31 -0.09,0.63 -0.38,0.75 -0.46,0.37 -1.9,2.63 -1.91,3.25 0,0.36 -0.3,0.65 -0.65,0.65z"/>
  <path class="fil1" d="M53.23 77.07c-0.31,0 -0.63,-0.04 -1.03,-0.1 -0.66,-0.09 -1.56,-0.21 -3.16,-0.21 -0.37,0 -0.66,-0.29 -0.66,-0.65 0,-0.37 0.29,-0.66 0.66,-0.66 1.69,0 2.64,0.13 3.34,0.23 1.31,0.18 1.42,0.19 4.81,-1.64 0.11,-0.16 0.28,-0.27 0.48,-0.29 0.36,-0.03 0.68,0.23 0.71,0.59 0.01,0.13 0.03,0.45 -0.21,0.7 -0.09,0.09 -0.23,0.18 -0.45,0.2 -2.69,1.45 -3.53,1.83 -4.49,1.83z"/>
  <path class="fil1" d="M48.17 106.92c-0.23,0 -0.46,-0.07 -0.64,-0.23 -0.42,-0.36 -0.46,-0.98 -0.11,-1.39l8.08 -9.37c0.35,-0.41 0.97,-0.45 1.38,-0.1 0.41,0.35 0.46,0.97 0.11,1.39l-8.08 9.36c-0.19,0.23 -0.47,0.34 -0.74,0.34z"/>
 </g>
</svg>
