<?xml version="1.0" encoding="UTF-8"?>
<!DOCTYPE svg PUBLIC "-//W3C//DTD SVG 1.1//EN" "http://www.w3.org/Graphics/SVG/1.1/DTD/svg11.dtd">
<!-- Creator: CorelDRAW 2018 (64-Bit) -->
<svg xmlns="http://www.w3.org/2000/svg" xml:space="preserve" width="845px" height="845px" version="1.1" style="shape-rendering:geometricPrecision; text-rendering:geometricPrecision; image-rendering:optimizeQuality; fill-rule:evenodd; clip-rule:evenodd"
viewBox="0 0 117.19 117.19"
 xmlns:xlink="http://www.w3.org/1999/xlink">
 <defs>
  <style type="text/css">
   <![CDATA[
    .fil0 {fill:none}
    .fil2 {fill:black}
    .fil1 {fill:black;fill-rule:nonzero}
   ]]>
  </style>
 </defs>
 <g id="Слой_x0020_1">
  <metadata id="CorelCorpID_0Corel-Layer"/>
  <rect class="fil0" width="117.19" height="117.19"/>
 </g>
 <g id="_1">
  <metadata id="CorelCorpID_1Corel-Layer"/>
  <path class="fil1" d="M29.77 56.69c-0.04,0 -0.07,0 -0.11,0 -2.91,-0.32 -8.9,-2.35 -10.24,-5.83 -0.41,-1.09 -0.55,-2.78 1.18,-4.7 3.92,-4.38 12.77,-5.44 19.22,-6.21 0.97,-0.12 1.87,-0.22 2.69,-0.34 6.35,-0.86 15.02,0.05 23.41,0.94 4.89,0.52 9.51,1 13.54,1.14 10.68,0.35 19.52,0.28 21.02,-0.18 0.88,-0.27 2.94,-0.89 3.54,0.41 0.38,0.82 -0.16,1.79 -1.5,2.67 -3.04,1.98 -12.12,5.63 -14.94,6 -0.54,0.07 -1.03,-0.31 -1.1,-0.84 -0.07,-0.54 0.31,-1.04 0.85,-1.11 2.1,-0.27 9.56,-3.14 13.15,-5.12 -4.04,0.67 -19.27,0.19 -21.09,0.13 -4.1,-0.13 -8.75,-0.62 -13.67,-1.14 -8.28,-0.88 -16.83,-1.78 -22.95,-0.95 -0.82,0.11 -1.74,0.22 -2.71,0.34 -6.15,0.74 -14.57,1.75 -18,5.57 -1.28,1.43 -0.92,2.38 -0.8,2.69 0.88,2.29 5.76,4.27 8.61,4.57 0.54,0.06 0.93,0.54 0.88,1.08 -0.06,0.51 -0.48,0.88 -0.98,0.88z"/>
  <path class="fil1" d="M68.15 95.22c-7.6,0 -12.18,-3.9 -17.48,-8.41l-0.63 -0.54c-1.07,-0.91 -2.18,-1.88 -3.21,-2.78 -7.15,-6.34 -7.58,-10.1 -8.17,-15.31 -0.05,-0.5 -0.11,-1.02 -0.18,-1.56 -0.06,-0.54 0.32,-1.03 0.86,-1.09 0.54,-0.06 1.03,0.31 1.09,0.85 0.07,0.55 0.13,1.07 0.19,1.58 0.58,5.13 0.93,8.22 7.51,14.05 1.02,0.9 2.12,1.86 3.19,2.76l0.63 0.54c5.21,4.44 9.33,7.95 16.2,7.95 0.04,0 0.08,0 0.12,0 1.86,-0.02 3.01,-2.35 4.13,-4.6 0.87,-1.76 1.69,-3.42 2.95,-4.22 1.86,-1.18 2.34,-2.71 2.9,-4.49 0.26,-0.8 0.52,-1.63 0.93,-2.43 1.06,-2.08 1.85,-3.29 2.42,-4.18 1.3,-2.01 1.44,-2.21 1.44,-8.33 0,-0.11 0.02,-0.22 0.05,-0.32 0.26,-0.74 0.83,-1.59 1.44,-2.49 0.69,-1.01 1.83,-2.7 1.63,-3.29 -1.06,-3.16 -0.87,-4.24 -0.44,-5.63 0.21,-0.66 0.42,-1.33 0.42,-2.66 0,-0.77 -0.29,-3.83 -0.44,-5.46 -0.13,-1.34 -0.13,-1.34 -0.09,-1.5 0.11,-0.54 0.63,-0.87 1.16,-0.76 0.46,0.1 0.77,0.5 0.78,0.94 0.01,0.13 0.05,0.56 0.1,1.13 0.22,2.31 0.45,4.85 0.45,5.65 0,1.63 -0.27,2.52 -0.5,3.24 -0.31,0.99 -0.51,1.64 0.42,4.42 0.51,1.52 -0.69,3.3 -1.86,5.03 -0.47,0.68 -0.95,1.39 -1.16,1.88 0,6.28 -0.21,6.85 -1.75,9.22 -0.55,0.85 -1.31,2.02 -2.32,4 -0.33,0.66 -0.56,1.38 -0.8,2.14 -0.59,1.87 -1.27,3.98 -3.73,5.55 -0.79,0.5 -1.53,1.99 -2.24,3.43 -1.32,2.66 -2.81,5.67 -5.88,5.69l-0.13 0z"/>
  <path class="fil1" d="M36.89 69.07c-0.76,0 -1.67,-0.14 -2.78,-0.48 -2.37,-0.75 -3.12,-3.92 -3.61,-6.02 -0.08,-0.37 -0.16,-0.7 -0.24,-0.98 -0.2,-0.72 -0.42,-1.36 -0.63,-1.98 -0.93,-2.74 -1.66,-4.9 0.76,-9.26 0.96,-1.72 3.18,-3 6,-1.99 3.36,1.2 6.98,4.73 6.98,8.34 0,0.55 -0.44,0.99 -0.98,0.99 -0.54,0 -0.98,-0.44 -0.98,-0.99 0,-2.63 -2.99,-5.53 -5.68,-6.49 -1.85,-0.66 -3.11,0.17 -3.62,1.09 -2,3.6 -1.48,5.14 -0.61,7.68 0.2,0.61 0.44,1.31 0.66,2.08 0.08,0.31 0.16,0.67 0.26,1.06 0.39,1.66 0.98,4.18 2.28,4.59 1.25,0.39 3.4,0.84 3.82,-0.5 0.16,-0.52 0.71,-0.81 1.23,-0.64 0.52,0.16 0.81,0.71 0.65,1.23 -0.25,0.78 -1.04,2.27 -3.51,2.27z"/>
  <path class="fil1" d="M37.91 63.5c-0.3,0 -0.59,-0.13 -0.78,-0.38 -0.2,-0.26 -0.39,-0.52 -0.58,-0.77 -0.39,-0.54 -0.77,-1.04 -1.17,-1.49 -0.6,-0.66 -1.07,-0.96 -1.49,-1.22 -1.18,-0.74 -1.77,-1.36 -2.12,-3.92 -0.09,-0.68 -0.19,-1.97 0.13,-3 0.42,-1.34 1.8,-2.17 3.13,-1.9 0.81,0.16 1.49,0.8 1.93,1.8 0.01,0.03 1.25,3.13 1.25,3.93 0,0.54 -0.44,0.98 -0.99,0.98 -0.54,0 -0.98,-0.44 -0.98,-0.98 -0.05,-0.37 -0.84,-2.57 -1.09,-3.14 -0.19,-0.45 -0.41,-0.65 -0.51,-0.67 -0.27,-0.05 -0.72,0.12 -0.86,0.58 -0.16,0.47 -0.18,1.27 -0.06,2.13 0.26,1.93 0.52,2.09 1.21,2.52 0.48,0.3 1.13,0.71 1.91,1.57 0.47,0.52 0.89,1.09 1.29,1.64 0.18,0.24 0.37,0.49 0.56,0.74 0.33,0.43 0.25,1.05 -0.18,1.38 -0.18,0.13 -0.39,0.2 -0.6,0.2z"/>
  <path class="fil1" d="M42.39 57.69c-0.1,0 -0.2,-0.02 -0.3,-0.05 -0.52,-0.17 -0.8,-0.72 -0.63,-1.24 0.13,-0.42 0.32,-0.67 0.47,-0.87 0.14,-0.18 0.28,-0.36 0.47,-0.81 0.57,-1.31 0.92,-2.39 1.3,-3.54 0.5,-1.51 1.01,-3.08 2.03,-5.13 0.65,-1.31 3.48,-2.4 4.22,-2.59 0.53,-0.13 1.06,0.19 1.2,0.71 0.13,0.53 -0.18,1.06 -0.71,1.2 -0.99,0.25 -2.7,1.16 -2.96,1.56 -0.95,1.91 -1.42,3.35 -1.91,4.86 -0.38,1.14 -0.76,2.32 -1.36,3.71 -0.29,0.66 -0.53,0.99 -0.71,1.22 -0.12,0.15 -0.14,0.19 -0.17,0.29 -0.14,0.41 -0.52,0.68 -0.94,0.68z"/>
  <path class="fil1" d="M71.95 57.11c-0.27,0 -0.55,-0.12 -0.75,-0.35 -0.21,-0.25 -0.33,-0.48 -0.43,-0.67 -0.22,-0.39 -0.44,-0.8 -2.33,-1.63 -4.43,-1.95 -7.48,-3.03 -9.06,-3.23 -0.54,-0.06 -0.92,-0.55 -0.86,-1.09 0.07,-0.54 0.55,-0.93 1.1,-0.86 1.79,0.22 4.94,1.33 9.61,3.38 2.32,1.02 2.83,1.7 3.26,2.49 0.08,0.14 0.13,0.24 0.21,0.34 0.35,0.41 0.3,1.03 -0.11,1.38 -0.19,0.16 -0.41,0.24 -0.64,0.24z"/>
  <path class="fil1" d="M86.6 59.73c-0.49,0 -0.89,-0.24 -1.34,-0.56 -1.3,-0.93 -3.34,-0.7 -4.7,-0.56 -0.38,0.04 -0.71,0.08 -0.99,0.09 -0.53,-0.01 -0.99,-0.43 -1,-0.97 0,-0.54 0.43,-0.99 0.97,-1 0.18,0 0.47,-0.04 0.81,-0.07 1.55,-0.17 4.14,-0.45 6.05,0.9 0.05,0.04 0.15,0.11 0.24,0.17 0,0 0,-0.01 0,-0.01 0.49,-0.25 1.08,-0.06 1.33,0.43 0.25,0.48 0.05,1.07 -0.43,1.32 -0.36,0.18 -0.66,0.26 -0.94,0.26z"/>
  <path class="fil1" d="M69.3 59.98c-0.1,0 -0.21,-0.01 -0.31,-0.04 -0.94,-0.31 -1.58,-0.61 -2.08,-0.99 -0.49,-0.37 -0.84,-0.67 -1.1,-0.9 -0.69,-0.6 -0.69,-0.59 -2.96,-0.57 -0.31,0.01 -0.57,0 -0.81,0 -0.55,0 -0.92,-0.01 -1.49,0.08 -0.85,0.12 -1.57,0.44 -2.1,0.67 -0.12,0.06 -0.23,0.11 -0.32,0.14 -0.51,0.21 -1.08,-0.03 -1.29,-0.53 -0.2,-0.5 0.04,-1.08 0.54,-1.28 0.08,-0.04 0.17,-0.08 0.28,-0.12 0.56,-0.25 1.49,-0.66 2.6,-0.83 0.73,-0.11 1.23,-0.1 1.81,-0.09 0.22,0 0.46,0 0.75,0 2.68,-0.04 3.07,0 4.28,1.05 0.25,0.21 0.56,0.48 0.99,0.81 0.2,0.15 0.57,0.38 1.51,0.69 0.51,0.16 0.8,0.72 0.63,1.23 -0.13,0.42 -0.52,0.68 -0.93,0.68z"/>
  <path class="fil1" d="M83.69 64.19c-0.54,0 -0.98,-0.44 -0.98,-0.98 0,-0.48 -0.03,-0.78 -0.19,-0.97 -1.11,-1.35 -2.11,-1.28 -3.78,-1.16 -0.48,0.03 -0.98,0.07 -1.53,0.07 -0.54,0 -0.98,-0.44 -0.98,-0.99 0,-0.54 0.44,-0.98 0.98,-0.98 0.48,0 0.95,-0.03 1.4,-0.06 1.81,-0.13 3.68,-0.26 5.43,1.87 0.58,0.72 0.63,1.52 0.63,2.22 0,0.54 -0.44,0.98 -0.98,0.98z"/>
  <g>
   <path class="fil1" d="M67.93 70.86l0.01 0 -0.01 0zm6.58 4.36c-0.96,0 -1.42,-0.32 -2.04,-1.01 -0.1,-0.1 -0.2,-0.22 -0.33,-0.35 -0.78,-0.81 -1.73,-0.87 -3.1,-0.87 -1.29,0 -2.16,-0.3 -2.65,-0.92 -0.63,-0.78 -0.42,-1.73 -0.3,-2.29 0.03,-0.11 0.06,-0.26 0.06,-0.31 0.03,-0.54 0.5,-0.97 1.04,-0.93 0.54,0.03 0.96,0.49 0.93,1.03 -0.01,0.22 -0.06,0.43 -0.11,0.64 -0.04,0.19 -0.12,0.54 -0.08,0.65l0 0c0.01,0 0.24,0.17 1.11,0.17 1.3,0 3.1,0 4.51,1.46 0.15,0.15 0.27,0.29 0.38,0.41 0.39,0.43 0.39,0.43 1.48,0.26 0.85,-0.13 1.4,-0.36 1.64,-0.7 0.26,-0.36 0.3,-1 0.14,-2.01 -0.09,-0.53 -0.29,-1.15 -0.5,-1.81 -0.41,-1.27 -0.88,-2.72 -0.85,-4.37 0.02,-0.76 -0.1,-1.49 -0.22,-2.27 -0.14,-0.85 -0.28,-1.74 -0.28,-2.78 0,-0.54 0.44,-0.98 0.99,-0.98 0.54,0 0.98,0.44 0.98,0.98 0,0.89 0.13,1.69 0.25,2.47 0.13,0.83 0.26,1.69 0.25,2.62 -0.03,1.32 0.37,2.54 0.75,3.72 0.23,0.73 0.46,1.42 0.57,2.1 0.17,1.07 0.27,2.43 -0.49,3.48 -0.57,0.79 -1.53,1.28 -2.92,1.49 -0.49,0.08 -0.88,0.12 -1.21,0.12z"/>
  </g>
  <path class="fil1" d="M58.34 77.43c-0.04,0 -0.08,-0.01 -0.12,-0.01 -0.35,-0.06 -0.59,-0.4 -0.53,-0.76 0.04,-0.26 1.49,-2.72 1.5,-2.74 0.74,-1.02 2.1,-1.76 3.41,-2.47 0.84,-0.45 1.62,-0.87 2.18,-1.33 0.28,-0.23 0.7,-0.19 0.93,0.09 0.22,0.28 0.18,0.7 -0.1,0.92 -0.66,0.54 -1.54,1.02 -2.39,1.48 -1.18,0.63 -2.4,1.29 -2.96,2.07 -0.13,0.19 -1.2,2.11 -1.33,2.36 -0.1,0.23 -0.34,0.39 -0.59,0.39z"/>
  <path class="fil1" d="M74.55 82.96c-1.15,0 -1.83,-0.59 -2.22,-0.94 -0.07,-0.06 -0.15,-0.13 -0.21,-0.17 -1.33,0.05 -2.2,-0.39 -2.85,-0.7 -0.48,-0.23 -0.67,-0.32 -0.85,-0.27 -2.37,0.7 -6.47,-0.28 -7.58,-2.27 -0.26,-0.48 -0.09,-1.08 0.39,-1.34 0.47,-0.26 1.07,-0.09 1.33,0.39 0.53,0.95 3.58,1.85 5.31,1.34 0.91,-0.27 1.62,0.07 2.25,0.38 0.58,0.27 1.13,0.54 2.02,0.5 0.69,-0.03 1.15,0.37 1.49,0.67 0.39,0.34 0.62,0.55 1.32,0.4 0.27,-0.06 0.27,-0.06 0.33,-0.19 0.23,-0.49 0.82,-0.7 1.31,-0.47 0.49,0.24 0.7,0.82 0.46,1.31 -0.47,1.01 -1.29,1.18 -1.69,1.27 -0.29,0.06 -0.56,0.09 -0.81,0.09z"/>
  <path class="fil1" d="M71.18 86.21l-1.44 0c-2.08,0 -2.96,-0.49 -3.72,-0.92 -0.36,-0.2 -0.66,-0.37 -1.1,-0.5 -0.52,-0.16 -0.82,-0.71 -0.66,-1.23 0.15,-0.52 0.7,-0.81 1.22,-0.66 0.65,0.2 1.1,0.45 1.5,0.68 0.67,0.37 1.19,0.67 2.76,0.67l1.44 0c0.54,0 0.98,0.44 0.98,0.98 0,0.54 -0.44,0.98 -0.98,0.98z"/>
  <path class="fil1" d="M37.49 77.37c3.6,5.29 8.07,11.84 8.54,12.51 2.63,3.81 5.2,7.72 7.08,10.57 0.98,1.48 1.92,2.92 2.57,3.87 0.03,-0.04 0.05,-0.08 0.08,-0.12 0.06,-0.09 0.13,-0.2 0.2,-0.34 0.39,-0.68 1.03,-1.82 2.51,-2.91 0.5,-0.37 0.77,-0.73 0.81,-1.07 0.04,-0.38 -0.19,-0.89 -0.71,-1.5 -1.4,-1.67 -4.51,-4.79 -6.21,-6.4 -1.25,-1.19 -2.72,-2.54 -4.15,-3.84 -2.14,-1.96 -4.16,-3.82 -5.21,-4.92 -1.05,-1.1 -2.12,-2.24 -3.16,-3.35 -0.76,-0.81 -1.56,-1.67 -2.35,-2.5zm18.35 29.78c-0.06,0 -0.12,0 -0.18,-0.02 -0.57,-0.1 -0.57,-0.1 -4.19,-5.6 -1.88,-2.84 -4.44,-6.74 -7.06,-10.53 -0.12,-0.17 -10.78,-15.65 -12.95,-19.11 -0.45,-0.22 -0.78,-0.64 -0.95,-1.21 -0.41,-1.4 0.22,-3.78 1.33,-5 0.37,-0.41 0.99,-0.44 1.39,-0.07 0.4,0.36 0.43,0.99 0.07,1.39 -0.77,0.85 -1.09,2.67 -0.9,3.15 1.35,0.45 3.79,2.94 8.88,8.38 1.03,1.1 2.1,2.24 3.14,3.33 1.01,1.06 3.01,2.89 5.12,4.83 1.43,1.31 2.91,2.66 4.17,3.86 1.74,1.65 4.91,4.84 6.36,6.56 0.9,1.06 1.27,2.04 1.16,3 -0.1,0.9 -0.64,1.71 -1.59,2.42 -1.15,0.85 -1.62,1.69 -1.97,2.3 -0.1,0.19 -0.2,0.35 -0.28,0.48 -0.21,0.31 -0.25,0.41 -0.25,0.42 -0.06,0.38 -0.19,0.64 -0.54,1.06 -0.19,0.23 -0.47,0.36 -0.76,0.36z"/>
  <path class="fil1" d="M65.92 112.69c-0.48,0 -0.9,-0.35 -0.97,-0.83 -0.05,-0.32 -0.11,-0.76 -0.19,-1.29 -0.95,-6.95 -1.97,-10.74 -3.04,-11.26 -1.42,-0.68 -2.09,-1.12 -2.31,-1.86 -0.22,-0.71 0.12,-1.29 0.48,-1.9 0.24,-0.39 0.53,-0.89 0.79,-1.58 0.2,-0.51 0.76,-0.76 1.27,-0.57 0.51,0.2 0.76,0.77 0.57,1.27 -0.33,0.85 -0.68,1.45 -0.94,1.88 -0.06,0.11 -0.14,0.24 -0.2,0.35 0.18,0.12 0.52,0.31 1.19,0.64 2.13,1.03 3.19,5.85 4.14,12.76 0.07,0.52 0.13,0.94 0.18,1.25 0.08,0.54 -0.28,1.04 -0.82,1.12 -0.05,0.01 -0.1,0.02 -0.15,0.02z"/>
  <path class="fil1" d="M17.53 80.14c-0.4,0 -0.77,-0.25 -0.92,-0.65 -0.19,-0.51 0.08,-1.07 0.59,-1.26 0.15,-0.06 0.81,-0.31 0.98,-0.38 2.53,-1.5 3.53,-1.53 4.35,-1.42 0.01,0 0.02,0 0.03,0 0.4,-0.32 1.6,-1.92 2.13,-2.62 1.06,-1.41 2.28,-2.17 3.46,-2.9 0.6,-0.37 1.18,-0.72 1.72,-1.16 0.43,-0.34 1.05,-0.27 1.39,0.15 0.33,0.43 0.27,1.04 -0.16,1.38 -0.64,0.52 -1.29,0.92 -1.92,1.31 -1.07,0.66 -2.08,1.28 -2.92,2.4 -2.25,3 -2.71,3.56 -3.99,3.39 -0.33,-0.04 -0.93,-0.12 -3.13,1.18 -0.19,0.12 -1.16,0.47 -1.27,0.52 -0.11,0.04 -0.22,0.06 -0.34,0.06z"/>
  <g>
   <path class="fil1" d="M101.94 42.11l0 0.01 0 -0.01zm0 0.01l0 0 0 0zm0.99 1.03c-0.02,0 -0.04,0 -0.06,0 -0.28,-0.02 -0.54,-0.15 -0.7,-0.36 -1.33,-0.59 -9.1,-1.92 -17.7,-3.02 -9.51,-1.22 -19.93,-1.26 -29.35,-0.11 -1.87,0.23 -8.54,1.37 -10.24,1.68 -0.53,0.1 -1.04,-0.26 -1.14,-0.79 -0.1,-0.53 0.26,-1.05 0.79,-1.14 1.77,-0.33 8.41,-1.46 10.35,-1.7 9.58,-1.17 20.17,-1.13 29.84,0.11 19.29,2.48 19.24,3.41 19.19,4.4 -0.03,0.52 -0.46,0.93 -0.98,0.93z"/>
  </g>
  <path class="fil1" d="M33.02 42.88c-0.54,0 -0.98,-0.44 -0.98,-0.98 0,-2.24 -0.09,-4.39 -0.17,-6.47 -0.21,-5.2 -0.4,-10.12 0.69,-15.91 0.28,-1.51 0.92,-3.39 3.3,-4.59 7.32,-3.66 16.97,-6.17 26.49,-6.88 3.44,-0.25 8.14,-0.6 11.96,0.27 0.29,0.06 0.57,0.14 0.85,0.22 0.83,0.24 1.53,1.14 2.42,3.13 0.1,0.24 0.25,0.56 0.43,0.95 0.88,1.91 2.5,5.46 3.58,8.53 1.37,3.92 2.68,8.12 3.73,11.49 0.82,2.64 1.47,4.72 1.83,5.66 0.2,0.51 -0.05,1.08 -0.56,1.27 -0.5,0.2 -1.07,-0.05 -1.27,-0.56 -0.39,-1 -1.04,-3.11 -1.88,-5.78 -1.05,-3.36 -2.35,-7.54 -3.71,-11.43 -1.04,-2.98 -2.64,-6.48 -3.51,-8.36 -0.18,-0.4 -0.33,-0.73 -0.44,-0.97 -0.77,-1.73 -1.15,-2.02 -1.22,-2.06 -0.19,-0.05 -0.44,-0.12 -0.69,-0.18 -3.53,-0.8 -8.06,-0.46 -11.37,-0.22 -9.27,0.69 -18.66,3.12 -25.76,6.68 -1.51,0.76 -1.99,1.83 -2.25,3.2 -1.05,5.56 -0.86,10.37 -0.66,15.46 0.09,2.1 0.17,4.27 0.17,6.55 0,0.54 -0.44,0.98 -0.98,0.98z"/>
  <path class="fil1" d="M80.72 24.71c0,0 0,0.01 0,0.01 0,0 0,-0.01 0,-0.01zm-47.95 10.57c-0.36,0 -0.71,-0.2 -0.88,-0.55 -0.24,-0.49 -0.04,-1.07 0.45,-1.31 8.48,-4.17 24.28,-11.94 38.94,-11.94 0.55,0 3.25,0.31 5.68,0.71 4.77,0.8 5.65,1.4 5.72,2.38 0.04,0.54 -0.37,1.01 -0.91,1.05 -0.38,0.03 -0.74,-0.17 -0.92,-0.49 -1.26,-0.7 -8.52,-1.68 -9.57,-1.68 -14.2,0 -29.73,7.63 -38.08,11.73 -0.14,0.07 -0.28,0.1 -0.43,0.1z"/>
  <path class="fil1" d="M75.33 50.8c-0.05,0 -0.1,-0.01 -0.15,-0.02 -0.88,-0.2 -1.92,-0.86 -3.12,-1.61 -1.56,-0.99 -3.33,-2.12 -4.69,-2.08 -0.36,0 -0.66,-0.28 -0.67,-0.64 -0.01,-0.36 0.28,-0.66 0.64,-0.67 1.73,-0.04 3.7,1.19 5.42,2.28 1.05,0.66 2.05,1.29 2.71,1.44 0.36,0.08 0.58,0.44 0.5,0.79 -0.07,0.3 -0.34,0.51 -0.64,0.51z"/>
  <g>
   <path class="fil1" d="M77.32 64.82l0 0 0 0zm3.96 1.41c-0.03,0 -0.07,0 -0.1,-0.01 -1.34,-0.2 -2.65,-0.81 -3.44,-1.18 -0.19,-0.09 -0.42,-0.2 -0.51,-0.23 -0.32,-0.04 -0.57,-0.32 -0.57,-0.65 0,-0.36 0.3,-0.65 0.66,-0.65 0.23,0 0.45,0.1 0.97,0.34 0.73,0.34 1.93,0.9 3.09,1.08 0.35,0.05 0.6,0.39 0.55,0.74 -0.05,0.33 -0.33,0.56 -0.65,0.56z"/>
  </g>
  <path class="fil1" d="M64.09 62.81c-0.36,0 -0.66,-0.29 -0.66,-0.65 0,-0.37 0.3,-0.66 0.66,-0.66 1.38,0 2.72,-0.06 3.87,-0.74 0.31,-0.18 0.72,-0.08 0.9,0.23 0.18,0.31 0.08,0.71 -0.23,0.9 -1.43,0.85 -3.03,0.92 -4.54,0.92z"/>
  <path class="fil2" d="M62.21 56.35c0.83,0 1.5,0.67 1.5,1.5 0,0.82 -0.67,1.49 -1.5,1.49 -0.82,0 -1.49,-0.67 -1.49,-1.49 0,-0.83 0.67,-1.5 1.49,-1.5z"/>
  <path class="fil2" d="M79.76 60.21c0.82,0 1.49,0.67 1.49,1.5 0,0.83 -0.67,1.5 -1.49,1.5 -0.83,0 -1.5,-0.67 -1.5,-1.5 0,-0.83 0.67,-1.5 1.5,-1.5z"/>
  <path class="fil1" d="M52.3 20.24c-5.25,0 -10.5,-0.58 -12.6,-2.31 -0.28,-0.23 -0.32,-0.65 -0.09,-0.93 0.23,-0.27 0.64,-0.31 0.92,-0.08 2.62,2.16 12.73,2.46 20.61,1.49l0.39 -0.04c2.18,-0.26 7.95,-0.95 8.45,-3.41 0.07,-0.35 0.41,-0.58 0.77,-0.51 0.35,0.07 0.58,0.42 0.51,0.77 -0.69,3.39 -6.69,4.11 -9.57,4.45l-0.39 0.04c-2.5,0.31 -5.75,0.53 -9,0.53z"/>
  <path class="fil1" d="M59.8 79.68c-0.2,0 -0.39,-0.09 -0.52,-0.25 -0.22,-0.29 -0.17,-0.69 0.11,-0.92 0.02,-0.01 2.31,-1.79 2.47,-1.86 0.34,-0.14 0.72,0.01 0.86,0.34 0.13,0.29 0.03,0.62 -0.22,0.8 -0.16,0.12 -2.28,1.73 -2.3,1.75 -0.12,0.1 -0.26,0.14 -0.4,0.14z"/>
  <path class="fil1" d="M40.54 51.48c0,0 0,0 0,0 0,0 0,0 0,0zm0 0l0 0zm0.48 1.11c-0.16,0 -0.33,-0.06 -0.45,-0.18 -0.22,-0.21 -0.26,-0.53 -0.13,-0.79 0.05,-0.16 0.16,-0.66 0.23,-1.01 0.09,-0.42 0.17,-0.79 0.23,-0.98 0.78,-2.54 1.76,-5.39 3.5,-7.08 0.25,-0.25 0.67,-0.25 0.92,0.01 0.25,0.26 0.25,0.68 -0.01,0.93 -1.51,1.47 -2.43,4.14 -3.16,6.53 -0.04,0.13 -0.12,0.52 -0.2,0.86 -0.24,1.15 -0.29,1.32 -0.46,1.5 -0.13,0.14 -0.3,0.21 -0.47,0.21z"/>
  <path class="fil1" d="M37.82 49.85c-0.12,0 -0.24,-0.03 -0.35,-0.1 -0.31,-0.19 -0.4,-0.6 -0.21,-0.9 0.15,-0.24 0.5,-1.17 0.81,-1.99 0.41,-1.08 0.88,-2.3 1.27,-3.08 0.17,-0.33 0.56,-0.46 0.88,-0.29 0.33,0.16 0.46,0.55 0.29,0.88 -0.36,0.72 -0.81,1.91 -1.21,2.96 -0.46,1.19 -0.72,1.89 -0.93,2.21 -0.12,0.2 -0.34,0.31 -0.55,0.31z"/>
  <path class="fil1" d="M34.51 49.4c-0.17,0 -0.34,-0.07 -0.47,-0.2 -0.25,-0.27 -0.24,-0.68 0.03,-0.93 0.09,-0.14 0.33,-0.92 0.51,-1.5 0.24,-0.79 0.52,-1.69 0.83,-2.33 0.16,-0.33 0.55,-0.46 0.88,-0.31 0.32,0.16 0.46,0.56 0.3,0.88 -0.27,0.55 -0.53,1.4 -0.76,2.15 -0.37,1.19 -0.56,1.78 -0.87,2.07 -0.12,0.12 -0.29,0.17 -0.45,0.17z"/>
  <path class="fil1" d="M79.03 80.39c-0.37,0 -0.66,-0.29 -0.66,-0.65 0,-2.91 -0.37,-5.13 -0.96,-5.8 -0.24,-0.27 -0.21,-0.69 0.06,-0.93 0.27,-0.24 0.69,-0.21 0.93,0.06 1.06,1.21 1.28,4.29 1.28,6.67 0,0.36 -0.29,0.65 -0.65,0.65z"/>
  <path class="fil1" d="M64.55 103.38c-0.07,0 -0.13,-0.01 -0.2,-0.02 -0.53,-0.11 -0.88,-0.63 -0.77,-1.16 0.75,-3.65 0.57,-4.19 -0.42,-7.15 -0.1,-0.31 -0.21,-0.65 -0.33,-1.02 -0.17,-0.51 0.11,-1.07 0.62,-1.24 0.52,-0.16 1.08,0.12 1.24,0.63 0.12,0.37 0.23,0.7 0.34,1.01 1.08,3.23 1.3,4.15 0.48,8.16 -0.1,0.47 -0.51,0.79 -0.96,0.79z"/>
  <path class="fil1" d="M43.74 98.61c-0.27,0 -0.55,-0.12 -0.75,-0.35 -7.34,-8.63 -12,-12.61 -21.01,-20.08 -0.42,-0.34 -0.48,-0.96 -0.13,-1.38 0.34,-0.42 0.96,-0.48 1.38,-0.13 8.86,7.34 13.83,11.58 21.26,20.32 0.35,0.42 0.3,1.04 -0.11,1.39 -0.19,0.15 -0.41,0.23 -0.64,0.23z"/>
 </g>
</svg>
