<?xml version="1.0" encoding="UTF-8"?>
<!DOCTYPE svg PUBLIC "-//W3C//DTD SVG 1.1//EN" "http://www.w3.org/Graphics/SVG/1.1/DTD/svg11.dtd">
<!-- Creator: CorelDRAW 2018 (64-Bit) -->
<svg xmlns="http://www.w3.org/2000/svg" xml:space="preserve" width="845px" height="845px" version="1.1" style="shape-rendering:geometricPrecision; text-rendering:geometricPrecision; image-rendering:optimizeQuality; fill-rule:evenodd; clip-rule:evenodd"
viewBox="0 0 117.14 117.14"
 xmlns:xlink="http://www.w3.org/1999/xlink">
 <defs>
  <style type="text/css">
   <![CDATA[
    .fil0 {fill:none}
    .fil2 {fill:black}
    .fil1 {fill:black;fill-rule:nonzero}
   ]]>
  </style>
 </defs>
 <g id="Слой_x0020_1">
  <metadata id="CorelCorpID_0Corel-Layer"/>
  <rect class="fil0" width="117.14" height="117.14"/>
 </g>
 <g id="_1">
  <metadata id="CorelCorpID_1Corel-Layer"/>
  <path class="fil1" d="M73.87 56.12c-0.61,0 -1.08,-0.17 -1.45,-0.3 -0.39,-0.14 -0.65,-0.23 -1.05,-0.17l-0.82 0.13c-0.87,0.14 -1,0.16 -1.54,0.06 -0.16,-0.03 -0.4,-0.08 -0.84,-0.13 -1.32,-0.16 -2.58,-0.73 -3.8,-1.28 -1.35,-0.61 -2.75,-1.24 -4.2,-1.3 -0.92,-0.04 -4.56,0.85 -5.58,1.35 -0.48,0.24 -1.07,0.04 -1.31,-0.44 -0.24,-0.49 -0.05,-1.08 0.44,-1.32 1.23,-0.61 5.19,-1.62 6.53,-1.55 1.83,0.07 3.47,0.81 4.93,1.47 1.13,0.51 2.21,0.99 3.23,1.12 0.51,0.06 0.78,0.11 0.97,0.15 0.19,0.04 0.19,0.04 0.85,-0.07l0.84 -0.13c0.89,-0.14 1.51,0.08 2,0.26 0.46,0.16 0.74,0.26 1.28,0.11 0.98,-0.25 1.41,-0.54 1.88,-0.86 0.99,-0.67 1.83,-1.11 4.38,-1.15 1.05,-0.01 2.13,0.01 3,0.04 0.45,0.01 0.83,0.02 1.09,0.02 0.54,0 0.98,0.44 0.98,0.98 0,0.55 -0.44,0.99 -0.98,0.99 -0.27,0 -0.67,-0.01 -1.14,-0.03 -0.85,-0.02 -1.91,-0.05 -2.92,-0.03 -2.15,0.03 -2.64,0.36 -3.31,0.81 -0.53,0.36 -1.19,0.8 -2.49,1.14 -0.36,0.09 -0.68,0.13 -0.97,0.13z"/>
  <path class="fil1" d="M53.02 59.3c-0.53,0 -0.97,-0.43 -0.98,-0.96 -0.02,-0.54 0.41,-0.99 0.95,-1.01 1.6,-0.05 2.23,-0.41 3.03,-0.87 0.73,-0.42 1.56,-0.89 3.08,-1.13 1.78,-0.27 3.08,0.22 4.33,0.7 0.39,0.16 0.8,0.31 1.22,0.44 0.15,0.05 0.91,0.2 1.08,0.21 0.55,0 0.97,0.44 0.97,0.98 0,0.55 -0.47,0.99 -1.01,0.99 -0.34,0 -1.42,-0.24 -1.62,-0.3 -0.49,-0.15 -0.92,-0.32 -1.34,-0.48 -1.16,-0.44 -2.07,-0.79 -3.33,-0.59 -1.16,0.17 -1.74,0.51 -2.41,0.89 -0.87,0.5 -1.85,1.06 -3.94,1.12 -0.01,0 -0.02,0.01 -0.03,0.01z"/>
  <path class="fil1" d="M74.63 57.86c-0.37,0 -0.72,-0.2 -0.89,-0.56 -0.23,-0.48 -0.03,-1.07 0.46,-1.31 1.95,-0.94 2.59,-1.1 4.5,-1.36 2.03,-0.28 3.07,0.37 3.82,0.83 0.44,0.28 0.67,0.41 0.99,0.41 0.54,0 0.98,0.44 0.98,0.98 0,0.54 -0.44,0.98 -0.98,0.98 -0.9,0 -1.49,-0.37 -2.02,-0.7 -0.64,-0.39 -1.19,-0.74 -2.52,-0.55 -1.74,0.24 -2.19,0.35 -3.92,1.18 -0.13,0.07 -0.28,0.1 -0.42,0.1z"/>
  <g>
   <path class="fil1" d="M78.15 64.33c0.01,0 0.01,0 0.01,0 0,0 0,0 -0.01,0zm-12.09 5.08l0.01 0 -0.01 0zm8.3 3.81c-0.68,0 -1.41,-0.2 -2.22,-0.71 -2.03,-1.3 -2.75,-1.07 -3.51,-0.83 -0.62,0.2 -1.38,0.44 -2.47,0.02 -2.67,-1.03 -2.07,-2.71 -1.82,-3.43 0.05,-0.12 0.09,-0.24 0.12,-0.36 0.11,-0.53 0.64,-0.87 1.17,-0.76 0.53,0.12 0.86,0.64 0.75,1.17 -0.05,0.22 -0.12,0.43 -0.18,0.61 -0.06,0.15 -0.15,0.4 -0.14,0.48 0.01,0 0.13,0.2 0.81,0.46 0.44,0.17 0.67,0.1 1.17,-0.06 1.24,-0.4 2.56,-0.61 5.16,1.04 1.29,0.82 2.08,0.28 3.48,-0.83 0.57,-0.45 1.15,-0.91 1.81,-1.22 0.41,-0.19 0.44,-0.41 0.45,-0.5 0.05,-0.45 -0.34,-1.27 -1.16,-1.89 -0.17,-0.13 -0.34,-0.24 -0.52,-0.33 -0.23,-0.12 -0.48,-0.3 -1.26,-1.44 -0.02,-0.03 -1.87,-2.72 -1.97,-3.33 -0.08,-0.54 0.29,-1.04 0.82,-1.12 0.49,-0.08 0.94,0.21 1.09,0.66 0.14,0.29 0.92,1.57 1.67,2.67 0.39,0.56 0.58,0.79 0.65,0.87 0.24,0.13 0.48,0.28 0.71,0.45 1.3,1 2.06,2.44 1.92,3.68 -0.1,0.91 -0.66,1.64 -1.58,2.07 -0.44,0.2 -0.91,0.57 -1.41,0.97 -0.93,0.74 -2.09,1.66 -3.54,1.66z"/>
  </g>
  <path class="fil1" d="M55.83 70.07c-0.34,0 -0.63,-0.27 -0.65,-0.62 -0.15,-2.33 1.33,-3.17 2.63,-3.9 0.49,-0.28 0.99,-0.56 1.43,-0.92 0.04,-0.04 1,-0.68 1.16,-0.75 0.33,-0.14 0.72,0.02 0.86,0.35 0.14,0.33 -0.02,0.72 -0.35,0.86 -0.05,0.03 -0.77,0.5 -0.86,0.57 -0.5,0.41 -1.06,0.72 -1.59,1.03 -1.36,0.76 -2.06,1.23 -1.97,2.68 0.02,0.36 -0.25,0.67 -0.61,0.7 -0.02,0 -0.03,0 -0.05,0z"/>
  <path class="fil1" d="M64.55 78.41c-0.42,0 -0.81,-0.27 -0.94,-0.7 -0.15,-0.51 0.14,-1.06 0.66,-1.22 0.55,-0.17 1.01,-0.3 1.42,-0.41 1.21,-0.33 1.88,-0.51 3.2,-1.33 1.4,-0.86 3.42,0.12 4.18,0.73 0.12,0 0.46,-0.19 0.72,-0.34 0.51,-0.29 1.15,-0.66 1.98,-0.85 1.03,-0.24 2.05,0.21 3.03,0.65 0.28,0.12 0.57,0.25 0.87,0.37 0.5,0.19 0.75,0.76 0.56,1.27 -0.2,0.5 -0.77,0.75 -1.28,0.56 -0.32,-0.13 -0.64,-0.27 -0.95,-0.41 -0.69,-0.3 -1.39,-0.62 -1.79,-0.53 -0.54,0.13 -1,0.39 -1.44,0.64 -0.77,0.45 -1.83,1.06 -2.93,0.17 -0.6,-0.48 -1.64,-0.75 -1.92,-0.58 -1.56,0.96 -2.46,1.21 -3.71,1.55 -0.4,0.1 -0.84,0.23 -1.37,0.39 -0.09,0.03 -0.19,0.04 -0.29,0.04z"/>
  <path class="fil1" d="M74.63 80.7c-0.51,0 -1.03,-0.02 -1.54,-0.04 -0.46,-0.01 -0.92,-0.03 -1.37,-0.03 -1.22,0 -2.11,-0.16 -2.9,-0.3 -0.54,-0.09 -1,-0.17 -1.48,-0.19 -0.54,-0.01 -0.97,-0.47 -0.95,-1.01 0.01,-0.54 0.45,-0.95 1.01,-0.95 0.62,0.02 1.17,0.12 1.76,0.22 0.74,0.13 1.52,0.27 2.56,0.27 0.47,0 0.95,0.01 1.44,0.03 1.46,0.05 2.96,0.11 4.16,-0.32 0.36,-0.13 0.61,-0.17 0.83,-0.2 0.07,-0.01 0.15,-0.02 0.24,-0.04 0.54,-0.1 1.05,0.25 1.15,0.78 0.11,0.53 -0.24,1.05 -0.77,1.15 -0.13,0.02 -0.24,0.04 -0.34,0.06 -0.18,0.02 -0.27,0.04 -0.45,0.1 -1.07,0.38 -2.21,0.47 -3.35,0.47z"/>
  <path class="fil1" d="M63.85 92.65c-0.05,0 -0.1,0 -0.15,-0.01 -0.37,-0.06 -0.5,-0.07 -1.62,-1.67 -0.74,-1.06 -1.36,-1.76 -1.9,-2.38 -1.65,-1.86 -2.31,-2.8 -2.13,-7.2 0.12,-2.81 1.92,-5.15 5.51,-7.15 1.23,-0.68 1.62,-0.94 2.78,-1.72l0.48 -0.32c0.46,-0.3 1.07,-0.18 1.37,0.27 0.3,0.45 0.18,1.06 -0.28,1.36l-0.48 0.33c-1.18,0.78 -1.62,1.08 -2.91,1.8 -2.94,1.63 -4.42,3.44 -4.5,5.52 -0.16,3.78 0.29,4.29 1.63,5.81 0.55,0.63 1.23,1.4 2.04,2.55 0.09,0.12 0.76,1.01 0.89,1.17 0.19,0.21 0.29,0.5 0.24,0.81 -0.07,0.48 -0.49,0.83 -0.97,0.83z"/>
  <path class="fil1" d="M68.67 95.39c-0.54,0 -0.98,-0.44 -0.98,-0.99 0,-0.76 -0.37,-1.78 -0.92,-2.54 -0.45,-0.63 -0.78,-1.01 -1.03,-1.31 -0.76,-0.89 -1,-1.24 -1.49,-3.37 -0.13,-0.53 0.2,-1.05 0.73,-1.18 0.53,-0.12 1.06,0.21 1.18,0.73 0.41,1.77 0.5,1.87 1.07,2.54 0.27,0.32 0.63,0.75 1.13,1.43 0.63,0.87 1.29,2.3 1.29,3.7 0,0.55 -0.44,0.99 -0.98,0.99z"/>
  <path class="fil1" d="M74.05 100.21c-0.07,0 -0.15,0 -0.22,-0.02 -0.53,-0.11 -0.86,-0.64 -0.75,-1.17 0.67,-3.03 -0.33,-4.32 -1.61,-5.96 -1.14,-1.46 -2.43,-3.12 -2.43,-6.1 0,-0.54 0.44,-0.98 0.98,-0.98 0.55,0 0.99,0.44 0.99,0.98 0,2.3 0.98,3.56 2.01,4.89 1.34,1.72 2.85,3.66 1.98,7.59 -0.1,0.46 -0.5,0.77 -0.95,0.77z"/>
  <path class="fil1" d="M78.85 98c-0.33,0 -0.66,-0.17 -0.84,-0.47 -0.3,-0.5 -0.57,-0.69 -0.89,-0.9 -0.41,-0.28 -0.93,-0.64 -1.26,-1.51l-0.05 -0.13c-0.21,-0.56 -0.61,-1.61 -0.39,-3.15l0.05 -0.28c0.14,-0.89 0.16,-1.02 -1.05,-3.2 -0.27,-0.48 -0.1,-1.08 0.38,-1.34 0.47,-0.26 1.07,-0.09 1.33,0.38 1.42,2.55 1.5,3.05 1.28,4.46l-0.04 0.27c-0.16,1.03 0.1,1.68 0.28,2.16l0.05 0.14c0.11,0.29 0.22,0.36 0.53,0.58 0.4,0.27 0.94,0.64 1.46,1.51 0.28,0.46 0.13,1.06 -0.33,1.34 -0.16,0.1 -0.34,0.14 -0.51,0.14z"/>
  <path class="fil1" d="M82.44 93.35c0,0 0,0 0,0 0,0 0,0 0,0zm-0.34 1.9c-0.11,0 -0.23,-0.02 -0.34,-0.06 -1.1,-0.41 -2.23,-2.56 -2.41,-3.35 -0.31,-1.38 -0.14,-2.36 0.01,-3.23 0.19,-1.14 0.36,-2.13 -0.68,-4.18 -0.25,-0.49 -0.06,-1.08 0.43,-1.33 0.48,-0.24 1.07,-0.05 1.32,0.43 1.34,2.64 1.09,4.11 0.86,5.41 -0.13,0.79 -0.25,1.47 -0.02,2.46 0.12,0.56 0.89,1.74 1.21,1.96 0.48,0.21 0.72,0.75 0.54,1.25 -0.15,0.4 -0.52,0.64 -0.92,0.64z"/>
  <path class="fil1" d="M67.36 86.36c-0.26,0 -0.52,-0.1 -0.72,-0.31 -1.34,-1.45 -1.12,-4.19 -1.09,-4.5 0.05,-0.54 0.52,-0.93 1.07,-0.88 0.54,0.05 0.93,0.53 0.88,1.07 -0.1,1.04 0.1,2.44 0.59,2.98 0.36,0.4 0.34,1.02 -0.06,1.38 -0.19,0.18 -0.43,0.26 -0.67,0.26z"/>
  <path class="fil1" d="M73.43 87.12c-0.43,0 -0.82,-0.28 -0.94,-0.72 -0.02,-0.06 -0.12,-0.24 -0.19,-0.37 -0.39,-0.74 -1.12,-2.13 -0.67,-3.79 0.14,-0.53 0.68,-0.84 1.2,-0.7 0.53,0.14 0.84,0.68 0.7,1.21 -0.25,0.92 0.17,1.72 0.51,2.36 0.15,0.28 0.27,0.52 0.34,0.77 0.15,0.53 -0.16,1.07 -0.69,1.21 -0.08,0.02 -0.17,0.03 -0.26,0.03z"/>
  <path class="fil1" d="M77.05 82.75c0,0 0,0 0,0.01 0,-0.01 0,-0.01 0,-0.01zm-0.33 3.05c-0.48,0 -0.88,-0.35 -0.96,-0.82 -0.02,-0.06 -0.06,-0.17 -0.1,-0.3 -0.48,-1.55 -0.64,-2.29 -0.34,-2.85 0.25,-0.48 0.85,-0.66 1.32,-0.4 0.42,0.22 0.61,0.69 0.49,1.12 0.03,0.34 0.31,1.24 0.41,1.55 0.11,0.37 0.15,0.49 0.16,0.65 0.04,0.54 -0.37,1.01 -0.91,1.04 -0.03,0 -0.05,0.01 -0.07,0.01z"/>
  <path class="fil1" d="M81.5 81.99c-0.04,0 -0.08,-0.01 -0.11,-0.01 -0.54,-0.04 -0.95,-0.52 -0.91,-1.06 0.02,-0.22 0.11,-0.42 0.25,-0.58 0.28,-1.02 0.23,-1.19 -0.02,-2.18 -0.05,-0.17 -0.1,-0.36 -0.15,-0.57 0,-0.02 -0.08,-0.26 -0.55,-1.24 -0.02,-0.03 -0.04,-0.07 -0.06,-0.12 -0.34,-0.5 -2.58,-2.08 -3.43,-2.61 -0.3,-0.17 -0.49,-0.49 -0.49,-0.85 0,-0.54 0.44,-0.98 0.98,-0.98 0.65,0 4.16,2.51 4.74,3.66l0 0c0.55,1.13 0.68,1.48 0.72,1.67 0.05,0.2 0.1,0.38 0.14,0.55 0.35,1.34 0.42,1.77 -0.09,3.57 -0.08,0.28 -0.28,0.51 -0.54,0.63 -0.19,0.1 -0.36,0.12 -0.48,0.12z"/>
  <g>
   <path class="fil1" d="M83.88 51.95l0 0 0 0zm2.21 4.08l-2.21 -4.08zm2.18 4.16c0,0 0,0.01 0,0.01 0,0 0,-0.01 0,-0.01zm-26.02 31.78c-0.1,0 -0.21,-0.02 -0.32,-0.06 -0.01,0 -0.42,-0.15 -0.7,-0.5 -0.56,-0.41 -1.45,-0.91 -2.24,-1.24 -0.88,-0.36 -1.87,-0.69 -2.92,-1.03 -1.65,-0.55 -3.36,-1.11 -4.75,-1.89l-1.01 -0.57c-2.63,-1.5 -5.82,-3.72 -7.11,-7.55 -0.51,-1.52 -0.81,-3.1 -0.81,-4.23 0,-0.53 0.79,-4.1 1.06,-4.57 0.62,-1.12 0.65,-2.39 0.68,-3.86 0.06,-2.37 0.12,-5.31 3.08,-8.11l0.25 -0.24c1.24,-1.17 2.94,-2.78 3.24,-3.95 0.53,-2.03 0.32,-3.09 0.05,-4.45 -0.24,-1.21 -0.52,-2.59 -0.27,-4.76 0.49,-4.27 6.11,-4.83 7.95,-5.01 0.69,-0.07 1.38,-0.13 2.06,-0.18 1.64,-0.14 3.2,-0.27 4.56,-0.54 4.48,-0.91 12.87,-0.71 17.5,2.57 1.74,1.22 2.81,2.93 3.38,5.36 0.25,1.09 0.4,2.22 0.39,2.94 -0.03,1.84 0.73,3.41 1.23,4.45 0.18,0.37 0.32,0.66 0.41,0.92 1,1.12 0.69,3.68 0.33,4.67 -0.02,0.32 0.18,1.42 0.32,2.23 0.35,1.98 0.75,4.24 0.41,5.73l-0.17 0.73c-0.25,1.14 -0.49,2.22 -0.82,3.19 -0.14,0.43 -0.33,0.9 -0.55,1.44 -0.75,1.88 -1.78,4.45 -2.19,8.44 -0.06,0.54 -0.54,0.94 -1.08,0.88 -0.54,-0.05 -0.93,-0.54 -0.88,-1.08 0.44,-4.27 1.58,-7.1 2.33,-8.97 0.2,-0.52 0.38,-0.96 0.51,-1.33 0.29,-0.88 0.51,-1.86 0.76,-3l0.17 -0.74c0.25,-1.1 -0.14,-3.33 -0.43,-4.95 -0.32,-1.81 -0.45,-2.64 -0.23,-3.21 0.29,-0.78 0.29,-2.3 0.07,-2.69 -0.24,-0.17 -0.39,-0.43 -0.42,-0.71 -0.04,-0.13 -0.19,-0.44 -0.31,-0.7 -0.55,-1.13 -1.47,-3.03 -1.42,-5.33 0,-0.46 -0.1,-1.41 -0.34,-2.46 -0.46,-1.97 -1.26,-3.26 -2.6,-4.21 -3.72,-2.63 -11.19,-3.21 -15.98,-2.25 -1.48,0.3 -3.09,0.43 -4.79,0.57 -0.67,0.06 -1.34,0.11 -2.02,0.18 -4.02,0.4 -5.99,1.44 -6.2,3.28 -0.21,1.87 0.02,3.03 0.24,4.16 0.28,1.41 0.57,2.86 -0.06,5.32 -0.45,1.72 -2.23,3.4 -3.8,4.89l-0.25 0.24c-2.36,2.23 -2.41,4.41 -2.46,6.72 -0.04,1.57 -0.08,3.2 -0.91,4.72 -0.17,0.49 -0.8,3.24 -0.84,3.7 0,0.87 0.28,2.28 0.72,3.58 1.07,3.2 3.88,5.13 6.22,6.46l1 0.57c1.21,0.68 2.83,1.22 4.4,1.73 1.03,0.34 2.1,0.69 3.06,1.09 0.99,0.41 2.41,1.19 3.17,1.9 0.34,0.32 0.42,0.84 0.18,1.23 -0.19,0.31 -0.51,0.48 -0.85,0.48z"/>
  </g>
  <path class="fil1" d="M55.02 78.83c0,0 0,0 0,0 0,0 0,0 0,0zm0.01 0.06l-0.01 -0.06zm0.65 0.61c-0.32,0 -0.6,-0.24 -0.64,-0.56 -0.17,-0.39 -1.49,-1.79 -3.65,-3.65 -1.05,-0.91 -2.83,-2.57 -2.93,-3.52 -0.04,-0.36 0.22,-0.68 0.58,-0.71 0.36,-0.04 0.68,0.21 0.72,0.57 0.1,0.34 1.12,1.48 2.49,2.67 4.01,3.45 4.07,4.24 4.09,4.5 0.02,0.36 -0.25,0.67 -0.61,0.69 -0.02,0.01 -0.03,0.01 -0.05,0.01z"/>
  <path class="fil1" d="M39.47 74.35c-0.77,0 -1.74,-0.26 -2.98,-0.77 -1.68,-0.7 -2.87,-2.46 -3.11,-4.59l-0.01 -0.06c-0.09,-0.85 -0.15,-1.41 0.41,-1.8 0.54,-0.38 1.07,-0.12 1.42,0.05 0.1,0.05 0.23,0.11 0.37,0.17 1.55,0.68 4.51,1 5.45,-0.05 0.36,-0.41 0.98,-0.45 1.39,-0.08 0.4,0.36 0.44,0.98 0.08,1.38 -1.55,1.74 -4.87,1.53 -7.04,0.81 0.28,1.12 0.94,1.99 1.8,2.35 1.88,0.79 2.43,0.62 2.52,0.57 0.12,-0.05 0.2,-0.3 0.31,-0.64 0.07,-0.2 0.14,-0.4 0.22,-0.59 0.22,-0.49 0.8,-0.72 1.29,-0.5 0.5,0.22 0.72,0.8 0.5,1.3 -0.05,0.12 -0.09,0.25 -0.13,0.39 -0.19,0.56 -0.46,1.41 -1.36,1.83 -0.33,0.15 -0.7,0.23 -1.13,0.23z"/>
  <path class="fil1" d="M67.49 95.43c-4.89,0 -11.08,-2.02 -15.08,-4.98l-1.05 -0.77c-4.85,-3.57 -9.88,-7.27 -13.38,-12.2 -0.32,-0.44 -0.21,-1.05 0.23,-1.37 0.44,-0.31 1.05,-0.21 1.37,0.23 3.32,4.68 8.22,8.28 12.95,11.76l1.04 0.77c3.92,2.9 10.11,4.82 14.71,4.58 0.54,-0.03 1,0.38 1.03,0.92 0.03,0.55 -0.39,1.01 -0.93,1.04 -0.29,0.01 -0.59,0.02 -0.89,0.02z"/>
  <path class="fil1" d="M73.79 110.2c-0.15,0 -0.3,-0.03 -0.44,-0.08 -2.32,-0.84 -5.84,-2.91 -8.68,-4.58 -0.8,-0.47 -1.54,-0.9 -2.17,-1.26 -5.67,-3.23 -11.99,-8.2 -17.78,-14.02l-0.39 -0.39c-2.72,-2.72 -7.77,-7.79 -9.29,-10.63 -0.26,-0.47 -0.08,-1.07 0.4,-1.33 0.48,-0.25 1.08,-0.07 1.33,0.41 1.39,2.58 6.49,7.7 8.95,10.16l0.39 0.39c5.67,5.7 11.84,10.56 17.36,13.7 0.64,0.36 1.39,0.8 2.2,1.28 2.66,1.56 5.96,3.5 8.12,4.34 1.64,-0.99 7.37,-9.47 7.58,-11.76 0.05,-0.54 0.53,-0.94 1.07,-0.89 0.54,0.05 0.94,0.53 0.89,1.07 -0.27,2.87 -6.28,11.83 -8.54,13.26 -0.35,0.22 -0.68,0.33 -1,0.33z"/>
  <path class="fil1" d="M89.31 105.12c-0.3,0 -0.6,-0.14 -0.79,-0.4 -0.86,-1.16 -1.73,-2.42 -1.91,-2.71 -0.77,-1.2 -1.79,-1.97 -2.78,-2.71 -1.56,-1.17 -3.32,-2.5 -2.69,-5.25 0.12,-0.53 0.65,-0.86 1.18,-0.74 0.53,0.12 0.86,0.65 0.74,1.18 -0.33,1.45 0.36,2.04 1.95,3.24 1.07,0.81 2.29,1.73 3.25,3.22 0.14,0.21 0.97,1.43 1.84,2.61 0.32,0.43 0.23,1.05 -0.21,1.37 -0.17,0.13 -0.38,0.19 -0.58,0.19z"/>
  <path class="fil1" d="M28.76 96.55c-0.23,0 -0.47,-0.08 -0.66,-0.25 -0.4,-0.36 -0.43,-0.99 -0.07,-1.39 1.36,-1.52 2,-3.76 2.61,-5.91 0.18,-0.61 0.35,-1.21 0.53,-1.78 1.41,-4.41 2.74,-7.46 3.96,-9.04 0.33,-0.43 0.94,-0.51 1.38,-0.18 0.43,0.33 0.51,0.95 0.18,1.38 -1.06,1.38 -2.32,4.3 -3.65,8.44 -0.18,0.55 -0.34,1.13 -0.51,1.71 -0.64,2.27 -1.37,4.83 -3.04,6.69 -0.19,0.22 -0.46,0.33 -0.73,0.33z"/>
  <g>
   <path class="fil1" d="M53.61 14.45c-0.02,0.08 -0.03,0.18 -0.02,0.29 -0.01,-0.1 0,-0.2 0.02,-0.29zm-0.02 0.29l0 0 0 0zm-21.52 66.19c-0.31,0 -0.62,-0.03 -0.93,-0.09 -2.17,-0.46 -3.05,-1.65 -3.83,-2.69 -0.49,-0.66 -0.95,-1.28 -1.77,-1.78 -0.27,-0.16 -0.53,-0.3 -0.79,-0.43 -1.91,-1 -3.26,-2.04 -3.26,-6.42 0,-0.5 -0.18,-1.14 -0.51,-1.81 -0.41,-0.83 -0.84,-1.26 -1.26,-1.67 -0.98,-0.98 -1.61,-1.82 -1.47,-4.35 0.02,-0.5 0.09,-0.97 0.2,-1.4 0.4,-1.62 1.39,-2.57 1.67,-2.81 0.96,-0.99 0.71,-1.99 0.22,-3.54 -0.35,-1.12 -0.75,-2.4 -0.08,-3.54 1.42,-2.46 1.25,-2.96 0.95,-3.79 -0.26,-0.74 -0.62,-1.75 -0.35,-3.7 0.09,-0.63 0.48,-1.3 1.01,-2.24 0.48,-0.85 1.08,-1.91 1.5,-3.07 0.28,-0.76 0.38,-1.71 0.48,-2.63 0.08,-0.69 0.15,-1.41 0.3,-2.06 0.36,-1.53 1.19,-2.45 1.99,-3.34 0.7,-0.77 1.43,-1.58 1.95,-2.92 1.57,-4.07 4.15,-4.43 6.22,-4.72 1.12,-0.15 2.09,-0.28 2.8,-0.97 0.95,-0.91 1.37,-1.56 1.74,-2.14 0.72,-1.11 1.26,-1.84 3.39,-2.69 0.87,-0.34 3.25,-0.75 6.77,-1.33 1.95,-0.32 4.34,-0.71 4.97,-0.9 0.01,-0.01 0.02,-0.02 0.03,-0.02 2.79,-1.94 5.5,-1.27 7.89,-0.67 1.65,0.41 3.07,0.76 4.35,0.29 3.2,-1.19 11.78,0.19 13.77,3.34 0.87,1.37 2.01,1.77 3.33,2.22 2.05,0.7 4.37,1.49 5.18,5.96 0.41,2.24 1.21,3.96 1.98,5.62 0.85,1.83 1.65,3.55 1.9,5.78 0.31,2.64 0.92,3.2 1.21,3.48l0.12 0.11c0.22,0.21 0.39,0.37 2.24,1.23 3.73,1.74 3.84,7.04 3.89,9.3 0.08,3.47 -0.37,5.85 -1.34,7.07 -1.27,1.6 -1.41,2.77 -1.54,3.9 -0.26,2.26 -0.75,3.73 -5.29,5.17 -2.53,0.8 -2.85,1.02 -4.03,1.8 -0.53,0.35 -1.25,0.83 -2.4,1.51 -0.46,0.28 -1.07,0.13 -1.34,-0.34 -0.28,-0.47 -0.13,-1.07 0.34,-1.35 1.1,-0.65 1.77,-1.1 2.32,-1.46 1.34,-0.89 1.84,-1.18 4.51,-2.03 3.67,-1.16 3.76,-1.95 3.94,-3.53 0.14,-1.2 0.33,-2.85 1.95,-4.89 0.65,-0.82 0.98,-2.93 0.92,-5.8 -0.07,-3.14 -0.45,-6.49 -2.76,-7.57 -2.06,-0.96 -2.35,-1.19 -2.77,-1.59l-0.09 -0.09c-0.75,-0.69 -1.49,-1.74 -1.83,-4.69 -0.22,-1.92 -0.95,-3.51 -1.73,-5.18 -0.79,-1.69 -1.68,-3.61 -2.13,-6.1 -0.61,-3.33 -1.98,-3.8 -3.88,-4.45 -1.46,-0.5 -3.12,-1.07 -4.36,-3.03 -1.36,-2.16 -8.75,-3.54 -11.42,-2.55 -1.85,0.69 -3.71,0.22 -5.51,-0.23 -2.12,-0.52 -4.13,-1.02 -6.13,0.27 -0.38,0.37 -1.15,0.52 -2.19,0.72 -1.01,0.19 -2.36,0.41 -3.78,0.64 -2.5,0.41 -5.62,0.92 -6.36,1.22 -1.65,0.66 -1.92,1.08 -2.47,1.92 -0.4,0.64 -0.91,1.43 -2.03,2.5 -1.17,1.13 -2.62,1.32 -3.89,1.5 -1.96,0.27 -3.5,0.48 -4.66,3.48 -0.65,1.68 -1.54,2.66 -2.32,3.53 -0.72,0.8 -1.29,1.43 -1.53,2.46 -0.13,0.54 -0.19,1.17 -0.27,1.83 -0.11,1.03 -0.22,2.11 -0.58,3.09 -0.48,1.32 -1.12,2.45 -1.64,3.36 -0.35,0.61 -0.73,1.3 -0.77,1.55 -0.21,1.48 0.03,2.14 0.25,2.77 0.49,1.36 0.65,2.41 -1.1,5.44 -0.23,0.39 0.01,1.16 0.26,1.97 0.48,1.53 1.13,3.63 -0.73,5.53 -0.02,0.02 -0.05,0.05 -0.08,0.07 -0.08,0.07 -0.77,0.67 -1.05,1.8 -0.08,0.31 -0.13,0.67 -0.15,1.04 -0.1,1.84 0.23,2.18 0.9,2.85 0.48,0.47 1.07,1.07 1.63,2.19 0.33,0.66 0.72,1.66 0.72,2.68 0,3.53 0.83,3.96 2.2,4.67 0.29,0.16 0.59,0.31 0.9,0.5 1.15,0.69 1.78,1.54 2.33,2.29 0.71,0.95 1.22,1.63 2.66,1.94 0.79,0.17 2.03,-0.1 3.4,-0.73l0.83 1.78c-1.02,0.47 -2.4,0.96 -3.71,0.96z"/>
  </g>
  <path class="fil1" d="M64.15 33.47c-0.52,0 -0.95,-0.41 -0.98,-0.93 -0.08,-1.84 -0.21,-2.51 -0.37,-3.35 -0.11,-0.57 -0.23,-1.22 -0.37,-2.32 -0.15,-1.19 0.03,-2.05 0.24,-2.81 0.7,-2.54 0.02,-3.19 -1.23,-4.38 -0.65,-0.62 -1.39,-1.33 -2.03,-2.39 -0.28,-0.46 -0.13,-1.06 0.34,-1.34 0.46,-0.28 1.07,-0.13 1.35,0.33 0.5,0.83 1.11,1.41 1.7,1.97 1.37,1.31 2.78,2.66 1.76,6.33 -0.14,0.53 -0.29,1.16 -0.18,2.05 0.13,1.03 0.25,1.65 0.35,2.19 0.17,0.89 0.32,1.65 0.41,3.63 0.02,0.54 -0.4,1 -0.94,1.02 -0.02,0 -0.03,0 -0.05,0z"/>
  <path class="fil1" d="M68.31 33.62c-0.23,0 -0.47,-0.08 -0.65,-0.25 -0.41,-0.36 -0.44,-0.98 -0.08,-1.39 0.9,-1 0.75,-2.05 0.43,-3.68 -0.27,-1.35 -0.57,-2.88 0.18,-4.4 1.39,-2.82 0.93,-3.39 0.39,-4.06 -0.51,-0.63 -1.21,-1.49 -0.79,-3.24 0.13,-0.53 0.66,-0.85 1.19,-0.73 0.52,0.13 0.85,0.66 0.72,1.19 -0.2,0.81 -0.01,1.04 0.4,1.55 0.99,1.21 1.65,2.51 -0.15,6.16 -0.45,0.92 -0.25,1.96 -0.01,3.15 0.31,1.6 0.7,3.59 -0.9,5.38 -0.19,0.21 -0.46,0.32 -0.73,0.32z"/>
  <path class="fil1" d="M73.56 32.87c-0.15,0 -0.31,-0.04 -0.45,-0.11 -0.48,-0.25 -0.67,-0.85 -0.42,-1.33 0.78,-1.5 0.72,-1.97 0.65,-2.52 -0.06,-0.46 -0.13,-1.04 0.14,-1.95 0.09,-0.3 0.23,-0.7 0.37,-1.1 0.15,-0.43 0.31,-0.88 0.37,-1.12 0.4,-1.51 0.15,-2.47 -0.09,-3.4 -0.25,-0.98 -0.54,-2.1 0.19,-3.46 0.26,-0.48 0.86,-0.65 1.34,-0.39 0.47,0.25 0.65,0.85 0.39,1.33 -0.35,0.65 -0.26,1.09 -0.02,2.03 0.26,1.01 0.62,2.39 0.09,4.39 -0.08,0.32 -0.25,0.78 -0.42,1.27 -0.13,0.37 -0.26,0.74 -0.34,1.02 -0.15,0.5 -0.12,0.75 -0.07,1.14 0.12,0.92 0.13,1.78 -0.86,3.67 -0.17,0.34 -0.51,0.53 -0.87,0.53z"/>
  <path class="fil1" d="M77.93 34.28c-0.24,0 -0.48,-0.09 -0.67,-0.27 -0.4,-0.37 -0.42,-0.99 -0.05,-1.39 0.23,-0.24 0.47,-0.48 0.71,-0.72 1.5,-1.49 2.38,-2.52 1.92,-4.21 -0.03,-0.1 -0.06,-0.2 -0.09,-0.3 -0.25,-0.8 -0.56,-1.8 0.04,-4.19 0.13,-0.53 0.67,-0.85 1.19,-0.72 0.53,0.14 0.85,0.67 0.72,1.2 -0.47,1.85 -0.27,2.5 -0.07,3.12 0.04,0.13 0.08,0.25 0.11,0.38 0.78,2.91 -1,4.69 -2.44,6.11 -0.22,0.23 -0.45,0.45 -0.66,0.67 -0.19,0.21 -0.45,0.32 -0.71,0.32z"/>
  <g>
   <path class="fil1" d="M93.42 46.27c0,0 0,0 0,0 0,0 0,0 0,0zm0 0l0 0 0 0zm-4.36 3.5c-0.52,0 -1.16,-0.11 -1.99,-0.37 -0.52,-0.16 -0.81,-0.71 -0.65,-1.23 0.16,-0.52 0.71,-0.81 1.23,-0.65 1.51,0.47 1.75,0.3 2.29,-0.09 0.59,-0.43 1.4,-1.01 3.24,-1.12 0.12,-0.07 0.3,-0.18 0.39,-0.25 0.29,-0.32 0.77,-0.41 1.18,-0.2 0.48,0.25 0.66,0.85 0.41,1.33 -0.23,0.43 -1.28,1.05 -1.7,1.07 -1.4,0.06 -1.87,0.4 -2.37,0.76 -0.59,0.42 -1.13,0.75 -2.03,0.75z"/>
  </g>
  <path class="fil1" d="M88.33 57.02c-0.06,0 -0.12,-0.01 -0.18,-0.02 -0.53,-0.09 -0.89,-0.6 -0.79,-1.13 0.27,-1.57 1.9,-1.85 3.2,-2.08 2.03,-0.35 3.28,-0.68 3.28,-2.84 0,-0.55 0.44,-0.99 0.98,-0.99 0.55,0 0.99,0.44 0.99,0.99 0,3.92 -3.08,4.46 -4.91,4.78 -0.51,0.09 -1.57,0.27 -1.61,0.48 -0.08,0.47 -0.5,0.81 -0.96,0.81z"/>
  <path class="fil1" d="M88.89 63.5c-0.4,0 -0.77,-0.25 -0.92,-0.64 -0.13,-0.34 -0.51,-1.38 0.06,-2.17 0.58,-0.82 1.62,-0.78 2.62,-0.75 0.79,0.02 1.7,0.05 1.98,-0.36 0.31,-0.45 0.92,-0.57 1.37,-0.26 0.44,0.31 0.56,0.92 0.25,1.37 -0.89,1.29 -2.49,1.24 -3.66,1.21 -0.26,-0.01 -0.62,-0.02 -0.86,0 0.01,0.07 0.04,0.16 0.08,0.27 0.19,0.51 -0.07,1.07 -0.58,1.26 -0.11,0.05 -0.22,0.07 -0.34,0.07z"/>
  <path class="fil1" d="M82.77 40.88c-0.02,0 -0.05,-0.01 -0.07,-0.01 -0.54,-0.03 -0.95,-0.5 -0.91,-1.04 0.09,-1.42 0.94,-2.43 1.63,-3.25 1.03,-1.24 0.95,-1.32 0.48,-1.79 -0.89,-0.9 -0.33,-2.17 0.12,-3.19 0.17,-0.38 0.47,-1.09 0.46,-1.35 -0.32,-0.4 -0.26,-0.99 0.14,-1.34 0.41,-0.35 1.03,-0.3 1.38,0.11 0.86,0.99 0.28,2.31 -0.18,3.37 -0.15,0.33 -0.38,0.87 -0.42,1.12 1.65,1.78 0.33,3.37 -0.48,4.33 -0.57,0.69 -1.12,1.34 -1.17,2.12 -0.04,0.52 -0.47,0.92 -0.98,0.92z"/>
  <path class="fil1" d="M86.76 43.86c-0.28,0 -0.56,-0.12 -0.76,-0.35 -0.35,-0.41 -0.29,-1.03 0.12,-1.38 0.35,-0.31 1.66,-2.31 1.87,-2.93 0.18,-0.51 0.73,-0.79 1.25,-0.61 0.51,0.18 0.79,0.73 0.61,1.25 -0.29,0.85 -1.79,3.22 -2.46,3.79 -0.19,0.15 -0.41,0.23 -0.63,0.23z"/>
  <path class="fil1" d="M26.65 43.59c-0.07,0 -0.14,-0.01 -0.21,-0.02 -0.53,-0.12 -0.87,-0.64 -0.75,-1.17 0.37,-1.74 1.01,-2.88 1.95,-3.48 1.21,-0.79 2.56,-0.49 3.75,-0.23 0.55,0.12 1.08,0.23 1.51,0.23 1.48,-0.03 1.62,-0.31 1.93,-1 0.26,-0.55 0.61,-1.31 1.54,-1.94 1.38,-0.94 3.12,-1.17 4.56,-0.61 0.93,0.37 1.24,0.1 1.98,-0.55 1.1,-0.94 2.6,-2.23 6.15,-0.82 0.37,0.15 0.52,0.15 0.53,0.15 0.54,-0.06 1.02,0.32 1.08,0.86 0.06,0.54 -0.33,1.03 -0.87,1.09 -0.41,0.05 -0.89,-0.04 -1.47,-0.27 -2.44,-0.97 -3.19,-0.33 -4.13,0.48 -0.83,0.71 -1.96,1.69 -3.99,0.89 -1,-0.39 -2.07,-0.05 -2.73,0.4 -0.49,0.33 -0.65,0.69 -0.87,1.15 -0.52,1.14 -1.16,2.08 -3.67,2.13 -0.67,0.02 -1.33,-0.13 -1.97,-0.27 -0.89,-0.2 -1.74,-0.38 -2.27,-0.04 -0.47,0.3 -0.84,1.07 -1.09,2.24 -0.1,0.46 -0.51,0.78 -0.96,0.78z"/>
  <path class="fil1" d="M35.83 30.04c-0.43,0 -0.83,-0.09 -1.34,-0.22 -0.5,-0.13 -1.13,-0.3 -2.24,-0.4 -0.54,-0.04 -0.94,-0.52 -0.9,-1.06 0.05,-0.54 0.53,-0.93 1.07,-0.89 1.28,0.11 2.03,0.31 2.57,0.45 0.85,0.22 1.07,0.28 2.91,-0.48 1.05,-0.43 2.52,-0.09 3.83,0.26 0.16,0.04 0.28,0.08 0.37,0.1 0.48,0.02 0.87,0.4 0.92,0.89 0.04,0.54 -0.36,1.02 -0.9,1.07 -0.24,0.02 -0.44,-0.04 -0.9,-0.16 -0.51,-0.14 -2.05,-0.55 -2.57,-0.34 -1.38,0.57 -2.14,0.78 -2.82,0.78z"/>
  <path class="fil1" d="M55.48 34.23c-0.14,0 -0.29,-0.03 -0.43,-0.1l-0.25 -0.12c-0.57,-0.28 -0.76,-0.38 -1.33,-0.83 -0.76,-0.62 -1.2,-1.4 -1.59,-2.09 -0.74,-1.33 -1.33,-2.38 -4.06,-2.6 -0.54,-0.05 -0.94,-0.52 -0.9,-1.06 0.05,-0.54 0.52,-0.95 1.06,-0.9 3.77,0.3 4.8,2.13 5.62,3.6 0.34,0.61 0.63,1.14 1.1,1.51 0.42,0.34 0.47,0.36 0.96,0.6l0.25 0.12c0.49,0.24 0.69,0.83 0.45,1.32 -0.17,0.35 -0.52,0.55 -0.88,0.55z"/>
  <path class="fil1" d="M59.63 34.28c-0.27,0 -0.53,-0.11 -0.73,-0.32 -0.37,-0.4 -0.34,-1.02 0.06,-1.39 0.33,-0.31 0.32,-1.57 -0.38,-2.69 -1.76,-2.78 -1.73,-4.03 -1.7,-5.24 0.01,-0.48 0.02,-0.9 -0.1,-1.44 -0.1,-0.49 -0.47,-0.69 -1.59,-1.21 -0.47,-0.21 -1,-0.46 -1.59,-0.79 -0.84,-0.48 -1.29,-0.85 -2.33,-1.81 -0.4,-0.36 -0.42,-0.99 -0.06,-1.38 0.37,-0.4 0.99,-0.43 1.39,-0.06 1,0.91 1.33,1.17 1.97,1.54 0.51,0.29 0.98,0.51 1.44,0.72 1.22,0.56 2.37,1.08 2.69,2.56 0.17,0.78 0.16,1.39 0.15,1.92 -0.03,1 -0.05,1.87 1.39,4.15 1.02,1.62 1.32,4 0.05,5.18 -0.19,0.17 -0.43,0.26 -0.66,0.26z"/>
  <path class="fil1" d="M24.8 49.39c-0.32,0 -0.63,-0.16 -0.82,-0.44 -0.3,-0.44 -0.18,-1.06 0.26,-1.36 1.67,-1.13 4.4,-1.64 6.08,-1.13 1.31,0.39 1.65,-0.08 2.47,-1.22 0.7,-0.96 1.57,-2.16 3.31,-2.6 2.01,-0.51 2.9,-0.03 3.76,0.43 0.33,0.17 0.64,0.34 1.06,0.48 0.22,0.04 1.22,-0.27 1.71,-1.09 0.67,-1.09 1.99,-1 3.15,-0.92 0.82,0.06 1.67,0.12 2.3,-0.16 0.49,-0.21 1.07,0.01 1.29,0.51 0.22,0.5 -0.01,1.07 -0.51,1.29 -1.07,0.47 -2.26,0.39 -3.22,0.32 -0.47,-0.03 -1.19,-0.08 -1.37,0.03 -0.83,1.38 -2.74,2.29 -3.97,1.88 -0.58,-0.19 -1.01,-0.42 -1.36,-0.61 -0.72,-0.38 -1.08,-0.58 -2.37,-0.25 -1.04,0.26 -1.57,0.99 -2.19,1.84 -0.84,1.16 -1.98,2.74 -4.62,1.95 -1,-0.3 -3.15,0.02 -4.41,0.88 -0.17,0.11 -0.36,0.17 -0.55,0.17z"/>
  <path class="fil1" d="M24.97 57.15c-0.14,0 -0.28,-0.02 -0.41,-0.08 -0.49,-0.23 -0.71,-0.81 -0.49,-1.3 1.12,-2.48 3.53,-1.96 5.13,-1.62 0.82,0.18 1.74,0.37 2.09,0.13 0.19,-0.13 0.33,-0.48 0.39,-0.98 0.11,-0.79 0.53,-1.44 1.22,-1.86 1.5,-0.92 3.8,-0.51 4.81,-0.17 0.99,0.34 1.16,0.16 1.71,-0.43 0.45,-0.49 1.07,-1.17 2.21,-1.43 1.01,-0.24 1.99,-0.14 2.77,-0.07 0.3,0.03 0.68,0.07 0.88,0.05 0.3,-0.31 0.79,-0.39 1.19,-0.16 0.47,0.27 0.63,0.87 0.36,1.34 -0.53,0.93 -1.64,0.82 -2.61,0.73 -0.68,-0.07 -1.44,-0.14 -2.15,0.02 -0.55,0.13 -0.84,0.45 -1.21,0.85 -0.66,0.72 -1.58,1.72 -3.79,0.96 -0.98,-0.34 -2.48,-0.43 -3.14,-0.02 -0.18,0.12 -0.27,0.25 -0.3,0.46 -0.15,1.09 -0.54,1.85 -1.21,2.31 -1.05,0.75 -2.42,0.45 -3.63,0.19 -1.91,-0.41 -2.52,-0.39 -2.93,0.51 -0.16,0.36 -0.52,0.57 -0.89,0.57z"/>
  <path class="fil1" d="M23.6 63.38c-0.26,0 -0.51,-0.1 -0.71,-0.3 -0.37,-0.39 -0.36,-1.01 0.03,-1.39 0.12,-0.12 0.25,-0.28 0.4,-0.46 0.96,-1.12 3.19,-3.74 6.82,-0.75 0.58,0.47 0.67,0.42 1.54,-0.24 0.99,-0.74 2.49,-1.87 5.07,-0.77 0.63,0.27 0.92,0.11 1.74,-0.46 0.99,-0.68 2.33,-1.62 4.71,-0.91 0.52,0.16 0.82,0.7 0.66,1.22 -0.15,0.52 -0.7,0.82 -1.22,0.66 -1.47,-0.44 -2.16,0.04 -3.03,0.65 -0.83,0.57 -1.97,1.36 -3.63,0.65 -1.54,-0.66 -2.23,-0.13 -3.11,0.53 -0.87,0.66 -2.19,1.65 -3.98,0.18 -2.14,-1.75 -3.03,-0.7 -4.07,0.52 -0.18,0.21 -0.36,0.42 -0.54,0.59 -0.19,0.19 -0.43,0.28 -0.68,0.28z"/>
  <path class="fil1" d="M28.54 73.37c-0.1,0 -0.21,-0.01 -0.32,-0.05 -1.71,-0.59 -3.45,-3.85 -2.78,-6.12 0.25,-0.86 1.23,-2.76 4.96,-1.86 1.41,0.35 1.65,0.13 2.16,-0.34 1,-0.91 2.17,-1.7 5.59,-1.27 0.54,0.07 0.92,0.56 0.85,1.1 -0.07,0.54 -0.55,0.92 -1.09,0.85 -2.8,-0.35 -3.42,0.22 -4.02,0.77 -0.86,0.79 -1.7,1.35 -3.96,0.8 -1.05,-0.25 -2.35,-0.37 -2.61,0.5 -0.37,1.29 0.88,3.49 1.54,3.71 0.51,0.18 0.79,0.73 0.61,1.25 -0.14,0.41 -0.52,0.66 -0.93,0.66z"/>
  <path class="fil1" d="M60.62 62c-1.04,0 -2.02,-0.19 -3.29,-0.59 -0.52,-0.16 -0.81,-0.71 -0.65,-1.23 0.16,-0.51 0.71,-0.8 1.23,-0.64 1.86,0.58 2.84,0.63 4.74,0.26 0.76,-0.15 1.36,-0.5 2.02,-1.16 0.38,-0.38 1.01,-0.38 1.39,0 0.38,0.39 0.38,1.01 0,1.39 -0.95,0.95 -1.88,1.47 -3.03,1.69 -0.91,0.18 -1.67,0.28 -2.41,0.28z"/>
  <path class="fil1" d="M79.76 61.03c-1.94,0 -4.71,-1.11 -5.98,-2.95 -0.35,-0.51 -0.65,-1.04 -0.89,-1.47l-0.17 -0.3c-0.27,-0.47 -0.11,-1.07 0.36,-1.34 0.47,-0.27 1.07,-0.11 1.34,0.36l0.18 0.32c0.22,0.39 0.5,0.88 0.8,1.32 0.85,1.23 2.98,2.09 4.36,2.09 0.92,0 1.25,-0.09 1.74,-0.23 0.3,-0.09 0.68,-0.2 1.24,-0.3 0.54,-0.09 1.05,0.27 1.14,0.8 0.09,0.54 -0.27,1.05 -0.8,1.14 -0.46,0.08 -0.75,0.16 -1.04,0.25 -0.56,0.15 -1.08,0.31 -2.28,0.31z"/>
  <path class="fil2" d="M59.28 56.47c0.76,-0.03 1.42,0.56 1.45,1.33 0.04,0.77 -0.55,1.42 -1.32,1.45 -0.77,0.04 -1.42,-0.55 -1.46,-1.32 -0.03,-0.77 0.56,-1.42 1.33,-1.46z"/>
  <path class="fil2" d="M78.36 55.5c0.77,-0.04 1.42,0.55 1.46,1.32 0.04,0.77 -0.56,1.42 -1.32,1.46 -0.77,0.03 -1.43,-0.56 -1.46,-1.33 -0.04,-0.77 0.55,-1.42 1.32,-1.45z"/>
  <path class="fil1" d="M84.13 92.26c-0.08,0 -0.17,-0.02 -0.26,-0.06 -1.68,-0.74 -1.5,-3.25 -1.39,-4.91l0.02 -0.16c0.08,-1.19 -0.18,-2.32 -0.42,-3.4 -0.15,-0.64 -0.3,-1.29 -0.38,-1.95 -0.04,-0.36 0.22,-0.69 0.58,-0.73 0.35,-0.04 0.68,0.21 0.72,0.57 0.07,0.59 0.21,1.19 0.35,1.82 0.27,1.18 0.55,2.4 0.45,3.78l-0.01 0.16c-0.08,1.14 -0.23,3.26 0.61,3.62 0.33,0.15 0.48,0.53 0.33,0.87 -0.1,0.24 -0.34,0.39 -0.6,0.39z"/>
  <path class="fil1" d="M63.04 84.75c-0.31,0 -0.6,-0.14 -0.8,-0.41 -0.48,-0.67 -0.62,-1.62 -0.41,-2.82l0 0c0.03,-0.43 0.35,-0.8 0.79,-0.89 0.53,-0.1 1.04,0.24 1.15,0.77 0.04,0.19 0.01,0.33 -0.01,0.46 -0.16,0.89 0,1.22 0.07,1.32 0.32,0.44 0.22,1.06 -0.21,1.38 -0.18,0.12 -0.38,0.19 -0.58,0.19z"/>
  <path class="fil1" d="M43.53 24.77c-0.72,0 -2.75,-0.42 -3.3,-0.65 -1.57,-0.64 -2.29,-0.56 -3.06,-0.46 -0.46,0.05 -0.99,0.12 -1.63,0.01 -0.53,-0.09 -0.89,-0.6 -0.8,-1.13 0.09,-0.54 0.6,-0.9 1.13,-0.81 0.36,0.06 0.67,0.02 1.06,-0.02 0.89,-0.11 2,-0.25 4.05,0.6 0.34,0.14 2.1,0.49 2.55,0.49 0.54,0 0.98,0.44 0.98,0.98 0,0.55 -0.44,0.99 -0.98,0.99z"/>
 </g>
</svg>
