<?xml version="1.0" encoding="UTF-8"?>
<!DOCTYPE svg PUBLIC "-//W3C//DTD SVG 1.1//EN" "http://www.w3.org/Graphics/SVG/1.1/DTD/svg11.dtd">
<!-- Creator: CorelDRAW 2018 (64-Bit) -->
<svg xmlns="http://www.w3.org/2000/svg" xml:space="preserve" width="845px" height="845px" version="1.1" style="shape-rendering:geometricPrecision; text-rendering:geometricPrecision; image-rendering:optimizeQuality; fill-rule:evenodd; clip-rule:evenodd"
viewBox="0 0 117.14 117.14"
 xmlns:xlink="http://www.w3.org/1999/xlink">
 <defs>
  <style type="text/css">
   <![CDATA[
    .fil0 {fill:none}
    .fil2 {fill:black}
    .fil1 {fill:black;fill-rule:nonzero}
   ]]>
  </style>
 </defs>
 <g id="Слой_x0020_1">
  <metadata id="CorelCorpID_0Corel-Layer"/>
  <rect class="fil0" width="117.14" height="117.14"/>
 </g>
 <g id="_1">
  <metadata id="CorelCorpID_1Corel-Layer"/>
  <path class="fil1" d="M54.5 56.64c-0.07,0 -0.14,0 -0.21,-0.02 -1.47,-0.32 -2.79,-0.77 -3.95,-1.16 -0.73,-0.25 -1.42,-0.48 -2.03,-0.65 -2.29,-0.6 -4.68,-0.31 -7.75,0.94 -0.5,0.21 -1.07,-0.03 -1.28,-0.54 -0.2,-0.5 0.04,-1.07 0.54,-1.28 2.17,-0.88 5.46,-1.95 9,-1.02 0.67,0.18 1.39,0.43 2.15,0.69 1.12,0.37 2.38,0.8 3.74,1.1 0.53,0.12 0.86,0.64 0.75,1.17 -0.1,0.46 -0.51,0.77 -0.96,0.77zm7.33 0.08c-0.45,0 -0.85,-0.31 -0.96,-0.76 -0.12,-0.53 0.21,-1.06 0.73,-1.18 0.74,-0.18 1.35,-0.41 2.05,-0.67 0.84,-0.31 1.78,-0.67 3.11,-0.99 0.68,-0.16 1.22,-0.31 1.67,-0.43 2.1,-0.58 2.73,-0.68 5.99,0.42 0.56,0.19 2.07,1.07 2.48,1.38 0.43,0.32 0.52,0.93 0.2,1.37 -0.32,0.44 -0.94,0.53 -1.38,0.2 -0.33,-0.25 -1.65,-0.99 -1.93,-1.09 -2.82,-0.95 -3.05,-0.88 -4.84,-0.39 -0.47,0.13 -1.02,0.29 -1.73,0.45 -1.21,0.29 -2.06,0.61 -2.87,0.92 -0.74,0.27 -1.43,0.54 -2.3,0.74 -0.07,0.02 -0.15,0.03 -0.22,0.03zm-3.5 0.35c-0.37,0 -0.78,0 -1.1,-0.03 -0.54,-0.05 -0.94,-0.52 -0.9,-1.06 0.05,-0.54 0.53,-0.94 1.07,-0.9 0.31,0.03 0.8,0.03 1.19,0.02l0.24 0c0.54,0 0.98,0.44 0.98,0.99 0,0.54 -0.44,0.98 -0.98,0.98l-0.23 0c-0.09,0 -0.18,0 -0.27,0z"/>
  <path class="fil1" d="M52.97 61.13c-0.03,0 -0.06,0 -0.09,0 -1.1,-0.11 -1.93,-0.7 -2.66,-1.23 -0.57,-0.41 -1.1,-0.79 -1.68,-0.9 -0.68,-0.13 -1.55,-0.09 -2.2,0.09 -0.56,0.16 -0.96,0.41 -1.39,0.67 -0.54,0.34 -1.15,0.72 -1.98,0.76 -0.54,0.03 -1,-0.38 -1.03,-0.93 -0.03,-0.54 0.38,-1 0.93,-1.03 0.31,-0.02 0.57,-0.17 1.05,-0.47 0.47,-0.29 1.06,-0.66 1.89,-0.89 0.95,-0.26 2.1,-0.31 3.09,-0.13 1.01,0.18 1.78,0.74 2.46,1.23 0.61,0.44 1.13,0.82 1.7,0.87 0.54,0.05 0.94,0.53 0.89,1.07 -0.05,0.51 -0.48,0.89 -0.98,0.89z"/>
  <path class="fil1" d="M63.42 61.64c-0.44,0 -0.84,-0.3 -0.95,-0.74 -0.13,-0.53 0.19,-1.06 0.72,-1.19 0.46,-0.12 0.95,-0.45 1.5,-0.83 1.35,-0.93 3.2,-2.21 6.49,-1.33 0.28,0.08 0.58,0.25 1.18,0.61 0.34,0.21 0.95,0.57 1.22,0.67 0.41,-0.01 0.8,0.24 0.95,0.66 0.18,0.51 -0.08,1.07 -0.59,1.25 -0.66,0.24 -1.35,-0.14 -2.6,-0.89 -0.25,-0.16 -0.61,-0.37 -0.71,-0.41 -2.37,-0.64 -3.56,0.18 -4.82,1.05 -0.66,0.46 -1.34,0.93 -2.16,1.13 -0.07,0.02 -0.15,0.02 -0.23,0.02z"/>
  <g>
   <path class="fil1" d="M57.35 71.87l0.01 0 -0.01 0zm0.7 2.04c-0.81,0 -1.59,-0.2 -2,-0.57 -0.99,-0.88 -1.57,-0.95 -2.12,-1.02 -0.38,-0.05 -0.81,-0.11 -1.24,-0.39 -0.61,-0.41 -1.08,-1.1 -1.22,-1.82 -0.12,-0.61 0.01,-1.22 0.35,-1.72 0.3,-0.45 0.92,-0.56 1.36,-0.25 0.45,0.3 0.56,0.92 0.26,1.36 -0.02,0.03 -0.06,0.09 -0.04,0.24 0.04,0.2 0.2,0.43 0.38,0.55 0.05,0.03 0.24,0.06 0.4,0.08 0.68,0.09 1.72,0.22 3.14,1.47 0.34,0.17 1.33,0.14 1.57,-0.05 0.12,-0.11 0.21,-0.24 0.32,-0.38 0.33,-0.41 0.79,-0.99 1.91,-1.11l0.16 -0.01c1.1,-0.12 1.29,-0.16 1.46,-0.83l0 -0.05c0,0 0,-0.05 0,-0.06 0,-0.54 0.44,-0.98 0.98,-0.98 0.54,0 0.98,0.44 0.98,0.98 0.01,0.21 0.01,0.33 -0.02,0.46 -0.51,2.15 -2,2.31 -3.2,2.43l-0.15 0.02c-0.3,0.03 -0.32,0.06 -0.57,0.37 -0.14,0.17 -0.3,0.38 -0.54,0.6 -0.5,0.47 -1.35,0.68 -2.17,0.68z"/>
  </g>
  <path class="fil1" d="M54.01 80.17c-0.09,0.04 -0.2,0.06 -0.28,0.07 0.12,-0.01 0.22,-0.04 0.28,-0.07zm-3.3 1.1c-0.02,0 -0.04,0 -0.05,0 -0.55,0 -0.98,-0.45 -0.97,-0.99 0,-0.54 0.44,-0.97 0.98,-0.97 0.01,0 0.03,0 0.04,0 0.92,0 1.84,-0.54 2.23,-0.78 0.12,-0.07 0.24,-0.14 0.36,-0.19 0.59,-0.26 1.13,-0.45 1.59,-0.57 1.07,-0.27 1.59,-0.06 2.15,0.25 0.18,0.1 0.34,0.19 0.59,0.27 0.26,0.08 0.51,0.15 0.67,0.19 0.31,0.08 0.43,0.01 0.78,-0.18 0.82,-0.46 1.76,-0.82 3.48,0.12 0.67,0.36 2.4,0.46 3.4,0.3 0.53,-0.09 1.04,0.28 1.12,0.81 0.09,0.54 -0.28,1.04 -0.81,1.13 -1.15,0.18 -3.43,0.15 -4.65,-0.52 -0.92,-0.5 -1.14,-0.37 -1.59,-0.13 -0.45,0.26 -1.14,0.64 -2.2,0.38 -0.19,-0.05 -0.49,-0.13 -0.8,-0.23 -0.43,-0.14 -0.73,-0.3 -0.94,-0.42 -0.3,-0.16 -0.31,-0.17 -0.71,-0.07 -0.36,0.1 -0.82,0.26 -1.3,0.48 -0.01,0 -0.03,0.01 -0.04,0.01l-0.1 0.06c-0.48,0.29 -1.76,1.05 -3.23,1.05z"/>
  <path class="fil1" d="M58.42 84.63c-2.51,0 -4.8,-0.95 -5.4,-1.57 -0.37,-0.39 -0.36,-1.01 0.02,-1.39 0.39,-0.37 1,-0.37 1.38,0.01 0.66,0.54 5.1,2.03 7.7,-0.26 0.41,-0.36 1.03,-0.32 1.39,0.09 0.36,0.41 0.32,1.03 -0.09,1.39 -1.47,1.29 -3.29,1.73 -5,1.73z"/>
  <path class="fil1" d="M58.94 94.53c-1.79,0 -3.76,-0.29 -5.94,-0.85 -5.15,-1.34 -8.24,-3.37 -10.68,-7.02 -1.44,-2.16 -3.17,-5.09 -3.67,-8.57 -0.21,-1.46 -0.97,-4.03 -1.77,-6.76 -1.68,-5.73 -2.75,-9.63 -2.28,-11.39 0.64,-2.38 0.72,-5.5 0.72,-8.51 0,-0.54 0.44,-0.98 0.99,-0.98 0.54,0 0.98,0.44 0.98,0.98 0,3.15 -0.1,6.42 -0.79,9.02 -0.37,1.36 1.16,6.54 2.27,10.33 0.82,2.79 1.59,5.43 1.82,7.02 0.45,3.09 2.03,5.78 3.36,7.77 2.17,3.25 4.85,4.99 9.54,6.2 4.34,1.13 7.65,1.05 10.44,-0.25 2.42,-1.13 4.52,-2.73 6.39,-4.9 5.21,-6.04 5.71,-8.49 7.18,-15.74 0.2,-1 0.45,-1.99 0.7,-2.95 0.45,-1.79 0.89,-3.48 1.01,-5.22 0.17,-2.47 -0.27,-5.34 -0.7,-8.12 -0.39,-2.48 -0.75,-4.83 -0.63,-6.69 0.04,-0.54 0.5,-0.94 1.05,-0.92 0.54,0.04 0.95,0.51 0.91,1.05 -0.11,1.64 0.24,3.89 0.61,6.26 0.45,2.89 0.91,5.87 0.72,8.56 -0.14,1.92 -0.61,3.77 -1.07,5.57 -0.24,0.93 -0.48,1.89 -0.68,2.85 -1.5,7.42 -2.07,10.2 -7.61,16.63 -2.06,2.39 -4.37,4.15 -7.06,5.4 -1.75,0.82 -3.66,1.23 -5.81,1.23z"/>
  <g>
   <path class="fil1" d="M57.35 32.96l0 0 0 0zm0.04 0.24l-0.04 -0.24zm0.98 0.99c-0.47,0 -0.87,-0.34 -0.96,-0.78 -0.24,-0.54 -1.64,-2.56 -2.18,-2.89 -0.46,-0.29 -0.61,-0.89 -0.32,-1.36 0.29,-0.46 0.89,-0.6 1.35,-0.31 0.93,0.57 3.09,3.49 3.09,4.35 0,0.55 -0.44,0.99 -0.98,0.99z"/>
  </g>
  <path class="fil1" d="M55.55 32.05c0,0 0,0 0,0 0,0 0,0 0,0zm-0.17 1.95c-0.05,0 -0.11,0 -0.17,-0.01 -0.39,-0.07 -0.7,-0.33 -1.36,-0.91 -0.7,-0.6 -1.75,-1.5 -2.63,-1.86 -0.5,-0.21 -0.75,-0.78 -0.54,-1.28 0.2,-0.5 0.78,-0.74 1.28,-0.54 1.18,0.48 2.38,1.51 3.17,2.2 0.22,0.19 0.49,0.42 0.61,0.5 0.43,0.17 0.69,0.62 0.61,1.08 -0.08,0.48 -0.5,0.82 -0.97,0.82z"/>
  <path class="fil1" d="M51.7 34.76c-2.33,0 -4.43,-0.87 -6.17,-1.73 -0.49,-0.23 -0.69,-0.82 -0.45,-1.31 0.23,-0.49 0.82,-0.69 1.31,-0.45 1.54,0.75 3.38,1.52 5.31,1.52 0.54,0 0.98,0.44 0.98,0.99 0,0.54 -0.44,0.98 -0.98,0.98z"/>
  <path class="fil1" d="M36.32 52.41c-0.49,0 -0.92,-0.36 -0.98,-0.86 -0.14,-1.16 0.13,-3.82 0.21,-4.47 0.64,-5.16 1.51,-12.23 9.87,-12.23 0.54,0 0.98,0.44 0.98,0.98 0,0.55 -0.44,0.99 -0.98,0.99 -6.15,0 -7.16,4.35 -7.92,10.5 -0.14,1.19 -0.29,3.27 -0.21,3.99 0.07,0.54 -0.31,1.03 -0.85,1.09 -0.04,0.01 -0.08,0.01 -0.12,0.01z"/>
  <g>
   <path class="fil1" d="M67.59 30.42l0 0 0 0zm-7.12 4.55c-0.36,0 -0.71,-0.2 -0.88,-0.55 -0.24,-0.48 -0.04,-1.07 0.45,-1.31 1.21,-0.59 1.84,-0.97 2.3,-1.24 1.21,-0.73 1.41,-0.79 5.17,-1.43 0.08,-0.04 0.17,-0.08 0.3,-0.11 0.52,-0.13 1.06,0.18 1.19,0.71 0.14,0.53 -0.18,1.06 -0.7,1.2 -0.07,0.03 -0.2,0.09 -0.38,0.12 -3.62,0.62 -3.64,0.63 -4.57,1.19 -0.46,0.28 -1.16,0.7 -2.45,1.32 -0.14,0.07 -0.28,0.1 -0.43,0.1z"/>
  </g>
  <path class="fil1" d="M73.36 36.38c-0.21,0 -0.41,-0.06 -0.59,-0.19 -0.55,-0.32 -3.81,-0.57 -6.34,-0.57 -0.55,0 -0.99,-0.44 -0.99,-0.98 0,-0.54 0.44,-0.98 0.99,-0.98 1.46,0 6.33,0.07 7.51,0.95 0.44,0.33 0.53,0.94 0.21,1.38 -0.2,0.26 -0.49,0.39 -0.79,0.39z"/>
  <path class="fil1" d="M78.88 45.91c-0.49,0 -0.91,-0.36 -0.97,-0.85 -0.28,-1.04 -3.09,-5.41 -4.08,-5.54 -0.54,-0.03 -0.95,-0.5 -0.91,-1.04 0.03,-0.54 0.51,-0.94 1.04,-0.92 2.47,0.16 5.78,6.31 5.9,7.25 0.07,0.53 -0.32,1.03 -0.85,1.1 -0.05,0 -0.09,0 -0.13,0z"/>
  <path class="fil1" d="M88.41 29.78c-0.54,0 -0.98,-0.44 -0.98,-0.99 0,-2.26 -3.69,-2.37 -4.43,-2.37 -0.54,0 -0.99,-0.44 -0.99,-0.98 0,-0.55 0.45,-0.99 0.99,-0.99 3.09,0 6.39,1.14 6.39,4.34 0,0.55 -0.44,0.99 -0.98,0.99z"/>
  <path class="fil1" d="M84.41 58.37c-0.24,0 -0.48,-0.09 -0.67,-0.26 -0.4,-0.37 -0.42,-0.99 -0.06,-1.39 1.94,-2.1 4.12,-5.44 4.3,-7.79 0.14,-1.68 0.86,-2.79 1.56,-3.86 0.39,-0.6 0.75,-1.15 1.02,-1.81 0.18,-0.43 0.31,-0.81 0.38,-1.14l0 -0.16c-0.12,-3.93 -0.17,-6.14 -0.18,-6.58 -0.01,-1.84 -2.54,-2.8 -3.31,-3.05 -1.5,-0.49 -3.21,-1.04 -4.78,-1.04 -0.54,0 -0.98,-0.44 -0.98,-0.98 0,-0.54 0.44,-0.98 0.98,-0.98 1.88,0 3.74,0.6 5.39,1.13 2.91,0.94 4.65,2.77 4.67,4.9 0,0.3 0.03,1.67 0.17,6.54 0.01,0.26 0.01,0.41 0.01,0.41 -0.01,0.03 -0.01,0.07 -0.02,0.1 -0.09,0.47 -0.26,0.99 -0.51,1.6 -0.34,0.83 -0.77,1.49 -1.19,2.13 -0.62,0.95 -1.15,1.76 -1.25,2.95 -0.26,3.23 -3.15,7.15 -4.81,8.96 -0.2,0.21 -0.46,0.32 -0.72,0.32z"/>
  <path class="fil1" d="M85.49 55.01c-0.54,0 -0.98,-0.44 -0.98,-0.98l0 -0.16c-0.01,-0.12 -0.01,-0.24 0,-0.36 0.08,-3.45 -1.13,-5.99 -2.4,-8.68 -0.32,-0.65 -0.63,-1.31 -0.92,-1.98 -0.22,-0.5 0.01,-1.08 0.5,-1.3 0.5,-0.22 1.08,0.01 1.3,0.51 0.28,0.65 0.59,1.29 0.89,1.93 1.32,2.78 2.69,5.65 2.59,9.57 0,0.09 0,0.2 0,0.3l0 0.17c0,0.54 -0.44,0.98 -0.98,0.98z"/>
  <path class="fil1" d="M88.53 40.88c-0.31,0 -0.59,-0.23 -0.64,-0.55 -0.35,-2.03 -3.26,-4.76 -5.75,-4.76 -0.36,0 -0.65,-0.29 -0.65,-0.65 0,-0.36 0.29,-0.66 0.65,-0.66 3.19,0 6.6,3.27 7.04,5.85 0.06,0.36 -0.18,0.7 -0.54,0.76 -0.03,0.01 -0.07,0.01 -0.11,0.01z"/>
  <g>
   <path class="fil1" d="M79.21 75.15l0 0 0 0zm0.1 1.97c-0.11,0 -0.21,0 -0.32,-0.01 -0.39,-0.04 -1.51,-0.79 -1.68,-1.03 -0.3,-0.45 -0.19,-1.06 0.26,-1.36 0.36,-0.25 0.84,-0.22 1.16,0.04 0.11,0.07 0.44,0.28 0.63,0.4 0.15,-0.01 0.27,-0.06 0.39,-0.16 1.09,-0.89 1.44,-4.29 1.65,-6.32 0.07,-0.77 0.14,-1.43 0.23,-1.91 0.21,-1.08 0.55,-2 1.08,-2.89 0.9,-1.54 1.5,-4.47 0.98,-4.82 -0.13,-0.09 -0.31,-0.11 -0.48,-0.05 -0.15,0.04 -0.43,0.19 -0.59,0.62 -0.2,0.51 -0.77,0.76 -1.27,0.57 -0.51,-0.2 -0.76,-0.76 -0.57,-1.27 0.34,-0.88 1.01,-1.54 1.84,-1.8 0.75,-0.24 1.55,-0.13 2.17,0.3 2.32,1.57 0.11,6.59 -0.39,7.44 -0.41,0.7 -0.67,1.42 -0.84,2.26 -0.07,0.4 -0.14,1.03 -0.21,1.75 -0.27,2.64 -0.63,6.25 -2.36,7.65 -0.49,0.39 -1.07,0.59 -1.68,0.59z"/>
  </g>
  <path class="fil1" d="M35.98 77.05c-0.37,0 -0.76,-0.09 -1.16,-0.26 -2.62,-1.14 -2.83,-4.79 -2.9,-5.99 -0.14,-2.38 -0.76,-3.83 -2.1,-6.2 -0.75,-1.31 -0.9,-4.15 -0.31,-5.63 0.33,-0.8 0.81,-1.34 1.43,-1.59 0.98,-0.41 1.93,0 2.57,0.27 0.14,0.06 0.27,0.11 0.38,0.15 0.52,0.15 0.82,0.69 0.66,1.21 -0.15,0.52 -0.69,0.82 -1.21,0.67 -0.17,-0.05 -0.38,-0.13 -0.6,-0.22 -0.33,-0.14 -0.83,-0.36 -1.04,-0.27 -0.12,0.05 -0.25,0.24 -0.36,0.52 -0.37,0.9 -0.26,3.14 0.19,3.92 1.23,2.17 2.18,4.06 2.35,7.05 0.14,2.42 0.72,3.87 1.73,4.3 0.13,0.06 0.23,0.09 0.3,0.1 0.01,-0.06 0.02,-0.16 0.02,-0.31 0,-0.54 0.44,-0.98 0.98,-0.98l0 0c0.54,0 0.98,0.43 0.99,0.97 0,1.16 -0.48,1.72 -0.88,1.99 -0.3,0.2 -0.66,0.3 -1.04,0.3z"/>
  <path class="fil1" d="M35.34 81.06c-0.54,0 -0.98,-0.44 -0.98,-0.99l0 -3.52c0,-0.54 0.44,-0.98 0.98,-0.98 0.55,0 0.99,0.44 0.99,0.98l0 3.52c0,0.55 -0.44,0.99 -0.99,0.99z"/>
  <path class="fil1" d="M35.28 82.43c-0.9,1.33 -0.82,1.83 -0.49,3.66l0.11 0.67c0.07,0.4 0.66,1 1.1,1.3 0.85,-1.53 0.74,-2.84 0.47,-3.71 -0.29,-0.92 -0.81,-1.59 -1.19,-1.92zm0.88 9.89c-0.55,0 -0.99,-0.44 -0.99,-0.98 0,-0.16 -0.01,-0.32 -0.02,-0.48 -0.03,-0.31 -0.06,-0.67 -0.01,-1.03 -0.98,-0.57 -2,-1.7 -2.17,-2.74l-0.12 -0.66c-0.39,-2.24 -0.57,-3.26 1.23,-5.69 0.36,-0.49 1.16,-0.79 2.21,-0.01 1.61,1.18 3.92,4.99 0.83,9.23 -0.07,0.09 -0.03,0.51 -0.01,0.75 0.01,0.21 0.03,0.42 0.03,0.63 0,0.54 -0.44,0.98 -0.98,0.98z"/>
  <path class="fil1" d="M78.56 91.94c-0.16,0 -0.32,-0.04 -0.47,-0.12 -0.45,-0.24 -0.63,-0.78 -0.44,-1.24 0.01,-0.15 0.01,-0.25 0,-0.31 -0.13,-0.08 -0.32,-0.2 -0.52,-0.39 -1.32,-1.24 -1.35,-3.51 -1.31,-4.42 0.11,-2.07 0.82,-3.81 1.92,-4.65 1,-0.77 0.99,-0.99 0.95,-1.92 -0.03,-0.54 -0.06,-1.21 0.09,-2.11 0.08,-0.54 0.59,-0.9 1.12,-0.82 0.54,0.09 0.9,0.59 0.82,1.13 -0.12,0.7 -0.09,1.24 -0.07,1.71 0.06,1.32 -0.03,2.28 -1.72,3.57 -0.6,0.46 -1.07,1.77 -1.14,3.19 -0.07,1.28 0.21,2.44 0.69,2.89 0.06,0.06 0.12,0.1 0.21,0.16 0.78,0.47 1.01,1.06 0.9,2.32 -0.01,0.14 -0.05,0.27 -0.11,0.39l-0.06 0.11c-0.18,0.33 -0.52,0.51 -0.86,0.51z"/>
  <path class="fil1" d="M78.56 90.82c-0.01,0 -0.01,-0.01 -0.02,-0.01 -0.54,-0.01 -0.97,-0.46 -0.96,-1 0.02,-0.83 0.48,-1.4 0.88,-1.91 0.68,-0.86 1.53,-1.92 0.98,-5.09 -0.19,-0.32 -0.72,-1.13 -0.86,-1.33 -0.29,-0.33 -0.34,-0.82 -0.08,-1.2 0.31,-0.45 0.92,-0.57 1.37,-0.26 0.27,0.19 1.42,1.96 1.48,2.28 0.76,4.17 -0.51,5.76 -1.35,6.82 -0.28,0.35 -0.45,0.57 -0.46,0.73 -0.01,0.54 -0.45,0.97 -0.98,0.97z"/>
  <path class="fil1" d="M42.06 110.6c-0.54,0 -0.98,-0.44 -0.98,-0.98l0 -10.94c0,-1.8 -0.12,-3.64 -0.23,-5.43 -0.11,-1.69 -0.21,-3.28 -0.21,-4.75 0,-0.48 -0.12,-3.8 -0.21,-5.2 -0.03,-0.54 0.38,-1.01 0.92,-1.04 0.53,-0.03 1.01,0.38 1.04,0.92 0.08,1.37 0.22,4.76 0.22,5.32 0,1.41 0.1,2.97 0.2,4.63 0.11,1.81 0.23,3.69 0.23,5.55l0 10.94c0,0.54 -0.44,0.98 -0.98,0.98z"/>
  <path class="fil1" d="M74.18 109.74c-0.5,0 -0.93,-0.38 -0.98,-0.89 -0.78,-8.09 -1.22,-22.07 -0.16,-25.57 0.16,-0.52 0.71,-0.81 1.23,-0.66 0.52,0.16 0.81,0.71 0.65,1.23 -0.88,2.89 -0.6,16.06 0.24,24.82 0.05,0.54 -0.34,1.02 -0.88,1.07 -0.04,0 -0.07,0 -0.1,0z"/>
  <path class="fil1" d="M24.73 110.08c-0.54,0 -0.98,-0.44 -0.98,-0.98 0,-0.84 0.67,-1.3 1.07,-1.58 0.09,-0.06 0.23,-0.16 0.27,-0.2 1.34,-1.51 3.76,-3.22 5.55,-4.4 4.7,-3.07 9.57,-6.92 10.08,-12.11 0.05,-0.54 0.53,-0.93 1.07,-0.88 0.54,0.05 0.94,0.53 0.88,1.07 -0.58,6.02 -5.86,10.23 -10.95,13.57 -2.39,1.56 -4.22,3 -5.16,4.05 -0.19,0.22 -0.43,0.38 -0.63,0.52 -0.08,0.05 -0.18,0.12 -0.24,0.17 -0.1,0.44 -0.49,0.77 -0.96,0.77z"/>
  <path class="fil1" d="M73.43 89.93c0,0 0,0 0,0 0,0 0,0 0,0zm19.75 17.44c-0.32,0 -0.62,-0.15 -0.81,-0.42 -0.72,-1.05 -3.78,-2.85 -6.24,-4.3 -2,-1.18 -3.88,-2.29 -4.84,-3.14 -0.94,-0.83 -2.37,-2.72 -3.89,-4.73 -1.36,-1.79 -3.4,-4.5 -4.07,-4.87 -0.48,-0.12 -0.81,-0.59 -0.73,-1.1 0.07,-0.53 0.57,-0.9 1.11,-0.83 1.03,0.15 2.26,1.66 5.26,5.62 1.39,1.84 2.83,3.74 3.62,4.44 0.82,0.73 2.71,1.84 4.54,2.92 3.03,1.78 5.9,3.47 6.86,4.88 0.3,0.45 0.19,1.06 -0.26,1.36 -0.17,0.12 -0.36,0.17 -0.55,0.17z"/>
  <path class="fil1" d="M58.62 114.05c-6.72,0 -10.74,-3.58 -16.15,-8.4l-1.06 -0.94c-0.41,-0.36 -0.45,-0.98 -0.09,-1.39 0.36,-0.41 0.98,-0.44 1.39,-0.08l1.07 0.94c5.86,5.22 9.39,8.38 16.23,7.85 4.19,-0.32 9.41,-2.54 11.64,-6.77l0.13 -0.25c0.23,-0.47 0.53,-1.06 0.94,-1.5 0.37,-0.39 0.99,-0.42 1.39,-0.04 0.4,0.37 0.42,0.99 0.04,1.38 -0.22,0.24 -0.45,0.7 -0.62,1.04l-0.14 0.28c-2.26,4.31 -7.46,7.38 -13.23,7.82 -0.53,0.04 -1.04,0.06 -1.54,0.06z"/>
  <path class="fil1" d="M31.45 58.1c-0.04,0 -0.07,-0.01 -0.11,-0.01 -0.52,-0.05 -0.89,-0.5 -0.88,-1.01 0,-0.14 0,-1.15 0,-2.3 0,-1.94 0.18,-3.77 0.35,-5.54l0.02 -0.19c0.08,-0.83 0.13,-1.57 0.18,-2.26 0.17,-2.4 0.3,-4.29 1.38,-7.18 1.58,-4.23 4.52,-9.46 7.24,-10.97 0.48,-0.27 1.07,-0.09 1.34,0.38 0.26,0.47 0.09,1.07 -0.39,1.34 -1.89,1.05 -4.63,5.32 -6.35,9.94 -0.98,2.62 -1.1,4.3 -1.26,6.62 -0.05,0.71 -0.1,1.47 -0.18,2.32l-0.02 0.19c-0.17,1.72 -0.34,3.5 -0.34,5.35 0,2.36 0,2.36 -0.01,2.44 -0.05,0.5 -0.48,0.88 -0.97,0.88z"/>
  <g>
   <path class="fil1" d="M30.58 56.13c0,0 0,0 0,0 0,0 0,0 0,0zm0.09 0.05l0.01 0 -0.01 0zm-0.53 1.81c-0.14,0 -0.29,-0.04 -0.43,-0.11 -1.24,-0.61 -3.81,-6.05 -4.06,-7.02 -0.43,-1.65 -0.38,-2.52 -0.34,-3.16 0.05,-0.67 0.07,-0.97 -0.74,-2.23 -1.29,-2.02 -0.63,-5.15 0.19,-7.48 -0.79,-2.97 0,-4.48 0.48,-5.39 0.07,-0.13 0.17,-0.3 0.2,-0.4 -0.86,-2.33 0.32,-7.59 2.35,-8.55 0.29,-0.13 0.41,-0.51 0.63,-1.39 0.74,-2.96 2.13,-5.96 10.11,-7.38 0.53,-0.09 1.04,0.26 1.14,0.8 0.09,0.53 -0.26,1.04 -0.8,1.14 -7.39,1.31 -8.05,3.97 -8.54,5.92 -0.25,1 -0.54,2.14 -1.7,2.69 -0.81,0.38 -2,4.47 -1.34,6.11 0.32,0.79 -0.03,1.45 -0.31,1.98 -0.4,0.77 -0.95,1.81 -0.25,4.23 0.09,0.31 0.01,0.54 -0.07,0.76 -0.96,2.68 -1.12,4.83 -0.43,5.9 1.07,1.68 1.11,2.41 1.04,3.42 -0.03,0.56 -0.07,1.19 0.28,2.53 0.27,1.02 2.45,5.2 3.11,5.81 0.43,0.26 0.59,0.81 0.36,1.27 -0.17,0.35 -0.51,0.55 -0.88,0.55z"/>
  </g>
  <path class="fil1" d="M32.31 27.66c-0.02,0 -0.05,0 -0.08,0 -0.54,-0.04 -0.94,-0.52 -0.9,-1.06 0.1,-1.31 1.35,-3.54 2.97,-4.64 0.96,-0.64 1.94,-0.83 2.85,-0.55 0.52,0.16 0.81,0.71 0.65,1.23 -0.16,0.52 -0.71,0.81 -1.23,0.65 -0.33,-0.11 -0.72,0 -1.16,0.3 -1.13,0.76 -2.06,2.45 -2.12,3.17 -0.04,0.51 -0.47,0.9 -0.98,0.9z"/>
  <path class="fil1" d="M32.67 31.22c-0.86,0 -1.63,-0.15 -2.36,-0.29 -0.63,-0.12 -1.22,-0.23 -1.79,-0.23 -0.54,0 -0.98,-0.44 -0.98,-0.99 0,-0.54 0.44,-0.98 0.98,-0.98 0.76,0 1.47,0.14 2.16,0.27 1.34,0.26 2.61,0.5 4.27,-0.29 0.08,-0.04 0.16,-0.06 0.24,-0.08l0.51 -0.1c0.53,-0.1 1.04,0.24 1.15,0.78 0.1,0.53 -0.24,1.05 -0.78,1.15l-0.39 0.08c-1.12,0.51 -2.11,0.68 -3.01,0.68z"/>
  <path class="fil1" d="M25.78 39.01c-0.19,0 -0.38,-0.06 -0.55,-0.18 -0.45,-0.31 -0.56,-0.92 -0.25,-1.36 1.1,-1.6 2.29,-1.52 3.16,-1.47 0.94,0.07 1.82,0.13 3.48,-2.2 0.31,-0.44 0.93,-0.54 1.37,-0.23 0.44,0.32 0.54,0.93 0.23,1.37 -2.12,2.97 -3.68,3.12 -5.21,3.02 -0.73,-0.04 -0.95,-0.06 -1.42,0.62 -0.19,0.28 -0.49,0.43 -0.81,0.43z"/>
  <path class="fil1" d="M27.65 43.37c-0.43,0 -0.83,-0.3 -0.95,-0.74 -0.13,-0.53 0.18,-1.06 0.71,-1.2 0.24,-0.12 0.89,-1.06 1.26,-1.88 0.22,-0.49 0.81,-0.71 1.3,-0.48 0.49,0.22 0.71,0.81 0.49,1.3 -0.29,0.61 -1.3,2.64 -2.56,2.97 -0.08,0.02 -0.17,0.03 -0.25,0.03z"/>
  <path class="fil1" d="M47.26 29.57c-1.07,0 -2.05,-0.12 -2.64,-0.31 -0.4,-0.09 -0.79,-0.16 -1.18,-0.23 -2.69,-0.49 -5.74,-1.04 -6.14,-4.71 -0.17,-1.51 0.14,-2.04 0.55,-2.58 0.23,-0.3 0.52,-0.68 0.52,-2.67 0,-3.7 4.62,-9.83 9.54,-9.83 4.35,0 5.14,0.85 5.91,2.27 0.33,0.6 0.64,1.17 1.82,1.83 2.02,1.13 2.69,5.76 2.02,7.96 -0.16,0.52 -0.71,0.82 -1.22,0.66 -0.52,-0.16 -0.82,-0.71 -0.66,-1.23 0.54,-1.78 -0.24,-5.2 -1.1,-5.67 -1.67,-0.94 -2.2,-1.9 -2.58,-2.61 -0.43,-0.78 -0.69,-1.25 -4.19,-1.25 -3.68,0 -7.58,5.12 -7.58,7.87 0,2.45 -0.43,3.22 -0.92,3.86 -0.17,0.23 -0.25,0.33 -0.16,1.17 0.24,2.12 1.72,2.49 4.54,3 0.42,0.08 0.86,0.15 1.29,0.24 0.04,0.01 0.08,0.02 0.12,0.04 0.98,0.34 4.14,0.38 5.36,-0.4 0.06,-0.04 0.26,-0.17 0.27,-0.28 0.05,-0.54 0.53,-0.94 1.07,-0.89 0.54,0.05 0.93,0.53 0.88,1.07 -0.04,0.49 -0.28,1.19 -1.16,1.75 -1.06,0.68 -2.81,0.94 -4.36,0.94z"/>
  <g>
   <path class="fil1" d="M45.43 20.98l0 0 0 0zm0.87 2.35c-0.09,0 -0.18,-0.02 -0.27,-0.04 -1.27,-0.36 -2.07,-0.85 -2.36,-1.43l-0.05 -0.1c-1.73,-3.48 -2.05,-4.48 1.4,-6.54 0.47,-0.27 1.07,-0.12 1.35,0.34 0.28,0.47 0.12,1.07 -0.34,1.35 -0.58,0.35 -1.66,0.99 -1.72,1.33 -0.06,0.38 0.44,1.38 1.07,2.65l0.01 0.02c0.13,0.09 0.52,0.3 1.18,0.49 0.52,0.15 0.82,0.69 0.67,1.21 -0.12,0.44 -0.51,0.72 -0.94,0.72z"/>
  </g>
  <path class="fil1" d="M52.54 19.97c-0.14,0 -0.28,-0.03 -0.42,-0.09 -0.49,-0.24 -0.7,-0.82 -0.47,-1.31 0.24,-0.49 0.19,-1.5 -0.36,-2.41 -0.32,-0.53 -1.07,-1.43 -2.48,-1.5 -0.54,-0.02 -0.96,-0.48 -0.93,-1.02 0.02,-0.55 0.48,-0.96 1.02,-0.94 1.7,0.08 3.18,0.97 4.07,2.44 0.83,1.38 1.01,3.1 0.46,4.27 -0.17,0.35 -0.52,0.56 -0.89,0.56z"/>
  <path class="fil1" d="M49.2 24.41c-0.18,0 -0.37,-0.05 -0.54,-0.16 -0.45,-0.3 -0.57,-0.91 -0.27,-1.36 0.4,-0.61 0.05,-2.91 -0.48,-3.85 -0.26,-0.48 -0.09,-1.08 0.38,-1.34 0.48,-0.26 1.08,-0.09 1.34,0.38 0.67,1.19 1.41,4.36 0.4,5.89 -0.19,0.29 -0.51,0.44 -0.83,0.44z"/>
  <g>
   <path class="fil1" d="M60.04 23.75l0 0 0 0zm-0.72 5.14c-1.6,0 -3.35,-0.55 -4.06,-1.88 -0.32,-0.61 -0.66,-1.86 0.73,-3.43 1.12,-1.27 2.85,-0.44 3.78,0 0.13,0.06 0.31,0.14 0.4,0.18 0.48,0.06 0.85,0.47 0.85,0.97 0,0.54 -0.44,0.98 -0.98,0.98 -0.35,0 -0.67,-0.15 -1.11,-0.36 -0.3,-0.14 -1.22,-0.57 -1.48,-0.47 -0.25,0.29 -0.65,0.84 -0.46,1.21 0.29,0.52 1.58,0.98 2.98,0.79 0.67,-0.09 2.26,-0.46 2.6,-1.97 0.49,-2.14 0.38,-2.19 -0.97,-2.72 -0.2,-0.08 -0.42,-0.17 -0.65,-0.26 -2.22,-0.95 -4.31,0.53 -4.9,1 -1.21,0.98 -1.61,1.97 -1.56,2.2 0.14,0.52 -0.17,1.06 -0.7,1.2 -0.52,0.14 -1.06,-0.17 -1.2,-0.69 -0.37,-1.38 0.84,-3.04 1.99,-4.04 2.19,-1.9 4.86,-2.46 7.14,-1.48 0.22,0.09 0.42,0.17 0.61,0.24 1.88,0.75 2.96,1.45 2.16,4.98 -0.43,1.88 -2.02,3.19 -4.26,3.49 -0.29,0.04 -0.6,0.06 -0.91,0.06z"/>
  </g>
  <path class="fil1" d="M64.69 20.08c-0.54,0 -0.98,-0.44 -0.98,-0.98 0,-2.72 1.97,-4.74 5.15,-5.28 2.77,-0.47 6.19,0.35 7.05,2.81 0.01,0.04 0.02,0.07 0.03,0.1 0.39,0.35 0.44,0.96 0.11,1.36 -0.35,0.42 -0.95,0.49 -1.37,0.14 -0.38,-0.32 -0.49,-0.58 -0.62,-0.94 -0.42,-1.21 -2.65,-1.91 -4.87,-1.53 -0.83,0.14 -3.51,0.79 -3.51,3.34 0,0.54 -0.44,0.98 -0.99,0.98z"/>
  <path class="fil1" d="M75.2 29.18c-0.54,0 -0.98,-0.44 -0.98,-0.98 0,-0.55 0.44,-0.99 0.98,-0.99 0.58,0 1.4,-1.26 1.4,-2.44 0,-1.65 -0.58,-2.92 -1.71,-3.78 -1.56,-1.17 -4.07,-1.45 -6.57,-0.73 -0.52,0.15 -1.06,-0.15 -1.21,-0.67 -0.15,-0.52 0.15,-1.07 0.67,-1.22 3.12,-0.9 6.22,-0.5 8.29,1.05 1.63,1.23 2.49,3.08 2.49,5.35 0,1.84 -1.28,4.41 -3.36,4.41z"/>
  <path class="fil1" d="M68.36 31.6c-1.02,0 -1.99,-0.21 -2.87,-0.62 -1.71,-0.8 -2.96,-2.33 -3.52,-4.31 -0.14,-0.52 0.16,-1.06 0.68,-1.21 0.53,-0.14 1.07,0.16 1.22,0.68 0.4,1.44 1.25,2.5 2.45,3.06 1.35,0.63 3.05,0.57 4.68,-0.17 0.5,-0.22 1.08,0 1.3,0.5 0.23,0.49 0.01,1.07 -0.49,1.3 -1.14,0.51 -2.32,0.77 -3.45,0.77z"/>
  <path class="fil1" d="M70.48 27.21c-1.66,0 -3.02,-0.88 -4.41,-2.2 -0.39,-0.37 -0.41,-1 -0.03,-1.39 0.37,-0.39 1,-0.41 1.39,-0.03 1.96,1.86 3.12,2.1 5.15,1.03 0.48,-0.25 1.07,-0.07 1.32,0.41 0.25,0.48 0.07,1.08 -0.41,1.33 -1.13,0.59 -2.11,0.85 -3.01,0.85z"/>
  <path class="fil1" d="M77.15 34.77c-0.07,0 -0.14,0 -0.2,-0.01 -2.12,-0.07 -3.5,-1.37 -3.6,-3.38 -0.02,-0.54 0.39,-1 0.94,-1.02 0.54,-0.02 1,0.39 1.02,0.93 0.05,0.96 0.62,1.47 1.71,1.51 1.36,0.06 2.85,-0.75 2.95,-1.58 0.34,-2.73 -0.11,-2.8 -1.98,-3.11 -0.39,-0.06 -0.81,-0.13 -1.24,-0.22 -0.53,-0.12 -0.87,-0.65 -0.75,-1.18 0.12,-0.53 0.65,-0.86 1.18,-0.74 0.39,0.09 0.77,0.15 1.12,0.21 2.38,0.38 4.15,1.01 3.62,5.28 -0.25,2.02 -2.63,3.31 -4.77,3.31z"/>
  <path class="fil1" d="M58.09 15.64c-0.4,0 -0.77,-0.24 -0.92,-0.63 -0.19,-0.5 0.06,-1.07 0.56,-1.27 2.39,-0.92 3.03,-1.67 2.75,-3.24 -0.4,-2.2 -1.77,-3.12 -2.85,-3.49 -1.75,-0.62 -4.02,-0.26 -5.27,0.84 -0.62,0.54 -0.87,1.16 -0.73,1.85 0.11,0.53 -0.23,1.05 -0.76,1.16 -0.54,0.1 -1.06,-0.24 -1.16,-0.77 -0.29,-1.38 0.2,-2.71 1.36,-3.72 1.77,-1.55 4.81,-2.06 7.21,-1.22 2.23,0.78 3.69,2.56 4.13,5 0.66,3.64 -2.47,4.85 -3.97,5.43 -0.12,0.04 -0.24,0.06 -0.35,0.06z"/>
  <path class="fil1" d="M57.33 12.82c-0.32,0 -0.6,-0.23 -0.65,-0.55 -0.05,-0.34 0.17,-0.66 0.49,-0.74 0.14,-0.14 0.28,-0.75 0.02,-1.27 -0.4,-0.83 -1.48,-0.78 -2.32,-0.59 -0.35,0.08 -0.7,-0.15 -0.78,-0.5 -0.08,-0.35 0.14,-0.7 0.5,-0.78 1.9,-0.43 2.91,0.16 3.41,0.74 0.72,0.81 0.76,1.92 0.49,2.67 -0.2,0.57 -0.59,0.94 -1.06,1.01 -0.03,0.01 -0.07,0.01 -0.1,0.01z"/>
  <path class="fil1" d="M65.45 14.99c-0.3,0 -0.59,-0.13 -0.78,-0.39 -2.33,-3.09 -3.1,-7.53 -0.07,-10.02 0.96,-0.79 3.52,-0.78 4.73,-0.67 3.27,0.32 3.95,1.6 4.99,3.54 0.12,0.24 0.25,0.48 0.4,0.74 1.16,2.11 0.97,3.94 -0.57,5.45 -0.17,0.17 -0.35,0.29 -1.41,0.56 -0.53,0.14 -1.06,-0.18 -1.2,-0.7 -0.14,-0.53 0.18,-1.06 0.71,-1.2 0.27,-0.07 0.51,-0.14 0.65,-0.19 0.8,-0.84 0.82,-1.66 0.1,-2.97 -0.15,-0.27 -0.29,-0.52 -0.41,-0.76 -0.97,-1.81 -1.23,-2.3 -3.45,-2.51 -1.65,-0.16 -3.04,0.07 -3.31,0.24 -2.29,1.88 -0.97,5.48 0.41,7.31 0.32,0.43 0.24,1.05 -0.2,1.37 -0.17,0.14 -0.38,0.2 -0.59,0.2z"/>
  <path class="fil1" d="M72.49 13.91c-0.02,0 -0.05,-0.01 -0.07,-0.01 -0.86,-0.09 -1.43,-0.38 -1.74,-0.87 -0.47,-0.74 -0.17,-1.62 0.07,-2.33 0.1,-0.29 0.23,-0.68 0.21,-0.83 -0.02,-0.17 -0.47,-0.74 -1.17,-0.84 -1,-0.13 -1.99,0.8 -2.76,2.63 -0.14,0.34 -0.53,0.5 -0.86,0.35 -0.33,-0.14 -0.49,-0.52 -0.35,-0.86 1.4,-3.29 3.21,-3.55 4.17,-3.42 1.24,0.18 2.18,1.17 2.28,1.99 0.05,0.45 -0.11,0.91 -0.28,1.4 -0.14,0.42 -0.34,1 -0.21,1.2 0.03,0.05 0.18,0.21 0.78,0.28 0.36,0.04 0.62,0.36 0.58,0.72 -0.04,0.34 -0.32,0.59 -0.65,0.59z"/>
  <path class="fil1" d="M85.81 24.63c-0.54,0 -0.98,-0.44 -0.98,-0.98 0,-0.54 0.44,-0.98 0.98,-0.98 0.02,0 0.04,0 0.06,0 0,-0.01 0.01,-0.02 0.01,-0.03 0.72,-1.81 -0.04,-2.5 -1.45,-3.56 -1,-0.76 -2.38,-1.8 -1.73,-3.57 0.76,-2.08 0.6,-3.7 -0.47,-4.82 -1.33,-1.39 -3.93,-1.78 -5.54,-1.27 -0.58,0.19 -0.87,0.45 -0.9,0.62 -0.08,0.54 -0.58,0.91 -1.12,0.83 -0.53,-0.09 -0.9,-0.59 -0.82,-1.12 0.15,-1.01 0.95,-1.79 2.25,-2.2 2.2,-0.7 5.63,-0.23 7.55,1.78 1.12,1.18 2.19,3.32 0.89,6.86 -0.12,0.31 0.01,0.52 1.08,1.33 1.27,0.95 3.39,2.56 2.09,5.84 -0.42,1.05 -1.06,1.27 -1.9,1.27z"/>
  <path class="fil1" d="M80.51 18.78c-0.17,0 -0.33,-0.06 -0.46,-0.18 -0.23,-0.23 -0.79,-0.76 -1.16,-0.98 -0.99,-0.59 -1.26,-1.81 -1.49,-2.89 -0.35,-1.62 -0.54,-1.81 -1.1,-1.7 -0.35,0.07 -0.7,-0.16 -0.77,-0.52 -0.07,-0.35 0.16,-0.7 0.52,-0.77 1.96,-0.38 2.36,1.48 2.63,2.71 0.18,0.86 0.38,1.75 0.88,2.05 0.44,0.26 0.95,0.73 1.4,1.15 0.26,0.25 0.27,0.66 0.02,0.93 -0.13,0.13 -0.3,0.2 -0.47,0.2z"/>
  <path class="fil1" d="M80.6 22.3c-0.05,0 -0.1,0 -0.15,0 -0.36,-0.03 -0.63,-0.35 -0.6,-0.71 0.03,-0.36 0.35,-0.63 0.71,-0.6 0.12,0.01 0.18,-0.02 0.23,-0.07 0.2,-0.17 0.44,-0.74 0.47,-1.76 0.06,-1.99 -0.19,-2.45 -0.46,-2.94 -0.21,-0.4 -0.46,-0.86 -0.58,-1.82 -0.05,-0.36 0.2,-0.69 0.56,-0.74 0.36,-0.04 0.69,0.21 0.73,0.57 0.1,0.72 0.26,1.02 0.44,1.36 0.4,0.74 0.68,1.43 0.62,3.59 -0.03,0.9 -0.2,2.09 -0.9,2.72 -0.3,0.27 -0.67,0.4 -1.07,0.4z"/>
  <path class="fil2" d="M47.73 57.7c0.93,-0.04 1.72,0.67 1.77,1.6 0.04,0.93 -0.68,1.72 -1.61,1.76 -0.93,0.05 -1.71,-0.67 -1.76,-1.6 -0.04,-0.93 0.67,-1.72 1.6,-1.76z"/>
  <path class="fil2" d="M68.67 58.27c0.93,-0.04 1.72,0.68 1.76,1.61 0.05,0.93 -0.67,1.71 -1.6,1.76 -0.93,0.04 -1.72,-0.67 -1.76,-1.6 -0.05,-0.93 0.67,-1.72 1.6,-1.77z"/>
  <path class="fil1" d="M89.88 45.95c-0.1,0 -0.2,-0.02 -0.29,-0.06 -1.26,-0.62 -2.19,-1.25 -3.02,-2.05 -0.14,-0.13 -0.29,-0.34 -0.54,-0.69 -0.92,-1.3 -3.09,-4.34 -6.1,-4.53 -0.36,-0.02 -0.64,-0.33 -0.61,-0.69 0.02,-0.36 0.33,-0.63 0.69,-0.61 3.63,0.22 6.05,3.62 7.09,5.07 0.15,0.21 0.32,0.45 0.38,0.51 0.74,0.7 1.54,1.25 2.69,1.81 0.32,0.16 0.46,0.55 0.3,0.88 -0.12,0.23 -0.35,0.36 -0.59,0.36z"/>
  <path class="fil1" d="M46.9 63.02c-2.54,0 -4.05,-1.09 -4.62,-3.32 -0.08,-0.35 0.13,-0.71 0.48,-0.79 0.35,-0.1 0.71,0.12 0.79,0.47 0.32,1.26 1.04,2.52 4,2.3 0.35,-0.03 0.67,0.25 0.7,0.61 0.02,0.36 -0.25,0.67 -0.61,0.7 -0.25,0.02 -0.5,0.03 -0.74,0.03z"/>
  <path class="fil1" d="M69.3 63.48c-0.35,0 -0.64,-0.28 -0.66,-0.63 -0.01,-0.36 0.27,-0.66 0.63,-0.68 3.01,-0.13 3.64,-2.27 3.7,-2.51 0.09,-0.36 0.45,-0.57 0.8,-0.48 0.35,0.09 0.56,0.45 0.47,0.8 -0.39,1.53 -1.91,3.37 -4.91,3.5 -0.01,0 -0.02,0 -0.03,0z"/>
  <path class="fil1" d="M45.42 36.49c-0.31,0 -0.58,-0.21 -0.65,-0.53 -0.17,-0.85 -2.43,-2.25 -4.64,-1.86 -0.35,0.07 -0.69,-0.17 -0.75,-0.53 -0.07,-0.36 0.17,-0.69 0.53,-0.76 2.76,-0.49 5.8,1.22 6.15,2.89 0.07,0.36 -0.16,0.7 -0.51,0.77 -0.05,0.01 -0.09,0.02 -0.13,0.02z"/>
 </g>
</svg>
