<?xml version="1.0" encoding="UTF-8"?>
<!DOCTYPE svg PUBLIC "-//W3C//DTD SVG 1.1//EN" "http://www.w3.org/Graphics/SVG/1.1/DTD/svg11.dtd">
<!-- Creator: CorelDRAW 2018 (64-Bit) -->
<svg xmlns="http://www.w3.org/2000/svg" xml:space="preserve" width="845px" height="845px" version="1.1" style="shape-rendering:geometricPrecision; text-rendering:geometricPrecision; image-rendering:optimizeQuality; fill-rule:evenodd; clip-rule:evenodd"
viewBox="0 0 117.14 117.14"
 xmlns:xlink="http://www.w3.org/1999/xlink">
 <defs>
  <style type="text/css">
   <![CDATA[
    .fil0 {fill:none}
    .fil2 {fill:black}
    .fil1 {fill:black;fill-rule:nonzero}
   ]]>
  </style>
 </defs>
 <g id="Слой_x0020_1">
  <metadata id="CorelCorpID_0Corel-Layer"/>
  <rect class="fil0" width="117.14" height="117.14"/>
 </g>
 <g id="_1">
  <metadata id="CorelCorpID_1Corel-Layer"/>
  <path class="fil1" d="M43.87 84.18c-4.25,0 -6.36,-2.22 -9.68,-6.12 -3.46,-4.08 -4.71,-12.66 -4.71,-17.44 0,-2.2 0.24,-4.53 0.47,-6.79 0.39,-3.86 0.8,-7.84 -0.03,-10.99 -0.63,-2.41 -0.25,-3.8 0.08,-4.63 0.38,-0.93 0.48,-1.84 0.61,-2.9 0.05,-0.48 0.11,-0.98 0.2,-1.5l0.29 -1.78c1.07,-6.51 4.57,-10.7 10.12,-12.12 0.52,-0.13 1.06,0.19 1.19,0.71 0.13,0.53 -0.18,1.06 -0.71,1.2 -4.8,1.22 -7.71,4.76 -8.66,10.52l-0.3 1.78c-0.08,0.5 -0.13,0.97 -0.18,1.42 -0.13,1.14 -0.26,2.23 -0.73,3.4 -0.24,0.58 -0.49,1.56 -0.01,3.4 0.92,3.49 0.5,7.66 0.08,11.69 -0.22,2.21 -0.46,4.49 -0.46,6.59 0,5.41 1.49,12.92 4.25,16.17 3.93,4.62 5.55,6.54 12.7,4.75 0.49,-0.13 1.04,-0.39 1.69,-0.69 1.34,-0.64 3,-1.42 5.52,-1.73 1.38,-0.17 6.5,-2.6 7.42,-3.66 0.1,-0.11 0.17,-0.15 0.24,-0.21 1.14,-0.76 2.02,-1.45 2.34,-1.84 0.34,-0.42 0.96,-0.47 1.38,-0.13 0.42,0.35 0.48,0.97 0.13,1.38 -0.57,0.69 -1.77,1.56 -2.7,2.19 -1.45,1.52 -6.92,4.01 -8.57,4.22 -2.2,0.27 -3.65,0.95 -4.92,1.55 -0.74,0.35 -1.37,0.65 -2.05,0.82 -1.97,0.5 -3.6,0.74 -5,0.74z"/>
  <path class="fil1" d="M40.95 63.38c-0.39,0 -0.8,-0.06 -1.24,-0.21 -1.5,-0.54 -2.5,-1.35 -2.99,-2.41 -0.5,-1.09 -0.45,-2.38 0.15,-3.94 0.22,-0.67 2.23,-10.27 2.33,-11.15 0.18,-1.54 -0.03,-3.34 -0.69,-3.68 -2.61,-1.38 -3.43,-1.14 -6.44,0.69 -0.46,0.29 -1.06,0.14 -1.35,-0.32 -0.28,-0.47 -0.13,-1.07 0.33,-1.35 3.3,-2.02 4.88,-2.6 8.37,-0.76 2.09,1.09 1.85,4.6 1.73,5.65 -0.1,0.87 -2.16,10.91 -2.45,11.64 -0.39,1.02 -0.46,1.83 -0.19,2.4 0.25,0.57 0.88,1.03 1.86,1.37 0.6,0.22 1.11,0.07 2.02,-0.23 0.3,-0.09 0.6,-0.19 0.92,-0.28 1.06,-0.29 1.87,-0.23 2.51,-0.18 0.82,0.07 1.19,0.09 1.88,-0.54 0.17,-0.15 0.38,-0.39 0.4,-0.65 0,-0.3 -0.42,-1.05 -0.69,-1.24 -0.48,-0.02 -0.89,-0.4 -0.93,-0.89 -0.05,-0.54 0.35,-1.02 0.89,-1.07 0.37,-0.03 0.93,0.06 1.53,0.67 0.63,0.63 1.24,1.83 1.16,2.72 -0.07,0.69 -0.43,1.36 -1.03,1.91 -1.32,1.21 -2.4,1.12 -3.36,1.05 -0.57,-0.04 -1.11,-0.08 -1.85,0.12 -0.28,0.07 -0.55,0.16 -0.81,0.25 -0.66,0.21 -1.33,0.43 -2.06,0.43z"/>
  <path class="fil1" d="M33.09 46.51c-0.22,0 -0.45,-0.07 -0.63,-0.23 -0.42,-0.35 -0.47,-0.97 -0.12,-1.38 2.22,-2.64 4.19,-1.91 5.94,-1.27 0.44,0.16 0.9,0.33 1.37,0.45 0.52,0.14 0.84,0.67 0.71,1.2 -0.14,0.52 -0.67,0.84 -1.2,0.71 -0.57,-0.15 -1.1,-0.34 -1.56,-0.52 -1.62,-0.59 -2.43,-0.89 -3.76,0.69 -0.19,0.23 -0.47,0.35 -0.75,0.35z"/>
  <path class="fil1" d="M60.01 47.16c-0.28,0 -0.55,-0.11 -0.75,-0.34 -2.11,-2.45 -3.68,-2.36 -4.67,-2.08 -0.74,0.21 -1.35,0.61 -2,1.04 -0.91,0.6 -1.95,1.28 -3.33,1.3 -0.01,0 -0.01,0 -0.02,0 -0.53,0 -0.97,-0.43 -0.98,-0.97 -0.01,-0.54 0.42,-0.99 0.96,-1 0.82,-0.01 1.47,-0.44 2.29,-0.98 0.71,-0.46 1.52,-0.99 2.54,-1.28 2.34,-0.66 4.59,0.24 6.7,2.69 0.36,0.41 0.31,1.03 -0.1,1.39 -0.18,0.16 -0.41,0.23 -0.64,0.23z"/>
  <path class="fil1" d="M45.77 45.94c-0.06,0 -0.12,0 -0.19,-0.02 -0.53,-0.1 -0.87,-0.62 -0.77,-1.15 0.06,-0.3 0.11,-0.61 0.17,-0.91 0.33,-1.88 0.67,-3.83 2.24,-4.84 1.04,-0.66 4.32,-1.65 5.56,-1.82l0.4 -0.05c0.8,-0.12 1.63,-0.24 2.4,-0.14 1.89,0.26 3.38,1.29 5.11,2.47l0.17 0.12c0.45,0.31 0.56,0.92 0.25,1.36 -0.3,0.45 -0.92,0.57 -1.36,0.26l-0.17 -0.12c-1.65,-1.13 -2.84,-1.94 -4.27,-2.14 -0.49,-0.07 -1.18,0.03 -1.85,0.13l-0.42 0.06c-1.16,0.16 -4.09,1.1 -4.75,1.53 -0.85,0.54 -1.11,1.99 -1.38,3.52 -0.05,0.32 -0.11,0.63 -0.17,0.95 -0.09,0.47 -0.51,0.79 -0.97,0.79z"/>
  <path class="fil1" d="M76.62 36.29c-2.03,0 -4.16,-0.18 -5.45,-0.61 -1.81,-0.62 -3.67,-1.42 -4.64,-3.88 -0.2,-0.5 0.04,-1.08 0.55,-1.28 0.51,-0.2 1.07,0.05 1.27,0.56 0.61,1.53 1.64,2.12 3.45,2.74 1.88,0.63 6.37,0.6 8.48,0.27 0.54,-0.08 1.04,0.29 1.12,0.82 0.09,0.54 -0.28,1.04 -0.82,1.12 -0.99,0.16 -2.45,0.26 -3.96,0.26z"/>
  <path class="fil1" d="M77.3 48.67c-0.66,0 -1.43,-0.15 -2.32,-0.53 -4.2,-1.81 -5.69,-5.12 -6.68,-7.31 -0.38,-0.84 -0.77,-1.7 -1.1,-1.93 -0.45,-0.3 -0.58,-0.91 -0.27,-1.36 0.3,-0.45 0.91,-0.57 1.36,-0.27 0.8,0.53 1.24,1.51 1.8,2.76 0.97,2.14 2.17,4.8 5.66,6.3 1.79,0.77 2.54,0.15 2.79,-0.06 0.42,-0.34 1.04,-0.29 1.38,0.13 0.35,0.42 0.29,1.04 -0.13,1.38 -0.55,0.46 -1.36,0.89 -2.49,0.89z"/>
  <path class="fil1" d="M70.38 49.3c0,0 0,0 0,0 0,0 0,0 0,0zm6.9 6.44c-0.23,0 -0.48,-0.02 -0.75,-0.04 -0.12,-0.01 -0.22,-0.02 -0.28,-0.02 -4.3,0.06 -5.42,-4.4 -5.85,-6.08 -0.05,-0.19 -0.09,-0.35 -0.12,-0.45 -0.24,-0.4 -0.16,-0.93 0.21,-1.24 0.41,-0.35 1.03,-0.3 1.38,0.11 0.21,0.25 0.28,0.53 0.43,1.09 0.58,2.28 1.5,4.61 3.86,4.61 0.03,0 0.05,0 0.08,0 0.11,0 0.26,0.01 0.43,0.02 0.16,0.01 0.49,0.03 0.71,0.03 0.19,-0.2 0.47,-0.31 0.77,-0.29 0.54,0.04 0.94,0.51 0.91,1.05 -0.03,0.32 -0.17,0.61 -0.42,0.82 -0.35,0.3 -0.81,0.39 -1.36,0.39z"/>
  <path class="fil1" d="M46.84 21.36c-0.53,0 -0.96,-0.41 -0.99,-0.94 -0.04,-1.17 0.85,-1.82 1.63,-2.39 0.91,-0.66 1.7,-1.23 1.7,-2.53 0,-0.24 -0.55,-0.85 -1.59,-1.16 -0.57,-0.17 -2.54,-0.59 -3.72,1.2 -0.3,0.45 -0.9,0.58 -1.36,0.28 -0.45,-0.3 -0.58,-0.91 -0.28,-1.36 1.53,-2.32 4.07,-2.56 5.93,-2 1.78,0.53 2.98,1.76 2.98,3.04 0,2.31 -1.5,3.4 -2.5,4.12 -0.29,0.21 -0.78,0.57 -0.82,0.72 0.02,0.54 -0.4,1 -0.94,1.02 -0.02,0 -0.03,0 -0.04,0z"/>
  <path class="fil1" d="M55.08 22.45c-0.3,0 -0.61,-0.15 -0.8,-0.42 -0.31,-0.44 -0.21,-1.05 0.24,-1.37 0.89,-0.63 1.78,-1.13 2.64,-1.62 1.95,-1.1 3.62,-2.05 4.6,-4.02 0.4,-0.82 0.18,-1.17 0.11,-1.29 -0.51,-0.82 -2.53,-1.31 -4.19,-1.31 -0.54,0 -0.98,-0.44 -0.98,-0.98 0,-0.55 0.44,-0.99 0.98,-0.99 0.46,0 4.51,0.07 5.86,2.24 0.39,0.64 0.71,1.71 -0.02,3.2 -1.24,2.51 -3.35,3.7 -5.39,4.86 -0.82,0.47 -1.66,0.95 -2.48,1.52 -0.17,0.12 -0.37,0.18 -0.57,0.18z"/>
  <path class="fil1" d="M51.12 20.66c-0.24,0 -0.47,-0.13 -0.58,-0.35 -0.17,-0.32 -0.05,-0.72 0.27,-0.88 2.06,-1.09 4.16,-3.01 3.89,-4.64 -0.06,-0.35 0.18,-0.69 0.54,-0.75 0.36,-0.06 0.69,0.18 0.75,0.54 0.52,3.14 -3.71,5.55 -4.57,6 -0.1,0.06 -0.2,0.08 -0.3,0.08z"/>
  <path class="fil1" d="M62.65 21.18c-0.13,0 -0.25,-0.04 -0.36,-0.11 -0.31,-0.2 -0.39,-0.61 -0.19,-0.91 0.49,-0.74 1.64,-1.32 2.86,-1.93 0.77,-0.39 1.56,-0.79 1.94,-1.13 0.78,-0.69 1.22,-1.53 1.1,-2.09 -0.07,-0.37 -0.41,-0.64 -1,-0.83 -0.34,-0.11 -0.53,-0.48 -0.42,-0.83 0.11,-0.34 0.47,-0.53 0.82,-0.42 1.33,0.43 1.76,1.22 1.89,1.81 0.21,1.03 -0.37,2.31 -1.52,3.34 -0.51,0.45 -1.34,0.87 -2.22,1.32 -0.92,0.46 -2.06,1.04 -2.36,1.48 -0.12,0.19 -0.33,0.3 -0.54,0.3z"/>
  <path class="fil1" d="M66.28 23.31c-0.55,0 -0.99,-0.44 -0.99,-0.98 0,-0.54 0.44,-0.98 0.99,-0.98 1.64,0 3.32,-0.7 4.94,-1.38l0.64 -0.27c0.85,-0.35 1.73,-1.2 1.81,-1.75 0.01,-0.08 0.03,-0.18 -0.17,-0.34 -0.42,-0.34 -0.49,-0.96 -0.14,-1.38 0.34,-0.42 0.96,-0.49 1.38,-0.14 0.68,0.55 1,1.31 0.88,2.14 -0.21,1.42 -1.71,2.75 -3.02,3.29l-0.62 0.26c-1.8,0.75 -3.66,1.53 -5.7,1.53z"/>
  <path class="fil1" d="M76.43 29.1c-1.01,0 -2.25,-0.14 -3.55,-0.28 -1.46,-0.16 -3.91,-0.43 -4.43,-0.16 -0.42,0.34 -1.02,0.27 -1.36,-0.15 -0.35,-0.41 -0.27,-1.05 0.15,-1.39 0.9,-0.75 2.72,-0.59 5.85,-0.25 1.62,0.18 3.45,0.38 4.18,0.2 1.45,-0.35 3.26,-1.34 3.58,-2.97 0.13,-0.66 0.07,-1.15 -0.18,-1.47 -0.35,-0.45 -1.07,-0.59 -1.62,-0.62 -0.54,-0.03 -0.96,-0.49 -0.93,-1.03 0.04,-0.54 0.5,-0.96 1.04,-0.93 1.73,0.1 2.62,0.8 3.06,1.37 0.42,0.54 0.86,1.51 0.56,3.05 -0.5,2.55 -2.94,4 -5.05,4.51 -0.35,0.09 -0.8,0.12 -1.3,0.12z"/>
  <path class="fil1" d="M23 58.01c-0.27,0 -0.52,-0.03 -0.74,-0.08 -1.37,-0.33 -2.43,-1.16 -2.92,-2.29 -0.39,-0.87 -0.6,-2.34 0.53,-4.38 0.27,-0.47 0.87,-0.64 1.34,-0.38 0.47,0.27 0.64,0.87 0.38,1.34 -0.59,1.06 -0.75,1.97 -0.46,2.64 0.25,0.55 0.82,0.97 1.59,1.16 1.51,0.36 5.9,-1.96 6.92,-3.21 0.34,-0.42 0.96,-0.48 1.38,-0.14 0.42,0.34 0.48,0.96 0.14,1.38 -1.16,1.43 -5.52,3.96 -8.16,3.96z"/>
  <path class="fil1" d="M24.27 50.05c-0.09,0 -0.17,-0.01 -0.26,-0.01 -0.56,-0.06 -1.36,-0.33 -2.03,-1.31 -0.76,-1.11 -0.45,-2.61 0.23,-3.46 0.65,-0.81 1.61,-1.09 2.51,-0.73 0.51,0.21 0.75,0.78 0.55,1.28 -0.2,0.51 -0.77,0.75 -1.28,0.55 -0.04,-0.02 -0.11,-0.04 -0.24,0.13 -0.26,0.32 -0.33,0.85 -0.15,1.12 0.3,0.43 0.53,0.45 0.6,0.46 0.77,0.08 2.05,-1.17 2.66,-1.78 0.25,-0.24 0.46,-0.44 0.62,-0.57 0.42,-0.35 1.04,-0.29 1.38,0.13 0.35,0.42 0.29,1.04 -0.13,1.38 -0.13,0.11 -0.3,0.27 -0.5,0.47 -0.96,0.94 -2.38,2.34 -3.96,2.34z"/>
  <path class="fil1" d="M27.9 63.47c-0.65,0 -1.32,-0.11 -1.92,-0.33 -1.55,-0.59 -2.5,-1.82 -2.66,-3.48 -0.05,-0.54 0.34,-1.02 0.88,-1.07 0.54,-0.06 1.02,0.34 1.07,0.88 0.09,0.9 0.56,1.51 1.4,1.83 1.14,0.42 2.43,0.12 2.75,-0.18 0.4,-0.38 1.02,-0.36 1.39,0.04 0.37,0.39 0.36,1.01 -0.04,1.39 -0.63,0.59 -1.73,0.92 -2.87,0.92z"/>
  <path class="fil1" d="M30.52 71.21c-0.6,0 -1.68,-0.29 -2.18,-0.54 -1.43,-0.72 -3.27,-2.03 -2.71,-5.14 0.09,-0.54 0.6,-0.89 1.14,-0.8 0.53,0.1 0.89,0.61 0.79,1.14 -0.27,1.5 0.17,2.3 1.66,3.04 0.27,0.14 1.05,0.34 1.3,0.34 0.54,0 0.98,0.44 0.98,0.98 0,0.54 -0.44,0.98 -0.98,0.98z"/>
  <path class="fil1" d="M37.08 70.34c-0.44,0 -0.84,-0.29 -0.95,-0.74 -0.14,-0.52 0.17,-1.06 0.7,-1.2 0.25,-0.06 0.56,-0.2 0.9,-0.36 0.83,-0.37 1.86,-0.84 2.94,-0.59 0.19,0.05 0.5,0.15 0.86,0.26 0.63,0.2 1.81,0.57 2.24,0.55 0.2,-0.01 0.87,-0.2 1.36,-0.35 0.73,-0.21 1.56,-0.45 2.22,-0.54 0.67,-0.09 1.26,-0.04 2.05,0.18 0.28,0.05 1.83,0.29 2.05,0.31 0.54,0 0.96,0.44 0.96,0.98 0,0.55 -0.47,0.98 -1.01,0.98 -0.26,0 -2.35,-0.33 -2.5,-0.36 -0.68,-0.2 -1.01,-0.18 -1.28,-0.14 -0.52,0.07 -1.27,0.29 -1.94,0.48 -0.86,0.25 -1.41,0.4 -1.81,0.42 -0.73,0.05 -1.76,-0.26 -2.93,-0.64 -0.3,-0.09 -0.56,-0.17 -0.72,-0.21 -0.43,-0.1 -1.1,0.2 -1.68,0.46 -0.4,0.18 -0.81,0.37 -1.22,0.48 -0.08,0.02 -0.16,0.03 -0.24,0.03z"/>
  <path class="fil1" d="M81.73 31.71c0,0 0,0 0,0 0,0 0,0 0,0zm-0.72 0.32c-0.24,0 -0.48,-0.09 -0.67,-0.26 -0.4,-0.37 -0.42,-0.99 -0.06,-1.39 0.38,-0.41 0.97,-0.55 1.96,-0.79 2.49,-0.61 4.73,-1.34 4.73,-3.62 0,-0.78 -0.46,-1.12 -0.66,-1.24 -0.32,-0.18 -0.67,-0.19 -0.93,-0.03 -0.47,0.28 -1.07,0.12 -1.35,-0.34 -0.28,-0.47 -0.13,-1.07 0.34,-1.35 0.86,-0.52 1.98,-0.51 2.91,0.01 1.04,0.59 1.66,1.69 1.66,2.95 0,4.01 -4.06,5 -6.23,5.53 -0.4,0.09 -0.89,0.21 -1.06,0.29 -0.19,0.16 -0.42,0.24 -0.64,0.24z"/>
  <path class="fil1" d="M80.46 42.54c-0.5,0 -0.93,-0.38 -0.98,-0.89 -0.05,-0.54 0.35,-1.02 0.89,-1.07 0.82,-0.08 2.41,-0.32 3.98,-0.67 2.89,-0.65 4.78,-2.02 5.32,-3.85 0.4,-1.38 -0.07,-2.65 -0.72,-3.3 -0.31,-0.32 -0.81,-0.65 -1.45,-0.47 -0.52,0.15 -1.07,-0.15 -1.21,-0.67 -0.15,-0.53 0.15,-1.07 0.67,-1.22 1.2,-0.34 2.43,0.01 3.39,0.97 1.28,1.3 1.76,3.36 1.2,5.24 -0.43,1.48 -1.88,4.12 -6.77,5.21 -1.66,0.37 -3.32,0.63 -4.22,0.72 -0.04,0 -0.07,0 -0.1,0z"/>
  <path class="fil1" d="M67.96 70.81c-0.24,0 -0.47,-0.08 -0.66,-0.25 -0.4,-0.36 -0.44,-0.97 -0.08,-1.37 0.14,-0.17 0.41,-0.4 0.76,-0.7l0.22 -0.18c1.85,-1.62 2.88,-7.38 2.88,-10.74 0,-0.54 0.44,-0.98 0.98,-0.98 0.55,0 0.99,0.44 0.99,0.98 0,2.97 -0.87,9.87 -3.56,12.22l-0.24 0.2c-0.15,0.14 -0.48,0.41 -0.56,0.5 -0.2,0.21 -0.47,0.32 -0.73,0.32z"/>
  <path class="fil1" d="M71.82 68.89c-0.43,0 -0.83,-0.29 -0.95,-0.73 -0.14,-0.53 0.17,-1.07 0.7,-1.21l0.13 -0.03c0.68,-0.18 1.54,-0.41 2.34,-0.71 2.04,-0.76 3.82,-2.88 3.13,-4.99 -0.25,-0.77 0.09,-1.18 0.31,-1.35 0.6,-0.47 1.22,-0.08 1.59,0.16 0.46,0.28 1.15,0.72 1.78,0.57 1.45,-0.33 2.39,-1.34 2.39,-2.59 0,-0.21 0.07,-0.42 0.2,-0.59 0.41,-0.55 1.11,-0.67 2.01,-0.83 1.29,-0.23 2.91,-0.52 3.57,-1.98 0.43,-0.95 1.43,-1.01 2.32,-1.05 1.03,-0.06 2.31,-0.13 3.53,-1.25 1.29,-1.19 1.21,-2.01 0.97,-2.65 -0.19,-0.51 0.07,-1.08 0.58,-1.27 0.51,-0.19 1.07,0.07 1.26,0.57 0.64,1.69 0.14,3.3 -1.48,4.79 -1.74,1.6 -3.55,1.7 -4.75,1.77 -0.24,0.01 -0.54,0.03 -0.71,0.06 -1.13,2.27 -3.51,2.69 -4.95,2.95 -0.2,0.03 -0.44,0.07 -0.63,0.12 -0.27,1.87 -1.76,3.39 -3.88,3.87 -0.74,0.17 -1.43,0.04 -2,-0.18 -0.11,2.57 -2.19,4.83 -4.55,5.71 -0.9,0.34 -1.8,0.58 -2.53,0.77l-0.13 0.03c-0.08,0.03 -0.17,0.04 -0.25,0.04z"/>
  <path class="fil1" d="M83.04 53.03c-0.15,0 -0.3,-0.03 -0.44,-0.1 -0.49,-0.25 -0.68,-0.84 -0.44,-1.32 0.27,-0.54 0.86,-1.36 1.32,-1.74 2.53,-2.11 3.91,-2.46 5.51,-2.87 0.85,-0.22 1.74,-0.45 2.98,-0.99 1.32,-0.57 2.16,-1.26 2.42,-2 0.2,-0.54 0.1,-1.18 -0.3,-1.93 -0.35,-0.68 -1.12,-0.85 -2.26,-0.49 -0.52,0.16 -1.07,-0.13 -1.23,-0.65 -0.16,-0.52 0.13,-1.07 0.64,-1.23 2.06,-0.64 3.78,-0.1 4.59,1.46 0.66,1.25 0.79,2.42 0.41,3.5 -0.45,1.28 -1.62,2.34 -3.49,3.15 -1.38,0.59 -2.39,0.85 -3.27,1.08 -1.49,0.38 -2.56,0.66 -4.74,2.48 -0.19,0.16 -0.63,0.74 -0.82,1.11 -0.17,0.34 -0.52,0.54 -0.88,0.54z"/>
  <path class="fil1" d="M50.21 88.3c-3.29,0 -6.48,-0.93 -8.8,-4.74 -0.28,-0.46 -0.14,-1.07 0.33,-1.35 0.46,-0.28 1.07,-0.14 1.35,0.33 2.61,4.29 6.36,4.11 11.78,3.35 0.89,-0.12 4.79,-2.31 6.56,-3.45 5.39,-3.48 11.16,-9.14 11.16,-14.6 0,-0.54 0.44,-0.98 0.98,-0.98 0.55,0 0.99,0.44 0.99,0.98 0,6.25 -6.24,12.49 -12.07,16.25 -0.05,0.03 -5.57,3.5 -7.35,3.75 -1.61,0.22 -3.28,0.46 -4.93,0.46z"/>
  <path class="fil1" d="M52.61 95.21c-3.9,0 -8.15,-0.62 -10.84,-2.86 -0.42,-0.35 -0.48,-0.97 -0.13,-1.39 0.35,-0.42 0.96,-0.47 1.38,-0.13 4.3,3.58 14.03,2.26 16.91,1.77 6.9,-1.18 10.3,-4.73 13.27,-9.71 3.17,-5.3 3.3,-9.93 3.38,-12.7 0.03,-1.28 0.06,-2.06 0.35,-2.62 0.25,-0.48 0.85,-0.67 1.33,-0.42 0.48,0.25 0.66,0.84 0.42,1.32 -0.09,0.22 -0.12,1.05 -0.14,1.78 -0.08,2.76 -0.22,7.91 -3.65,13.65 -3.85,6.44 -8.09,9.52 -14.63,10.63 -1.74,0.3 -4.59,0.68 -7.65,0.68z"/>
  <path class="fil1" d="M51.84 92.41c-1.5,0 -3.05,-0.13 -4.65,-0.41 -2.08,-0.37 -2.84,-0.93 -3.45,-1.38 -0.33,-0.24 -0.57,-0.41 -1.02,-0.55 -1.16,-0.35 -2.2,-1.91 -2.22,-3.32 -0.02,-1.05 0.55,-1.87 1.52,-2.19 0.52,-0.18 1.07,0.1 1.24,0.61 0.18,0.52 -0.1,1.08 -0.61,1.25 -0.12,0.04 -0.19,0.06 -0.19,0.3 0.01,0.63 0.58,1.4 0.84,1.47 0.77,0.24 1.21,0.56 1.59,0.84 0.52,0.38 1.02,0.74 2.64,1.03 5.69,1.02 10.77,-0.2 14.99,-1.52 0.81,-0.26 5.65,-3.59 6.48,-4.46 0.09,-0.11 0.54,-0.61 2.53,-3 0.12,-0.14 0.17,-0.2 0.29,-0.28 0.45,-0.3 1.06,-0.18 1.36,0.27 0.25,0.38 0.21,0.87 -0.08,1.2l-0.06 0.07c-1.49,1.79 -2.37,2.83 -2.62,3.1 -0.89,0.93 -6.03,4.57 -7.31,4.97 -3.28,1.03 -7.06,2 -11.27,2z"/>
  <path class="fil1" d="M42.46 100.25c-0.09,0 -0.17,-0.01 -0.25,-0.03 -0.53,-0.14 -0.84,-0.67 -0.71,-1.2 0.36,-1.4 0.04,-1.96 -0.73,-3.3l-0.08 -0.14c-1,-1.72 0.37,-3.77 0.89,-4.54 0.3,-0.45 0.91,-0.57 1.36,-0.27 0.45,0.31 0.57,0.92 0.27,1.37 -1,1.48 -1,2.16 -0.82,2.46l0.08 0.14c0.84,1.44 1.5,2.59 0.94,4.77 -0.12,0.44 -0.52,0.74 -0.95,0.74z"/>
  <path class="fil1" d="M59.61 104.36c-0.49,0 -0.92,-0.38 -0.97,-0.89 -0.05,-0.48 0.26,-0.92 0.72,-1.05 0.11,-0.08 0.33,-0.3 0.55,-0.58 0.73,-0.97 0.74,-2.09 0.76,-3.17 0.01,-0.57 0.01,-1.11 0.13,-1.62 0.57,-2.61 1.31,-3.22 2.8,-4.25 0.49,-0.34 1.04,-0.72 1.73,-1.3 0.41,-0.35 1.03,-0.29 1.38,0.12 0.35,0.42 0.3,1.04 -0.12,1.39 -0.75,0.64 -1.37,1.06 -1.87,1.41 -1.21,0.83 -1.57,1.08 -2.01,3.06 -0.06,0.31 -0.07,0.75 -0.08,1.21 -0.01,1.21 -0.04,2.86 -1.16,4.34 -0.94,1.24 -1.55,1.3 -1.75,1.32 -0.04,0 -0.07,0.01 -0.11,0.01z"/>
  <path class="fil1" d="M29.49 101.34c-0.53,0 -0.97,-0.43 -0.98,-0.97 0,-0.39 0.99,-3.89 1,-3.91 0.75,-1.89 0.89,-2.14 2.24,-2.77 0.3,-0.14 0.68,-0.31 1.19,-0.58 0.73,-0.39 1.22,-0.61 1.59,-0.77 0.74,-0.34 0.74,-0.34 1.8,-1.82 1.08,-1.52 4.47,-2.21 4.85,-2.28 0.53,-0.11 1.05,0.24 1.15,0.77 0.1,0.54 -0.25,1.05 -0.78,1.15 -1.61,0.31 -3.27,1 -3.62,1.49 -1.25,1.76 -1.4,1.94 -2.6,2.48 -0.34,0.15 -0.8,0.36 -1.47,0.72 -0.55,0.29 -0.96,0.48 -1.28,0.62 -0.7,0.32 -0.7,0.32 -1.23,1.66 -0.15,0.4 -0.81,3.03 -0.89,3.4 -0.08,0.45 -0.47,0.8 -0.95,0.81 0,0 -0.01,0 -0.02,0z"/>
  <path class="fil1" d="M96.98 87.27c-0.47,0 -0.89,-0.34 -0.97,-0.83 -0.29,-1.82 -1.35,-3.54 -2.27,-4.44 -1.06,-1.05 -1.42,-1.08 -1.84,-1.11 -0.45,-0.04 -1.07,-0.1 -1.96,-0.75 -1.51,-1.1 -2.21,-2.14 -2.76,-2.97 -0.44,-0.65 -0.78,-1.16 -1.42,-1.6 -1.93,-1.31 -2.93,-3.05 -3.74,-4.44 -0.52,-0.9 -1.01,-1.75 -1.41,-1.76 -0.54,-0.02 -0.97,-0.48 -0.95,-1.02 0.02,-0.54 0.48,-0.96 1.02,-0.95 1.48,0.06 2.24,1.36 3.04,2.75 0.75,1.28 1.59,2.73 3.15,3.8 0.95,0.65 1.46,1.4 1.94,2.13 0.52,0.77 1.06,1.58 2.29,2.48 0.44,0.32 0.63,0.34 0.97,0.37 0.84,0.07 1.6,0.24 3.04,1.66 1.4,1.37 2.52,3.55 2.84,5.54 0.09,0.54 -0.28,1.04 -0.81,1.13 -0.06,0.01 -0.11,0.01 -0.16,0.01z"/>
  <path class="fil1" d="M26.15 44.43c-0.15,0 -0.3,-0.03 -0.45,-0.11 -0.48,-0.24 -0.67,-0.83 -0.43,-1.32 0.22,-0.43 0.59,-1.15 0.79,-2.77 0.78,-6.34 1.38,-7.43 2.56,-9.11 0.58,-0.83 1.31,-1.86 2.31,-4.41 0.89,-2.23 4,-7.01 6.8,-8.17 2.55,-1.05 3.43,-2.42 4.45,-4 1.82,-2.81 3.7,-5.72 13.85,-6.81 4.19,-0.45 6.16,-0.02 9.72,0.76 6.35,1.39 14.62,5.4 18.77,11.23 0.84,1.17 1.58,2.5 1.33,4.27 -0.08,0.54 -0.58,0.91 -1.11,0.84 -0.54,-0.08 -0.92,-0.58 -0.84,-1.11 0.15,-1.04 -0.27,-1.87 -0.98,-2.86 -3.85,-5.4 -11.6,-9.14 -17.59,-10.45 -3.47,-0.76 -5.22,-1.14 -9.09,-0.73 -9.22,0.99 -10.77,3.39 -12.41,5.93 -1.05,1.62 -2.24,3.46 -5.35,4.75 -2,0.82 -4.84,4.86 -5.72,7.07 -1.09,2.77 -1.89,3.91 -2.53,4.82 -0.92,1.3 -1.47,2.08 -2.22,8.22 -0.21,1.72 -0.6,2.66 -0.98,3.42 -0.18,0.34 -0.52,0.54 -0.88,0.54z"/>
  <path class="fil1" d="M36.45 109.95c-0.42,0 -0.81,-0.27 -0.94,-0.69l-0.04 -0.13c-0.26,-0.84 -0.7,-2.24 -0.09,-3.29 0.29,-0.48 0.75,-0.81 1.35,-0.93 1.12,-0.24 1.46,-0.48 1.55,-0.56 -0.03,-0.14 -0.17,-0.44 -0.27,-0.65 -0.33,-0.69 -0.78,-1.62 -0.37,-2.67 0.35,-0.91 1.24,-1.63 2.8,-2.26 0.5,-0.2 1.07,0.04 1.27,0.55 0.21,0.5 -0.04,1.07 -0.54,1.28 -1.35,0.54 -1.64,0.97 -1.7,1.14 -0.09,0.24 0.06,0.59 0.31,1.11 0.3,0.62 0.71,1.48 0.28,2.36 -0.38,0.77 -1.28,1.27 -2.93,1.62 -0.05,0.01 -0.07,0.02 -0.07,0.02 -0.05,0.09 -0.1,0.46 0.29,1.7l0.04 0.13c0.16,0.52 -0.13,1.07 -0.65,1.23 -0.1,0.03 -0.19,0.04 -0.29,0.04z"/>
  <path class="fil1" d="M43.09 111.55c-0.26,0 -0.52,-0.1 -0.71,-0.3 -0.38,-0.4 -0.36,-1.02 0.03,-1.39 1.12,-1.06 1.05,-1.34 0.86,-2.07 -0.14,-0.51 -0.32,-1.22 -0.2,-2.19 0.18,-1.4 1.15,-1.98 1.79,-2.36 0.62,-0.38 0.82,-0.52 0.85,-1.02 0.05,-0.83 0.03,-1.25 0.01,-1.6 -0.02,-0.35 -0.04,-0.65 0.05,-1.09 0.47,-2.57 3.42,-2.86 5.59,-2.86 0.54,0 0.98,0.44 0.98,0.98 0,0.54 -0.44,0.98 -0.98,0.98 -3.43,0 -3.6,0.95 -3.66,1.26 -0.04,0.21 -0.03,0.33 -0.02,0.63 0.02,0.37 0.05,0.88 -0.01,1.82 -0.09,1.56 -1.12,2.17 -1.8,2.58 -0.6,0.36 -0.8,0.51 -0.85,0.93 -0.08,0.59 0.03,1.01 0.15,1.44 0.32,1.21 0.41,2.27 -1.41,3.99 -0.19,0.18 -0.43,0.27 -0.67,0.27z"/>
  <g>
   <path class="fil1" d="M55.16 100.31l0 0 0 0zm-5.58 10.93c-0.08,0 -0.15,0 -0.23,-0.01 -0.54,-0.03 -0.95,-0.5 -0.92,-1.04 0.04,-0.54 0.5,-0.96 1.04,-0.92 0.35,0.02 0.6,-0.06 0.79,-0.24 0.29,-0.29 0.44,-0.85 0.4,-1.5 -0.02,-0.43 -0.28,-1.03 -0.45,-1.43 -0.06,-0.15 -0.12,-0.28 -0.16,-0.38 -0.38,-1.01 -0.38,-1.9 -0.01,-2.66 0.65,-1.32 2.19,-1.78 3.54,-2.19 0.51,-0.16 1.33,-0.41 1.56,-0.61 0,0 0,-0.01 0,-0.02 -0.18,-0.51 0.09,-1.07 0.61,-1.24 0.51,-0.18 1.07,0.09 1.25,0.6 0.23,0.69 0.09,1.21 -0.07,1.53 -0.47,0.92 -1.59,1.26 -2.78,1.62 -0.92,0.28 -2.08,0.63 -2.35,1.18 -0.12,0.25 -0.09,0.61 0.09,1.09 0.03,0.09 0.07,0.19 0.13,0.31 0.22,0.52 0.56,1.32 0.6,2.09 0.07,1.22 -0.28,2.31 -0.98,3 -0.54,0.54 -1.25,0.82 -2.06,0.82z"/>
  </g>
  <path class="fil2" d="M36.65 43.56c0.92,-0.04 1.7,0.67 1.75,1.59 0.04,0.92 -0.67,1.7 -1.59,1.74 -0.92,0.05 -1.7,-0.66 -1.75,-1.58 -0.04,-0.92 0.67,-1.71 1.59,-1.75z"/>
  <path class="fil2" d="M55.68 43.54c0.92,-0.04 1.7,0.67 1.75,1.59 0.04,0.92 -0.67,1.7 -1.59,1.74 -0.92,0.05 -1.7,-0.66 -1.75,-1.58 -0.04,-0.92 0.67,-1.71 1.59,-1.75z"/>
  <path class="fil1" d="M62.39 65.25c-0.14,0 -0.27,-0.04 -0.39,-0.13 -0.29,-0.21 -0.35,-0.62 -0.14,-0.91 1.77,-2.38 3.56,-8.33 3.57,-10.88 0,-0.36 0.29,-0.65 0.65,-0.65l0 0c0.36,0 0.66,0.29 0.66,0.66 -0.01,2.84 -1.86,9.01 -3.82,11.65 -0.13,0.17 -0.33,0.26 -0.53,0.26z"/>
  <path class="fil1" d="M25.12 52.8c-0.35,0 -0.64,-0.28 -0.66,-0.64 -0.01,-0.36 0.28,-0.66 0.64,-0.67 2.4,-0.08 3.06,-0.6 3.98,-1.33 0.4,-0.32 0.86,-0.68 1.5,-1.04 0.32,-0.18 0.72,-0.07 0.9,0.25 0.17,0.31 0.06,0.71 -0.26,0.89 -0.55,0.31 -0.94,0.62 -1.33,0.93 -1.03,0.81 -1.92,1.52 -4.75,1.61 -0.01,0 -0.01,0 -0.02,0z"/>
  <path class="fil1" d="M38.97 41.77c-0.02,0 -0.03,0 -0.04,0 -0.32,-0.02 -0.56,-0.2 -1.53,-0.97 -1.23,-0.97 -3.27,-2.59 -4.54,-2.79 -0.27,-0.04 -0.42,-0.11 -0.54,-0.17 -0.04,-0.02 -0.13,-0.04 -0.54,-0.04 -0.36,0 -0.66,-0.3 -0.66,-0.66 0,-0.36 0.3,-0.65 0.66,-0.65 0.65,0 0.87,0.05 1.13,0.18 0.04,0.02 0.06,0.03 0.16,0.05 1.6,0.25 3.73,1.93 5.14,3.05 0.37,0.3 0.79,0.63 0.94,0.72 0.29,0.08 0.49,0.36 0.47,0.67 -0.02,0.34 -0.31,0.61 -0.65,0.61z"/>
  <path class="fil1" d="M59.1 45.36c0,0 0,0 0,0 0,0 0,0 0,0zm0.52 1.05c-0.14,0 -0.28,-0.05 -0.39,-0.13 -0.24,-0.18 -0.32,-0.49 -0.23,-0.75 -0.07,-0.74 -1.7,-3.76 -3.35,-3.85 -0.33,-0.01 -0.74,-0.07 -1.17,-0.13 -0.88,-0.12 -1.97,-0.28 -2.53,-0.1 -0.34,0.1 -0.71,-0.09 -0.82,-0.43 -0.1,-0.35 0.09,-0.71 0.43,-0.82 0.84,-0.26 2.04,-0.1 3.1,0.05 0.4,0.06 0.78,0.11 1.06,0.13 1.96,0.1 3.55,2.42 4.18,3.78 0.59,1.27 0.44,1.73 0.24,1.99 -0.12,0.17 -0.32,0.26 -0.52,0.26z"/>
 </g>
</svg>
