<?xml version="1.0" encoding="UTF-8"?>
<!DOCTYPE svg PUBLIC "-//W3C//DTD SVG 1.1//EN" "http://www.w3.org/Graphics/SVG/1.1/DTD/svg11.dtd">
<!-- Creator: CorelDRAW 2018 (64-Bit) -->
<svg xmlns="http://www.w3.org/2000/svg" xml:space="preserve" width="845px" height="845px" version="1.1" style="shape-rendering:geometricPrecision; text-rendering:geometricPrecision; image-rendering:optimizeQuality; fill-rule:evenodd; clip-rule:evenodd"
viewBox="0 0 117.14 117.14"
 xmlns:xlink="http://www.w3.org/1999/xlink">
 <defs>
  <style type="text/css">
   <![CDATA[
    .fil0 {fill:none}
    .fil2 {fill:black}
    .fil1 {fill:black;fill-rule:nonzero}
   ]]>
  </style>
 </defs>
 <g id="Слой_x0020_1">
  <metadata id="CorelCorpID_0Corel-Layer"/>
  <rect class="fil0" width="117.14" height="117.14"/>
 </g>
 <g id="_1">
  <metadata id="CorelCorpID_1Corel-Layer"/>
  <g>
   <path class="fil1" d="M63.41 74.78l0 0 0 0zm0.02 0.08l-0.02 -0.08zm-0.59 0.94c-0.25,0 -0.48,-0.14 -0.59,-0.38 -0.15,-0.31 -0.13,-0.77 -0.04,-1.92 0.03,-0.34 0.06,-0.71 0.07,-0.97 -1.95,-2.67 -5.65,-8.71 -6.17,-11.41 -0.06,-0.36 0.17,-0.7 0.52,-0.77 0.36,-0.06 0.7,0.17 0.77,0.52 0.49,2.54 4.26,8.63 6.06,11.05 0.07,0.1 0.12,0.23 0.12,0.36 0.02,0.31 -0.02,0.81 -0.06,1.33 -0.04,0.42 -0.09,1.1 -0.07,1.31 0.11,0.31 -0.03,0.66 -0.33,0.81 -0.09,0.04 -0.19,0.07 -0.28,0.07z"/>
  </g>
  <path class="fil1" d="M41.36 74.35c-0.17,0 -0.34,-0.07 -0.47,-0.19 -0.25,-0.26 -0.25,-0.67 0,-0.93 0.63,-0.63 0.89,-2.06 1.09,-3.21 0.06,-0.33 0.11,-0.63 0.17,-0.9 0.2,-0.91 0.49,-1.89 0.74,-2.75 0.21,-0.7 0.47,-1.56 0.47,-1.77 0,-0.36 0.29,-0.66 0.65,-0.66l0 0c0.36,0 0.66,0.29 0.66,0.66 0,0.38 -0.18,1 -0.52,2.14 -0.25,0.84 -0.53,1.79 -0.72,2.65 -0.05,0.26 -0.1,0.55 -0.16,0.86 -0.23,1.33 -0.53,2.99 -1.45,3.91 -0.13,0.12 -0.29,0.19 -0.46,0.19z"/>
  <g>
   <path class="fil1" d="M45.09 63.64l0 0 0 0zm5.04 4.07c-0.94,0 -1.95,-0.29 -2.97,-1.09 -0.63,-0.5 -0.75,-0.52 -1.13,-0.59 -0.21,-0.05 -0.5,-0.1 -0.9,-0.23 -1.01,-0.31 -1.62,-0.79 -1.88,-1.47 -0.36,-0.92 0.09,-1.88 0.62,-2.78 0.28,-0.47 0.88,-0.62 1.35,-0.34 0.46,0.27 0.62,0.88 0.34,1.34 -0.47,0.79 -0.48,1.03 -0.47,1.09 0.01,0 0.11,0.13 0.63,0.29 0.29,0.09 0.49,0.13 0.68,0.17 0.66,0.12 1.07,0.26 1.98,0.98 1.39,1.09 2.63,0.74 4.44,-0.3 1.18,-0.68 1.97,-0.66 2.45,-0.65 0.02,0 0.03,0 0.05,0l0.04 -0.04c0.4,-0.37 1.02,-0.34 1.39,0.05 0.37,0.4 0.35,1.02 -0.05,1.39l-0.1 0.1c-0.48,0.49 -1.04,0.47 -1.38,0.46 -0.34,0 -0.72,-0.01 -1.42,0.39 -0.8,0.46 -2.13,1.23 -3.67,1.23z"/>
  </g>
  <path class="fil1" d="M31.89 49.95c0.05,1.87 0.35,3.44 1.08,5.6 0.89,2.63 1.74,3.49 2.18,3.76 1.53,0.98 3.57,0.78 5.56,0.42 1.29,-0.23 2.19,-0.55 2.82,-0.99 1.01,-0.7 1.55,-1.86 2.2,-3.74 0.84,-2.45 1.08,-3.58 1.15,-4.08 -0.5,-0.3 -1.68,-0.86 -3.42,-1.41 -2.15,-0.69 -4.3,-0.47 -6.04,-0.29l-0.57 0.06c-1.72,0.16 -3.07,0.37 -4.96,0.67zm6.12 12.04c-1.37,0 -2.72,-0.26 -3.92,-1.02 -1.16,-0.74 -2.16,-2.35 -2.98,-4.8 -0.77,-2.26 -1.1,-3.94 -1.17,-5.9l-0.83 0.13c-0.53,0.1 -1.04,-0.27 -1.12,-0.81 -0.09,-0.54 0.27,-1.04 0.81,-1.13l1.6 -0.26c2.58,-0.42 4.14,-0.67 6.26,-0.88l0.56 -0.05c1.81,-0.19 4.3,-0.45 6.84,0.36 0.63,0.2 3.78,1.25 4.58,2.21 0.12,0.15 0.2,0.33 0.22,0.52 0.06,0.56 -0.03,1.67 -1.27,5.27 -0.76,2.23 -1.49,3.72 -2.94,4.72 -0.88,0.62 -1.99,1.02 -3.59,1.31 -0.98,0.18 -2.02,0.33 -3.05,0.33z"/>
  <path class="fil1" d="M47.88 51.71c-0.18,0 -0.37,-0.05 -0.54,-0.16 -0.45,-0.3 -0.57,-0.91 -0.27,-1.36 1.33,-2.02 3.5,-1.6 4.94,-1.33l0.2 0.04c0.54,0.1 0.89,0.62 0.79,1.15 -0.11,0.53 -0.62,0.88 -1.15,0.78l-0.21 -0.04c-1.58,-0.3 -2.38,-0.35 -2.94,0.48 -0.19,0.29 -0.5,0.44 -0.82,0.44z"/>
  <path class="fil1" d="M53.29 49.44c0.07,1.46 0.4,4.11 1.1,6.08 0.84,2.39 3.33,3.9 6.05,3.66 0.99,-0.09 2.02,-0.45 3.33,-1.16 3.11,-1.7 3.16,-4.19 3.21,-7.08 0.03,-1.34 0.06,-2.73 0.44,-4.04 -4.86,-0.18 -12.08,0.33 -14.13,2.54zm6.58 11.73c-3.32,0 -6.27,-1.98 -7.34,-4.99 -0.84,-2.39 -1.19,-5.52 -1.22,-7.05 0,-0.21 0.06,-0.42 0.19,-0.59 3.06,-4.26 15.93,-3.83 19.3,-3.33 0.53,0.08 0.91,0.58 0.83,1.12 -0.08,0.53 -0.59,0.9 -1.12,0.83 -0.32,-0.05 -0.69,-0.09 -1.1,-0.13 0,0.07 -0.02,0.15 -0.04,0.22 -0.37,1.1 -0.39,2.38 -0.42,3.73 -0.06,3.06 -0.13,6.52 -4.24,8.76 -1.56,0.85 -2.82,1.28 -4.1,1.39 -0.24,0.02 -0.49,0.04 -0.74,0.04z"/>
  <g>
   <path class="fil1" d="M81.32 49.63l0 0 0 0zm0.49 0.14c-0.18,0 -0.36,-0.05 -0.52,-0.15 -0.57,-0.23 -3.54,-0.85 -5.72,-1.31 -2.39,-0.51 -4.46,-0.94 -5.22,-1.19 -0.52,-0.17 -0.8,-0.72 -0.63,-1.24 0.17,-0.52 0.72,-0.8 1.24,-0.63 0.66,0.22 2.87,0.68 5.01,1.13 5.54,1.17 6.14,1.35 6.5,1.67 0.4,0.37 0.43,0.99 0.07,1.39 -0.2,0.22 -0.46,0.33 -0.73,0.33z"/>
  </g>
  <path class="fil1" d="M36.65 53.88c-0.22,0 -0.45,-0.07 -0.63,-0.22 -0.42,-0.35 -0.48,-0.97 -0.13,-1.39 1.02,-1.22 3.6,-2.94 5.51,-2.94 1.65,0 2.77,0.72 3.58,1.24 0.35,0.23 0.75,0.48 0.93,0.48 0.54,0 0.98,0.44 0.98,0.98 0,0.55 -0.44,0.99 -0.98,0.99 -0.76,0 -1.38,-0.41 -1.99,-0.79 -0.71,-0.46 -1.45,-0.93 -2.52,-0.93 -1.09,0 -3.21,1.27 -4,2.23 -0.19,0.23 -0.47,0.35 -0.75,0.35z"/>
  <path class="fil1" d="M56.63 51.99c-0.31,0 -0.62,-0.15 -0.81,-0.42 -0.31,-0.45 -0.2,-1.06 0.25,-1.37 0.37,-0.26 0.71,-0.53 1.05,-0.8 0.78,-0.6 1.58,-1.23 2.6,-1.69 2.35,-1.06 5.64,-0.16 7.04,1.94 0.3,0.45 0.18,1.06 -0.27,1.36 -0.45,0.3 -1.06,0.18 -1.36,-0.27 -0.86,-1.29 -3.14,-1.9 -4.61,-1.24 -0.79,0.36 -1.47,0.89 -2.19,1.45 -0.37,0.29 -0.74,0.58 -1.14,0.86 -0.17,0.12 -0.37,0.18 -0.56,0.18z"/>
  <path class="fil1" d="M59.61 74.44c0.01,0 0.01,0 0.01,0 0,0 0,0 -0.01,0zm-15.65 0.4c-0.47,0 -0.88,-0.33 -0.97,-0.8 -0.1,-0.54 0.25,-1.05 0.79,-1.15 0.35,-0.07 0.68,-0.23 1.05,-0.41 1.01,-0.49 2.25,-1.11 4.44,-0.16 0.76,0.33 0.9,0.26 1.39,0 0.48,-0.25 1.12,-0.59 2.24,-0.64l0.39 -0.02c1.73,-0.08 1.98,-0.07 3.77,0.44 0.21,0.06 0.99,0.16 1.56,0.24 1.37,0.19 1.69,0.24 1.95,0.39 0.48,0.26 0.65,0.86 0.38,1.33 -0.24,0.44 -0.77,0.62 -1.23,0.44 -0.2,-0.05 -0.89,-0.15 -1.36,-0.21 -0.93,-0.13 -1.51,-0.21 -1.84,-0.3 -1.54,-0.44 -1.57,-0.44 -3.13,-0.36l-0.41 0.02c-0.67,0.03 -1.01,0.2 -1.4,0.41 -0.83,0.43 -1.59,0.72 -3.09,0.07 -1.35,-0.59 -1.93,-0.31 -2.79,0.11 -0.44,0.22 -0.94,0.47 -1.56,0.58 -0.06,0.01 -0.12,0.02 -0.18,0.02z"/>
  <path class="fil1" d="M50.56 77.93c-2.26,0 -3,-0.36 -3.94,-0.94 -0.34,-0.21 -0.69,-0.42 -1.27,-0.64 -0.51,-0.19 -0.77,-0.76 -0.58,-1.27 0.19,-0.51 0.75,-0.76 1.26,-0.57 0.77,0.28 1.25,0.57 1.63,0.81 0.64,0.4 1.03,0.64 2.9,0.64 2.16,0 3.84,-0.54 5.16,-1.66 0.42,-0.35 1.04,-0.3 1.39,0.11 0.35,0.42 0.3,1.03 -0.12,1.39 -1.66,1.41 -3.83,2.13 -6.43,2.13z"/>
  <path class="fil1" d="M46.34 81.39c-0.35,0 -0.69,-0.19 -0.87,-0.52 -0.25,-0.48 -0.07,-1.07 0.41,-1.33l0.34 -0.18c1.41,-0.76 3.15,-1.71 5.07,-1.45 0.05,0.01 5.9,1.18 6.23,1.36 0.48,0.26 0.66,0.85 0.41,1.33 -0.23,0.42 -0.71,0.61 -1.15,0.48 -0.5,-0.13 -5.23,-1.15 -5.75,-1.22 -1.29,-0.18 -2.6,0.54 -3.87,1.22l-0.36 0.19c-0.14,0.08 -0.3,0.12 -0.46,0.12z"/>
  <path class="fil1" d="M78.03 71.44c-0.25,0 -0.51,-0.01 -0.78,-0.03 -0.98,-0.06 -1.38,-0.6 -1.7,-1.03 -0.32,-0.43 -0.23,-1.05 0.2,-1.37 0.44,-0.33 1.05,-0.24 1.38,0.2 0.06,0.08 0.14,0.19 0.19,0.24 0.01,0 0.03,0 0.06,0 4.63,0.29 5.33,-2.23 6.17,-6.73 0.39,-2.12 0.8,-4.32 1.97,-6.06 0.89,-1.33 0.93,-3.21 0.68,-4.12 -0.23,-0.8 -0.7,-1.37 -1.33,-1.61 -0.79,-0.3 -1.82,-0.08 -2.9,0.63 -0.46,0.29 -1.07,0.16 -1.36,-0.29 -0.3,-0.46 -0.17,-1.06 0.28,-1.36 1.62,-1.05 3.28,-1.34 4.67,-0.82 1.24,0.47 2.13,1.5 2.53,2.92 0.43,1.52 0.24,3.98 -0.94,5.74 -0.94,1.41 -1.31,3.41 -1.67,5.33 -0.7,3.74 -1.56,8.36 -7.45,8.36z"/>
  <path class="fil1" d="M78.18 64.39c-0.54,0 -0.98,-0.44 -0.98,-0.99 0,-0.54 0.44,-0.98 0.98,-0.98 1.37,0 2.38,-0.5 3.48,-1.73 1.43,-1.59 1.61,-3.41 1.17,-4.43 -0.14,-0.33 -0.42,-0.74 -0.92,-0.75 -0.54,-0.01 -0.97,-0.46 -0.96,-1.01 0.02,-0.54 0.48,-0.96 1.01,-0.95 1.17,0.03 2.17,0.75 2.68,1.94 0.7,1.63 0.5,4.27 -1.51,6.51 -1,1.11 -2.47,2.39 -4.95,2.39z"/>
  <path class="fil1" d="M78.19 48.56c-0.32,0 -0.64,-0.16 -0.83,-0.45 -0.5,-0.79 -0.88,-1.62 -1.24,-2.42 -0.8,-1.75 -1.49,-3.26 -3.25,-4.12 -0.49,-0.24 -0.69,-0.82 -0.45,-1.31 0.24,-0.49 0.83,-0.69 1.31,-0.45 2.4,1.17 3.34,3.24 4.18,5.07 0.35,0.77 0.68,1.5 1.11,2.17 0.29,0.46 0.16,1.06 -0.3,1.36 -0.16,0.1 -0.35,0.15 -0.53,0.15z"/>
  <path class="fil1" d="M86.74 50.74c-0.55,0 -0.99,-0.44 -0.99,-0.98 0,-0.44 -0.12,-0.76 -0.43,-1.1 -0.56,-0.63 -1.09,-1.25 -1.61,-1.85 -2.41,-2.78 -4.5,-5.19 -8.05,-7.05 -4.71,-2.46 -11.18,-3.69 -15.74,-2.97 -2.46,0.38 -5.65,0.26 -9.03,0.14 -5.91,-0.21 -12.62,-0.45 -14.29,2.3 -0.87,1.43 -1.47,2.57 -2.08,3.94 -0.19,0.42 -0.38,1.35 -0.57,2.24 -0.25,1.2 -0.51,2.44 -0.9,3.33 -0.21,0.5 -0.79,0.73 -1.29,0.51 -0.49,-0.21 -0.73,-0.79 -0.51,-1.29 0.3,-0.71 0.56,-1.9 0.78,-2.96 0.23,-1.08 0.43,-2.02 0.7,-2.63 0.64,-1.45 1.28,-2.65 2.19,-4.16 2.27,-3.73 9.27,-3.48 16.04,-3.24 3.29,0.12 6.39,0.23 8.66,-0.13 4.93,-0.76 11.91,0.54 16.95,3.18 3.88,2.03 6.19,4.69 8.63,7.51 0.51,0.59 1.03,1.2 1.58,1.81 0.63,0.71 0.94,1.5 0.94,2.42 0,0.54 -0.44,0.98 -0.98,0.98z"/>
  <path class="fil1" d="M79.8 79.55c-0.54,0 -0.98,-0.44 -0.98,-0.98 0,-0.55 0.44,-0.99 0.98,-0.99 3.59,0 5.27,-2.35 5.81,-8.12 0.5,-5.36 0.61,-11.52 0.22,-12.68 -0.17,-0.51 0.11,-1.07 0.62,-1.24 0.52,-0.17 1.07,0.11 1.25,0.62 0.65,1.97 0.18,10.08 -0.14,13.48 -0.27,2.97 -0.92,9.91 -7.76,9.91z"/>
  <path class="fil1" d="M93.57 94.47c-0.18,0 -0.35,-0.04 -0.51,-0.14 -1.34,-0.81 -4.73,-2.78 -5.37,-3.14 -3.53,-0.95 -11.36,-12.72 -12.11,-15.07 -0.64,-2 -0.99,-5.4 0.13,-8.38 0.2,-0.51 0.76,-0.77 1.27,-0.58 0.51,0.19 0.76,0.76 0.57,1.27 -1.01,2.69 -0.54,5.72 -0.1,7.09 0.86,2.66 8.68,13.43 10.75,13.77 0.41,0.07 5.82,3.33 5.88,3.36 0.46,0.28 0.61,0.89 0.33,1.35 -0.19,0.31 -0.51,0.47 -0.84,0.47z"/>
  <path class="fil1" d="M52 88.5c-1.24,0 -2.47,-0.13 -3.67,-0.46 -9.46,-2.56 -10.45,-8.19 -11.84,-15.98l-0.19 -1.08c-0.11,-0.6 -0.21,-1.19 -0.31,-1.78 -0.47,-2.69 -0.91,-5.24 -1.64,-7.68 -0.15,-0.52 0.14,-1.07 0.66,-1.22 0.52,-0.16 1.07,0.14 1.22,0.66 0.76,2.56 1.21,5.15 1.69,7.9 0.11,0.59 0.21,1.18 0.31,1.77l0.2 1.08c1.35,7.61 2.16,12.2 10.41,14.44 3.59,0.97 7.72,-0.04 11.29,-1.16 0.95,-0.29 1.51,-0.44 1.88,-0.55 0.61,-0.16 0.61,-0.16 1.46,-0.66 0.34,-0.2 0.8,-0.47 1.45,-0.84 3.44,-1.96 3.95,-2.7 4.6,-3.64 0.46,-0.67 1.03,-1.5 2.49,-2.77 0.41,-0.36 1.03,-0.32 1.39,0.09 0.35,0.41 0.31,1.03 -0.1,1.39 -1.27,1.11 -1.72,1.77 -2.16,2.4 -0.76,1.1 -1.41,2.05 -5.24,4.24 -0.65,0.36 -1.1,0.63 -1.44,0.83 -0.99,0.58 -1.07,0.62 -1.93,0.86 -0.36,0.1 -0.9,0.24 -1.81,0.53 -2.71,0.85 -5.74,1.63 -8.72,1.63z"/>
  <path class="fil1" d="M49.49 105.75c-3.65,0 -4.9,-9.55 -4.91,-9.65 -0.18,-1.61 0.24,-2.7 0.58,-3.57 0.5,-1.29 0.86,-2.21 -0.75,-4.9 -0.28,-0.47 -0.12,-1.07 0.34,-1.35 0.47,-0.28 1.07,-0.13 1.35,0.34 2.1,3.51 1.46,5.16 0.89,6.62 -0.31,0.81 -0.59,1.51 -0.46,2.64 0.36,3.17 1.99,7.9 2.95,7.9 0,0 0.01,0 0.02,0 4.59,-0.48 16.04,-10.37 19.72,-15.02 1.95,-2.47 3.84,-5.55 5.23,-7.8 1.42,-2.32 2.07,-3.36 2.6,-3.74 0.44,-0.32 1.05,-0.23 1.37,0.21 0.32,0.44 0.22,1.06 -0.21,1.38 -0.29,0.25 -1.25,1.8 -2.09,3.18 -1.41,2.29 -3.33,5.43 -5.36,7.99 -3.37,4.26 -15.42,15.17 -21.05,15.75 -0.08,0.01 -0.15,0.02 -0.22,0.02z"/>
  <path class="fil1" d="M59.13 96.8c-0.06,0 -0.13,-0.01 -0.2,-0.03 -0.34,-0.11 -0.53,-0.47 -0.42,-0.82 0.73,-2.33 1.93,-4.21 3.1,-6.03 0.85,-1.32 1.72,-2.7 2.44,-4.26 0.15,-0.33 0.53,-0.47 0.86,-0.32 0.33,0.14 0.48,0.53 0.33,0.86 -0.75,1.65 -1.66,3.06 -2.53,4.43 -1.17,1.83 -2.27,3.55 -2.96,5.71 -0.08,0.28 -0.34,0.46 -0.62,0.46z"/>
  <g>
   <path class="fil1" d="M43.66 110.15l0.01 0 -0.01 0zm-0.57 1.68c-0.32,0 -0.62,-0.12 -0.86,-0.35 -0.7,-0.67 -1.3,-2.37 -0.36,-14.83l0.03 -0.49c0.12,-1.54 0.29,-3.15 0.99,-4.41 0.26,-0.48 0.86,-0.65 1.34,-0.39 0.47,0.27 0.64,0.87 0.38,1.34 -0.51,0.92 -0.65,2.28 -0.75,3.6l-0.03 0.49c-0.6,7.9 -0.53,11.17 -0.37,12.51 2.91,-2.41 6.46,-5.14 8.83,-5.7 0.53,-0.12 1.06,0.21 1.18,0.73 0.12,0.53 -0.21,1.06 -0.73,1.19 -2.32,0.54 -6.84,4.31 -8.32,5.55 -0.8,0.66 -0.87,0.72 -1.19,0.76 -0.05,0 -0.09,0 -0.14,0z"/>
  </g>
  <path class="fil1" d="M59.39 111.71c-0.06,0 -0.11,0 -0.17,-0.01 -0.35,-0.06 -0.64,-0.31 -0.76,-0.64 -0.57,-1.64 -4.48,-4.78 -6.34,-5.6 -0.5,-0.22 -0.73,-0.8 -0.51,-1.3 0.22,-0.49 0.8,-0.72 1.3,-0.5 1.71,0.76 4.99,3.16 6.61,5.33 7.48,-9.5 12.4,-17.25 18.68,-27.94 0.27,-0.47 0.88,-0.63 1.34,-0.35 0.47,0.27 0.63,0.87 0.35,1.34 -6.57,11.2 -11.66,19.18 -19.73,29.3 -0.19,0.24 -0.47,0.37 -0.77,0.37z"/>
  <path class="fil1" d="M29.23 100.56c-0.19,0 -0.38,-0.05 -0.54,-0.16 -0.46,-0.3 -0.58,-0.91 -0.28,-1.36 1.57,-2.39 5.36,-3.84 9.03,-5.23 3.17,-1.21 6.44,-2.45 7.27,-4.01 0.26,-0.48 0.85,-0.66 1.33,-0.4 0.48,0.25 0.66,0.85 0.41,1.33 -1.18,2.2 -4.64,3.52 -8.31,4.92 -3.38,1.28 -6.87,2.61 -8.09,4.47 -0.19,0.28 -0.5,0.44 -0.82,0.44z"/>
  <path class="fil1" d="M86.84 49.49c-0.19,0 -0.38,-0.05 -0.55,-0.17 -0.45,-0.31 -0.56,-0.92 -0.26,-1.36 2.68,-3.9 0.16,-15.57 -1.76,-18.73 -0.7,-1.14 -1.44,-2.1 -2.23,-2.84 -4.57,-4.34 -14.79,0.94 -18.64,2.93 -2.63,1.37 -4.51,2.16 -12.41,2.56 -3.8,0.19 -6.77,-0.32 -10.26,-1.74 -1.03,-0.42 -3.77,-1.99 -6.27,-3.43 -0.51,-0.3 -1,-0.58 -1.19,-0.68 -0.26,-0.06 -0.4,-0.01 -0.49,0.04 -0.61,0.35 -1,1.85 -1.23,2.75 -0.07,0.28 -0.14,0.54 -0.2,0.76 -1.66,5.53 -1.24,9.18 0.12,13.98 0.15,0.52 -0.15,1.07 -0.68,1.21 -0.52,0.15 -1.06,-0.15 -1.21,-0.67 -1.43,-5.05 -1.9,-9.13 -0.12,-15.08 0.06,-0.2 0.12,-0.43 0.19,-0.69 0.34,-1.35 0.82,-3.2 2.15,-3.96 0.61,-0.35 1.34,-0.42 2.09,-0.21 0.16,0.04 0.16,0.04 1.56,0.85 1.76,1.01 5.03,2.91 6.02,3.31 2.71,1.1 5.35,1.8 9.42,1.59 7.51,-0.37 9.15,-1.06 11.61,-2.33 4.19,-2.17 15.31,-7.92 20.9,-2.62 0.9,0.86 1.76,1.96 2.55,3.25 2.18,3.59 5,16.05 1.7,20.86 -0.19,0.27 -0.49,0.42 -0.81,0.42z"/>
  <path class="fil1" d="M62.21 21.77c-0.55,0 -0.99,-0.44 -0.99,-0.98 0,-0.85 0.03,-1.52 0.05,-2.17 0.04,-0.91 0.07,-1.77 0.02,-2.95 -0.24,-5.65 -5.8,-6.5 -7.5,-6.63 -5.23,-0.39 -11.44,2.35 -12.35,7.06l-0.06 0.31c-0.28,1.4 -0.51,2.6 -0.21,3.87 0.13,0.53 -0.19,1.06 -0.72,1.19 -0.53,0.13 -1.06,-0.2 -1.19,-0.72 -0.4,-1.69 -0.12,-3.16 0.19,-4.71l0.06 -0.32c1.15,-5.91 8.39,-9.08 14.42,-8.64 5.54,0.41 9.11,3.67 9.32,8.51 0.06,1.26 0.02,2.15 -0.01,3.11 -0.03,0.63 -0.05,1.28 -0.05,2.09 0,0.54 -0.44,0.98 -0.98,0.98z"/>
  <path class="fil1" d="M82.57 25.56c-0.35,0 -0.69,-0.19 -0.87,-0.52l-0.06 -0.1c-0.06,-0.12 -0.1,-0.26 -0.11,-0.39 -0.49,-6.12 -13.53,-11.61 -19.49,-11.61 -0.54,0 -0.98,-0.44 -0.98,-0.98 0,-0.54 0.44,-0.98 0.98,-0.98 6.74,0 20.59,5.69 21.43,13.2 0.2,0.47 0.02,1.02 -0.44,1.26 -0.14,0.08 -0.31,0.12 -0.46,0.12z"/>
  <path class="fil1" d="M74.5 24.04c-0.41,0 -0.79,-0.25 -0.93,-0.66 -0.52,-1.52 -9.13,-4.26 -10.6,-4.01 -0.54,0.09 -1.04,-0.26 -1.14,-0.8 -0.09,-0.53 0.27,-1.04 0.8,-1.13 1.88,-0.33 11.83,2.47 12.8,5.3 0.17,0.51 -0.1,1.07 -0.61,1.25 -0.11,0.04 -0.22,0.05 -0.32,0.05z"/>
  <path class="fil1" d="M39.43 19.99c-0.01,0 -0.01,0 -0.02,0.01 0.01,-0.01 0.01,-0.01 0.02,-0.01zm-5.06 5.08c-0.02,0 -0.04,0 -0.07,0 -0.54,-0.04 -0.95,-0.51 -0.91,-1.05 0.22,-3.04 3.99,-5.19 5.14,-5.78 0.25,-0.13 0.5,-0.12 0.65,-0.12 0.54,0.02 0.98,0.47 0.97,1.01 -0.01,0.52 -0.4,0.94 -0.91,0.96 -1.9,1.01 -3.79,2.62 -3.89,4.07 -0.04,0.52 -0.47,0.91 -0.98,0.91z"/>
  <path class="fil1" d="M43.82 15.27c-0.21,0 -0.43,-0.07 -0.61,-0.21 -0.42,-0.34 -0.5,-0.96 -0.16,-1.38 1.84,-2.33 4.94,-2.94 7.22,-1.41 0.09,0.06 0.2,0.13 0.3,0.21 0.14,0.1 0.39,0.28 0.51,0.34 0.34,-0.02 0.79,-0.3 1.24,-0.58 0.34,-0.22 0.69,-0.44 1.08,-0.61 1.91,-0.81 4.34,-0.71 6.07,0.25l0.08 0.03c0.5,0.19 0.76,0.75 0.57,1.26 -0.19,0.51 -0.76,0.77 -1.27,0.57l-0.14 -0.05c-0.05,-0.02 -0.1,-0.04 -0.14,-0.07 -1.22,-0.69 -3.02,-0.77 -4.4,-0.18 -0.24,0.1 -0.52,0.28 -0.81,0.46 -0.68,0.43 -1.45,0.92 -2.4,0.88 -0.6,-0.02 -1.13,-0.4 -1.55,-0.71 -0.08,-0.06 -0.16,-0.12 -0.23,-0.17 -1.63,-1.09 -3.54,-0.33 -4.59,1 -0.19,0.24 -0.48,0.37 -0.77,0.37z"/>
  <g>
   <path class="fil1" d="M51.35 11.85l0 0 0 0zm0.77 2.14c-0.02,0 -0.03,0 -0.04,0 -0.54,-0.02 -0.97,-0.47 -0.95,-1.01 0.01,-0.24 0.02,-0.45 0.04,-0.64 0.01,-0.17 0.02,-0.38 0.02,-0.53 -0.18,-0.03 -0.54,-0.06 -1.25,-0.06 -0.54,0 -0.98,-0.44 -0.98,-0.98 0,-0.54 0.44,-0.98 0.98,-0.98 1.42,0 2.23,0.1 2.76,0.66 0.52,0.55 0.47,1.26 0.43,2.01 -0.01,0.18 -0.03,0.37 -0.03,0.59 -0.02,0.53 -0.46,0.94 -0.98,0.94z"/>
  </g>
  <path class="fil1" d="M48.9 25.81c-0.33,0 -3.33,-0.01 -4.7,-0.56 -1.3,-0.53 -4.8,-0.2 -6.46,0.43 -0.51,0.19 -1.07,-0.07 -1.26,-0.57 -0.19,-0.51 0.06,-1.08 0.57,-1.27 1.83,-0.69 5.91,-1.21 7.89,-0.42 0.65,0.27 2.53,0.43 3.96,0.43 0.55,0 0.99,0.44 0.99,0.98 0,0.54 -0.44,0.98 -0.99,0.98z"/>
  <path class="fil1" d="M44.68 25.45c-0.01,0 -0.02,0 -0.04,0 0.01,0 0.03,0 0.04,0zm-3.08 1.79c-0.02,0 -0.04,0 -0.06,0 -0.54,-0.03 -0.95,-0.5 -0.92,-1.04 0.08,-1.25 2.09,-2.18 3.24,-2.55 0.1,-0.1 0.23,-0.19 0.38,-0.24 0.51,-0.18 1.07,0.08 1.25,0.59l0.05 0.13c0.11,0.3 0.07,0.63 -0.11,0.89 -0.17,0.24 -0.44,0.4 -0.73,0.42 -0.43,0.09 -1.81,0.71 -2.15,1.07 -0.11,0.42 -0.5,0.73 -0.95,0.73z"/>
  <path class="fil1" d="M46.75 27.05c0,0 0,0 0,0 0,0 0,0 0,0zm-0.94 0.7c-0.09,0 -0.19,-0.01 -0.28,-0.04 -0.52,-0.15 -0.82,-0.7 -0.67,-1.22 0.09,-0.29 0.32,-1.06 2.77,-2.31 0.48,-0.24 1.07,-0.05 1.32,0.43 0.24,0.49 0.05,1.08 -0.43,1.33 -1.08,0.54 -1.66,1 -1.79,1.17 -0.15,0.39 -0.52,0.64 -0.92,0.64z"/>
  <path class="fil1" d="M52.22 26.51c-0.51,0 -0.94,-0.4 -0.98,-0.92 -0.04,-0.54 0.37,-1.01 0.91,-1.05 1.41,-0.09 2.2,-0.52 3.04,-0.98 1.35,-0.73 2.74,-1.49 5.97,-0.59 1.64,0.46 4.14,0.5 5.5,-0.23 0.32,-0.17 0.66,-0.34 1.01,-0.51 0.3,-0.15 0.61,-0.3 0.9,-0.45 0.48,-0.26 1.08,-0.07 1.33,0.41 0.26,0.48 0.07,1.07 -0.41,1.32 -0.31,0.17 -0.64,0.33 -0.96,0.49 -0.32,0.16 -0.64,0.31 -0.94,0.47 -1.88,1.01 -4.93,0.96 -6.96,0.39 -2.46,-0.68 -3.31,-0.22 -4.5,0.43 -0.89,0.48 -2,1.09 -3.84,1.21 -0.02,0.01 -0.05,0.01 -0.07,0.01z"/>
  <g>
   <path class="fil1" d="M59.69 26.55l0 0 0 0zm0.54 0.36c-0.31,0 -0.62,-0.15 -0.81,-0.44 -0.53,-0.16 -0.94,-0.46 -1.32,-0.72 -0.52,-0.37 -0.97,-0.69 -1.73,-0.76 -0.54,-0.05 -0.94,-0.53 -0.89,-1.07 0.05,-0.54 0.53,-0.93 1.07,-0.89 1.29,0.13 2.1,0.7 2.69,1.11 0.33,0.24 0.6,0.43 0.86,0.48 0.56,0.12 0.85,0.59 0.97,0.79 0.28,0.46 0.15,1.07 -0.32,1.36 -0.16,0.1 -0.34,0.14 -0.52,0.14z"/>
  </g>
  <path class="fil1" d="M63.06 24.72c0,0 -0.01,0 -0.01,0.01 0,-0.01 0.01,-0.01 0.01,-0.01zm-0.83 0.45c-0.18,0 -0.37,-0.05 -0.53,-0.16 -0.46,-0.3 -0.59,-0.91 -0.29,-1.36 0.18,-0.28 0.45,-0.43 0.83,-0.64 0.33,-0.18 1.22,-0.67 1.24,-1.03 0.02,-0.54 0.49,-0.96 1.03,-0.93 0.54,0.03 0.96,0.49 0.93,1.03 -0.08,1.45 -1.49,2.23 -2.25,2.65 -0.1,0.06 -0.19,0.11 -0.26,0.15 -0.19,0.19 -0.44,0.29 -0.7,0.29z"/>
  <path class="fil1" d="M44.57 25.32c-0.45,0 -0.85,-0.3 -0.96,-0.76l0 0c-0.89,-0.33 -1.75,-1.01 -2.24,-1.8 -0.29,-0.46 -0.15,-1.07 0.31,-1.35 0.46,-0.29 1.07,-0.15 1.36,0.31 0.27,0.44 0.95,0.98 1.56,1.09 0.39,0.06 0.7,0.35 0.79,0.74l0.14 0.56c0.12,0.52 -0.2,1.06 -0.73,1.18 -0.08,0.02 -0.16,0.03 -0.23,0.03z"/>
  <path class="fil1" d="M50.67 22.74c-0.5,0 -0.9,-0.36 -0.97,-0.84 -0.05,-0.07 -0.09,-0.15 -0.14,-0.25 -0.13,-0.31 -0.46,-0.8 -0.77,-1.27 -0.84,-1.23 -1.78,-2.62 -1.5,-3.92 0.13,-0.57 0.48,-1.05 1.03,-1.39 0.46,-0.28 1.07,-0.13 1.35,0.33 0.28,0.46 0.13,1.07 -0.33,1.35 -0.12,0.07 -0.13,0.11 -0.13,0.13 -0.1,0.47 0.75,1.73 1.2,2.4 0.39,0.57 0.75,1.11 0.96,1.6 0.14,0.18 0.28,0.45 0.28,0.88 0,0.54 -0.44,0.98 -0.98,0.98z"/>
  <path class="fil1" d="M52.29 22.47c-0.12,0 -0.25,-0.02 -0.38,-0.08 -0.5,-0.21 -0.73,-0.79 -0.52,-1.29 0.22,-0.51 0.49,-0.83 0.72,-1.09 0.05,-0.07 0.11,-0.14 0.16,-0.21 0.95,-1.22 1.49,-2.44 1.33,-2.97 -0.02,-0.06 -0.08,-0.24 -0.54,-0.39 -0.52,-0.16 -0.81,-0.71 -0.65,-1.23 0.16,-0.51 0.71,-0.81 1.23,-0.64 1.19,0.37 1.65,1.11 1.83,1.67 0.49,1.55 -0.62,3.45 -1.64,4.77 -0.08,0.09 -0.15,0.18 -0.23,0.27 -0.17,0.2 -0.3,0.35 -0.4,0.59 -0.16,0.38 -0.52,0.6 -0.91,0.6z"/>
  <path class="fil1" d="M45.5 17.08c-0.22,0 -0.44,-0.11 -0.56,-0.32 -0.19,-0.31 -0.09,-0.71 0.22,-0.89 0.1,-0.09 0.6,-0.71 0.85,-1.06 0.21,-0.29 0.62,-0.35 0.92,-0.14 0.29,0.21 0.35,0.62 0.14,0.91 -0.15,0.2 -0.89,1.2 -1.23,1.41 -0.11,0.06 -0.23,0.09 -0.34,0.09z"/>
  <path class="fil1" d="M57.01 16.68c-0.24,0 -0.47,-0.13 -0.58,-0.35 -0.06,-0.09 -0.23,-0.31 -0.39,-0.53 -0.49,-0.65 -0.55,-0.73 -0.57,-0.96 -0.03,-0.36 0.24,-0.67 0.6,-0.7 0.29,-0.03 0.54,0.13 0.65,0.38 0.06,0.1 0.22,0.3 0.37,0.5 0.35,0.46 0.45,0.6 0.51,0.72 0.15,0.32 0.02,0.72 -0.31,0.88 -0.09,0.04 -0.19,0.06 -0.28,0.06z"/>
  <path class="fil1" d="M77.04 65.52c-0.54,0 -0.98,-0.44 -0.98,-0.98 0,-1.48 0.54,-3.27 1.12,-5.16 0.57,-1.91 1.17,-3.88 1.17,-5.44 0,-0.39 -0.04,-0.74 -0.08,-1.15 -0.04,-0.47 -0.1,-1 -0.1,-1.68 0,-0.54 0.44,-0.98 0.98,-0.98 0.55,0 0.99,0.44 0.99,0.98 0,0.58 0.04,1.04 0.09,1.49 0.04,0.42 0.08,0.85 0.08,1.34 0.01,1.85 -0.63,3.96 -1.25,6.01 -0.53,1.75 -1.04,3.4 -1.04,4.59 0,0.54 -0.44,0.98 -0.98,0.98z"/>
  <path class="fil1" d="M82.82 49.22c-0.15,0 -0.3,-0.05 -0.42,-0.15 -1.51,-1.25 -2.2,-1.82 -2.85,-3.73 -0.12,-0.35 0.06,-0.72 0.4,-0.84 0.35,-0.11 0.72,0.07 0.84,0.41 0.53,1.56 0.98,1.93 2.45,3.15 0.28,0.23 0.32,0.64 0.08,0.92 -0.12,0.16 -0.31,0.24 -0.5,0.24z"/>
  <path class="fil2" d="M62.37 48.45c0.92,-0.05 1.7,0.66 1.75,1.58 0.04,0.93 -0.67,1.71 -1.59,1.75 -0.92,0.04 -1.7,-0.67 -1.75,-1.59 -0.04,-0.92 0.67,-1.7 1.59,-1.74z"/>
  <path class="fil2" d="M41.77 49.77c0.92,-0.04 1.7,0.67 1.74,1.59 0.05,0.92 -0.67,1.7 -1.59,1.75 -0.92,0.04 -1.7,-0.67 -1.74,-1.59 -0.05,-0.92 0.67,-1.7 1.59,-1.75z"/>
  <path class="fil1" d="M35.85 45.39c-0.31,0 -0.59,-0.22 -0.64,-0.54 -0.06,-0.33 0.14,-0.64 0.45,-0.74 1,-0.35 3.63,-1.14 7.14,-1.05 0.36,0.01 0.65,0.31 0.64,0.67 -0.01,0.36 -0.3,0.64 -0.67,0.64 -3.39,-0.09 -5.95,0.72 -6.65,0.97 -0.04,0.01 -0.12,0.04 -0.15,0.04 -0.04,0.01 -0.08,0.01 -0.12,0.01z"/>
  <path class="fil1" d="M56.84 43.23c-0.2,0 -0.39,-0.09 -0.52,-0.26 -0.22,-0.29 -0.16,-0.7 0.13,-0.92 1.3,-0.97 6.39,-1.24 7.79,-0.42 0.31,0.19 0.41,0.59 0.23,0.9 -0.18,0.31 -0.59,0.42 -0.9,0.23 -0.95,-0.56 -5.45,-0.32 -6.33,0.34 -0.12,0.09 -0.26,0.13 -0.4,0.13z"/>
  <path class="fil1" d="M79.61 75.93c-0.21,0 -0.42,-0.1 -0.55,-0.28 -0.2,-0.3 -0.12,-0.71 0.18,-0.91 0.03,-0.03 0.07,-0.07 0.12,-0.11 0.1,-0.1 0.22,-0.2 0.32,-0.27 1.34,-0.91 2.46,-3.33 2.52,-4.8 0.02,-0.36 0.34,-0.64 0.68,-0.62 0.36,0.01 0.64,0.32 0.63,0.68 -0.08,1.82 -1.37,4.65 -3.09,5.82 -0.06,0.04 -0.12,0.1 -0.18,0.15 -0.1,0.09 -0.19,0.18 -0.27,0.23 -0.11,0.08 -0.24,0.11 -0.36,0.11z"/>
  <g>
   <path class="fil1" d="M47.09 21.76l0.01 0 -0.01 0zm1.66 1.06c-0.3,0 -0.94,-0.04 -1.51,-0.07 -0.34,-0.02 -0.62,-0.04 -0.7,-0.04 -0.17,0 -0.36,-0.07 -0.48,-0.19 -0.47,-0.44 -0.5,-3.01 -0.5,-3.03 0,-0.36 0.3,-0.66 0.66,-0.66 0.36,0 0.65,0.3 0.65,0.66 0,0.26 0.08,1.35 0.16,1.94 0.08,0 0.17,0.01 0.28,0.01 0.5,0.03 1.18,0.07 1.44,0.07 0.36,0 0.65,0.29 0.65,0.66 0,0.36 -0.29,0.65 -0.65,0.65z"/>
  </g>
  <path class="fil1" d="M54.85 22.17l0 0c-0.36,-0.01 -0.65,-0.31 -0.64,-0.67 0.01,-0.35 0.3,-0.63 0.65,-0.64 0.16,0 1.55,-0.09 2.27,-0.14 0.01,-0.02 0.02,-0.05 0.03,-0.07 0.14,-0.36 0.23,-0.59 -0.07,-1.32 -0.08,-0.19 -0.07,-0.35 -0.06,-0.44 0.01,-0.36 0.29,-0.66 0.67,-0.65 0.35,0 0.64,0.27 0.64,0.62 0,0.01 0,0.03 0,0.05 0.42,1.07 0.27,1.64 0.04,2.22 -0.05,0.12 -0.1,0.23 -0.12,0.35 -0.05,0.22 -0.21,0.41 -0.42,0.48 -0.2,0.07 -2.95,0.21 -2.99,0.21z"/>
  <path class="fil1" d="M29.87 47.92c-0.33,0 -0.61,-0.25 -0.65,-0.59 -0.04,-0.39 0.95,-3.52 1.08,-3.78 0.88,-1.71 2.31,-3.92 4.19,-4.72 0.33,-0.14 0.72,0.02 0.86,0.35 0.14,0.33 -0.01,0.72 -0.35,0.86 -1.18,0.5 -2.43,1.96 -3.53,4.1 -0.17,0.34 -0.87,2.79 -0.94,3.18 -0.03,0.3 -0.27,0.56 -0.59,0.59 -0.02,0 -0.04,0.01 -0.07,0.01z"/>
  <path class="fil1" d="M83.24 105.91c-0.15,0 -0.3,-0.03 -0.44,-0.1 -0.48,-0.24 -0.68,-0.83 -0.44,-1.32 0.63,-1.28 0.99,-3.08 1.38,-5 0.63,-3.14 1.35,-6.71 3.49,-9.79 0.31,-0.44 0.92,-0.55 1.37,-0.24 0.44,0.31 0.55,0.92 0.24,1.36 -1.9,2.75 -2.58,6.1 -3.17,9.06 -0.42,2.04 -0.8,3.97 -1.55,5.49 -0.17,0.34 -0.52,0.54 -0.88,0.54z"/>
  <path class="fil1" d="M50.2 104.83c-0.03,0 -0.06,-0.01 -0.09,-0.01 -0.36,-0.05 -0.61,-0.39 -0.55,-0.74 0.37,-2.59 0.3,-9.34 -0.68,-11.06 -0.18,-0.32 -0.07,-0.72 0.24,-0.9 0.32,-0.18 0.72,-0.07 0.9,0.25 1.25,2.2 1.19,9.43 0.83,11.9 -0.05,0.32 -0.33,0.56 -0.65,0.56z"/>
 </g>
</svg>
