<?xml version="1.0" encoding="UTF-8"?>
<!DOCTYPE svg PUBLIC "-//W3C//DTD SVG 1.1//EN" "http://www.w3.org/Graphics/SVG/1.1/DTD/svg11.dtd">
<!-- Creator: CorelDRAW 2018 (64-Bit) -->
<svg xmlns="http://www.w3.org/2000/svg" xml:space="preserve" width="845px" height="845px" version="1.1" style="shape-rendering:geometricPrecision; text-rendering:geometricPrecision; image-rendering:optimizeQuality; fill-rule:evenodd; clip-rule:evenodd"
viewBox="0 0 117.14 117.14"
 xmlns:xlink="http://www.w3.org/1999/xlink">
 <defs>
  <style type="text/css">
   <![CDATA[
    .fil0 {fill:none}
    .fil2 {fill:black}
    .fil1 {fill:black;fill-rule:nonzero}
   ]]>
  </style>
 </defs>
 <g id="Слой_x0020_1">
  <metadata id="CorelCorpID_0Corel-Layer"/>
  <rect class="fil0" width="117.14" height="117.14"/>
 </g>
 <g id="_1">
  <metadata id="CorelCorpID_1Corel-Layer"/>
  <path class="fil1" d="M46.52 44.25c-0.31,0 -0.59,-0.03 -0.84,-0.05 -0.54,-0.04 -0.95,-0.52 -0.9,-1.06 0.05,-0.54 0.52,-0.95 1.05,-0.9l0.02 0c0.71,0.07 1.37,0.12 2.48,-0.42 1.14,-0.54 3.3,-0.81 5.23,-0.58 -1.15,-1.23 -1.95,-1.55 -2.46,-1.55 -0.54,0 -2.07,0.19 -6.23,1.41 -0.35,0.1 -0.43,0.13 -0.63,0.11 -0.54,-0.06 -0.93,-0.55 -0.87,-1.09 0.04,-0.42 0.35,-0.75 0.75,-0.85l0.2 -0.05c3.39,-1 5.61,-1.49 6.78,-1.49 2.44,0 4.62,2.82 6.04,4.93 0.25,0.37 0.22,0.85 -0.06,1.18 -0.28,0.34 -0.74,0.45 -1.14,0.27l-0.45 -0.19c-0.07,-0.03 -0.15,-0.08 -0.21,-0.13 -1.21,-0.94 -4.83,-0.81 -6.09,-0.2 -1.11,0.54 -1.97,0.66 -2.67,0.66z"/>
  <path class="fil1" d="M79.18 44.6c-0.1,0 -0.2,-0.02 -0.3,-0.05 -2.42,-0.78 -2.84,-1.02 -4.07,-1.82 -0.31,-0.2 -0.69,-0.45 -1.21,-0.76 -1.7,-1.04 -5.68,-0.7 -6.76,0.58 -0.35,0.42 -0.97,0.47 -1.38,0.12 -0.42,-0.35 -0.47,-0.97 -0.12,-1.38 1.84,-2.19 6.96,-2.43 9.29,-1 0.53,0.33 0.92,0.58 1.25,0.79 1.07,0.7 1.33,0.86 3.6,1.6 0.52,0.17 0.8,0.72 0.63,1.24 -0.13,0.41 -0.52,0.68 -0.93,0.68z"/>
  <path class="fil1" d="M77.31 46.71c-0.02,0 -0.04,0 -0.06,-0.01 -1.48,-0.09 -2.23,-0.46 -2.89,-0.79 -0.48,-0.23 -0.9,-0.44 -1.64,-0.56 -1.99,-0.34 -4.48,-0.03 -5.39,0.35 -0.5,0.2 -1.07,-0.04 -1.28,-0.54 -0.2,-0.5 0.04,-1.08 0.54,-1.28 1.3,-0.53 4.14,-0.86 6.46,-0.47 1.02,0.17 1.64,0.48 2.18,0.74 0.59,0.3 1.06,0.53 2.14,0.59 0.54,0.04 0.95,0.5 0.92,1.04 -0.03,0.53 -0.47,0.93 -0.98,0.93z"/>
  <path class="fil1" d="M59.93 57.34c-0.52,0 -1.02,-0.11 -1.49,-0.33 -0.42,-0.2 -0.78,-0.46 -1.07,-0.67 -0.1,-0.07 -0.23,-0.16 -0.33,-0.23 -0.43,0.39 -1.29,1.02 -2.35,0.69 -1.04,-0.32 -2.25,-1.43 -2.41,-2.66 -0.1,-0.8 0.26,-1.52 0.99,-1.97 0.46,-0.29 1.07,-0.15 1.35,0.31 0.29,0.46 0.15,1.07 -0.31,1.35 -0.07,0.05 -0.09,0.08 -0.09,0.08 0,0.21 0.56,0.86 1.06,1.02 0.01,0 0.18,-0.02 0.58,-0.4 1.01,-0.98 2.13,-0.17 2.67,0.22 0.24,0.18 0.49,0.36 0.74,0.48 0.6,0.28 1.38,0.14 2.08,-0.39 1.81,-1.34 3.17,-0.48 3.9,-0.02 0.11,0.07 0.24,0.15 0.34,0.21 0.03,-0.04 0.07,-0.09 0.11,-0.15 0.06,-0.11 0.05,-0.44 -0.01,-0.56 -0.34,-0.42 -0.27,-1.03 0.16,-1.37 0.42,-0.34 1.05,-0.26 1.39,0.16 0.57,0.71 0.62,2.07 0.1,2.85 -1.17,1.77 -2.55,0.9 -3.14,0.52 -0.65,-0.41 -0.95,-0.6 -1.68,-0.06 -0.81,0.61 -1.72,0.92 -2.59,0.92z"/>
  <path class="fil1" d="M50.64 59.11c-0.33,0 -0.62,-0.26 -0.65,-0.6 -0.09,-1.11 1.09,-3.01 2.53,-5.2l0.34 -0.52c0.19,-0.3 0.6,-0.39 0.9,-0.19 0.31,0.19 0.39,0.6 0.2,0.9l-0.35 0.53c-0.71,1.09 -2.37,3.62 -2.31,4.37 0.03,0.36 -0.24,0.68 -0.6,0.71 -0.02,0 -0.04,0 -0.06,0z"/>
  <path class="fil1" d="M69.43 59.35c-0.36,0 -0.66,-0.3 -0.66,-0.66 -0.06,-0.47 -1.46,-2.6 -2.62,-4.11 -0.22,-0.29 -0.16,-0.7 0.12,-0.92 0.29,-0.22 0.7,-0.16 0.92,0.12 0.3,0.39 2.89,3.8 2.89,4.91 0,0.36 -0.29,0.66 -0.65,0.66z"/>
  <path class="fil1" d="M67.51 65.6c-0.19,0 -0.39,-0.06 -0.56,-0.18l-0.09 -0.06c-2.65,-1.88 -3.45,-2.27 -3.69,-2.34 -0.65,-0.17 -1.26,0 -1.96,0.2 -0.52,0.15 -1.06,0.3 -1.65,0.32 -0.78,0.03 -1.39,-0.19 -1.92,-0.39 -0.71,-0.26 -1.31,-0.49 -2.45,-0.24 -0.66,0.15 -2.36,1.16 -2.87,1.61 -0.41,0.36 -1.03,0.32 -1.39,-0.09 -0.35,-0.41 -0.31,-1.03 0.09,-1.38 0.64,-0.56 2.65,-1.81 3.74,-2.05 1.71,-0.38 2.74,0 3.56,0.31 0.45,0.16 0.79,0.28 1.17,0.27 0.35,-0.01 0.76,-0.13 1.18,-0.25 0.82,-0.23 1.83,-0.52 3.01,-0.21 0.7,0.19 1.95,0.95 4.32,2.64l0.08 0.06c0.45,0.31 0.55,0.93 0.24,1.37 -0.2,0.27 -0.5,0.41 -0.81,0.41z"/>
  <path class="fil1" d="M60 68.98c-2.72,0 -5.04,-1.17 -6.55,-1.93 -0.48,-0.24 -0.67,-0.83 -0.43,-1.32 0.24,-0.48 0.83,-0.68 1.32,-0.43 2.82,1.42 6.13,2.75 9.68,0.51 0.46,-0.29 1.06,-0.16 1.35,0.3 0.29,0.46 0.15,1.07 -0.31,1.36 -1.76,1.11 -3.48,1.51 -5.06,1.51z"/>
  <path class="fil1" d="M81.09 61.46c-0.42,0 -0.83,-0.07 -1.24,-0.22 -0.51,-0.19 -0.78,-0.75 -0.59,-1.26 0.18,-0.51 0.75,-0.77 1.26,-0.59 0.52,0.19 1.03,0.12 1.55,-0.22 1.1,-0.72 1.91,-2.45 1.97,-3.61 0.11,-1.75 0.98,-3.12 1.63,-4.12 0.2,-0.33 0.48,-0.77 0.52,-0.92 0.08,-0.36 0.25,-0.83 0.46,-1.42 0.3,-0.81 1.09,-2.98 0.81,-3.47 -0.41,-0.34 -0.73,-0.33 -0.94,-0.29 -0.6,0.13 -1.33,0.83 -1.81,1.75 -0.25,0.49 -0.84,0.68 -1.32,0.43 -0.48,-0.25 -0.67,-0.84 -0.42,-1.33 0.76,-1.49 1.95,-2.53 3.17,-2.77 0.64,-0.13 1.61,-0.11 2.61,0.73 1.38,1.16 0.47,3.64 -0.25,5.63 -0.18,0.47 -0.34,0.93 -0.39,1.16 -0.11,0.49 -0.41,0.96 -0.79,1.55 -0.55,0.87 -1.24,1.95 -1.31,3.18 -0.1,1.65 -1.13,4 -2.86,5.14 -0.66,0.43 -1.36,0.65 -2.06,0.65z"/>
  <path class="fil1" d="M83.33 54.11c-0.16,0 -0.33,-0.07 -0.46,-0.2 -0.26,-0.25 -0.26,-0.67 0,-0.92 0.91,-0.91 1.5,-2.5 1.5,-4.04 0,-0.36 0.29,-0.65 0.65,-0.65 0.36,0 0.66,0.29 0.66,0.65 0,1.49 -0.5,3.58 -1.88,4.96 -0.13,0.13 -0.3,0.2 -0.47,0.2z"/>
  <path class="fil1" d="M39.24 59.41c-1.6,0 -2.52,-0.99 -3.09,-1.76 -0.78,-1.06 -1.15,-2.39 -1.47,-3.56l-0.14 -0.5c-0.21,-0.72 -0.48,-1.45 -0.74,-2.16 -0.29,-0.79 -0.59,-1.6 -0.8,-2.39 -0.4,-1.51 -1.08,-5.23 -0.64,-7.11 0.32,-1.36 0.95,-2.2 1.86,-2.5 1,-0.33 2.18,0.07 3.5,1.19 0.41,0.35 0.47,0.97 0.12,1.38 -0.35,0.42 -0.97,0.47 -1.39,0.12 -1.12,-0.95 -1.57,-0.84 -1.62,-0.82 -0.15,0.05 -0.39,0.36 -0.56,1.08 -0.3,1.29 0.18,4.46 0.63,6.15 0.19,0.7 0.46,1.44 0.74,2.22 0.28,0.74 0.56,1.51 0.79,2.3l0.14 0.52c0.29,1.05 0.59,2.14 1.17,2.92 0.55,0.74 1,1 1.68,0.94 0.54,-0.05 1.02,0.36 1.06,0.9 0.05,0.54 -0.35,1.01 -0.89,1.06 -0.12,0.01 -0.24,0.02 -0.35,0.02z"/>
  <g>
   <path class="fil1" d="M83.33 49.46l0.01 0 -0.01 0zm-25.68 -27.05c-1.43,0 -2.81,0.14 -4.06,0.59 -1.01,0.36 -1.9,0.84 -2.66,1.45 -0.73,0.58 -1.42,1.1 -2.08,1.6 -2.63,1.97 -4.7,3.53 -6.42,6.94 -1.04,2.04 -1.92,3.34 -2.56,4.29 -1.43,2.12 -1.81,2.69 -1.18,7.84 0.84,6.85 3.95,22.11 7.32,26.37 2.75,3.46 4.34,4.29 8.4,5.33 3.99,1.03 9.34,0.53 12.73,-1.17 3.13,-1.58 4,-2.16 5.41,-4.3 1,-1.54 2.23,-3.78 3.52,-6.16 0.62,-1.12 1.24,-2.26 1.84,-3.33 2.51,-4.47 4.23,-8.29 4.44,-12.45 0.13,-2.48 -0.49,-4.08 -0.86,-5.04l-0.08 -0.21c-0.23,-0.61 -0.43,-0.88 -0.8,-1.38 -0.46,-0.62 -1.08,-1.46 -2.04,-3.31 -0.93,-1.78 -1.4,-3.71 -1.77,-5.53 -1.82,-8.91 -9.86,-10.87 -14.48,-11.24l-0.82 -0.07c-1.28,-0.11 -2.58,-0.22 -3.85,-0.22zm1.32 56.91c-1.75,0 -3.48,-0.19 -5.05,-0.59 -4.41,-1.14 -6.39,-2.16 -9.45,-6.02 -3.94,-4.99 -7.05,-21.79 -7.73,-27.35 -0.69,-5.62 -0.22,-6.61 1.5,-9.18 0.65,-0.95 1.45,-2.14 2.43,-4.08 1.93,-3.82 4.28,-5.58 7,-7.62 0.64,-0.49 1.32,-1 2.03,-1.57 0.93,-0.74 2.02,-1.33 3.23,-1.76 2.75,-0.98 5.93,-0.71 8.74,-0.48l0.8 0.07c8.94,0.72 14.72,5.27 16.25,12.8 0.35,1.69 0.78,3.46 1.59,5.03 0.89,1.71 1.44,2.45 1.88,3.04 0.41,0.56 0.73,0.99 1.05,1.85l0.08 0.2c0.4,1.03 1.14,2.96 1,5.85 -0.26,5.05 -2.56,9.52 -4.7,13.31 -0.6,1.07 -1.21,2.19 -1.82,3.31 -1.32,2.42 -2.56,4.69 -3.61,6.3 -1.61,2.45 -2.76,3.26 -6.17,4.97 -2.48,1.26 -5.8,1.92 -9.05,1.92z"/>
  </g>
  <path class="fil1" d="M88.3 42.57c0,0 0,0 0,0 0,0 0,0 0,0zm-0.05 1.96c-0.04,0 -0.07,0 -0.1,0 -0.54,-0.04 -0.95,-0.52 -0.9,-1.06 0.02,-0.27 0.15,-0.51 0.35,-0.68 0.23,-0.5 0.62,-2.08 0.67,-2.42 0.29,-2.58 0.88,-3.93 1.32,-4.91 0.61,-1.38 0.84,-1.89 -0.99,-5.71 -0.79,-1.65 -1.66,-2.83 -2.5,-3.97 -0.58,-0.8 -1.13,-1.55 -1.62,-2.41 -2.57,-4.5 -8.99,-7.99 -13.68,-10.53l-0.44 -0.24c-5.96,-3.24 -8.15,-2.8 -13.45,-1.73 -1.25,0.25 -2.65,0.53 -4.3,0.8 -6.73,1.11 -13.46,2.7 -15.43,8.79 -0.54,1.66 -1.06,2.82 -1.52,3.84 -0.73,1.62 -1.21,2.69 -1.26,4.71 -0.03,1.79 -0.56,5.34 -0.9,7.69 -0.14,0.93 -0.28,1.89 -0.31,2.18 0.08,0.4 0.4,0.88 0.65,0.96 0.51,0.18 0.79,0.74 0.61,1.25 -0.17,0.51 -0.73,0.79 -1.24,0.61 -1.11,-0.37 -1.84,-1.63 -1.97,-2.63 -0.04,-0.24 -0.01,-0.49 0.31,-2.66 0.34,-2.3 0.85,-5.78 0.89,-7.44 0.05,-2.43 0.66,-3.77 1.42,-5.47 0.44,-0.98 0.94,-2.09 1.45,-3.65 2.5,-7.73 11.57,-9.22 16.98,-10.12 1.61,-0.26 3,-0.54 4.23,-0.79 5.46,-1.1 8.19,-1.65 14.78,1.93l0.44 0.24c4.9,2.66 11.6,6.3 14.44,11.29 0.44,0.76 0.96,1.47 1.51,2.22 0.85,1.15 1.81,2.47 2.68,4.28 2.13,4.45 1.85,5.47 1.01,7.36 -0.4,0.91 -0.9,2.04 -1.15,4.35 -0.03,0.24 -0.24,1.13 -0.43,1.79 -0.29,1 -0.61,2.13 -1.55,2.13z"/>
  <path class="fil1" d="M17.96 79.58c-0.38,0 -0.73,-0.21 -0.9,-0.58 -0.22,-0.49 0,-1.07 0.49,-1.3 3.93,-1.77 7.12,-2.69 9.94,-3.5 5.06,-1.45 9.05,-2.59 14.49,-7.97 0.39,-0.38 1.01,-0.38 1.39,0.01 0.38,0.39 0.38,1.01 -0.01,1.39 -5.79,5.73 -10,6.93 -15.32,8.46 -2.76,0.79 -5.88,1.69 -9.68,3.4 -0.13,0.06 -0.27,0.09 -0.4,0.09z"/>
  <g>
   <path class="fil1" d="M92.65 86.69c0,0 0,0 0,0 0,0 0,0 0,0zm0.11 0.13l0 0 0 0zm0.7 0.3c-0.27,0 -0.53,-0.11 -0.72,-0.32 -0.44,-0.34 -3.14,-1.94 -3.61,-2.19 -7.22,-3.78 -15.98,-9.02 -16.72,-12.52 -0.12,-0.53 0.22,-1.05 0.75,-1.16 0.54,-0.12 1.06,0.22 1.17,0.75 0.43,2.02 6.6,6.41 15.71,11.19 0.04,0.02 3.83,2.13 4.23,2.71 0.31,0.45 0.19,1.06 -0.26,1.37 -0.17,0.11 -0.36,0.17 -0.55,0.17z"/>
  </g>
  <g>
   <path class="fil1" d="M37.35 86.38c0,0 0.01,0 0.01,0 0,0 -0.01,0 -0.01,0zm6.64 5.64l0 0 0 0zm0 0l0 0zm0.86 0.5c-0.24,0 -0.47,-0.09 -0.65,-0.24 -0.72,-0.48 -7.01,-3.83 -7.62,-4.09 -0.87,-0.38 -1.67,-1.4 -0.56,-4.17 0.77,-1.93 2.07,-3.9 2.6,-4.66 1.72,-2.51 2.37,-2.82 3.08,-2.55 0.33,0.12 0.6,0.2 0.82,0.26 -0.79,-0.68 -1.18,-1.8 -1,-3.05 0.22,-1.53 1.19,-2.65 2.42,-2.81 0.54,-0.06 1.03,0.31 1.1,0.85 0.06,0.54 -0.32,1.03 -0.85,1.1 -0.32,0.04 -0.64,0.54 -0.72,1.13 -0.08,0.51 0.01,1.17 0.5,1.38 0.99,0.43 1.52,1.54 1.17,2.42 -0.26,0.64 -1.07,1.54 -3.65,0.72 -1.3,1.3 -4.35,6.42 -4.05,7.61 0.87,0.44 7.92,4.01 8.27,4.64 0.26,0.47 0.09,1.07 -0.38,1.33 -0.15,0.09 -0.32,0.13 -0.48,0.13z"/>
  </g>
  <path class="fil1" d="M55.4 110.12c-1.57,0 -2.69,-0.6 -4.15,-1.48 -1.06,-0.64 -2.25,-1.36 -4.12,-2.03 -0.99,-0.35 -2.1,0.04 -3.17,0.41 -1.19,0.42 -2.42,0.85 -3.37,0 -3.31,-2.98 0.19,-10.07 0.34,-10.37 0.83,-1.65 2.47,-3.54 4.06,-5.37 1.42,-1.64 3.38,-3.89 3.38,-4.69 0,-0.55 0.44,-0.99 0.98,-0.99 0.54,0 0.98,0.44 0.98,0.99 0,1.46 -1.47,3.22 -3.86,5.98 -1.51,1.74 -3.07,3.53 -3.78,4.96 -1.25,2.5 -2.32,6.64 -0.78,8.03 0.17,0.04 0.91,-0.22 1.4,-0.39 1.27,-0.44 2.84,-0.99 4.48,-0.41 2.05,0.74 3.4,1.55 4.47,2.19 2.24,1.35 3.16,1.9 7.96,-0.2 2.61,-1.15 7.39,-0.42 11.61,0.22 2.38,0.36 5.62,0.85 6.34,0.5 1.89,-2.98 0.21,-9.21 -1.88,-11.58 -0.2,-0.2 -1.65,-1.37 -8.93,-6.78l-0.37 -0.27c-0.43,-0.33 -0.52,-0.94 -0.2,-1.38 0.32,-0.43 0.94,-0.52 1.37,-0.2l0.38 0.28c8.72,6.47 9.06,6.87 9.23,7.05 2.27,2.59 4.75,9.88 1.99,14.03 -0.88,1.34 -3.29,1.04 -8.22,0.29 -3.76,-0.57 -8.44,-1.28 -10.53,-0.36 -2.55,1.12 -4.25,1.57 -5.61,1.57z"/>
  <path class="fil1" d="M71.74 91.51c-0.43,0 -0.83,-0.29 -0.95,-0.73 -0.14,-0.53 0.17,-1.06 0.7,-1.2 1.93,-0.52 3.52,-1.48 3.56,-2.15 0.11,-2.34 0.64,-3.2 1.22,-3.95 0.25,-0.33 0.34,-0.44 0.34,-0.94 0,-1.59 -0.29,-2.66 -0.86,-3.17 -0.77,-0.69 -2.28,-0.53 -3.88,-0.35 -0.77,0.08 -1.58,0.17 -2.38,0.17 -0.54,0 -0.98,-0.44 -0.98,-0.99 0,-0.54 0.44,-0.98 0.98,-0.98 0.7,0 1.45,-0.08 2.17,-0.16 1.96,-0.21 3.99,-0.42 5.41,0.85 1.01,0.91 1.51,2.43 1.51,4.63 0,1.17 -0.42,1.71 -0.76,2.15 -0.34,0.43 -0.72,0.92 -0.81,2.83 -0.12,2.46 -3.87,3.65 -5.01,3.95 -0.09,0.03 -0.17,0.04 -0.26,0.04z"/>
  <path class="fil1" d="M49.01 104.9c-0.36,0 -0.72,-0.21 -0.88,-0.56 -1.6,-3.34 0.69,-7.77 2.89,-12.05 1.49,-2.89 3.03,-5.87 2.97,-7.92 -0.01,-0.55 0.41,-1 0.96,-1.02 0.53,-0.01 0.99,0.42 1.01,0.96 0.07,2.56 -1.51,5.63 -3.19,8.88 -1.99,3.86 -4.04,7.84 -2.87,10.3 0.23,0.49 0.03,1.08 -0.46,1.31 -0.14,0.07 -0.28,0.1 -0.43,0.1z"/>
  <path class="fil1" d="M59.81 106.25c-0.54,0 -0.98,-0.44 -0.98,-0.98 0,-1.27 -0.32,-3.53 -0.74,-4.53 -1.08,-2.59 -0.72,-4.78 -0.41,-6.71 0.22,-1.38 0.43,-2.69 0.16,-4.11 -0.11,-0.53 0.24,-1.04 0.78,-1.15 0.53,-0.1 1.04,0.25 1.15,0.78 0.33,1.76 0.09,3.3 -0.15,4.79 -0.3,1.84 -0.58,3.57 0.29,5.65 0.58,1.39 0.89,3.96 0.89,5.28 0,0.54 -0.44,0.98 -0.99,0.98z"/>
  <path class="fil1" d="M71.4 106.02c-0.16,0 -0.32,-0.04 -0.47,-0.12 -1.14,-0.62 -1.53,-1.9 -1.98,-3.38 -0.49,-1.62 -1.04,-3.45 -2.69,-5.01 -1.87,-1.76 -2.49,-4.24 -3.1,-6.64 -0.6,-2.43 -1.18,-4.72 -2.99,-5.94 -0.45,-0.31 -0.57,-0.92 -0.27,-1.37 0.3,-0.45 0.91,-0.57 1.36,-0.26 2.44,1.64 3.14,4.41 3.81,7.09 0.56,2.22 1.08,4.32 2.54,5.69 2.03,1.92 2.72,4.2 3.22,5.87 0.32,1.07 0.6,1.99 1.04,2.23 0.48,0.26 0.66,0.85 0.4,1.33 -0.18,0.33 -0.52,0.51 -0.87,0.51z"/>
  <path class="fil1" d="M44.01 86.81c-0.6,0 -1.16,-0.08 -1.63,-0.16 -0.55,-0.08 -1.11,-0.17 -1.37,-0.06 -0.5,0.21 -1.08,-0.02 -1.29,-0.52 -0.21,-0.5 0.03,-1.08 0.53,-1.29 0.77,-0.32 1.61,-0.19 2.43,-0.07 1.31,0.2 2.44,0.38 3.57,-0.91 0.1,-0.12 0.23,-0.22 0.39,-0.34 0.1,-0.07 0.21,-0.15 0.29,-0.23 0.39,-0.37 1.01,-0.36 1.39,0.03 0.37,0.4 0.36,1.02 -0.03,1.39 -0.13,0.12 -0.3,0.26 -0.46,0.37 -0.05,0.04 -0.1,0.08 -0.13,0.11 -1.21,1.36 -2.53,1.68 -3.69,1.68z"/>
  <path class="fil1" d="M70.64 85.43c-1.73,0 -2.84,-0.53 -3.84,-1.01 -0.94,-0.45 -1.76,-0.85 -3.1,-0.85 -0.55,0 -0.99,-0.44 -0.99,-0.98 0,-0.54 0.44,-0.98 0.99,-0.98 1.79,0 2.94,0.55 3.95,1.04 1.25,0.6 2.34,1.12 4.79,0.61 0.53,-0.11 1.05,0.23 1.16,0.76 0.11,0.54 -0.23,1.06 -0.76,1.17 -0.84,0.17 -1.56,0.24 -2.2,0.24z"/>
  <path class="fil1" d="M62.29 72.05c-0.14,0 -0.29,-0.04 -0.41,-0.14 -1.3,-1.03 -4,-1.61 -5.43,-0.21 -0.26,0.25 -0.68,0.24 -0.93,-0.02 -0.25,-0.26 -0.25,-0.67 0.01,-0.92 1.85,-1.8 5.26,-1.38 7.17,0.12 0.28,0.23 0.33,0.64 0.1,0.92 -0.12,0.17 -0.32,0.25 -0.51,0.25z"/>
  <path class="fil1" d="M85.25 40.64c-0.08,0 -0.16,-0.01 -0.24,-0.03 -2.2,-0.56 -2.15,-2.71 -2.12,-3.87 0.01,-0.25 0.02,-0.63 -0.02,-0.75 -0.13,-0.45 -0.3,-0.54 -0.71,-0.78 -0.45,-0.26 -1.07,-0.61 -1.49,-1.46 -0.43,-0.86 -0.41,-1.71 -0.39,-2.39 0.03,-0.95 -0.03,-0.98 -0.33,-1.1 -1.9,-0.81 -1.99,-2.38 -2.06,-3.42 -0.07,-1.18 -0.1,-1.72 -1.75,-2.07 -1.7,-0.36 -2.24,-1.54 -2.6,-2.32 -0.36,-0.77 -0.49,-0.99 -1.16,-1.06 -2.45,-0.23 -3.12,-1.14 -3.64,-2.13 -0.27,-0.52 -0.41,-0.78 -1.88,-0.78 -0.55,0 -0.99,-0.44 -0.99,-0.99 0,-0.54 0.44,-0.98 0.99,-0.98 2.46,0 3.12,0.87 3.62,1.84 0.29,0.54 0.49,0.93 2.09,1.09 1.82,0.17 2.38,1.38 2.75,2.19 0.34,0.74 0.52,1.07 1.23,1.22 3.12,0.66 3.23,2.59 3.31,3.87 0.06,1.04 0.12,1.41 0.85,1.73 1.61,0.68 1.57,2.06 1.54,2.97 -0.02,0.53 -0.03,1.03 0.18,1.46 0.15,0.3 0.32,0.41 0.7,0.62 0.54,0.31 1.28,0.73 1.63,1.94 0.12,0.4 0.11,0.86 0.1,1.35 -0.04,1.4 0.09,1.78 0.64,1.92 0.52,0.13 0.84,0.67 0.71,1.19 -0.12,0.45 -0.52,0.74 -0.96,0.74z"/>
  <path class="fil1" d="M89.44 37c-0.08,0 -0.16,-0.01 -0.24,-0.04 -0.27,-0.08 -1.07,-0.31 -1.49,-1 -0.48,-0.78 -0.66,-1.89 -0.74,-2.36 -0.01,-0.05 -0.02,-0.1 -0.02,-0.12 -0.05,-0.17 -0.29,-0.3 -0.68,-0.5 -0.6,-0.31 -1.5,-0.77 -1.43,-2.01 0.06,-0.84 -0.73,-1.66 -1.42,-2.39 -0.59,-0.62 -1.15,-1.2 -1.28,-1.86 -0.95,-4.99 -2.49,-5.19 -3.85,-5.36 -0.83,-0.11 -1.87,-0.24 -2.49,-1.42 -0.78,-1.49 -1.79,-1.75 -2.69,-1.98 -0.66,-0.17 -1.34,-0.34 -1.69,-1.02 -0.77,-1.52 -0.99,-1.52 -1.56,-1.51 -0.37,0 -0.86,0.01 -1.52,-0.19 -1.29,-0.41 -1.85,-0.89 -2.26,-1.24 -0.48,-0.41 -0.74,-0.63 -2.52,-0.46 -0.36,0.02 -0.68,-0.23 -0.71,-0.59 -0.04,-0.36 0.23,-0.68 0.59,-0.72 2.22,-0.21 2.77,0.16 3.5,0.78 0.35,0.3 0.76,0.65 1.79,0.98 0.46,0.14 0.79,0.14 1.11,0.13 1.09,-0.01 1.72,0.2 2.75,2.22 0.07,0.16 0.43,0.25 0.85,0.35 0.98,0.25 2.47,0.64 3.52,2.64 0.29,0.55 0.67,0.62 1.5,0.73 2.03,0.26 3.93,0.95 4.97,6.41 0.05,0.29 0.52,0.77 0.93,1.21 0.84,0.87 1.88,1.96 1.79,3.38 -0.02,0.32 0.09,0.43 0.72,0.75 0.5,0.26 1.13,0.58 1.34,1.33 0.01,0.04 0.03,0.13 0.05,0.25 0.06,0.36 0.22,1.32 0.57,1.89 0.1,0.17 0.35,0.31 0.73,0.42 0.05,0.01 0.09,0.03 0.11,0.04 0.34,0.12 0.51,0.5 0.38,0.84 -0.1,0.26 -0.35,0.42 -0.61,0.42z"/>
  <g>
   <path class="fil1" d="M34.03 36.15c0,0 0,0 0,0 0,0 0,0 0,0zm0 0.01l0 0 0 0zm0.93 0.16c-0.37,0 -0.73,-0.06 -1,-0.1 -0.06,-0.01 -0.12,-0.02 -0.16,-0.03 -0.44,0.01 -0.86,-0.27 -0.99,-0.71 -0.14,-0.52 0.16,-1.07 0.68,-1.21 0.26,-0.08 0.48,-0.04 0.79,0.01 0.18,0.03 0.66,0.11 0.82,0.07 0.47,-0.13 0.84,-0.49 0.96,-0.64 0.11,-0.42 0.06,-1.14 0.02,-1.72 -0.02,-0.3 -0.04,-0.6 -0.04,-0.86 -0.02,-1.6 0.96,-2.56 2.91,-2.86 0.82,-0.12 0.99,-0.21 1.12,-0.29 0.05,-0.02 0.09,-0.05 0.14,-0.08 0.06,-0.16 0.13,-0.52 0.2,-0.88 0.05,-0.25 0.11,-0.54 0.18,-0.89 0.4,-1.9 1.72,-2.28 3.9,-2.92l0.23 -0.07c0.65,-0.19 0.65,-0.19 1.39,-2.34 0.55,-1.57 3.07,-2.14 4.23,-2.1 1.58,0.07 1.72,-0.27 1.9,-0.7 0.1,-0.26 0.23,-0.58 0.51,-0.86 1.54,-1.52 2.96,-1.38 4,-1.28 0.94,0.09 1.46,0.15 2.23,-0.78 0.35,-0.41 0.97,-0.47 1.38,-0.13 0.42,0.35 0.48,0.97 0.13,1.39 -1.43,1.72 -2.88,1.58 -3.93,1.48 -0.93,-0.09 -1.54,-0.16 -2.42,0.72 0,0.01 -0.05,0.12 -0.09,0.21 -0.4,0.99 -1.06,2.04 -3.79,1.91 -0.84,-0.02 -2.14,0.46 -2.29,0.79 -0.87,2.51 -1.14,3.12 -2.7,3.58l-0.23 0.06c-2.19,0.65 -2.38,0.75 -2.53,1.45 -0.07,0.33 -0.13,0.62 -0.17,0.86 -0.24,1.18 -0.36,1.83 -1.22,2.25 -0.03,0.01 -0.06,0.03 -0.08,0.04 -0.34,0.19 -0.71,0.37 -1.8,0.53 -1.25,0.18 -1.24,0.52 -1.24,0.88 0.01,0.23 0.03,0.49 0.04,0.76 0.06,0.83 0.12,1.77 -0.13,2.52 -0.18,0.57 -1.08,1.52 -2.29,1.86 -0.21,0.06 -0.44,0.08 -0.66,0.08z"/>
  </g>
  <path class="fil1" d="M36.76 26.43c-0.03,0 -0.06,0 -0.09,0 -0.36,-0.04 -0.63,-0.35 -0.6,-0.71 0.02,-0.21 0.14,-0.39 0.3,-0.5 0,-0.01 0,-0.02 0,-0.04 0.05,-0.66 0.18,-2.22 2.74,-2.32 1.03,-0.03 1.05,-0.27 1.13,-1.07 0.1,-0.92 0.24,-2.31 2.57,-2.67 1.85,-0.29 2.01,-0.93 2.09,-1.27 0.44,-1.79 1.03,-2.55 3.33,-2.32 0.32,0.04 0.59,0.1 0.83,0.15 0.75,0.16 0.87,0.19 1.29,-1.24 0.51,-1.76 2.47,-1.6 3.9,-1.48 0.83,0.06 1.77,0.14 2.09,-0.14 0.04,-0.03 0.14,-0.12 0.16,-0.42 0.02,-0.36 0.33,-0.62 0.69,-0.61 0.36,0.02 0.64,0.33 0.61,0.69 -0.03,0.57 -0.24,1.01 -0.6,1.33 -0.74,0.64 -1.92,0.54 -3.05,0.45 -1.65,-0.13 -2.36,-0.09 -2.55,0.54 -0.64,2.22 -1.42,2.46 -2.82,2.16 -0.22,-0.05 -0.44,-0.1 -0.68,-0.12 -1.56,-0.17 -1.62,0.06 -1.93,1.33 -0.3,1.26 -1.28,1.95 -3.16,2.24 -1.33,0.21 -1.38,0.67 -1.46,1.51 -0.09,0.87 -0.23,2.17 -2.39,2.25 -1.4,0.05 -1.44,0.52 -1.48,1.11 -0.03,0.33 -0.06,0.69 -0.36,0.95 -0.11,0.09 -0.29,0.2 -0.56,0.2z"/>
  <path class="fil2" d="M51.71 41.88c0.82,-0.04 1.51,0.59 1.55,1.4 0.04,0.82 -0.59,1.51 -1.41,1.54 -0.81,0.04 -1.5,-0.59 -1.54,-1.4 -0.04,-0.81 0.59,-1.5 1.4,-1.54z"/>
  <path class="fil2" d="M72.08 44.19c0.81,-0.04 1.5,0.58 1.54,1.4 0.04,0.81 -0.59,1.5 -1.4,1.54 -0.81,0.04 -1.5,-0.59 -1.54,-1.4 -0.04,-0.82 0.59,-1.51 1.4,-1.54z"/>
  <path class="fil1" d="M37.69 51.87c-0.2,0 -0.39,-0.08 -0.52,-0.25 -1.21,-1.53 -1.46,-3.66 -1.29,-5.14 0.04,-0.36 0.37,-0.63 0.73,-0.58 0.36,0.04 0.61,0.37 0.57,0.73 -0.18,1.53 0.22,3.17 1.02,4.18 0.22,0.29 0.18,0.7 -0.11,0.92 -0.12,0.1 -0.26,0.14 -0.4,0.14z"/>
 </g>
</svg>
