<?xml version="1.0" encoding="UTF-8"?>
<!DOCTYPE svg PUBLIC "-//W3C//DTD SVG 1.1//EN" "http://www.w3.org/Graphics/SVG/1.1/DTD/svg11.dtd">
<!-- Creator: CorelDRAW 2018 (64-Bit) -->
<svg xmlns="http://www.w3.org/2000/svg" xml:space="preserve" width="845px" height="845px" version="1.1" style="shape-rendering:geometricPrecision; text-rendering:geometricPrecision; image-rendering:optimizeQuality; fill-rule:evenodd; clip-rule:evenodd"
viewBox="0 0 117.14 117.14"
 xmlns:xlink="http://www.w3.org/1999/xlink">
 <defs>
  <style type="text/css">
   <![CDATA[
    .fil0 {fill:none}
    .fil1 {fill:black;fill-rule:nonzero}
   ]]>
  </style>
 </defs>
 <g id="Слой_x0020_1">
  <metadata id="CorelCorpID_0Corel-Layer"/>
  <rect class="fil0" width="117.14" height="117.14"/>
 </g>
 <g id="_1">
  <metadata id="CorelCorpID_1Corel-Layer"/>
  <path class="fil1" d="M84.24 53.06c-0.75,0 -1.72,-0.12 -2.72,-0.32 -1.27,-0.26 -2.27,-0.68 -3.23,-1.08 -1.1,-0.45 -2.14,-0.88 -3.51,-1.05 -0.54,-0.06 -0.93,-0.55 -0.86,-1.09 0.06,-0.54 0.55,-0.93 1.09,-0.86 1.64,0.2 2.85,0.7 4.03,1.19 0.92,0.38 1.79,0.74 2.88,0.96 0.9,0.19 1.78,0.27 2.41,0.28 0,0 0.01,0 0.01,0 0.54,0 0.98,0.43 0.99,0.97 0,0.54 -0.43,0.99 -0.97,1 -0.04,0 -0.08,0 -0.12,0z"/>
  <path class="fil1" d="M83.29 50.56c-0.22,0 -0.43,-0.1 -0.55,-0.3 -0.32,-0.49 -0.52,-0.92 -0.71,-1.31 -0.51,-1.08 -0.68,-1.45 -2.89,-1.21 -0.6,0.07 -1.19,0.22 -1.76,0.37 -0.74,0.19 -1.5,0.39 -2.27,0.39 -0.36,0 -0.65,-0.29 -0.65,-0.65 0,-0.36 0.29,-0.66 0.65,-0.66 0.6,0 1.25,-0.17 1.94,-0.35 0.62,-0.16 1.26,-0.32 1.94,-0.4 3,-0.33 3.56,0.53 4.23,1.95 0.16,0.35 0.35,0.75 0.62,1.16 0.19,0.31 0.11,0.71 -0.2,0.91 -0.11,0.07 -0.23,0.1 -0.35,0.1z"/>
  <path class="fil1" d="M87.94 47.78c-0.02,0 -0.05,-0.01 -0.08,-0.01 -1.1,-0.09 -2.42,-0.7 -3.59,-1.23 -0.47,-0.21 -0.91,-0.42 -1.29,-0.56 -0.51,-0.2 -0.97,-0.34 -1.25,-0.4 -1.04,-0.19 -1.65,-0.15 -2.42,-0.01 -0.28,0.06 -0.57,0.12 -0.87,0.2 -0.78,0.18 -1.59,0.37 -2.38,0.37 -0.55,0 -0.98,-0.44 -0.98,-0.99 0,-0.54 0.43,-0.98 0.98,-0.98 0.56,0 1.26,-0.16 1.94,-0.32 0.32,-0.07 0.64,-0.15 0.94,-0.21 0.96,-0.18 1.82,-0.24 3.16,0.01 0.53,0.1 1.22,0.35 1.59,0.49 0.43,0.17 0.9,0.39 1.4,0.62 1.02,0.46 2.18,0.99 2.94,1.05 0.54,0.05 0.94,0.53 0.89,1.07 -0.04,0.51 -0.47,0.9 -0.98,0.9z"/>
  <g>
   <path class="fil1" d="M91.22 49.77l0 0 0 0zm0 0c0,0 0,0 0,0 0,0 0,0 0,0zm0.14 0.17l0.01 0 -0.01 0zm0.7 0.3c-0.27,0 -0.53,-0.11 -0.72,-0.32 -0.12,-0.09 -0.46,-0.3 -0.71,-0.42 -0.49,-0.23 -0.7,-0.82 -0.47,-1.31 0.23,-0.49 0.81,-0.7 1.31,-0.47 0.01,0.01 1.14,0.55 1.43,1.03 0.28,0.46 0.13,1.06 -0.33,1.35 -0.16,0.09 -0.34,0.14 -0.51,0.14z"/>
  </g>
  <path class="fil1" d="M89.27 66.09c-0.56,0 -0.93,-0.25 -1.22,-0.44 -0.39,-0.26 -0.87,-0.57 -2.46,-0.57 -1.69,0 -2.87,-0.48 -3.42,-1.39 -0.31,-0.53 -0.54,-1.44 0.17,-2.77 0.26,-0.48 0.85,-0.66 1.33,-0.4 0.48,0.26 0.66,0.85 0.4,1.33 -0.23,0.43 -0.27,0.73 -0.21,0.83 0.1,0.18 0.65,0.43 1.73,0.43 2.18,0 3.03,0.56 3.54,0.9 0.07,0.04 0.16,0.11 0.2,0.12 0.73,-0.17 0.84,-0.34 1.1,-0.76l0.1 -0.15c0.35,-0.55 0.2,-1.44 -0.45,-2.65 -0.17,-0.32 -0.31,-0.55 -0.42,-0.74 -0.5,-0.89 -0.58,-1.1 -0.85,-2.71 -0.27,-1.65 -0.31,-3.48 -0.31,-5.05 0,-3.1 0.98,-3.93 2.25,-4.69 0.19,-0.11 0.37,-0.22 0.54,-0.34 0.39,-1.69 1.15,-11.47 -1.23,-15.05 -0.49,-0.73 -1.05,-1.1 -1.71,-1.14 -0.55,-0.03 -0.96,-0.5 -0.93,-1.04 0.04,-0.54 0.5,-0.95 1.04,-0.92 1.31,0.08 3.1,0.84 4.19,4.02 1.56,4.55 1.18,14.52 0.11,15.46 -0.35,0.31 -0.69,0.51 -1,0.7 -0.81,0.48 -1.29,0.77 -1.29,3 0,1.49 0.03,3.22 0.28,4.73 0.22,1.36 0.23,1.37 0.62,2.05 0.11,0.2 0.26,0.45 0.44,0.78 1.01,1.89 1.14,3.46 0.37,4.66l-0.08 0.13c-0.43,0.68 -0.94,1.32 -2.41,1.62 -0.15,0.03 -0.29,0.05 -0.42,0.05z"/>
  <path class="fil1" d="M85.98 70.65c-0.62,0 -1.27,-0.3 -1.82,-0.55 -0.25,-0.12 -0.63,-0.29 -0.77,-0.31 -0.96,-0.11 -1.76,-0.09 -2.53,-0.07 -1.68,0.05 -3.26,0.1 -5.63,-1.32 -0.47,-0.27 -0.62,-0.88 -0.34,-1.34 0.28,-0.47 0.88,-0.62 1.34,-0.34 1.88,1.11 3.01,1.08 4.57,1.04 0.81,-0.03 1.72,-0.05 2.83,0.08 0.44,0.06 0.88,0.26 1.34,0.47 0.2,0.09 0.49,0.22 0.72,0.3 0,-0.02 0,-0.04 0,-0.06 -0.06,-1.89 0.01,-2.31 0.48,-3 0.13,-0.19 0.28,-0.41 0.5,-0.99 0.19,-0.51 0.76,-0.76 1.27,-0.57 0.51,0.19 0.76,0.76 0.57,1.26 -0.3,0.8 -0.55,1.17 -0.72,1.41 -0.13,0.2 -0.18,0.27 -0.14,1.83 0.03,0.9 -0.23,1.54 -0.76,1.89 -0.29,0.19 -0.6,0.27 -0.91,0.27z"/>
  <path class="fil1" d="M84.4 74.72c-0.21,0 -0.41,-0.07 -0.59,-0.2 -0.68,-0.51 -1.14,-0.64 -1.62,-0.78 -0.94,-0.27 -1.67,-0.57 -2.53,-1.99 -0.28,-0.46 -0.14,-1.07 0.33,-1.35 0.46,-0.28 1.07,-0.13 1.35,0.33 0.53,0.87 0.78,0.95 1.4,1.13 0.54,0.15 1.28,0.36 2.24,1.09 0.44,0.32 0.53,0.94 0.2,1.37 -0.19,0.26 -0.48,0.4 -0.78,0.4z"/>
  <path class="fil1" d="M74.85 83.58c-0.52,0 -1.04,-0.04 -1.55,-0.1 -2.56,-0.35 -7.32,-2.67 -10,-4.87 -0.42,-0.35 -0.48,-0.97 -0.13,-1.39 0.34,-0.41 0.96,-0.47 1.38,-0.13 2.6,2.13 7.05,4.17 9.01,4.44 1.37,0.18 2.93,0.05 3.96,-0.34 2.78,-1.06 3.06,-1.95 3.49,-3.3 0.28,-0.91 0.64,-2.04 1.73,-3.29 0.35,-0.41 0.98,-0.45 1.38,-0.09 0.41,0.36 0.45,0.98 0.1,1.39 -0.82,0.93 -1.07,1.73 -1.34,2.58 -0.48,1.55 -0.99,3.15 -4.66,4.55 -0.96,0.36 -2.15,0.55 -3.37,0.55z"/>
  <path class="fil1" d="M71.18 83.77c-6.03,0 -27.62,-5.16 -28.63,-10.51 -0.02,-0.07 -0.04,-0.13 -0.05,-0.19 -0.11,-0.53 0.23,-1.06 0.76,-1.16 0.53,-0.12 1.05,0.23 1.16,0.76 0.03,0.09 0.04,0.15 0.06,0.23 0.67,3.53 21.15,9.24 27.08,8.9 0.54,-0.05 1.01,0.38 1.04,0.92 0.03,0.54 -0.38,1 -0.92,1.04 -0.15,0.01 -0.32,0.01 -0.5,0.01z"/>
  <path class="fil1" d="M21.69 100.11c-0.24,0 -0.48,-0.08 -0.67,-0.26 -0.4,-0.37 -0.42,-0.99 -0.05,-1.39 0.31,-0.33 7.48,-5.52 7.54,-5.55 2.68,-1.71 8.28,-8.59 10.01,-11.62 0.8,-1.39 1.48,-2.9 2.21,-4.5l0.12 -0.27c1.99,-4.38 2.07,-5.69 2.26,-8.55 0.06,-1.04 0.15,-2.34 0.35,-4.04 0.06,-0.54 0.55,-0.93 1.09,-0.87 0.54,0.07 0.92,0.56 0.86,1.09 -0.2,1.65 -0.27,2.87 -0.34,3.95 -0.19,2.92 -0.29,4.53 -2.43,9.23l-0.12 0.27c-0.75,1.64 -1.45,3.19 -2.29,4.67 -1.66,2.88 -7.43,10.23 -10.66,12.29 -0.46,0.3 -6.72,4.88 -7.22,5.29 -0.18,0.18 -0.42,0.26 -0.66,0.26z"/>
  <path class="fil1" d="M61.73 100.47c-6.88,0 -15.38,-2.76 -19.72,-5.55 -2.53,-1.64 -5.66,-3.35 -6.51,-3.26 -0.36,0.03 -0.68,-0.24 -0.71,-0.6 -0.03,-0.36 0.24,-0.67 0.6,-0.71 1.56,-0.12 5.65,2.38 7.33,3.46 5.66,3.65 18.54,7.09 24.75,4.38 5.01,-2.19 6.52,-4.82 5.55,-9.71 -0.47,-2.4 -1.2,-4.89 -1.33,-5.18 -0.18,-0.31 -0.08,-0.7 0.24,-0.88 0.31,-0.19 0.72,-0.07 0.9,0.24 0.24,0.4 1.02,3.28 1.48,5.57 1.08,5.49 -0.75,8.73 -6.31,11.16 -1.75,0.76 -3.91,1.08 -6.27,1.08z"/>
  <path class="fil1" d="M61.7 95.96c-3.91,0 -7.98,-0.7 -11.31,-1.77 -2.17,-0.69 -10.59,-4.91 -11.8,-6.59 -0.21,-0.29 -0.14,-0.7 0.15,-0.91 0.3,-0.22 0.71,-0.15 0.92,0.14 0.91,1.27 8.77,5.36 11.13,6.12 5.39,1.72 15.37,2.96 20.79,-0.65 0.3,-0.2 0.71,-0.12 0.91,0.18 0.2,0.31 0.12,0.71 -0.18,0.91 -2.75,1.84 -6.6,2.57 -10.61,2.57z"/>
  <path class="fil1" d="M65.67 90.26c-7.58,0 -20.43,-2.9 -23.65,-7.22 -0.32,-0.44 -0.23,-1.05 0.2,-1.38 0.44,-0.32 1.05,-0.23 1.38,0.2 2.67,3.6 15.45,6.72 23.04,6.41 2.66,-0.1 3.69,-0.63 3.87,-0.93 0.29,-0.46 0.9,-0.59 1.36,-0.31 0.46,0.29 0.6,0.9 0.31,1.36 -0.71,1.13 -2.5,1.73 -5.47,1.85 -0.33,0.01 -0.68,0.02 -1.04,0.02z"/>
  <path class="fil1" d="M95.69 42.03c-0.55,0 -0.99,-0.44 -0.99,-0.98 0,-1.75 0.43,-3.22 0.78,-4.41 0.22,-0.77 0.42,-1.44 0.42,-1.92 0,-1.96 -1.51,-5.61 -3.53,-7.56 -0.71,-0.69 -1.41,-1.08 -1.96,-1.05 -0.53,0.02 -1,-0.4 -1.01,-0.95 -0.02,-0.54 0.41,-0.99 0.95,-1.01 1.11,-0.04 2.26,0.5 3.39,1.6 2.23,2.16 4.12,6.27 4.12,8.97 0,0.76 -0.23,1.55 -0.5,2.47 -0.32,1.12 -0.69,2.39 -0.69,3.86 0,0.54 -0.44,0.98 -0.98,0.98z"/>
  <path class="fil1" d="M92.44 31.63c-0.2,0 -0.4,-0.09 -0.53,-0.26 -0.38,-0.51 -0.63,-1.07 -0.88,-1.62 -0.63,-1.38 -1.13,-2.47 -3.31,-2.67 -0.36,-0.03 -0.62,-0.35 -0.59,-0.71 0.03,-0.36 0.35,-0.62 0.71,-0.59 2.94,0.26 3.74,2.02 4.38,3.43 0.23,0.51 0.45,0.98 0.74,1.38 0.22,0.29 0.16,0.7 -0.13,0.92 -0.12,0.08 -0.26,0.12 -0.39,0.12z"/>
  <path class="fil1" d="M40.87 70.48c-0.9,0 -2.4,-0.43 -5.21,-1.67 -0.12,-0.05 -0.2,-0.08 -0.23,-0.1 -1.94,-0.68 -6.29,-3.91 -7.53,-7.11 -0.6,-1.56 -0.3,-2.68 0.06,-3.36 1.29,-2.41 0.43,-4.33 -0.4,-6.18 -0.79,-1.78 -1.69,-3.78 0.06,-5.64 1.98,-2.1 4.17,-1.92 5.62,-1.8 0.67,0.06 1.3,0.11 1.5,-0.09 0.16,-0.16 0.51,-0.82 0.3,-3.43 -0.36,-4.37 0.04,-5.56 0.49,-6.93 0.26,-0.76 0.52,-1.56 0.69,-3.18 0.35,-3.56 2.56,-5.65 4.34,-7.33 0.76,-0.71 1.41,-1.33 1.75,-1.91 1.6,-2.7 5.24,-4.42 8.16,-5.8 1.22,-0.57 2.38,-1.12 2.89,-1.54 2.96,-2.39 8.71,-2.39 11.79,-2.39 4.5,0 12.1,1.7 15.81,4.13 0.78,0.51 1.76,0.78 2.8,1.06 1.29,0.36 2.76,0.77 4.12,1.72 1.99,1.39 2.01,3.48 2.02,4.6 0,0.17 0,0.4 0.02,0.47 0.16,0.52 -0.13,1.06 -0.65,1.22 -0.52,0.16 -1.08,-0.14 -1.24,-0.66 -0.09,-0.3 -0.09,-0.61 -0.09,-1.01 -0.01,-1.2 -0.11,-2.26 -1.18,-3.01 -1.09,-0.76 -2.33,-1.1 -3.53,-1.43 -1.13,-0.31 -2.31,-0.64 -3.34,-1.32 -3.33,-2.18 -10.53,-3.81 -14.74,-3.81 -2.64,0 -8.14,0 -10.55,1.96 -0.7,0.57 -1.84,1.11 -3.29,1.79 -2.54,1.19 -6.02,2.83 -7.3,5.02 -0.48,0.82 -1.27,1.56 -2.1,2.34 -1.62,1.53 -3.46,3.27 -3.74,6.1 -0.18,1.83 -0.5,2.77 -0.77,3.61 -0.41,1.21 -0.73,2.17 -0.4,6.14 0.22,2.66 -0.04,4.15 -0.87,4.98 -0.85,0.84 -1.97,0.75 -3.05,0.66 -1.33,-0.11 -2.7,-0.23 -4.03,1.18 -0.78,0.83 -0.53,1.62 0.31,3.49 0.87,1.96 2.08,4.65 0.33,7.92 -0.24,0.46 -0.23,1.02 0.04,1.72 0.97,2.49 4.76,5.41 6.37,5.98 0.04,0.01 0.16,0.06 0.35,0.14 2.62,1.15 3.74,1.43 4.2,1.49 0.16,-0.21 0.41,-0.35 0.7,-0.38 0.54,-0.04 1.01,0.36 1.06,0.91 0.03,0.47 -0.16,0.9 -0.54,1.17 -0.24,0.17 -0.55,0.28 -1,0.28z"/>
  <path class="fil1" d="M45 63.8c-0.35,0 -0.69,-0.18 -0.86,-0.51 -0.53,-0.97 -0.35,-1.71 -0.11,-2.15 0.81,-1.5 3.38,-1.72 5.65,-1.91 0.61,-0.05 1.19,-0.1 1.51,-0.17 3.84,-0.8 3.85,-1.61 3.87,-3.79 0.03,-1.97 0.07,-4.66 2.66,-8.18 1.25,-1.71 3.75,-1.95 6.4,-2.21 3.9,-0.38 7.92,-0.77 9.74,-5.04 0.2,-0.47 0.19,-1.07 0.18,-1.82 -0.02,-1.76 -0.05,-4.17 2.74,-7.07 0.73,-0.75 2.02,-0.92 3.52,-1.11 1.55,-0.2 3.47,-0.44 3.71,-1.38 0.14,-0.52 0.67,-0.84 1.2,-0.71 0.52,0.14 0.84,0.68 0.71,1.2 -0.58,2.23 -3.23,2.57 -5.37,2.84 -0.79,0.1 -2.11,0.27 -2.35,0.52 -2.23,2.32 -2.21,4.03 -2.19,5.68 0.01,0.87 0.02,1.76 -0.34,2.62 -2.28,5.34 -7.31,5.83 -11.35,6.23 -2.21,0.21 -4.29,0.42 -5.02,1.41 -2.22,3.02 -2.25,5.25 -2.27,7.05 -0.04,2.84 -0.42,4.64 -5.44,5.69 -0.44,0.09 -1.04,0.14 -1.74,0.2 -0.94,0.08 -3.8,0.32 -4.09,0.88 0,0 0,0.09 0.11,0.28 0.25,0.48 0.07,1.08 -0.4,1.34 -0.15,0.08 -0.31,0.11 -0.47,0.11z"/>
  <path class="fil1" d="M62.11 38.24c-0.54,0 -0.98,-0.44 -0.98,-0.98 0,-0.54 0.44,-0.98 0.98,-0.98 0.15,0 0.58,-0.05 0.8,-0.1 2.05,-2.04 2.66,-4.55 3.2,-6.78 0.63,-2.6 1.23,-5.06 4.01,-5.74 5.76,-1.39 8.36,0.09 9.9,0.98 0.44,0.25 0.81,0.46 1.06,0.49 0.53,0.07 0.92,0.56 0.85,1.1 -0.06,0.53 -0.55,0.92 -1.09,0.85 -0.64,-0.08 -1.2,-0.4 -1.79,-0.74 -1.46,-0.83 -3.46,-1.98 -8.47,-0.77 -1.54,0.38 -1.94,1.73 -2.56,4.29 -0.58,2.41 -1.31,5.41 -3.88,7.87 -0.54,0.51 -1.97,0.51 -2.03,0.51z"/>
  <path class="fil1" d="M65.92 42.87c-1.99,0 -4.51,-0.35 -4.86,-0.42 -0.53,-0.1 -0.88,-0.62 -0.78,-1.15 0.1,-0.53 0.62,-0.88 1.15,-0.78 1.29,0.25 5.1,0.55 5.8,0.29 2.65,-1.27 3.45,-4.21 4.16,-6.82 0.69,-2.55 1.41,-5.18 4.04,-5.18 0.55,0 0.99,0.44 0.99,0.98 0,0.54 -0.44,0.98 -0.99,0.98 -1.02,0 -1.44,1.14 -2.14,3.74 -0.78,2.86 -1.75,6.42 -5.23,8.08 -0.43,0.21 -1.23,0.28 -2.14,0.28z"/>
  <path class="fil1" d="M39.66 51.1c-0.88,0 -1.74,-0.2 -2.47,-0.88 -0.4,-0.36 -0.43,-0.99 -0.06,-1.39 0.37,-0.39 0.99,-0.42 1.39,-0.05 0.41,0.38 0.98,0.45 2.16,0.26 2.69,-0.41 4.42,-2.59 5.78,-7.26 0.22,-0.78 0.42,-1.57 0.62,-2.34 1.19,-4.74 2.43,-9.64 9.57,-9.78 3.98,-0.07 4.85,-2.06 5.84,-4.37 0.48,-1.1 0.98,-2.24 1.84,-3.13 4.59,-4.68 7.96,-4.52 14.05,-3.09 2.76,0.64 3.44,1.26 4.49,2.39 0.32,0.34 0.69,0.73 1.22,1.2 0.41,0.36 0.45,0.98 0.1,1.39 -0.36,0.4 -0.98,0.45 -1.39,0.09 -0.61,-0.53 -1.03,-0.98 -1.36,-1.34 -0.83,-0.88 -1.2,-1.28 -3.51,-1.82 -5.72,-1.34 -8.25,-1.46 -12.19,2.56 -0.61,0.62 -1.02,1.55 -1.44,2.53 -1.06,2.43 -2.37,5.46 -7.61,5.56 -5.65,0.11 -6.56,3.72 -7.71,8.29 -0.2,0.79 -0.4,1.6 -0.64,2.4 -1.06,3.67 -2.86,7.97 -7.36,8.66 -0.44,0.07 -0.88,0.12 -1.32,0.12z"/>
  <path class="fil1" d="M39.69 40.84c-0.09,0 -0.19,-0.02 -0.28,-0.06 -0.33,-0.16 -0.46,-0.55 -0.31,-0.88l0.1 -0.2c0.03,-0.05 0.06,-0.1 0.09,-0.14 0.5,-0.66 2.13,-7.01 2.24,-8.18 0.38,-3.71 5.65,-8.2 10.72,-11.01 3.2,-1.77 7.64,-3.27 9.77,-3.57 2.71,-0.37 3.63,-0.28 4.8,-0.16 0.66,0.07 1.41,0.15 2.66,0.15 0.36,0 0.65,0.29 0.65,0.65 0,0.36 -0.29,0.66 -0.65,0.66 -1.32,0 -2.11,-0.08 -2.8,-0.15 -1.12,-0.12 -1.93,-0.2 -4.48,0.15 -1.71,0.24 -6.01,1.59 -9.32,3.42 -5.55,3.07 -9.77,7.27 -10.04,9.99 -0.1,0.98 -1.67,7.59 -2.48,8.8l-0.08 0.16c-0.11,0.23 -0.34,0.37 -0.59,0.37z"/>
  <path class="fil1" d="M39.17 46.28c-0.17,0 -0.35,-0.01 -0.54,-0.03 -0.54,-0.04 -0.94,-0.52 -0.89,-1.06 0.05,-0.54 0.53,-0.94 1.06,-0.89 3.39,0.28 4.57,-4 5.67,-9.2 0.35,-1.63 0.65,-3.04 1.07,-4.06 0.81,-1.96 1.98,-3.64 3.39,-4.88 3.12,-2.73 7.8,-3.77 10.07,-3.96 0.54,-0.05 1.02,0.36 1.06,0.9 0.04,0.54 -0.36,1.02 -0.9,1.06 -2.03,0.17 -6.2,1.09 -8.94,3.48 -1.16,1.02 -2.18,2.49 -2.86,4.15 -0.35,0.85 -0.65,2.25 -0.96,3.72 -0.97,4.57 -2.29,10.77 -7.23,10.77z"/>
  <path class="fil1" d="M34.81 59.36c-0.14,0 -0.28,-0.03 -0.41,-0.09 -0.92,-0.44 -1.31,-1.38 -0.97,-2.34 0.6,-1.7 3.21,-2.98 6.54,-2.18 2.4,0.57 4.36,0.39 5.82,-0.52 1.38,-0.86 2.32,-2.39 2.8,-4.55 0.06,-0.28 0.13,-0.66 0.22,-1.12 1.09,-5.62 2.51,-11 5.52,-12.4 0.76,-0.36 1.98,-0.6 3.5,0.24 0.47,0.27 0.64,0.87 0.37,1.34 -0.26,0.47 -0.86,0.64 -1.33,0.38 -0.86,-0.48 -1.39,-0.33 -1.71,-0.18 -2.52,1.17 -3.9,8.31 -4.42,10.99 -0.09,0.48 -0.17,0.89 -0.23,1.17 -0.6,2.7 -1.84,4.64 -3.68,5.79 -1.92,1.21 -4.38,1.46 -7.31,0.77 -2.22,-0.53 -3.45,0.18 -3.77,0.41 -0.27,0.19 -0.39,0.36 -0.44,0.46 0.42,0.26 0.6,0.81 0.38,1.27 -0.17,0.35 -0.52,0.56 -0.88,0.56z"/>
  <path class="fil1" d="M51.39 55.68c-0.35,0 -0.68,-0.18 -0.86,-0.51 -0.26,-0.48 -0.09,-1.07 0.39,-1.33 1.41,-0.77 1.49,-1.98 1.53,-4.04 0.03,-2.2 0.08,-4.94 3.09,-6.77 0.46,-0.28 1.06,-0.14 1.35,0.33 0.28,0.46 0.13,1.07 -0.33,1.35 -2.09,1.26 -2.11,3.05 -2.15,5.12 -0.03,2.05 -0.07,4.38 -2.55,5.73 -0.15,0.08 -0.31,0.12 -0.47,0.12z"/>
  <path class="fil1" d="M37.13 65.24c-2.01,0 -4.31,-0.73 -5.66,-1.89 -0.41,-0.35 -0.46,-0.97 -0.1,-1.38 0.35,-0.42 0.97,-0.46 1.38,-0.11 1.67,1.43 5.4,1.83 6.22,0.95 0.37,-0.4 0.99,-0.43 1.39,-0.06 0.4,0.37 0.42,0.99 0.06,1.39 -0.71,0.77 -1.94,1.1 -3.29,1.1z"/>
  <path class="fil1" d="M59.51 55.14c-0.22,0 -0.44,-0.08 -0.62,-0.23 -0.4,-0.32 -0.47,-0.89 -0.19,-1.31 0.01,-0.11 -0.02,-0.36 -0.04,-0.55 -0.13,-1.08 -0.37,-3.1 2.29,-4.71 0.47,-0.29 1.07,-0.14 1.35,0.32 0.28,0.47 0.14,1.07 -0.33,1.35 -1.58,0.97 -1.48,1.82 -1.36,2.81 0.08,0.64 0.16,1.36 -0.34,1.96 -0.19,0.24 -0.47,0.36 -0.76,0.36z"/>
  <path class="fil1" d="M85.07 97.49c-0.19,0 -0.38,-0.06 -0.55,-0.18 -1.25,-0.85 -4.85,-2.96 -6.33,-3.83 -0.05,-0.03 -4.98,-3.94 -5.09,-4.8 -0.08,-0.54 0.3,-1.04 0.84,-1.11 0.37,-0.05 0.72,0.12 0.93,0.4 0.47,0.51 3.72,3.47 4.31,3.81 1.87,1.09 5.19,3.05 6.45,3.91 0.44,0.31 0.56,0.92 0.25,1.37 -0.19,0.28 -0.5,0.43 -0.81,0.43z"/>
  <path class="fil1" d="M65.21 105.63c-8.48,0 -18.35,-3.21 -19.85,-3.71 -5.55,-1.87 -10.72,-4.28 -12.69,-5.22l-0.05 -0.03c-0.04,-0.01 -0.08,-0.03 -0.13,-0.05 -0.04,-0.01 -0.08,-0.03 -0.11,-0.04 -0.52,-0.14 -0.83,-0.67 -0.69,-1.19 0.14,-0.53 0.69,-0.84 1.21,-0.7 0.07,0.01 0.2,0.06 0.31,0.1l0.05 0.02c0.08,0.03 0.16,0.07 0.26,0.12 1.94,0.93 7.02,3.29 12.46,5.13 7.35,2.47 21.36,5.65 27.26,1.88 3.42,-2.19 3.59,-3.69 3.59,-7.71 0,-0.54 0.44,-0.98 0.99,-0.98 0.54,0 0.98,0.44 0.98,0.98 0,4.51 -0.43,6.76 -4.5,9.36 -2.34,1.5 -5.6,2.04 -9.09,2.04z"/>
  <path class="fil1" d="M91.63 54.3c-0.08,0 -0.16,-0.01 -0.25,-0.03 -0.04,-0.01 -0.18,-0.05 -0.35,-0.09 -0.17,-0.05 -0.37,-0.11 -0.48,-0.13 -0.82,-0.09 -1.44,-0.86 -1.68,-1.2 -0.31,-0.44 -0.2,-1.05 0.24,-1.36 0.45,-0.31 1.06,-0.21 1.37,0.24 0.13,0.18 0.27,0.31 0.35,0.37 0.09,0.01 0.24,0.05 0.72,0.18l0.32 0.09c0.52,0.13 0.84,0.66 0.71,1.19 -0.12,0.44 -0.51,0.74 -0.95,0.74z"/>
  <g>
   <path class="fil1" d="M85.6 71.5l0 0 0 0zm-0.08 1.96c-0.03,0 -0.07,0 -0.11,0 -0.54,-0.06 -0.93,-0.53 -0.88,-1.07 0.04,-0.41 0.31,-0.73 0.67,-0.85 0.09,-0.07 0.17,-0.13 0.22,-0.15 0.43,-0.25 0.77,-0.94 0.58,-1.54 -0.16,-0.52 0.13,-1.07 0.64,-1.23 0.52,-0.17 1.07,0.12 1.24,0.64 0.44,1.39 -0.18,3.04 -1.42,3.79 -0.19,0.16 -0.51,0.41 -0.94,0.41z"/>
  </g>
  <path class="fil1" d="M55.83 69.42c-0.17,0 -0.34,-0.06 -0.47,-0.19 -1.98,-1.99 -5.23,-5.85 -4.61,-9.32 0.06,-0.36 0.4,-0.59 0.75,-0.53 0.36,0.06 0.6,0.4 0.54,0.76 -0.53,3 2.8,6.71 4.25,8.16 0.26,0.26 0.26,0.67 0,0.93 -0.13,0.13 -0.29,0.19 -0.46,0.19z"/>
 </g>
</svg>
