<?xml version="1.0" encoding="UTF-8"?>
<!DOCTYPE svg PUBLIC "-//W3C//DTD SVG 1.1//EN" "http://www.w3.org/Graphics/SVG/1.1/DTD/svg11.dtd">
<!-- Creator: CorelDRAW 2018 (64-Bit) -->
<svg xmlns="http://www.w3.org/2000/svg" xml:space="preserve" width="845px" height="845px" version="1.1" style="shape-rendering:geometricPrecision; text-rendering:geometricPrecision; image-rendering:optimizeQuality; fill-rule:evenodd; clip-rule:evenodd"
viewBox="0 0 117.14 117.14"
 xmlns:xlink="http://www.w3.org/1999/xlink">
 <defs>
  <style type="text/css">
   <![CDATA[
    .fil0 {fill:none}
    .fil2 {fill:black}
    .fil1 {fill:black;fill-rule:nonzero}
   ]]>
  </style>
 </defs>
 <g id="Слой_x0020_1">
  <metadata id="CorelCorpID_0Corel-Layer"/>
  <rect class="fil0" width="117.14" height="117.14"/>
 </g>
 <g id="_1">
  <metadata id="CorelCorpID_1Corel-Layer"/>
  <path class="fil1" d="M52.3 24.92c-0.43,0 -0.83,-0.3 -0.95,-0.74 -0.13,-0.53 0.18,-1.06 0.71,-1.2 0.15,-0.04 0.23,-0.06 0.27,-0.08 0.02,-0.02 0.03,-0.04 0.05,-0.07 0.08,-0.11 0.18,-0.24 0.32,-0.41 0.53,-0.78 0.78,-6 0.44,-7.07 -0.16,-0.52 0.13,-1.07 0.65,-1.23 0.52,-0.17 1.07,0.12 1.23,0.64 0.42,1.34 0.35,7.54 -0.82,8.92 -0.1,0.12 -0.17,0.22 -0.22,0.3 -0.35,0.49 -0.62,0.7 -1.43,0.91 -0.08,0.02 -0.16,0.03 -0.25,0.03z"/>
  <path class="fil1" d="M53.3 19.94c0,0 0,0 0,0 0,0 0,0 0,0zm-0.63 0.22c-0.28,0 -0.56,-0.12 -0.76,-0.35 -0.34,-0.42 -0.28,-1.04 0.13,-1.38 0.34,-0.28 0.59,-0.33 3.65,-0.5 0.62,-0.04 1.26,-0.07 1.46,-0.09 0.47,-0.06 1.09,-0.22 1.4,-0.65 0.23,-0.32 0.28,-0.78 0.16,-1.37 -0.1,-0.49 -1.57,-0.77 -2.97,-0.58 -0.5,0.07 -0.73,0.13 -0.95,0.2 -0.52,0.14 -0.91,0.23 -2.28,0.23 -0.54,0 -0.98,-0.44 -0.98,-0.98 0,-0.54 0.44,-0.98 0.98,-0.98 1.17,0 1.4,-0.07 1.74,-0.17 0.27,-0.07 0.59,-0.16 1.22,-0.25 1.71,-0.23 4.72,-0.05 5.17,2.14 0.29,1.43 -0.11,2.37 -0.49,2.91 -0.57,0.79 -1.53,1.29 -2.76,1.45 -0.25,0.03 -0.77,0.06 -1.59,0.1 -0.84,0.05 -2.36,0.13 -2.76,0.2 -0.12,0.05 -0.24,0.07 -0.37,0.07z"/>
  <path class="fil1" d="M54.25 24.31c0,0 0,0 0,0 0,0 0,0 0,0zm-0.63 0.23c-0.09,0 -0.19,-0.01 -0.27,-0.04 -0.32,-0.09 -0.57,-0.33 -0.67,-0.64l-0.16 -0.5c-0.17,-0.52 0.11,-1.07 0.62,-1.24 0.42,-0.14 0.86,0.02 1.1,0.35 0.27,0 0.59,0.02 0.95,0.04 1.63,0.09 4.09,0.22 4.68,-1.16 0.24,-0.55 0.25,-0.87 0.18,-1 -0.14,-0.27 -0.98,-0.41 -1.43,-0.49 -0.45,-0.08 -0.83,-0.14 -1.15,-0.31 -0.48,-0.26 -0.66,-0.85 -0.41,-1.33 0.25,-0.47 0.84,-0.66 1.32,-0.42 0.09,0.04 0.37,0.09 0.57,0.12 0.89,0.15 2.23,0.38 2.83,1.49 0.39,0.73 0.36,1.64 -0.1,2.72 -1.13,2.64 -4.55,2.45 -6.6,2.34 -0.38,-0.02 -0.84,-0.04 -1.04,-0.03 -0.13,0.07 -0.28,0.1 -0.42,0.1z"/>
  <path class="fil1" d="M32.14 46.13c-0.01,0 -0.02,0 -0.03,0 -0.54,-0.02 -0.97,-0.47 -0.95,-1.01 0.01,-0.46 -0.52,-1.05 -1.03,-1.62 -0.79,-0.87 -1.77,-1.97 -1.48,-3.44 0.32,-1.58 2.1,-3.07 5.76,-4.81 14.97,-7.14 23.93,-9.45 40.62,-5.3 5.46,1.35 11.95,3.8 11.8,7.73 -0.02,0.7 -0.53,1.47 -1.17,2.45 -0.42,0.64 -1.4,2.13 -1.27,2.54 0.39,0.38 0.4,0.99 0.02,1.39 -0.37,0.39 -1,0.39 -1.39,0.01 -1.41,-1.36 -0.08,-3.39 1,-5.02 0.32,-0.49 0.81,-1.23 0.85,-1.48 0.07,-1.88 -3.98,-4.14 -10.31,-5.72 -16.11,-4 -24.78,-1.75 -39.31,5.17 -3.83,1.83 -4.57,2.93 -4.67,3.43 -0.09,0.47 0.34,0.99 1.02,1.74 0.73,0.82 1.56,1.74 1.52,2.98 -0.01,0.54 -0.45,0.96 -0.98,0.96z"/>
  <path class="fil1" d="M81.67 45.08c-0.08,0 -0.15,-0.01 -0.23,-0.02 -0.53,-0.13 -0.86,-0.66 -0.73,-1.19 0.32,-1.35 0.42,-2.95 -2.38,-4.7l-1.12 -0.71c-4.03,-2.54 -7.83,-4.94 -12.48,-5.51 -3.91,-0.49 -10,0.15 -15.88,1.66 -8.75,2.25 -14.36,5.33 -17.15,9.42 -0.31,0.45 -0.92,0.56 -1.37,0.25 -0.45,-0.3 -0.56,-0.91 -0.26,-1.36 3.08,-4.5 9.06,-7.84 18.29,-10.21 6.2,-1.59 12.4,-2.24 16.61,-1.71 5.09,0.62 9.26,3.26 13.29,5.8l1.11 0.7c3.79,2.37 3.67,5.03 3.25,6.82 -0.11,0.46 -0.51,0.76 -0.95,0.76z"/>
  <path class="fil1" d="M81.49 32.78c0,0 0,0 0,0 0,0 0,0 0,0zm-0.08 0.09l0.08 -0.09zm-51.68 7.93c-0.13,0 -0.26,-0.03 -0.39,-0.08 -0.5,-0.22 -0.73,-0.8 -0.51,-1.3 0.76,-1.76 1.42,-2.63 1.95,-3.33 0.88,-1.17 1.33,-1.75 1.34,-6.84 0.01,-2.15 0.28,-4.38 0.78,-6.28 1.41,-5.44 3.26,-6.26 6.42,-7.26 1.36,-0.42 2.9,-0.91 4.81,-2.07 2.71,-1.64 3.79,-1.75 4.93,-1.87 0.81,-0.09 1.65,-0.17 3.4,-0.92 1.4,-0.6 5.46,-1.66 7.9,-1.46 0.93,0.08 5.13,1.61 7.55,2.52l0.82 0.31c5.13,1.89 8.49,3.29 9.4,4.4 0.4,0.49 0.83,0.97 1.25,1.44 1.75,1.94 3.55,3.94 3.8,7.13l0.04 0.44c0.54,6.39 0.23,8.02 -0.48,8.68 -0.4,0.37 -1.02,0.34 -1.39,-0.06 -0.34,-0.37 -0.34,-0.94 -0.01,-1.32 0.14,-0.32 0.39,-1.65 -0.08,-7.13l-0.04 -0.45c-0.2,-2.53 -1.7,-4.21 -3.3,-5.98 -0.43,-0.48 -0.88,-0.98 -1.31,-1.51 -0.5,-0.6 -3.38,-1.88 -8.56,-3.8l-0.83 -0.31c-4.03,-1.51 -6.58,-2.35 -7.03,-2.4 -1.99,-0.17 -5.69,0.76 -6.95,1.3 -2.03,0.87 -3.06,0.98 -3.97,1.07 -1,0.11 -1.79,0.19 -4.12,1.6 -2.11,1.28 -3.85,1.83 -5.24,2.27 -2.68,0.84 -3.9,1.23 -5.11,5.87 -0.46,1.75 -0.71,3.8 -0.71,5.79 -0.02,5.51 -0.58,6.49 -1.75,8.03 -0.49,0.64 -1.04,1.37 -1.71,2.92 -0.16,0.37 -0.52,0.6 -0.9,0.6z"/>
  <path class="fil1" d="M77.17 49.89c-0.04,0 -0.07,0 -0.11,-0.01 -0.27,-0.03 -0.48,-0.09 -0.77,-0.31 -1.05,-0.83 -4.51,-2.72 -5.52,-2.73 -0.02,0 -0.04,0 -0.06,0 -2.76,0 -7.91,1.51 -8.8,1.99 -0.47,0.26 -1.07,0.08 -1.33,-0.4 -0.26,-0.48 -0.08,-1.07 0.4,-1.33 1.18,-0.63 6.61,-2.22 9.74,-2.22l0.07 0c1.73,0.01 5.55,2.26 6.65,3.09 0.44,0.15 0.74,0.59 0.68,1.06 -0.07,0.49 -0.46,0.86 -0.95,0.86z"/>
  <path class="fil1" d="M37.99 55.06c-0.51,0 -0.94,-0.39 -0.98,-0.91 -0.02,-0.22 -0.02,-0.22 0.31,-1.17 0.14,-0.42 0.4,-1.2 0.44,-1.35 0.97,-4.24 2.79,-4.44 6.19,-4.44 1.14,0 2.36,0.08 3.53,0.17 1.13,0.07 2.19,0.15 3.15,0.15 0.55,0 0.98,0.44 0.98,0.98 0,0.54 -0.43,0.98 -0.98,0.98 -1.02,0 -2.12,-0.08 -3.28,-0.15 -1.14,-0.08 -2.33,-0.16 -3.4,-0.16 -3.06,0 -3.61,0 -4.28,2.91 -0.04,0.19 -0.18,0.61 -0.49,1.53 -0.11,0.32 -0.2,0.59 -0.23,0.7 -0.1,0.41 -0.45,0.72 -0.89,0.76 -0.02,0 -0.05,0 -0.07,0z"/>
  <path class="fil1" d="M39.91 57.1c-0.04,0 -0.08,0 -0.12,0 -0.55,-0.02 -0.97,-0.48 -0.95,-1.02 0.02,-0.54 0.47,-0.94 1.01,-0.95 0.53,0.02 0.8,-0.22 1.41,-0.8 1.02,-0.98 2.43,-2.33 6.13,-2.33 1.05,0 2.53,0.33 3.83,0.62 0.48,0.11 0.93,0.21 1.32,0.28 0.53,0.11 0.88,0.62 0.78,1.15 -0.1,0.54 -0.62,0.89 -1.15,0.78 -0.4,-0.07 -0.88,-0.18 -1.38,-0.29 -1.14,-0.26 -2.56,-0.58 -3.4,-0.58 -2.91,0 -3.9,0.95 -4.78,1.79 -0.66,0.63 -1.4,1.35 -2.7,1.35z"/>
  <path class="fil1" d="M62.23 53.86c-0.46,0 -0.87,-0.32 -0.96,-0.79 -0.11,-0.53 0.24,-1.05 0.77,-1.16 1.09,-0.22 1.9,-0.7 2.76,-1.21 1.8,-1.06 3.65,-2.16 7.37,-0.46 0.02,0.02 2.47,1.44 2.73,1.82 0.31,0.45 0.19,1.06 -0.26,1.37 -0.37,0.25 -0.84,0.21 -1.17,-0.05 -0.27,-0.19 -1.84,-1.21 -2.13,-1.35 -2.77,-1.27 -3.93,-0.59 -5.54,0.36 -0.92,0.55 -1.96,1.17 -3.38,1.45 -0.06,0.01 -0.13,0.02 -0.19,0.02z"/>
  <path class="fil1" d="M57.63 66.71c-1.4,0 -2.15,-0.34 -2.83,-0.73 -0.44,-0.25 -0.62,-0.35 -1.35,-0.19 -1.78,0.38 -2.75,-0.4 -3.17,-0.9 -0.81,-0.97 -0.87,-2.37 -0.51,-3.25 0.27,-0.68 0.79,-1.11 1.41,-1.17 0.54,-0.06 1.02,0.33 1.08,0.87 0.05,0.47 -0.25,0.9 -0.68,1.04 -0.08,0.22 -0.12,0.75 0.14,1.15 0.08,0.13 0.35,0.54 1.31,0.34 1.36,-0.3 2.02,-0.01 2.74,0.4 0.57,0.33 1.15,0.66 3.26,0.37 0.43,-0.06 0.72,-0.24 1.16,-0.5 0.81,-0.48 1.91,-1.15 4.35,-1.23 0.07,-0.02 0.13,-0.09 0.15,-0.27 0.03,-0.31 -0.08,-0.65 -0.27,-0.85 -0.39,-0.38 -0.39,-1 0,-1.39 0.38,-0.38 1,-0.38 1.38,0 0.8,0.8 1.08,2.11 0.68,3.13 -0.32,0.81 -1.02,1.31 -1.86,1.34 -1.94,0.07 -2.69,0.52 -3.41,0.95 -0.53,0.32 -1.08,0.65 -1.92,0.77 -0.64,0.08 -1.19,0.12 -1.66,0.12z"/>
  <path class="fil1" d="M42.61 58.42c-0.36,0 -0.66,-0.29 -0.66,-0.65 0,-0.36 0.3,-0.66 0.66,-0.66 2.88,0 4.02,-0.64 5.91,-1.71 0.4,-0.22 0.83,-0.46 1.3,-0.72 0.32,-0.17 0.72,-0.05 0.89,0.27 0.17,0.32 0.05,0.72 -0.27,0.89 -0.47,0.25 -0.89,0.48 -1.28,0.7 -1.93,1.09 -3.33,1.88 -6.55,1.88z"/>
  <path class="fil1" d="M68.51 55.52c-0.28,0 -0.54,-0.18 -0.62,-0.46 -0.11,-0.35 0.09,-0.71 0.43,-0.82 0.64,-0.2 1.33,-0.25 2.06,-0.3 0.9,-0.06 1.84,-0.13 2.82,-0.48 0.34,-0.13 0.71,0.05 0.84,0.39 0.12,0.34 -0.05,0.71 -0.39,0.84 -1.15,0.42 -2.23,0.49 -3.18,0.56 -0.68,0.05 -1.27,0.09 -1.76,0.24 -0.07,0.02 -0.13,0.03 -0.2,0.03z"/>
  <path class="fil1" d="M81.13 45.72c0,0 0,0 0,0 0,0 0,0 0,0zm-20.43 51.03c-1.35,0 -2.73,-0.16 -4.15,-0.47 -2.93,-0.64 -4.79,-1.22 -9.02,-5.71 -3.03,-3.22 -10.13,-11.26 -10.56,-16.51 -0.03,-0.36 -0.25,-1.28 -0.48,-2.25 -0.47,-2.01 -1.07,-4.52 -1,-6.02 -0.04,-0.96 -2.37,-12.01 -2.74,-12.96 -1.23,-2.58 -1.33,-5.65 -1.33,-8.31 0,-0.55 0.44,-0.99 0.98,-0.99 0.54,0 0.98,0.44 0.98,0.99 0,2.56 0.09,5.25 1.16,7.5 0.43,0.89 2.96,12.94 2.92,13.86 -0.06,1.23 0.52,3.69 0.94,5.48 0.27,1.13 0.48,2.03 0.53,2.54 0.26,3.21 4.01,8.94 10.03,15.32 4.02,4.27 5.52,4.6 8.01,5.14 5.6,1.23 10.34,-0.18 14.1,-4.2 7.59,-8.1 11.6,-19.79 10,-29.09 -0.27,-1.59 -0.14,-4.78 0.01,-8.17 0.12,-2.75 0.28,-6.5 0.01,-7.24 -0.27,-0.43 -0.16,-1.01 0.26,-1.31 0.44,-0.32 1.05,-0.22 1.37,0.22 0.59,0.82 0.56,2.96 0.32,8.41 -0.13,2.99 -0.27,6.38 -0.03,7.76 1.7,9.88 -2.52,22.24 -10.5,30.77 -3.25,3.46 -7.28,5.24 -11.81,5.24z"/>
  <path class="fil1" d="M36.95 74.49c-0.11,0 -0.22,-0.01 -0.33,-0.05l-0.04 -0.01c-1.51,-0.18 -1.99,-2.29 -2.53,-4.71 -0.29,-1.31 -0.66,-2.95 -1.09,-3.44 -0.94,-1.08 -2.22,-5.3 -2.22,-6.87 0,-2.32 1.1,-3.03 1.76,-3.26 1.11,-0.37 2.23,0.17 2.77,0.89 0.33,0.43 0.24,1.05 -0.19,1.37 -0.43,0.33 -1.05,0.24 -1.37,-0.19 -0.11,-0.14 -0.4,-0.26 -0.58,-0.2 -0.21,0.07 -0.43,0.53 -0.43,1.39 0,1.27 1.22,4.98 1.74,5.57 0.76,0.88 1.13,2.54 1.53,4.31 0.23,1.05 0.62,2.78 0.97,3.19 0.06,0.01 0.12,0.03 0.17,0.05l0.16 0.06c0.51,0.18 0.78,0.74 0.6,1.25 -0.14,0.4 -0.52,0.65 -0.92,0.65z"/>
  <path class="fil1" d="M34.28 64.93c-0.42,0 -0.8,-0.26 -0.94,-0.68 -0.57,-1.82 -0.58,-2.17 -0.53,-3.02 0.01,-0.27 0.03,-0.62 0.02,-1.17 -0.01,-0.55 0.42,-1 0.96,-1.01 0.53,-0.02 0.99,0.42 1,0.96 0.02,0.63 -0.01,1.04 -0.02,1.33 -0.03,0.6 -0.04,0.76 0.45,2.32 0.16,0.51 -0.13,1.07 -0.64,1.23 -0.1,0.03 -0.2,0.04 -0.3,0.04z"/>
  <path class="fil1" d="M83.43 71.09c-0.21,0 -0.43,-0.07 -0.61,-0.21 -0.42,-0.33 -0.5,-0.95 -0.16,-1.38 0.72,-0.92 1.34,-3.08 1.31,-3.57 -0.13,-2.58 0.36,-4.42 0.8,-6.05 0.26,-0.98 0.5,-1.91 0.57,-2.88 0.18,-2.49 -0.19,-2.91 -0.23,-2.95 -0.08,-0.07 -0.64,0 -0.9,0.03 -0.71,0.09 -1.59,0.2 -2.51,-0.16 -0.5,-0.19 -0.75,-0.77 -0.56,-1.27 0.2,-0.51 0.77,-0.75 1.28,-0.56 0.45,0.18 0.98,0.11 1.54,0.04 0.78,-0.1 1.75,-0.22 2.5,0.49 0.77,0.73 1.01,2.04 0.84,4.52 -0.08,1.15 -0.35,2.17 -0.63,3.24 -0.42,1.57 -0.85,3.18 -0.73,5.45 0.05,0.97 -0.73,3.6 -1.74,4.88 -0.19,0.25 -0.48,0.38 -0.77,0.38z"/>
  <path class="fil1" d="M84.01 51.54c-0.31,0 -0.59,-0.22 -0.64,-0.54 -0.04,-0.22 0.04,-0.44 0.19,-0.58 0.32,-1.11 -0.04,-7.56 -0.48,-8.45 -0.16,-0.31 -0.05,-0.71 0.26,-0.88 0.3,-0.17 0.68,-0.09 0.86,0.21 0.59,0.98 1.12,8.44 0.53,9.74 -0.17,0.37 -0.45,0.47 -0.61,0.49 -0.03,0.01 -0.07,0.01 -0.11,0.01z"/>
  <path class="fil1" d="M84.64 97.48c-0.54,0 -0.98,-0.44 -0.98,-0.98l0 -4.36c0,-1.47 -0.95,-11.9 -1.37,-12.96 -0.43,-0.81 -0.68,-2.51 -1,-5 -0.1,-0.81 -0.19,-1.57 -0.29,-2.16 -0.1,-0.54 0.27,-1.04 0.8,-1.13 0.54,-0.1 1.04,0.27 1.13,0.8 0.11,0.63 0.21,1.41 0.31,2.24 0.2,1.5 0.48,3.77 0.8,4.36 0.71,1.3 1.58,13.3 1.58,13.85l0 4.36c0,0.54 -0.44,0.98 -0.98,0.98z"/>
  <path class="fil1" d="M49.95 105.84c-0.52,0 -0.95,-0.41 -0.98,-0.94 -0.03,-0.64 -1.22,-3.17 -2.27,-5.4 -2.24,-4.75 -5.31,-11.25 -5.56,-15.69 -0.03,-0.55 0.38,-1.01 0.92,-1.04 0.54,-0.03 1.01,0.38 1.04,0.92 0.23,4.06 3.2,10.37 5.37,14.97 1.59,3.36 2.42,5.16 2.46,6.15 0.03,0.54 -0.39,1 -0.93,1.03 -0.02,0 -0.03,0 -0.05,0z"/>
  <path class="fil1" d="M86.71 103.65c-0.16,0 -0.33,-0.04 -0.48,-0.13 -0.48,-0.26 -0.64,-0.87 -0.37,-1.34 2.61,-4.57 2.81,-12.38 2.81,-14.67 0,-2.7 -1.4,-3.81 -4.86,-3.82 -0.54,-0.01 -0.98,-0.45 -0.97,-0.99 0,-0.54 0.44,-0.98 0.98,-0.98l0 0c4.53,0.02 6.82,1.97 6.82,5.79 0,3.09 -0.3,10.79 -3.07,15.65 -0.18,0.32 -0.52,0.49 -0.86,0.49z"/>
  <path class="fil1" d="M97.07 87.87c-0.19,0 -0.39,-0.06 -0.57,-0.19l-0.2 -0.14c-0.02,-0.02 -0.04,-0.03 -0.05,-0.04 -0.61,-0.5 -0.96,-0.58 -1.49,-0.71 -0.81,-0.19 -1.82,-0.43 -3.59,-2.01 -2.67,-2.38 -3.94,-2.86 -7.57,-2.87 -0.54,0 -0.98,-0.44 -0.98,-0.98 0,-0.54 0.44,-0.98 0.98,-0.98l0 0c4.11,0 5.85,0.66 8.88,3.36 1.4,1.25 2.05,1.41 2.73,1.57 0.61,0.15 1.31,0.31 2.25,1.07l0.19 0.13c0.44,0.32 0.54,0.93 0.22,1.38 -0.19,0.26 -0.49,0.41 -0.8,0.41z"/>
  <path class="fil1" d="M25.22 105.63c-0.03,0 -0.05,0 -0.08,0 -0.54,-0.03 -0.96,-0.49 -0.93,-1.03 0.02,-0.54 0.48,-0.96 1.03,-0.93 0.62,-0.05 3.12,-1.51 4.32,-2.22 1.09,-0.64 1.67,-0.98 2.01,-1.1 1.87,-0.66 2.76,-1.21 4.11,-2.03 0.4,-0.24 0.84,-0.51 1.35,-0.81 1.36,-0.79 2.18,-1.79 3.05,-2.86 1.04,-1.28 2.12,-2.6 4.08,-3.33 0.51,-0.19 1.08,0.07 1.27,0.57 0.19,0.51 -0.07,1.08 -0.58,1.27 -1.46,0.54 -2.29,1.56 -3.25,2.74 -0.9,1.1 -1.92,2.34 -3.58,3.31 -0.5,0.29 -0.92,0.55 -1.32,0.79 -1.35,0.82 -2.41,1.47 -4.47,2.2 -0.2,0.08 -1.02,0.56 -1.67,0.94 -2.91,1.71 -4.4,2.49 -5.34,2.49z"/>
  <path class="fil1" d="M48.7 73.71c-0.4,0 -0.77,-0.24 -0.92,-0.63 -0.19,-0.51 0.06,-1.08 0.57,-1.27 0.31,-0.12 0.62,-0.22 0.93,-0.32 0.19,-0.06 0.38,-0.12 0.56,-0.19 0.66,-0.23 0.92,-0.44 1.21,-0.65 0.62,-0.48 1.15,-0.81 2.76,-0.88 1.93,-0.09 2.62,0.23 3.32,0.67 0.24,0.15 0.4,0.24 0.73,0.3 0.12,-0.03 0.38,-0.15 0.58,-0.24 1.09,-0.49 2.9,-1.32 5.46,-0.5l0.17 0.05c3.09,1 3.81,0.8 3.92,0.75 0.47,-0.27 1.07,-0.11 1.34,0.36 0.27,0.47 0.1,1.07 -0.36,1.35 -0.93,0.53 -2.58,0.36 -5.5,-0.59l-0.16 -0.05c-1.84,-0.59 -3.07,-0.03 -4.06,0.42 -0.58,0.26 -1.09,0.49 -1.64,0.4 -0.76,-0.12 -1.18,-0.38 -1.51,-0.58 -0.39,-0.24 -0.72,-0.45 -2.2,-0.38 -1.11,0.05 -1.29,0.19 -1.66,0.47 -0.33,0.26 -0.79,0.62 -1.75,0.95 -0.2,0.07 -0.4,0.14 -0.6,0.21 -0.28,0.09 -0.56,0.18 -0.84,0.28 -0.11,0.05 -0.23,0.07 -0.35,0.07z"/>
  <path class="fil1" d="M56.95 77.05c-1.14,0 -2.95,-0.42 -4.71,-0.84 -1.11,-0.26 -2.47,-0.6 -2.88,-0.57 -0.54,0 -1,-0.41 -1.02,-0.95 -0.01,-0.54 0.41,-0.99 0.95,-1.01 0.63,-0.01 1.7,0.22 3.4,0.62 1.49,0.35 3.35,0.79 4.26,0.79 1.29,0 7.07,-0.35 8.77,-1.11 0.5,-0.23 1.08,0 1.3,0.49 0.22,0.5 0,1.08 -0.49,1.3 -2.26,1.01 -8.78,1.28 -9.58,1.28z"/>
  <path class="fil1" d="M58.65 81.33c-2.45,0 -5.26,-0.66 -8.59,-2.36 -0.48,-0.25 -0.67,-0.84 -0.42,-1.32 0.24,-0.49 0.83,-0.68 1.32,-0.43 7.56,3.86 11.9,1.75 15.36,-0.52 0.46,-0.3 1.07,-0.18 1.36,0.28 0.3,0.45 0.18,1.06 -0.28,1.36 -2.48,1.63 -5.24,2.99 -8.75,2.99z"/>
  <path class="fil2" d="M68.94 50.12c0.92,-0.04 1.69,0.66 1.74,1.58 0.04,0.92 -0.67,1.7 -1.58,1.74 -0.92,0.04 -1.7,-0.66 -1.74,-1.58 -0.05,-0.92 0.66,-1.7 1.58,-1.74z"/>
  <path class="fil2" d="M45.74 52.6c0.97,-0.04 1.8,0.71 1.85,1.68 0.04,0.98 -0.71,1.8 -1.68,1.85 -0.98,0.05 -1.81,-0.71 -1.85,-1.68 -0.05,-0.97 0.7,-1.8 1.68,-1.85z"/>
  <path class="fil1" d="M35.46 52.75c-0.36,0 -0.65,-0.29 -0.65,-0.65 -0.01,-0.18 -0.15,-1.31 -0.18,-1.47 -0.22,-1 -0.25,-2.21 -0.27,-3.27 -0.03,-0.8 -0.04,-1.56 -0.14,-1.94 -0.44,-1.72 -0.41,-2.57 -0.38,-3.75 0.01,-0.37 0.03,-0.78 0.03,-1.27 0,-0.37 0.29,-0.66 0.65,-0.66 0.36,0 0.66,0.29 0.66,0.66 0,0.5 -0.02,0.93 -0.03,1.31 -0.03,1.15 -0.05,1.85 0.34,3.39 0.13,0.52 0.15,1.31 0.17,2.23 0.03,1 0.06,2.14 0.25,3.03 0.03,0.18 0.21,1.46 0.21,1.74 0,0.36 -0.3,0.65 -0.66,0.65z"/>
  <path class="fil1" d="M53.21 57.69c-0.1,0 -0.19,-0.02 -0.29,-0.07 -0.32,-0.16 -0.45,-0.55 -0.29,-0.87l0.1 -0.21c0.02,-0.05 0.05,-0.09 0.08,-0.13 1.08,-1.3 1.16,-4.49 0.36,-5.22 -0.27,-0.24 -0.29,-0.65 -0.05,-0.92 0.25,-0.27 0.66,-0.29 0.93,-0.04 1.35,1.23 1.24,5.16 -0.18,6.96l-0.07 0.14c-0.12,0.23 -0.35,0.36 -0.59,0.36z"/>
 </g>
</svg>
