<?xml version="1.0" encoding="UTF-8"?>
<!DOCTYPE svg PUBLIC "-//W3C//DTD SVG 1.1//EN" "http://www.w3.org/Graphics/SVG/1.1/DTD/svg11.dtd">
<!-- Creator: CorelDRAW 2018 (64-Bit) -->
<svg xmlns="http://www.w3.org/2000/svg" xml:space="preserve" width="845px" height="845px" version="1.1" style="shape-rendering:geometricPrecision; text-rendering:geometricPrecision; image-rendering:optimizeQuality; fill-rule:evenodd; clip-rule:evenodd"
viewBox="0 0 117.14 117.14"
 xmlns:xlink="http://www.w3.org/1999/xlink">
 <defs>
  <style type="text/css">
   <![CDATA[
    .fil0 {fill:none}
    .fil2 {fill:black}
    .fil1 {fill:black;fill-rule:nonzero}
   ]]>
  </style>
 </defs>
 <g id="Слой_x0020_1">
  <metadata id="CorelCorpID_0Corel-Layer"/>
  <rect class="fil0" width="117.14" height="117.14"/>
 </g>
 <g id="_1">
  <metadata id="CorelCorpID_1Corel-Layer"/>
  <path class="fil1" d="M31.99 44.57c-0.28,0 -0.56,-0.12 -0.76,-0.35 -0.5,-0.58 -0.64,-1.61 -0.78,-2.99 -0.03,-0.31 -0.06,-0.59 -0.1,-0.78l-0.11 -0.64c-1.1,-5.89 -1.43,-7.66 -1.27,-12.53 0.06,-1.79 0.42,-3.58 0.74,-5.16 0.24,-1.18 0.47,-2.3 0.5,-3.13 0.06,-1.68 1.05,-2.95 1.92,-4.07 0.5,-0.65 0.98,-1.26 1.22,-1.87 0.63,-1.65 3.14,-3.7 8.13,-6.66 4.1,-2.43 5.02,-2.8 10.03,-3.07 2.92,-0.15 5.89,-0.09 7.2,0.05 1.25,0.13 2.85,0.18 4.55,0.23 4.55,0.13 9.7,0.29 12.53,2.03 0.77,0.48 1.43,0.81 2,1.1 1.18,0.59 2.11,1.05 2.96,2.21 2.6,3.51 2.64,6.16 1.84,9.29 -0.13,0.52 -0.67,0.84 -1.19,0.71 -0.53,-0.14 -0.84,-0.67 -0.71,-1.2 0.68,-2.7 0.64,-4.72 -1.52,-7.63 -0.57,-0.78 -1.21,-1.1 -2.26,-1.63 -0.61,-0.31 -1.31,-0.66 -2.15,-1.18 -2.39,-1.47 -7.47,-1.62 -11.56,-1.74 -1.74,-0.05 -3.38,-0.1 -4.7,-0.24 -1.25,-0.13 -4.16,-0.18 -6.89,-0.04 -4.67,0.25 -5.34,0.55 -9.13,2.8 -5.48,3.25 -6.99,4.87 -7.3,5.67 -0.34,0.88 -0.93,1.64 -1.5,2.38 -0.76,0.97 -1.47,1.88 -1.5,2.93 -0.04,0.99 -0.28,2.19 -0.54,3.45 -0.31,1.51 -0.66,3.21 -0.71,4.84 -0.15,4.65 0.15,6.23 1.24,12.1l0.12 0.64c0.04,0.25 0.07,0.57 0.11,0.94 0.06,0.54 0.17,1.66 0.34,1.93 0.35,0.41 0.3,1.02 -0.12,1.37 -0.18,0.16 -0.4,0.24 -0.63,0.24z"/>
  <path class="fil1" d="M33.86 39.72c0,0 0,0 0,0 0,0 0,0 0,0zm21.51 48.9c-4.18,0 -8.29,-1.11 -10.58,-2.85 -4.79,-3.66 -10.65,-10.63 -12.22,-17.28 -1.08,-4.57 -1.07,-10.21 -1.06,-14.33l0 -0.87c0,-0.23 0,-0.59 -0.01,-1.04 -0.08,-11.74 0.34,-13.2 0.86,-13.8 0.59,-0.73 1.41,-5.66 1.76,-7.77 0.04,-0.25 0.08,-0.46 0.11,-0.65 0.26,-1.71 0.48,-3.19 3.16,-3.66 3.5,-0.61 10.79,-0.2 11.65,0.02 3.18,0.79 5.58,0.82 8.89,0.87l1.12 0.01c1.04,0.01 2.18,-0.21 3.09,-0.39 0.61,-0.12 1.14,-0.22 1.57,-0.24 3.62,-0.2 6.21,-2.62 8.72,-4.96 2.53,-2.37 4.91,-4.61 8.17,-4.42 0.54,0.04 0.96,0.5 0.93,1.04 -0.03,0.54 -0.49,0.96 -1.04,0.93 -2.42,-0.15 -4.41,1.72 -6.72,3.88 -2.63,2.46 -5.62,5.25 -9.95,5.49 -0.3,0.01 -0.79,0.11 -1.31,0.21 -1,0.2 -2.24,0.46 -3.49,0.42l-1.11 -0.01c-3.32,-0.04 -5.94,-0.08 -9.34,-0.93 -0.74,-0.15 -7.61,-0.55 -10.84,0.02 -1.29,0.22 -1.32,0.39 -1.56,2.01 -0.03,0.21 -0.07,0.43 -0.1,0.66 -0.83,4.96 -1.39,7.68 -2.16,8.68 -0.24,0.6 -0.51,3.31 -0.44,12.58 0,0.46 0,0.82 0,1.05l0 0.87c0,4.02 -0.01,9.53 1.01,13.88 1.39,5.9 6.84,12.6 11.51,16.16 2,1.54 5.94,2.51 9.78,2.45 8.09,-0.15 12.24,-4.49 17.64,-11.11 4.43,-5.42 7.24,-10.71 6.49,-18.88 -0.07,-0.75 -0.67,-5.44 -0.95,-6.25 -1.47,-2.04 -4.91,-8.65 -4.91,-11.19l0 -0.86c0,-0.54 0.44,-0.98 0.98,-0.98 0.54,0 0.98,0.44 0.98,0.98l0 0.86c0,1.79 3.03,7.99 4.58,10.1 0.62,0.84 1.27,7.1 1.28,7.16 0.85,9.36 -2.83,15.29 -6.93,20.31 -4.68,5.72 -9.52,11.65 -19.12,11.82 -0.15,0 -0.3,0.01 -0.44,0.01z"/>
  <path class="fil1" d="M75.95 40.53c-0.54,0 -0.98,-0.44 -0.98,-0.98 0,-1.89 -0.45,-6.13 -1.31,-7.51 -0.29,-0.46 -0.15,-1.07 0.32,-1.35 0.46,-0.29 1.06,-0.15 1.35,0.31 1.23,1.97 1.61,6.95 1.61,8.55 0,0.54 -0.44,0.98 -0.99,0.98z"/>
  <path class="fil1" d="M77.21 33.51c-0.54,0 -0.98,-0.44 -0.98,-0.98 0,-1.29 -0.42,-2.52 -0.85,-3.84 -0.21,-0.6 -0.41,-1.23 -0.58,-1.86 -0.14,-0.52 0.18,-1.06 0.7,-1.2 0.53,-0.14 1.07,0.18 1.2,0.71 0.15,0.56 0.34,1.13 0.54,1.73 0.47,1.4 0.95,2.85 0.95,4.46 0,0.54 -0.44,0.98 -0.98,0.98z"/>
  <path class="fil1" d="M80.34 46.75c-0.54,0 -0.98,-0.44 -0.98,-0.99l0 -0.26c0,-0.14 0.01,-0.31 0.01,-0.39 -0.17,-1.39 -0.22,-3.99 -0.27,-6.74l-0.03 -1.51c-0.05,-2.78 -1.05,-12 -2.1,-13.47 -0.39,-0.06 -0.72,-0.34 -0.82,-0.74 -0.13,-0.53 0.19,-1.06 0.72,-1.19 0.42,-0.1 0.85,-0.01 1.22,0.27 2.28,1.75 2.95,14.96 2.95,15.09l0.03 1.51c0.05,2.61 0.1,5.31 0.25,6.58 0.01,0.1 0.01,0.16 0,0.63l0 0.22c0,0.55 -0.44,0.99 -0.98,0.99z"/>
  <path class="fil1" d="M84.27 44.43c-0.54,0 -0.98,-0.44 -0.98,-0.98 0,-1.97 -0.07,-3.79 -0.14,-5.54 -0.07,-1.76 -0.15,-3.58 -0.15,-5.56 0,-3.07 -1.5,-10.39 -3.11,-11 -0.51,-0.19 -0.77,-0.75 -0.58,-1.26 0.2,-0.51 0.76,-0.77 1.27,-0.58 3.25,1.23 4.39,10.87 4.39,12.84 0,1.94 0.07,3.74 0.14,5.48 0.07,1.77 0.15,3.61 0.15,5.62 0,0.54 -0.44,0.98 -0.99,0.98z"/>
  <path class="fil1" d="M87.9 40.64c0,0 0,0 0,0 0,0 0,0 0,0zm-0.76 1.6c-0.28,0 -0.57,-0.12 -0.76,-0.36 -0.93,-1.14 -0.36,-7.53 -0.36,-7.59 0.08,-0.64 0.16,-1.23 0.23,-1.79 0.28,-2.23 0.51,-3.99 0.51,-6.51 0,-1.64 -1.75,-5.54 -3.6,-6.81 -0.69,-0.47 -1.04,-0.33 -1.16,-0.28 -0.51,0.2 -1.08,-0.05 -1.27,-0.56 -0.2,-0.5 0.05,-1.07 0.55,-1.27 0.66,-0.26 1.71,-0.38 2.98,0.49 2.36,1.61 4.46,6.05 4.46,8.43 0,2.65 -0.24,4.55 -0.52,6.76 -0.07,0.56 -0.15,1.14 -0.22,1.77 -0.16,1.31 -0.25,5.43 -0.01,6.22 0.26,0.41 0.18,0.96 -0.21,1.28 -0.18,0.15 -0.4,0.22 -0.62,0.22z"/>
  <path class="fil1" d="M81.54 66.86c-0.41,0 -0.8,-0.26 -0.94,-0.67 -0.17,-0.51 0.11,-1.07 0.62,-1.24 4.92,-1.64 5.82,-10.17 5.95,-11.86 0.14,-1.85 0.17,-4.48 0.16,-6.17 0,-0.39 -0.15,-0.62 -0.45,-0.73 -0.45,-0.17 -1.19,-0.04 -1.69,0.54 -0.33,0.41 -2.78,4.34 -3,4.83 -0.19,0.5 -0.75,0.75 -1.26,0.57 -0.51,-0.19 -0.76,-0.77 -0.58,-1.28 0.21,-0.58 2.98,-4.99 3.36,-5.42 0.99,-1.12 2.57,-1.57 3.85,-1.09 1.08,0.41 1.72,1.36 1.73,2.56 0.02,1.73 -0.02,4.43 -0.16,6.34 -0.21,2.68 -1.34,11.59 -7.28,13.57 -0.11,0.04 -0.21,0.05 -0.31,0.05z"/>
  <g>
   <path class="fil1" d="M86.32 50.24l0 0 0 0zm-2.74 5.78c-0.18,0 -0.36,-0.05 -0.53,-0.15 -0.46,-0.29 -0.59,-0.9 -0.3,-1.36 0.42,-0.67 0.5,-1.3 0.58,-2.02 0.09,-0.81 0.2,-1.72 0.82,-2.69 0.36,-0.55 1.1,-1.48 2.09,-1.52 0.53,-0.03 1,0.39 1.02,0.93 0.02,0.53 -0.37,0.97 -0.88,1.02 -0.09,0.05 -0.33,0.25 -0.58,0.64 -0.37,0.58 -0.44,1.14 -0.52,1.84 -0.1,0.85 -0.2,1.8 -0.87,2.85 -0.19,0.3 -0.51,0.46 -0.83,0.46z"/>
  </g>
  <path class="fil1" d="M70.15 46.9c-0.33,0 -0.66,-0.16 -0.84,-0.47 -0.29,-0.47 -2.53,-1.33 -5.41,-1.85 -2.61,-0.47 -3.41,-0.04 -5.53,1.38 -0.45,0.3 -1.06,0.17 -1.37,-0.28 -0.3,-0.45 -0.17,-1.06 0.28,-1.36 2.45,-1.64 3.77,-2.25 6.96,-1.67 2.13,0.38 5.82,1.25 6.75,2.76 0.28,0.46 0.13,1.07 -0.33,1.35 -0.16,0.1 -0.34,0.14 -0.51,0.14z"/>
  <path class="fil1" d="M37.96 45.76c-0.22,0 -0.44,-0.08 -0.63,-0.23 -0.41,-0.35 -0.47,-0.97 -0.12,-1.39 1.42,-1.68 5.41,-1.91 7.11,-1.75 1.42,0.13 2.38,0.52 3.15,0.83 0.52,0.21 0.94,0.37 1.39,0.42 0.54,0.06 0.93,0.54 0.87,1.08 -0.06,0.54 -0.54,0.93 -1.08,0.87 -0.72,-0.07 -1.33,-0.32 -1.91,-0.55 -0.72,-0.29 -1.46,-0.59 -2.6,-0.69 -2.12,-0.2 -4.81,0.33 -5.42,1.06 -0.2,0.23 -0.48,0.35 -0.76,0.35z"/>
  <path class="fil1" d="M48.61 49.93c-0.74,0 -1.21,-0.48 -1.56,-0.83 -0.5,-0.5 -1.01,-1.01 -2.46,-1.01 -1.08,0 -3.12,0.14 -4.03,0.52 -0.08,0.03 -0.25,0.17 -0.32,0.24 -0.29,0.35 -0.79,0.66 -1.52,0.94 -0.38,0.16 -0.84,0.08 -1.12,-0.25 -0.37,-0.4 -0.33,-1.02 0.08,-1.38 0.08,-0.08 0.22,-0.16 0.33,-0.2 0.58,-0.22 0.74,-0.38 0.74,-0.38 0.18,-0.21 0.61,-0.6 1.06,-0.79 1.59,-0.65 4.65,-0.66 4.78,-0.66 2.27,0 3.26,0.99 3.85,1.58 0.08,0.08 0.19,0.2 0.26,0.25 0.5,0.03 0.9,0.43 0.93,0.93 0.03,0.54 -0.39,1.01 -0.93,1.03 -0.03,0.01 -0.06,0.01 -0.09,0.01z"/>
  <path class="fil1" d="M69.34 51.12c-0.14,0 -0.28,-0.02 -0.41,-0.09 -0.69,-0.31 -1.26,-0.68 -1.81,-1.03 -0.88,-0.55 -1.64,-1.03 -2.71,-1.28 -0.81,-0.19 -1.82,-0.42 -2.5,-0.38 -0.69,0.04 -1.2,0.3 -2.05,0.74 -0.35,0.18 -0.74,0.38 -1.21,0.6 -0.49,0.23 -1.07,0.01 -1.3,-0.48 -0.23,-0.49 -0.02,-1.08 0.48,-1.3 0.43,-0.21 0.8,-0.4 1.14,-0.57 0.96,-0.5 1.72,-0.89 2.83,-0.95 0.89,-0.05 1.91,0.16 3.05,0.42 1.4,0.33 2.38,0.94 3.32,1.54 0.52,0.33 1.02,0.65 1.58,0.91 0.5,0.23 0.71,0.81 0.48,1.3 -0.16,0.36 -0.52,0.57 -0.89,0.57z"/>
  <path class="fil1" d="M51.49 62.9c-0.67,0 -1.11,-0.21 -1.49,-0.39l-0.12 -0.06c-0.08,-0.03 -0.12,-0.04 -0.91,-0.07 -2.52,-0.1 -2.99,-1.69 -3.08,-2.37 -0.14,-1.09 0.31,-2.22 1.36,-3.47 0.12,-0.13 0.24,-0.26 0.35,-0.39 0.74,-0.82 1.37,-1.52 1.77,-4.48 0.23,-1.75 0.28,-3.21 0.28,-5.44 0,-0.54 0.44,-0.98 0.98,-0.98 0.54,0 0.98,0.44 0.98,0.98 0,2.32 -0.04,3.84 -0.29,5.7 -0.48,3.56 -1.38,4.57 -2.26,5.54 -0.1,0.11 -0.21,0.23 -0.31,0.35 -0.66,0.77 -0.98,1.44 -0.91,1.93 0.02,0.22 0.08,0.62 1.18,0.67 0.98,0.04 1.23,0.04 1.68,0.25l0.15 0.07c0.34,0.16 0.49,0.23 0.84,0.18 0.16,-0.02 0.23,-0.04 0.7,-0.21l0.24 -0.09c1.07,-0.38 2.13,-0.32 3.15,0.17 0.46,0.22 0.67,0.1 0.74,0.06 0.22,-0.13 0.4,-0.46 0.43,-0.78 0.04,-0.54 0.51,-0.95 1.06,-0.9 0.54,0.04 0.94,0.52 0.9,1.06 -0.08,0.98 -0.62,1.87 -1.41,2.33 -0.76,0.43 -1.67,0.43 -2.57,0 -0.55,-0.27 -1.05,-0.29 -1.64,-0.08l-0.24 0.08c-0.49,0.18 -0.72,0.26 -1.09,0.31 -0.17,0.02 -0.33,0.03 -0.47,0.03z"/>
  <path class="fil1" d="M62.2 72.18c-0.14,0 -0.27,-0.03 -0.4,-0.09 -0.16,-0.05 -1.14,-0.26 -1.35,-0.28l-0.01 0c-1.17,0 -2.29,-0.38 -3.19,-0.68 -0.7,-0.24 -1.5,-0.51 -1.78,-0.36l-0.6 0.32c-2.12,1.12 -2.56,1.35 -4.07,0.37 -0.26,-0.17 -0.58,-0.37 -1.02,-0.62 -0.44,0.03 -1.69,0.35 -2.54,0.56 -1.35,0.35 -2.62,0.68 -3.39,0.68 -0.54,0 -0.98,-0.44 -0.98,-0.99 0,-0.54 0.44,-0.98 0.98,-0.98 0.52,0 1.84,-0.34 2.9,-0.61 2.4,-0.61 3.23,-0.78 3.83,-0.46 0.58,0.31 0.99,0.58 1.29,0.77 0.2,0.14 0.43,0.29 0.51,0.31 0.16,-0.02 0.81,-0.37 1.57,-0.77l0.6 -0.32c1.03,-0.54 2.15,-0.16 3.33,0.24 0.84,0.28 1.72,0.58 2.61,0.58 0.36,0 1.8,0.31 2.11,0.45 0.5,0.23 0.72,0.81 0.5,1.3 -0.17,0.37 -0.53,0.58 -0.9,0.58z"/>
  <path class="fil1" d="M53.06 76.04l-0.22 0 -0.23 0c-2.55,0 -3.6,-0.67 -4.29,-1.12 -0.37,-0.23 -0.47,-0.29 -0.66,-0.29 -0.54,0 -0.98,-0.44 -0.98,-0.98 0,-0.55 0.44,-0.99 0.98,-0.99 0.78,0 1.28,0.33 1.72,0.61 0.59,0.38 1.25,0.8 3.23,0.8l0.23 0c1.7,0.01 2.72,0 4.21,-0.64 0.26,-0.11 0.63,-0.2 0.81,-0.23 0.53,-0.09 1.04,0.26 1.14,0.8 0.09,0.53 -0.26,1.04 -0.8,1.14 -0.13,0.02 -0.31,0.07 -0.37,0.09 -1.78,0.78 -3.06,0.81 -4.77,0.81z"/>
  <path class="fil1" d="M68.36 27.17c0,0 -0.01,0 -0.02,0 -4.57,-0.11 -8.39,-1.55 -12.02,-4.53 -3.14,-2.58 -4.73,-5.65 -6.75,-9.55 -0.68,-1.33 -1.4,-2.71 -2.24,-4.2 -0.27,-0.47 -0.1,-1.07 0.37,-1.33 0.47,-0.27 1.07,-0.11 1.34,0.37 0.86,1.52 1.58,2.91 2.28,4.26 1.91,3.69 3.42,6.61 6.25,8.94 3.31,2.71 6.65,3.97 10.82,4.08 0.54,0.01 0.97,0.46 0.96,1 -0.02,0.54 -0.46,0.96 -0.99,0.96z"/>
  <path class="fil1" d="M54.47 9.19l0 0zm15.5 15.33c-7.27,0 -12.94,-10.2 -15.22,-14.32 -0.28,-0.51 -0.58,-1.03 -0.7,-1.23 -0.27,-0.23 -0.4,-0.59 -0.31,-0.95 0.12,-0.53 0.65,-0.87 1.17,-0.74 0.53,0.12 0.67,0.37 1.56,1.97 2.11,3.8 8.53,15.37 15.51,12.95 0.52,-0.18 1.08,0.1 1.25,0.61 0.18,0.51 -0.09,1.07 -0.6,1.25 -0.91,0.31 -1.79,0.46 -2.66,0.46z"/>
  <path class="fil1" d="M74.57 22.02c-0.08,0 -0.17,-0.01 -0.26,-0.03 -4.13,-1.12 -7.76,-2.34 -10.38,-5.94 -0.09,-0.12 -0.2,-0.28 -0.34,-0.46 -1,-1.32 -1.85,-2.49 -1.99,-3.39 -0.09,-0.53 0.27,-1.04 0.8,-1.13 0.54,-0.09 1.05,0.28 1.13,0.81 0.09,0.49 1.2,1.97 1.63,2.53 0.14,0.19 0.27,0.35 0.36,0.49 2.24,3.08 5.41,4.14 9.31,5.19 0.52,0.14 0.83,0.68 0.69,1.21 -0.12,0.44 -0.52,0.72 -0.95,0.72z"/>
  <path class="fil1" d="M68.87 8.47c0,0 0,0 0,0 0,0 0,0 0,0zm0.09 0.08l-0.09 -0.08zm-0.63 1.74c-0.22,0 -0.44,-0.08 -0.62,-0.23 -0.23,-0.18 -0.39,-0.47 -0.47,-0.62 -0.44,-0.9 -2.17,-2.12 -3.31,-2.92 -0.9,-0.63 -1.34,-0.95 -1.58,-1.28 -0.33,-0.43 -0.24,-1.05 0.19,-1.37 0.43,-0.32 1.04,-0.24 1.36,0.18 0.14,0.14 0.71,0.54 1.16,0.86 1.46,1.03 3.27,2.31 3.94,3.65 0.01,0.01 0.02,0.04 0.03,0.06 0.36,0.35 0.39,0.92 0.06,1.31 -0.19,0.24 -0.47,0.36 -0.76,0.36z"/>
  <path class="fil1" d="M76.56 18.67c0,0 0,0 0,0 0,0 0,0 0,0zm-0.03 0.19l0.03 -0.19zm0.94 1.24c-0.09,0 -0.17,-0.01 -0.26,-0.03 -0.47,-0.13 -0.77,-0.59 -0.71,-1.06 -0.02,-0.2 -0.14,-0.75 -0.2,-1.06 -0.09,-0.44 -0.14,-0.68 -0.16,-0.85 -0.1,-1.28 -1.78,-4.92 -2.62,-6.16 -0.78,-1.14 -0.96,-1.34 -1.95,-1.93 -0.47,-0.28 -0.62,-0.88 -0.34,-1.34 0.27,-0.47 0.88,-0.63 1.34,-0.35 1.3,0.77 1.67,1.19 2.57,2.51 0.91,1.32 2.82,5.33 2.96,7.11 0.01,0.11 0.07,0.34 0.12,0.61 0.23,1.1 0.3,1.48 0.2,1.84 -0.12,0.43 -0.52,0.71 -0.95,0.71z"/>
  <g>
   <path class="fil1" d="M74.64 20.89c0.03,0.04 0.07,0.08 0.11,0.12 -0.03,-0.03 -0.07,-0.08 -0.11,-0.12zm0.11 0.12l0.01 0 -0.01 0zm0.64 0.31c-0.42,0 -0.79,-0.27 -0.93,-0.67 -0.11,-0.17 -0.24,-0.39 -0.39,-0.62 -1.01,-1.62 -3.71,-5.93 -4.8,-6.56 -0.47,-0.28 -0.64,-0.88 -0.36,-1.35 0.27,-0.47 0.87,-0.63 1.34,-0.36 1.4,0.81 3.57,4.15 5.49,7.22 0.15,0.25 0.28,0.46 0.4,0.64 0.21,0.26 0.23,0.55 0.24,0.67 0.03,0.54 -0.39,1 -0.93,1.03 -0.02,0 -0.04,0 -0.06,0z"/>
  </g>
  <path class="fil1" d="M57.3 29.21c-0.03,0 -0.05,0 -0.08,0 -4.7,-0.38 -9.99,-8.21 -11.5,-10.6 -1.05,-1.68 -2.91,-4.82 -3.45,-6.96 -0.13,-0.52 0.19,-1.06 0.72,-1.19 0.53,-0.13 1.06,0.19 1.19,0.72 0.34,1.37 1.51,3.69 3.21,6.38 2.72,4.32 6.97,9.45 9.99,9.69 0.54,0.04 0.94,0.52 0.9,1.06 -0.04,0.51 -0.47,0.9 -0.98,0.9z"/>
  <path class="fil1" d="M46.46 26.94c-0.21,0 -0.41,-0.06 -0.59,-0.2 -3.94,-2.93 -7.9,-6.26 -9.23,-11.87 -0.12,-0.52 0.2,-1.05 0.73,-1.18 0.53,-0.12 1.06,0.2 1.18,0.73 1.18,4.97 4.69,7.92 8.5,10.75 0.43,0.32 0.52,0.94 0.2,1.37 -0.2,0.26 -0.49,0.4 -0.79,0.4z"/>
  <path class="fil1" d="M37.92 26.16c-0.25,0 -0.5,-0.1 -0.69,-0.29 -0.25,-0.25 -0.5,-0.45 -0.73,-0.65 -0.84,-0.7 -1.64,-1.36 -2.39,-3.59 -0.17,-0.51 0.11,-1.07 0.62,-1.24 0.52,-0.18 1.07,0.1 1.25,0.62 0.57,1.7 1.05,2.1 1.78,2.7 0.25,0.22 0.54,0.46 0.85,0.77 0.39,0.38 0.39,1 0.01,1.39 -0.2,0.19 -0.45,0.29 -0.7,0.29z"/>
  <path class="fil1" d="M30.47 36.57c-0.24,0 -0.49,-0.09 -0.68,-0.27 -0.34,-0.32 -0.39,-0.84 -0.16,-1.22 0.19,-0.36 1.09,-2.3 1.18,-2.71 0.17,-1.31 0.69,-2.57 1.54,-3.72 0.33,-0.43 0.94,-0.52 1.38,-0.2 0.43,0.33 0.52,0.94 0.2,1.38 -0.65,0.87 -1.05,1.82 -1.18,2.82 -0.08,0.61 -1.29,3.33 -1.57,3.62 -0.19,0.2 -0.45,0.3 -0.71,0.3z"/>
  <path class="fil1" d="M29.93 28.92c-0.12,0 -0.24,-0.02 -0.35,-0.07 -0.51,-0.19 -0.76,-0.76 -0.56,-1.27 0.67,-1.72 3.05,-3.19 4.8,-2.96 0.53,0.07 0.91,0.56 0.84,1.1 -0.07,0.54 -0.56,0.92 -1.1,0.85 -0.79,-0.11 -2.35,0.78 -2.71,1.72 -0.15,0.39 -0.52,0.63 -0.92,0.63z"/>
  <path class="fil1" d="M30.44 56.75c0,0 0,0 0,0 0,0 0,0 0,0zm1.46 5.15c-0.25,0 -0.49,-0.09 -0.68,-0.28 -0.17,-0.17 -0.29,-0.35 -0.37,-0.48l-0.01 -0.02c-0.93,-0.83 -1.39,-1.97 -1.67,-2.66 -0.06,-0.16 -0.11,-0.3 -0.16,-0.38 0,0 0.04,0.06 0.12,0.14 -0.95,-0.85 -0.97,-8.77 -0.74,-9.47 0.14,-0.43 0.17,-1.48 0.2,-2.4 0.07,-2.25 0.13,-4.03 1.56,-4.13 1.14,-0.07 1.71,0.17 2.11,0.91 0.05,0.09 0.09,0.17 0.52,0.28 0.53,0.14 0.84,0.68 0.7,1.2 -0.14,0.52 -0.67,0.84 -1.2,0.7 -0.91,-0.24 -1.33,-0.61 -1.59,-0.99 -0.09,0.56 -0.11,1.48 -0.13,2.09 -0.04,1.16 -0.08,2.25 -0.3,2.95 -0.24,0.84 0.11,6.52 0.38,7.62 0.13,0.19 0.23,0.43 0.36,0.75 0.23,0.57 0.57,1.44 1.19,1.96 0.15,0.13 0.24,0.27 0.32,0.4 0.03,0.04 0.06,0.1 0.1,0.15 0.37,0.39 0.36,1.01 -0.03,1.38 -0.19,0.19 -0.44,0.28 -0.68,0.28z"/>
  <path class="fil1" d="M54.26 101.38c-0.19,0 -0.39,0 -0.59,-0.01 -5.5,-0.16 -14.76,-11.7 -16.01,-17.3 -0.29,-1.29 -0.44,-2.5 -0.57,-3.56 -0.17,-1.43 -0.32,-2.67 -0.75,-3.39 -0.28,-0.46 -0.13,-1.06 0.33,-1.34 0.47,-0.28 1.07,-0.14 1.35,0.33 0.65,1.08 0.83,2.51 1.03,4.17 0.12,1.01 0.26,2.16 0.52,3.36 1.16,5.19 9.96,15.65 14.16,15.77 1.35,0.04 2.45,-0.07 3.34,-0.32 1.61,-0.46 6.56,-2.62 10.32,-5.11 4.86,-3.22 7.3,-6.69 8.15,-11.6l2.21 -12.75c0.09,-0.54 0.6,-0.89 1.14,-0.8 0.53,0.09 0.89,0.6 0.8,1.13l-2.22 12.76c-0.95,5.49 -3.64,9.35 -9,12.9 -3.97,2.63 -9.1,4.85 -10.86,5.36 -0.95,0.27 -2.05,0.4 -3.35,0.4z"/>
  <path class="fil1" d="M38.96 111.17c-0.12,0 -0.25,-0.02 -0.39,-0.08 -0.32,-0.12 -0.67,-0.47 -0.66,-1.05 0.01,-0.17 0.04,-0.32 0.08,-0.54 0.05,-0.29 0.13,-0.73 0.19,-1.45 0.39,-4.36 0.6,-7.59 0.6,-9.31 0,-1.34 -0.29,-3.2 -0.57,-4.99 -0.57,-3.63 -1.11,-7.05 0.12,-8.68 0.33,-0.43 0.94,-0.52 1.38,-0.19 0.43,0.33 0.52,0.95 0.19,1.38 -0.73,0.96 -0.16,4.56 0.25,7.18 0.3,1.96 0.59,3.81 0.59,5.3 0,1.72 -0.18,4.68 -0.54,8.81 0.61,-0.39 1.32,-0.6 2.01,-0.8 0.93,-0.27 1.82,-0.53 2.47,-1.23 0.85,-0.91 1.57,-1.7 2.26,-2.48 1.09,-1.22 2.12,-2.37 3.57,-3.82 0.38,-0.39 1,-0.38 1.39,0 0.38,0.38 0.38,1.01 -0.01,1.39 -1.4,1.41 -2.42,2.54 -3.49,3.74 -0.69,0.78 -1.42,1.59 -2.28,2.52 -1.02,1.09 -2.32,1.46 -3.36,1.77 -0.76,0.22 -1.42,0.41 -1.78,0.8 -0.33,0.35 -0.59,0.65 -0.79,0.87 -0.39,0.46 -0.74,0.86 -1.23,0.86z"/>
  <path class="fil1" d="M63.46 112.91c-0.64,0 -0.9,-0.51 -1.27,-1.26l-0.17 -0.32c-1.72,-3.4 -5.32,-8.82 -7.27,-9.95 -0.47,-0.27 -0.63,-0.87 -0.36,-1.34 0.27,-0.47 0.87,-0.63 1.34,-0.36 2.52,1.46 6.07,7.07 7.68,10.06 0.82,-1.46 2.2,-3.53 3.75,-5.85 3.07,-4.59 7.26,-10.88 7.52,-13.41 0.08,-0.81 0.09,-1.14 0.09,-2.19 0,-0.54 0.44,-0.98 0.98,-0.98 0.54,0 0.98,0.44 0.98,0.98 0,1.06 -0.01,1.48 -0.1,2.39 -0.3,3.02 -4.3,9.01 -7.83,14.3 -1.79,2.67 -3.47,5.19 -4.07,6.48 -0.09,0.19 -0.14,0.35 -0.18,0.49 -0.07,0.24 -0.26,0.89 -0.97,0.95 -0.04,0 -0.08,0.01 -0.12,0.01z"/>
  <path class="fil1" d="M88.88 85c-2.15,0 -9.71,-4.24 -11.86,-6.37 -0.38,-0.39 -0.38,-1.01 0,-1.39 0.39,-0.39 1.01,-0.39 1.39,0 2.14,2.13 9.25,5.79 10.47,5.79 0.55,0 0.99,0.44 0.99,0.99 0,0.54 -0.44,0.98 -0.99,0.98z"/>
  <path class="fil1" d="M28.53 91.67c-0.3,0 -0.6,-0.14 -0.79,-0.4 -0.32,-0.43 -0.23,-1.05 0.2,-1.37 0.25,-0.18 1,-0.66 1.19,-0.79 1.06,-0.65 1.79,-1.36 2.39,-1.93 0.37,-0.36 0.67,-0.64 0.97,-0.84 1.61,-1.04 2.24,-2.03 2.91,-3.08 0.54,-0.85 1.11,-1.73 2.15,-2.63 0.41,-0.35 1.03,-0.31 1.39,0.1 0.35,0.41 0.3,1.03 -0.11,1.39 -0.82,0.71 -1.28,1.43 -1.78,2.2 -0.71,1.12 -1.52,2.39 -3.49,3.67 -0.14,0.09 -0.41,0.34 -0.68,0.61 -0.63,0.6 -1.48,1.42 -2.71,2.18 -0.23,0.14 -0.9,0.58 -1.05,0.7 -0.18,0.13 -0.39,0.19 -0.59,0.19z"/>
  <path class="fil2" d="M64.19 47.17c0.94,-0.05 1.74,0.68 1.78,1.62 0.05,0.94 -0.68,1.74 -1.62,1.79 -0.94,0.04 -1.74,-0.68 -1.79,-1.63 -0.04,-0.94 0.69,-1.74 1.63,-1.78z"/>
  <path class="fil2" d="M43.59 46.84c0.94,-0.04 1.74,0.68 1.78,1.63 0.05,0.94 -0.68,1.74 -1.62,1.78 -0.94,0.05 -1.74,-0.68 -1.79,-1.62 -0.04,-0.94 0.68,-1.74 1.63,-1.79z"/>
  <path class="fil1" d="M63.89 53.42c-2.21,0 -2.9,-0.45 -3.73,-1.12 -0.14,-0.11 -0.29,-0.23 -0.46,-0.35 -0.29,-0.21 -0.36,-0.62 -0.15,-0.92 0.21,-0.29 0.62,-0.36 0.91,-0.15 0.2,0.14 0.36,0.27 0.52,0.4 0.72,0.58 1.19,0.96 4.18,0.79 0.08,-0.01 0.29,-0.07 0.61,-0.19 0.14,-0.04 0.23,-0.07 0.25,-0.07 0.36,-0.06 0.7,0.18 0.76,0.54 0.05,0.34 -0.16,0.65 -0.48,0.74l-0.1 0.03c-0.36,0.13 -0.7,0.24 -0.96,0.25 -0.51,0.03 -0.95,0.05 -1.35,0.05z"/>
  <path class="fil1" d="M42.73 52.69c-1.6,0 -2.44,-0.48 -3.02,-0.8 -0.22,-0.13 -0.4,-0.23 -0.52,-0.24 -0.36,-0.02 -0.63,-0.34 -0.61,-0.7 0.03,-0.36 0.34,-0.61 0.7,-0.61 0.41,0.03 0.74,0.21 1.08,0.41 0.74,0.42 1.74,0.99 4.59,0.35 0.05,-0.02 0.23,-0.14 0.29,-0.19 0.21,-0.3 0.62,-0.35 0.91,-0.13 0.29,0.21 0.34,0.63 0.13,0.92 -0.21,0.28 -0.72,0.61 -1.05,0.68 -0.99,0.23 -1.81,0.31 -2.5,0.31z"/>
  <path class="fil1" d="M41.97 68.82c-0.1,0 -0.21,-0.02 -0.31,-0.08 -0.31,-0.16 -0.44,-0.55 -0.27,-0.87 0.01,-0.02 0.06,-0.11 0.12,-0.22 0.03,-0.05 0.07,-0.11 0.09,-0.16 0.15,-0.72 0.94,-1.59 2.27,-3 0.94,-0.99 2.36,-2.48 2.4,-3.08 0.02,-0.36 0.32,-0.64 0.69,-0.62 0.36,0.02 0.64,0.33 0.62,0.69 -0.06,1 -1.13,2.2 -2.76,3.92 -0.74,0.78 -1.87,1.97 -1.93,2.35 -0.01,0.16 -0.03,0.18 -0.24,0.55l-0.1 0.18c-0.12,0.22 -0.35,0.34 -0.58,0.34z"/>
  <path class="fil1" d="M64.9 70.44c-0.35,0 -0.64,-0.28 -0.65,-0.64 -0.03,-0.94 -0.75,-1.95 -1.28,-2.68 -0.13,-0.17 -0.24,-0.33 -0.34,-0.47 -0.72,-1.08 -1.25,-1.91 -1.68,-2.63 -0.18,-0.31 -0.08,-0.71 0.23,-0.9 0.31,-0.18 0.72,-0.08 0.9,0.23 0.41,0.7 0.93,1.51 1.64,2.57 0.09,0.13 0.19,0.27 0.31,0.43 0.63,0.87 1.49,2.06 1.53,3.42 0.01,0.36 -0.27,0.66 -0.64,0.67l-0.02 0z"/>
  <path class="fil1" d="M48.42 115.4c-0.12,0 -0.23,-0.02 -0.34,-0.06 -0.51,-0.19 -0.77,-0.75 -0.58,-1.26 0.03,-0.09 0.06,-0.19 0.09,-0.29 0.05,-0.19 0.11,-0.36 0.16,-0.49l0.04 -0.09c1.71,-3.93 1.71,-3.93 0.96,-5.82 -0.36,-0.89 -0.58,-1.56 -0.78,-2.16 -0.18,-0.52 -0.33,-0.97 -0.53,-1.43 -0.21,-0.5 0.02,-1.07 0.52,-1.29 0.5,-0.21 1.08,0.02 1.29,0.52 0.23,0.52 0.39,1.01 0.58,1.58 0.19,0.57 0.41,1.21 0.74,2.05 1.06,2.65 0.79,3.27 -0.98,7.34l-0.04 0.08c-0.02,0.07 -0.05,0.16 -0.07,0.26 -0.05,0.14 -0.09,0.29 -0.14,0.42 -0.15,0.4 -0.52,0.64 -0.92,0.64z"/>
  <path class="fil1" d="M54.46 114.99c-0.4,0 -0.78,-0.26 -0.92,-0.66 -0.01,-0.03 -1,-2.98 -1,-4.26 0,-1.83 4.44,-6.04 4.91,-6.44 0.42,-0.34 1.04,-0.28 1.39,0.13 0.34,0.42 0.28,1.04 -0.13,1.39 -1.37,1.13 -3.99,4.15 -4.2,4.96 0.02,0.69 0.58,2.69 0.88,3.57 0.18,0.52 -0.09,1.08 -0.6,1.25 -0.11,0.04 -0.22,0.06 -0.33,0.06z"/>
 </g>
</svg>
