<?xml version="1.0" encoding="UTF-8"?>
<!DOCTYPE svg PUBLIC "-//W3C//DTD SVG 1.1//EN" "http://www.w3.org/Graphics/SVG/1.1/DTD/svg11.dtd">
<!-- Creator: CorelDRAW 2018 (64-Bit) -->
<svg xmlns="http://www.w3.org/2000/svg" xml:space="preserve" width="845px" height="845px" version="1.1" style="shape-rendering:geometricPrecision; text-rendering:geometricPrecision; image-rendering:optimizeQuality; fill-rule:evenodd; clip-rule:evenodd"
viewBox="0 0 117.14 117.14"
 xmlns:xlink="http://www.w3.org/1999/xlink">
 <defs>
  <style type="text/css">
   <![CDATA[
    .fil0 {fill:none}
    .fil2 {fill:black}
    .fil1 {fill:black;fill-rule:nonzero}
   ]]>
  </style>
 </defs>
 <g id="Слой_x0020_1">
  <metadata id="CorelCorpID_0Corel-Layer"/>
  <rect class="fil0" width="117.14" height="117.14"/>
 </g>
 <g id="_1">
  <metadata id="CorelCorpID_1Corel-Layer"/>
  <path class="fil1" d="M54.54 46.13c-0.17,0 -0.35,-0.07 -0.48,-0.21 -0.24,-0.27 -0.23,-0.68 0.04,-0.93 1.74,-1.59 5.35,-4.41 7.62,-5.23 1.09,-0.38 2.19,-0.33 3.93,0.2 1.31,0.4 1.42,0.46 1.48,0.49 0.32,0.16 0.44,0.56 0.28,0.88 -0.17,0.32 -0.56,0.45 -0.88,0.28 -0.07,-0.03 -0.61,-0.2 -1.26,-0.39 -1.67,-0.51 -2.43,-0.47 -3.1,-0.22 -1.99,0.71 -5.4,3.33 -7.19,4.96 -0.12,0.11 -0.28,0.17 -0.44,0.17z"/>
  <path class="fil1" d="M33.41 50.19c-0.16,0 -0.32,-0.06 -0.44,-0.18 -0.27,-0.24 -0.29,-0.65 -0.04,-0.92 0.99,-1.09 3.73,-1.29 8.14,-0.61l0.11 0.02c0.36,0.05 0.62,0.38 0.57,0.74 -0.05,0.35 -0.38,0.61 -0.74,0.56l-0.15 -0.02c-4.39,-0.69 -6.49,-0.32 -6.97,0.19 -0.13,0.14 -0.3,0.22 -0.48,0.22z"/>
  <path class="fil1" d="M36.12 56.96c-0.4,0 -0.77,-0.24 -0.92,-0.64 -0.19,-0.5 0.06,-1.07 0.57,-1.26 0.31,-0.12 0.38,-0.25 0.44,-0.43 0.06,-0.14 0.1,-0.28 0.15,-0.41 0.36,-1.02 0.7,-1.99 2.26,-2.81 0.81,-0.43 1.64,-0.72 3.08,-0.72 1.13,0 1.72,0.27 2.54,0.65 0.38,0.17 0.84,0.38 1.49,0.62 0.5,0.19 0.76,0.76 0.57,1.27 -0.2,0.5 -0.76,0.76 -1.27,0.57 -0.7,-0.27 -1.2,-0.49 -1.6,-0.68 -0.74,-0.33 -1.02,-0.46 -1.73,-0.46 -1.15,0 -1.68,0.23 -2.17,0.49 -0.87,0.46 -1,0.83 -1.32,1.72 -0.05,0.14 -0.1,0.29 -0.15,0.44 -0.29,0.77 -0.81,1.28 -1.59,1.58 -0.12,0.05 -0.24,0.07 -0.35,0.07z"/>
  <path class="fil1" d="M55.13 50.73c-0.35,0 -0.68,-0.18 -0.86,-0.5 -0.27,-0.47 -0.1,-1.07 0.37,-1.34 0.73,-0.41 0.77,-0.49 0.92,-0.8 0.12,-0.22 0.27,-0.52 0.57,-0.95 1.35,-1.86 3.09,-2.21 4.44,-2.31 1.39,-0.09 2.28,0.31 2.99,0.64 0.42,0.19 0.76,0.35 1.17,0.39 0.28,0.03 1.24,-0.16 1.57,-0.45 0.4,-0.36 1.02,-0.33 1.38,0.08 0.37,0.4 0.33,1.02 -0.07,1.38 -0.85,0.77 -2.44,1.02 -3.1,0.94 -0.72,-0.08 -1.28,-0.33 -1.77,-0.56 -0.61,-0.28 -1.15,-0.51 -2.03,-0.46 -1.44,0.1 -2.27,0.52 -2.98,1.5 -0.22,0.3 -0.32,0.5 -0.41,0.69 -0.32,0.63 -0.58,0.98 -1.71,1.62 -0.15,0.09 -0.32,0.13 -0.48,0.13z"/>
  <path class="fil1" d="M23.49 35.03c-0.1,0 -0.19,-0.02 -0.28,-0.05 -0.52,-0.15 -0.82,-0.7 -0.67,-1.22 0.38,-1.27 0.24,-2.45 0.09,-3.82 -0.13,-1.1 -0.26,-2.25 -0.12,-3.54 0.51,-4.83 3.15,-8.62 7.24,-10.39 2.84,-1.23 9.25,-2.06 11.18,1.62 1.61,3.09 0.7,5.27 -0.26,7.57 -0.24,0.57 -0.49,1.17 -0.71,1.8l-0.06 0.18c-0.55,1.52 -0.56,2.04 -0.51,2.22 0.3,0.42 0.23,1.01 -0.18,1.34 -0.42,0.35 -1.04,0.28 -1.38,-0.14 -0.8,-0.99 -0.31,-2.63 0.22,-4.09l0.06 -0.16c0.24,-0.69 0.5,-1.31 0.75,-1.91 0.91,-2.18 1.51,-3.63 0.33,-5.89 -1.12,-2.13 -5.95,-1.92 -8.66,-0.74 -3.47,1.51 -5.63,4.63 -6.07,8.8 -0.11,1.07 0,2.06 0.12,3.11 0.17,1.45 0.34,2.95 -0.15,4.6 -0.13,0.43 -0.52,0.71 -0.94,0.71z"/>
  <path class="fil1" d="M31.18 35.3c-0.25,0 -0.51,-0.1 -0.7,-0.29 -0.12,-0.12 -0.21,-0.25 -0.27,-0.33 -1.62,-1.57 0.4,-5.08 2.43,-8.25 0.11,-0.18 0.21,-0.33 0.28,-0.44 0.77,-1.26 0.85,-2.1 0.6,-2.35 -0.33,-0.33 -1.6,-0.32 -3.27,0.75 -0.38,0.25 -0.84,0.63 -1.33,1.64 -0.25,0.49 -0.83,0.69 -1.32,0.45 -0.49,-0.25 -0.69,-0.83 -0.45,-1.32 0.56,-1.13 1.19,-1.88 2.04,-2.42 2.29,-1.47 4.53,-1.66 5.71,-0.51 0.49,0.49 1.45,1.93 -0.31,4.78 -0.07,0.12 -0.17,0.29 -0.3,0.48 -2.9,4.53 -2.78,5.6 -2.67,5.81 0.1,0.09 0.17,0.2 0.22,0.27 0.01,0.01 0.02,0.03 0.04,0.05 0.38,0.39 0.38,1.01 -0.01,1.39 -0.19,0.19 -0.44,0.29 -0.69,0.29z"/>
  <path class="fil1" d="M58.78 26.43c-0.18,0 -0.36,-0.04 -0.52,-0.15 -0.46,-0.28 -0.6,-0.89 -0.31,-1.35 2.36,-3.78 4.26,-8.98 -0.08,-12.27 -3.12,-2.37 -12.42,-4.24 -16.32,-3.3l-0.65 0.16c-5.35,1.3 -8.88,2.15 -11.51,7.06 -0.26,0.48 -0.85,0.66 -1.33,0.4 -0.48,-0.25 -0.66,-0.85 -0.4,-1.33 3.04,-5.68 7.34,-6.72 12.78,-8.04l0.64 -0.15c4.48,-1.1 14.39,0.91 17.98,3.63 4.3,3.27 4.5,8.55 0.55,14.88 -0.18,0.3 -0.5,0.46 -0.83,0.46z"/>
  <path class="fil1" d="M54.18 26.31c-0.06,0 -0.12,0 -0.19,-0.01 -0.53,-0.11 -0.88,-0.63 -0.77,-1.16 0.27,-1.4 1.92,-3.89 1.94,-3.91 0.89,-1.34 1.11,-2.56 0.66,-3.72 -0.93,-2.43 -4.71,-4.36 -8.04,-5.19 -2.87,-0.72 -5.52,-0.4 -9.76,1.2 -0.51,0.19 -1.07,-0.07 -1.27,-0.58 -0.19,-0.5 0.07,-1.07 0.58,-1.26 4.6,-1.73 7.66,-2.09 10.93,-1.27 3.71,0.94 8.13,3.1 9.39,6.39 0.69,1.78 0.4,3.63 -0.85,5.52 -0.49,0.73 -1.51,2.48 -1.65,3.2 -0.1,0.47 -0.51,0.79 -0.97,0.79z"/>
  <path class="fil1" d="M46.62 26.5l-0.01 0c-0.55,-0.01 -0.98,-0.45 -0.98,-0.99 0.01,-0.72 0.29,-1.55 0.62,-2.5 0.5,-1.46 1.06,-3.1 0.74,-4.53 -0.38,-1.71 -1.51,-2.61 -3.34,-2.68 -0.55,-0.02 -0.97,-0.48 -0.95,-1.02 0.02,-0.54 0.48,-0.96 1.02,-0.94 2.72,0.1 4.61,1.64 5.18,4.21 0.44,1.97 -0.24,3.98 -0.79,5.59 -0.26,0.76 -0.51,1.49 -0.51,1.89 -0.01,0.54 -0.45,0.97 -0.98,0.97z"/>
  <path class="fil1" d="M65.15 27.89c-0.33,0 -0.64,-0.16 -0.83,-0.46 -0.29,-0.45 -0.16,-1.06 0.3,-1.35 0.18,-0.12 0.34,-0.29 0.49,-0.52 0.82,-1.27 1.21,-2.06 1.5,-2.64l0.15 -0.29c1.55,-3.04 4.55,-4.66 8.67,-4.69 1.15,0 2.16,0.08 2.84,0.26 0.16,0.04 0.31,0.07 0.47,0.1 0.62,0.13 1.4,0.29 2.05,0.89 0.4,0.36 0.43,0.98 0.06,1.38 -0.37,0.4 -0.99,0.43 -1.39,0.06 -0.23,-0.22 -0.58,-0.29 -1.11,-0.4 -0.19,-0.04 -0.38,-0.08 -0.56,-0.13 -0.52,-0.13 -1.39,-0.2 -2.34,-0.2 -3.4,0.03 -5.73,1.24 -6.94,3.62l-0.14 0.28c-0.31,0.62 -0.73,1.47 -1.61,2.83 -0.3,0.46 -0.66,0.83 -1.08,1.1 -0.17,0.11 -0.35,0.16 -0.53,0.16z"/>
  <path class="fil1" d="M66.53 31.89c-0.38,0 -0.75,-0.22 -0.91,-0.6 -0.21,-0.5 0.03,-1.08 0.53,-1.29 0.83,-0.34 1.95,-1.58 3.04,-2.78l0.1 -0.11c2.82,-3.13 5.58,-4.86 10.6,-3.83 0.53,0.11 0.88,0.63 0.77,1.16 -0.11,0.53 -0.63,0.87 -1.16,0.76 -3.73,-0.76 -5.86,0.02 -8.76,3.23l-0.09 0.11c-1.29,1.42 -2.51,2.76 -3.74,3.28 -0.12,0.05 -0.25,0.07 -0.38,0.07z"/>
  <path class="fil1" d="M69.04 35.7c-0.51,0 -0.95,-0.4 -0.98,-0.91 -0.04,-0.55 0.36,-1.02 0.91,-1.05 2.81,-0.21 3.85,-0.93 5.16,-1.83 1.02,-0.7 2.17,-1.5 4.22,-2.11 1.97,-0.59 3.96,-0.69 5.73,-0.29 0.53,0.12 0.86,0.65 0.74,1.18 -0.12,0.52 -0.64,0.86 -1.17,0.74 -1.43,-0.32 -3.11,-0.23 -4.74,0.26 -1.75,0.52 -2.72,1.19 -3.66,1.84 -1.37,0.94 -2.79,1.92 -6.14,2.16 -0.03,0.01 -0.05,0.01 -0.07,0.01z"/>
  <path class="fil1" d="M77.69 40.17c-2.11,0 -4.29,-0.19 -6.4,-0.44 -0.53,-0.06 -0.92,-0.55 -0.86,-1.09 0.07,-0.54 0.56,-0.92 1.1,-0.86 5.48,0.65 11.51,0.94 14.64,-1.84 1.39,-1.24 2.07,-3 2.07,-5.36 0,-0.55 0.44,-0.99 0.99,-0.99 0.54,0 0.98,0.44 0.98,0.99 0,2.92 -0.92,5.21 -2.74,6.83 -2.39,2.12 -5.96,2.76 -9.78,2.76z"/>
  <path class="fil1" d="M76.72 45.19c-0.62,0 -1.23,-0.06 -1.87,-0.13l-0.56 -0.05c-0.54,-0.06 -0.94,-0.54 -0.88,-1.08 0.05,-0.54 0.53,-0.93 1.07,-0.88l0.56 0.06c1.83,0.18 2.93,0.29 4.8,-0.82 0.47,-0.27 1.07,-0.12 1.35,0.35 0.28,0.47 0.12,1.07 -0.34,1.34 -1.62,0.96 -2.89,1.21 -4.13,1.21z"/>
  <path class="fil1" d="M82.89 54.52c0,0 0,0.01 -0.01,0.01 0.01,0 0.01,-0.01 0.01,-0.01zm-3.2 1.3c0,0 0,0.01 -0.01,0.01 0.01,0 0.01,-0.01 0.01,-0.01zm-3.48 3.6c-0.51,0 -0.94,-0.39 -0.98,-0.91 -0.04,-0.54 0.37,-1.01 0.91,-1.05 1.14,-0.09 1.66,-0.42 2.7,-1.1 0.25,-0.16 0.51,-0.33 0.8,-0.51 0.32,-0.31 1.29,-1.79 1.49,-2.19 0.05,-0.12 0.11,-0.21 0.17,-0.28 0.12,-0.4 0.5,-0.7 0.94,-0.7 0,0 0.01,0 0.01,0 0.54,0 0.97,0.43 0.97,0.96 0,0.41 -0.12,0.72 -0.38,0.98 -0.27,0.48 -1.46,2.47 -2.12,2.88 -0.3,0.18 -0.56,0.35 -0.81,0.51 -1.11,0.72 -1.99,1.29 -3.62,1.41 -0.03,0 -0.05,0 -0.08,0z"/>
  <path class="fil1" d="M76.88 55.55c-0.54,0 -0.98,-0.44 -0.98,-0.98 0,-1.72 0.86,-3.93 2.52,-4.84 1.09,-0.6 1.11,-0.65 1.37,-1.25 0.1,-0.21 0.22,-0.48 0.38,-0.81 0.25,-0.48 0.84,-0.67 1.33,-0.42 0.48,0.24 0.67,0.84 0.42,1.32 -0.14,0.29 -0.24,0.52 -0.33,0.71 -0.44,1 -0.72,1.34 -2.23,2.17 -0.89,0.49 -1.5,2.01 -1.5,3.12 0,0.54 -0.44,0.98 -0.98,0.98z"/>
  <path class="fil1" d="M79.56 65.48c-0.39,0 -0.75,-0.23 -0.91,-0.61 -0.2,-0.51 0.04,-1.08 0.55,-1.28 2.65,-1.07 4.58,-3.08 5.3,-5.51 0.63,-2.17 0.19,-4.47 -1.24,-6.48 -0.34,-0.48 -0.75,-1.09 -1.2,-2.1 -1.83,-4.12 -1.18,-6.19 0.61,-9.63 0.25,-0.48 0.84,-0.67 1.32,-0.42 0.48,0.25 0.67,0.85 0.42,1.33 -1.63,3.12 -2.06,4.52 -0.55,7.92 0.37,0.85 0.7,1.34 1,1.76 1.79,2.51 2.33,5.42 1.52,8.17 -0.88,3.01 -3.23,5.49 -6.45,6.78 -0.12,0.05 -0.25,0.07 -0.37,0.07z"/>
  <path class="fil1" d="M86.85 76.57c-0.53,0 -1.08,-0.03 -1.65,-0.07 -3.78,-0.33 -6.29,-3.32 -6.18,-5.8 0.05,-1.35 1,-2.93 3.49,-2.93 0.54,0 0.98,0.44 0.98,0.98 0,0.55 -0.44,0.99 -0.98,0.99 -1.49,0 -1.52,0.78 -1.53,1.04 -0.06,1.38 1.62,3.52 4.39,3.76 6.13,0.52 9.68,-1.99 10.85,-7.68 1.02,-4.99 0.43,-8.69 -1.79,-11.32 -1.97,-2.31 -1.22,-5.44 -0.63,-7.95l0.12 -0.49c0.28,-1.19 -0.4,-3.19 -0.92,-3.5 -0.47,-0.27 -0.62,-0.88 -0.34,-1.34 0.28,-0.47 0.88,-0.62 1.35,-0.34 1.45,0.87 2.23,3.87 1.82,5.63l-0.11 0.49c-0.53,2.19 -1.12,4.67 0.2,6.23 2.61,3.07 3.36,7.44 2.22,12.98 -1.25,6.12 -5.14,9.32 -11.29,9.32z"/>
  <path class="fil1" d="M87.34 69.58c-0.5,0 -1,-0.06 -1.48,-0.17 -0.53,-0.12 -0.85,-0.65 -0.73,-1.18 0.13,-0.53 0.66,-0.86 1.19,-0.73 0.46,0.11 2.8,0.56 3.54,-1.38 0.85,-2.22 0.38,-4.58 -0.11,-7.07 -0.56,-2.89 -1.21,-6.16 0.13,-9.7 0.19,-0.51 0.75,-0.77 1.26,-0.58 0.51,0.19 0.77,0.76 0.58,1.27 -1.14,3.02 -0.58,5.87 -0.04,8.63 0.52,2.66 1.06,5.4 0.02,8.14 -0.75,1.98 -2.55,2.77 -4.36,2.77z"/>
  <path class="fil1" d="M86.76 49.73l-0.01 0c-0.54,-0.01 -0.98,-0.45 -0.97,-0.99 0,-0.37 0.07,-0.86 0.22,-1.55 0.46,-2.13 2.47,-5.74 3.63,-7.51 1.49,-2.28 2.58,-7.99 1.11,-10.72 -0.5,-0.92 -1.23,-1.35 -2.27,-1.35 -0.55,0 -0.98,-0.44 -0.98,-0.99 0,-0.54 0.43,-0.98 0.98,-0.98 1.77,0 3.15,0.83 4,2.39 1.87,3.46 0.58,10 -1.2,12.72 -1.13,1.73 -2.97,5.11 -3.35,6.86 -0.15,0.66 -0.18,0.99 -0.18,1.14 0,0.54 -0.44,0.98 -0.98,0.98z"/>
  <path class="fil1" d="M51.06 65.2c-0.49,0 -0.95,-0.15 -1.33,-0.27l-0.19 -0.06c-0.15,-0.05 -0.37,-0.1 -0.67,-0.1 -0.76,0 -1.41,-0.3 -1.89,-0.86 -0.35,-0.41 -0.31,-1.03 0.11,-1.39 0.41,-0.35 1.03,-0.3 1.38,0.11 0.11,0.12 0.22,0.17 0.4,0.17 0.44,0 0.83,0.06 1.25,0.19l0.21 0.07c0.8,0.25 0.8,0.25 1.06,-0.16 0.76,-1.21 1.54,-1.5 2.61,-0.99 0.17,0.09 0.26,0.13 0.36,0.13 0.06,0 0.13,-0.01 0.2,-0.02 0.24,-0.05 0.5,-0.7 0.45,-1.36 -0.04,-0.54 0.36,-1.01 0.9,-1.06 0.54,-0.04 1.02,0.36 1.06,0.91 0.12,1.47 -0.54,3.13 -2.01,3.43 -0.21,0.05 -0.42,0.07 -0.63,0.06 -0.49,0 -0.86,-0.16 -1.12,-0.28 -0.04,0.05 -0.1,0.13 -0.16,0.23 -0.62,0.98 -1.33,1.25 -1.99,1.25z"/>
  <path class="fil1" d="M47.96 72.98c-0.5,0 -0.92,-0.37 -0.97,-0.88 -0.06,-0.53 0.32,-1 0.85,-1.07 0.13,-0.05 0.47,-0.29 0.7,-0.45 0.7,-0.5 1.66,-1.19 2.81,-1.19 0.59,0 1.09,0.14 1.5,0.25 0.32,0.08 0.6,0.16 0.76,0.12 0.27,-0.06 0.4,-0.18 0.65,-0.39 0.24,-0.21 0.55,-0.47 1,-0.67 0.89,-0.38 1.63,-0.52 2.58,-0.47 0.17,0.01 0.47,0.05 0.79,0.1 0.36,0.05 0.65,0.11 0.92,0.17 0.54,0.12 0.84,0.19 1.44,0.07 0.29,-0.06 0.6,-0.12 0.94,-0.13 0.55,-0.03 1,0.39 1.02,0.94 0.02,0.54 -0.4,1 -0.94,1.02 -0.19,0.01 -0.39,0.05 -0.62,0.09 -1.03,0.21 -1.66,0.07 -2.27,-0.07 -0.23,-0.05 -0.47,-0.11 -0.77,-0.15 -0.25,-0.04 -0.48,-0.07 -0.62,-0.08 -0.64,-0.03 -1.08,0.05 -1.68,0.32 -0.19,0.08 -0.33,0.19 -0.52,0.35 -0.31,0.27 -0.74,0.64 -1.47,0.81 -0.64,0.15 -1.21,0 -1.72,-0.14 -0.34,-0.09 -0.66,-0.17 -0.99,-0.17 -0.52,0 -1.13,0.43 -1.67,0.82 -0.53,0.38 -1.04,0.74 -1.61,0.8 -0.04,0 -0.07,0 -0.11,0z"/>
  <g>
   <path class="fil1" d="M58.48 71.35l0 0 0 0zm-4.59 4.63c-1.06,0 -2.11,-0.3 -3.07,-0.92l-0.25 -0.15c-0.26,-0.17 -0.5,-0.33 -0.69,-0.42 -0.49,-0.23 -0.71,-0.81 -0.48,-1.3 0.23,-0.5 0.81,-0.71 1.3,-0.48 0.32,0.14 0.64,0.35 0.94,0.55l0.23 0.14c2.33,1.49 4.51,-0.02 5.6,-1.05 0.57,-0.54 0.95,-0.96 1.06,-1.09 0.23,-0.44 0.77,-0.63 1.24,-0.43 0.5,0.21 0.73,0.78 0.52,1.28 -0.05,0.14 -0.19,0.45 -1.47,1.67 -1.54,1.45 -3.26,2.2 -4.93,2.2z"/>
  </g>
  <path class="fil1" d="M56.5 85.79c-0.73,0 -1.45,-0.05 -2.15,-0.15 -2.63,-0.38 -4.86,-2.13 -6.66,-3.54l-0.15 -0.12c-0.93,-0.73 -1.78,-1.54 -2.5,-2.4 -1.4,-1.67 -2.65,-3.81 -3.76,-5.7 -0.73,-1.24 -1.36,-2.31 -1.86,-2.97 -3.73,-4.83 -4.43,-6.14 -4.91,-11.72 -0.09,-1.03 -0.23,-2.02 -0.45,-3.03 -0.08,-0.4 -0.21,-0.64 -0.4,-1.02 -0.25,-0.48 -0.56,-1.09 -0.88,-2.21 -0.55,-1.84 -0.79,-3.82 -0.87,-4.47l-0.01 -0.07c-0.76,-1.83 -2,-9.34 -1.75,-10.74 0.5,-2.72 2.46,-6.25 5.1,-7.44 0.49,-0.22 1.08,-0.01 1.3,0.49 0.22,0.49 0,1.08 -0.49,1.3 -1.93,0.87 -3.57,3.8 -3.97,6.01 -0.19,1.06 1.1,8.63 1.63,9.64 0.09,0.17 0.11,0.28 0.14,0.57 0.08,0.61 0.31,2.47 0.8,4.16 0.28,0.94 0.53,1.43 0.75,1.87 0.23,0.44 0.44,0.85 0.58,1.5 0.23,1.1 0.39,2.16 0.48,3.27 0.44,5.12 0.98,6.11 4.51,10.7 0.58,0.75 1.23,1.87 1.99,3.16 1.07,1.83 2.28,3.89 3.57,5.43 0.64,0.76 1.39,1.48 2.22,2.13l0.14 0.11c1.7,1.33 3.62,2.84 5.73,3.15 3.15,0.45 6.77,-0.28 9.68,-1.97 4.87,-2.83 7.09,-8.59 8.48,-13.29 1.71,-5.78 2.44,-11.24 2.44,-18.28 0,-0.54 0.44,-0.98 0.99,-0.98 0.54,0 0.98,0.44 0.98,0.98 0,7.24 -0.76,12.87 -2.52,18.84 -1.5,5.05 -3.91,11.25 -9.38,14.43 -2.64,1.53 -5.8,2.36 -8.8,2.36z"/>
  <path class="fil1" d="M28.21 64.57c-0.97,0 -1.96,-0.31 -2.88,-0.94 -1.89,-1.29 -2.74,-3.42 -2.01,-5.07 0.21,-0.5 0.79,-0.73 1.29,-0.51 0.5,0.22 0.72,0.8 0.51,1.29 -0.34,0.77 0.24,1.94 1.32,2.67 0.48,0.33 2.16,1.28 3.69,-0.25 0.6,-0.6 0.9,-1.33 0.88,-2.15 -0.03,-1.29 -0.8,-2.78 -2.03,-3.91 -0.7,-0.64 -1.33,-1.26 -1.91,-1.88 -4.59,-4.91 -5.95,-9.69 -4.04,-14.21 0.43,-1.01 0.99,-1.94 1.53,-2.85 0.85,-1.41 1.65,-2.74 1.65,-3.97 0,-0.54 0.44,-0.98 0.98,-0.98 0.55,0 0.99,0.44 0.99,0.98 0,1.77 -0.99,3.41 -1.94,4.99 -0.5,0.84 -1.03,1.71 -1.4,2.59 -1.6,3.8 -0.41,7.76 3.67,12.11 0.54,0.58 1.13,1.16 1.8,1.78 1.63,1.5 2.63,3.48 2.67,5.3 0.02,1.37 -0.48,2.61 -1.46,3.59 -0.94,0.94 -2.11,1.42 -3.31,1.42z"/>
  <path class="fil1" d="M31.2 46.45c-0.16,0 -0.32,-0.04 -0.47,-0.12 -1.75,-0.95 -3.67,-2.09 -4.44,-3.53 -0.35,-0.67 -0.77,-1.19 -1.13,-1.64 -0.32,-0.4 -0.63,-0.78 -0.85,-1.21 -0.24,-0.48 -0.05,-1.07 0.44,-1.32 0.48,-0.24 1.07,-0.05 1.32,0.44 0.12,0.24 0.35,0.53 0.62,0.86 0.4,0.49 0.89,1.11 1.34,1.96 0.55,1.03 2.64,2.17 3.64,2.71 0.48,0.26 0.65,0.86 0.39,1.34 -0.17,0.32 -0.51,0.51 -0.86,0.51z"/>
  <path class="fil1" d="M32.93 53.27c-0.16,0 -0.33,-0.04 -0.49,-0.13l-0.12 -0.07c-0.95,-0.54 -1.95,-1.24 -2.92,-1.92 -0.95,-0.66 -1.86,-1.29 -2.58,-1.68 -1.29,-0.7 -3.19,-3.3 -3.55,-4.61 -0.15,-0.52 0.16,-1.06 0.68,-1.21 0.52,-0.14 1.06,0.16 1.21,0.68 0.25,0.89 1.87,3.02 2.6,3.41 0.82,0.44 1.77,1.1 2.77,1.8 0.93,0.65 1.9,1.33 2.77,1.82l0.13 0.08c0.46,0.27 0.63,0.87 0.35,1.34 -0.18,0.32 -0.51,0.49 -0.85,0.49z"/>
  <path class="fil1" d="M40.14 84.44c-0.56,0 -1.13,-0.09 -1.67,-0.26 -1.67,-0.52 -3.33,-3.14 -3.48,-5.5 -0.13,-1.94 0.72,-3.43 2.4,-4.21 0.49,-0.23 1.08,-0.02 1.31,0.47 0.23,0.5 0.01,1.08 -0.48,1.31 -0.93,0.43 -1.34,1.18 -1.27,2.3 0.12,1.83 1.46,3.55 2.11,3.76 1.31,0.41 2.89,0.01 3.83,-0.97 0.38,-0.39 1,-0.41 1.39,-0.03 0.39,0.37 0.41,0.99 0.03,1.39 -1.07,1.12 -2.61,1.74 -4.17,1.74z"/>
  <path class="fil1" d="M32.4 80.82c-2.08,0 -4.1,-1.19 -4.78,-2.92 -0.38,-0.98 -0.86,-3.55 3.03,-6.3 1.03,-0.72 1.72,-1.34 2.19,-1.95 0.71,-0.92 0.77,-2.28 0.15,-3.03 -0.35,-0.42 -0.29,-1.04 0.13,-1.39 0.42,-0.34 1.04,-0.28 1.38,0.13 1.21,1.47 1.17,3.82 -0.1,5.48 -0.59,0.78 -1.42,1.53 -2.61,2.37 -1.94,1.37 -2.79,2.81 -2.34,3.96 0.44,1.11 1.97,1.86 3.4,1.65 0.54,-0.06 1.04,0.31 1.11,0.84 0.07,0.54 -0.3,1.04 -0.84,1.11 -0.24,0.03 -0.48,0.05 -0.72,0.05z"/>
  <path class="fil1" d="M29.89 65.13c0,0 0,0 0,0 0,0 0,0 0,0zm-0.21 0.11c0,0 -0.01,0 -0.01,0 0,0 0.01,0 0.01,0zm-3.73 7.8c-0.37,0 -0.72,-0.21 -0.89,-0.56 -0.4,-0.82 -0.41,-1.77 -0.05,-2.73 0.78,-2.07 3.17,-3.87 4.63,-4.5 0.09,-0.05 0.24,-0.19 0.32,-0.27 0.22,-0.41 0.72,-0.62 1.18,-0.46 0.51,0.18 0.79,0.74 0.61,1.25 -0.19,0.56 -1,1.15 -1.31,1.28 -1.12,0.47 -3.05,1.95 -3.59,3.4 -0.18,0.45 -0.18,0.84 -0.02,1.18 0.24,0.49 0.03,1.07 -0.46,1.31 -0.13,0.07 -0.28,0.1 -0.42,0.1z"/>
  <path class="fil1" d="M60.6 85.33c-0.54,0 -0.98,-0.44 -0.98,-0.98 0,-0.55 0.44,-0.99 0.98,-0.99 2.38,0 4.97,-0.54 7.11,-1.49 1.69,-0.76 1.96,-1.03 2.75,-1.85 0.27,-0.27 0.57,-0.59 0.98,-0.98 1.37,-1.3 2.9,-3.54 3.06,-5.12 0.17,-1.74 0.09,-3.45 0,-5.27 -0.05,-0.96 -0.09,-1.94 -0.1,-2.92 -0.01,-0.74 -0.01,-1.52 -0.01,-2.22 0,-0.91 0,-1.85 -0.01,-2.07 -0.05,-0.36 0.1,-0.73 0.42,-0.95 0.45,-0.3 1.06,-0.18 1.36,0.27 0.19,0.27 0.19,0.27 0.2,2.75 0,0.69 0,1.47 0,2.2 0.01,0.95 0.06,1.91 0.1,2.84 0.09,1.81 0.18,3.68 -0.01,5.56 -0.21,2.17 -2.04,4.81 -3.65,6.35 -0.39,0.37 -0.68,0.67 -0.93,0.93 -0.94,0.97 -1.41,1.4 -3.36,2.27 -2.38,1.06 -5.26,1.67 -7.91,1.67z"/>
  <g>
   <path class="fil1" d="M48.37 95.11c-0.09,0 -0.19,0.02 -0.28,0.04 0.16,-0.05 0.33,-0.05 0.49,-0.01 -0.07,-0.02 -0.14,-0.03 -0.21,-0.03zm0.77 0.39l0 0 0 0zm-0.83 1.59c-0.57,0 -0.86,-0.55 -1.3,-1.38 -0.26,-0.5 -0.59,-1.13 -0.87,-1.68 -0.25,-0.49 -0.46,-0.9 -0.54,-1.04 -2.07,-2.82 -1.33,-10.99 -0.46,-13.71 0.17,-0.51 0.72,-0.8 1.24,-0.63 0.51,0.16 0.8,0.72 0.63,1.23 -0.83,2.58 -1.28,10.05 0.19,11.97 0.08,0.1 0.1,0.14 0.69,1.28 0.36,0.71 1.02,2 1.22,2.32 0.09,0.11 0.16,0.23 0.2,0.37 0.15,0.52 -0.14,1.06 -0.67,1.22 -0.12,0.03 -0.23,0.05 -0.33,0.05z"/>
  </g>
  <g>
   <path class="fil1" d="M31.8 99.24l0 0 0 0zm-0.98 0.98c-0.54,0 -0.98,-0.44 -0.98,-0.98 0,-0.55 0.34,-1.1 0.91,-1.94 0.13,-0.2 0.25,-0.37 0.31,-0.48 0.87,-1.6 7.56,-5.93 8.51,-6.45 2.37,-1.3 2.9,-2.2 3.42,-3.08 0.36,-0.61 0.77,-1.31 1.67,-2 0.44,-0.32 1.05,-0.24 1.38,0.19 0.33,0.43 0.24,1.05 -0.19,1.38 -0.59,0.45 -0.83,0.86 -1.17,1.43 -0.59,1 -1.32,2.25 -4.17,3.8 -1.69,0.93 -7.2,4.77 -7.72,5.67 -0.09,0.15 -0.24,0.38 -0.41,0.64 -0.17,0.24 -0.5,0.74 -0.58,0.94 -0.05,0.5 -0.47,0.88 -0.98,0.88z"/>
  </g>
  <path class="fil1" d="M50.21 109.16c-0.29,0 -0.57,-0.13 -0.76,-0.36l-0.11 -0.13c-0.06,-0.07 -0.1,-0.15 -0.14,-0.23 -0.47,-1.08 -1.32,-6.28 -1.6,-9.77 -0.14,-1.8 0.04,-5.23 0.52,-7.28 0.48,-2.04 1.77,-3.21 3.94,-3.57 0.87,-0.14 1.59,-0.18 2.22,-0.21 1.14,-0.05 2.04,-0.09 3.55,-0.74 1.81,-0.77 4.64,0.41 8.15,2.03 0.93,0.43 1.81,0.84 2.4,1.04 3.54,1.2 8.59,1.95 11.94,2.45 0.62,0.09 1.19,0.18 1.67,0.25 3.51,0.56 6.83,0.8 11.11,0.8 0.54,0 0.98,0.44 0.98,0.98 0,0.54 -0.44,0.98 -0.98,0.98 -4.38,0 -7.8,-0.24 -11.41,-0.82 -0.48,-0.07 -1.04,-0.16 -1.66,-0.25 -3.42,-0.51 -8.57,-1.28 -12.28,-2.53 -0.69,-0.23 -1.57,-0.64 -2.59,-1.12 -2.03,-0.93 -5.41,-2.49 -6.55,-2 -1.84,0.78 -3.01,0.84 -4.24,0.9 -0.6,0.03 -1.23,0.05 -1.99,0.18 -1.38,0.23 -2.05,0.83 -2.35,2.08 -0.38,1.63 -0.61,4.88 -0.47,6.67 0.28,3.6 1.08,8.08 1.4,9.03l0 0.01c0.35,0.42 0.29,1.04 -0.13,1.38 -0.18,0.15 -0.4,0.23 -0.62,0.23z"/>
  <path class="fil1" d="M92.72 93.18c-0.13,0 -0.26,-0.02 -0.38,-0.07 -0.25,-0.09 -2.03,-0.5 -2.41,-0.58 -1.07,-0.22 -2.21,-0.56 -3.31,-0.89 -1.14,-0.34 -2.23,-0.67 -3.08,-0.81 -1.03,-0.16 -2.24,-0.41 -3.53,-0.68 -4.97,-1.04 -11.78,-2.46 -15.42,-0.42 -0.48,0.27 -1.08,0.1 -1.34,-0.38 -0.27,-0.47 -0.1,-1.07 0.38,-1.33 4.28,-2.4 11.51,-0.89 16.78,0.2 1.27,0.27 2.46,0.52 3.44,0.68 0.99,0.16 2.13,0.5 3.34,0.86 1.05,0.32 2.15,0.65 3.13,0.85 0.02,0 2.34,0.5 2.77,0.68 0.5,0.21 0.74,0.79 0.53,1.29 -0.15,0.37 -0.52,0.6 -0.9,0.6z"/>
  <g>
   <path class="fil1" d="M70.67 86l0 0 0 0zm0 0c0,0 0,0 0,0 0,0 0,0 0,0zm0 0c0,0 0,0 0,0 0,0 0,0 0,0zm0 0c0,0 0,0 0.01,0 -0.01,0 -0.01,0 -0.01,0zm0.01 0c0.03,0.01 0.06,0.02 0.08,0.03 -0.02,-0.01 -0.05,-0.02 -0.08,-0.03zm0.08 0.03c0,0 0.01,0 0.01,0 0,0 -0.01,0 -0.01,0zm26.72 4.17c-0.22,0 -0.44,-0.07 -0.63,-0.22 -1.31,-1.09 -7.06,-2.38 -11.68,-3.42 -3.94,-0.89 -7.65,-1.73 -9.61,-2.55 -0.64,-0.27 -2.59,0.22 -3.2,0.47 -0.09,0.05 -0.18,0.09 -0.29,0.11 -0.32,0.07 -0.52,0.2 -0.66,0.44 -0.27,0.48 -0.21,1.18 -0.15,1.43 0.12,0.22 0.16,0.48 0.09,0.75 -0.14,0.52 -0.68,0.83 -1.2,0.68 -0.64,-0.17 -0.95,-0.88 -0.91,-2.1 0.06,-1.64 0.95,-2.79 2.38,-3.11 1.11,-0.52 3.51,-0.99 4.7,-0.48 1.8,0.75 5.6,1.61 9.28,2.44 6.54,1.47 10.95,2.54 12.51,3.82 0.41,0.35 0.47,0.97 0.13,1.39 -0.2,0.23 -0.48,0.35 -0.76,0.35z"/>
  </g>
  <path class="fil1" d="M31.96 108.13c-0.43,0 -0.82,-0.28 -0.95,-0.71 -0.15,-0.52 0.15,-1.07 0.67,-1.22 0.31,-0.12 2.48,-1.27 2.76,-1.45 1.03,-0.73 1.99,-1.45 2.92,-2.16 1.05,-0.79 2.13,-1.61 3.35,-2.45 1.42,-0.99 2.4,-1.88 3.44,-2.83 0.65,-0.6 1.33,-1.21 2.13,-1.87 0.42,-0.34 1.04,-0.27 1.39,0.15 0.34,0.42 0.27,1.04 -0.15,1.38 -0.76,0.62 -1.42,1.22 -2.05,1.79 -1.04,0.95 -2.11,1.93 -3.64,2.99 -1.19,0.82 -2.25,1.63 -3.28,2.41 -0.94,0.71 -1.92,1.45 -2.99,2.2 -0.28,0.2 -2.88,1.6 -3.33,1.73 -0.09,0.02 -0.18,0.04 -0.27,0.04z"/>
  <path class="fil1" d="M39.16 108.34c-0.25,0 -0.5,-0.09 -0.7,-0.29 -0.37,-0.37 -0.38,-0.98 -0.02,-1.36 0.17,-0.24 0.38,-0.32 0.53,-0.39 0.49,-0.22 2.55,-1.78 3.53,-2.53 0.4,-0.31 0.74,-0.57 0.96,-0.73 1.9,-1.39 2.22,-1.8 3.07,-2.88 0.29,-0.36 0.62,-0.79 1.08,-1.34 0.35,-0.41 0.97,-0.47 1.39,-0.12 0.41,0.35 0.47,0.97 0.12,1.39 -0.44,0.52 -0.77,0.94 -1.04,1.28 -0.92,1.17 -1.34,1.7 -3.46,3.26 -0.21,0.15 -0.54,0.4 -0.93,0.7 -1.75,1.34 -3.15,2.39 -3.84,2.73 0,0 0,0 0,0 -0.19,0.19 -0.44,0.28 -0.69,0.28z"/>
  <path class="fil1" d="M84.95 26.22c-2.01,0 -2.98,-1.71 -4.6,-4.54 -0.12,-0.22 -0.25,-0.46 -0.39,-0.7 -1.11,-1.99 -2.48,-4.47 -4.9,-5.63 -3.45,-1.66 -8.38,-1.3 -9.99,0.16 -0.89,0.81 -2.15,2.25 -2.8,3.68 -0.23,0.5 -0.81,0.71 -1.31,0.49 -0.49,-0.23 -0.71,-0.81 -0.48,-1.3 0.77,-1.7 2.2,-3.35 3.27,-4.32 2.38,-2.17 8.18,-2.4 12.16,-0.48 2.98,1.44 4.59,4.33 5.77,6.44 0.13,0.24 0.26,0.47 0.38,0.69 2.25,3.94 2.46,3.86 4.09,3.28 0.51,-0.19 1.07,0.08 1.26,0.59 0.18,0.51 -0.08,1.07 -0.59,1.26 -0.72,0.26 -1.33,0.38 -1.87,0.38z"/>
  <path class="fil2" d="M61.29 45.98c1.05,-0.05 1.94,0.76 1.99,1.8 0.05,1.05 -0.76,1.93 -1.81,1.98 -1.04,0.05 -1.93,-0.75 -1.98,-1.8 -0.05,-1.04 0.76,-1.93 1.8,-1.98z"/>
  <path class="fil2" d="M41.64 51.34c1.04,-0.05 1.93,0.76 1.98,1.8 0.05,1.05 -0.76,1.94 -1.8,1.99 -1.05,0.05 -1.94,-0.76 -1.99,-1.81 -0.05,-1.04 0.76,-1.93 1.81,-1.98z"/>
  <path class="fil1" d="M75.3 48.75c-0.51,0 -0.95,-0.4 -0.98,-0.92 -0.05,-0.74 -0.84,-2.26 -1.48,-3.48 -0.52,-0.99 -1,-1.92 -1.23,-2.65 -0.11,-0.26 -0.97,-1.73 -2.03,-3.3 -1.22,-1.82 -2.49,-3.79 -3.49,-5.96 -0.16,-0.36 -0.32,-0.8 -0.5,-1.31 -0.48,-1.36 -1.13,-3.23 -2.3,-4.12 -1.41,-1.07 -2.2,-0.95 -3.77,-0.7 -0.63,0.1 -1.34,0.21 -2.2,0.26 -1.77,0.1 -3.49,0.14 -4.22,0.14 -0.69,0 -1.46,-0.03 -2.2,-0.06 -1.25,-0.04 -2.53,-0.09 -3.52,-0.01 -2.77,0.21 -6.2,1.2 -7.53,3.34 -0.28,0.46 -0.89,0.6 -1.35,0.31 -0.46,-0.28 -0.6,-0.89 -0.32,-1.35 2.16,-3.48 7.48,-4.14 9.05,-4.26 1.1,-0.08 2.44,-0.04 3.74,0.01 0.74,0.02 1.47,0.05 2.13,0.05 0.68,0 2.4,-0.03 4.11,-0.13 0.76,-0.04 1.39,-0.14 2,-0.24 1.71,-0.27 3.19,-0.5 5.27,1.08 1.64,1.24 2.41,3.43 2.97,5.03 0.16,0.46 0.3,0.86 0.43,1.14 0.94,2.04 2.15,3.94 3.33,5.68 0.52,0.77 2.05,3.13 2.27,3.81 0.18,0.56 0.65,1.46 1.1,2.34 0.8,1.52 1.62,3.1 1.7,4.25 0.04,0.54 -0.37,1.01 -0.91,1.04 -0.03,0 -0.05,0.01 -0.07,0.01z"/>
  <path class="fil1" d="M47.46 57.89c-0.36,0 -0.65,-0.29 -0.65,-0.65 0,-3.38 -0.09,-4.36 -2.25,-6.59 -0.25,-0.25 -0.25,-0.67 0.01,-0.92 0.26,-0.25 0.68,-0.25 0.93,0.01 2.49,2.58 2.62,3.94 2.62,7.5 0,0.36 -0.29,0.65 -0.66,0.65z"/>
  <path class="fil1" d="M70.1 66.21c-0.04,0 -0.07,-0.01 -0.11,-0.01 -0.36,-0.06 -0.6,-0.4 -0.54,-0.76 0.66,-3.96 1.26,-7.03 2.4,-10.96 0.1,-0.34 0.47,-0.54 0.81,-0.44 0.35,0.1 0.55,0.46 0.45,0.81 -1.13,3.88 -1.7,6.79 -2.37,10.81 -0.05,0.32 -0.33,0.55 -0.64,0.55z"/>
  <path class="fil1" d="M66.41 49.39c-0.73,0 -1.61,-0.21 -2.02,-0.68 -0.24,-0.28 -0.22,-0.69 0.06,-0.93 0.27,-0.23 0.68,-0.21 0.92,0.06 0.2,0.19 1.13,0.31 1.39,0.21 0.32,-0.16 0.71,-0.03 0.88,0.29 0.16,0.32 0.03,0.72 -0.29,0.89 -0.22,0.11 -0.56,0.16 -0.94,0.16z"/>
  <path class="fil1" d="M36.79 57.8c-0.11,0 -0.22,-0.03 -0.32,-0.08 -0.3,-0.18 -0.42,-0.56 -0.25,-0.88 0.21,-0.37 1.36,-1.54 1.98,-1.7 0.35,-0.09 0.71,0.12 0.8,0.47 0.09,0.35 -0.11,0.7 -0.45,0.79 -0.26,0.12 -1.04,0.85 -1.18,1.08 -0.13,0.21 -0.35,0.32 -0.58,0.32z"/>
  <path class="fil1" d="M83.31 83.25c-0.42,0 -0.81,-0.27 -0.94,-0.69 -0.15,-0.52 0.14,-1.07 0.66,-1.23 2.19,-0.66 2.82,-4.08 3.16,-5.92 0.1,-0.54 0.61,-0.89 1.15,-0.79 0.53,0.1 0.88,0.61 0.78,1.14 -0.41,2.25 -1.18,6.44 -4.52,7.45 -0.1,0.03 -0.19,0.04 -0.29,0.04z"/>
  <path class="fil1" d="M79.28 81.62c-0.42,0 -0.81,-0.27 -0.94,-0.7 -0.15,-0.52 0.14,-1.07 0.66,-1.22 1.43,-0.44 2.89,-3.18 3.22,-4.8 0.12,-0.53 0.64,-0.87 1.17,-0.76 0.53,0.11 0.87,0.63 0.76,1.16 -0.44,2.1 -2.2,5.55 -4.58,6.28 -0.1,0.03 -0.19,0.04 -0.29,0.04z"/>
 </g>
</svg>
