<?xml version="1.0" encoding="UTF-8"?>
<!DOCTYPE svg PUBLIC "-//W3C//DTD SVG 1.1//EN" "http://www.w3.org/Graphics/SVG/1.1/DTD/svg11.dtd">
<!-- Creator: CorelDRAW 2018 (64-Bit) -->
<svg xmlns="http://www.w3.org/2000/svg" xml:space="preserve" width="845px" height="845px" version="1.1" style="shape-rendering:geometricPrecision; text-rendering:geometricPrecision; image-rendering:optimizeQuality; fill-rule:evenodd; clip-rule:evenodd"
viewBox="0 0 360.18 360.18"
 xmlns:xlink="http://www.w3.org/1999/xlink">
 <defs>
  <style type="text/css">
   <![CDATA[
    .fil0 {fill:none}
    .fil2 {fill:black}
    .fil1 {fill:black;fill-rule:nonzero}
   ]]>
  </style>
 </defs>
 <g id="Слой_x0020_1">
  <metadata id="CorelCorpID_0Corel-Layer"/>
  <rect class="fil0" width="360.18" height="360.18"/>
 </g>
 <g id="_1">
  <metadata id="CorelCorpID_1Corel-Layer"/>
  <path class="fil1" d="M210.15 157.98c-0.17,0 -0.34,-0.02 -0.51,-0.06 -1.07,-0.28 -1.72,-1.38 -1.44,-2.46 0.99,-3.78 2.77,-6.87 5.77,-10.04 3.85,-4.05 15.08,-12.64 20.94,-14.22 4.97,-1.34 10.22,-0.04 15.62,3.85 0.9,0.65 1.11,1.91 0.46,2.81 -0.65,0.9 -1.91,1.11 -2.81,0.46 -4.37,-3.15 -8.49,-4.23 -12.22,-3.23 -4.73,1.28 -15.23,9.07 -19.07,13.11 -2.54,2.68 -3.97,5.15 -4.79,8.28 -0.24,0.9 -1.05,1.5 -1.95,1.5z"/>
  <path class="fil1" d="M186.27 160c-0.96,0 -1.81,-0.7 -1.98,-1.68 -0.68,-2.26 -12.59,-10.1 -22.44,-12.6 -3.8,-0.97 -9.66,-0.05 -13.06,2.04 -3.96,2.43 -6.6,5.02 -7.14,5.69 -0.4,0.71 -1.21,1.14 -2.08,1.01 -1.1,-0.18 -1.85,-1.21 -1.67,-2.31 0.28,-1.79 5.78,-5.98 8.78,-7.82 4.34,-2.67 11.29,-3.75 16.16,-2.52 8.94,2.28 24.52,10.61 25.42,15.83 0.19,1.1 -0.55,2.14 -1.65,2.33 -0.11,0.02 -0.23,0.03 -0.34,0.03z"/>
  <path class="fil1" d="M218.75 162.89c-0.81,0 -1.63,-0.33 -2.22,-0.98 -1.13,-1.24 -1.05,-3.15 0.19,-4.27 0.67,-0.62 1.36,-1.53 2.07,-2.5l0.36 -0.46c3.14,-4.18 6.48,-6.29 11.92,-7.53 3.07,-0.7 8.35,-0.74 11.48,-0.38 1.85,0.22 3.82,0.85 4.66,1.12 1.5,0.48 3.86,2.04 4.43,4.39 0.38,1.56 -0.08,3.14 -1.28,4.35 -2.03,2.05 -6.01,4.18 -7.48,4.7 -1.57,0.55 -3.3,-0.27 -3.85,-1.84 -0.56,-1.58 0.27,-3.3 1.84,-3.86 0.64,-0.22 2.46,-1.19 3.88,-2.18 -0.81,-0.25 -1.94,-0.57 -2.9,-0.68 -2.58,-0.3 -7.17,-0.25 -9.44,0.27 -4.09,0.93 -6.14,2.21 -8.44,5.27l-0.34 0.45c-0.85,1.15 -1.74,2.33 -2.84,3.34 -0.58,0.53 -1.31,0.79 -2.04,0.79z"/>
  <path class="fil1" d="M156.11 176.09c-0.91,0 -3.52,-0.29 -4.57,-0.67 -5.64,-2.05 -8.21,-3.41 -8.52,-6 -0.29,-2.38 1.65,-3.67 2.7,-4.37 0.44,-0.29 0.95,-0.63 1.17,-0.91 6.29,-7.58 17.1,-6.44 22.99,-5.09 2.18,0.51 4.17,1.67 5.91,2.7 0.98,0.57 2.46,1.44 2.98,1.49 0.02,0 0.05,0 0.08,0 1.63,0 2.96,1.3 3,2.94 0.04,1.67 -1.29,3.05 -2.96,3.1 -2.12,0.06 -4.09,-1.11 -6.16,-2.32 -1.44,-0.85 -2.93,-1.72 -4.21,-2.02 -3.64,-0.84 -12.59,-2.22 -16.97,3.06 -0.21,0.25 -0.44,0.48 -0.66,0.7 0.69,0.28 1.58,0.63 2.72,1.04 0.34,0.09 2.01,0.31 2.5,0.31 1.66,0 3.02,1.35 3.02,3.02 0,1.67 -1.36,3.02 -3.02,3.02z"/>
  <path class="fil1" d="M211.26 214.04c-3.52,0 -6.34,-1.29 -8.63,-2.34 -1.67,-0.77 -3.09,-1.43 -4.38,-1.42l-0.29 0.01c-1.45,0.05 -4.48,0.15 -6.31,-1.98 -1.09,-1.26 -0.95,-3.17 0.32,-4.26 1.19,-1.02 2.97,-0.95 4.07,0.13 0.43,0.12 1.39,0.08 1.71,0.07l0.45 -0.01c0.03,0 0.06,0 0.09,0 2.57,0 4.75,1 6.86,1.97 2.12,0.97 4.12,1.88 6.48,1.78 2.18,-0.1 2.8,-0.82 4.15,-2.4 0.95,-1.1 2.13,-2.47 3.99,-3.62 0.48,-0.3 1.01,-0.49 1.51,-0.69 0.04,-0.01 0.09,-0.03 0.13,-0.04 -0.22,-1.19 0.24,-2.46 1.3,-3.14 1.39,-0.91 3.23,-0.58 4.13,0.82 1.23,1.89 1.11,3.46 0.79,4.44 -0.75,2.27 -2.91,3.09 -4.21,3.58 -0.2,0.07 -0.39,0.14 -0.54,0.21 -1,0.62 -1.7,1.44 -2.51,2.38 -1.64,1.91 -3.68,4.28 -8.47,4.5 -0.21,0.01 -0.43,0.01 -0.64,0.01z"/>
  <path class="fil1" d="M173.13 232.71c-0.37,0 -0.75,-0.1 -1.08,-0.32l-3.57 -2.27c-0.83,-0.53 -1.15,-1.58 -0.77,-2.48 0.84,-1.99 9.81,-20.01 15.34,-21.75 1.07,-0.34 2.19,0.26 2.53,1.32 0.33,1.06 -0.26,2.19 -1.32,2.52 -2.42,0.76 -9.2,11.79 -12.14,17.93l2.09 1.34c0.94,0.6 1.22,1.84 0.62,2.78 -0.39,0.6 -1.04,0.93 -1.7,0.93z"/>
  <path class="fil1" d="M235.32 220.88c0,0 0,0 0,0 0,0 0,0 0,0zm-46.26 14.95c-1.09,0 -2.33,-0.13 -3.74,-0.45 -1.63,-0.36 -2.66,-1.97 -2.3,-3.6 0.36,-1.63 1.97,-2.66 3.61,-2.29 3.32,0.73 4.38,0.11 6.47,-1.14 1.95,-1.17 4.38,-2.62 8.76,-3.21 1.65,-0.23 3.82,-0.08 5.91,0.06 1.15,0.08 2.26,0.16 3.18,0.16 2.44,0 3.87,-0.33 5.39,-0.87 2.37,-0.84 3.54,-1.54 4.48,-2.1 2.56,-1.54 3.97,-2.01 9.76,-1.23 2.28,0.31 4.36,-0.45 5.03,-0.89 0.72,-1.17 2.19,-1.73 3.54,-1.26 1.58,0.54 2.42,2.25 1.88,3.83 -1.09,3.19 -6.86,4.91 -11.26,4.31 -4.2,-0.57 -4.51,-0.38 -5.84,0.42 -1.05,0.63 -2.63,1.58 -5.59,2.62 -3.37,1.19 -6.33,1.35 -10.97,1.04 -1.71,-0.12 -3.65,-0.24 -4.69,-0.11 -3.16,0.43 -4.77,1.4 -6.48,2.42 -1.84,1.09 -3.85,2.29 -7.14,2.29z"/>
  <path class="fil1" d="M206 245.74c-3.65,0 -7.1,-0.66 -10.65,-1.99 -1.56,-0.59 -2.35,-2.33 -1.77,-3.89 0.59,-1.57 2.33,-2.35 3.89,-1.77 4.91,1.84 9.45,2.08 15.18,0.81 5.36,-1.2 9.64,-3.44 11.45,-5.98 0.97,-1.36 2.86,-1.68 4.22,-0.71 1.36,0.97 1.67,2.86 0.7,4.22 -3.68,5.17 -11.01,7.46 -15.06,8.36 -2.81,0.63 -5.43,0.95 -7.96,0.95z"/>
  <path class="fil1" d="M122.77 232.55c-1.3,0 -2.77,-0.19 -4.42,-0.64 -5.34,-1.47 -7.25,-6.42 -8.31,-10.57 -0.42,-1.61 0.55,-3.26 2.17,-3.68 1.61,-0.41 3.26,0.56 3.68,2.18 1,3.92 2.18,5.73 4.06,6.24 1.99,0.55 4.66,0.84 6.1,-0.86 1.34,-1.58 1.52,-4.69 0.41,-7.07 -0.4,-0.87 -1.3,-2.32 -2.79,-2.32 -1.67,0 -3.02,-1.35 -3.02,-3.02 0,-1.67 1.35,-3.02 3.02,-3.02 3.49,0 6.58,2.17 8.27,5.82 2.12,4.56 1.59,10.12 -1.28,13.51 -1.21,1.43 -3.66,3.43 -7.89,3.43z"/>
  <path class="fil1" d="M132.75 209.34l-2.3 0c-11.69,0 -19.2,-5.16 -21.71,-14.92 -1.21,-4.71 -4.15,-9.22 -6.74,-13.2 -2.98,-4.56 -5.55,-8.5 -5.59,-12.46 -0.02,-1.67 1.32,-3.04 2.99,-3.06 1.66,0.05 3.03,1.32 3.05,2.99 0.02,2.2 2.25,5.62 4.61,9.24 2.84,4.36 6.07,9.31 7.53,14.98 1.8,6.99 6.98,10.39 15.86,10.39l2.3 0c1.67,0 3.02,1.35 3.02,3.02 0,1.67 -1.35,3.02 -3.02,3.02z"/>
  <path class="fil1" d="M215.5 285.75c-0.7,0 -1.42,-0.02 -2.15,-0.06 -23.23,-1.17 -39.86,-6.99 -53.92,-18.88 -22.67,-19.16 -26.61,-34.49 -29.48,-45.68 -0.56,-2.17 -1.08,-4.21 -1.69,-6.09 -0.52,-1.59 0.35,-3.29 1.93,-3.81 1.6,-0.51 3.29,0.35 3.81,1.94 0.67,2.06 1.22,4.2 1.8,6.46 2.82,10.98 6.33,24.65 27.53,42.57 13.15,11.12 28.21,16.34 50.32,17.46 17.32,0.86 25.16,-10.52 33.61,-25.5 11.99,-21.23 13.17,-36.41 12.67,-49.65 -0.21,-5.41 -0.27,-10.58 -0.32,-15.58 -0.14,-12.67 -0.27,-24.65 -2.79,-38.06l-0.21 -1.13c-0.82,-4.35 -1.6,-8.45 -2.08,-12.28 -1.06,-8.49 -2.07,-14.61 -3.25,-19.82 -1.75,-7.71 -3.99,-13.94 -7.28,-20.2 -5.25,-9.98 -17.35,-16.21 -35.96,-18.5 -9.39,-1.16 -10.46,-0.37 -14.47,2.54 -2.05,1.5 -4.85,3.54 -9.44,5.95 -4.05,2.13 -7.2,3.84 -9.82,5.26 -11.33,6.16 -12.79,6.95 -31.65,11.38 -5.4,1.27 -8.06,1.9 -9.55,2.45 -6.66,2.45 -8.89,4.14 -11.11,6.78 -6.12,7.28 -5.56,8.5 -3.7,12.57 1.01,2.21 2.26,4.96 3.02,9.08 0.94,5.14 3.48,22.59 -3.44,31.6 -2.39,3.11 -5.6,4.85 -9.53,5.16 -5.54,0.44 -8.19,-0.74 -9.95,-1.53 -1.28,-0.57 -1.92,-0.86 -10.36,6.67 -1.25,1.11 -3.16,0.99 -4.26,-0.25 -1.11,-1.24 -1,-3.15 0.24,-4.26 9.75,-8.71 12.11,-9.78 16.84,-7.68 1.41,0.63 3.01,1.35 7.01,1.03 2.19,-0.17 3.89,-1.09 5.22,-2.82 4.3,-5.59 3.92,-17.95 2.29,-26.83 -0.63,-3.39 -1.66,-5.66 -2.57,-7.66 -2.79,-6.1 -3.2,-9.73 4.57,-18.97 3.22,-3.83 6.66,-5.99 13.64,-8.56 1.83,-0.67 4.47,-1.3 10.26,-2.66 18.07,-4.25 19.22,-4.87 30.15,-10.81 2.63,-1.43 5.81,-3.16 9.89,-5.3 4.2,-2.2 6.69,-4.02 8.69,-5.48 4.99,-3.63 7.46,-5.05 18.77,-3.66 20.69,2.55 34.34,9.85 40.57,21.69 3.54,6.74 5.95,13.43 7.82,21.67 1.23,5.42 2.26,11.71 3.36,20.41 0.45,3.64 1.21,7.66 2.01,11.91l0.22 1.13c2.62,13.94 2.75,26.17 2.89,39.12 0.06,4.96 0.11,10.09 0.31,15.41 0.34,8.83 1.04,27.21 -13.43,52.85 -8.52,15.09 -17.79,28.62 -37.03,28.62z"/>
  <path class="fil1" d="M127.34 244.4c-8.43,0 -14.16,-3.89 -18.66,-7.7 -4.13,-3.5 -8.77,-14.67 -8.79,-21.83 -1.97,-0.98 -3.95,-2.85 -5.98,-5.64 -7.23,-9.94 -8.84,-20.73 -10.26,-30.26 -0.96,-6.4 -1.78,-11.92 -4.14,-15.72 -1.79,-2.88 -2.35,-6.49 -1.49,-9.67 0.74,-2.71 2.47,-4.9 4.89,-6.17 9.24,-4.87 21.76,-12.8 23.91,-25.45 0.28,-1.65 1.83,-2.76 3.48,-2.47 1.64,0.27 2.75,1.83 2.47,3.48 -2.59,15.29 -16.68,24.32 -27.05,29.78 -0.94,0.5 -1.56,1.31 -1.86,2.41 -0.42,1.54 -0.11,3.47 0.78,4.9 3.02,4.86 3.97,11.25 4.98,18.02 1.32,8.84 2.82,18.86 9.17,27.6 2.84,3.9 4.3,3.95 4.36,3.95 0.94,0 1.83,0.44 2.4,1.19 0.57,0.74 0.76,1.72 0.51,2.63 -1.11,4.06 3.45,16.03 6.53,18.64 4.44,3.77 8.65,6.27 14.75,6.27 1.67,0 3.03,1.36 3.03,3.02 0,1.67 -1.36,3.02 -3.03,3.02z"/>
  <path class="fil1" d="M89.38 161.11c0,0.01 0,0.01 0,0.01 0,0 0,0 0,-0.01zm-2.78 1.84c-0.39,0 -0.79,-0.08 -1.18,-0.24 -1.54,-0.65 -2.25,-2.43 -1.6,-3.96 0.92,-2.15 6.6,-4.38 8.32,-5.02 7.44,-2.75 16.34,-8.28 16.92,-14.83 0.14,-1.66 1.6,-2.88 3.27,-2.74 1.66,0.15 2.89,1.61 2.75,3.28 -1.05,11.76 -16.22,18.25 -20.85,19.96 -0.77,0.29 -4.39,1.92 -5.4,2.57 -0.57,0.63 -1.39,0.98 -2.23,0.98z"/>
  <path class="fil1" d="M79.95 149.65c-1.56,0 -2.88,-1.2 -3.01,-2.78 -0.43,-5.41 -1.79,-7.67 -3.24,-10.05 -2.06,-3.42 -4.2,-6.96 -2.57,-17.07 1.01,-6.31 8.2,-13.14 10.38,-15.08 5.14,-4.58 16.01,-10.4 25.6,-15.54 3.81,-2.04 7.41,-3.97 9.91,-5.44 1.44,-0.85 3.29,-0.37 4.13,1.07 0.85,1.44 0.37,3.29 -1.06,4.14 -2.61,1.53 -6.26,3.49 -10.13,5.56 -8.83,4.73 -19.83,10.62 -24.43,14.72 -4.52,4.03 -7.99,8.77 -8.43,11.53 -1.28,7.93 0,10.05 1.77,12.98 1.58,2.62 3.55,5.87 4.09,12.7 0.13,1.67 -1.11,3.12 -2.77,3.25 -0.08,0.01 -0.16,0.01 -0.24,0.01z"/>
  <path class="fil1" d="M76.89 139.27c-0.04,0 -0.08,0 -0.12,0 -1.67,-0.07 -2.97,-1.47 -2.9,-3.14 0.12,-2.98 2.1,-6.71 3.74,-9.33 7.28,-11.58 16.24,-15.94 25.72,-20.56 0.99,-0.48 1.98,-0.97 2.99,-1.46 10.08,-5.01 16.84,-10.13 24.93,-18.91 1.14,-1.23 3.05,-1.3 4.27,-0.17 1.23,1.13 1.31,3.04 0.18,4.27 -8.65,9.37 -15.88,14.85 -26.7,20.22 -1.01,0.5 -2.03,1 -3.03,1.48 -9.06,4.41 -16.88,8.22 -23.24,18.35 -2.03,3.22 -2.79,5.44 -2.83,6.36 -0.06,1.62 -1.4,2.89 -3.01,2.89z"/>
  <path class="fil1" d="M267.55 195.95c-0.49,0 -0.99,-0.03 -1.52,-0.1 -1.66,-0.19 -2.84,-1.69 -2.65,-3.35 0.19,-1.65 1.69,-2.84 3.35,-2.65 3.32,0.4 4.4,-1.77 5.52,-11 0.3,-2.47 0.61,-5.02 1.19,-7.26 0.98,-3.77 1.15,-9.13 1.2,-13.88 0.03,-3.51 0,-6.17 -0.02,-8.27 -0.07,-8.27 0.03,-8.73 3.52,-16.53 0.6,-1.34 1.31,-2.91 2.14,-4.82 3.1,-7.09 1.21,-9.1 0.5,-9.86 -6.32,-6.76 -4.21,-12.92 -0.53,-20.88 5.73,-12.4 -10.32,-32.59 -18.95,-43.45 -0.77,-0.96 -1.49,-1.88 -2.15,-2.72 -5.05,-6.44 -14.12,-13.04 -26.23,-19.1 -14.46,-7.23 -31.9,-12.93 -44.44,-14.51 -10.83,-1.36 -22.93,0.29 -32.27,1.88 -19.93,3.38 -50.31,18.21 -55.48,40.58 -0.26,1.15 -0.17,1.77 -0.01,2.89 0.26,1.85 0.63,4.38 -0.62,9.52 -1.48,6.05 -5.33,8.17 -9.07,10.22 -1.72,0.94 -3.5,1.92 -5.33,3.38 -2.22,1.76 -3.36,3.89 -3.3,6.16 0.07,2.6 1.71,5.23 4.49,7.2 1.36,0.97 1.68,2.85 0.72,4.21 -0.97,1.36 -2.86,1.68 -4.22,0.72 -4.34,-3.08 -6.91,-7.44 -7.03,-11.97 -0.12,-4.17 1.86,-8.1 5.58,-11.05 2.23,-1.78 4.34,-2.93 6.19,-3.95 3.39,-1.86 5.25,-2.88 6.1,-6.35 0.97,-4.01 0.74,-5.64 0.51,-7.23 -0.2,-1.34 -0.41,-2.86 0.1,-5.11 5.46,-23.61 35.17,-40.9 60.35,-45.18 9.75,-1.66 22.44,-3.37 34.05,-1.91 13.16,1.66 31.36,7.58 46.38,15.09 9,4.51 21.22,11.76 28.28,20.78 0.66,0.84 1.37,1.74 2.13,2.69 10.1,12.71 26.99,33.97 19.71,49.74 -3.81,8.24 -3.9,10.63 -0.54,14.22 3.57,3.82 3.77,9.19 0.62,16.41 -0.85,1.93 -1.56,3.52 -2.17,4.87 -3.05,6.82 -3.05,6.82 -2.98,14.01 0.01,2.12 0.04,4.82 0.01,8.38 -0.05,5.11 -0.25,10.93 -1.39,15.33 -0.48,1.85 -0.75,4.1 -1.04,6.48 -0.8,6.58 -1.99,16.37 -10.7,16.37z"/>
  <path class="fil1" d="M262.6 189.24c-0.81,0 -1.63,-0.33 -2.22,-0.98 -1.13,-1.23 -1.05,-3.13 0.18,-4.27 1.08,-0.99 1.12,-4.82 1.15,-7.35 0.02,-1.8 0.04,-3.51 0.28,-5.03 0.35,-2.19 0.96,-4.47 1.56,-6.67 0.56,-2.09 1.14,-4.25 1.47,-6.27 0.9,-5.37 0.48,-9.87 -1.12,-12.04 -0.6,-0.81 -1.35,-1.25 -2.37,-1.38 -1.65,-0.22 -2.82,-1.74 -2.59,-3.4 0.22,-1.65 1.75,-2.8 3.39,-2.59 2.63,0.35 4.85,1.66 6.42,3.78 3.55,4.8 2.92,12.47 2.23,16.62 -0.38,2.31 -1,4.61 -1.6,6.85 -0.58,2.14 -1.12,4.17 -1.42,6.05 -0.18,1.09 -0.2,2.57 -0.21,4.15 -0.05,4.2 -0.1,8.97 -3.1,11.73 -0.58,0.53 -1.32,0.8 -2.05,0.8z"/>
  <path class="fil1" d="M267.36 212.27c-0.17,0 -0.33,-0.01 -0.5,-0.02 -1.66,-0.14 -2.89,-1.61 -2.75,-3.27 0.14,-1.6 1.52,-2.8 3.1,-2.76 1.34,-1.34 1.75,-8.75 0.23,-11.35 -0.85,-1.43 -0.37,-3.29 1.07,-4.13 1.44,-0.85 3.29,-0.36 4.14,1.07 2.27,3.87 2.58,13.02 -0.21,17.44 -1.22,1.94 -3.05,3.02 -5.08,3.02z"/>
  <path class="fil1" d="M128.04 89.8c-6.41,0 -12.51,-1.44 -17.89,-2.7 -4.34,-1.03 -8.44,-2 -11.87,-2 -1.67,0 -3.02,-1.35 -3.02,-3.02 0,-1.67 1.35,-3.02 3.02,-3.02 4.13,0 8.56,1.05 13.26,2.15 5.3,1.26 10.79,2.55 16.5,2.55 17.96,0 26.01,-5 36.2,-11.33 5.61,-3.49 11.97,-7.45 20.75,-10.97 6.99,-2.8 13.39,-4.31 19.54,-4.62 1.65,-0.07 3.08,1.2 3.17,2.87 0.08,1.67 -1.21,3.08 -2.87,3.17 -5.48,0.27 -11.23,1.64 -17.59,4.19 -8.29,3.33 -14.15,6.97 -19.81,10.49 -10.57,6.57 -19.7,12.24 -39.39,12.24z"/>
  <path class="fil1" d="M116.23 73.47c-1.65,0 -3.27,-0.01 -4.86,-0.03 -1.58,-0.01 -3.13,-0.02 -4.66,-0.02 -1.67,0 -3.02,-1.35 -3.02,-3.02 0,-1.67 1.35,-3.02 3.02,-3.02 1.54,0 3.11,0.01 4.7,0.02 10.43,0.08 21.2,0.16 30.53,-2.88 6.66,-2.18 11.44,-5.63 16.5,-9.29 7.9,-5.71 16.07,-11.62 31.69,-13.09 10.05,-0.95 19.07,0.47 28.37,4.48 3.34,1.44 6.42,3 9.4,4.51 5.95,3.01 11.58,5.86 18.26,7.23 1.63,0.33 2.68,1.93 2.35,3.57 -0.34,1.63 -1.94,2.69 -3.57,2.35 -7.47,-1.54 -13.44,-4.56 -19.76,-7.76 -2.91,-1.47 -5.91,-2.99 -9.08,-4.36 -8.32,-3.58 -16.4,-4.86 -25.4,-4.01 -13.98,1.32 -21.14,6.5 -28.73,11.98 -5.21,3.77 -10.59,7.66 -18.16,10.13 -8.69,2.84 -18.48,3.21 -27.58,3.21z"/>
  <path class="fil1" d="M108.5 64.99c-1.67,0 -3.03,-1.35 -3.03,-3.02 0,-1.67 1.36,-3.02 3.03,-3.02 3.36,0 6.54,-1.59 9.91,-3.28 0.64,-0.32 1.28,-0.64 1.93,-0.95 5.67,-2.75 11.84,-7.41 18.37,-12.34 4.86,-3.66 9.88,-7.45 14.88,-10.56 11.51,-7.16 48.31,-15.67 57.7,-3.49 1.02,1.32 0.77,3.22 -0.55,4.24 -1.32,1.02 -3.22,0.77 -4.24,-0.55 -6.31,-8.19 -39.22,-1.6 -49.72,4.93 -4.77,2.96 -9.68,6.67 -14.43,10.25 -6.77,5.12 -13.17,9.95 -19.38,12.96 -0.63,0.3 -1.25,0.61 -1.86,0.91 -3.85,1.93 -7.82,3.92 -12.61,3.92z"/>
  <path class="fil1" d="M268.09 95.97c-1.66,0 -3.02,-1.36 -3.02,-3.02 0,-18.25 -4.74,-27.47 -18.79,-36.55 -4.42,-2.86 -9.31,-5.66 -12.16,-7.2 -4.58,-2.46 -10.29,-5.06 -12.73,-5.31 -1.66,-0.18 -2.86,-1.67 -2.69,-3.33 0.18,-1.65 1.66,-2.87 3.32,-2.68 4.27,0.45 11.88,4.35 14.96,6.01 1.07,0.57 6.68,3.62 12.58,7.43 15.71,10.16 21.55,21.44 21.55,41.63 0,1.66 -1.35,3.02 -3.02,3.02z"/>
  <g>
   <path class="fil1" d="M115.22 268.23l0.02 0 -0.02 0zm81.8 84.31c0,0.01 0,0.01 0,0.01 0,0 0,0 0,-0.01zm0 0.01l0 0zm2.92 2.28c-0.51,0 -1.02,-0.13 -1.48,-0.39 -0.57,-0.32 -1.02,-0.83 -1.28,-1.42 -2.01,-3.3 -27.5,-34.46 -33.39,-40.51 -1.42,-1.46 -18.14,-17.34 -32.45,-29.15 -4.52,-3.73 -10.68,-8.11 -17.35,-12.34 -0.62,-0.39 -1.77,-1.12 -1.79,-2.76 -0.01,-0.98 0.46,-1.9 1.25,-2.48 3.33,-2.41 6.18,-7 9.2,-11.87 3.99,-6.45 8.52,-13.76 15.44,-17.63 1.46,-0.81 3.3,-0.29 4.11,1.16 0.81,1.46 0.29,3.3 -1.16,4.11 -5.55,3.11 -9.47,9.43 -13.26,15.54 -2.46,3.97 -4.81,7.77 -7.6,10.74 5.78,3.77 10.92,7.5 15,10.87 14.49,11.95 31.49,28.11 32.94,29.6 2.88,2.95 26.3,30.62 32.99,39.94 9.78,-3.5 18.92,-10.2 27.22,-19.95 1.41,-1.66 2.97,-3.18 5.07,-4.92 1.29,-1.06 3.19,-0.89 4.26,0.4 1.06,1.28 0.88,3.19 -0.4,4.25 -2.33,1.93 -3.54,3.25 -4.33,4.18 -9.63,11.32 -20.43,18.89 -32.09,22.49 -0.3,0.09 -0.6,0.14 -0.9,0.14z"/>
  </g>
  <path class="fil1" d="M264.39 341.27c-3.57,0 -10.12,-2.83 -25.57,-12.26 -0.93,-0.56 -1.56,-0.95 -1.81,-1.08 -2.08,-1.03 -4.23,-2.03 -6.33,-3.01 -1.94,-0.91 -3.85,-1.8 -5.68,-2.69 -10.01,-4.89 -27.89,-18.31 -40.71,-30.55 -0.27,-0.26 -27.46,-26.43 -27.95,-28.2 -0.45,-1.6 0.48,-3.27 2.09,-3.72 1.19,-0.33 2.42,0.1 3.15,0.99 1.62,1.72 24.19,23.98 26.89,26.56 12.23,11.68 29.81,24.91 39.19,29.49 1.79,0.88 3.67,1.76 5.57,2.64 2.15,1.01 4.33,2.03 6.49,3.09 0.23,0.11 1.04,0.59 2.24,1.33 13.11,7.99 18.68,10.44 21.04,11.13 1.13,-15.55 -1.61,-19.26 -7.32,-27.03 -2.31,-3.13 -5.18,-7.03 -8.36,-12.45 -2,-3.41 -1.99,-9.06 -1.98,-15.61 0,-4.9 0.01,-10.45 -1.1,-13.39 -0.38,-0.99 -0.38,-1.8 -0.31,-2.38l-0.02 -0.02c-1.15,-1.21 -1.09,-3.13 0.12,-4.27 1.21,-1.14 3.12,-1.09 4.27,0.12 1.53,1.62 2.03,2.99 1.69,4.68 1.41,3.97 1.4,9.71 1.39,15.26 -0.01,4.95 -0.01,10.56 1.15,12.56 3.03,5.14 5.68,8.74 8.01,11.92 6.46,8.78 10.02,13.61 8.32,33.09 -0.13,1.46 -0.93,2.66 -2.2,3.3 -0.62,0.31 -1.35,0.5 -2.27,0.5z"/>
  <path class="fil1" d="M236.38 310.34c-0.24,0 -0.49,-0.04 -0.73,-0.13l-1.14 -0.45c-7.53,-2.89 -23.18,-8.92 -35.99,-26.38 -0.66,-0.9 -0.47,-2.16 0.43,-2.82 0.89,-0.66 2.16,-0.46 2.81,0.44 12.11,16.51 27.03,22.25 34.19,25.01l1.16 0.44c1.04,0.41 1.55,1.58 1.15,2.61 -0.31,0.8 -1.07,1.28 -1.88,1.28z"/>
  <path class="fil1" d="M304.43 318.82c-1.04,0 -2.04,-0.53 -2.61,-1.48 -1.93,-3.28 -7.63,-7.7 -13.15,-11.97 -4.01,-3.11 -8.17,-6.33 -11.14,-9.33 -1.84,-1.86 -3.78,-3.85 -5.76,-5.88 -7.83,-8.03 -20.92,-21.47 -24.44,-21.72 -1.67,0.2 -3.11,-0.98 -3.32,-2.64 -0.19,-1.65 1.03,-3.16 2.69,-3.36 5.23,-0.63 13.35,7.05 29.39,23.5 1.97,2.02 3.9,4 5.73,5.85 2.69,2.72 6.69,5.81 10.55,8.81 6.24,4.83 12.13,9.39 14.66,13.67 0.84,1.43 0.37,3.29 -1.07,4.13 -0.48,0.29 -1.01,0.42 -1.53,0.42z"/>
  <g>
   <path class="fil1" d="M296.1 274.09c0,0 0,0 0,0.01 0,-0.01 0,-0.01 0,-0.01zm0 0.01l0 0 0 0zm2.81 1.9c-0.61,0 -1.2,-0.18 -1.7,-0.52 -5,-1.7 -38.19,-5.39 -42.07,-4.17 -1.56,0.61 -3.29,-0.16 -3.91,-1.71 -0.61,-1.55 0.17,-3.31 1.73,-3.92 2.66,-1.05 11.23,-0.77 25.47,0.84 22.17,2.51 22.64,3.7 23.29,5.35 0.61,1.56 -0.15,3.31 -1.7,3.92 -0.37,0.15 -0.74,0.21 -1.11,0.21z"/>
  </g>
  <path class="fil1" d="M51 330.24c-0.36,0 -0.73,-0.06 -1.08,-0.2 -1.57,-0.59 -2.34,-2.36 -1.75,-3.92 1.11,-2.95 9.93,-12.6 18.16,-19.85 7.22,-6.37 15.15,-12.45 20.93,-16.89 3.44,-2.64 6.16,-4.72 7.46,-5.89l3.92 -3.51c6.23,-5.56 12.11,-10.8 14.16,-13.56 0.99,-1.34 2.89,-1.61 4.23,-0.62 1.33,1 1.61,2.89 0.62,4.23 -2.42,3.25 -8.24,8.44 -14.99,14.46l-3.9 3.49c-1.48,1.33 -4.28,3.47 -7.82,6.2 -5.72,4.38 -13.54,10.38 -20.61,16.62 -8.78,7.74 -15.79,15.96 -16.54,17.51 -0.45,1.21 -1.58,1.93 -2.79,1.93z"/>
  <path class="fil1" d="M130.88 65.15c-1.67,0 -3.03,-1.35 -3.03,-3.02 0,-1.67 1.36,-3.02 3.03,-3.02 1.33,0 2.76,-0.62 4.36,-1.38 6.55,-3.08 11.14,-6.57 15.57,-9.93 7.22,-5.49 14.03,-10.67 27.68,-13.46 7.39,-1.5 12.57,-1.51 15.42,-0.03 1.48,0.77 2.05,2.6 1.28,4.08 -0.78,1.48 -2.6,2.05 -4.08,1.28 -0.82,-0.43 -4.27,-0.86 -11.41,0.59 -12.3,2.51 -18.29,7.07 -25.23,12.35 -4.69,3.55 -9.53,7.24 -16.66,10.59 -2.1,0.99 -4.36,1.95 -6.93,1.95z"/>
  <path class="fil1" d="M265 124.35c-0.04,0 -0.08,0 -0.13,0 -1.67,-0.07 -2.96,-1.48 -2.89,-3.14 0.55,-12.69 -6.04,-28.82 -16,-39.22 -4.88,-5.09 -12.83,-11.16 -22.99,-11.16 -1.67,0 -3.02,-1.35 -3.02,-3.02 0,-1.67 1.35,-3.02 3.02,-3.02 9.73,0 19.19,4.5 27.35,13.02 11.02,11.5 18.29,29.45 17.68,43.65 -0.07,1.63 -1.41,2.89 -3.02,2.89z"/>
  <path class="fil2" d="M163.92 161.97c2.62,0 4.74,2.12 4.74,4.74 0,2.62 -2.12,4.74 -4.74,4.74 -2.62,0 -4.74,-2.12 -4.74,-4.74 0,-2.62 2.12,-4.74 4.74,-4.74z"/>
  <path class="fil2" d="M231.67 150.74c2.62,0 4.74,2.12 4.74,4.74 0,2.62 -2.12,4.74 -4.74,4.74 -2.62,0 -4.74,-2.12 -4.74,-4.74 0,-2.62 2.12,-4.74 4.74,-4.74z"/>
  <path class="fil1" d="M123.37 189.53c-0.74,0 -1.48,-0.27 -2.06,-0.8 -2.31,-2.13 -3.64,-7.25 -5.56,-15.43 -0.79,-3.41 -1.62,-6.93 -2.28,-8.42 -0.69,-1.52 -0.01,-3.31 1.51,-3.99 1.53,-0.69 3.32,-0.01 4,1.51 0.9,2.02 1.72,5.5 2.66,9.52 0.91,3.88 2.6,11.11 3.78,12.38 1.23,1.13 1.3,3.03 0.16,4.26 -0.59,0.64 -1.4,0.97 -2.21,0.97z"/>
  <path class="fil1" d="M216.08 188.61c-0.61,0 -1.22,-0.28 -1.61,-0.81 -5.95,-7.94 -6.25,-15.66 -6.56,-23.84 -0.05,-1.11 0.82,-2.04 1.93,-2.08 1.16,-0.1 2.05,0.82 2.09,1.93 0.35,9.08 0.81,14.98 5.76,21.58 0.67,0.89 0.49,2.15 -0.4,2.81 -0.36,0.28 -0.79,0.41 -1.21,0.41z"/>
  <path class="fil1" d="M248.65 307.9c-1.65,0 -3,-1.32 -3.02,-2.98l-0.29 -25.13c-0.02,-1.67 1.32,-3.04 2.98,-3.06l0.04 0c1.65,0 3,1.33 3.02,2.99l0.29 25.13c0.02,1.67 -1.31,3.03 -2.98,3.05l-0.04 0z"/>
  <path class="fil1" d="M281.41 337.1c-0.62,0 -1.26,-0.19 -1.8,-0.6 -1.34,-0.99 -1.62,-2.88 -0.62,-4.22 1.7,-2.29 3.79,-3.97 5.64,-5.44 2,-1.61 3.73,-2.99 3.94,-4.37 1.05,-6.86 -5.63,-20.81 -8.58,-24.14 -1.11,-1.25 -0.99,-3.16 0.26,-4.27 1.25,-1.1 3.16,-0.99 4.26,0.26 3.67,4.14 11.45,19.8 10.03,29.06 -0.57,3.71 -3.4,5.98 -6.14,8.17 -1.63,1.31 -3.32,2.66 -4.56,4.33 -0.59,0.8 -1.5,1.22 -2.43,1.22z"/>
 </g>
</svg>
