<?xml version="1.0" encoding="UTF-8"?>
<!DOCTYPE svg PUBLIC "-//W3C//DTD SVG 1.1//EN" "http://www.w3.org/Graphics/SVG/1.1/DTD/svg11.dtd">
<!-- Creator: CorelDRAW 2018 (64-Bit) -->
<svg xmlns="http://www.w3.org/2000/svg" xml:space="preserve" width="845px" height="845px" version="1.1" style="shape-rendering:geometricPrecision; text-rendering:geometricPrecision; image-rendering:optimizeQuality; fill-rule:evenodd; clip-rule:evenodd"
viewBox="0 0 360.18 360.18"
 xmlns:xlink="http://www.w3.org/1999/xlink">
 <defs>
  <style type="text/css">
   <![CDATA[
    .fil0 {fill:none}
    .fil2 {fill:black}
    .fil1 {fill:black;fill-rule:nonzero}
   ]]>
  </style>
 </defs>
 <g id="Слой_x0020_1">
  <metadata id="CorelCorpID_0Corel-Layer"/>
  <rect class="fil0" width="360.18" height="360.18"/>
 </g>
 <g id="_1">
  <metadata id="CorelCorpID_1Corel-Layer"/>
  <path class="fil1" d="M85.38 81.63c-0.53,0 -1.05,-0.21 -1.45,-0.62 -0.77,-0.79 -0.75,-2.07 0.05,-2.84 1.39,-1.34 3.03,-6.26 4.48,-10.6 1.22,-3.66 2.49,-7.45 3.88,-10.13 2.5,-4.84 5.97,-9.7 14.34,-12.47 8.62,-2.86 17.44,-1.16 24.17,4.65 6.86,5.91 10.16,15.03 8.63,23.78 -0.19,1.1 -1.22,1.83 -2.33,1.64 -1.09,-0.19 -1.82,-1.24 -1.63,-2.33 1.28,-7.37 -1.51,-15.05 -7.3,-20.04 -5.63,-4.87 -13.02,-6.28 -20.28,-3.88 -7.35,2.44 -10.06,6.7 -12.03,10.5 -1.24,2.4 -2.46,6.04 -3.63,9.55 -1.83,5.48 -3.4,10.2 -5.5,12.23 -0.39,0.37 -0.9,0.56 -1.4,0.56z"/>
  <path class="fil1" d="M85.64 94.63c-0.66,0 -1.3,-0.04 -1.9,-0.13 -1.66,-0.22 -2.81,-1.75 -2.58,-3.4 0.22,-1.65 1.75,-2.82 3.4,-2.58 0.74,0.1 7.29,0.76 11.26,-6.95 0.76,-1.48 1.38,-3.16 2.03,-4.94 1.32,-3.57 2.67,-7.27 5.48,-10.07 2.21,-2.22 5.59,-3.78 9.5,-4.4 6.49,-1.02 12.44,0.97 16.3,5.46 3.73,4.34 4.85,10.43 2.99,16.3 -0.5,1.59 -2.2,2.47 -3.79,1.97 -1.59,-0.51 -2.47,-2.2 -1.97,-3.79 1.24,-3.92 0.59,-7.76 -1.81,-10.54 -2.46,-2.87 -6.39,-4.12 -10.77,-3.43 -2.63,0.42 -4.88,1.4 -6.18,2.7 -1.86,1.86 -2.94,4.79 -4.08,7.89 -0.68,1.87 -1.39,3.81 -2.33,5.62 -3.95,7.66 -10.46,10.29 -15.55,10.29z"/>
  <path class="fil1" d="M82.79 121.27c-2.87,0 -6.87,-0.37 -9.84,-2.07l-0.71 -0.4c-3.46,-1.89 -6.6,-3.84 -7.11,-6.78 -0.28,-1.65 0.83,-3.21 2.47,-3.49 1.59,-0.26 3.05,0.72 3.44,2.22 0.6,0.83 3.22,2.27 4.1,2.75 0.32,0.17 0.6,0.33 0.83,0.46 1.62,0.94 4.79,1.4 8.26,1.23 9.25,-0.47 13.99,-5.06 14.5,-14.04 0.46,-8.03 4.05,-15.38 9.15,-18.72 2.85,-1.87 5.98,-2.32 8.82,-1.28 3.44,1.26 4.86,2.95 7.23,8.57 0.65,1.53 -0.07,3.31 -1.61,3.96 -1.54,0.65 -3.31,-0.08 -3.95,-1.61 -1.94,-4.58 -2.4,-4.75 -3.75,-5.25 -1.03,-0.38 -2.18,-0.16 -3.42,0.66 -2.92,1.91 -6.03,6.98 -6.43,14.01 -0.69,12.1 -7.88,19.1 -20.23,19.73 -0.51,0.03 -1.1,0.05 -1.75,0.05z"/>
  <path class="fil1" d="M86.5 170.2c-1.08,0 -2.22,-0.08 -3.41,-0.24 -1.92,-0.27 -3.55,-1.64 -4.36,-2.74 -1,-1.33 -0.72,-3.23 0.62,-4.22 1.34,-0.99 3.23,-0.72 4.22,0.62 0.1,0.13 0.36,0.34 0.49,0.39 10.89,1.49 14.62,-6.47 17.35,-20.73 0.08,-0.4 0.16,-0.87 0.26,-1.41 1.32,-7.41 4.42,-24.79 15.96,-23.04 1.65,0.25 2.79,1.79 2.54,3.44 -0.25,1.64 -1.78,2.79 -3.44,2.53 -5.75,-0.86 -8.28,13.43 -9.12,18.13 -0.1,0.57 -0.19,1.07 -0.27,1.49 -1.63,8.56 -4.93,25.78 -20.84,25.78z"/>
  <path class="fil1" d="M76.05 145.69c-6.75,0 -11.24,-2.79 -12.41,-7.78 -0.39,-1.63 0.62,-3.25 2.24,-3.64 1.63,-0.38 3.25,0.63 3.64,2.25 0.71,3.03 5.1,3.24 7.68,3.1 9.4,-0.54 10.82,-3 14.26,-8.94 1.15,-1.99 2.46,-4.24 4.27,-6.77 6.34,-8.86 11.9,-12.68 17.01,-11.67 1.64,0.33 2.71,1.92 2.38,3.55 -0.32,1.64 -1.92,2.7 -3.54,2.38 -0.9,-0.18 -4.3,-0.02 -10.93,9.25 -1.65,2.3 -2.88,4.42 -3.96,6.29 -3.78,6.51 -6.5,11.21 -19.15,11.94 -0.51,0.03 -1,0.04 -1.49,0.04z"/>
  <path class="fil1" d="M96.32 189.1c-2.3,0 -4.44,-0.76 -6.26,-2.26 -0.86,-0.72 -0.97,-1.98 -0.27,-2.84 0.72,-0.86 1.98,-0.98 2.84,-0.27 2.35,1.95 5.12,1.4 7.02,0.6 5.07,-2.14 10.71,-9.07 11.36,-16.97 0.09,-1.16 0.16,-2.34 0.23,-3.51 0.34,-5.87 0.69,-11.95 4.42,-16.9 0.67,-0.89 1.93,-1.07 2.82,-0.4 0.89,0.67 1.07,1.93 0.4,2.82 -3,3.98 -3.3,9.2 -3.62,14.72 -0.07,1.2 -0.14,2.4 -0.24,3.6 -0.7,8.58 -6.64,17.33 -13.81,20.36 -1.67,0.7 -3.32,1.05 -4.89,1.05z"/>
  <path class="fil1" d="M174.05 73.37c-1.08,0 -2.13,-0.59 -2.67,-1.62 -3.37,-6.39 -7.12,-21.08 -7.99,-25.95 -0.28,-1.58 -0.54,-3.13 -0.81,-4.66 -0.5,-2.92 -1,-5.81 -1.59,-8.88 -0.31,-1.64 0.76,-3.22 2.4,-3.53 1.64,-0.32 3.22,0.75 3.54,2.39 0.59,3.1 1.1,6.04 1.61,8.99 0.26,1.53 0.52,3.07 0.8,4.64 0.83,4.68 4.48,18.68 7.38,24.19 0.78,1.47 0.21,3.3 -1.26,4.08 -0.45,0.23 -0.93,0.35 -1.41,0.35z"/>
  <path class="fil1" d="M160.49 67.56c-0.9,0 -1.71,-0.6 -1.95,-1.5 -0.61,-2.36 -1.04,-4.35 -1.41,-6.11 -1.1,-5.13 -1.88,-8.84 -6.58,-16.89 -0.56,-0.96 -0.24,-2.2 0.72,-2.76 0.96,-0.56 2.19,-0.24 2.75,0.73 5.03,8.61 5.92,12.79 7.04,18.09 0.39,1.79 0.78,3.65 1.38,5.91 0.28,1.08 -0.36,2.18 -1.44,2.46 -0.17,0.05 -0.34,0.07 -0.51,0.07z"/>
  <path class="fil1" d="M147.15 71.5c-1.35,0 -2.57,-0.9 -2.93,-2.26l-0.7 -2.76c-4.67,-18.44 -9.83,-33.45 -25.79,-30.37 -1.54,0.3 -3.1,0.97 -4.23,1.46 -0.48,0.2 -0.89,0.37 -1.19,0.48 -1.56,0.58 -3.3,-0.23 -3.87,-1.8 -0.57,-1.57 0.24,-3.3 1.81,-3.87 0.22,-0.08 0.51,-0.21 0.86,-0.36 1.32,-0.57 3.3,-1.42 5.47,-1.84 22.88,-4.42 29.08,20.14 32.8,34.82l0.69 2.72c0.42,1.62 -0.55,3.27 -2.16,3.68 -0.26,0.07 -0.51,0.1 -0.76,0.1z"/>
  <path class="fil1" d="M184.23 66.43c-0.14,0 -0.28,-0.01 -0.42,-0.03 -6.32,-0.87 -8.78,-24.78 -8.78,-25.02 0,-1.67 1.36,-3.02 3.02,-3.02 1.67,0 3.03,1.35 3.03,3.02 0,2.34 2.83,16.58 4.6,19.38 1.06,0.59 1.71,1.78 1.54,3.06 -0.21,1.51 -1.51,2.61 -2.99,2.61z"/>
  <g>
   <path class="fil1" d="M192.87 25.61l0 0 0 0zm0 0l0 0zm-3.01 3.29c-1.55,0 -2.87,-1.18 -3.01,-2.75 -0.05,-0.58 0.06,-1.04 0.19,-1.59l0.06 -0.28c0.02,-0.11 2.08,-12.57 6.55,-15.12 1.45,-0.83 3.3,-0.32 4.12,1.12 0.81,1.42 0.35,3.21 -1.03,4.06 -1.16,1.15 -3.11,7.25 -3.67,10.89 -0.03,0.16 -0.09,0.43 -0.15,0.71l-0.05 0.22c-0.13,1.42 -1.27,2.59 -2.74,2.73 -0.09,0 -0.18,0.01 -0.27,0.01z"/>
  </g>
  <path class="fil1" d="M194.27 64.89c-0.73,0 -1.43,-0.4 -1.79,-1.09 -2.94,-5.68 -3.93,-18.5 -3.93,-23.47 0,-1.11 0.9,-2.02 2.02,-2.02 1.11,0 2.01,0.91 2.01,2.02 0,6.09 1.24,17.29 3.48,21.62 0.51,0.99 0.12,2.21 -0.87,2.72 -0.29,0.15 -0.61,0.22 -0.92,0.22z"/>
  <path class="fil1" d="M211.71 67.66c-0.69,0 -1.38,-0.23 -1.95,-0.71 -4.99,-4.21 -7.33,-21.17 -7.68,-31.55 -0.3,-8.76 0.34,-20.16 5.06,-24.73 1.2,-1.16 3.12,-1.13 4.27,0.07 1.16,1.2 1.13,3.11 -0.07,4.27 -1.74,1.69 -3.64,8 -3.22,20.19 0.48,14.11 3.6,25.5 5.54,27.13 1.27,1.08 1.43,2.98 0.36,4.26 -0.6,0.71 -1.45,1.07 -2.31,1.07z"/>
  <g>
   <path class="fil1" d="M225.25 65.02c0.02,0.02 0.04,0.04 0.06,0.06 -0.02,-0.03 -0.04,-0.04 -0.06,-0.06zm0.12 0.14l0.02 0 -0.02 0zm-2.21 5.28c-0.08,0 -0.15,0 -0.23,-0.01 -1.22,-0.09 -2.22,-0.88 -2.61,-1.95 -4.06,-5.88 -4.58,-14.38 -4.58,-21.15 0,-3.21 0.27,-4.82 0.51,-6.24 0.16,-0.97 0.3,-1.81 0.37,-3.2 0.08,-1.67 1.42,-2.96 3.17,-2.87 1.66,0.08 2.95,1.5 2.87,3.16 -0.09,1.75 -0.28,2.9 -0.46,3.91 -0.21,1.3 -0.42,2.53 -0.42,5.24 0,5.46 0.37,13.24 3.56,17.78 0.09,0.1 0.19,0.22 0.26,0.32 0.68,0.94 0.6,1.89 0.58,2.2 -0.13,1.58 -1.46,2.81 -3.02,2.81z"/>
  </g>
  <path class="fil1" d="M236.03 76.29c-0.92,0 -1.82,-0.41 -2.42,-1.19 -2.34,-3.1 -2.94,-10.17 -0.22,-14.63 1.95,-3.19 5.35,-4.62 9.33,-3.93 1.82,0.32 3.48,1.46 5.58,2.9 3.92,2.69 9.37,6.41 18.02,6.23 0.84,-0.06 1.95,-0.02 3.03,1.06 1.18,1.18 1.18,3.1 0,4.27 -0.86,0.85 -2.08,1.09 -3.15,0.72 -10.57,0.07 -17.28,-4.52 -21.32,-7.3 -1.12,-0.78 -2.66,-1.83 -3.19,-1.93 -1.95,-0.33 -2.66,0.34 -3.14,1.13 -1.5,2.46 -0.84,6.87 -0.12,7.83 1.01,1.33 0.74,3.23 -0.59,4.23 -0.54,0.41 -1.18,0.61 -1.81,0.61z"/>
  <path class="fil1" d="M271.26 91.62l-4.18 0c-4.91,0 -8.27,-0.53 -11.24,-1.01 -3.95,-0.63 -7.06,-1.13 -12.76,-0.09 -1.64,0.3 -3.21,-0.79 -3.51,-2.43 -0.3,-1.65 0.79,-3.22 2.43,-3.52 6.71,-1.21 10.63,-0.59 14.8,0.08 2.87,0.46 5.84,0.93 10.28,0.93l4.18 0c1.67,0 3.02,1.35 3.02,3.02 0,1.67 -1.35,3.02 -3.02,3.02z"/>
  <path class="fil1" d="M272.32 128.45c-0.18,0 -0.37,-0.02 -0.57,-0.06 -4.37,-0.83 -10.72,-5.24 -12.81,-8.89 -2.65,-4.65 -13.22,-15.02 -16.59,-15.02 -0.06,0 -0.11,0 -0.16,0 -1.62,0 -2.96,-1.28 -3.02,-2.92 -0.05,-1.66 1.25,-3.06 2.92,-3.11 7.76,-0.28 20.08,14.53 22.1,18.05 1.21,2.12 6.09,5.46 8.7,5.96 1.63,0.31 2.71,1.89 2.4,3.53 -0.28,1.45 -1.54,2.46 -2.97,2.46z"/>
  <path class="fil1" d="M145.7 162.35c-0.11,0 -0.22,0 -0.33,-0.01 -1.67,-0.15 -2.89,-1.61 -2.75,-3.27 0.11,-1.31 1.03,-2.34 2.23,-2.66 0.75,-0.43 2.66,-1.87 3.61,-2.59 0.8,-0.6 1.47,-1.11 1.81,-1.33 7.95,-5.23 15.53,-6 24.59,-2.51 1.56,0.6 2.33,2.35 1.73,3.91 -0.6,1.56 -2.35,2.33 -3.9,1.73 -6.13,-2.36 -11.72,-2.94 -19.1,1.92 -0.28,0.18 -0.83,0.6 -1.49,1.1 -3.87,2.92 -5.06,3.71 -6.4,3.71z"/>
  <path class="fil1" d="M208.93 152.54c-1.31,0 -2.51,-0.85 -2.9,-2.17 -0.47,-1.6 0.44,-3.28 2.04,-3.75 0.51,-0.15 1.46,-0.95 2.37,-1.72 1.69,-1.43 4.01,-3.39 7.48,-4.93 6.12,-2.73 9.52,-2.15 13.12,-1.54 1.46,0.25 2.98,0.51 4.88,0.59 1.67,0.07 2.96,1.48 2.89,3.15 -0.07,1.66 -1.47,2.96 -3.15,2.88 -2.28,-0.1 -4.06,-0.4 -5.63,-0.66 -3.24,-0.55 -5.21,-0.88 -9.65,1.1 -2.69,1.19 -4.47,2.7 -6.04,4.02 -1.46,1.23 -2.83,2.4 -4.56,2.9 -0.28,0.09 -0.57,0.13 -0.85,0.13z"/>
  <path class="fil1" d="M251.27 134.54c0.01,0 0.01,0 0.01,0 0,0 0,0 -0.01,0zm-120.08 19.02c-0.85,0 -1.7,-0.36 -2.29,-1.05 -1.09,-1.27 -0.95,-3.17 0.31,-4.26 2.19,-1.88 7.92,-4.45 13.05,-5.86 14.07,-3.85 24.5,-4.03 37.22,-0.66 0.69,0.18 1.45,0.4 2.27,0.64 2.63,0.76 5.9,1.71 8.2,1.71 4.53,0 6.49,-1.24 10.4,-3.72l0.94 -0.6c9.27,-5.83 19.2,-9.18 31.25,-10.51 0.2,-0.02 19.45,-1.96 22.59,0.64 1.28,1.06 1.46,2.96 0.4,4.25 -0.95,1.14 -2.54,1.41 -3.79,0.72 -2.48,-0.59 -15.33,0.04 -18.53,0.4 -11.11,1.23 -20.23,4.28 -28.7,9.62l-0.92 0.58c-4.11,2.6 -7.36,4.66 -13.64,4.66 -3.16,0 -6.89,-1.08 -9.89,-1.95 -0.76,-0.22 -1.48,-0.43 -2.13,-0.6 -11.59,-3.07 -21.14,-2.89 -34.07,0.65 -5.15,1.41 -9.7,3.75 -10.7,4.61 -0.57,0.49 -1.28,0.73 -1.97,0.73z"/>
  <path class="fil1" d="M137.95 156.68c-0.17,0 -0.34,-0.01 -0.52,-0.04 -0.46,-0.06 -1.16,-0.2 -1.93,-0.36 -0.76,-0.15 -1.59,-0.32 -2.22,-0.4 -0.66,-0.08 -2.1,-0.35 -4.39,-0.78 -1.7,-0.31 -3.5,-0.65 -4.54,-0.81 -2.06,-0.33 -3.47,-2.26 -3.14,-4.32 0.33,-2.06 2.27,-3.48 4.32,-3.14 1.08,0.17 2.96,0.52 4.74,0.85 1.55,0.29 3.48,0.65 3.95,0.7 0.79,0.1 1.84,0.31 2.78,0.5 0.58,0.12 1.11,0.23 1.45,0.28 2.07,0.28 3.52,2.19 3.24,4.25 -0.26,1.9 -1.88,3.27 -3.74,3.27z"/>
  <path class="fil1" d="M223.02 170.84c-2.55,0 -5.22,-0.38 -7.96,-1.16 -8.43,-2.41 -17.73,-9.18 -14.14,-27.74 0.21,-1.09 1.28,-1.81 2.36,-1.6 1.09,0.22 1.81,1.27 1.59,2.36 -2.45,12.68 1.25,20.23 11.3,23.11 10.68,3.04 20.02,-1.13 24.98,-11.18 3.31,-6.72 5.49,-15.85 -3.03,-21.1 -0.95,-0.59 -1.24,-1.83 -0.65,-2.77 0.58,-0.95 1.82,-1.24 2.77,-0.66 8.65,5.34 10.26,14.69 4.52,26.32 -4.62,9.36 -12.45,14.42 -21.74,14.42z"/>
  <path class="fil1" d="M164.61 179.61c-7.79,0 -14.98,-3.63 -20.08,-10.27 -2.95,-3.84 -7.43,-11.99 -4.27,-23.36 0.3,-1.07 1.42,-1.7 2.48,-1.4 1.07,0.29 1.7,1.4 1.4,2.47 -2.56,9.21 0.54,15.87 3.59,19.84 4.92,6.4 12.07,9.5 19.69,8.51 6.58,-0.86 11.96,-4.18 14.75,-9.1 2.59,-4.56 2.71,-10.07 0.34,-15.52 -0.54,-1.26 -1.21,-2.62 -2.06,-4.17 -0.53,-0.98 -0.17,-2.2 0.81,-2.73 0.97,-0.53 2.19,-0.17 2.73,0.81 0.9,1.65 1.63,3.12 2.22,4.49 2.88,6.63 2.69,13.42 -0.54,19.11 -3.42,6.03 -9.88,10.08 -17.73,11.1 -1.12,0.15 -2.23,0.22 -3.33,0.22z"/>
  <path class="fil1" d="M207.65 132.78c-0.94,0 -1.78,-0.67 -1.97,-1.62 -0.22,-1.1 0.49,-2.16 1.58,-2.37 0.7,-0.14 2.3,-0.89 3.98,-1.69 6,-2.82 16.04,-7.54 24.87,-4.26 1.04,0.39 1.57,1.55 1.18,2.59 -0.39,1.04 -1.54,1.58 -2.59,1.19 -7.24,-2.7 -16.32,1.58 -21.74,4.13 -2.16,1.02 -3.73,1.75 -4.91,1.99 -0.14,0.02 -0.27,0.04 -0.4,0.04z"/>
  <path class="fil1" d="M140.09 143.08c-0.58,0 -1.16,-0.25 -1.55,-0.73 -0.71,-0.86 -0.6,-2.12 0.26,-2.83 0.94,-0.78 2.84,-1.56 5.23,-2.51 0.54,-0.21 0.98,-0.38 1.23,-0.49 0.22,-0.15 0.48,-0.26 0.75,-0.31 10.27,-1.92 11.59,-1.9 20.27,-1.91l1.29 0c1.11,0 2.01,0.9 2.01,2.01 0,1.11 -0.9,2.02 -2.01,2.02l-1.29 0c-8.46,-0.03 -9.6,-0.01 -19.21,1.78 -0.37,0.18 -0.87,0.38 -1.56,0.65 -1.08,0.42 -3.6,1.42 -4.14,1.86 -0.38,0.31 -0.83,0.46 -1.28,0.46z"/>
  <path class="fil1" d="M272.86 188.8c-2.51,0 -5.21,-0.69 -7.86,-2.05 -5.79,-2.99 -9.62,-8.39 -9.74,-13.75 -0.03,-1.21 -0.05,-2.37 -0.07,-3.52 -0.11,-6.31 -0.21,-11.76 -1.39,-17.79 -0.31,-1.56 -0.95,-3.42 -1.62,-5.39 -0.65,-1.93 -1.33,-3.92 -1.75,-5.81 -0.95,-4.26 -3.11,-9.61 -5.4,-15.28 -4.82,-11.9 -10.28,-25.39 -6.73,-35.02 0.41,-1.13 0.22,-2.45 -0.59,-4.04 -3.55,-6.98 -17.08,-15.01 -23.06,-16.72 -1.61,-0.45 -2.54,-2.12 -2.08,-3.73 0.45,-1.6 2.13,-2.53 3.73,-2.08 6.64,1.89 22.11,10.59 26.79,19.79 1.6,3.13 1.89,6.11 0.88,8.87 -2.74,7.44 2.25,19.78 6.65,30.66 2.39,5.91 4.65,11.49 5.7,16.24 0.35,1.56 0.98,3.4 1.58,5.17 0.71,2.07 1.44,4.21 1.82,6.18 1.29,6.55 1.39,12.25 1.51,18.85l0.07 3.48c0.07,3.13 2.67,6.56 6.47,8.52 3.15,1.62 6.31,1.82 8.24,0.52 2.07,-1.4 2.99,-4.74 2.62,-9.42 -0.54,-0.77 -2.28,-2.49 -3.84,-2.7 -0.5,-0.06 -0.95,0.03 -1.54,0.67 -0.28,0.31 -0.63,0.56 -1.01,0.73l-0.74 0.32c-1.53,0.67 -3.31,-0.03 -3.98,-1.56 -0.67,-1.52 0.03,-3.31 1.56,-3.97l0.21 -0.1c2.18,-2.04 5.04,-2.66 7.95,-1.69 3.47,1.16 7.12,4.77 7.37,7.28 0.88,9.25 -2.35,13.5 -5.21,15.44 -1.87,1.27 -4.12,1.9 -6.54,1.9z"/>
  <path class="fil1" d="M110.27 197.03c-3.47,0 -6.75,-1.27 -9.04,-2.16 -3.15,-1.22 -21.07,-11.36 -20.72,-19.57 0.13,-3.26 -2.02,-8.87 -6.08,-15.8 -1.88,-3.21 -3.36,-5.61 -4.56,-7.54 -2.93,-4.72 -4.39,-7.09 -5.65,-11.84l-0.2 -0.77c-1.24,-4.61 -3.31,-12.34 -1.45,-23.14 2.01,-11.58 4.86,-13.65 7.13,-14.16 0.95,-0.2 2.63,-0.25 4.3,1.32 2.04,-0.12 2.97,-1.14 3.55,-2.06 2.98,-4.71 1.1,-15.19 -0.16,-17.33 -4.17,-7.13 -0.96,-15.85 1.83,-21.78l1.47 -3.16c5.21,-11.24 6.79,-14.64 19.16,-24.54 15.92,-12.75 19.41,-13.41 25.2,-13.61 2.79,-0.1 6.27,-0.22 14,-3.22 2.63,-1.02 5.43,-2.38 8.56,-4.15 5.24,-2.97 27.12,-5.25 32.62,-5.28 4.48,-0.02 9.07,0.11 12.4,0.21 1.71,0.06 3.05,0.1 3.81,0.1 20.26,0 31.42,8.03 38.08,12.82 2.33,1.68 4.53,3.26 5.72,3.41 4.81,0.61 9.53,6.58 14.77,13.75 0.88,1.2 1.96,2.68 2.42,3.19 10.18,5.46 11.69,12.9 12.59,17.36 0.21,1.05 0.53,2.64 0.84,3 -0.01,-0.01 0.16,0.03 0.49,0.03 2.22,0 5.54,1.05 8.71,6.05 4.49,7.1 7.49,20.81 4.47,27.19 -1.77,3.73 0.75,7.81 4.79,13.6 2.87,4.13 5.59,8.02 5.49,12.12 -0.21,8.1 1.19,12.95 2.31,16.84 1.69,5.9 3.03,10.55 -2.52,19.68 -3.38,5.56 -8.75,8.42 -13.93,11.18 -0.74,0.4 -1.49,0.8 -2.23,1.2 -1.46,0.81 -3.3,0.27 -4.1,-1.19 -0.81,-1.47 -0.27,-3.3 1.19,-4.1 0.77,-0.42 1.53,-0.83 2.3,-1.24 4.67,-2.49 9.08,-4.85 11.61,-8.99 4.17,-6.87 3.4,-9.54 1.87,-14.87 -1.17,-4.06 -2.77,-9.63 -2.54,-18.67 0.05,-2.11 -2.22,-5.36 -4.41,-8.5 -3.87,-5.55 -8.69,-12.47 -5.29,-19.65 1.68,-3.55 -0.08,-14.99 -4.12,-21.37 -1.51,-2.39 -2.85,-3.24 -3.6,-3.24 -5.66,0 -6.62,-4.74 -7.25,-7.87 -0.83,-4.11 -1.87,-9.22 -9.75,-13.36 -1.07,-0.56 -1.87,-1.6 -4.22,-4.83 -2.2,-3 -8.03,-10.99 -10.64,-11.32 -2.73,-0.34 -5.27,-2.17 -8.5,-4.5 -6.46,-4.65 -16.23,-11.68 -34.55,-11.68 -0.8,0 -2.2,-0.04 -3.99,-0.1 -3.29,-0.1 -7.78,-0.22 -12.19,-0.21 -6.19,0.03 -26.14,2.5 -29.67,4.5 -3.39,1.91 -6.45,3.39 -9.35,4.52 -8.69,3.38 -12.9,3.52 -15.98,3.63 -4.23,0.15 -6.57,0.23 -21.63,12.29 -11.27,9.01 -12.34,11.31 -17.46,22.36l-1.48 3.18c-3.46,7.37 -4.14,12.66 -2.08,16.17 2.2,3.76 4.5,16.57 0.05,23.61 -1.56,2.47 -4.64,5.33 -10.32,4.83 -0.55,-0.05 -1.07,-0.25 -1.51,-0.56 -0.63,1.31 -1.52,3.9 -2.3,8.43 -1.64,9.49 0.14,16.14 1.32,20.55l0.22 0.79c1.02,3.88 2.08,5.6 4.93,10.19 1.22,1.97 2.73,4.41 4.65,7.68 4.76,8.15 7.09,14.58 6.89,19.11 -0.09,2.76 11.14,11.45 16.88,13.68 6.75,2.62 9.6,2.31 12.18,-1.3 0.9,-1.26 0.79,-1.66 0.44,-2.99 -0.86,-3.27 -1.09,-6.64 5.44,-11.88 1.11,-0.89 3.11,-5.78 -2.25,-32.03 -0.23,-1.11 -0.42,-2.04 -0.56,-2.75 -0.27,-1.43 -0.58,-2.95 -0.9,-4.54 -2.76,-13.57 -6.54,-32.17 2.44,-42.82 3.83,-4.54 5.45,-7.6 6.75,-10.07 3.19,-6.04 5.12,-8.75 20.94,-15.4 12.06,-5.08 18.67,-1.25 23.05,1.29 3.78,2.19 4.35,2.52 7.62,-2.17 5.09,-7.3 31.13,-2.56 31.39,-2.51 3.33,0.67 5.5,1.21 6.44,1.61 1.54,0.63 2.27,2.4 1.64,3.94 -0.64,1.54 -2.41,2.28 -3.95,1.64 -0.36,-0.15 -2.08,-0.61 -5.33,-1.27 -10.41,-2.1 -23.49,-1.72 -25.27,0.09 -5.92,8.51 -10.56,6.8 -15.57,3.9 -3.93,-2.28 -8.39,-4.86 -17.68,-0.96 -14.46,6.09 -15.48,8.01 -17.94,12.67 -1.36,2.57 -3.22,6.1 -7.47,11.14 -7.1,8.41 -3.65,25.35 -1.14,37.72 0.33,1.62 0.64,3.16 0.92,4.61 0.13,0.69 0.32,1.6 0.54,2.67 4.01,19.63 5.56,33.6 0.11,37.96 -4.01,3.21 -3.76,4.17 -3.37,5.62 0.47,1.79 1.18,4.48 -1.37,8.04 -3.07,4.28 -6.76,5.58 -10.25,5.58z"/>
  <path class="fil1" d="M125.33 207.26c-7.25,0 -14.56,-6.69 -15.59,-11.25 -0.37,-1.63 0.65,-3.25 2.28,-3.62 1.62,-0.37 3.24,0.65 3.61,2.28 0.38,1.69 5.38,6.72 9.93,6.54 1.4,-0.06 3.73,-1.23 4.25,-1.97 0.96,-1.37 2.84,-1.7 4.21,-0.73 1.37,0.96 1.69,2.84 0.73,4.2 -1.8,2.57 -6.07,4.41 -8.93,4.54 -0.16,0 -0.33,0.01 -0.49,0.01z"/>
  <path class="fil1" d="M136.29 224.17c-13.19,0 -14.3,-8.56 -14.3,-16.59 0,-1.67 1.36,-3.02 3.03,-3.02 1.67,0 3.02,1.35 3.02,3.02 0,8.68 1.46,10.55 8.25,10.55 1.67,0 3.02,1.35 3.02,3.02 0,1.67 -1.35,3.02 -3.02,3.02z"/>
  <path class="fil1" d="M260.47 186.82l-0.01 0.01c0,-0.01 0.01,-0.01 0.01,-0.01zm-61.66 79.55c-2.3,0 -4.66,-0.1 -7.05,-0.32 -12.4,-1.12 -18.43,-4.28 -26.52,-10.48 -1,-0.77 -2.22,-1.63 -3.52,-2.56 -3.7,-2.62 -8.3,-5.88 -11.12,-9.21 -16.24,-19.19 -17.89,-29.49 -19.63,-40.39 -1.05,-6.57 -2.13,-13.37 -6.74,-22.88 -0.72,-1.5 -0.09,-3.31 1.41,-4.03 1.5,-0.72 3.31,-0.1 4.03,1.4 4.99,10.31 6.2,17.88 7.27,24.56 1.67,10.48 3.12,19.53 18.27,37.44 2.32,2.74 6.58,5.76 10,8.18 1.38,0.98 2.66,1.88 3.71,2.69 7.29,5.6 12.4,8.27 23.38,9.26 9.28,0.84 17.79,-0.08 24.63,-2.66 8.98,-3.39 22.42,-17.75 27.55,-27.38 3.33,-6.24 5.77,-15.83 7.48,-29.33 1.61,-12.7 2.69,-17.49 5.54,-19.1l0.23 -0.13c0.59,-0.34 1.33,-0.76 2.22,-1.04 1.58,-0.51 3.29,0.37 3.79,1.96 0.51,1.59 -0.37,3.29 -1.96,3.8 -0.27,0.08 -0.63,0.29 -1.02,0.5 -1.19,2 -2.35,11.24 -2.8,14.77 -1.81,14.24 -4.47,24.52 -8.15,31.41 -5.18,9.71 -19.38,25.9 -30.75,30.19 -5.87,2.22 -12.78,3.35 -20.25,3.35z"/>
  <path class="fil1" d="M170.64 225.21c-1.07,0 -1.95,-0.84 -2.01,-1.91 -0.05,-0.95 -0.13,-1.86 -0.21,-2.73 -0.23,-2.48 -0.44,-4.81 0.15,-7.09 0.8,-3.04 2.32,-6.4 4.06,-8.99 1.02,-1.52 2.58,-5.92 3.96,-9.8 2.49,-7.01 3.56,-9.75 4.91,-10.74 0.89,-0.66 2.16,-0.46 2.81,0.44 0.63,0.87 0.48,2.07 -0.34,2.74 -0.74,0.91 -2.45,5.71 -3.58,8.91 -1.6,4.5 -3.11,8.76 -4.41,10.69 -1.77,2.64 -2.98,5.74 -3.51,7.78 -0.42,1.59 -0.24,3.49 -0.04,5.69 0.08,0.93 0.17,1.89 0.22,2.89 0.06,1.11 -0.79,2.06 -1.9,2.11 -0.04,0.01 -0.07,0.01 -0.11,0.01z"/>
  <path class="fil1" d="M235.77 210.58c-0.09,0 -0.19,-0.01 -0.28,-0.02 -1.1,-0.16 -1.87,-1.18 -1.71,-2.28 0.37,-2.64 -1.29,-6.45 -3.1,-9.06 -4.6,-6.6 -12.83,-15.06 -17.2,-18.96 -0.83,-0.74 -0.9,-2.01 -0.16,-2.84 0.74,-0.83 2.01,-0.9 2.84,-0.16 4.52,4.03 13.04,12.79 17.82,19.66 0.76,1.09 4.52,6.79 3.78,11.93 -0.14,1 -1,1.73 -1.99,1.73z"/>
  <path class="fil1" d="M200.87 202.29c-2.7,0 -4.26,-1.16 -5.48,-2.07 -0.74,-0.54 -1.32,-0.98 -2.22,-1.26 -0.78,-0.25 -1.36,-0.05 -2.69,0.53 -1.66,0.73 -4.15,1.81 -7.07,0.19 -6.56,-3.64 -5.31,-9.46 -4.48,-13.31l0.09 -0.43c0.35,-1.63 1.95,-2.68 3.58,-2.33 1.64,0.35 2.68,1.95 2.33,3.59l-0.09 0.44c-0.91,4.22 -0.88,5.44 1.5,6.76 0.22,0.12 0.31,0.17 1.71,-0.44 1.57,-0.69 3.93,-1.73 6.96,-0.76 1.86,0.59 3.08,1.51 3.98,2.17 1.25,0.93 1.55,1.15 3.53,0.62 0.88,-0.24 2.21,-2.15 2.77,-2.97 1.7,-2.46 2.57,-3.55 5.3,-3.64 0.43,-0.01 0.92,-0.02 1.71,-0.16 0.63,-0.12 1.42,-0.29 2.4,-0.55 0.28,-0.08 0.95,-0.26 1.08,-0.53 0.05,-0.1 0.42,-1.04 -0.83,-3.8 -0.68,-1.52 -0.01,-3.31 1.51,-4 1.52,-0.69 3.31,-0.01 4,1.51 1.64,3.62 1.89,6.53 0.78,8.87 -1.33,2.81 -4.08,3.54 -4.98,3.79 -1.07,0.28 -2.05,0.5 -2.91,0.66 -1.06,0.18 -1.82,0.23 -2.35,0.24 -0.26,0.35 -0.58,0.82 -0.74,1.04 -1.18,1.71 -3.15,4.56 -6.18,5.38 -1.22,0.32 -2.28,0.46 -3.21,0.46z"/>
  <g>
   <path class="fil1" d="M224.41 206.3c0,0 0,0 0,0.01 0,-0.01 0,-0.01 0,-0.01zm0 0.01l-0.01 0 0.01 0zm-45.13 15.75c-1.22,0 -2.37,-0.75 -2.82,-1.96 -0.59,-1.56 0.19,-3.3 1.75,-3.89 1.59,-0.6 3.21,-1.31 4.93,-2.05 5.27,-2.3 10.72,-4.66 16.58,-4.66 4.3,0 6.71,-1 9.27,-2.05 2.47,-1.01 5.02,-2.06 8.73,-1.92 0.15,0.01 0.48,0.03 0.95,0.06 4.27,0.28 5.95,0.28 6.58,0.23 1.18,-0.45 2.56,-0.13 3.4,0.89 1.07,1.29 0.89,3.19 -0.4,4.25 -1.17,0.98 -2.46,1.16 -9.98,0.66 -0.38,-0.03 -0.66,-0.05 -0.78,-0.05 -2.38,-0.1 -4,0.56 -6.2,1.47 -2.71,1.11 -6.08,2.5 -11.57,2.5 -4.6,0 -9.46,2.11 -14.17,4.16 -1.71,0.74 -3.48,1.51 -5.2,2.16 -0.35,0.13 -0.71,0.2 -1.07,0.2z"/>
  </g>
  <path class="fil1" d="M201.82 229.53c-4.81,0 -9.69,-0.78 -14.11,-2.04 -1.61,-0.45 -2.54,-2.12 -2.08,-3.73 0.45,-1.61 2.13,-2.53 3.73,-2.08 10.1,2.87 24.08,3.11 30.2,-5.65 0.96,-1.37 2.84,-1.7 4.21,-0.75 1.37,0.96 1.7,2.84 0.74,4.21 -5.14,7.36 -13.8,10.04 -22.69,10.04z"/>
  <path class="fil1" d="M237.58 323.82c-0.19,0 -0.38,-0.02 -0.57,-0.05 -1.64,-0.32 -2.72,-1.9 -2.4,-3.54 0.61,-3.17 1.53,-7.98 1.64,-9.12 0.98,-10.25 0.57,-19.83 0.13,-29.98 -0.45,-10.63 -0.92,-21.62 0.25,-33.86 0.19,-1.93 0.48,-4.3 1.21,-7.21 0.41,-1.61 2.04,-2.6 3.67,-2.19 1.62,0.41 2.6,2.05 2.19,3.67 -0.63,2.51 -0.89,4.6 -1.05,6.31 -1.14,11.82 -0.68,22.6 -0.23,33.02 0.44,10.36 0.86,20.15 -0.16,30.81 -0.13,1.33 -0.82,5.01 -1.72,9.69 -0.28,1.45 -1.54,2.45 -2.96,2.45z"/>
  <path class="fil1" d="M224.31 317.88c-0.03,0.01 -0.06,0.03 -0.09,0.04 0.03,-0.01 0.06,-0.03 0.09,-0.04zm-87.05 -91.59c-0.76,1.56 -1.63,3.32 -2.57,5.2 -3.98,8.01 -14.55,29.26 -12.01,33.27 11.8,18.54 20.81,28.8 31.26,40.68 5.06,5.77 10.3,11.72 16.24,19.08 4.83,5.99 8.74,10.99 11.89,15.01 3.7,4.73 7.01,8.96 8.94,11.01 2.94,-2.8 10.8,-10.49 30.69,-30.37 -0.52,-0.51 -1.25,-1.21 -2.3,-2.14 -3.64,-3.25 -7.88,-6.96 -12.46,-10.96 -18.21,-15.94 -40.89,-35.77 -53.59,-50.66 -7.24,-8.49 -15.31,-20.95 -16.09,-30.12zm53.85 131.22c-0.42,0 -0.84,-0.08 -1.23,-0.26 -2.49,-1.12 -5.44,-4.89 -12.57,-14 -3.14,-4 -7.03,-8.99 -11.83,-14.93 -5.86,-7.26 -11.06,-13.17 -16.08,-18.89 -10.17,-11.57 -19.77,-22.49 -31.82,-41.43 -4.05,-6.38 2.6,-20.89 11.7,-39.2 1.82,-3.65 3.38,-6.8 4.23,-8.81 0.64,-1.54 2.4,-2.27 3.95,-1.63 1.09,0.46 1.78,1.49 1.85,2.6 0.39,-0.14 0.82,-0.19 1.25,-0.14 1.66,0.16 2.87,1.64 2.71,3.3 -0.58,5.89 5.45,17.56 14.67,28.37 12.43,14.56 34.91,34.22 52.98,50.03 4.59,4.02 8.85,7.74 12.5,11 4.23,3.77 5.58,5.38 5.21,7.47 -0.14,0.82 -0.58,1.53 -1.23,2.03l-1.28 1.28c-31.6,31.58 -32.78,32.35 -33.35,32.72 -0.5,0.33 -1.08,0.49 -1.66,0.49z"/>
  <path class="fil1" d="M238.93 356.03c-1.13,0 -2.22,-0.64 -2.73,-1.73 -5.23,-11.12 -4.31,-21.79 2.54,-29.28 5.49,-6.01 15.91,-0.07 25.1,5.17 2.71,1.54 6.54,3.73 8.67,4.48 -0.01,-0.06 -0.01,-0.11 -0.01,-0.17 -0.24,-6.99 -0.48,-13.59 -0.89,-19.47 -2.44,-35.08 -10.89,-46.48 -31.33,-74.02 -0.99,-1.34 -0.71,-3.23 0.63,-4.22 1.34,-1 3.23,-0.72 4.22,0.62 20.56,27.71 29.95,40.36 32.51,77.2 0.41,5.98 0.65,12.64 0.9,19.69 0.02,0.57 0.03,1.13 0.02,1.65 -0.04,2.68 -1.48,3.9 -2.34,4.39 -3.37,1.93 -8.14,-0.78 -15.37,-4.9 -5.39,-3.07 -15.43,-8.79 -17.65,-6.35 -7.26,7.94 -3.49,18.48 -1.54,22.64 0.71,1.5 0.07,3.3 -1.44,4.01 -0.42,0.2 -0.86,0.29 -1.29,0.29z"/>
  <g>
   <path class="fil1" d="M71.98 289.36l0 0 0 0zm0.51 6c-1.44,0 -2.72,-1.04 -2.97,-2.51 -0.25,-1.45 0.58,-2.84 1.92,-3.34 3.52,-1.83 42.46,-27.92 46.13,-31.3 1.22,-1.13 3.14,-1.05 4.27,0.18 1.13,1.22 1.05,3.13 -0.18,4.26 -2.72,2.51 -19.73,14.03 -24.88,17.5 -22.07,14.88 -23.1,15.05 -23.78,15.17 -0.17,0.03 -0.34,0.04 -0.51,0.04z"/>
  </g>
  <path class="fil1" d="M259 255.17c0.01,0.02 0.02,0.03 0.04,0.05 -0.02,-0.02 -0.03,-0.03 -0.04,-0.05zm32.5 19.75c-4.04,0 -34.06,-11.83 -37.27,-16.04 -1.01,-1.32 -0.75,-3.22 0.57,-4.23 1.3,-0.99 3.14,-0.77 4.17,0.48 3.08,2.9 29.08,13.49 32.59,13.75 1.67,0 2.99,1.35 2.99,3.02 0,1.67 -1.38,3.02 -3.05,3.02z"/>
  <path class="fil1" d="M231.75 352.85c-1.44,0 -2.72,-1.04 -2.98,-2.51l0 -0.04c-0.87,-2.26 -1.45,-6.16 -2.29,-12.14 -0.74,-5.21 -1.97,-13.91 -3.24,-15.47 -1.03,-1.27 -0.92,-3.19 0.32,-4.26 1.24,-1.06 3.05,-1.01 4.15,0.2 2.33,2.54 3.35,8.75 4.75,18.69 0.62,4.39 1.32,9.38 2,10.95 0.1,0.22 0.17,0.45 0.21,0.69l0.06 0.35c0.28,1.65 -0.82,3.21 -2.47,3.49 -0.17,0.03 -0.34,0.05 -0.51,0.05z"/>
  <path class="fil1" d="M235.87 343.62c-1.44,0 -2.72,-1.04 -2.97,-2.51 -1.52,-8.85 0.16,-18.46 4.88,-27.8l0.68 -1.35c6.11,-12.05 13.72,-27.05 4.65,-48.32 -2.56,-6 -4.54,-8.1 -5.04,-8.36 -1.54,-0.64 -2.26,-2.4 -1.63,-3.94 0.64,-1.54 2.42,-2.27 3.96,-1.64 2.68,1.1 5.46,5 8.27,11.57 10.17,23.86 1.5,40.95 -4.83,53.43l-0.67 1.33c-4.13,8.17 -5.62,16.49 -4.32,24.06 0.28,1.64 -0.82,3.21 -2.47,3.49 -0.17,0.03 -0.34,0.04 -0.51,0.04z"/>
  <path class="fil2" d="M222.05 139.72c2.77,0 5.02,2.25 5.02,5.02 0,2.77 -2.25,5.01 -5.02,5.01 -2.77,0 -5.02,-2.24 -5.02,-5.01 0,-2.77 2.25,-5.02 5.02,-5.02z"/>
  <path class="fil2" d="M160.13 149.13c2.77,0 5.01,2.25 5.01,5.02 0,2.77 -2.24,5.01 -5.01,5.01 -2.78,0 -5.02,-2.24 -5.02,-5.01 0,-2.77 2.24,-5.02 5.02,-5.02z"/>
  <path class="fil1" d="M246.77 141.12c-1.39,0 -2.72,-0.76 -3.38,-2.09 -0.93,-1.87 -0.18,-4.13 1.69,-5.06 1.05,-0.52 2.81,-1.85 3.87,-2.64 0.82,-0.62 1.2,-0.9 1.57,-1.11 1.81,-1.04 4.12,-0.41 5.16,1.4 1.03,1.81 0.4,4.11 -1.41,5.15 -0.08,0.06 -0.4,0.3 -0.79,0.6 -1.34,1 -3.37,2.53 -5.03,3.36 -0.54,0.27 -1.12,0.39 -1.68,0.39z"/>
  <path class="fil1" d="M284.34 152.57c-6.45,0 -11.39,-3.72 -14.83,-6.32 -1.65,-1.25 -3.22,-2.43 -4.25,-2.72 -1.6,-0.45 -2.54,-2.11 -2.09,-3.72 0.45,-1.6 2.11,-2.54 3.72,-2.1 2.13,0.6 4.14,2.11 6.26,3.72 5.3,4 10.78,8.13 19.77,1.99 1.38,-0.95 3.25,-0.59 4.19,0.78 0.95,1.38 0.59,3.26 -0.78,4.2 -4.46,3.05 -8.45,4.17 -11.99,4.17z"/>
  <path class="fil1" d="M205.25 279.96c-5.23,0 -11.39,-1.02 -18.93,-3.9 -1.04,-0.4 -1.56,-1.56 -1.16,-2.6 0.4,-1.04 1.57,-1.56 2.6,-1.16 16.17,6.19 25.15,3.17 33.08,0.49 0.91,-0.3 1.8,-0.6 2.68,-0.88 1.07,-0.34 2.2,0.25 2.53,1.31 0.34,1.06 -0.25,2.19 -1.31,2.53 -0.86,0.27 -1.73,0.56 -2.62,0.86 -4.64,1.57 -9.93,3.35 -16.87,3.35z"/>
 </g>
</svg>
