<?xml version="1.0" encoding="UTF-8"?>
<!DOCTYPE svg PUBLIC "-//W3C//DTD SVG 1.1//EN" "http://www.w3.org/Graphics/SVG/1.1/DTD/svg11.dtd">
<!-- Creator: CorelDRAW 2018 (64-Bit) -->
<svg xmlns="http://www.w3.org/2000/svg" xml:space="preserve" width="845px" height="845px" version="1.1" style="shape-rendering:geometricPrecision; text-rendering:geometricPrecision; image-rendering:optimizeQuality; fill-rule:evenodd; clip-rule:evenodd"
viewBox="0 0 360.18 360.18"
 xmlns:xlink="http://www.w3.org/1999/xlink">
 <defs>
  <style type="text/css">
   <![CDATA[
    .fil0 {fill:none}
    .fil2 {fill:black}
    .fil1 {fill:black;fill-rule:nonzero}
   ]]>
  </style>
 </defs>
 <g id="Слой_x0020_1">
  <metadata id="CorelCorpID_0Corel-Layer"/>
  <rect class="fil0" width="360.18" height="360.18"/>
 </g>
 <g id="_1">
  <metadata id="CorelCorpID_1Corel-Layer"/>
  <path class="fil1" d="M115.06 135.01c-0.15,0 -0.3,-0.01 -0.45,-0.03 -1.79,-0.24 -3.04,-1.9 -2.79,-3.69 0.68,-4.96 4.84,-13.51 9.81,-15.61 2.78,-1.18 9.55,-1.2 14.24,-0.55 3.04,0.43 7.87,1.85 12.55,3.22 2.08,0.61 4.05,1.19 5.63,1.61 0.55,0.14 2.15,0.63 3.94,1.18 1.93,0.6 5.13,1.58 5.85,1.75 1.67,0.25 2.9,1.76 2.77,3.47 -0.13,1.81 -1.74,3.17 -3.5,3.03 -0.62,-0.05 -1.29,-0.22 -7.05,-1.99 -1.67,-0.51 -3.17,-0.98 -3.68,-1.11 -1.63,-0.43 -3.66,-1.03 -5.81,-1.66 -4.24,-1.25 -9.04,-2.66 -11.6,-3.01 -4.74,-0.67 -9.75,-0.32 -10.79,0.08 -2.02,0.86 -5.38,6.84 -5.88,10.49 -0.23,1.64 -1.63,2.82 -3.24,2.82z"/>
  <path class="fil1" d="M238.62 128.59c-1.15,0 -2.27,-0.62 -2.87,-1.7 -5.08,-9.25 -12.31,-12.07 -24.97,-9.76 -5.97,1.09 -12.76,3.56 -18.01,5.59l-0.36 0.14c-3,1.16 -6.42,2.41 -9.1,2.47 -1.8,0.09 -3.3,-1.4 -3.34,-3.2 -0.04,-1.81 1.39,-3.31 3.2,-3.34 1.75,-0.04 5.33,-1.44 6.87,-2.03l0.37 -0.15c5.52,-2.13 12.68,-4.73 19.19,-5.92 9.64,-1.76 23.44,-2.33 31.89,13.05 0.87,1.58 0.29,3.57 -1.29,4.44 -0.5,0.28 -1.04,0.41 -1.58,0.41z"/>
  <path class="fil1" d="M232.65 138.96c0.01,0 0.01,0 0.01,0 0,0 0,0 -0.01,0zm0.01 0c0,0 0.01,0 0.01,0 0,0 -0.01,0 -0.01,0zm-9.43 10.95c-1.31,0 -2.53,-0.87 -2.9,-2.2 -0.46,-1.61 0.48,-3.28 2.08,-3.73 2.19,-0.62 3.37,-1.38 4.86,-2.41 -2.08,-1.92 -5.05,-4.38 -7.92,-5.24 -1.42,-0.42 -3.41,-0.69 -5.61,-0.76 -6.51,-0.2 -7.45,0.43 -11.47,3.11 -0.98,0.65 -2.09,1.39 -3.43,2.23 -1.53,0.95 -3.1,1.68 -4.04,2.12 -0.19,0.08 -0.34,0.15 -0.45,0.2 -1.24,0.77 -2.87,0.55 -3.86,-0.57 -1.1,-1.26 -0.97,-3.17 0.28,-4.27 0.39,-0.34 0.74,-0.5 1.49,-0.85 0.81,-0.37 2.17,-1 3.38,-1.76 1.29,-0.8 2.34,-1.5 3.27,-2.12 4.9,-3.27 7,-4.39 15.02,-4.13 1.91,0.06 4.7,0.29 7.14,1.01 4.96,1.48 9.34,5.66 11.69,7.91 0.39,0.36 0.7,0.66 0.92,0.86 0.77,0.42 1.33,1.17 1.5,2.08 0.25,1.26 -0.34,2.54 -1.46,3.18 -1.06,0.61 -1.91,1.19 -2.73,1.77 -1.78,1.23 -3.63,2.52 -6.93,3.45 -0.28,0.08 -0.55,0.12 -0.83,0.12z"/>
  <path class="fil1" d="M120.79 153.34c-1.12,0 -2.18,-0.62 -2.7,-1.66 -0.65,-1.28 -0.3,-2.83 0.81,-3.73 1.6,-1.26 2.57,-2.67 3.7,-4.3 1.48,-2.16 3.17,-4.61 6.44,-6.62 3.52,-2.18 11.04,-4.8 17.28,-3.11 3.37,0.92 5.72,2.75 7.8,4.36 2.33,1.81 3.78,2.79 5.74,2.78 1.64,-0.04 3.05,1.27 3.09,2.94 0.05,1.67 -1.27,3.06 -2.94,3.1 -4.2,0.12 -7.08,-2.1 -9.59,-4.05 -1.79,-1.39 -3.48,-2.7 -5.69,-3.29 -4.08,-1.11 -9.88,0.78 -12.52,2.41 -2.14,1.32 -3.27,2.92 -4.56,4.78 0.3,0.01 0.6,0 0.89,0 1.72,-0.07 3.05,1.27 3.1,2.94 0.04,1.67 -1.28,3.05 -2.95,3.1 -0.82,0.02 -1.66,0 -2.51,-0.02 -1.72,-0.04 -3.36,-0.07 -4.61,0.26 -0.26,0.07 -0.52,0.11 -0.78,0.11z"/>
  <path class="fil1" d="M165.01 159.91c-0.16,0 -0.33,-0.02 -0.49,-0.04 -1.65,-0.27 -2.77,-1.82 -2.5,-3.47 1.6,-9.87 -0.16,-23.64 -2.48,-24.82 -1.52,-0.67 -2.22,-2.45 -1.55,-3.98 0.68,-1.53 2.46,-2.22 3.99,-1.55 8.43,3.71 6.68,27.16 6,31.32 -0.24,1.48 -1.52,2.54 -2.97,2.54z"/>
  <path class="fil1" d="M173.9 197.43c-3.05,0 -5.58,-1.48 -7.54,-2.62 -0.73,-0.44 -1.83,-1.08 -2.31,-1.18 -3.15,1.34 -6.41,1.1 -8.96,-0.67 -2.61,-1.82 -4.04,-4.98 -3.82,-8.44 0.1,-1.67 1.54,-2.95 3.2,-2.83 1.66,0.1 2.93,1.54 2.82,3.2 -0.08,1.35 0.39,2.5 1.25,3.11 0.83,0.58 1.98,0.59 3.22,0.04 2.86,-1.26 5.52,0.3 7.66,1.55 2.21,1.29 3.76,2.11 5.38,1.68 0.61,-0.17 1.42,-0.65 2.27,-1.17 2.49,-1.5 6.25,-3.77 11.82,-1.93 2.44,0.81 3.31,-0.24 3.6,-0.58 0.85,-1.01 0.94,-2.46 0.76,-2.91 -1.17,-1.12 -1.25,-2.96 -0.18,-4.18 1.1,-1.25 3.01,-1.38 4.26,-0.27 2.39,2.09 2.71,6.44 0.73,9.89 -1.73,3.03 -5.55,5.61 -11.07,3.79 -2.93,-0.98 -4.63,0.06 -6.79,1.36 -1.18,0.71 -2.4,1.45 -3.83,1.83 -0.86,0.23 -1.69,0.33 -2.47,0.33z"/>
  <path class="fil1" d="M139.93 209.95c-1.08,0 -1.97,-0.85 -2.01,-1.94 -0.26,-6.83 16.1,-31.42 21.04,-35.38 0.86,-0.7 2.13,-0.56 2.83,0.31 0.69,0.87 0.55,2.14 -0.32,2.83 -4.92,3.94 -19.71,27.36 -19.53,32.09 0.04,1.11 -0.83,2.05 -1.94,2.09 -0.02,0 -0.05,0 -0.07,0z"/>
  <path class="fil1" d="M223.75 217.36c-0.99,0 -1.86,-0.73 -2,-1.74 -1.02,-7.41 -16.86,-28.86 -29.74,-38.29 -0.9,-0.65 -1.1,-1.92 -0.44,-2.81 0.66,-0.9 1.92,-1.09 2.82,-0.44 13.09,9.59 30.09,31.81 31.35,40.99 0.16,1.11 -0.61,2.12 -1.72,2.27 -0.09,0.02 -0.18,0.02 -0.27,0.02z"/>
  <path class="fil1" d="M166.81 215.04c-1.63,0 -2.98,-1.32 -3.02,-2.96 -0.05,-2.02 1.07,-4.61 2.55,-7.78 0.25,-0.54 0.47,-1.02 0.63,-1.39 0.65,-1.53 2.42,-2.26 3.96,-1.6 1.54,0.65 2.26,2.42 1.6,3.96 -0.17,0.42 -0.43,0.96 -0.71,1.58 -0.59,1.25 -1.95,4.18 -1.99,5.11 0.05,1.66 -1.27,3.04 -2.94,3.08 -0.03,0 -0.05,0 -0.08,0z"/>
  <path class="fil1" d="M162.47 210.4c-0.03,0.02 -0.05,0.05 -0.08,0.07 0.03,-0.02 0.05,-0.04 0.08,-0.07zm-6.35 8.59c-0.47,0 -0.94,-0.11 -1.38,-0.34 -1.49,-0.77 -2.06,-2.59 -1.3,-4.07 0.36,-0.68 0.73,-1.42 1.11,-2.18 2,-3.97 2.91,-5.67 3.94,-6.54 1.27,-1.08 3.17,-0.92 4.25,0.35 1.04,1.23 0.93,3.05 -0.22,4.15 -0.5,0.64 -1.79,3.21 -2.57,4.76 -0.39,0.77 -0.78,1.54 -1.14,2.24 -0.54,1.04 -1.6,1.63 -2.69,1.63z"/>
  <path class="fil1" d="M145.9 225.12c-0.43,0 -0.87,-0.09 -1.29,-0.29 -1.51,-0.71 -2.15,-2.52 -1.44,-4.02 0.41,-0.85 0.82,-1.69 1.21,-2.49 0.84,-1.74 1.72,-3.53 1.96,-4.3 0.5,-1.6 2.19,-2.48 3.78,-1.99 1.59,0.5 2.48,2.19 1.99,3.78 -0.38,1.21 -1.23,2.95 -2.3,5.15 -0.39,0.79 -0.78,1.61 -1.18,2.43 -0.51,1.09 -1.6,1.73 -2.73,1.73z"/>
  <path class="fil1" d="M137.05 229.74c-1.63,0 -2.97,-1.3 -3.01,-2.94 -0.06,-2.18 0.76,-4.28 1.41,-5.97l0.22 -0.56c0.59,-1.56 2.34,-2.34 3.89,-1.75 1.56,0.6 2.35,2.34 1.75,3.9l-0.23 0.6c-0.48,1.24 -1.03,2.66 -1,3.62 0.04,1.67 -1.28,3.06 -2.95,3.1 -0.02,0 -0.05,0 -0.08,0z"/>
  <path class="fil1" d="M182.22 213.55c-1.06,0 -2.09,-0.56 -2.64,-1.55 -0.21,-0.37 -0.43,-0.77 -0.66,-1.2 -0.74,-1.38 -1.99,-3.68 -2.78,-4.34 -1.28,-1.08 -1.45,-2.98 -0.37,-4.26 1.07,-1.28 2.98,-1.44 4.25,-0.37 1.67,1.4 3.02,3.9 4.21,6.09 0.22,0.4 0.42,0.78 0.62,1.13 0.81,1.45 0.3,3.29 -1.16,4.11 -0.47,0.26 -0.97,0.39 -1.47,0.39z"/>
  <path class="fil1" d="M191.54 215.89c-1.03,0 -2.04,-0.53 -2.6,-1.48 -0.37,-0.61 -0.74,-1.3 -1.12,-1.99 -0.7,-1.26 -1.64,-2.98 -2.2,-3.54 -1.18,-1.18 -1.17,-3.09 0.01,-4.27 1.19,-1.18 3.1,-1.17 4.28,0.01 1.15,1.17 2.14,2.97 3.2,4.88 0.35,0.64 0.69,1.27 1.03,1.83 0.85,1.44 0.37,3.29 -1.06,4.14 -0.49,0.29 -1.02,0.42 -1.54,0.42z"/>
  <path class="fil1" d="M202.29 219.61c-1.16,0 -2.26,-0.67 -2.76,-1.8 -0.72,-1.62 -1.82,-3.44 -2.5,-4.14 -1.16,-1.2 -1.14,-3.11 0.06,-4.28 1.19,-1.16 3.1,-1.13 4.27,0.07 1.45,1.49 2.9,4.11 3.69,5.9 0.68,1.53 -0.01,3.31 -1.53,3.99 -0.4,0.18 -0.82,0.26 -1.23,0.26z"/>
  <path class="fil1" d="M211.91 224.86c-1.53,0 -2.84,-1.17 -3,-2.72 -0.26,-2.61 -0.9,-3.62 -1.1,-3.78 -1.32,-0.97 -1.68,-2.86 -0.74,-4.2 0.94,-1.34 2.71,-1.74 4.08,-0.83 2.1,1.39 3.37,4.15 3.77,8.2 0.17,1.66 -1.04,3.14 -2.7,3.31 -0.11,0.01 -0.2,0.02 -0.31,0.02z"/>
  <g>
   <path class="fil1" d="M174.99 218.33l0.01 0 -0.01 0zm-28.68 12.13c-0.15,0 -0.3,0 -0.46,-0.01 -1.67,-0.02 -3,-1.4 -2.97,-3.07 0.03,-1.65 1.38,-2.97 3.02,-2.97l0.05 0c3.61,0.06 6.16,-0.72 10.27,-3.1 0.78,-0.45 1.54,-0.95 2.28,-1.43 3.04,-1.99 6.49,-4.25 11.26,-3.52 1.53,0.23 3.63,0.75 5.12,1.88 0.4,0.11 1.35,0.03 1.73,-0.11 1.55,-0.58 2.57,-1.1 3.47,-1.56 3.54,-1.8 5.28,-2.01 11.64,-0.16 0.83,0.25 1.94,0.77 4,1.75 2.52,1.2 9.21,4.4 11.01,4.04 1.64,-0.32 3.22,0.75 3.55,2.38 0.32,1.64 -0.75,3.23 -2.38,3.55 -3.48,0.68 -8.75,-1.64 -14.78,-4.52 -1.2,-0.57 -2.68,-1.27 -3.09,-1.4 -4.91,-1.43 -5.21,-1.27 -7.2,-0.26 -0.94,0.48 -2.23,1.14 -4.11,1.84 -1.73,0.65 -5.31,1.02 -7.5,-0.75 -0.14,-0.11 -0.9,-0.48 -2.37,-0.71 -2.37,-0.36 -4.13,0.7 -7.05,2.6 -0.83,0.55 -1.67,1.1 -2.55,1.61 -4.17,2.41 -7.81,3.92 -12.94,3.92z"/>
  </g>
  <path class="fil1" d="M191.99 226.08c0,0 0,0 0,0 0,0 0,0 0,0zm-19.93 8.69c-6.22,0 -11.76,-0.61 -14.06,-1.81 -1.48,-0.77 -2.06,-2.59 -1.28,-4.08 0.76,-1.48 2.59,-2.05 4.07,-1.28 4.87,2.54 28.01,0.75 31.32,-1.68 1.01,-1.22 2.8,-1.46 4.1,-0.52 1.35,0.97 1.66,2.86 0.68,4.21 -2.51,3.49 -14.6,5.16 -24.83,5.16z"/>
  <path class="fil1" d="M176.59 246.47c-0.9,0 -1.82,-0.02 -2.78,-0.06 -2.98,-0.12 -5.94,-0.42 -8.55,-0.85 -3.57,-0.6 -6.42,-1.42 -8.49,-2.44 -3.44,-1.72 -4.01,-2.12 -5.28,-3.11 -0.5,-0.4 -1.16,-0.91 -2.43,-1.79 -1.37,-0.95 -1.72,-2.83 -0.77,-4.2 0.95,-1.37 2.82,-1.72 4.2,-0.77 1.42,0.98 2.16,1.56 2.72,2 0.9,0.7 1.2,0.94 4.25,2.46 1.49,0.74 3.9,1.41 6.79,1.89 2.37,0.39 5.07,0.66 7.8,0.77 16.25,0.68 21.75,-5.05 24.69,-8.13l4.4 4.14c-3.21,3.36 -9.66,10.09 -26.55,10.09z"/>
  <path class="fil1" d="M102.61 218.21c-3.09,0 -5.83,-1.08 -7.93,-3.14 -4.35,-4.25 -5.25,-11.66 -5.24,-17.12 0.01,-5.06 -1.06,-9.64 -3.19,-13.61 -3.13,-5.84 -5.06,-10.83 -6.26,-16.18 -0.66,-2.93 -1.07,-5.93 -1.13,-8.22 -0.14,-5.64 3.03,-7.65 4.94,-8.35 5.72,-2.08 14.63,2.38 17.85,6.41 1.04,1.3 0.83,3.2 -0.48,4.24 -1.3,1.04 -3.2,0.83 -4.24,-0.47 -2.04,-2.55 -8.45,-5.46 -11.07,-4.5 -0.3,0.11 -1.01,0.37 -0.96,2.52 0.05,1.89 0.41,4.52 0.98,7.04 1.08,4.8 2.84,9.32 5.69,14.65 2.61,4.87 3.92,10.41 3.91,16.48 -0.01,5.99 1.24,10.65 3.42,12.78 1.03,1.01 2.32,1.48 3.9,1.42 1.7,-0.06 3.05,1.28 3.09,2.95 0.04,1.67 -1.27,3.05 -2.94,3.09 -0.11,0.01 -0.23,0.01 -0.34,0.01z"/>
  <path class="fil1" d="M99.11 193.19c-1.64,0 -2.98,-1.3 -3.02,-2.94 -0.04,-1.49 -0.47,-2.8 -0.93,-4.2 -0.31,-0.92 -0.62,-1.88 -0.83,-2.91 -1.1,-5.48 -1.25,-5.78 -3.74,-10.77 -0.75,-1.5 -0.14,-3.31 1.35,-4.05 1.49,-0.75 3.31,-0.14 4.05,1.35 2.71,5.41 3.04,6.21 4.26,12.27 0.14,0.69 0.39,1.43 0.65,2.23 0.54,1.66 1.17,3.55 1.23,5.92 0.04,1.67 -1.28,3.06 -2.95,3.1 -0.02,0 -0.05,0 -0.07,0z"/>
  <g>
   <path class="fil1" d="M260.52 200.55l0 0 0 0zm0.01 0c0,0.01 0,0.01 0,0.01 0,0 0,0 0,-0.01zm5.86 7.21c-0.55,0 -1.1,-0.06 -1.66,-0.17 -0.68,-0.14 -6.74,-1.36 -7.88,-2.24 -1.32,-1.02 -1.57,-2.91 -0.56,-4.24 0.88,-1.14 2.41,-1.48 3.66,-0.9 0.9,0.28 5.04,1.27 5.97,1.46 2.8,0.58 5.72,-4.81 6.99,-8.56 0.64,-1.88 1.19,-9.04 1.63,-14.79 0.4,-5.18 0.81,-10.53 1.35,-13.83 2.33,-14.1 0.35,-19.33 -0.9,-19.55 -5.16,-0.9 -8.87,0.54 -11.4,4.38 -0.92,1.39 -2.79,1.78 -4.19,0.87 -1.39,-0.92 -1.77,-2.79 -0.86,-4.19 3.89,-5.9 9.92,-8.33 17.48,-7.01 6.58,1.14 8.54,10.05 5.83,26.49 -0.5,3.04 -0.9,8.25 -1.29,13.3 -0.65,8.5 -1.11,13.84 -1.93,16.27 -2.75,8.1 -7.24,12.71 -12.24,12.71z"/>
  </g>
  <path class="fil1" d="M265.67 184.93c-0.09,0 -0.18,-0.01 -0.28,-0.01 -1.66,-0.16 -2.88,-1.63 -2.73,-3.29 0.13,-1.43 0.18,-5.45 0.23,-9 0.04,-3.36 0.08,-6.54 0.18,-8.27 0.35,-5.91 0.94,-15.8 12.85,-16.48 1.64,-0.07 3.1,1.18 3.19,2.84 0.1,1.67 -1.18,3.1 -2.84,3.19 -5.27,0.3 -6.67,2.42 -7.16,10.8 -0.1,1.59 -0.14,4.85 -0.18,8 -0.05,4.01 -0.1,7.81 -0.25,9.48 -0.15,1.56 -1.46,2.74 -3.01,2.74z"/>
  <path class="fil1" d="M248.92 99.56c0,0.04 -0.01,0.08 -0.01,0.13 0,-0.04 0.01,-0.08 0.01,-0.13zm-73.13 191.96c-3.2,0 -6.32,-0.19 -9.29,-0.57 -36.96,-4.78 -51.02,-31.89 -60.7,-60.47 -7.28,-21.47 -7.3,-36.48 -7.33,-55.48 0,-4.34 -0.01,-8.83 -0.1,-13.65l-0.07 -3.45c-0.54,-26.94 -0.63,-39.98 0.94,-43.19 0.73,-1.5 2.54,-2.12 4.03,-1.39 1.49,0.73 2.11,2.5 1.42,3.99 -1.1,3.13 -0.65,25.59 -0.35,40.47l0.07 3.44c0.09,4.88 0.1,9.4 0.1,13.77 0.03,18.44 0.05,33.02 7.01,53.55 9.06,26.73 22.08,52.06 55.75,56.41 3.26,0.42 6.72,0.6 10.28,0.51 18.37,-0.43 37.59,-7.38 50.16,-18.13 4.28,-3.66 7.74,-7.7 10.3,-12.01 16.26,-27.38 26.54,-84.94 15.44,-118.11 -1.17,-3.5 -1.55,-6.43 -1.91,-9.26 -0.57,-4.47 -1.07,-8.34 -4.67,-14.11 -0.91,-1.45 -4.08,-12.49 -3.99,-14.41 0.07,-1.67 1.42,-2.96 3.14,-2.89 1.61,0.07 2.87,1.38 2.89,2.97 0.19,1.51 2.48,9.73 3.15,11.23 4.24,6.84 4.87,11.72 5.47,16.45 0.34,2.66 0.66,5.17 1.64,8.1 11.61,34.65 0.95,94.63 -15.96,123.11 -2.9,4.88 -6.79,9.43 -11.57,13.52 -13.58,11.61 -34.25,19.12 -53.95,19.58 -0.64,0.02 -1.27,0.02 -1.9,0.02z"/>
  <path class="fil1" d="M98.52 157.43c-0.3,0 -0.6,-0.04 -0.9,-0.14 -13.96,-4.38 -8.12,-54.75 -8.06,-55.26 0.79,-6.36 -0.16,-9.96 -0.99,-13.14 -0.75,-2.87 -1.46,-5.58 -0.81,-9.3 0.48,-2.71 1.42,-5.69 2.87,-9.13 0.32,-0.76 0.53,-1.54 0.75,-2.36 0.29,-1.1 0.59,-2.22 1.17,-3.39 0.53,-1.05 1.21,-1.99 1.81,-2.82 0.53,-0.73 1.04,-1.42 1.27,-1.97 0.54,-1.27 0.79,-2.82 1,-4.18 0.19,-1.24 0.36,-2.31 0.73,-3.25 0.59,-1.52 1.31,-2.94 2.13,-4.22 3.07,-4.78 6.26,-5.62 9.08,-6.37 2.59,-0.68 5.26,-1.39 9.16,-5.86 5.24,-6 6.45,-7 7.98,-8.26l0.46 -0.38c0.16,-0.14 0.32,-0.31 0.51,-0.5 1.27,-1.29 3.4,-3.47 9.18,-5.5 1.48,-0.52 2.42,-1.35 3.47,-3.05 3.39,-5.55 9.41,-6.4 14.72,-7.14l0.71 -0.11c3.27,-0.46 6.2,-0.89 8.92,-1.35 3.92,-0.67 6.24,-1.19 7.93,-1.58 4.59,-1.04 5.08,-0.96 13.28,0.32l3.38 0.52c3.61,0.56 7.57,0.83 10.47,1.02 1.7,0.12 2.94,0.2 3.74,0.32 4.15,0.58 6.75,2.53 9.26,4.42 2.95,2.22 6,4.51 12.59,5.47 5.45,0.79 8.31,4 10.83,6.83 0.93,1.06 1.82,2.05 2.84,2.97 3.58,3.18 4.94,3.32 6.38,3.47 0.78,0.08 1.74,0.18 2.86,0.59 3.73,1.39 6.62,4.45 8.85,9.38 0.72,1.59 1.81,3.94 2.98,5.99 1.09,1.88 2.47,3.33 3.95,4.87 1.91,2 4.08,4.26 5.64,7.66 2.65,5.76 3.12,11.15 1.4,16.03 -0.71,2.04 -0.12,5.89 0.45,9.62 0.86,5.64 1.84,12 -0.85,16.63 0.02,0.92 0.27,2.99 0.47,4.69 0.75,6.31 1.77,14.95 -0.05,20.29 -0.46,1.36 -3.44,14.32 -3.71,15.94 -0.12,1.36 -1.15,2.51 -2.56,2.73 -1.65,0.25 -3.19,-0.88 -3.44,-2.53 -0.23,-1.51 3.95,-17.95 3.99,-18.09 1.38,-4.04 0.41,-12.21 -0.23,-17.62 -0.6,-5.07 -0.8,-6.78 0.14,-8.18 1.83,-2.72 1,-8.15 0.27,-12.94 -0.72,-4.67 -1.4,-9.08 -0.17,-12.55 1.19,-3.39 0.8,-7.15 -1.2,-11.5 -1.14,-2.47 -2.7,-4.11 -4.52,-6 -1.66,-1.73 -3.37,-3.52 -4.82,-6.05 -0.99,-1.73 -2.02,-3.8 -3.24,-6.5 -2.28,-5.03 -4.58,-5.88 -5.45,-6.2 -0.38,-0.15 -0.74,-0.19 -1.38,-0.25 -2.6,-0.27 -5.12,-0.83 -9.77,-4.97 -1.29,-1.15 -2.34,-2.33 -3.35,-3.47 -2.27,-2.55 -3.91,-4.39 -7.18,-4.87 -8.12,-1.17 -12.13,-4.19 -15.36,-6.61 -2.24,-1.69 -3.85,-2.91 -6.46,-3.27 -0.59,-0.08 -1.85,-0.17 -3.31,-0.27 -3,-0.2 -7.12,-0.48 -10.98,-1.08l-3.4 -0.52c-7.53,-1.18 -7.53,-1.18 -11,-0.39 -1.66,0.37 -4.17,0.94 -8.25,1.64 -2.8,0.47 -5.77,0.9 -9.09,1.37l-0.71 0.11c-5.28,0.74 -8.61,1.35 -10.42,4.31 -1.19,1.95 -3.02,4.34 -6.62,5.6 -4.45,1.57 -5.85,2.99 -6.87,4.03 -0.34,0.35 -0.64,0.65 -0.94,0.9l-0.5 0.41c-1.32,1.09 -2.36,1.95 -7.27,7.57 -5.11,5.87 -9.19,6.95 -12.16,7.73 -2.41,0.64 -3.74,0.99 -5.55,3.8 -0.6,0.94 -1.13,2 -1.58,3.14 -0.13,0.34 -0.27,1.22 -0.39,1.99 -0.26,1.63 -0.57,3.66 -1.42,5.63 -0.5,1.17 -1.22,2.17 -1.93,3.14 -0.51,0.7 -0.99,1.37 -1.29,1.98 -0.31,0.61 -0.51,1.36 -0.74,2.23 -0.25,0.94 -0.54,2.01 -1.03,3.17 -1.25,2.96 -2.09,5.6 -2.48,7.82 -0.42,2.41 0.05,4.22 0.7,6.72 0.93,3.52 2.08,7.9 1.14,15.41 -2.75,22.24 -0.76,47.3 3.88,48.76 1.59,0.5 2.47,2.2 1.97,3.79 -0.4,1.29 -1.59,2.11 -2.88,2.11z"/>
  <path class="fil1" d="M256.46 109.73c-1.15,0 -2.25,-0.66 -2.75,-1.77 -1.87,-4.09 -9.06,-15.08 -11.18,-16.3 -1.42,-0.82 -1.98,-2.66 -1.19,-4.1 0.78,-1.44 2.51,-2.02 3.97,-1.27 4.46,2.3 12.68,16.51 13.89,19.16 0.7,1.52 0.03,3.31 -1.49,4.01 -0.41,0.18 -0.83,0.27 -1.25,0.27z"/>
  <path class="fil1" d="M253.96 91.59c-0.49,0 -0.98,-0.11 -1.43,-0.36 -2.1,-1.13 -3.51,-3.31 -5.01,-5.63 -1.88,-2.91 -3.83,-5.92 -6.96,-6.84 -1.6,-0.46 -2.53,-2.14 -2.06,-3.74 0.47,-1.6 2.14,-2.53 3.75,-2.06 5.29,1.54 8.22,6.06 10.35,9.37 0.97,1.49 2.06,3.19 2.79,3.58 1.47,0.79 2.02,2.62 1.23,4.09 -0.55,1.01 -1.59,1.59 -2.66,1.59z"/>
  <path class="fil1" d="M100.51 106.88c0,0 -0.01,0 -0.01,0.01 0,-0.01 0.01,-0.01 0.01,-0.01zm2.53 4.66c-0.56,0 -1.13,-0.15 -1.64,-0.48 -1.29,-0.84 -1.73,-2.49 -1.08,-3.84 0.17,-0.56 0.51,-2.29 0.54,-2.79 -0.36,-6.89 0.04,-9.39 0.75,-13.94 0.23,-1.46 0.5,-3.16 0.79,-5.34 0.33,-2.44 2.17,-5.95 4.95,-11.04 1.51,-2.75 3.07,-5.6 3.56,-7.1 1.71,-5.25 4.46,-7.39 6.89,-9.28 1.37,-1.07 2.67,-2.08 3.87,-3.71 0.65,-0.88 1.39,-2.2 2.05,-3.35 0.54,-0.96 1.05,-1.86 1.52,-2.55 0.47,-0.7 1.58,-2.33 15.69,-11.21 6.75,-4.24 14.27,-4.43 21.55,-4.61l0.48 -0.01c6.96,-0.18 8.1,-0.97 9.67,-2.07 1.52,-1.05 3.4,-2.37 8.05,-3.59 5.61,-1.48 30.95,2.25 35.2,6.74 2.38,2.53 6.97,4.67 10.31,6.23l0.51 0.23c2.16,1.01 7.93,5.54 8.87,8.49 0.7,1.86 8.15,12.91 10.04,14.63 2.24,1.14 3.95,2.82 5.46,4.3 0.84,0.82 1.63,1.6 2.39,2.17 1.34,0.99 1.61,2.88 0.62,4.22 -1,1.34 -2.89,1.61 -4.23,0.62 -1.09,-0.81 -2.06,-1.77 -3.01,-2.69 -1.35,-1.33 -2.63,-2.58 -4.1,-3.3 -2.98,-1.45 -12.25,-15.97 -12.93,-18.12 -0.47,-0.85 -4.1,-4.11 -5.67,-4.84l-0.5 -0.24c-4,-1.86 -8.98,-4.18 -12.15,-7.55 -2.83,-2.44 -24.75,-6.24 -29.27,-5.05 -3.61,0.95 -4.89,1.85 -6.14,2.71 -2.61,1.82 -4.79,2.94 -12.97,3.15l-0.48 0.01c-6.76,0.17 -13.14,0.33 -18.49,3.69 -8.55,5.38 -13.25,8.74 -13.98,9.58 -0.29,0.44 -0.72,1.2 -1.19,2.03 -0.73,1.3 -1.57,2.79 -2.44,3.96 -1.7,2.31 -3.46,3.68 -5.02,4.89 -2.16,1.69 -3.72,2.9 -4.86,6.4 -0.67,2.03 -2.28,4.99 -4,8.12 -1.71,3.14 -4.06,7.43 -4.26,8.94 -0.3,2.23 -0.57,3.98 -0.81,5.48 -0.69,4.41 -1.01,6.43 -0.68,12.86 0.04,0.79 -0.54,4.67 -1.32,5.87 -0.58,0.9 -1.55,1.38 -2.54,1.38z"/>
  <path class="fil1" d="M155.48 38.52c-0.78,0 -1.56,-0.31 -2.15,-0.91 -1.17,-1.19 -1.15,-3.1 0.04,-4.27 1.52,-1.49 1.53,-2.47 1.34,-5.36 -0.04,-0.65 -0.08,-1.33 -0.1,-2.03 -0.04,-1.67 1.27,-3.06 2.94,-3.1 1.67,-0.05 3.06,1.28 3.1,2.94 0.01,0.63 0.05,1.22 0.09,1.79 0.2,3.08 0.43,6.57 -3.14,10.07 -0.59,0.58 -1.35,0.87 -2.12,0.87z"/>
  <path class="fil1" d="M167.8 36.94c-1.42,0 -2.7,-1.02 -2.98,-2.47 -0.51,-2.56 1.03,-10.47 1.48,-11.96 0.48,-1.59 2.17,-2.5 3.76,-2.02 1.6,0.48 2.5,2.17 2.02,3.77 -0.53,1.75 -1.46,7.86 -1.32,9.11 0.32,1.64 -0.75,3.19 -2.39,3.52 -0.19,0.03 -0.39,0.05 -0.57,0.05z"/>
  <path class="fil1" d="M180.33 32.44c-0.38,0 -0.77,-0.07 -1.15,-0.23 -1.54,-0.63 -2.28,-2.4 -1.64,-3.94 0.48,-1.16 1.1,-2.04 1.64,-2.82 0.85,-1.2 1.22,-1.78 1.19,-2.97 -0.04,-1.67 1.28,-3.06 2.95,-3.1 1.65,-0.06 3.05,1.28 3.09,2.94 0.09,3.25 -1.29,5.2 -2.29,6.62 -0.42,0.59 -0.78,1.1 -1,1.63 -0.48,1.17 -1.6,1.87 -2.79,1.87z"/>
  <path class="fil1" d="M192.77 31.93c-0.47,0 -0.94,-0.11 -1.39,-0.34 -1.48,-0.77 -2.05,-2.59 -1.29,-4.07 0.64,-1.22 1,-1.78 1.28,-2.16 0.07,-0.22 0.16,-0.57 0.33,-1.14l0.26 -0.91c0.46,-1.6 2.13,-2.53 3.74,-2.06 1.6,0.46 2.53,2.14 2.06,3.74l-0.26 0.9c-0.54,1.89 -0.64,2.23 -1.21,2.97 -0.08,0.11 -0.27,0.36 -0.83,1.44 -0.54,1.04 -1.6,1.63 -2.69,1.63z"/>
  <path class="fil1" d="M147.29 39.41c-0.3,0 -0.61,-0.05 -0.92,-0.15 -1.59,-0.5 -2.46,-2.2 -1.96,-3.79 0.37,-1.17 0.44,-1.52 0.45,-1.62 0,-0.07 -0.03,-0.17 -0.05,-0.3 -0.11,-0.63 -0.27,-1.58 -0.32,-3.43 -0.04,-1.66 1.28,-3.05 2.95,-3.09 0.02,0 0.05,0 0.07,0 1.64,0 2.98,1.3 3.02,2.94 0.04,1.41 0.15,2.05 0.23,2.56 0.28,1.59 0.18,2.34 -0.59,4.77 -0.41,1.29 -1.6,2.11 -2.88,2.11z"/>
  <path class="fil1" d="M204.2 34.2c-0.65,0 -1.31,-0.21 -1.86,-0.64 -1.32,-1.03 -1.55,-2.93 -0.52,-4.24 0.77,-1 1.6,-1.64 2.26,-2.16 0.83,-0.65 1.11,-0.88 1.31,-1.47 0.52,-1.59 2.23,-2.44 3.82,-1.92 1.58,0.53 2.43,2.24 1.91,3.83 -0.79,2.34 -2.25,3.49 -3.32,4.32 -0.5,0.4 -0.9,0.71 -1.22,1.12 -0.6,0.76 -1.49,1.16 -2.38,1.16z"/>
  <path class="fil1" d="M166.33 313.24c-4.34,0 -8.53,-0.72 -12.68,-2.15 -16.46,-5.65 -30.75,-25.57 -31.2,-43.48 -0.04,-1.67 1.27,-3.05 2.94,-3.1 1.66,-0.02 3.05,1.28 3.1,2.95 0.38,15.37 13.06,33.09 27.12,37.92 8.28,2.85 16.51,2.39 26.67,-1.48 22.08,-8.41 30.25,-16.54 39.71,-25.96 1.81,-1.8 3.64,-3.63 5.61,-5.49 1.21,-1.14 3.12,-1.09 4.27,0.12 1.15,1.21 1.1,3.12 -0.12,4.27 -1.93,1.83 -3.73,3.62 -5.5,5.39 -9.54,9.49 -18.54,18.45 -41.82,27.32 -6.47,2.46 -12.42,3.69 -18.1,3.69z"/>
  <path class="fil1" d="M291.36 272.2c-0.37,0 -0.75,-0.07 -1.11,-0.22 -1.73,-0.68 -3.98,-1.69 -6.15,-2.65 -2.58,-1.16 -5.25,-2.35 -6.9,-2.95 -12.84,-4.62 -16.57,-9.71 -20.52,-15.11 -2.33,-3.18 -4.75,-6.48 -9.47,-10.14 -1.32,-1.02 -1.56,-2.92 -0.54,-4.24 1.02,-1.32 2.92,-1.56 4.24,-0.53 5.4,4.18 8.18,7.98 10.64,11.34 3.69,5.03 6.59,9 17.69,13 1.87,0.67 4.52,1.86 7.33,3.11 2.11,0.94 4.3,1.92 5.91,2.56 1.55,0.61 2.31,2.37 1.69,3.92 -0.47,1.19 -1.61,1.91 -2.81,1.91z"/>
  <path class="fil1" d="M84.27 310.69c-1.64,0 -2.98,-1.33 -3.02,-2.97 -0.12,-4.45 8.34,-20.58 10.93,-25.42 2.76,-5.14 7.11,-10.84 11.33,-16.35 1.47,-1.93 2.96,-3.88 4.34,-5.76 -16.86,10.54 -43.85,24.78 -57.07,24 -1.66,-0.1 -2.93,-1.53 -2.83,-3.2 0.1,-1.66 1.53,-2.94 3.2,-2.83 14.29,0.85 51.92,-21.09 64.15,-30.25 1.03,-0.77 2.44,-0.8 3.51,-0.07 1.07,0.72 1.55,2.05 1.21,3.29 -1.36,4.94 -6.39,11.52 -11.72,18.49 -4.06,5.32 -8.27,10.82 -10.8,15.53 -6.17,11.51 -10.1,20.62 -10.21,22.46 0.04,1.67 -1.28,3.03 -2.95,3.08 -0.02,0 -0.05,0 -0.07,0z"/>
  <path class="fil1" d="M120.17 348.77c-1.66,0 -3.01,-1.34 -3.02,-3 -0.01,-2.78 -0.5,-6.57 -1.19,-11.82 -0.85,-6.53 -2.02,-15.48 -2.81,-27.26 -0.08,-1.28 -0.21,-2.74 -0.34,-4.35 -0.79,-9.34 -1.97,-23.45 1.38,-33.47 1.36,-4.02 3.13,-7.9 4.85,-11.49 0.72,-1.51 2.52,-2.14 4.03,-1.43 1.5,0.73 2.14,2.53 1.42,4.03 -1.64,3.42 -3.32,7.09 -4.57,10.81 -2.96,8.84 -1.84,22.2 -1.09,31.05 0.13,1.64 0.26,3.14 0.35,4.45 0.78,11.59 1.93,20.43 2.77,26.88 0.71,5.47 1.23,9.41 1.24,12.57 0.01,1.67 -1.34,3.03 -3.01,3.03l-0.01 0z"/>
  <path class="fil1" d="M120.17 348.77c-0.88,0 -1.74,-0.38 -2.34,-1.11 -1.06,-1.29 -0.86,-3.19 0.43,-4.25 13.62,-11.09 14.5,-12.02 23.45,-24.89 2.1,-3.02 4.3,-5.72 6.06,-7.88 1.17,-1.43 2.63,-3.21 2.89,-3.75 0.6,-1.56 2.34,-2.3 3.89,-1.7 1.56,0.6 2.32,2.37 1.72,3.93 -0.47,1.21 -1.57,2.59 -3.82,5.34 -1.7,2.08 -3.82,4.68 -5.78,7.51 -9.23,13.27 -10.61,14.74 -24.59,26.13 -0.56,0.45 -1.24,0.67 -1.91,0.67z"/>
  <path class="fil1" d="M188.01 349.64c-1.32,0 -2.54,-0.88 -2.91,-2.22 -2.35,-8.53 -5.6,-13.54 -9.35,-19.35 -2.76,-4.27 -5.89,-9.11 -8.87,-15.85 -0.68,-1.53 0.01,-3.31 1.54,-3.99 1.53,-0.67 3.31,0.02 3.98,1.54 2.79,6.31 5.66,10.74 8.42,15.02 3.86,5.97 7.5,11.6 10.11,21.03 0.44,1.6 -0.5,3.27 -2.11,3.71 -0.27,0.08 -0.54,0.11 -0.81,0.11z"/>
  <path class="fil1" d="M188.01 349.64c-0.6,0 -1.21,-0.18 -1.73,-0.55 -1.37,-0.96 -1.7,-2.85 -0.73,-4.21 5.2,-7.4 10.58,-14.05 15.78,-20.49 14.43,-17.86 26.89,-33.28 29.26,-56.43 0.17,-1.66 1.66,-2.86 3.31,-2.69 1.66,0.16 2.87,1.65 2.7,3.31 -2.55,24.93 -16.16,41.78 -30.57,59.61 -5.14,6.35 -10.45,12.93 -15.54,20.17 -0.59,0.83 -1.53,1.28 -2.48,1.28z"/>
  <path class="fil2" d="M143.02 136.03c3.43,-0.09 6.27,2.62 6.36,6.04 0.09,3.43 -2.62,6.27 -6.04,6.36 -3.43,0.08 -6.27,-2.62 -6.36,-6.05 -0.09,-3.42 2.62,-6.27 6.04,-6.35z"/>
  <path class="fil2" d="M215.37 131.89c3.43,-0.08 6.27,2.62 6.36,6.05 0.09,3.42 -2.62,6.26 -6.05,6.35 -3.42,0.09 -6.26,-2.62 -6.35,-6.04 -0.09,-3.43 2.62,-6.27 6.04,-6.36z"/>
  <path class="fil1" d="M134.79 47.25c-0.35,0 -0.7,-0.06 -1.05,-0.19 -1.57,-0.58 -2.36,-2.32 -1.78,-3.88 0.25,-0.67 0.35,-1 0.4,-1.15l-0.02 -0.11c-0.11,-0.53 -0.28,-1.42 -0.32,-3.08 -0.04,-1.67 1.27,-3.06 2.94,-3.1 1.71,-0.06 3.05,1.28 3.1,2.95 0.03,1.15 0.12,1.66 0.21,2.07 0.31,1.6 0.13,2.44 -0.65,4.53 -0.45,1.21 -1.6,1.96 -2.83,1.96z"/>
  <path class="fil1" d="M217.83 40.52c-0.87,0 -1.73,-0.37 -2.32,-1.09 -1.07,-1.28 -0.89,-3.19 0.39,-4.25 0.5,-0.41 0.68,-0.66 0.83,-1.1 0.53,-1.59 2.24,-2.44 3.82,-1.91 1.58,0.52 2.44,2.23 1.91,3.82 -0.65,1.96 -1.79,3.08 -2.7,3.84 -0.56,0.46 -1.25,0.69 -1.93,0.69z"/>
  <path class="fil1" d="M275.3 324.51c-0.08,0 -0.16,0 -0.24,0 -1.67,-0.14 -2.91,-1.59 -2.78,-3.26 1.18,-14.92 -4.79,-57.88 -13.01,-66.58 -1.15,-1.22 -1.09,-3.13 0.12,-4.27 1.21,-1.15 3.12,-1.1 4.27,0.12 10.21,10.8 15.76,57.13 14.64,71.21 -0.12,1.58 -1.44,2.78 -3,2.78z"/>
  <path class="fil1" d="M150.7 349.27c-1.67,0 -3.02,-1.35 -3.02,-3.02 0,-7.39 -1.2,-20.64 -4.52,-26.86 -0.78,-1.47 -0.23,-3.3 1.24,-4.08 1.48,-0.79 3.31,-0.23 4.09,1.24 4.14,7.75 5.23,22.82 5.23,29.7 0,1.67 -1.35,3.02 -3.02,3.02z"/>
  <g>
   <path class="fil1" d="M170.86 321.89l0.01 0 -0.01 0zm-3.22 24.24c-0.68,0 -1.36,-0.22 -1.92,-0.68 -1.08,-0.89 -1.38,-2.37 -0.83,-3.58 0.91,-2.39 5.76,-17.59 5.85,-20.4 -0.29,-1.45 0.52,-2.92 1.95,-3.43 1.57,-0.56 3.3,0.26 3.86,1.83 1.26,3.54 -5.86,24.29 -6.58,25.16 -0.59,0.73 -1.46,1.1 -2.33,1.1z"/>
  </g>
 </g>
</svg>
