<?xml version="1.0" encoding="UTF-8"?>
<!DOCTYPE svg PUBLIC "-//W3C//DTD SVG 1.1//EN" "http://www.w3.org/Graphics/SVG/1.1/DTD/svg11.dtd">
<!-- Creator: CorelDRAW 2018 (64-Bit) -->
<svg xmlns="http://www.w3.org/2000/svg" xml:space="preserve" width="845px" height="845px" version="1.1" style="shape-rendering:geometricPrecision; text-rendering:geometricPrecision; image-rendering:optimizeQuality; fill-rule:evenodd; clip-rule:evenodd"
viewBox="0 0 360.18 360.18"
 xmlns:xlink="http://www.w3.org/1999/xlink">
 <defs>
  <style type="text/css">
   <![CDATA[
    .fil0 {fill:none}
    .fil2 {fill:black}
    .fil1 {fill:black;fill-rule:nonzero}
   ]]>
  </style>
 </defs>
 <g id="Слой_x0020_1">
  <metadata id="CorelCorpID_0Corel-Layer"/>
  <rect class="fil0" width="360.18" height="360.18"/>
 </g>
 <g id="_1">
  <metadata id="CorelCorpID_1Corel-Layer"/>
  <path class="fil1" d="M204.69 144.4c-0.09,0 -0.18,0 -0.27,-0.01 -1.69,-0.15 -3.66,-1.32 -6.48,-3.09 -0.68,-0.42 -1.28,-0.8 -1.69,-1.02 -5.53,-2.93 -14.31,-6.38 -18.84,-6.84 -10.27,-1.04 -17.95,0.1 -24.9,3.72 -0.23,0.12 -0.47,0.21 -0.73,0.27l-0.5 0.11c-1.62,0.36 -3.24,-0.66 -3.61,-2.29 -0.36,-1.62 0.66,-3.24 2.29,-3.61l0.12 -0.02c7.96,-4.05 16.6,-5.34 27.94,-4.19 5.53,0.56 14.98,4.29 21.06,7.51 0.51,0.27 1.24,0.73 2.07,1.25 1.05,0.65 3.23,2.02 3.95,2.2 1.66,0.15 2.81,1.61 2.67,3.27 -0.14,1.57 -1.52,2.74 -3.08,2.74z"/>
  <path class="fil1" d="M230.84 148.56c-0.97,0 -1.92,-0.45 -2.5,-1.3 -0.92,-1.35 -0.64,-3.17 0.69,-4.13 2.18,-1.57 25.41,-11.43 28.59,-11.89 5.11,-0.73 10.38,-0.04 14.84,1.94 0.08,0.03 8.18,3.88 9.71,8.55 0.46,1.39 0.33,2.81 -0.35,3.99 -0.83,1.45 -2.67,1.95 -4.12,1.13 -1.24,-0.71 -1.79,-2.17 -1.39,-3.49 -0.79,-1.25 -4.25,-3.75 -6.3,-4.66 -3.43,-1.52 -7.53,-2.05 -11.53,-1.47 -2.38,0.49 -23.77,9.4 -25.95,10.83 -0.52,0.33 -1.11,0.5 -1.69,0.5z"/>
  <path class="fil1" d="M232.41 164.45c-1.47,0 -2.76,-1.08 -2.99,-2.57 -0.24,-1.65 0.89,-3.19 2.54,-3.44 0.94,-0.15 3.73,-0.89 11.73,-4.27 1.89,-0.8 2.92,-1.44 3.82,-2 2.78,-1.73 4.42,-2.33 12,-2.33 8.85,0 10.78,1.33 13.08,4.39 0.59,0.78 1.14,1.51 2.26,2.39 1.31,1.03 1.54,2.93 0.51,4.24 -1.03,1.32 -2.93,1.54 -4.24,0.52 -1.74,-1.37 -2.68,-2.61 -3.36,-3.52 -1.02,-1.36 -1.49,-1.98 -8.25,-1.98 -6.53,0 -7.15,0.38 -8.81,1.42 -0.98,0.61 -2.33,1.45 -4.67,2.44 -6.65,2.81 -10.96,4.34 -13.16,4.67 -0.16,0.02 -0.31,0.04 -0.46,0.04z"/>
  <path class="fil1" d="M202.18 162.18c-5.31,0 -9.14,-3.01 -12.53,-5.66 -2.87,-2.26 -5.35,-4.2 -8.27,-4.2 -2.84,0 -5.08,-0.04 -6.91,-0.07 -7.31,-0.14 -7.32,-0.14 -15.44,3.94l-3.02 1.52c-3.81,1.9 -12.88,2.05 -15.58,2.05 -1.66,0 -3.02,-1.36 -3.02,-3.02 0,-1.67 1.36,-3.02 3.02,-3.02 5.74,0 11.27,-0.61 12.88,-1.41l3.01 -1.51c9.19,-4.62 9.7,-4.75 18.27,-4.59 1.8,0.03 4,0.07 6.79,0.07 5.01,0 8.72,2.91 12,5.48 2.99,2.35 5.58,4.38 8.8,4.38 1.67,0 3.03,1.35 3.03,3.02 0,1.67 -1.36,3.02 -3.03,3.02z"/>
  <g>
   <path class="fil1" d="M153.85 160.24l0 0 0 0zm21.36 6.85c-9.94,0 -16.06,-3.67 -19.61,-5.79 -0.7,-0.42 -1.57,-0.94 -1.93,-1.08 -1.57,-0.17 -2.76,-1.55 -2.67,-3.16 0.09,-1.66 1.53,-2.95 3.17,-2.85 1.48,0.07 2.76,0.84 4.53,1.91 3.84,2.29 10.26,6.13 21.74,4.56 0.17,-0.02 0.36,-0.03 0.54,-0.03l0.32 0.02c1.67,0.07 2.96,1.48 2.89,3.15 -0.07,1.66 -1.45,2.97 -3.15,2.89l-0.06 -0.01c-2.05,0.27 -3.97,0.39 -5.77,0.39z"/>
  </g>
  <path class="fil1" d="M266.01 164.66c-0.02,0.01 -0.04,0.03 -0.06,0.04l0.06 -0.04zm-8.06 7.82c-5.77,0 -11.23,-2.02 -15.9,-3.74 -3.28,-1.21 -6.37,-2.36 -8.51,-2.36 -1.67,0 -3.02,-1.35 -3.02,-3.02 0,-1.66 1.35,-3.02 3.02,-3.02 3.22,0 6.81,1.33 10.6,2.73 6.13,2.26 13.08,4.83 19.57,2.34 0.31,-0.12 0.71,-0.25 1.15,-0.38 0.34,-0.11 0.97,-0.3 1.21,-0.42 1.31,-0.92 3.12,-0.67 4.12,0.61 1.03,1.32 0.8,3.22 -0.52,4.24 -0.85,0.67 -1.96,1.01 -3.03,1.34 -0.29,0.09 -0.56,0.17 -0.76,0.25 -2.68,1.02 -5.33,1.43 -7.93,1.43z"/>
  <path class="fil1" d="M218.97 208.61c-4.72,0 -9.53,-1.39 -12.06,-3.74 -1.39,-1.3 -3.53,-1.28 -6.88,-1.08 -4.28,0.24 -10.14,0.58 -13.47,-5.47 -2.97,-5.41 -2.78,-8.01 -0.71,-13.1 2.23,-5.48 7.66,-9.91 12,-12.24 1.47,-0.78 3.3,-0.23 4.09,1.24 0.78,1.48 0.23,3.31 -1.24,4.09 -4.29,2.29 -7.92,5.9 -9.25,9.19 -1.41,3.46 -1.61,4.23 0.41,7.91 1.35,2.47 3.32,2.61 7.82,2.34 3.55,-0.2 7.97,-0.46 11.35,2.7 2.53,2.36 11.2,3.08 14.04,0.57 0.88,-0.79 3.57,-3.16 15.05,-4.27 0.85,-0.08 5.07,-0.61 5.07,-3.2l0 -0.6c0,-1.67 1.35,-3.03 3.02,-3.03 1.67,0 3.02,1.36 3.02,3.03l0 0.6c0,4.99 -4.13,8.6 -10.53,9.22 -7.03,0.67 -10.65,1.91 -11.62,2.77 -2.4,2.13 -6.22,3.07 -10.11,3.07z"/>
  <path class="fil1" d="M249.73 249.36c-0.47,0 -0.94,-0.11 -1.39,-0.34 -1.48,-0.77 -2.05,-2.6 -1.28,-4.07 1.86,-3.59 4.83,-12.53 5.95,-15.9 0.31,-0.94 0.52,-1.56 0.57,-1.69 1,-2.44 1.85,-3.89 2.48,-4.94 1,-1.71 1.41,-2.42 1.62,-6.83 0.19,-3.98 -1.97,-8.23 -4.2,-12.24 -5.61,-10.08 -11.2,-17.51 -15.35,-20.37 -1.37,-0.94 -1.72,-2.82 -0.77,-4.2 0.95,-1.37 2.83,-1.72 4.2,-0.77 6.36,4.38 12.86,14.6 17.2,22.41 2.53,4.56 5.22,9.89 4.96,15.46 -0.27,5.64 -1.03,7.17 -2.46,9.6 -0.59,1 -1.25,2.13 -2.09,4.17 -0.04,0.12 -0.2,0.6 -0.43,1.3 -1.27,3.82 -4.23,12.78 -6.33,16.79 -0.53,1.03 -1.59,1.62 -2.68,1.62z"/>
  <path class="fil1" d="M155.39 221.69c-1.4,0 -2.65,-0.97 -2.95,-2.39 -2.32,-10.95 12.3,-21.46 24.06,-29.91 3.56,-2.57 6.64,-4.78 8.43,-6.46 2.86,-2.68 6.08,-5.71 10.2,-8.3 1.42,-0.89 3.28,-0.47 4.17,0.94 0.89,1.42 0.46,3.28 -0.95,4.17 -3.63,2.29 -6.49,4.98 -9.26,7.58 -2.1,1.96 -5.33,4.29 -9.07,6.98 -9.23,6.63 -23.18,16.66 -21.67,23.75 0.34,1.63 -0.7,3.23 -2.33,3.58 -0.22,0.04 -0.42,0.06 -0.63,0.06z"/>
  <path class="fil1" d="M206.89 231.84c-1.13,0 -2.02,-0.11 -2.79,-0.38 -9.68,-3.28 -30.25,-5.84 -39.78,-6.74 -1.66,-0.15 -2.88,-1.62 -2.73,-3.28 0.16,-1.66 1.59,-2.89 3.29,-2.73 10.49,0.99 30.97,3.57 41.16,7.03 0.92,0.25 4.65,-0.23 7.65,-0.62 3.35,-0.43 7.52,-0.97 11.93,-1.2 4.22,-0.23 8.98,-0.2 12.81,-0.18 2.7,0.02 5.04,0.03 6.22,-0.05 1.66,-0.12 3.11,1.14 3.22,2.81 0.12,1.66 -1.14,3.11 -2.8,3.22 -1.41,0.1 -3.73,0.08 -6.68,0.06 -3.75,-0.02 -8.41,-0.05 -12.45,0.17 -4.18,0.22 -8.06,0.72 -11.48,1.16 -3.42,0.44 -5.79,0.73 -7.57,0.73z"/>
  <path class="fil1" d="M209.93 258.45c-7.32,0 -14.82,-1.23 -19.17,-2.87 -4.59,-1.74 -9.07,-4.17 -12.6,-6.84 -5.13,-3.87 -7.56,-9.4 -9.91,-14.76 -1.7,-3.88 -3.32,-7.56 -5.83,-10.17 -1.15,-1.2 -1.12,-3.11 0.09,-4.27 1.2,-1.16 3.11,-1.12 4.27,0.08 3.26,3.39 5.16,7.74 7,11.94 2.13,4.85 4.14,9.44 8.01,12.36 3.09,2.33 7.04,4.46 11.11,6.01 7.4,2.8 23.05,3.54 29.53,0.49 3.36,-1.58 6.32,-4.39 8.56,-8.12 10.45,-17.41 12.19,-17.52 13.59,-17.62 1.67,-0.08 3.1,1.15 3.21,2.82 0.08,1.22 -0.57,2.31 -1.58,2.86 -1.4,1.44 -6.05,8.4 -10.04,15.04 -2.85,4.77 -6.72,8.39 -11.17,10.49 -3.89,1.83 -9.43,2.56 -15.07,2.56z"/>
  <g>
   <path class="fil1" d="M234.07 237.52l0 0 0 0zm-19.91 7.91c-3.28,0 -32.32,-0.25 -44.33,-8.91 -1.36,-0.97 -1.66,-2.86 -0.69,-4.21 0.98,-1.36 2.86,-1.66 4.22,-0.69 8.52,6.14 30.41,7.77 40.8,7.77 2.54,0 17.9,-1.49 20.46,-2.26 1.2,-0.68 2.75,-0.46 3.72,0.6 1.12,1.24 1.02,3.15 -0.22,4.27 -2.48,2.25 -23.76,3.43 -23.96,3.43z"/>
  </g>
  <path class="fil1" d="M91.46 130.39c0,0 0,0.01 -0.01,0.01 0.01,0 0.01,-0.01 0.01,-0.01zm16.8 64.04c-0.64,0 -1.31,-0.13 -1.97,-0.39 -5.26,-2.09 -10.26,-13.65 -10.69,-15.34 -0.73,-2.86 -2.27,-5.72 -3.91,-8.75 -1.98,-3.67 -4.23,-7.83 -5.59,-12.96 -0.81,-3.03 -2.46,-25.74 0.32,-29.93 0.31,-0.46 0.55,-0.85 0.75,-1.19 1.65,-2.68 2.91,-3.57 6.72,-3.19 5.63,0.55 9.93,8.14 13.72,14.84 0.93,1.65 1.81,3.21 2.53,4.3 0.92,1.39 0.53,3.27 -0.86,4.18 -1.39,0.92 -3.27,0.53 -4.18,-0.86 -0.83,-1.26 -1.76,-2.9 -2.75,-4.64 -2.12,-3.75 -6.54,-11.56 -9.05,-11.81 -0.32,-0.03 -0.56,-0.05 -0.74,-0.06 -0.07,0.12 -0.15,0.26 -0.24,0.4 -0.22,0.36 -0.47,0.78 -0.79,1.26 -1.07,2.86 -0.59,21.41 0.41,25.15 1.18,4.44 3.15,8.1 5.07,11.64 1.81,3.37 3.53,6.55 4.44,10.12 0.62,2.4 5.16,10.49 7.07,11.22 -0.14,-0.05 -0.57,-0.08 -0.97,0.17 -0.57,0.35 -0.91,0.85 -1.08,1.22l5.94 0.51c-0.09,0.95 -0.22,2.5 -1.64,3.38 -0.76,0.48 -1.62,0.73 -2.51,0.73z"/>
  <path class="fil1" d="M100.78 170.15c0.02,0.02 0.04,0.03 0.06,0.05 -0.02,-0.02 -0.04,-0.03 -0.06,-0.05zm6.68 8.36c-0.98,0 -1.94,-0.48 -2.52,-1.36 -0.41,-0.62 -1.03,-1.69 -1.69,-2.87 -0.72,-1.26 -2.04,-3.58 -2.55,-4.2 -4.38,-3.58 -8.75,-16.25 -6.66,-22.38 0.98,-2.85 3.22,-4.49 6.14,-4.49 1.67,0 3.03,1.35 3.03,3.02 0,1.67 -1.36,3.02 -3.03,3.02 -0.15,0 -0.23,0.02 -0.25,0.03 -0.11,0.11 -0.49,0.91 -0.4,2.84 0.23,5.04 3.29,11.97 5.01,13.3 1,0.77 1.92,2.3 3.96,5.87 0.59,1.04 1.12,1.99 1.48,2.54 0.92,1.39 0.53,3.26 -0.86,4.18 -0.51,0.34 -1.09,0.5 -1.66,0.5z"/>
  <path class="fil1" d="M278.8 170.26c-1.66,0 -3.02,-1.35 -3.02,-3.02 0,-5.41 0.12,-10.14 0.23,-14.73 0.39,-15.73 0.67,-27.1 -4.55,-45.12 -1.21,-4.17 -2.17,-8.83 -3.1,-13.33 -2.61,-12.68 -5.31,-25.8 -13.62,-30.69 -4.69,-2.77 -10.99,-2.85 -19.27,-0.26 -1.03,0.33 -1.47,0.81 -2.21,1.6 -1.13,1.21 -2.68,2.87 -6.04,3.34 -4.29,0.59 -7.74,-1.65 -11.38,-4.02 -4.04,-2.62 -9.07,-5.89 -17.32,-7.03 -8.09,-1.12 -10.96,-3.21 -13.49,-5.05 -2.02,-1.46 -3.61,-2.62 -8.45,-3.36 -11.2,-1.73 -14.24,0.32 -18.08,2.9 -11.02,7.43 -20.54,13.83 -20.54,28.97 0,3.74 0.19,7.1 0.38,10.35 0.44,7.71 0.86,15 -1.7,24.32 -0.42,1.53 -0.47,2.82 -0.52,4.18 -0.22,5.3 -1.15,9.27 -11.75,15.93 -4.55,2.85 -5.39,5.1 -6.2,7.27 -0.51,1.35 -1.09,2.89 -2.43,4.24 -1.18,1.18 -3.09,1.18 -4.28,0 -1.18,-1.18 -1.18,-3.1 0,-4.27 0.4,-0.4 0.65,-1.03 1.05,-2.09 0.94,-2.52 2.37,-6.33 8.65,-10.27 8.7,-5.46 8.78,-7.56 8.92,-11.05 0.06,-1.49 0.13,-3.34 0.73,-5.53 2.3,-8.37 1.93,-14.86 1.5,-22.39 -0.2,-3.33 -0.39,-6.77 -0.39,-10.69 0,-18.35 11.8,-26.3 23.21,-33.98 5.17,-3.48 9.8,-5.79 22.37,-3.86 6.28,0.96 8.83,2.81 11.08,4.44 2.15,1.57 4.18,3.05 10.76,3.95 9.6,1.33 15.49,5.16 19.79,7.96 3.42,2.22 5.27,3.37 7.26,3.09 1.24,-0.17 1.59,-0.55 2.45,-1.47 0.96,-1.03 2.28,-2.44 4.82,-3.24 10,-3.13 17.89,-2.87 24.14,0.81 10.63,6.26 13.61,20.71 16.48,34.68 0.95,4.59 1.84,8.93 2.98,12.87 5.48,18.91 5.18,31.29 4.79,46.95 -0.11,4.55 -0.23,9.25 -0.23,14.58 0,1.67 -1.35,3.02 -3.02,3.02z"/>
  <path class="fil1" d="M279.05 154.71c-0.23,0 -0.48,-0.03 -0.72,-0.09 -1.62,-0.4 -2.61,-2.03 -2.21,-3.65 3.07,-12.48 2.62,-29.59 1.77,-44.68l-0.07 -1.25c-0.37,-6.73 -0.76,-13.69 -1.97,-19.24 -3.19,-14.71 -10.21,-25.2 -18.34,-37.36 -13.41,-20.05 -48.72,-35.05 -75.58,-32.11 -13.93,1.53 -26.03,6.26 -32,8.95 -25.71,11.54 -33.66,16.08 -45.64,43.28 -7.32,16.64 -7.47,24.24 -7.66,33.88 -0.11,5.49 -0.23,11.71 -1.71,20.37 -0.29,1.65 -1.84,2.76 -3.49,2.47 -1.64,-0.28 -2.75,-1.84 -2.47,-3.49 1.41,-8.21 1.52,-13.94 1.63,-19.47 0.19,-9.9 0.36,-18.45 8.17,-36.19 12.8,-29.06 22.51,-34.6 48.69,-46.36 6.3,-2.83 19.07,-7.82 33.82,-9.44 26.1,-2.87 64.99,10.41 81.27,34.76 8.11,12.13 15.78,23.6 19.22,39.42 1.3,6.02 1.7,13.23 2.09,20.19l0.07 1.25c0.87,15.54 1.33,33.21 -1.94,46.46 -0.33,1.38 -1.57,2.3 -2.93,2.3z"/>
  <path class="fil1" d="M193.88 301.69c-8.66,0 -18.14,-2.44 -31.51,-8.8 -9.87,-4.69 -18.83,-10.71 -24.57,-16.51 -16.8,-16.97 -35.97,-64.23 -31.59,-85.84 0.33,-1.64 1.92,-2.69 3.56,-2.36 1.63,0.33 2.69,1.92 2.36,3.56 -3.99,19.69 14.45,64.72 29.96,80.39 5.19,5.24 13.74,10.96 22.88,15.3 25.69,12.22 34.64,9.15 56.24,1.72 3.28,-1.12 6.82,-2.34 10.73,-3.6 5.31,-2.95 34.26,-52 41.23,-67.61 1.68,-3.75 3.38,-7.93 4.79,-11.77 2.6,-7.06 1.77,-13.81 1.16,-18.73 -0.11,-0.91 -0.22,-1.76 -0.29,-2.54 -0.27,-2.76 -0.74,-4.89 -1.24,-7.15 -0.75,-3.4 -1.6,-7.26 -1.79,-13.66 -0.05,-1.67 1.26,-3.06 2.93,-3.11 1.69,-0.03 3.06,1.26 3.11,2.93 0.17,5.84 0.92,9.24 1.65,12.54 0.52,2.33 1.05,4.74 1.35,7.87 0.07,0.73 0.17,1.52 0.28,2.38 0.64,5.23 1.61,13.13 -1.49,21.56 -1.48,4.01 -3.19,8.21 -4.94,12.14 -4.29,9.6 -36.62,68.21 -44.89,70.89 -3.87,1.26 -7.38,2.46 -10.62,3.58 -11.42,3.92 -19.87,6.82 -29.3,6.82z"/>
  <path class="fil1" d="M163.75 285.41c-0.54,0 -1.08,-0.15 -1.57,-0.45 -21.87,-13.44 -32.85,-55.77 -32.85,-75.69 0,-1.67 1.35,-3.02 3.02,-3.02 1.67,0 3.02,1.35 3.02,3.02 0,21.25 11.68,59.3 29.97,70.55 1.42,0.87 1.86,2.73 0.99,4.15 -0.57,0.93 -1.56,1.44 -2.58,1.44z"/>
  <path class="fil1" d="M173.74 350.33c-0.85,0 -1.7,-0.35 -2.29,-1.04 -8.18,-9.48 -15.27,-19.73 -22.78,-30.59 -9.27,-13.41 -18.86,-27.28 -31.14,-40.45l-0.61 -0.65c-3.64,-3.91 -5.75,-6.19 -6.71,-7.65 -0.78,-1.21 -2.38,-3.16 -4.23,-5.42 -8.97,-10.96 -16.12,-20.56 -12.68,-26.97 2.23,-4.16 4,-10.5 5.71,-16.63 2.08,-7.47 3.88,-13.92 6.6,-17.34 1.04,-1.3 2.94,-1.52 4.24,-0.48 1.31,1.04 1.53,2.94 0.49,4.24 -1.96,2.46 -3.76,8.94 -5.51,15.2 -1.8,6.45 -3.66,13.11 -6.21,17.86 -1.81,3.38 8.25,15.67 12.03,20.3 2.04,2.49 3.65,4.45 4.62,5.93 0.72,1.1 3.44,4.02 6.07,6.84l0.61 0.65c12.58,13.5 22.29,27.55 31.69,41.13 7.41,10.73 14.42,20.85 22.38,30.08 1.09,1.26 0.95,3.17 -0.31,4.26 -0.57,0.49 -1.27,0.73 -1.97,0.73z"/>
  <path class="fil1" d="M48.3 265.31c-1.18,0 -2.3,-0.69 -2.79,-1.85 -0.65,-1.53 0.07,-3.3 1.61,-3.95 13.17,-5.57 19.71,-9.79 26.08,-21.53 0.8,-1.46 1.55,-2.89 2.3,-4.29 6.56,-12.32 12.23,-22.98 27.38,-29.63l0.28 -0.25c1.23,-1.13 3.14,-1.04 4.26,0.19 1.13,1.23 1.05,3.14 -0.19,4.27l-0.64 0.59c-0.25,0.23 -0.54,0.41 -0.85,0.54 -13.56,5.8 -18.32,14.75 -24.91,27.13 -0.75,1.41 -1.52,2.86 -2.32,4.33 -7.15,13.18 -15.06,18.31 -29.04,24.21 -0.38,0.16 -0.78,0.24 -1.17,0.24z"/>
  <path class="fil1" d="M299.17 274.68c-14.02,0 -23.28,-2.9 -33.99,-6.27 -4.01,-1.26 -8.15,-2.56 -12.89,-3.83 -1.61,-0.43 -2.57,-2.08 -2.14,-3.69 0.43,-1.61 2.09,-2.58 3.7,-2.14 4.86,1.3 9.07,2.62 13.13,3.9 10.67,3.35 19.1,5.99 32.19,5.99 1.67,0 3.02,1.36 3.02,3.02 0,1.67 -1.35,3.02 -3.02,3.02z"/>
  <path class="fil1" d="M221.25 323.36c0,0 0,0 0,0 0,0 0,0 0,0zm-15.07 2.41c-0.19,0.45 -0.68,1.02 -1.34,1.65 0.53,-0.3 1.08,-0.84 1.35,-1.64l-0.01 -0.01zm-39.49 -13.8c-0.85,2.63 1.19,16.44 6.65,22.26 2.15,2.29 3.83,2.16 5.04,1.79 3.46,-1.04 9.21,-3.97 15.37,-7.82 0.66,-0.42 5.42,-4.01 7.13,-5.31 0.87,-1.32 3.45,-1.71 17.47,-1.71 1.22,0 2.31,0.74 2.78,1.85 1.96,2.19 14.92,7.22 19.39,8.18 0.5,-1.11 1.29,-3.66 2.32,-9.56 0.1,-0.54 0.17,-0.97 0.23,-1.25 1.13,-5.63 1.1,-7.19 1.05,-10.3 -0.02,-1.17 -0.05,-2.54 -0.02,-4.36 -0.04,-0.36 -0.08,-0.63 -0.12,-0.82 -0.44,0.02 -1.05,0.07 -1.57,0.11 -1.04,0.09 -2.33,0.21 -3.87,0.21 -2.68,0 -9.58,2.41 -13.28,3.7 -3.77,1.31 -4.55,1.59 -5.56,1.46 -4.02,-0.52 -5.84,-1.13 -7.16,-1.58 -1.43,-0.48 -2.14,-0.72 -6.4,-0.36 -3.58,0.3 -5.57,1.1 -7.03,1.68 -1.11,0.44 -2.14,0.85 -3.35,0.76 -1.34,-0.11 -2.93,-0.27 -4.67,-0.45 -6.91,-0.72 -17.36,-1.8 -22.18,-0.06 -1.02,0.36 -1.73,0.87 -2.22,1.58zm10.42 30.3c-3.47,0 -6.75,-1.86 -9.45,-5.43 -5.92,-7.81 -8.79,-23.85 -6.13,-28.02 1.22,-1.9 3.01,-3.29 5.34,-4.12 6.12,-2.2 16.94,-1.08 24.84,-0.26 1.59,0.16 3.05,0.31 4.3,0.42 0.2,-0.07 0.56,-0.21 0.86,-0.33 1.6,-0.64 4.29,-1.71 8.76,-2.09 5.25,-0.45 6.65,-0.08 8.84,0.65 1.09,0.37 2.44,0.83 5.52,1.25 0.66,-0.19 2.04,-0.67 3.27,-1.1 6.1,-2.13 11.86,-4.04 15.28,-4.04 1.27,0 2.38,-0.1 3.35,-0.19 3.01,-0.26 7.57,-0.66 8.24,6.31 0.01,0.11 0.01,0.23 0.01,0.34 -0.03,1.82 0,3.18 0.02,4.33 0.06,3.32 0.09,5.32 -1.17,11.6 -0.05,0.24 -0.11,0.63 -0.2,1.11 -1.71,9.75 -3.31,14.7 -7.31,14.7 -2.16,0 -19.21,-4.96 -24.55,-10.16 -3.12,0.06 -10.14,0.24 -12.35,0.42 -2.66,2.46 -7.56,5.62 -7.63,5.66 -3.93,2.46 -11.34,6.83 -16.81,8.49 -1.02,0.3 -2.03,0.46 -3.03,0.46z"/>
  <path class="fil1" d="M237.16 302.47c-0.99,0 -1.95,-0.48 -2.53,-1.36 -2.96,-4.51 -2.99,-11.7 -2.93,-13.8 0.04,-1.64 1.39,-2.93 3.01,-2.93 0.03,0 0.06,0 0.09,0 1.67,0.05 2.98,1.44 2.93,3.11 -0.12,4.27 0.64,8.32 1.95,10.31 0.91,1.39 0.53,3.26 -0.87,4.18 -0.51,0.33 -1.09,0.49 -1.65,0.49z"/>
  <path class="fil2" d="M174.99 147.82c3,0 5.44,2.43 5.44,5.44 0,3 -2.44,5.43 -5.44,5.43 -3.01,0 -5.44,-2.43 -5.44,-5.43 0,-3.01 2.43,-5.44 5.44,-5.44z"/>
  <path class="fil2" d="M253.55 151.62c3,0 5.44,2.44 5.44,5.44 0,3 -2.44,5.44 -5.44,5.44 -3.01,0 -5.44,-2.44 -5.44,-5.44 0,-3 2.43,-5.44 5.44,-5.44z"/>
  <path class="fil1" d="M223.64 54.07c-0.65,0 -1.28,-0.3 -1.67,-0.87 -1.24,-1.82 -1.75,-3.35 -2.12,-4.47 -0.16,-0.46 -0.32,-0.94 -0.44,-1.11 -2.48,-3.63 -2.68,-6.03 -2.85,-8.16 -0.18,-2.17 -0.34,-4.04 -3.51,-7.76 -0.72,-0.84 -0.62,-2.11 0.22,-2.83 0.85,-0.73 2.12,-0.63 2.84,0.22 4.02,4.71 4.25,7.54 4.46,10.04 0.15,1.86 0.29,3.47 2.17,6.21 0.43,0.64 0.67,1.35 0.93,2.11 0.33,1 0.7,2.12 1.63,3.47 0.62,0.92 0.39,2.17 -0.53,2.8 -0.35,0.24 -0.74,0.35 -1.13,0.35z"/>
  <path class="fil1" d="M236.57 51.49c-0.17,0 -0.34,-0.02 -0.5,-0.07 -3.68,-0.94 -4.13,-3.66 -4.5,-5.85 -0.42,-2.53 -0.89,-5.39 -5.54,-8.68 -0.91,-0.64 -1.12,-1.9 -0.48,-2.8 0.64,-0.92 1.9,-1.13 2.8,-0.49 6.03,4.27 6.73,8.5 7.2,11.31 0.35,2.15 0.46,2.34 1.52,2.61 1.08,0.28 1.72,1.38 1.45,2.45 -0.24,0.91 -1.05,1.52 -1.95,1.52z"/>
  <path class="fil1" d="M246.99 50.97c-0.64,0 -1.26,-0.3 -1.65,-0.86 -0.73,-1.04 -1.08,-2.32 -1.46,-3.68 -0.66,-2.41 -1.21,-4.03 -2.76,-4.6 -1.05,-0.38 -1.58,-1.54 -1.2,-2.58 0.38,-1.05 1.54,-1.58 2.59,-1.2 3.6,1.32 4.56,4.78 5.25,7.31 0.27,0.97 0.55,1.97 0.88,2.44 0.63,0.91 0.41,2.16 -0.5,2.8 -0.35,0.25 -0.75,0.37 -1.15,0.37z"/>
  <path class="fil1" d="M206.18 47.28c-1.11,0 -2.02,-0.9 -2.02,-2.01l0 -0.46c0.01,-2.17 0.02,-5.45 -1.34,-6.79 -4.16,-4.11 -4.44,-7.49 -4.63,-9.96 -0.18,-2.12 -0.25,-3.1 -2.44,-4.44 -0.95,-0.58 -1.25,-1.82 -0.66,-2.77 0.58,-0.95 1.81,-1.24 2.76,-0.66 3.94,2.41 4.16,5.14 4.35,7.55 0.18,2.24 0.35,4.36 3.45,7.42 2.56,2.52 2.55,6.82 2.54,9.66l0 0.45c0,1.11 -0.9,2.01 -2.01,2.01z"/>
  <path class="fil1" d="M191.02 43.83c-0.33,0 -0.68,-0.08 -0.99,-0.26 -0.97,-0.55 -1.3,-1.78 -0.75,-2.75 -0.04,-0.15 -0.46,-0.8 -0.66,-1.11 -2.75,-4.33 -3.4,-7.46 -3.87,-9.74 -0.66,-3.22 -0.91,-4.43 -8.5,-6.58 -1.07,-0.31 -1.69,-1.42 -1.39,-2.49 0.31,-1.07 1.42,-1.69 2.49,-1.39 9.04,2.57 10.35,4.8 11.35,9.65 0.42,2.09 0.96,4.68 3.3,8.34 0.66,1.05 2.01,3.15 0.77,5.31 -0.37,0.66 -1.04,1.02 -1.75,1.02z"/>
  <path class="fil1" d="M172.23 37.26c-0.11,0 -0.22,-0.01 -0.34,-0.03 -3.4,-0.58 -5.27,-3.37 -6.92,-5.84 -1.91,-2.86 -2.87,-3.97 -4.54,-3.56 -1.1,0.26 -2.18,-0.4 -2.44,-1.48 -0.26,-1.08 0.4,-2.17 1.48,-2.43 4.6,-1.12 7.05,2.55 8.85,5.23 1.31,1.97 2.55,3.82 4.25,4.11 1.1,0.19 1.84,1.23 1.65,2.33 -0.17,0.98 -1.02,1.67 -1.99,1.67z"/>
  <path class="fil1" d="M157.5 41.47c-1.98,0 -3.85,-1.23 -5.82,-2.53 -3.31,-2.18 -5.68,-3.51 -8.27,-2.18 -0.99,0.51 -2.21,0.12 -2.71,-0.87 -0.51,-0.99 -0.12,-2.2 0.87,-2.71 4.88,-2.51 9.18,0.33 12.32,2.4 1.3,0.85 2.96,1.93 3.65,1.86 1.09,-0.06 2.07,0.76 2.15,1.87 0.08,1.11 -0.76,2.07 -1.87,2.15 -0.11,0.01 -0.22,0.01 -0.32,0.01z"/>
  <path class="fil1" d="M141.52 50.51c-0.17,0 -0.33,-0.02 -0.5,-0.06 -3.09,-0.79 -5.42,-2 -7.47,-3.06 -3.08,-1.6 -5.12,-2.65 -8.32,-1.79 -1.08,0.28 -2.18,-0.35 -2.47,-1.43 -0.29,-1.07 0.35,-2.17 1.42,-2.46 4.72,-1.27 7.87,0.37 11.22,2.1 1.95,1.01 3.98,2.06 6.62,2.74 1.08,0.28 1.72,1.38 1.45,2.45 -0.24,0.91 -1.05,1.51 -1.95,1.51z"/>
  <path class="fil1" d="M132.94 60.49c-0.19,0 -0.38,-0.02 -0.56,-0.08 -4.81,-1.38 -13.19,-2.75 -15.74,-1.62 -1.02,0.46 -2.21,0 -2.66,-1.01 -0.46,-1.02 0,-2.21 1.01,-2.66 5.17,-2.31 18.37,1.38 18.5,1.42 1.07,0.31 1.69,1.43 1.38,2.49 -0.25,0.89 -1.06,1.46 -1.93,1.46z"/>
  <path class="fil1" d="M106.51 76.94c-0.62,0 -1.23,-0.29 -1.62,-0.82 -0.66,-0.9 -0.47,-2.16 0.42,-2.82 3.96,-2.91 7.31,-2.52 10.85,-2.1 2.25,0.26 4.58,0.53 7.56,0.09 0.03,-0.01 0.51,-0.02 1,-0.01l0.63 0.01c1.11,0.01 2.01,0.91 2,2.02 0,1.11 -0.9,2.01 -2.01,2.01l-1.19 -0.02c-3.43,0.49 -6.22,0.16 -8.46,-0.1 -3.19,-0.38 -5.31,-0.63 -7.99,1.34 -0.36,0.27 -0.78,0.4 -1.19,0.4z"/>
  <path class="fil1" d="M101.11 93.84c-0.83,0 -1.6,-0.52 -1.9,-1.34 -0.37,-1.05 0.17,-2.2 1.22,-2.57 4.68,-1.68 8.39,-1.33 11.67,-1.02 3.21,0.31 5.98,0.57 9.59,-0.82 0.63,-0.25 1.45,-0.27 3.41,-0.23l0.58 0.01c1.11,0 2.01,0.9 2.01,2.01 0,1.11 -0.9,2.02 -2.01,2.02l-0.67 -0.02c-0.45,0 -1.59,-0.03 -2,0.01 -4.44,1.69 -7.92,1.35 -11.29,1.03 -3.14,-0.3 -6.1,-0.58 -9.93,0.8 -0.23,0.08 -0.46,0.12 -0.68,0.12z"/>
  <path class="fil1" d="M100.14 111.94c-0.67,0 -1.33,-0.33 -1.71,-0.94 -0.59,-0.95 -0.31,-2.19 0.64,-2.78 6.74,-4.23 11.13,-3.86 17.2,-3.33 2.39,0.2 5.1,0.44 8.44,0.44 1.11,0 2.01,0.9 2.01,2.01 0,1.11 -0.9,2.01 -2.01,2.01 -3.51,0 -6.31,-0.24 -8.78,-0.45 -5.88,-0.51 -9.12,-0.78 -14.72,2.73 -0.34,0.21 -0.71,0.31 -1.07,0.31z"/>
  <path class="fil1" d="M106.22 124.26c-0.73,0 -1.44,-0.4 -1.8,-1.1 -0.5,-0.99 -0.11,-2.2 0.88,-2.71 5.47,-2.79 9.61,-2.44 14.85,-1.99l1.56 0.14c1.11,0.09 1.94,1.06 1.84,2.17 -0.08,1.1 -1.02,1.93 -2.17,1.84l-1.57 -0.13c-5.14,-0.44 -8.23,-0.71 -12.68,1.56 -0.29,0.15 -0.6,0.22 -0.91,0.22z"/>
  <path class="fil1" d="M200.94 327.64c-1.3,0 -2.5,-0.85 -2.89,-2.17l-4.95 -16.73c-0.47,-1.6 0.44,-3.28 2.04,-3.75 1.6,-0.48 3.28,0.44 3.75,2.04l4.95 16.73c0.48,1.6 -0.44,3.28 -2.04,3.75 -0.28,0.09 -0.57,0.13 -0.86,0.13z"/>
  <path class="fil1" d="M218.35 327.22c-0.1,0 -0.21,0 -0.31,-0.02 -1.66,-0.17 -2.87,-1.65 -2.7,-3.31l1.74 -16.8c0.17,-1.66 1.66,-2.86 3.31,-2.69 1.66,0.17 2.87,1.65 2.7,3.31l-1.74 16.8c-0.16,1.55 -1.47,2.71 -3,2.71z"/>
 </g>
</svg>
