<?xml version="1.0" encoding="UTF-8"?>
<!DOCTYPE svg PUBLIC "-//W3C//DTD SVG 1.1//EN" "http://www.w3.org/Graphics/SVG/1.1/DTD/svg11.dtd">
<!-- Creator: CorelDRAW 2018 (64-Bit) -->
<svg xmlns="http://www.w3.org/2000/svg" xml:space="preserve" width="845px" height="845px" version="1.1" style="shape-rendering:geometricPrecision; text-rendering:geometricPrecision; image-rendering:optimizeQuality; fill-rule:evenodd; clip-rule:evenodd"
viewBox="0 0 360.18 360.18"
 xmlns:xlink="http://www.w3.org/1999/xlink">
 <defs>
  <style type="text/css">
   <![CDATA[
    .fil0 {fill:none}
    .fil2 {fill:black}
    .fil1 {fill:black;fill-rule:nonzero}
   ]]>
  </style>
 </defs>
 <g id="Слой_x0020_1">
  <metadata id="CorelCorpID_0Corel-Layer"/>
  <rect class="fil0" width="360.18" height="360.18"/>
 </g>
 <g id="_1">
  <metadata id="CorelCorpID_1Corel-Layer"/>
  <path class="fil1" d="M190.54 139.23c-1.4,0 -2.65,-0.97 -2.95,-2.39 -0.35,-1.63 0.69,-3.24 2.32,-3.58 2.63,-0.57 12.27,-2.42 19.1,-3.58 10.91,-1.85 15.81,-1.19 21.48,-0.43 3.48,0.47 7.43,1 13.57,1 1.67,0 3.02,1.35 3.02,3.02 0,1.67 -1.35,3.02 -3.02,3.02 -6.54,0 -10.71,-0.56 -14.37,-1.05 -5.4,-0.73 -9.66,-1.3 -19.67,0.4 -6.75,1.14 -16.26,2.97 -18.85,3.52 -0.21,0.05 -0.42,0.07 -0.63,0.07z"/>
  <path class="fil1" d="M267.2 137.29c-1.59,0 -2.93,-1.25 -3.01,-2.86 -0.09,-1.67 1.19,-3.09 2.85,-3.18 0.7,-0.04 2.3,-0.86 3.7,-1.59 3.32,-1.72 7.87,-4.07 13.78,-4.07 1.67,0 3.02,1.35 3.02,3.02 0,1.66 -1.35,3.02 -3.02,3.02 -4.44,0 -7.92,1.8 -11,3.4 -2.23,1.15 -4.15,2.15 -6.15,2.25 -0.06,0.01 -0.12,0.01 -0.17,0.01z"/>
  <path class="fil1" d="M235.4 156.27c-0.55,0 -1.11,-0.15 -1.61,-0.46 -3.37,-2.13 -4.89,-4.05 -6,-5.45 -1.5,-1.89 -2.18,-2.75 -10.43,-2.75 -1.41,0 -3.8,0.28 -6.33,0.57 -6.22,0.71 -10.16,1.08 -12.47,0.23 -1.56,-0.58 -2.36,-2.32 -1.78,-3.88 0.58,-1.57 2.31,-2.37 3.88,-1.79 1.26,0.4 6.53,-0.2 9.69,-0.57 2.7,-0.31 5.25,-0.6 7.01,-0.6 10.11,0 12.39,1.53 15.16,5.04 0.98,1.23 2,2.51 4.49,4.08 1.41,0.89 1.84,2.76 0.95,4.17 -0.58,0.91 -1.56,1.41 -2.56,1.41z"/>
  <g>
   <path class="fil1" d="M280.23 139.78l0 0 0 0zm0 0c0,0.01 -0.01,0.01 -0.01,0.01 0,0 0.01,0 0.01,-0.01zm-21.69 12.49c-0.47,0 -0.95,-0.11 -1.4,-0.34 -1.47,-0.78 -2.04,-2.6 -1.27,-4.08 3.53,-6.74 19.93,-8.27 23.01,-8.29 0.32,-0.02 1.61,-0.22 2.14,-0.34 1.13,-0.56 2.54,-0.37 3.47,0.57 1.18,1.19 1.18,3.1 0,4.28 -1.44,1.43 -5.52,1.53 -5.56,1.53 -6.11,0.05 -16.48,2.72 -17.71,5.05 -0.54,1.04 -1.59,1.62 -2.68,1.62z"/>
  </g>
  <g>
   <path class="fil1" d="M231.92 176.9l0 0 0 0zm26.61 21.82c-3.78,0 -7.74,-1.42 -10.51,-2.41l-0.96 -0.33c-0.56,0.1 -1.71,0.44 -2.58,0.71 -4.36,1.3 -10.94,3.28 -15.19,-0.33 -6.82,-5.78 -0.85,-14.53 1.7,-18.27 0.38,-0.56 0.84,-1.24 1.01,-1.55 0.43,-1.45 1.86,-2.38 3.39,-2.13 1.65,0.27 2.76,1.83 2.49,3.47 -0.17,1.08 -0.82,2.04 -1.9,3.62 -3.27,4.79 -5,8.37 -2.79,10.25 1.75,1.49 6.64,0.03 9.55,-0.85 2.62,-0.79 4.36,-1.31 5.91,-0.77l1.4 0.49c7.13,2.55 10.79,3.14 12.35,-0.35 1.28,-2.85 4.44,-3.47 6.74,-3.92 0.8,-0.16 2.09,-0.41 2.58,-0.68 -0.01,-0.27 -0.12,-0.96 -0.77,-2.29 -0.7,-1.44 -1.85,-2.77 -3.18,-4.3 -1.62,-1.86 -3.44,-3.97 -5.05,-6.91 -1.01,-0.88 -1.34,-2.36 -0.72,-3.62 0.75,-1.49 2.56,-2.1 4.05,-1.35l0.31 0.15c0.58,0.28 1.05,0.75 1.34,1.33 1.37,2.68 3.03,4.59 4.64,6.44 1.54,1.78 2.99,3.46 4.04,5.61 1.54,3.15 1.79,5.66 0.78,7.68 -1.39,2.8 -4.55,3.42 -6.86,3.87 -0.77,0.15 -2.02,0.39 -2.46,0.64 -2.07,4.44 -5.6,5.8 -9.31,5.8z"/>
  </g>
  <path class="fil1" d="M232.33 219.68c-2,0 -3.77,-0.31 -5.35,-0.58 -1.27,-0.23 -2.37,-0.42 -3.32,-0.39 -1.6,0.08 -3.06,-1.28 -3.1,-2.95 -0.04,-1.67 1.28,-3.05 2.94,-3.09 1.56,-0.04 3.06,0.22 4.52,0.48 2.74,0.47 5.33,0.93 8.67,-0.3 3.21,-1.18 13.12,-3.45 17.74,-2.49 3.96,0.82 5.3,0.5 7.17,0.06 1.4,-0.34 3.15,-0.75 5.94,-0.75 1.67,0 3.02,1.35 3.02,3.02 0,1.67 -1.35,3.02 -3.02,3.02 -2.09,0 -3.28,0.28 -4.55,0.59 -2.22,0.52 -4.51,1.07 -9.79,-0.03 -2.69,-0.56 -11.07,1.02 -14.42,2.25 -2.39,0.88 -4.52,1.16 -6.45,1.16z"/>
  <path class="fil1" d="M250.96 230.99c-4.22,0 -7.85,-1.46 -10.83,-2.67 -1.99,-0.8 -3.86,-1.56 -5.45,-1.73 -1.66,-0.17 -2.87,-1.65 -2.7,-3.31 0.17,-1.66 1.69,-2.87 3.32,-2.7 2.44,0.25 4.81,1.21 7.09,2.14 4.82,1.95 9.36,3.79 15.45,0.19 1.44,-0.85 3.29,-0.37 4.14,1.06 0.85,1.44 0.37,3.29 -1.07,4.14 -3.61,2.13 -6.93,2.88 -9.95,2.88z"/>
  <path class="fil1" d="M288.35 128.8c-1.67,0 -3.02,-1.35 -3.02,-3.02 0,-5.93 0.85,-9.34 1.67,-12.64 1.03,-4.14 2,-8.04 1.3,-17.47 -0.42,-5.75 -2.52,-10.46 -4.75,-15.45 -1.42,-3.17 -2.88,-6.45 -3.89,-10.01 -4.44,-15.75 -17.98,-26.57 -31.95,-35.91 -4.31,-2.89 -16.56,-7.61 -22.28,-9.17 -8.78,-2.39 -19.57,-3.56 -32.99,-3.56 -1.67,0 -3.02,-1.35 -3.02,-3.02 0,-1.67 1.35,-3.02 3.02,-3.02 13.96,0 25.27,1.23 34.58,3.77 5.44,1.48 18.7,6.4 24.05,9.97 14.21,9.51 29.42,21.62 34.41,39.3 0.89,3.14 2.2,6.08 3.58,9.19 2.35,5.24 4.77,10.66 5.27,17.46 0.76,10.41 -0.37,14.97 -1.47,19.37 -0.77,3.09 -1.49,6.01 -1.49,11.19 0,1.67 -1.35,3.02 -3.02,3.02z"/>
  <path class="fil1" d="M285.01 126.13c-1.16,0 -2.26,-0.67 -2.76,-1.8 -0.12,-0.27 -1.37,-3.81 -1.38,-3.84 -0.06,-0.18 -6.78,-25.99 -6.86,-26.54 -1.89,-12.71 -11.93,-17.87 -19.27,-21.64l-0.61 -0.32c-7.5,-3.87 -9.58,-7.03 -12.72,-11.83 -1.07,-1.63 -2.28,-3.48 -3.93,-5.7 -5.75,-7.78 -11.21,-13.23 -16.22,-16.22 -2.91,-1.73 -28.24,-14.86 -31.4,-16.06 -1.15,-0.23 -2.11,-1.11 -2.37,-2.33 -0.35,-1.63 0.69,-3.24 2.32,-3.59 1.31,-0.27 1.62,-0.34 17.32,7.71 6.85,3.52 15.39,7.99 17.22,9.08 5.7,3.4 11.76,9.39 17.99,17.81 1.75,2.36 3.01,4.29 4.12,5.99 2.99,4.55 4.35,6.63 10.44,9.77l0.61 0.31c7.5,3.86 20.05,10.32 22.45,25.99 0.56,2.22 6.46,25.01 6.68,25.78 0.06,0.17 1.1,3.06 1.2,3.34 0.57,1.53 -0.17,3.25 -1.69,3.86 -0.38,0.15 -0.76,0.23 -1.14,0.23z"/>
  <path class="fil1" d="M114.86 184.74c-0.2,0 -0.41,-0.02 -0.61,-0.06 -7.79,-1.59 -15.91,-3.53 -22.47,-6.87 -7.67,-3.91 -18,-12.62 -23.8,-23.26 -1.44,-2.66 -2.32,-6.43 -2.96,-9.19 -0.17,-0.72 -0.32,-1.38 -0.46,-1.92 -0.91,-3.47 -1.57,-5.68 -2.01,-7.15 -1.11,-3.72 -1.15,-4.16 -0.72,-7.82 0.18,-1.54 0.46,-3.85 0.76,-7.62 0.55,-7.01 5.14,-14.38 9.19,-20.88 1.55,-2.49 3.01,-4.84 4.06,-6.88 2.63,-5.11 6.55,-10.73 10.33,-16.17 4.64,-6.66 9.44,-13.55 11.97,-19.58 5.16,-12.28 20.68,-21.67 30.95,-27.87 3.04,-1.84 6.49,-3.93 7.14,-4.7 7.62,-12.86 43.11,-12.57 55.2,-8.41 1.58,0.55 2.41,2.26 1.87,3.84 -0.54,1.58 -2.26,2.42 -3.84,1.87 -12.56,-4.32 -43.03,-2.68 -48.12,5.9 -1.02,1.72 -3.53,3.29 -9.13,6.66 -9.01,5.46 -24.1,14.58 -28.5,25.05 -2.78,6.62 -7.76,13.77 -12.58,20.69 -3.84,5.52 -7.47,10.73 -9.91,15.49 -1.17,2.26 -2.69,4.71 -4.31,7.3 -3.69,5.92 -7.87,12.62 -8.3,18.16 -0.31,3.9 -0.59,6.28 -0.78,7.86 -0.31,2.64 -0.31,2.64 0.51,5.38 0.45,1.51 1.13,3.78 2.06,7.35 0.16,0.59 0.32,1.3 0.51,2.08 0.56,2.42 1.33,5.73 2.38,7.67 5.15,9.46 14.61,17.4 21.23,20.77 5.92,3.01 13.56,4.83 20.94,6.33 1.63,0.34 2.69,1.93 2.35,3.57 -0.29,1.43 -1.55,2.41 -2.95,2.41z"/>
  <path class="fil1" d="M110.19 176.09c-0.28,0 -0.56,-0.04 -0.84,-0.12 -10.6,-3.08 -12.66,-5.06 -16.7,-9.66 -1.55,-1.77 -3.49,-3.97 -6.76,-6.93 -9.1,-8.22 -10.3,-13.32 -11.36,-17.83 -0.52,-2.21 -0.97,-4.12 -2.36,-6.45 -6.89,-11.46 -3.15,-30.94 7.14,-37.21 1.43,-0.87 3.29,-0.42 4.16,1.01 0.86,1.42 0.41,3.28 -1.01,4.15 -7.38,4.5 -10.2,20.46 -5.11,28.94 1.88,3.14 2.51,5.82 3.06,8.18 0.94,4 1.83,7.78 9.53,14.73 3.52,3.19 5.59,5.54 7.25,7.43 3.28,3.73 4.51,5.13 13.84,7.83 1.6,0.47 2.53,2.14 2.06,3.74 -0.38,1.33 -1.59,2.19 -2.9,2.19z"/>
  <path class="fil1" d="M122.51 172.76c-0.39,0 -0.78,-0.08 -1.16,-0.24 -5.49,-2.29 -37.52,-30.23 -37.85,-40.23 -0.13,-4.03 -0.77,-6.78 -1.33,-9.2 -1.31,-5.6 -1.85,-9.44 3.14,-17.54 0.87,-1.42 2.73,-1.87 4.15,-0.99 1.42,0.87 1.87,2.73 0.99,4.15 -3.94,6.4 -3.45,8.47 -2.4,13.01 0.6,2.56 1.34,5.75 1.49,10.37 0.18,5.73 28.52,32.51 34.14,34.86 1.54,0.64 2.26,2.41 1.62,3.95 -0.48,1.16 -1.61,1.86 -2.79,1.86z"/>
  <path class="fil1" d="M129.5 157.44c-0.58,0 -1.17,-0.17 -1.69,-0.52l-0.83 -0.57c-5.7,-3.22 -19.92,-19.09 -20.78,-25.19 -0.38,-2.67 -1.35,-4.62 -2.38,-6.68 -2,-4 -4.27,-8.55 -0.75,-17.16 0.63,-1.54 2.38,-2.29 3.93,-1.65 1.55,0.63 2.29,2.39 1.66,3.93 -2.49,6.08 -1.27,8.51 0.57,12.18 1.14,2.29 2.44,4.89 2.95,8.54 0.5,3.2 12.81,18.08 17.82,20.8 0.09,0.05 0.18,0.1 0.26,0.16l0.94 0.63c1.38,0.94 1.74,2.82 0.81,4.2 -0.59,0.86 -1.54,1.33 -2.51,1.33z"/>
  <g>
   <path class="fil1" d="M137.4 140.75l0.02 0 -0.02 0zm-1.23 5.37c-0.14,0 -0.27,-0.01 -0.41,-0.03 -0.74,-0.1 -2.26,-0.31 -3.38,-1.98 -11.19,-16.77 -15.04,-31.51 -11.43,-43.82 0.46,-1.6 2.15,-2.53 3.74,-2.05 1.6,0.47 2.52,2.14 2.05,3.75 -3.04,10.38 0.43,23.24 10.3,38.21 1.4,0.42 2.32,1.81 2.12,3.3 -0.21,1.52 -1.5,2.62 -2.99,2.62z"/>
  </g>
  <path class="fil1" d="M146.15 142.12c-1.36,0 -2.55,-0.92 -2.91,-2.23 -0.05,-0.09 -0.11,-0.19 -0.18,-0.31 -0.6,-1.01 -1.61,-2.7 -2.2,-5.65 -3.07,-15.42 -1.46,-26.79 5.38,-38.03 0.87,-1.42 2.72,-1.88 4.15,-1.01 1.42,0.87 1.88,2.73 1.01,4.15 -6.06,9.96 -7.4,19.73 -4.61,33.71 0.38,1.93 0.98,2.94 1.46,3.75 0.38,0.64 0.78,1.3 0.9,2.19 0.22,1.65 -0.93,3.17 -2.59,3.4 -0.13,0.02 -0.27,0.03 -0.41,0.03z"/>
  <path class="fil1" d="M130.17 170.42c-1.26,0 -2.43,-0.79 -2.86,-2.05 -0.53,-1.58 0.31,-3.29 1.89,-3.83 9.14,-3.1 9.66,-3.14 10.09,-3.17 16.47,-1.3 18.55,-14.24 20.96,-29.23 0.37,-2.3 0.74,-4.6 1.17,-6.85 1.39,-7.35 20.37,-39.21 24.59,-43.31 1.2,-1.16 3.11,-1.13 4.27,0.07 1.16,1.2 1.13,3.11 -0.06,4.27 -3.92,3.8 -21.8,34.46 -22.87,40.09 -0.41,2.2 -0.77,4.45 -1.13,6.69 -2.46,15.24 -5.23,32.51 -26.25,34.27 -0.96,0.26 -5.14,1.64 -8.83,2.89 -0.32,0.11 -0.65,0.16 -0.97,0.16z"/>
  <path class="fil1" d="M184.79 110.1c-0.69,0 -1.38,-0.24 -1.94,-0.71 -1.25,-1.07 -1.44,-2.92 -0.39,-4.19 0.77,-0.93 1.59,-1.33 2.34,-1.44 8.42,-7.8 12.55,-15.95 17.32,-25.36 1.36,-2.68 2.76,-5.46 4.32,-8.32 4.78,-8.81 7.79,-10.69 11.23,-12.23 1.21,-0.54 2.09,-0.93 3.25,-2.12 1.17,-1.19 3.08,-1.21 4.27,-0.04 1.19,1.17 1.21,3.08 0.05,4.27 -1.96,2 -3.7,2.78 -5.1,3.41 -2.16,0.97 -4.2,1.88 -8.39,9.59 -1.52,2.79 -2.9,5.53 -4.25,8.17 -4.9,9.67 -9.53,18.81 -18.96,27.4 -0.34,0.31 -1.18,1.07 -2.39,1.25 -0.43,0.21 -0.89,0.32 -1.36,0.32z"/>
  <path class="fil1" d="M217.42 78.51c-1.67,0 -3.02,-1.35 -3.02,-3.02 0,-1.66 1.35,-3.02 3.02,-3.02 4.4,0 7.6,-2.58 11.3,-5.58 2.97,-2.39 6.04,-4.88 10.03,-6.24 1.58,-0.54 3.3,0.3 3.84,1.88 0.54,1.58 -0.3,3.29 -1.88,3.84 -2.98,1.01 -5.51,3.06 -8.19,5.22 -4.01,3.25 -8.56,6.92 -15.1,6.92z"/>
  <path class="fil1" d="M106.22 81.54c-1.3,0 -2.51,-0.85 -2.91,-2.15 -1.02,-3.3 1.29,-8.88 3.4,-12.99 4.15,-8.02 8.8,-11.17 12.91,-13.95 3.04,-2.05 5.44,-3.68 7.34,-7.07 4.13,-7.4 9.42,-8.9 15.03,-10.5 4.66,-1.32 9.94,-2.82 16.15,-8.3 2.07,-1.82 6.04,-2.72 9.6,-3.41 0.31,-0.06 0.55,-0.11 0.72,-0.14 1.16,-0.41 2.51,-0.08 3.34,0.93 1.06,1.28 0.87,3.19 -0.41,4.25 -0.65,0.53 -1.19,0.64 -2.5,0.89 -4.99,0.97 -6.37,1.68 -6.75,2.01 -7.24,6.39 -13.48,8.16 -18.5,9.59 -5.11,1.45 -8.49,2.41 -11.41,7.63 -2.6,4.64 -5.97,6.92 -9.22,9.13 -3.69,2.49 -7.49,5.06 -10.92,11.71 -2.52,4.86 -3.1,7.82 -2.99,8.49 0.49,1.59 -0.41,3.25 -2,3.75 -0.29,0.09 -0.59,0.13 -0.88,0.13z"/>
  <path class="fil1" d="M127.51 79.18c-0.38,0 -0.77,-0.07 -1.15,-0.22 -1.54,-0.63 -2.28,-2.4 -1.65,-3.94 3.15,-7.69 7.77,-10.76 11.49,-13.21 1.18,-0.79 2.29,-1.53 3.17,-2.31 1.71,-1.52 1.91,-2.33 2.17,-3.34 0.88,-3.44 2.47,-5.28 10.06,-7.79 1.31,-0.43 2.58,-0.76 3.82,-1.07 4.53,-1.15 6.96,-1.91 8.29,-5.32 2.13,-5.44 8.27,-7 14.21,-8.5 3.53,-0.9 7.19,-1.82 9.3,-3.47 1.31,-1.02 3.21,-0.79 4.24,0.53 1.02,1.31 0.79,3.21 -0.53,4.24 -3.11,2.42 -7.39,3.51 -11.53,4.56 -4.45,1.12 -9.06,2.29 -10.06,4.84 -2.53,6.46 -7.79,7.8 -12.44,8.97 -1.13,0.29 -2.3,0.59 -3.4,0.95 -5.68,1.88 -5.87,2.62 -6.1,3.55 -0.47,1.82 -1.16,3.82 -4,6.36 -1.21,1.07 -2.56,1.97 -3.87,2.83 -3.33,2.21 -6.79,4.5 -9.23,10.46 -0.47,1.17 -1.6,1.88 -2.79,1.88z"/>
  <path class="fil1" d="M158.81 72.19c-1.01,0 -2,-0.51 -2.57,-1.44 -0.88,-1.42 -0.44,-3.28 0.98,-4.15 1.84,-1.14 3.36,-2.05 4.64,-2.82 6.12,-3.67 6.12,-3.67 10.12,-10 0.54,-0.86 1.15,-1.83 1.85,-2.92 0.78,-1.21 2.01,-1.6 3.58,-2.09 2.43,-0.75 6.49,-2.02 10.04,-6.2 2.92,-3.44 7.14,-3.82 11.21,-4.18 3.61,-0.32 7.34,-0.65 10.7,-3 1.37,-0.96 3.25,-0.62 4.21,0.74 0.95,1.37 0.62,3.25 -0.75,4.21 -4.68,3.27 -9.64,3.71 -13.62,4.07 -3.61,0.32 -5.89,0.59 -7.15,2.07 -4.68,5.51 -9.99,7.17 -12.84,8.06 -0.26,0.08 -0.49,0.15 -0.69,0.21l-1.44 2.26c-4.63,7.33 -4.97,7.66 -12.11,11.95 -1.26,0.76 -2.76,1.66 -4.57,2.78 -0.5,0.3 -1.05,0.45 -1.59,0.45z"/>
  <path class="fil1" d="M54.39 273.9c-0.61,0 -1.22,-0.18 -1.75,-0.56 -1.35,-0.96 -1.68,-2.84 -0.72,-4.2 1.67,-2.35 20.63,-23.13 34.98,-38.33 13.05,-13.83 19.3,-20.95 21.57,-24.59 0.85,-1.36 0.91,-1.67 1.36,-4.09 0.41,-2.15 1.09,-5.75 2.85,-12.43 0.75,-2.82 1.16,-5.18 1.52,-7.27 0.87,-5.07 1.57,-9.07 5.95,-14.58 1.04,-1.3 2.94,-1.52 4.24,-0.48 1.31,1.04 1.52,2.94 0.49,4.25 -3.42,4.29 -3.92,7.13 -4.73,11.84 -0.38,2.21 -0.81,4.71 -1.63,7.78 -1.71,6.47 -2.33,9.8 -2.75,12.01 -0.5,2.64 -0.72,3.84 -2.17,6.16 -2.57,4.12 -8.61,11.04 -22.31,25.55 -15.63,16.54 -33.13,35.85 -34.43,37.67 -0.6,0.82 -1.53,1.27 -2.47,1.27z"/>
  <path class="fil1" d="M135.23 180.9c0.02,0 0.11,0.05 0.26,0.12 0.22,0.09 0.42,0.2 0.61,0.33 0.09,-0.01 0.17,-0.03 0.24,-0.04 0.25,-0.04 0.47,-0.08 0.62,-0.1 1.05,-0.13 1.44,-0.45 1.48,-0.52 0.04,-0.12 -0.05,-0.71 -0.72,-1.49 -0.47,-0.54 -0.7,-0.51 -1.11,-0.3 -0.96,0.5 -1.46,1.66 -1.38,2 0,0 0,0 0,0zm0.03 6.6c-1.24,0 -2.58,-0.32 -3.49,-1.59 -0.04,-0.05 -0.07,-0.11 -0.11,-0.16 -1.62,-1.2 -2.53,-3 -2.48,-5.07 0.08,-3.19 2.48,-6.44 5.59,-7.55 2.72,-0.97 5.54,-0.18 7.53,2.13 2.03,2.36 2.7,5.21 1.77,7.61 -0.91,2.37 -3.24,3.95 -6.37,4.34l-0.29 0.05c-0.58,0.1 -1.34,0.24 -2.15,0.24z"/>
  <path class="fil1" d="M136.64 196.26c-0.87,4.08 -1.18,7.21 0.19,8.47 0.59,-1.87 0.69,-6.22 -0.11,-8.26 -0.02,-0.06 -0.05,-0.13 -0.08,-0.21zm0.68 14.91c-0.61,0 -1.23,-0.11 -1.86,-0.34 -7.87,-2.9 -5.62,-12.25 -3.98,-19.08 0.65,-2.7 1.32,-5.48 1.24,-7.16 -0.07,-1.67 1.22,-3.08 2.89,-3.15 1.7,-0.07 3.08,1.22 3.15,2.88 0,0.14 0.01,0.27 0.01,0.41 0.2,0.22 0.36,0.47 0.49,0.75 0.58,1.31 1.28,3.44 1.96,5.49 0.43,1.31 0.83,2.54 1.13,3.31 1.32,3.4 1.76,12.02 -1.53,15.38 -0.98,0.99 -2.2,1.51 -3.5,1.51z"/>
  <path class="fil1" d="M153.31 257.67c-0.48,0 -0.96,-0.11 -1.41,-0.35 -8.97,-4.76 -18.8,-17.31 -27.48,-28.38 -4.45,-5.69 -8.66,-11.06 -12.04,-14.44 -1.18,-1.18 -1.18,-3.09 0,-4.27 1.18,-1.18 3.09,-1.18 4.27,0 3.65,3.64 7.96,9.15 12.53,14.98 8.3,10.6 17.71,22.62 25.55,26.77 1.47,0.79 2.03,2.62 1.25,4.09 -0.54,1.02 -1.59,1.6 -2.67,1.6z"/>
  <path class="fil1" d="M262.1 217.39c-0.1,0.06 -0.18,0.12 -0.24,0.18 0.08,-0.07 0.16,-0.13 0.24,-0.18zm-26.23 41.06c-12.99,0 -30.66,-3.17 -40.8,-5.52 -15.73,-3.65 -24.63,-7.5 -35.85,-20.64 -3.25,-3.8 -6,-7.9 -8.42,-12.54 -0.77,-1.48 -0.2,-3.3 1.28,-4.07 1.48,-0.77 3.31,-0.2 4.08,1.28 2.2,4.23 4.71,7.96 7.65,11.41 10.04,11.76 17.27,15.11 32.62,18.67 19.57,4.54 43.56,7.26 49.86,3.96 3.94,-2.07 6.45,-4.82 6.72,-7.35 0.02,-0.21 4.47,-22.16 8.72,-25.97 2.36,-2.82 16.57,-29.23 17.31,-32.84 0.25,-1.62 0.91,-3.66 1.67,-6.02 1.41,-4.36 3.16,-9.79 2.95,-14.61 -0.1,-2.29 0.05,-4.4 0.18,-6.45 0.27,-3.87 0.51,-7.52 -0.71,-12.72 -0.56,-2.4 -2.78,-19.03 4,-22.03 1.53,-0.66 3.31,0.02 3.98,1.55 0.68,1.52 -0.02,3.31 -1.54,3.98 -1.31,1.26 -1.72,10.21 -0.56,15.12 1.43,6.08 1.13,10.56 0.86,14.51 -0.13,1.97 -0.26,3.82 -0.17,5.78 0.25,5.9 -1.69,11.91 -3.24,16.73 -0.66,2.02 -1.28,3.94 -1.46,5.11 -0.57,3.72 -16.6,34.74 -19.64,36.69 0.22,-0.14 0.33,-0.27 0.33,-0.27 -1.84,2.23 -6.38,19.28 -6.67,22.08 -0.49,4.61 -4.1,9.01 -9.93,12.06 -2.87,1.51 -7.61,2.1 -13.22,2.1z"/>
  <g>
   <path class="fil1" d="M292.96 160.77l0.01 0 -0.01 0zm-0.46 3.66c-0.59,0 -1.2,-0.18 -1.73,-0.55 -1.36,-0.95 -1.69,-2.84 -0.73,-4.2l0.36 -0.51c2.35,-4.28 3.1,-12.61 0.6,-16.39 -2.19,-3.32 -3.68,-6.64 -5.26,-10.16l-0.64 -1.43c-0.69,-1.52 -0.02,-3.31 1.5,-4 1.52,-0.68 3.31,-0.01 4,1.51l0.65 1.44c1.48,3.29 2.87,6.4 4.79,9.31 3.96,6 2.94,16.84 -0.46,22.82 -0.05,0.08 -0.1,0.16 -0.15,0.24l-0.45 0.64c-0.59,0.84 -1.52,1.28 -2.48,1.28z"/>
  </g>
  <g>
   <path class="fil1" d="M211.09 292.29l0.02 0 -0.02 0zm-2.84 3.93c-0.68,0 -1.38,-0.24 -1.94,-0.71 -1.08,-0.91 -2.19,-1.85 -0.29,-18.96 0.55,-5.01 2.1,-17.27 4.43,-22.71 0.66,-1.53 2.44,-2.24 3.97,-1.58 1.53,0.65 2.24,2.43 1.59,3.96 -2.98,6.95 -5.36,31.94 -4.95,35.86 0.4,1 0.25,2.19 -0.5,3.07 -0.59,0.71 -1.45,1.07 -2.31,1.07z"/>
  </g>
  <path class="fil1" d="M252.55 340.93c-1.3,0 -2.5,-0.85 -2.9,-2.16 -0.22,-0.65 -1.98,-4.13 -15.18,-21.08l-0.25 -0.33c-5.28,-6.79 -10.32,-15.59 -15.19,-24.1 -3.89,-6.78 -7.91,-13.8 -11.9,-19.51 -0.95,-1.36 -0.62,-3.25 0.74,-4.2 1.37,-0.96 3.25,-0.63 4.21,0.74 4.15,5.93 8.24,13.07 12.19,19.97 4.77,8.33 9.7,16.94 14.71,23.39l0.26 0.33c13.38,17.19 15.69,21.35 16.2,23.05 0.48,1.6 -0.42,3.29 -2.02,3.77 -0.29,0.08 -0.58,0.13 -0.87,0.13z"/>
  <path class="fil1" d="M264.7 325.27c-1.18,0 -2.3,-0.7 -2.79,-1.86 -1.92,-4.62 -6.22,-11.46 -9.67,-16.95 -1.28,-2.05 -2.49,-3.96 -3.48,-5.61 -2.83,-4.72 -4.7,-6.31 -8.78,-9.8 -1.6,-1.37 -3.59,-3.07 -6.02,-5.3 -7.04,-6.48 -10.82,-11.61 -14.81,-17.03 -2.08,-2.82 -4.22,-5.73 -6.97,-9.04 -1.07,-1.29 -0.89,-3.19 0.4,-4.26 1.28,-1.06 3.18,-0.88 4.25,0.4 2.86,3.45 5.05,6.43 7.18,9.31 3.99,5.42 7.43,10.09 14.04,16.17 2.35,2.16 4.21,3.75 5.86,5.16 4.17,3.56 6.69,5.72 10.03,11.28 0.97,1.62 2.15,3.5 3.42,5.5 3.75,5.98 8.01,12.76 10.13,17.85 0.64,1.54 -0.08,3.31 -1.63,3.95 -0.38,0.16 -0.77,0.23 -1.16,0.23z"/>
  <path class="fil1" d="M240.54 350.53c-0.28,0 -0.56,-0.04 -0.84,-0.12 -18.55,-5.33 -34.62,-20.21 -50.16,-34.6 -5.61,-5.19 -10.9,-10.09 -16.24,-14.49 -16.75,-13.81 -46.89,-28.49 -69.75,-28.49 -11.94,0 -19.76,2.95 -27.32,5.8 -5.55,2.09 -10.78,4.07 -16.94,4.51 -1.64,0.12 -3.11,-1.13 -3.23,-2.8 -0.12,-1.66 1.13,-3.11 2.8,-3.22 5.28,-0.38 9.89,-2.12 15.23,-4.14 7.69,-2.9 16.42,-6.2 29.46,-6.2 24.53,0 55.59,15.03 73.6,29.88 5.47,4.51 10.82,9.46 16.49,14.71 15.03,13.91 30.56,28.3 47.73,33.24 1.6,0.46 2.53,2.13 2.07,3.73 -0.38,1.33 -1.59,2.19 -2.9,2.19z"/>
  <path class="fil1" d="M158.41 259.29c0.27,0.48 0.77,0.85 1.37,1.02 0.48,0.13 0.97,0.11 1.26,-0.05 0.28,-0.21 0.68,-1.24 0.65,-1.73 -0.03,-0.21 -0.16,-0.42 -0.25,-0.52 -2.25,-0.51 -3.18,-0.16 -3.3,-0.04 -0.06,0.11 -0.09,0.68 0.27,1.32zm1.99 7.15c-0.75,0 -1.51,-0.1 -2.25,-0.31 -2.15,-0.61 -3.98,-2.03 -5.02,-3.9l0 0c-1.49,-2.69 -1.41,-5.79 0.2,-7.92 1.31,-1.72 4.05,-3.48 9.66,-2.14 2.39,0.58 4.32,2.87 4.69,5.58 0.3,2.21 -0.8,6.14 -3.66,7.76 -1.07,0.62 -2.33,0.93 -3.62,0.93z"/>
  <path class="fil1" d="M171.79 272.83c-0.81,0 -1.62,-0.34 -2.2,-0.96 -0.08,-0.07 -0.19,-0.16 -0.33,-0.28 -1.24,-1.08 -3.84,-3.33 -5.47,-5.76 -0.93,-1.39 -0.56,-3.27 0.82,-4.19 1.39,-0.94 3.27,-0.57 4.19,0.82 1.19,1.76 3.45,3.73 4.42,4.57 0.6,0.51 0.84,0.72 1.1,1.13 0.91,1.4 0.52,3.27 -0.88,4.18 -0.51,0.33 -1.08,0.49 -1.65,0.49z"/>
  <path class="fil1" d="M176.35 273.92c-0.41,0 -0.74,0.09 -0.96,0.29 -0.4,0.37 -0.51,1.09 -0.26,1.68 0.42,0.94 1.7,1.38 3.54,1.2 0.32,-0.03 0.4,-0.1 0.5,-0.35 0.27,-0.67 0.1,-1.62 -0.11,-1.95 -1.04,-0.57 -2,-0.87 -2.71,-0.87zm1.58 9.25c-3.91,0 -6.96,-1.76 -8.32,-4.85 -1.31,-2.96 -0.59,-6.5 1.74,-8.6 2.68,-2.41 6.73,-2.45 10.83,-0.1 2.74,1.56 3.58,5.34 2.98,8.11 -0.65,3.03 -2.92,5.09 -5.92,5.38 -0.44,0.04 -0.88,0.06 -1.31,0.06z"/>
  <path class="fil1" d="M188.94 287.48c-0.81,0 -1.62,-0.33 -2.22,-0.97 -1.02,-1.11 -2.51,-2.2 -3.45,-2.54 -1.57,-0.55 -2.39,-2.28 -1.84,-3.85 0.56,-1.57 2.29,-2.4 3.86,-1.84 2.26,0.8 4.57,2.72 5.87,4.13 1.13,1.22 1.06,3.14 -0.17,4.27 -0.58,0.53 -1.31,0.8 -2.05,0.8z"/>
  <path class="fil1" d="M195.68 290.06c0,0 0,0 0,0 0,0 0,0 0,0zm-2.41 -1.42c-0.02,0 -0.03,0 -0.04,0.01 -0.08,0.11 -0.31,0.93 -0.03,1.67 0.19,0.48 0.45,0.65 0.99,0.66 0.92,0.02 1.25,-0.2 1.26,-0.2 0.05,-0.14 -0.01,-0.65 -0.12,-1.02 -1.13,-0.92 -1.84,-1.12 -2.06,-1.12zm0.97 8.38c-0.03,0 -0.06,0 -0.09,0 -3.3,-0.03 -5.9,-2.02 -6.81,-5.2 -0.92,-3.24 0.23,-6.74 2.75,-8.32 1.28,-0.81 4.78,-2.22 9.59,2.03 1.49,1.31 2.39,4.78 1.37,7.45 -0.47,1.22 -2.06,4.04 -6.81,4.04z"/>
  <path class="fil1" d="M206.55 296.87c-0.18,0 -0.29,0.03 -0.33,0.06 -0.13,0.13 -0.21,0.85 0.11,1.38 0.12,0.21 0.18,0.3 0.66,0.17 0.38,-0.1 0.76,-0.13 1.13,-0.1 0.21,-0.04 0.43,-0.07 0.65,-0.07 0.09,-0.08 0.19,-0.34 0.26,-0.64 -1.25,-0.64 -2.06,-0.8 -2.48,-0.8zm0.12 7.71c-2.32,0 -4.4,-1.19 -5.6,-3.3 -1.65,-2.88 -1.22,-6.63 0.99,-8.73 1.54,-1.47 5.07,-3.32 11.44,0.74 2.49,1.59 1.52,5.43 1.3,6.18 -0.88,3.01 -3.19,4.88 -6.03,4.88 -0.1,0 -0.2,0 -0.29,-0.01 -0.62,0.16 -1.22,0.24 -1.81,0.24z"/>
  <path class="fil1" d="M222.75 320.06c0,0.02 0,0.03 0,0.05 0,-0.02 0,-0.03 0,-0.05zm-1.17 6.05c-0.81,0 -1.61,-0.33 -2.21,-0.96 -0.03,-0.03 -2.69,-3.34 -2.66,-5.13 0.02,-1.21 -1.22,-4.86 -4.75,-11.1 -0.83,-1.45 -0.32,-3.29 1.14,-4.11 1.44,-0.83 3.29,-0.32 4.11,1.13 3.36,5.94 5.21,10.41 5.5,13.32 0.38,0.63 1.08,1.71 1.29,2.02 0.91,1.22 0.78,2.95 -0.36,4.01 -0.58,0.55 -1.32,0.82 -2.06,0.82z"/>
  <path class="fil2" d="M218.63 143.14c2.8,-0.07 5.12,2.14 5.19,4.93 0.07,2.79 -2.14,5.11 -4.93,5.18 -2.79,0.07 -5.11,-2.13 -5.18,-4.93 -0.07,-2.79 2.13,-5.11 4.92,-5.18z"/>
  <path class="fil2" d="M269.92 143.14c2.79,-0.07 5.11,2.14 5.18,4.93 0.07,2.79 -2.14,5.11 -4.93,5.18 -2.79,0.07 -5.11,-2.13 -5.18,-4.93 -0.07,-2.79 2.14,-5.11 4.93,-5.18z"/>
  <path class="fil1" d="M273.32 55.31c-0.68,0 -1.37,-0.24 -1.94,-0.71 -6.02,-5.07 -15.71,-7.38 -28.78,-6.89 -1.65,0.04 -3.07,-1.24 -3.13,-2.91 -0.06,-1.66 1.24,-3.07 2.9,-3.13 14.63,-0.55 25.69,2.24 32.9,8.31 1.28,1.07 1.44,2.97 0.37,4.25 -0.6,0.71 -1.46,1.08 -2.32,1.08z"/>
  <path class="fil1" d="M258.33 41.13c-0.61,0 -1.21,-0.18 -1.74,-0.55 -3.41,-2.42 -15.19,-4.98 -22.92,-4.98 -1.67,0 -3.02,-1.36 -3.02,-3.03 0,-1.66 1.35,-3.01 3.02,-3.01l0 0c7.45,0 21.1,2.32 26.41,6.09 1.36,0.96 1.68,2.85 0.72,4.21 -0.59,0.83 -1.52,1.27 -2.47,1.27z"/>
  <path class="fil1" d="M281.29 68.86c-0.51,0 -1.02,-0.12 -1.49,-0.39 -5.79,-3.29 -13.88,-4.84 -24.08,-4.58 -1.65,0.08 -3.06,-1.28 -3.1,-2.95 -0.04,-1.67 1.28,-3.05 2.95,-3.09 11.33,-0.3 20.46,1.53 27.22,5.37 1.44,0.82 1.95,2.66 1.13,4.11 -0.56,0.98 -1.58,1.53 -2.63,1.53z"/>
 </g>
</svg>
