<?xml version="1.0" encoding="UTF-8"?>
<!DOCTYPE svg PUBLIC "-//W3C//DTD SVG 1.1//EN" "http://www.w3.org/Graphics/SVG/1.1/DTD/svg11.dtd">
<!-- Creator: CorelDRAW 2018 (64-Bit) -->
<svg xmlns="http://www.w3.org/2000/svg" xml:space="preserve" width="845px" height="845px" version="1.1" style="shape-rendering:geometricPrecision; text-rendering:geometricPrecision; image-rendering:optimizeQuality; fill-rule:evenodd; clip-rule:evenodd"
viewBox="0 0 360.18 360.18"
 xmlns:xlink="http://www.w3.org/1999/xlink">
 <defs>
  <style type="text/css">
   <![CDATA[
    .fil0 {fill:none}
    .fil2 {fill:black}
    .fil1 {fill:black;fill-rule:nonzero}
   ]]>
  </style>
 </defs>
 <g id="Слой_x0020_1">
  <metadata id="CorelCorpID_0Corel-Layer"/>
  <rect class="fil0" width="360.18" height="360.18"/>
 </g>
 <g id="_1">
  <metadata id="CorelCorpID_1Corel-Layer"/>
  <path class="fil1" d="M216.67 147.15c-0.45,0 -0.91,-0.11 -1.35,-0.32 -1.26,-0.63 -1.5,-0.75 -2.69,-1.1 -3.53,-1.07 -5.96,-2.2 -8.1,-3.21 -3.91,-1.83 -6.26,-2.93 -12.99,-2.11 -2.49,0.31 -7.6,1.7 -12.54,3.05 -7.16,1.95 -11.66,3.14 -13.95,3.14 -1.67,0 -3.02,-1.35 -3.02,-3.02 0,-1.67 1.35,-3.02 3.02,-3.02 1.59,0 7.56,-1.63 12.36,-2.93 5.39,-1.47 10.47,-2.86 13.39,-3.21 8.45,-1.04 12.08,0.66 16.29,2.63 1.96,0.92 4.17,1.96 7.28,2.89 1.63,0.49 2.21,0.77 3.65,1.48 1.5,0.75 2.1,2.56 1.35,4.06 -0.52,1.06 -1.59,1.67 -2.7,1.67z"/>
  <path class="fil1" d="M107.12 156.68c-0.89,0 -1.76,-0.39 -2.36,-1.13 -1.05,-1.3 -0.84,-3.2 0.46,-4.25 7.29,-5.87 10.81,-8.47 17.89,-8.47 4.82,0 10.2,0.88 14.95,1.66 3.63,0.59 7.06,1.15 9.31,1.15 1.67,0 3.02,1.35 3.02,3.02 0,1.67 -1.35,3.02 -3.02,3.02 -2.74,0 -6.24,-0.57 -10.29,-1.23 -4.52,-0.74 -9.64,-1.58 -13.97,-1.58 -5.02,0 -7.23,1.6 -14.1,7.14 -0.56,0.45 -1.23,0.67 -1.89,0.67z"/>
  <path class="fil1" d="M146.59 165.61c-0.91,0 -1.8,-0.41 -2.4,-1.19 -1.61,-2.09 -5.25,-4.84 -7.53,-5.23 -6.72,-1.15 -7.01,-1.02 -11.79,1.23l-2.11 0.99c-1.5,0.69 -2.69,1.24 -3.9,2.16 -1.32,1.02 -3.22,0.77 -4.23,-0.55 -1.02,-1.32 -0.77,-3.22 0.55,-4.24 1.75,-1.34 3.35,-2.08 5.05,-2.86l2.07 -0.96c5.6,-2.64 7.07,-3.15 15.38,-1.72 4.4,0.75 9.26,4.84 11.3,7.5 1.02,1.33 0.77,3.22 -0.55,4.24 -0.55,0.42 -1.2,0.63 -1.84,0.63z"/>
  <path class="fil1" d="M177.88 160.91c-0.85,0 -1.7,-0.35 -2.3,-1.05 -1.08,-1.27 -0.94,-3.17 0.33,-4.26 1.3,-1.11 2.08,-2.13 2.84,-3.12 1.16,-1.52 2.36,-3.09 4.79,-4.15 4.65,-2.03 10.64,-2.36 16.05,-0.9 1.39,0.38 8.43,2.34 10.3,3.95 1.26,1.1 1.4,3 0.31,4.26 -1.09,1.27 -3,1.41 -4.26,0.32 -0.74,-0.47 -5.02,-1.91 -7.93,-2.7 -4.12,-1.11 -8.63,-0.89 -12.05,0.61 -0.96,0.42 -1.41,0.97 -2.42,2.29 -0.86,1.11 -1.93,2.51 -3.7,4.03 -0.57,0.48 -1.27,0.72 -1.96,0.72z"/>
  <path class="fil1" d="M159.77 208.47c-0.34,0 -0.67,-0.01 -0.97,-0.03 -2.35,-0.15 -4.06,-1.03 -5.57,-1.81 -1.05,-0.54 -2.05,-1.05 -3.35,-1.41 -6.63,-1.8 -8.33,-6.34 -7.71,-9.98 0.29,-1.77 1.2,-3.71 2.16,-5.76l0.47 -1.03c0.7,-1.52 2.5,-2.18 4.01,-1.49 1.52,0.7 2.18,2.49 1.48,4.01l-0.49 1.06c-0.74,1.6 -1.52,3.25 -1.68,4.22 -0.24,1.42 0.88,2.47 3.34,3.14 1.92,0.52 3.37,1.27 4.53,1.87 1.27,0.65 2.1,1.08 3.19,1.15 1.06,0.07 3.53,0.23 7.32,-3.35 2.03,-1.91 4.42,-2.22 6.34,-2.47 0.78,-0.1 1.52,-0.2 2.15,-0.38 0.66,-0.2 1.06,-0.44 1.19,-0.72 0.08,-0.19 0.46,-1.3 -0.88,-4.32 -0.67,-1.53 0.03,-3.31 1.55,-3.99 1.53,-0.67 3.31,0.03 3.98,1.55 1.69,3.82 1.96,6.87 0.83,9.3 -0.9,1.93 -2.56,3.26 -4.95,3.97 -1.1,0.32 -2.16,0.46 -3.1,0.58 -1.51,0.2 -2.39,0.33 -2.96,0.87 -4.52,4.27 -8.25,5.02 -10.88,5.02z"/>
  <path class="fil1" d="M146.31 226c-0.24,0 -0.48,0 -0.73,-0.01 -1.67,-0.04 -2.99,-1.42 -2.95,-3.09 0.04,-1.67 1.47,-3.02 3.09,-2.95 3.63,0.09 5.63,-0.6 7.38,-1.21 3.4,-1.18 6.04,-1.74 11.32,1.16 0.3,-0.1 0.81,-0.34 1.21,-0.52 1.73,-0.83 4.4,-2.03 8.26,-2.01 1.8,0.02 3.4,0.29 4.94,0.54 1.65,0.27 3.22,0.53 4.97,0.49 2.29,-0.05 4.21,-0.43 5.55,-1.1 1.49,-0.75 3.31,-0.14 4.06,1.35 0.74,1.49 0.13,3.31 -1.36,4.05 -2.17,1.09 -4.9,1.67 -8.12,1.74 -2.33,0.06 -4.31,-0.28 -6.08,-0.57 -1.39,-0.23 -2.69,-0.44 -4.04,-0.46 -2.49,-0.04 -4.08,0.71 -5.6,1.42 -1.68,0.8 -3.98,1.89 -6.53,0.46 -3.45,-1.93 -4.24,-1.66 -6.6,-0.84 -1.91,0.66 -4.48,1.55 -8.77,1.55z"/>
  <path class="fil1" d="M164.17 237.9c-6.59,0 -11.86,-3.42 -14.74,-5.29l-0.83 -0.53c-1.42,-0.88 -1.85,-2.75 -0.96,-4.17 0.88,-1.41 2.74,-1.84 4.16,-0.95 0.27,0.17 0.58,0.36 0.92,0.59 2.59,1.68 6.91,4.5 11.96,4.3 6.2,-0.24 12.38,-3.05 16.47,-4.92 1.18,-0.54 2.19,-1 2.99,-1.3 1.55,-0.6 3.3,0.17 3.91,1.73 0.6,1.55 -0.18,3.3 -1.73,3.9 -0.72,0.28 -1.61,0.69 -2.67,1.17 -4.52,2.06 -11.34,5.17 -18.73,5.46 -0.26,0.01 -0.5,0.01 -0.75,0.01z"/>
  <path class="fil1" d="M239.98 160.13c-0.34,0 -0.68,-0.05 -1.01,-0.17 -6,-2.12 -10.02,-11.58 -12.86,-19.59 -1.96,-5.53 -5.72,-12.42 -10.41,-15.18 -4.94,-2.9 -8.66,-7.09 -11.37,-12.82 -2.27,-4.77 -3.57,-10.05 -4.71,-15.04 -1.25,-5.46 -2.31,-10.68 -2.52,-12.02 -0.25,-1.65 0.87,-3.2 2.52,-3.46 1.65,-0.26 3.19,0.87 3.45,2.52 0.19,1.2 1.26,6.44 2.44,11.62 1.07,4.66 2.27,9.57 4.28,13.79 2.21,4.66 5.06,7.9 8.97,10.2 7.66,4.51 11.92,15.21 13.05,18.38 4.46,12.59 7.66,15.37 9.17,15.9 1.58,0.56 2.4,2.28 1.85,3.86 -0.44,1.24 -1.61,2.01 -2.85,2.01z"/>
  <path class="fil1" d="M239.04 139.64c-0.99,0 -1.97,-0.5 -2.55,-1.4l-0.15 -0.25c-5.71,-8.96 -10.65,-16.7 -18.17,-24.23 -6.87,-6.87 -9.92,-12.6 -11.25,-21.17 -0.94,-6.04 -2.74,-8.29 -4.18,-10.1 -0.94,-1.18 -1.91,-2.4 -2.31,-4.18 -0.37,-1.63 0.65,-3.25 2.27,-3.61 1.61,-0.37 3.25,0.65 3.62,2.27 0.09,0.42 0.48,0.92 1.15,1.76 1.68,2.12 4.23,5.31 5.42,12.93 1.12,7.24 3.62,11.9 9.55,17.83 7.99,7.99 13.09,15.99 18.99,25.26l0.16 0.24c0.89,1.41 0.48,3.28 -0.93,4.17 -0.5,0.33 -1.06,0.48 -1.62,0.48z"/>
  <path class="fil1" d="M236.06 112.89c-0.57,0 -1.15,-0.17 -1.67,-0.51 -7.33,-4.88 -12.49,-10.75 -16.72,-19.04 -0.65,-1.25 -1.43,-3.01 -2.34,-5.04 -2.39,-5.36 -7.37,-16.5 -10.53,-17.91 -1.52,-0.69 -2.21,-2.47 -1.53,-3.99 0.69,-1.53 2.47,-2.21 3.99,-1.53 4.88,2.18 9.04,10.79 13.59,20.96 0.87,1.96 1.63,3.65 2.2,4.76 3.73,7.32 8.27,12.49 14.69,16.76 1.39,0.93 1.77,2.8 0.84,4.19 -0.58,0.87 -1.54,1.35 -2.52,1.35z"/>
  <path class="fil1" d="M96.38 140.34c-1.59,0 -2.92,-1.24 -3.01,-2.85 -1.29,-22.76 31.08,-37.07 50.41,-41.94 1.33,-0.33 3.02,-0.72 4.97,-1.17 10.95,-2.53 36.59,-8.44 39.94,-16.63 0.63,-1.54 2.39,-2.29 3.93,-1.65 1.55,0.63 2.29,2.39 1.66,3.93 -4.18,10.23 -24.99,15.81 -44.17,20.24 -1.9,0.44 -3.56,0.82 -4.85,1.14 -16.33,4.11 -46.92,16.87 -45.86,35.74 0.1,1.66 -1.18,3.09 -2.84,3.19 -0.06,0 -0.12,0 -0.18,0z"/>
  <path class="fil1" d="M96.57 113.67c-1.56,0 -2.89,-1.19 -3.01,-2.78 -1.85,-23.24 55.15,-31.07 66.6,-32.4 8.91,-1.04 18.41,-2.76 27.57,-8.29 3.31,-2 6.52,-4.19 8.58,-5.86 1.29,-1.05 3.2,-0.85 4.25,0.45 1.05,1.29 0.85,3.2 -0.45,4.25 -2.3,1.86 -5.67,4.17 -9.26,6.33 -10.14,6.12 -20.41,8 -30,9.12 -25.22,2.93 -62.36,12.26 -61.27,25.93 0.13,1.66 -1.11,3.11 -2.77,3.25 -0.08,0 -0.16,0 -0.24,0z"/>
  <path class="fil1" d="M146.39 75.22c-9.9,0 -16.07,-1.64 -19.23,-5.08 -1.13,-1.22 -1.05,-3.13 0.17,-4.26 1.23,-1.13 3.14,-1.06 4.27,0.17 1.05,1.14 5.07,3.71 19.68,3.01 13.77,-0.66 28.84,-7.15 37.85,-11.03 4.51,-1.94 6.56,-2.8 7.98,-2.95 1.66,-0.17 3.15,1.03 3.32,2.69 0.17,1.65 -1.02,3.13 -2.66,3.32 -0.77,0.13 -3.68,1.39 -6.25,2.49 -9.38,4.04 -25.09,10.8 -39.95,11.51 -1.83,0.09 -3.56,0.13 -5.18,0.13z"/>
  <path class="fil1" d="M153.74 61.73c-4.22,0 -9.65,-1.39 -15.71,-4.03l-0.16 -0.06c-1.11,-0.41 -1.92,-1.47 -1.97,-2.73 -0.06,-1.67 1.24,-3.07 2.91,-3.13 0.69,-0.03 1.15,0.18 1.63,0.39 5.23,2.27 9.95,3.52 13.3,3.52 8.31,0 32.34,-2.48 35.62,-5.5 0.42,-1.4 1.8,-2.34 3.29,-2.14 1.65,0.21 2.82,1.73 2.61,3.39 -0.46,3.51 -4.07,6.31 -20.22,8.52 -9.21,1.26 -18.84,1.77 -21.3,1.77z"/>
  <path class="fil1" d="M198.72 304.66c-5.57,0 -11.07,-0.31 -16.46,-0.98 -24.14,-3.04 -43.09,-12.96 -57.93,-30.34 -7.52,-8.8 -8.31,-14.03 -9.09,-19.07 -0.4,-2.67 -0.79,-5.19 -2.32,-8.37 -7.65,-15.82 -8.83,-24.83 -10.2,-35.26 -0.79,-6.04 -1.61,-12.29 -3.8,-20.7 -0.33,-1.58 -0.72,-4.01 -1.13,-6.58 -0.5,-3.16 -1.27,-7.93 -1.6,-8.86 -3.33,-8.89 -2.02,-14.51 -1.06,-18.61 0.6,-2.57 0.89,-3.98 0.35,-5.44 -2.39,-6.56 -2.22,-13.66 -2.06,-20.54 0.04,-1.65 0.08,-3.29 0.08,-4.9 0,-0.74 0.01,-2.14 0.02,-3.84 0.02,-4.41 0.06,-11.8 -0.01,-13.11 -0.94,-16.27 4.29,-20.81 8.91,-24.83 2.13,-1.85 3.97,-3.45 5.08,-6.3 6.56,-16.76 9.41,-18.58 25.43,-26.66l0.42 -0.22c0.14,-0.19 0.32,-0.43 0.54,-0.72 3.8,-5.08 13.88,-18.59 23.54,-14.6 5.48,2.25 12.79,2.09 19.24,1.95 1.62,-0.04 3.2,-0.07 4.71,-0.07 18.05,0 24.62,8.76 30.99,17.24 3.24,4.32 6.31,8.41 10.95,11.5 4.74,3.16 12.06,13.77 14.19,16.95 8.44,12.57 8.56,20.02 6.84,34.03 -1.37,11.14 -2.31,31.78 0.99,39.78 0.97,2.33 0.85,6.19 0.55,13.39 -0.36,8.95 -0.87,21.2 2.18,29.27 6.82,18.06 3.03,34.56 -0.32,49.12 -1.72,7.49 -3.35,14.56 -3.35,21.07 0,1.67 -1.35,3.02 -3.02,3.02 -1.67,0 -3.02,-1.35 -3.02,-3.02 0,-7.19 1.7,-14.59 3.5,-22.42 3.31,-14.4 6.73,-29.28 0.56,-45.63 -3.49,-9.23 -2.95,-22.19 -2.56,-31.66 0.18,-4.29 0.4,-9.62 -0.1,-10.83 -4.06,-9.85 -2.7,-32.32 -1.4,-42.82 1.7,-13.89 1.14,-19.5 -5.86,-29.94 -5.04,-7.5 -10.07,-13.64 -12.53,-15.28 -5.5,-3.67 -9.03,-8.36 -12.44,-12.91 -5.97,-7.95 -11.12,-14.82 -26.15,-14.82 -1.47,0 -3.01,0.03 -4.58,0.07 -7.04,0.15 -15.03,0.33 -21.67,-2.41 -2.43,-1 -7.24,0.38 -16.4,12.64 -1.07,1.42 -1.39,1.85 -2.13,2.23l-0.95 0.48c-15.05,7.59 -16.62,8.38 -22.52,23.47 -1.66,4.24 -4.36,6.59 -6.75,8.66 -4.08,3.55 -7.61,6.62 -6.84,19.92 0.08,1.39 0.06,7.17 0.02,13.49 -0.01,1.69 -0.02,3.08 -0.02,3.81 0,1.66 -0.03,3.34 -0.08,5.05 -0.15,6.31 -0.3,12.84 1.7,18.32 1.17,3.22 0.5,6.09 -0.15,8.88 -0.86,3.72 -1.85,7.95 0.84,15.13 0.5,1.34 1.05,4.68 1.91,10.02 0.4,2.5 0.77,4.86 1.04,6.16 2.25,8.62 3.14,15.35 3.91,21.29 1.31,9.91 2.43,18.47 9.64,33.41 1.94,3.99 2.43,7.23 2.87,10.08 0.7,4.6 1.31,8.57 7.71,16.07 13.81,16.18 31.5,25.43 54.08,28.26 32,4.02 68.46,-5.7 100.63,-14.27 6.93,-1.84 13.48,-3.59 19.9,-5.18 1.62,-0.41 3.26,0.58 3.66,2.2 0.4,1.62 -0.59,3.26 -2.2,3.66 -6.37,1.58 -12.9,3.32 -19.8,5.16 -27.38,7.3 -57.83,15.41 -86.48,15.41z"/>
  <path class="fil1" d="M246.78 199.18c-0.03,0.04 -0.06,0.08 -0.09,0.11 0.03,-0.03 0.06,-0.07 0.09,-0.11zm-46.07 79.37c-0.17,0 -0.35,-0.02 -0.53,-0.05 -1.65,-0.29 -2.74,-1.86 -2.44,-3.5 1.87,-10.47 10.32,-20.15 18.49,-29.52 5.18,-5.94 10.07,-11.55 13.1,-17.06 4.3,-7.78 7.48,-17.97 9.58,-24.72 1.72,-5.53 2.31,-7.33 3.23,-8.39 1.1,-1.25 3,-1.38 4.26,-0.28 1.21,1.05 1.38,2.84 0.43,4.1 -0.4,0.75 -1.33,3.73 -2.15,6.37 -2.18,6.98 -5.47,17.52 -10.06,25.84 -3.34,6.08 -8.68,12.19 -13.84,18.11 -7.63,8.75 -15.52,17.79 -17.1,26.61 -0.26,1.46 -1.53,2.49 -2.97,2.49z"/>
  <path class="fil1" d="M102.05 179.43c-1.18,0 -2.3,-0.7 -2.79,-1.85 -0.65,-1.53 0.07,-3.3 1.6,-3.95 1.43,-1.06 1.02,-9.15 0.78,-13.99 -0.45,-9 -0.96,-19.2 3.3,-25.17 2.4,-3.38 11.13,-14.88 22.55,-21.23 8.77,-4.87 18.37,-7.42 27.65,-9.88 2.94,-0.78 5.97,-1.58 8.87,-2.44 11.64,-3.43 16.69,-6.67 27.01,-13.67 1.38,-0.94 3.26,-0.57 4.19,0.81 0.94,1.38 0.58,3.26 -0.8,4.19 -10.58,7.18 -16.21,10.79 -28.69,14.47 -2.98,0.87 -6.06,1.69 -9.03,2.48 -8.92,2.37 -18.16,4.82 -26.26,9.32 -10.31,5.74 -18.36,16.34 -20.58,19.46 -3.03,4.26 -2.56,13.74 -2.18,21.35 0.5,9.84 0.89,17.6 -4.45,19.86 -0.39,0.16 -0.78,0.24 -1.17,0.24z"/>
  <path class="fil1" d="M175.56 268.58c-11.86,0 -23.13,-4.42 -31.86,-13.17 -14.78,-14.82 -20.51,-23.79 -25.91,-35.17 -3.75,-7.91 -7.78,-17.22 -12.21,-36.31 -0.55,-2.39 -1.37,-7.52 -2.16,-12.48 -0.63,-3.93 -1.22,-7.64 -1.65,-9.85 -0.32,-1.63 0.75,-3.22 2.39,-3.54 1.62,-0.33 3.22,0.75 3.54,2.38 0.45,2.32 1.05,6.08 1.69,10.06 0.77,4.86 1.57,9.88 2.08,12.07 4.29,18.51 8.02,27.16 11.78,35.08 5.11,10.77 10.56,19.3 24.72,33.49 14.29,14.33 36.6,15.18 55.53,2.14 4.45,-3.08 10.24,-7.53 17.19,-13.25 1.29,-1.06 3.2,-0.87 4.25,0.42 1.06,1.28 0.88,3.19 -0.41,4.25 -7.09,5.82 -13.01,10.38 -17.61,13.55 -10.02,6.91 -20.92,10.33 -31.36,10.33z"/>
  <path class="fil1" d="M115.61 327.98c-1.26,0 -2.44,-0.79 -2.86,-2.06 -2.73,-8.13 -5.58,-14.91 -8.34,-21.47 -5.32,-12.71 -10.36,-24.7 -12.37,-42.36 -1.17,-10.31 -1.81,-20.54 -1.74,-28.05 0.03,-3.48 0.52,-6.34 0.95,-8.85 0.42,-2.48 0.78,-4.62 0.55,-6.59 -0.52,-4.27 -2.01,-8.33 -3.89,-13.46 -1.48,-4.04 -3.16,-8.6 -4.68,-14.21 -1.54,-5.65 -2.05,-13.41 -2.35,-20.25 -0.16,-3.83 -0.8,-8.9 -1.42,-13.81 -0.9,-7.23 -1.84,-14.7 -1.48,-19.53 0.77,-10.37 4.58,-22.92 7.81,-32.69 0.84,-2.54 1.57,-4.95 2.26,-7.22 1.85,-6.1 3.45,-11.37 5.97,-15.25 1.72,-2.65 3.34,-5.3 4.91,-7.87 6.56,-10.73 12.76,-20.87 24.43,-28.36 23.94,-15.38 37.41,-19.35 65.54,-19.35 16.26,0 26.13,4.08 39.8,9.74 20.24,8.38 34.35,25.57 41.94,51.12 6.77,22.81 13.16,55.14 13.64,65.6 0.63,13.65 -0.4,26.36 -1.48,39.82 -0.66,8.24 -1.35,16.75 -1.64,25.64l-0.14 4.31c-0.8,25.61 -1.15,26.35 -19.17,39.09 -2.25,1.58 -4.79,3.38 -7.66,5.47 -17.58,12.76 -27.49,12.47 -43.89,12 -3.46,-0.1 -7.39,-0.21 -11.75,-0.21 -16.78,0 -19.45,-1.13 -28.02,-5.9 -1.51,-0.84 -3.23,-1.8 -5.32,-2.9 -1.48,-0.77 -2.05,-2.6 -1.28,-4.07 0.78,-1.48 2.6,-2.05 4.08,-1.28 2.14,1.13 3.91,2.11 5.46,2.97 7.45,4.15 9.22,5.13 25.08,5.13 4.45,0 8.42,0.12 11.93,0.22 16.14,0.47 24.25,0.71 40.16,-10.85 2.9,-2.11 5.46,-3.91 7.72,-5.52 8.13,-5.75 12.22,-8.64 14.12,-12.53 1.95,-4.01 2.13,-9.96 2.5,-21.81l0.14 -4.32c0.3,-9.03 0.99,-17.62 1.66,-25.93 1.07,-13.26 2.07,-25.79 1.47,-39.06 -0.41,-8.85 -6.34,-40.39 -13.4,-64.15 -7.04,-23.71 -19.98,-39.61 -38.47,-47.26 -13.5,-5.59 -22.42,-9.28 -37.48,-9.28 -26.72,0 -39.52,3.78 -62.27,18.39 -10.51,6.74 -16.09,15.87 -22.55,26.43 -1.59,2.6 -3.23,5.29 -4.99,8 -2.05,3.17 -3.54,8.06 -5.26,13.73 -0.7,2.31 -1.45,4.77 -2.31,7.35 -3.12,9.45 -6.8,21.53 -7.52,31.24 -0.31,4.23 0.59,11.41 1.46,18.34 0.63,5.03 1.28,10.22 1.46,14.3 0.27,6.12 0.75,13.82 2.14,18.93 1.45,5.35 3.08,9.79 4.52,13.7 1.94,5.29 3.61,9.86 4.21,14.83 0.35,2.84 -0.11,5.5 -0.59,8.32 -0.41,2.41 -0.83,4.9 -0.86,7.89 -0.07,7.28 0.56,17.23 1.7,27.32 1.92,16.8 6.57,27.87 11.95,40.7 2.79,6.66 5.68,13.55 8.48,21.89 0.53,1.58 -0.32,3.29 -1.9,3.82 -0.32,0.11 -0.64,0.16 -0.96,0.16z"/>
  <path class="fil1" d="M75.56 300.76c-0.58,0 -1.16,-0.16 -1.68,-0.51 -1.39,-0.93 -1.76,-2.81 -0.83,-4.19 2.29,-3.4 4.84,-11.05 7.31,-18.45 4.74,-14.17 7.95,-22.96 12.55,-25.42 1.48,-0.79 3.31,-0.23 4.09,1.24 0.79,1.47 0.23,3.3 -1.24,4.09 -2.82,1.5 -6.94,13.84 -9.66,22.01 -2.72,8.13 -5.29,15.82 -8.03,19.9 -0.58,0.86 -1.54,1.33 -2.51,1.33z"/>
  <path class="fil1" d="M196.91 333.54c0,0.01 0,0.01 0,0.01 0,0 0,0 0,-0.01zm1.92 0.7c-0.55,0 -1.09,-0.15 -1.58,-0.45 -1.5,-0.64 -9.82,-2.9 -16.53,-4.73 -8.82,-2.4 -17.16,-4.67 -19.86,-5.76l-1.59 -0.64c-21.84,-8.79 -35.02,-14.09 -41.25,-39.33 -3.02,-12.21 -5.12,-27.27 -5.12,-33.14 0,-1.67 1.35,-3.02 3.02,-3.02 1.67,0 3.02,1.35 3.02,3.02 0,5.51 2.11,20.24 4.94,31.7 5.49,22.23 16.24,26.55 37.65,35.17l1.59 0.64c2.37,0.95 11.3,3.38 19.19,5.53 15.91,4.33 17.49,4.87 18.45,5.66 1.28,1.07 1.46,2.97 0.4,4.25 -0.6,0.73 -1.46,1.1 -2.33,1.1z"/>
  <path class="fil1" d="M299.26 271.98c-0.82,0 -1.63,-0.33 -2.23,-0.98 -2.26,-2.48 -7.41,-4.49 -14.1,-5.52 -9.49,-1.45 -15.1,-5.69 -15.8,-11.94 -0.18,-1.65 1.01,-3.15 2.67,-3.33 1.66,-0.17 3.15,1 3.34,2.66 0.51,4.59 7.66,6.17 10.7,6.64 5.77,0.88 13.52,2.89 17.65,7.41 1.13,1.23 1.04,3.14 -0.19,4.27 -0.58,0.53 -1.31,0.79 -2.04,0.79z"/>
  <path class="fil1" d="M230.43 335.8c-1.37,0 -2.62,-0.94 -2.94,-2.33 -0.38,-1.63 0.63,-3.25 2.26,-3.63 4.5,-1.05 9.69,-2.1 15.19,-3.21 20.29,-4.09 45.54,-9.19 58.46,-18.8 1.34,-0.99 3.23,-0.72 4.23,0.62 1,1.34 0.72,3.23 -0.62,4.23 -14,10.41 -40,15.66 -60.88,19.88 -5.45,1.1 -10.6,2.14 -15.01,3.16 -0.23,0.06 -0.47,0.08 -0.69,0.08z"/>
  <path class="fil1" d="M256.09 188.69c-1.12,0 -2.02,-0.91 -2.02,-2.02 0,-12.5 0.19,-24.88 0.37,-36.86 0.09,-6.36 0.19,-12.73 0.26,-19.19 0.02,-2.02 0.07,-3.99 0.11,-5.9 0.23,-11.01 0.43,-20.51 -3.35,-31.5 -2.5,-7.26 -5.55,-12.9 -7.75,-14.38 -0.93,-0.61 -1.18,-1.86 -0.56,-2.79 0.62,-0.92 1.87,-1.17 2.79,-0.56 4.3,2.87 7.95,12.44 9.32,16.42 4.02,11.67 3.81,21.5 3.57,32.89 -0.04,1.91 -0.08,3.85 -0.1,5.86 -0.07,6.47 -0.17,12.85 -0.26,19.21 -0.18,11.96 -0.37,24.33 -0.37,36.8 0,1.11 -0.9,2.02 -2.01,2.02z"/>
  <path class="fil1" d="M257.12 241.65c-0.26,0 -0.52,-0.05 -0.77,-0.15 -1.03,-0.42 -1.52,-1.6 -1.1,-2.63 1.9,-4.6 2.51,-7.38 3.74,-12.9l0.53 -2.37c0.71,-3.17 1.31,-7.76 1.89,-12.19 0.59,-4.57 1.16,-8.88 1.84,-11.77 2.05,-8.64 3.65,-22.57 3.65,-31.71 0,-6.13 -0.72,-12.68 -1.42,-19.02 -0.69,-6.22 -1.4,-12.65 -1.4,-18.55 0,-1.11 0.91,-2.02 2.02,-2.02 1.11,0 2.01,0.91 2.01,2.02 0,5.68 0.67,11.72 1.37,18.11 0.71,6.44 1.45,13.11 1.45,19.46 0,9.41 -1.65,23.74 -3.76,32.63 -0.64,2.7 -1.19,6.91 -1.77,11.37 -0.59,4.52 -1.2,9.2 -1.95,12.55l-0.53 2.36c-1.28,5.75 -1.92,8.64 -3.94,13.57 -0.32,0.77 -1.07,1.24 -1.86,1.24z"/>
  <path class="fil2" d="M133.46 154.51c3.09,0 5.6,2.51 5.6,5.6 0,3.1 -2.51,5.61 -5.6,5.61 -3.09,0 -5.6,-2.51 -5.6,-5.61 0,-3.09 2.51,-5.6 5.6,-5.6z"/>
  <path class="fil2" d="M194.31 149.19c3.1,0 5.61,2.51 5.61,5.61 0,3.09 -2.51,5.6 -5.61,5.6 -3.09,0 -5.6,-2.51 -5.6,-5.6 0,-3.1 2.51,-5.61 5.6,-5.61z"/>
 </g>
</svg>
