<?xml version="1.0" encoding="UTF-8"?>
<!DOCTYPE svg PUBLIC "-//W3C//DTD SVG 1.1//EN" "http://www.w3.org/Graphics/SVG/1.1/DTD/svg11.dtd">
<!-- Creator: CorelDRAW 2018 (64-Bit) -->
<svg xmlns="http://www.w3.org/2000/svg" xml:space="preserve" width="845px" height="845px" version="1.1" style="shape-rendering:geometricPrecision; text-rendering:geometricPrecision; image-rendering:optimizeQuality; fill-rule:evenodd; clip-rule:evenodd"
viewBox="0 0 360.18 360.18"
 xmlns:xlink="http://www.w3.org/1999/xlink">
 <defs>
  <style type="text/css">
   <![CDATA[
    .fil0 {fill:none}
    .fil2 {fill:black}
    .fil1 {fill:black;fill-rule:nonzero}
   ]]>
  </style>
 </defs>
 <g id="Слой_x0020_1">
  <metadata id="CorelCorpID_0Corel-Layer"/>
  <rect class="fil0" width="360.18" height="360.18"/>
 </g>
 <g id="_1">
  <metadata id="CorelCorpID_1Corel-Layer"/>
  <path class="fil1" d="M187.05 205.94c0,0 0,0 0,0 0,0 0,0 0,0zm1.2 6.05c-2.07,0 -4.43,-0.46 -5.87,-2.22 -0.43,-0.52 -0.95,-0.81 -1.59,-0.87 -0.84,-0.08 -1.87,0.24 -2.55,0.81 -2.58,2.14 -7.17,1.64 -9.03,1.32 -2.17,-0.37 -6.03,-1.36 -7.56,-3.89 -0.1,-0.02 -0.6,0.01 -0.96,0.11 -0.69,1.42 -1.97,2.53 -3.66,3.17 -2.21,0.83 -4.73,0.71 -6.44,-0.3 -4.58,-2.72 -5.56,-8.69 -2.45,-14.84 0.76,-1.49 2.57,-2.09 4.06,-1.34 1.49,0.76 2.09,2.58 1.33,4.07 -0.11,0.21 -2.62,5.27 0.15,6.92 0.34,0.11 1.37,-0.1 1.62,-0.39 0.65,-2.09 3.04,-3.12 5.04,-3.35 2.75,-0.31 5.13,0.7 6.41,2.71 1.24,1.09 6.41,1.84 7.7,1.11 1.86,-1.55 4.48,-2.35 6.92,-2.12 2.19,0.21 4.11,1.21 5.55,2.89 0.35,0.13 1.41,0.27 2.95,0.03 0.08,-0.01 0.32,-0.05 0.55,-0.61 0.38,-0.91 0.23,-2 0.02,-2.29 -0.95,-1.34 -0.7,-3.25 0.62,-4.23 1.31,-0.98 3.13,-0.79 4.14,0.51 1.6,2.04 1.95,5.4 0.86,8.17 -0.96,2.43 -2.87,4.04 -5.25,4.42 -0.71,0.11 -1.6,0.21 -2.56,0.21z"/>
  <path class="fil1" d="M121.01 165.56c-1.11,0 -2.17,-0.61 -2.7,-1.67 -0.75,-1.49 -0.15,-3.3 1.35,-4.05 2.24,-1.13 3.54,-1.89 4.91,-2.7 0.97,-0.58 1.98,-1.18 3.36,-1.93 3.81,-2.07 7.19,-1.86 9.9,-1.69 0.68,0.04 1.35,0.09 2.01,0.09 7.06,0 11.2,2.65 13.43,4.07 0.28,0.18 0.62,0.4 0.82,0.52 1.39,0.23 2.48,1.41 2.52,2.88 0.06,1.66 -1.25,3.06 -2.92,3.11 -1.36,0.06 -2.45,-0.63 -3.68,-1.42 -1.94,-1.24 -4.87,-3.12 -10.17,-3.12 -0.79,0 -1.58,-0.05 -2.39,-0.1 -2.34,-0.14 -4.35,-0.27 -6.63,0.97 -1.3,0.7 -2.25,1.27 -3.17,1.81 -1.47,0.87 -2.85,1.69 -5.29,2.91 -0.43,0.22 -0.89,0.32 -1.35,0.32z"/>
  <path class="fil1" d="M227.63 165.6c-0.39,0 -0.78,-0.07 -1.16,-0.23 -0.8,-0.33 -1.69,-0.81 -2.71,-1.36 -1.94,-1.05 -4.37,-2.35 -6.95,-3.05 -4.86,-1.31 -7.45,-1.19 -12.32,-0.21 -1.52,0.3 -2.91,0.89 -4.2,1.47 -1.53,0.68 -3.31,0 -3.99,-1.53 -0.68,-1.52 0,-3.3 1.52,-3.98 1.54,-0.69 3.35,-1.46 5.48,-1.88 5.52,-1.12 9.02,-1.34 15.08,0.3 3.26,0.88 6.14,2.43 8.24,3.56 0.89,0.47 1.65,0.88 2.17,1.1 1.54,0.64 2.27,2.41 1.63,3.95 -0.48,1.16 -1.61,1.86 -2.79,1.86z"/>
  <path class="fil1" d="M182.24 162.07c-1.25,0 -2.87,-0.13 -4.58,-0.28 -1.86,-0.16 -3.78,-0.32 -5.31,-0.32l-5.87 0c-1.67,0 -3.03,-1.35 -3.03,-3.02 0,-1.67 1.36,-3.02 3.03,-3.02l5.87 0c1.79,0 3.84,0.17 5.82,0.34 1.58,0.14 3.07,0.26 4.07,0.26 1.67,0 3.02,1.36 3.02,3.02 0,1.67 -1.35,3.02 -3.02,3.02z"/>
  <path class="fil1" d="M110.93 154.11c0.34,0.66 0.66,1.99 1.07,5.5 1.11,9.85 3.26,19.41 11.31,22.77 1.52,0.64 5.7,2.09 11.49,1.82l2.74 -0.13c4.51,-0.21 6.57,-0.3 8.86,-0.79 2.71,-0.58 5.71,-1.9 9.23,-7.57 4.81,-7.73 6.83,-13.36 6.84,-15.24 -0.15,-0.1 -0.28,-0.22 -0.41,-0.34 -5.06,-5.08 -15.23,-9.12 -25.9,-10.29 -10.31,-1.13 -14.34,0.34 -21,2.76 -1.3,0.48 -2.69,0.99 -4.23,1.51zm22.4 36.16c-5.86,0 -10.19,-1.41 -12.35,-2.31 -12.44,-5.19 -14.16,-20.37 -14.99,-27.66 -0.05,-0.42 -0.47,-3.17 -0.6,-3.85 -0.08,-0.25 -0.12,-0.49 -0.13,-0.74 -1.26,-0.06 -2.39,-0.9 -2.76,-2.18 -0.47,-1.6 0.46,-3.28 2.06,-3.74 3.38,-0.98 6.12,-1.98 8.53,-2.86 6.97,-2.54 12,-4.38 23.73,-3.09 11.88,1.3 22.96,5.74 29.12,11.63 1.01,0.55 1.77,1.45 2.19,2.6 1.78,4.96 -3.85,15.18 -7.37,20.83 -4.73,7.6 -9.27,9.47 -13.09,10.29 -2.79,0.59 -5.15,0.7 -9.86,0.91l-2.72 0.13c-0.6,0.03 -1.19,0.04 -1.76,0.04z"/>
  <path class="fil1" d="M106.77 206.67c-0.15,0 -0.31,-0.01 -0.46,-0.03 -11.44,-1.75 -13.02,-13 -14.18,-21.22 -0.27,-1.97 -0.53,-3.83 -0.89,-5.39 -0.26,-1.12 -0.54,-2.24 -0.81,-3.37 -1.13,-4.61 -2.3,-9.37 -2.3,-14.08 0,-3.46 1.8,-4.71 2.87,-5.14 3.28,-1.32 7.24,1.11 15.12,9.3 0.33,0.35 0.57,0.6 0.7,0.72 1.2,1.14 1.29,3.04 0.17,4.26 -1.11,1.22 -2.97,1.34 -4.21,0.24 -0.15,-0.14 -0.51,-0.5 -1.02,-1.03 -3.87,-4.02 -6.19,-5.98 -7.55,-6.93 0.21,3.56 1.12,7.3 2.09,11.22 0.28,1.15 0.56,2.31 0.82,3.46 0.42,1.81 0.7,3.8 1,5.9 1.27,9.07 2.59,15.09 9.1,16.09 1.65,0.25 2.78,1.79 2.53,3.44 -0.23,1.49 -1.52,2.56 -2.98,2.56z"/>
  <path class="fil1" d="M251.04 211.52c-1.67,0 -3.02,-1.35 -3.02,-3.02 0,-1.67 1.35,-3.02 3.02,-3.02 2.09,0 3.39,-0.65 4.98,-2.49 4.9,-5.67 7.63,-12.22 8.61,-20.62l0.22 -2.02c0.54,-4.83 1.05,-9.39 2.32,-12.49 0.73,-1.79 1.61,-3.33 2.39,-4.69 0.59,-1.03 1.38,-2.4 1.51,-3.03 -0.16,-0.13 -0.53,-0.39 -1.33,-0.72 -1.89,-0.79 -6.49,1.68 -9.32,4.42 -1.2,1.16 -3.12,1.13 -4.27,-0.07 -1.16,-1.2 -1.13,-3.11 0.07,-4.27 0.36,-0.35 8.91,-8.53 15.83,-5.66 2.58,1.06 4.14,2.48 4.78,4.33 0.95,2.8 -0.5,5.33 -2.03,8.01 -0.72,1.25 -1.46,2.54 -2.04,3.96 -0.95,2.32 -1.43,6.67 -1.9,10.88l-0.23 2.04c-1.12,9.67 -4.31,17.25 -10.04,23.88 -1.84,2.13 -4.59,4.58 -9.55,4.58z"/>
  <path class="fil1" d="M197.45 236.87c-3.58,0 -7.36,-1.68 -11.08,-4.99 -3.35,-2.96 -6.45,-1.47 -9.35,0.31 -0.56,0.34 -1.01,0.6 -1.32,0.73 -5.74,2.52 -9.59,0.31 -12.41,-1.3 -2.51,-1.44 -4.32,-2.48 -7.72,-1.29 -1.44,0.5 -2.89,1.24 -4.42,2.01 -4.23,2.13 -9.48,4.79 -14.97,1.67 -1.45,-0.83 -1.95,-2.67 -1.13,-4.12 0.82,-1.45 2.67,-1.96 4.12,-1.13 2.54,1.44 5.17,0.25 9.26,-1.81 1.64,-0.83 3.33,-1.69 5.14,-2.32 6,-2.11 9.89,0.12 12.72,1.75 2.6,1.48 4.04,2.31 6.99,1.01 0.12,-0.06 0.32,-0.19 0.57,-0.35 2.37,-1.45 9.56,-5.87 16.53,0.33 3.95,3.51 7.38,4.32 10.2,2.45 1.39,-0.93 3.26,-0.55 4.19,0.84 0.92,1.38 0.55,3.26 -0.84,4.19 -2.03,1.35 -4.22,2.02 -6.48,2.02z"/>
  <path class="fil1" d="M171.81 250.31c-1.57,0 -3.15,-0.02 -4.7,-0.06 -7.79,-0.18 -13.58,-0.8 -18.31,-3.34 -0.29,-0.16 -0.63,-0.32 -0.98,-0.49 -1.68,-0.82 -3.78,-1.84 -4.87,-3.6 -0.87,-1.41 -0.44,-3.28 0.98,-4.16 1.41,-0.87 3.25,-0.44 4.14,0.94 0.34,0.39 1.68,1.04 2.4,1.39 0.43,0.21 0.83,0.41 1.19,0.6 3.67,1.97 8.69,2.46 15.6,2.62 5.25,0.12 19.18,0.45 24.48,-3.28 1.37,-0.96 3.25,-0.63 4.21,0.73 0.96,1.37 0.63,3.25 -0.73,4.21 -5.21,3.66 -14.35,4.44 -23.41,4.44z"/>
  <path class="fil1" d="M179.76 289.37c-1.63,0 -3.34,-0.02 -5.16,-0.04 -1.87,-0.02 -3.87,-0.04 -6.01,-0.05 -20.63,-0.04 -28.87,-5.85 -36.85,-16.57 -2.3,-3.1 -4.57,-6.58 -7.2,-10.62l-1.29 -1.98c-1.01,-1.53 -2.1,-3.17 -3.21,-4.83 -4.69,-6.99 -9.53,-14.21 -11.02,-19.02 -3.29,-10.61 -8.92,-70.26 -8.92,-85.03 0,-3.52 -0.04,-6.71 -0.07,-9.72 -0.1,-8.89 -0.18,-16.56 0.71,-27.23 0.36,-4.36 0.51,-7.92 0.65,-11.06 0.34,-8.17 0.59,-14.08 4.1,-24.94 5.5,-17 14.18,-28.54 25.79,-34.29l1.1 -0.54c3.91,-1.95 11.19,-5.58 15.38,-6.96 1.39,-0.46 2.84,-1.25 4.52,-2.16 3.25,-1.77 7.31,-3.98 13.22,-4.95 2.35,-0.39 4.55,-0.81 6.65,-1.22 9.73,-1.88 18.12,-3.5 29.2,1.47l0 0c7.29,2.28 31.36,18.43 32.34,19.2l0.43 0.34c6.46,5.06 16.21,12.7 19.21,20.58 0.49,1.26 1.28,2.47 2.21,3.87 2.04,3.09 4.59,6.94 5.44,13.87 0.22,1.75 0.44,3.45 0.65,5.11 0.99,7.71 1.92,14.99 2.16,23.81 0.11,4.07 0.23,7.23 0.33,9.89 0.31,7.95 0.45,11.57 -0.49,20.99 -0.17,1.61 -0.49,3.52 -0.81,5.37 -0.43,2.51 -0.88,5.1 -0.88,6.73 0,1.67 -1.35,3.02 -3.02,3.02 -1.67,0 -3.02,-1.35 -3.02,-3.02 0,-2.15 0.49,-5 0.96,-7.75 0.32,-1.83 0.61,-3.55 0.75,-4.95 0.9,-9 0.78,-12.27 0.47,-20.16 -0.1,-2.67 -0.22,-5.86 -0.33,-9.95 -0.23,-8.53 -1.1,-15.33 -2.11,-23.21 -0.22,-1.67 -0.43,-3.38 -0.65,-5.14 -0.68,-5.52 -2.62,-8.45 -4.49,-11.28 -1.03,-1.55 -2.09,-3.16 -2.81,-5.04 -2.41,-6.32 -11.73,-13.62 -17.29,-17.99l-0.44 -0.34c-4.14,-3.24 -26.52,-17.11 -30.07,-18.18 -0.35,-0.03 -0.69,-0.11 -1.01,-0.26 -9.33,-4.19 -16.15,-2.87 -25.58,-1.05 -2.15,0.42 -4.41,0.85 -6.82,1.25 -4.9,0.8 -8.31,2.66 -11.32,4.3 -1.85,1.01 -3.6,1.96 -5.51,2.59 -3.78,1.24 -11.07,4.88 -14.58,6.62l-1.11 0.56c-10.09,5 -17.74,15.34 -22.72,30.73 -3.26,10.08 -3.48,15.35 -3.82,23.33 -0.13,3.2 -0.29,6.83 -0.66,11.31 -0.87,10.39 -0.78,17.93 -0.69,26.66 0.03,3.04 0.07,6.24 0.07,9.79 0,15.03 5.84,74.16 8.65,83.24 1.23,3.96 6.03,11.13 10.26,17.45 1.14,1.68 2.24,3.33 3.25,4.89l1.3 1.98c2.58,3.95 4.8,7.37 6.99,10.31 7.11,9.55 13.72,14.11 32.01,14.14 2.17,0.01 4.18,0.03 6.07,0.05 17.19,0.19 22.99,0.26 37.78,-14.03 12.52,-12.09 22.33,-24.06 25.61,-31.24 4.86,-10.63 6.8,-22.03 8.85,-34.1 0.78,-4.57 1.58,-9.3 2.57,-14.13 1.78,-8.77 3.02,-22.23 3.06,-23.37 0.06,-1.64 1.42,-2.92 3.08,-2.93 1.64,0.03 2.96,1.34 2.96,2.99 0,1.11 -1.29,15.21 -3.18,24.51 -0.97,4.74 -1.76,9.42 -2.53,13.94 -2.12,12.47 -4.12,24.25 -9.31,35.6 -3.63,7.94 -13.69,20.3 -26.91,33.07 -14.86,14.35 -22.81,15.77 -36.89,15.77z"/>
  <path class="fil1" d="M248.92 147.25c-1.67,0 -3.02,-1.35 -3.02,-3.02 0,-3.89 0.14,-7.47 0.28,-10.93 0.32,-8.2 0.61,-15.27 -1,-24.04 -1.53,-8.4 -3.64,-17.22 -5.13,-21.45 -2.06,-5.85 -6.53,-10.27 -12.26,-12.11 -2.08,-0.63 -22.57,-3.73 -36.67,-4.7 -13.54,-0.93 -24.26,-0.69 -31.35,-0.53 -2.69,0.06 -4.82,0.11 -6.39,0.07 -2.19,-0.05 -4.28,-0.13 -6.27,-0.21 -9.16,-0.38 -15.77,-0.65 -20.52,3.26 -3.79,3.12 -5.07,6.45 -6.3,9.68 -0.22,0.57 -0.43,1.13 -0.66,1.67 -1.46,3.58 -1.82,6.95 -2.32,11.61 -0.37,3.45 -0.79,7.37 -1.75,12.38 -2.49,12.93 -1.27,28 -0.76,29.73 0.46,1.59 -0.44,3.29 -2.02,3.77 -1.6,0.48 -3.25,-0.38 -3.75,-1.96 -0.85,-2.71 -2.03,-19.08 0.6,-32.68 0.92,-4.77 1.32,-8.55 1.67,-11.88 0.53,-4.96 0.95,-8.88 2.74,-13.26 0.21,-0.5 0.4,-1.01 0.61,-1.55 1.37,-3.58 3.08,-8.04 8.1,-12.17 6.54,-5.38 14.51,-5.05 24.6,-4.64 1.96,0.08 4.01,0.16 6.16,0.21 1.44,0.03 3.51,-0.01 6.12,-0.07 7.21,-0.16 18.09,-0.4 31.9,0.54 14.45,0.99 35.63,4.18 38.11,4.98 7.55,2.42 13.42,8.2 16.11,15.85 1.61,4.57 3.77,13.56 5.38,22.38 1.72,9.42 1.41,17.16 1.08,25.36 -0.13,3.4 -0.27,6.92 -0.27,10.69 0,1.67 -1.35,3.02 -3.02,3.02z"/>
  <path class="fil1" d="M185.78 159.89c-0.07,1.88 1.68,7.6 6.1,15.55 3.21,5.77 6.04,7.19 8.62,7.86 2.18,0.57 4.16,0.74 8.49,1.1l2.67 0.23c5.55,0.47 9.61,-0.82 11.11,-1.4 7.87,-3.06 10.27,-12.54 11.69,-22.34 0.53,-3.57 0.89,-4.86 1.25,-5.5 -1.47,-0.57 -2.8,-1.13 -4.04,-1.65 -6.34,-2.65 -10.16,-4.26 -20.15,-3.49 -10.33,0.78 -20.27,4.44 -25.33,9.31 -0.13,0.13 -0.27,0.24 -0.41,0.33zm28.32 30.88c-0.94,0 -1.93,-0.04 -2.96,-0.13l-2.65 -0.22c-4.55,-0.38 -6.83,-0.57 -9.52,-1.27 -5.23,-1.37 -8.93,-4.59 -12.37,-10.78 -3.22,-5.79 -8.34,-16.24 -6.38,-21.08 0.44,-1.09 1.2,-1.95 2.18,-2.46 6.19,-5.68 17.1,-9.73 28.67,-10.61 11.44,-0.86 16.26,1.15 22.93,3.95 2.31,0.96 4.92,2.06 8.16,3.16 1.58,0.53 2.42,2.25 1.89,3.83 -0.42,1.21 -1.53,2 -2.74,2.04 -0.02,0.25 -0.07,0.49 -0.14,0.72 -0.16,0.68 -0.67,3.46 -0.73,3.85 -1.05,7.24 -3.24,22.34 -15.49,27.09 -1.97,0.77 -5.77,1.91 -10.85,1.91z"/>
  <path class="fil1" d="M238.3 159.98c-1.49,0 -2.78,-1.09 -2.99,-2.6 -0.23,-1.65 0.92,-3.18 2.57,-3.41l20.46 -2.85c1.64,-0.23 3.18,0.92 3.41,2.58 0.23,1.65 -0.92,3.17 -2.58,3.41l-20.45 2.84c-0.14,0.02 -0.28,0.03 -0.42,0.03z"/>
  <path class="fil1" d="M293.04 281.83c-0.49,0 -0.98,-0.12 -1.44,-0.37 -0.16,-0.08 -0.31,-0.18 -0.45,-0.29 -1.46,-0.96 -12.78,-7.65 -17.1,-10.2l-2.38 -1.41c-2.03,-1.2 -3.6,-2.1 -4.95,-2.88 -3.7,-2.12 -5.93,-3.41 -11.75,-7.53 -8.52,-6.03 -13.37,-22.87 -12.4,-34.21 0.14,-1.66 1.62,-2.88 3.27,-2.75 1.66,0.14 2.89,1.6 2.75,3.26 -0.88,10.37 4.01,24.61 9.87,28.77 5.59,3.96 7.61,5.12 11.27,7.22 1.37,0.79 2.96,1.7 5.02,2.93l2.37 1.4c2.74,1.61 7.12,4.2 10.81,6.4 1.85,1.1 3.53,2.11 4.74,2.84 2.27,1.38 4.42,2.68 3.02,5.25 -0.54,1 -1.58,1.57 -2.65,1.57z"/>
  <path class="fil1" d="M137.67 335.18c-1,0 -1.98,-0.5 -2.55,-1.41 -6.55,-10.33 -8.83,-30.99 -9.13,-40.47 -0.19,-6.15 0.11,-12.06 0.43,-18.31 0.09,-1.76 0.18,-3.55 0.26,-5.39 -1.03,0.48 -2,0.94 -2.92,1.38 -15.4,7.31 -16.33,7.75 -36.91,13.91 -1.59,0.48 -3.28,-0.43 -3.76,-2.03 -0.48,-1.6 0.43,-3.28 2.03,-3.76 20.14,-6.02 21.04,-6.45 36.05,-13.58 2.16,-1.02 4.6,-2.18 7.43,-3.51 0.95,-0.45 2.07,-0.37 2.94,0.2 0.88,0.58 1.4,1.57 1.37,2.62 -0.11,3.67 -0.29,7.13 -0.46,10.46 -0.31,6.13 -0.6,11.91 -0.42,17.82 0.32,10.36 2.77,28.87 8.19,37.43 0.89,1.41 0.47,3.28 -0.94,4.17 -0.5,0.32 -1.06,0.47 -1.61,0.47z"/>
  <path class="fil1" d="M175.72 321.16c0,0 0.01,0.01 0.01,0.01 0,0 -0.01,-0.01 -0.01,-0.01zm-0.54 5.88c-0.78,0 -1.4,-0.15 -1.92,-0.37 -15.37,-0.74 -33.46,-22.94 -39.93,-33.78 -1.03,-1.73 -2.15,-3.74 -3.24,-5.72 -1.25,-2.26 -2.43,-4.38 -3.44,-6.02 -0.88,-1.41 -0.44,-3.28 0.98,-4.15 1.42,-0.88 3.28,-0.44 4.16,0.97 1.08,1.76 2.3,3.95 3.58,6.27 1.06,1.92 2.15,3.87 3.15,5.55 7.71,12.94 24.35,30.86 35.52,30.86 0.46,0 0.92,0.11 1.33,0.31 0.91,-0.04 5.81,-1.06 23.82,-14.87 21.62,-16.58 37.58,-30.09 46.08,-53.17 0,0 0.15,-0.36 0.45,-0.88 1.33,-2.37 1.72,-3.1 1.82,-3.3 0.71,-1.51 2.5,-2.16 4.01,-1.46 1.51,0.71 2.17,2.5 1.46,4.01 -0.24,0.53 -0.99,1.87 -2.03,3.72l-0.13 0.22c-9.08,24.47 -25.62,38.51 -47.98,55.65 -17,13.04 -24.06,16.16 -27.69,16.16z"/>
  <path class="fil1" d="M247.17 330.46c-0.27,0 -0.54,-0.04 -0.81,-0.11 -1.61,-0.45 -2.55,-2.12 -2.1,-3.73 0.75,-2.65 1.36,-6.05 1.76,-8.3 0.15,-0.83 0.27,-1.52 0.37,-2.01 2.99,-14.68 3.44,-33.68 3.44,-43.7 0,-1.63 -0.23,-4.76 -0.48,-8.07 -0.61,-8.17 -0.84,-12.22 -0.31,-14.04 0.46,-1.6 2.16,-2.52 3.74,-2.06 1.59,0.46 2.51,2.11 2.07,3.7 -0.26,1.37 0.23,7.99 0.52,11.95 0.26,3.43 0.5,6.66 0.5,8.52 0,10.25 -0.46,29.71 -3.56,44.91 -0.09,0.45 -0.21,1.1 -0.34,1.87 -0.43,2.36 -1.07,5.93 -1.89,8.86 -0.37,1.34 -1.59,2.21 -2.91,2.21z"/>
  <path class="fil1" d="M154.79 337.15c-0.53,0 -1.07,-0.14 -1.55,-0.43 -1.43,-0.86 -1.89,-2.72 -1.03,-4.15 2.47,-4.1 5.54,-6.35 8.52,-8.52 1.51,-1.11 2.94,-2.16 4.27,-3.43 1.2,-1.16 3.11,-1.13 4.27,0.07 1.16,1.21 1.12,3.12 -0.08,4.27 -1.62,1.57 -3.29,2.79 -4.9,3.97 -2.72,1.98 -5.07,3.7 -6.91,6.76 -0.56,0.94 -1.56,1.46 -2.59,1.46z"/>
  <path class="fil1" d="M187.23 336.85c-1.2,0 -2.33,-0.72 -2.81,-1.9 -1.09,-2.72 -7.48,-7.55 -11.03,-8.33 -1.63,-0.35 -2.66,-1.96 -2.3,-3.6 0.36,-1.63 1.97,-2.66 3.6,-2.3 5.04,1.11 13.39,7.12 15.34,11.98 0.62,1.55 -0.13,3.31 -1.68,3.93 -0.37,0.15 -0.75,0.22 -1.12,0.22z"/>
  <path class="fil2" d="M215.61 156.92c2.47,-0.12 4.58,1.8 4.7,4.28 0.12,2.48 -1.8,4.59 -4.28,4.7 -2.48,0.12 -4.59,-1.79 -4.7,-4.27 -0.12,-2.49 1.8,-4.59 4.28,-4.71z"/>
  <path class="fil2" d="M140.32 155.62c2.48,-0.12 4.59,1.8 4.7,4.28 0.12,2.48 -1.79,4.59 -4.27,4.7 -2.48,0.12 -4.59,-1.79 -4.71,-4.27 -0.12,-2.49 1.8,-4.59 4.28,-4.71z"/>
  <path class="fil1" d="M193 147.48c-1.02,0 -1.9,-0.77 -2.01,-1.81 -0.11,-1.1 0.69,-2.09 1.8,-2.21 1.11,-0.12 2.33,-0.29 3.64,-0.48 2.05,-0.29 4.37,-0.63 6.76,-0.81 5.86,-0.44 9.36,-0.57 15.86,-0.25 3.31,0.16 6.35,0.62 8.79,0.99 1.27,0.2 2.37,0.36 3.21,0.44 1.1,0.09 1.93,1.07 1.83,2.18 -0.1,1.1 -1.09,1.91 -2.18,1.83 -0.9,-0.08 -2.09,-0.25 -3.47,-0.46 -2.35,-0.36 -5.27,-0.81 -8.37,-0.96 -6.3,-0.31 -9.69,-0.18 -15.36,0.25 -2.26,0.17 -4.51,0.49 -6.5,0.78 -1.36,0.19 -2.64,0.38 -3.79,0.5 -0.07,0 -0.14,0.01 -0.21,0.01z"/>
  <path class="fil1" d="M157.11 149.99c-0.15,0 -0.31,-0.02 -0.46,-0.06 -0.79,-0.18 -1.8,-0.49 -2.99,-0.86 -1.98,-0.62 -4.45,-1.39 -7.1,-1.89 -5.4,-1.02 -8.35,-1.28 -13.31,-1.5 -1.97,-0.08 -3.95,-0.02 -5.7,0.03 -1.22,0.04 -2.34,0.09 -3.39,0.07 -1.11,-0.01 -2,-0.93 -1.99,-2.04 0.01,-1.1 0.91,-1.99 2.01,-1.99 0.11,0 0.27,0 0.41,0 0.87,0 1.82,-0.03 2.83,-0.06 1.82,-0.06 3.89,-0.12 6.01,-0.03 5.16,0.23 8.23,0.5 13.88,1.56 2.88,0.55 5.47,1.36 7.55,2 1.07,0.34 1.99,0.63 2.7,0.79 1.08,0.25 1.76,1.33 1.51,2.42 -0.22,0.93 -1.05,1.56 -1.96,1.56z"/>
  <path class="fil1" d="M259.34 188.66c-1.11,0 -2.01,-0.9 -2.01,-2.01 0,-0.88 0.04,-1.79 0.09,-2.69 0.04,-0.89 0.09,-1.76 0.08,-2.55 -0.04,-3.03 0.67,-5.22 1.14,-6.68 0.15,-0.47 0.35,-1.06 0.36,-1.26 0.06,-1.12 1,-1.94 2.12,-1.91 1.11,0.07 1.96,1.02 1.9,2.13 -0.04,0.73 -0.28,1.45 -0.55,2.29 -0.43,1.34 -0.98,3.01 -0.95,5.37 0.01,0.87 -0.03,1.83 -0.08,2.81 -0.04,0.83 -0.08,1.68 -0.08,2.49 0,1.11 -0.91,2.01 -2.02,2.01z"/>
  <path class="fil1" d="M133.43 65.3c-1.11,0 -2.01,-0.91 -2.01,-2.02 0,-0.48 -0.06,-0.96 -0.12,-1.43 -0.14,-1.23 -0.3,-2.62 0.23,-4.15 0.36,-1.05 1.5,-1.61 2.56,-1.25 1.05,0.37 1.61,1.51 1.24,2.56 -0.22,0.67 -0.14,1.42 -0.03,2.37 0.08,0.63 0.14,1.26 0.14,1.9 0,1.11 -0.9,2.02 -2.01,2.02z"/>
  <path class="fil1" d="M156.57 67.29c-1.11,0 -2.01,-0.9 -2.01,-2.01 0,-0.48 -0.06,-0.96 -0.11,-1.44 -0.15,-1.22 -0.31,-2.61 0.22,-4.14 0.36,-1.05 1.5,-1.61 2.56,-1.25 1.05,0.36 1.61,1.51 1.25,2.56 -0.23,0.66 -0.14,1.42 -0.03,2.37 0.07,0.63 0.14,1.26 0.14,1.9 0,1.11 -0.9,2.01 -2.02,2.01z"/>
  <path class="fil1" d="M149.49 55.46c-1.11,0 -2.01,-0.9 -2.01,-2.01 0,-0.49 -0.06,-0.96 -0.11,-1.44 -0.15,-1.22 -0.31,-2.61 0.22,-4.14 0.36,-1.05 1.51,-1.61 2.56,-1.25 1.05,0.36 1.61,1.51 1.25,2.56 -0.23,0.67 -0.14,1.42 -0.03,2.37 0.07,0.63 0.14,1.26 0.14,1.9 0,1.11 -0.9,2.01 -2.02,2.01z"/>
  <path class="fil1" d="M158.65 48.47c-1.11,0 -2.01,-0.9 -2.01,-2.01 0,-0.49 -0.06,-0.97 -0.12,-1.44 -0.14,-1.23 -0.3,-2.61 0.23,-4.14 0.36,-1.05 1.5,-1.61 2.56,-1.25 1.05,0.36 1.61,1.5 1.25,2.56 -0.23,0.66 -0.15,1.41 -0.03,2.37 0.07,0.62 0.14,1.26 0.14,1.9 0,1.11 -0.91,2.01 -2.02,2.01z"/>
  <path class="fil1" d="M164.31 62.79c-1.11,0 -2.01,-0.9 -2.01,-2.01 0,-0.49 -0.06,-0.97 -0.11,-1.44 -0.15,-1.23 -0.31,-2.62 0.22,-4.14 0.36,-1.05 1.5,-1.62 2.56,-1.25 1.05,0.36 1.61,1.5 1.25,2.55 -0.23,0.67 -0.15,1.42 -0.03,2.38 0.07,0.62 0.14,1.25 0.14,1.9 0,1.11 -0.91,2.01 -2.02,2.01z"/>
  <path class="fil1" d="M180.3 66.62c-1.11,0 -2.02,-0.9 -2.02,-2.02 0,-0.48 -0.05,-0.96 -0.11,-1.43 -0.14,-1.23 -0.3,-2.62 0.22,-4.15 0.37,-1.05 1.51,-1.61 2.56,-1.24 1.06,0.36 1.61,1.51 1.25,2.56 -0.23,0.66 -0.14,1.41 -0.03,2.37 0.07,0.62 0.14,1.25 0.14,1.89 0,1.12 -0.9,2.02 -2.01,2.02z"/>
  <path class="fil1" d="M224.29 54.33c-1.11,0 -2.01,-0.9 -2.01,-2.01 0,-0.71 -0.07,-1.4 -0.13,-2.09 -0.13,-1.6 -0.27,-3.26 0.19,-5.07 0.27,-1.08 1.36,-1.73 2.45,-1.45 1.07,0.27 1.72,1.37 1.45,2.45 -0.29,1.15 -0.19,2.35 -0.07,3.73 0.07,0.8 0.13,1.61 0.13,2.43 0,1.11 -0.9,2.01 -2.01,2.01z"/>
  <path class="fil1" d="M193.95 62.33c-1.11,0 -2.01,-0.91 -2.01,-2.02 0,-0.7 -0.07,-1.39 -0.12,-2.08 -0.14,-1.61 -0.28,-3.26 0.18,-5.07 0.27,-1.08 1.37,-1.73 2.45,-1.46 1.07,0.27 1.73,1.37 1.45,2.45 -0.29,1.15 -0.19,2.35 -0.07,3.74 0.07,0.79 0.13,1.6 0.13,2.42 0,1.11 -0.9,2.02 -2.01,2.02z"/>
  <path class="fil1" d="M213.93 50.84c-1.11,0 -2.01,-0.91 -2.01,-2.02 0,-0.7 -0.07,-1.39 -0.12,-2.08 -0.14,-1.6 -0.28,-3.26 0.18,-5.07 0.28,-1.08 1.37,-1.73 2.45,-1.46 1.08,0.28 1.73,1.37 1.45,2.45 -0.29,1.15 -0.19,2.35 -0.07,3.73 0.07,0.81 0.13,1.61 0.13,2.43 0,1.11 -0.9,2.02 -2.01,2.02z"/>
  <path class="fil1" d="M212.76 70.82c-1.11,0 -2.01,-0.91 -2.01,-2.02 0,-0.7 -0.06,-1.39 -0.12,-2.08 -0.14,-1.6 -0.28,-3.26 0.18,-5.07 0.28,-1.08 1.36,-1.73 2.45,-1.46 1.08,0.28 1.73,1.37 1.46,2.45 -0.3,1.15 -0.2,2.35 -0.08,3.74 0.07,0.8 0.14,1.6 0.14,2.42 0,1.11 -0.9,2.02 -2.02,2.02z"/>
  <path class="fil1" d="M203.44 58c-1.11,0 -2.01,-0.91 -2.01,-2.02 0,-0.7 -0.07,-1.39 -0.12,-2.08 -0.14,-1.61 -0.28,-3.26 0.18,-5.08 0.27,-1.07 1.36,-1.73 2.45,-1.45 1.08,0.28 1.73,1.37 1.45,2.45 -0.29,1.15 -0.19,2.35 -0.07,3.73 0.07,0.81 0.13,1.61 0.13,2.43 0,1.11 -0.9,2.02 -2.01,2.02z"/>
  <path class="fil1" d="M229.41 73.98c-1.11,0 -2.01,-0.9 -2.01,-2.01 0,-0.71 -0.06,-1.4 -0.12,-2.09 -0.14,-1.6 -0.28,-3.26 0.18,-5.07 0.27,-1.08 1.37,-1.73 2.45,-1.45 1.08,0.27 1.73,1.37 1.45,2.44 -0.29,1.16 -0.19,2.35 -0.07,3.74 0.07,0.8 0.14,1.61 0.14,2.43 0,1.11 -0.91,2.01 -2.02,2.01z"/>
  <path class="fil1" d="M243.4 84.97c-1.11,0 -2.01,-0.9 -2.01,-2.01 0,-0.71 -0.07,-1.4 -0.12,-2.09 -0.14,-1.6 -0.28,-3.26 0.18,-5.07 0.27,-1.08 1.37,-1.73 2.45,-1.45 1.08,0.27 1.73,1.37 1.45,2.44 -0.29,1.16 -0.19,2.35 -0.07,3.74 0.07,0.8 0.13,1.61 0.13,2.43 0,1.11 -0.9,2.01 -2.01,2.01z"/>
  <path class="fil1" d="M185.87 50.01c-1.11,0 -2.01,-0.9 -2.01,-2.01 0,-0.71 -0.06,-1.4 -0.12,-2.09 -0.14,-1.6 -0.28,-3.26 0.18,-5.07 0.27,-1.08 1.37,-1.72 2.45,-1.46 1.08,0.28 1.73,1.38 1.45,2.45 -0.29,1.16 -0.19,2.35 -0.07,3.74 0.07,0.8 0.14,1.61 0.14,2.43 0,1.11 -0.91,2.01 -2.02,2.01z"/>
  <path class="fil1" d="M122.06 74.48c-1.11,0 -2.01,-0.9 -2.01,-2.02 0,-0.7 -0.07,-1.39 -0.12,-2.08 -0.14,-1.6 -0.28,-3.26 0.18,-5.07 0.27,-1.08 1.36,-1.74 2.45,-1.46 1.07,0.28 1.72,1.37 1.45,2.45 -0.29,1.15 -0.19,2.35 -0.07,3.74 0.07,0.8 0.13,1.6 0.13,2.42 0,1.12 -0.9,2.02 -2.01,2.02z"/>
 </g>
</svg>
