<?xml version="1.0" encoding="UTF-8"?>
<!DOCTYPE svg PUBLIC "-//W3C//DTD SVG 1.1//EN" "http://www.w3.org/Graphics/SVG/1.1/DTD/svg11.dtd">
<!-- Creator: CorelDRAW 2018 (64-Bit) -->
<svg xmlns="http://www.w3.org/2000/svg" xml:space="preserve" width="845px" height="845px" version="1.1" style="shape-rendering:geometricPrecision; text-rendering:geometricPrecision; image-rendering:optimizeQuality; fill-rule:evenodd; clip-rule:evenodd"
viewBox="0 0 360.18 360.18"
 xmlns:xlink="http://www.w3.org/1999/xlink">
 <defs>
  <style type="text/css">
   <![CDATA[
    .fil0 {fill:none}
    .fil2 {fill:black}
    .fil1 {fill:black;fill-rule:nonzero}
   ]]>
  </style>
 </defs>
 <g id="Слой_x0020_1">
  <metadata id="CorelCorpID_0Corel-Layer"/>
  <rect class="fil0" width="360.18" height="360.18"/>
 </g>
 <g id="_1">
  <metadata id="CorelCorpID_1Corel-Layer"/>
  <path class="fil1" d="M222.08 152.18c-0.59,0 -1.18,-0.17 -1.7,-0.53 -0.8,-0.54 -1.6,-1.1 -2.39,-1.65 -5,-3.49 -9.73,-6.79 -15.04,-6.79 -0.98,0 -6.09,0.01 -10.67,0.33 -0.65,0.05 -1.73,0.2 -3,0.38 -8.07,1.13 -11.78,1.31 -13.82,-0.45 -1.26,-1.09 -1.4,-3 -0.31,-4.26 1,-1.16 2.69,-1.37 3.94,-0.56 1.55,0.37 7,-0.39 9.36,-0.72 1.46,-0.2 2.61,-0.36 3.41,-0.41 4.78,-0.34 10.07,-0.35 11.09,-0.35 7.22,0 12.95,4 18.5,7.87 0.77,0.54 1.55,1.09 2.33,1.62 1.38,0.94 1.74,2.81 0.8,4.19 -0.59,0.86 -1.54,1.33 -2.5,1.33z"/>
  <path class="fil1" d="M151.91 147.28c-0.61,0 -1.21,-0.18 -1.74,-0.55l-0.7 -0.5c-2.18,-1.6 -5.47,-4.01 -11.37,-4.2 -7.1,-0.24 -14.54,-3.69 -22.1,-10.28 -0.18,-0.16 -0.52,-0.39 -0.93,-0.67 -2.34,-1.66 -4.34,-3.18 -5.17,-5 -0.68,-1.51 -0.01,-3.3 1.51,-3.99 1.52,-0.69 3.31,-0.02 3.99,1.5 0.37,0.58 2.4,2.01 3.16,2.55 0.63,0.45 1.13,0.82 1.41,1.06 6.48,5.65 12.65,8.6 18.33,8.79 7.76,0.25 12.31,3.58 14.74,5.36l0.61 0.45c1.37,0.96 1.69,2.85 0.73,4.21 -0.59,0.83 -1.52,1.27 -2.47,1.27z"/>
  <path class="fil1" d="M121.83 144.6c-0.28,0 -0.56,-0.04 -0.83,-0.11l-1.36 -0.39c-4.47,-1.27 -4.84,-1.37 -6.53,-2.57 -0.67,-0.47 -1.68,-1.19 -3.97,-2.52 -1.44,-0.84 -1.93,-2.69 -1.09,-4.13 0.84,-1.44 2.69,-1.93 4.13,-1.09 2.52,1.46 3.71,2.31 4.42,2.81 0.85,0.6 0.85,0.6 4.68,1.69l1.37 0.39c1.6,0.45 2.54,2.12 2.08,3.73 -0.38,1.33 -1.59,2.19 -2.9,2.19z"/>
  <path class="fil1" d="M178.87 144.19c-0.14,0 -0.27,-0.01 -0.41,-0.02 -1.65,-0.11 -2.87,-1.53 -2.78,-3.18 0.1,-1.65 1.54,-2.91 3.19,-2.84 1.76,0.13 7.46,-3.59 9.63,-4.97 1.94,-1.23 2.99,-1.89 3.81,-2.23 8.7,-3.55 19.34,-1.47 21.77,0.16 1.38,0.93 1.75,2.81 0.82,4.19 -0.93,1.39 -2.8,1.76 -4.19,0.82 -1.05,-0.54 -9.22,-2.39 -16.12,0.43 -0.39,0.16 -1.75,1.03 -2.85,1.73 -5.24,3.34 -9.56,5.91 -12.87,5.91z"/>
  <path class="fil1" d="M151.59 159.61c-0.56,0 -1.13,-0.16 -1.64,-0.48l-0.55 -0.36c-1.43,-0.92 -2.56,-1.64 -3.83,-2.68 -3.39,-2.75 -3.39,-2.75 -6.2,-2.9 -0.62,-0.03 -1.34,-0.07 -2.19,-0.13 -3.63,-0.25 -10.35,1.69 -12.21,4.02 -1.04,1.31 -2.94,1.52 -4.24,0.48 -1.31,-1.04 -1.52,-2.94 -0.48,-4.24 3.5,-4.4 12.48,-6.63 17.34,-6.29 0.82,0.06 1.5,0.1 2.1,0.13 4.64,0.25 5.18,0.59 9.68,4.24 1.02,0.83 1.98,1.44 3.3,2.29l0.56 0.36c1.4,0.91 1.8,2.78 0.9,4.18 -0.58,0.89 -1.55,1.38 -2.54,1.38z"/>
  <path class="fil1" d="M185.49 155.99c0,0 0,0 0,0 0,0 0,0 0,0zm-0.27 0.52l0.27 -0.52zm31.8 4.26c-0.42,0 -0.86,-0.09 -1.27,-0.28 -3.18,-1.49 -4.9,-2.93 -6.28,-4.09 -1.03,-0.86 -1.84,-1.54 -3.14,-2.16 -1.39,-0.66 -4.31,-1.15 -7.81,-1.31 -5.47,-0.24 -6.31,-0.28 -10.76,2.21 -1.8,1.01 -2.51,1.61 -2.73,1.81 -0.66,1.3 -2.18,1.96 -3.61,1.5 -1.59,-0.51 -2.46,-2.21 -1.95,-3.8 0.36,-1.13 1.27,-2.49 5.34,-4.78 5.7,-3.19 7.74,-3.25 13.98,-2.98 3.11,0.14 7.4,0.59 10.15,1.9 1.99,0.95 3.22,1.98 4.42,2.99 1.27,1.07 2.49,2.08 4.94,3.23 1.51,0.7 2.17,2.5 1.46,4.01 -0.51,1.1 -1.6,1.75 -2.74,1.75z"/>
  <g>
   <path class="fil1" d="M157.29 151.23l0 0zm24.98 37.93l0.02 0 -0.02 0zm-18.57 13.47c-0.93,0 -1.8,-0.08 -2.55,-0.25 -4.62,-0.99 -6.71,-3.77 -8.55,-6.22 -0.84,-1.12 -1.7,-2.27 -2.85,-3.34l-0.25 -0.23c-3.56,-3.31 -4.52,-4.47 -3.02,-8.96l0.25 -0.73c0.6,-1.85 1.96,-4.05 3.28,-6.18 0.7,-1.13 1.36,-2.21 1.74,-2.96 2.37,-4.78 3.36,-8.05 5.31,-16.09 0.97,-3.99 0.77,-5.25 0.67,-5.56 -0.08,-0.09 -0.19,-0.22 -0.32,-0.37 -0.25,-0.3 -0.59,-0.7 -0.81,-0.93 -1.03,-0.83 -1.43,-2.28 -0.88,-3.55 0.66,-1.53 2.44,-2.24 3.97,-1.58 0.77,0.33 1.19,0.82 2.3,2.12l0.3 0.34c2.29,2.51 1.67,6.75 0.64,10.95 -2.04,8.41 -3.16,12.1 -5.77,17.36 -0.5,1 -1.24,2.19 -2.01,3.45 -1.03,1.65 -2.3,3.72 -2.68,4.87l-0.25 0.78c-0.12,0.33 -0.24,0.69 -0.32,0.97 0.36,0.39 1.05,1.03 1.72,1.64l0.25 0.24c1.54,1.44 2.61,2.87 3.56,4.14 1.61,2.13 2.57,3.42 4.99,3.94 1.28,0.27 3.39,0.03 4.28,-0.49 0.96,-0.56 1.78,-1.43 2.65,-2.36 1.27,-1.35 2.7,-2.88 4.78,-3.46 1.58,-0.44 3.12,-0.24 4.47,-0.06 0.6,0.08 1.6,0.21 1.92,0.12 -0.01,-0.02 0.24,-0.42 0.39,-1.6 0.03,-0.16 0.04,-0.3 0.04,-0.42 -0.63,-0.8 -0.85,-1.89 -0.48,-2.92 0.58,-1.57 2.31,-2.37 3.88,-1.8 1.99,0.73 2.95,2.95 2.55,5.94 -0.34,2.63 -1.25,4.48 -2.75,5.63 -2.1,1.6 -4.56,1.28 -6.35,1.04 -0.74,-0.1 -1.65,-0.22 -2.04,-0.11 -0.46,0.13 -1.32,1.04 -2,1.77 -1.02,1.09 -2.29,2.44 -4.01,3.45 -1.71,1 -4,1.42 -6.05,1.42z"/>
  </g>
  <g>
   <path class="fil1" d="M184.41 187.25l0 0 0 0zm14.5 17.71c-1,0 -1.86,-0.73 -2,-1.73 -0.62,-2.25 -10.5,-14.71 -12.74,-16.03 -0.96,-0.3 -1.57,-1.27 -1.39,-2.28 0.19,-1.1 1.23,-1.83 2.33,-1.63 3.23,0.57 15.35,16.17 15.79,19.39 0.15,1.1 -0.62,2.12 -1.72,2.27 -0.09,0.01 -0.18,0.01 -0.27,0.01z"/>
  </g>
  <path class="fil1" d="M125.36 242.69c-0.32,0 -0.64,-0.05 -0.95,-0.15 -5.22,-1.73 -7.3,-7.7 -6.61,-12.43 0.78,-5.34 4.59,-10.05 7.11,-13.16 0.55,-0.68 1.03,-1.27 1.38,-1.75 2.02,-2.83 4.89,-6.12 7.66,-9.3 2.54,-2.92 4.94,-5.67 6.08,-7.39 0.92,-1.39 2.8,-1.78 4.19,-0.85 1.39,0.92 1.77,2.79 0.85,4.18 -1.37,2.06 -3.89,4.96 -6.56,8.03 -2.68,3.07 -5.45,6.24 -7.3,8.84 -0.41,0.56 -0.96,1.25 -1.6,2.05 -2.11,2.59 -5.29,6.52 -5.83,10.22 -0.33,2.25 0.63,5.2 2.53,5.83 1.58,0.52 2.44,2.23 1.91,3.81 -0.42,1.27 -1.6,2.07 -2.86,2.07z"/>
  <path class="fil1" d="M135.17 238.87c-0.59,0 -1.18,-0.17 -1.7,-0.53 -2.86,-1.95 -4.6,-4.81 -4.9,-8.05 -0.32,-3.4 1.02,-6.88 3.67,-9.53 1.18,-1.18 3.09,-1.18 4.27,0 1.18,1.18 1.18,3.09 0,4.27 -1.37,1.38 -2.08,3.09 -1.92,4.7 0.13,1.44 0.92,2.69 2.29,3.63 1.38,0.94 1.73,2.82 0.79,4.2 -0.59,0.85 -1.54,1.31 -2.5,1.31z"/>
  <path class="fil1" d="M141.75 230.3c-0.7,0 -1.4,-0.24 -1.97,-0.73 -3.54,-3.05 -1.84,-7.74 -0.72,-10.84 0.4,-1.09 0.84,-2.33 0.87,-2.94 0.07,-1.67 1.48,-2.96 3.15,-2.89 1.67,0.08 2.96,1.49 2.89,3.15 -0.07,1.54 -0.63,3.09 -1.23,4.74 -0.42,1.16 -1.3,3.58 -1.02,4.21 1.27,1.09 1.41,2.99 0.32,4.26 -0.6,0.69 -1.44,1.04 -2.29,1.04z"/>
  <path class="fil1" d="M150.72 226.12c-0.77,0 -1.55,-0.3 -2.14,-0.89 -3.28,-3.28 -1.27,-10.82 0.49,-13.27 0.97,-1.35 2.87,-1.65 4.21,-0.68 1.36,0.97 1.66,2.86 0.69,4.21 -0.69,0.97 -1.39,4.51 -0.98,5.61 1.04,1.19 1,3 -0.13,4.13 -0.59,0.59 -1.37,0.89 -2.14,0.89z"/>
  <path class="fil1" d="M150.32 207.78c-0.62,0 -1.25,-0.19 -1.79,-0.59 -1.34,-1 -1.63,-2.89 -0.63,-4.23 0.62,-0.84 0.82,-1.67 1.13,-2.92 0.18,-0.7 0.36,-1.44 0.62,-2.22 0.53,-1.58 2.24,-2.43 3.82,-1.91 1.58,0.53 2.44,2.24 1.91,3.83 -0.21,0.61 -0.35,1.19 -0.49,1.75 -0.37,1.53 -0.8,3.26 -2.14,5.06 -0.59,0.81 -1.5,1.23 -2.43,1.23z"/>
  <path class="fil1" d="M159.44 223.51c-1.05,0 -2.08,-0.55 -2.63,-1.54 -2.37,-4.2 0.25,-11.65 2.86,-17.16 0.71,-1.51 2.51,-2.15 4.02,-1.44 1.51,0.72 2.15,2.52 1.44,4.03 -3.02,6.38 -3.61,10.63 -3.06,11.61 0.82,1.45 0.3,3.29 -1.15,4.11 -0.47,0.27 -0.97,0.39 -1.48,0.39z"/>
  <path class="fil1" d="M173.54 223.83c-0.94,0 -1.87,-0.44 -2.46,-1.26 -3.78,-5.29 -3.55,-7.72 -3.04,-13.06 0.11,-1.14 0.24,-2.46 0.35,-4.03 0.11,-1.67 1.52,-2.93 3.22,-2.81 1.66,0.12 2.92,1.56 2.8,3.22 -0.11,1.64 -0.24,3.01 -0.35,4.2 -0.46,4.78 -0.53,5.51 1.94,8.96 0.97,1.35 0.65,3.24 -0.7,4.21 -0.54,0.38 -1.15,0.57 -1.76,0.57z"/>
  <path class="fil1" d="M185.8 225.72c-1.14,0 -2.23,-0.65 -2.74,-1.76l-0.01 -0.01c-2.27,-2.72 -4.22,-7.24 -6.01,-11.65 -0.64,-1.54 0.1,-3.32 1.65,-3.95 1.55,-0.63 3.3,0.1 3.93,1.65l0.01 0.02c1.16,2.85 3.32,8.15 5.22,10.25 0.21,0.23 0.38,0.49 0.51,0.76l0.19 0.4c0.69,1.52 0.03,3.31 -1.48,4.01 -0.41,0.19 -0.84,0.28 -1.27,0.28z"/>
  <path class="fil1" d="M208.72 247.24c-0.81,0 -1.62,-0.32 -2.21,-0.96 -1.14,-1.23 -1.06,-3.14 0.16,-4.27 0.03,-0.03 3.08,-2.93 4.63,-7.19 1.95,-5.34 0.93,-9.99 -3.31,-15.08 -2.18,-2.61 -4.94,-4.98 -7.59,-6.51 -8.36,-4.84 -19.37,-10.98 -20.82,-11.65 -1.41,-0.52 -2.25,-2.02 -1.9,-3.53 0.38,-1.62 2,-2.62 3.63,-2.25 1.64,0.38 21.92,12.08 22.12,12.2 3.23,1.87 6.58,4.74 9.2,7.88 5.62,6.74 7.04,13.62 4.35,21.01 -2.07,5.68 -6.04,9.39 -6.21,9.55 -0.58,0.54 -1.31,0.8 -2.05,0.8z"/>
  <path class="fil1" d="M201.2 241.08c-0.32,0 -0.64,-0.05 -0.96,-0.15 -1.59,-0.54 -2.43,-2.25 -1.9,-3.83 2.63,-7.83 2.19,-9.85 1.46,-13.19 -0.42,-1.93 -0.95,-4.33 -1.07,-8.09 -0.06,-1.67 1.25,-3.06 2.92,-3.12 1.7,-0.08 3.06,1.26 3.12,2.92 0.1,3.2 0.54,5.22 0.93,7 0.95,4.34 1.38,7.44 -1.64,16.41 -0.42,1.26 -1.6,2.05 -2.86,2.05z"/>
  <path class="fil1" d="M191.05 227.55c0,0 0,0 0,0 0,0 0,0 0,0zm2.32 4.95c-0.67,0 -1.36,-0.23 -1.92,-0.7 -1.15,-0.95 -1.41,-2.57 -0.7,-3.82 0.28,-1.95 -1.39,-9.58 -2.17,-11.53 -0.62,-1.55 0.13,-3.31 1.67,-3.93 1.56,-0.62 3.31,0.13 3.94,1.68 0.05,0.12 4.59,13.48 1.51,17.2 -0.59,0.72 -1.46,1.1 -2.33,1.1z"/>
  <path class="fil1" d="M160.41 267c-1.23,0 -2.49,-0.01 -3.8,-0.04 -11.25,-0.26 -19.62,-7.81 -27.01,-14.47 -2.04,-1.84 -3.96,-3.58 -5.88,-5.11 -1.3,-1.04 -1.52,-2.94 -0.47,-4.24 1.04,-1.31 2.94,-1.52 4.24,-0.48 2.06,1.64 4.05,3.44 6.16,5.34 6.93,6.25 14.09,12.71 23.1,12.92 4.16,0.09 7.91,0.03 11.46,-0.19 20.53,-1.29 30.33,-7.71 48.11,-19.38 4.32,-2.82 9.2,-6.03 14.73,-9.46 1.42,-0.88 3.28,-0.44 4.16,0.97 0.88,1.42 0.44,3.28 -0.97,4.16 -5.47,3.4 -10.32,6.58 -14.6,9.38 -18.04,11.83 -28.93,18.97 -51.05,20.36 -2.6,0.16 -5.31,0.24 -8.18,0.24z"/>
  <path class="fil1" d="M156.69 297.98c-0.17,0 -0.34,-0.02 -0.51,-0.07 -1.08,-0.27 -1.72,-1.37 -1.44,-2.45 0.52,-2.01 1.41,-8.93 2.74,-30.5 0.1,-1.74 0.1,-1.74 0.34,-2.16 0.56,-0.96 1.79,-1.29 2.75,-0.73 0.72,0.41 1.08,1.19 1,1.96 -0.01,0.14 -0.04,0.55 -0.08,1.17 -1.07,17.58 -2.03,28.1 -2.85,31.27 -0.24,0.91 -1.06,1.51 -1.95,1.51z"/>
  <path class="fil1" d="M174.01 290.38c-0.07,0 -0.14,-0.01 -0.22,-0.02 -1.1,-0.12 -1.9,-1.11 -1.78,-2.22 0.15,-1.36 0.33,-2.74 0.5,-4.12 0.45,-3.51 0.91,-7.12 0.91,-10.54 0.01,-1.12 0.91,-2.01 2.02,-2.01l0 0c1.11,0 2.01,0.9 2.01,2.01 -0.01,3.67 -0.48,7.42 -0.94,11.04 -0.18,1.36 -0.35,2.72 -0.5,4.06 -0.11,1.03 -0.98,1.8 -2,1.8z"/>
  <path class="fil1" d="M241.81 262.99c-1.39,0 -2.64,-0.96 -2.95,-2.37 -3.97,-17.95 -2.46,-31.59 -0.87,-46.05 0.85,-7.72 1.73,-15.71 1.73,-24.56 0,-10.28 -1.28,-17.66 -2.41,-24.18 -0.29,-1.7 -0.58,-3.33 -0.82,-4.9 -1.96,-12.87 -3.31,-18.98 -3.74,-19.95 -0.82,-1.44 -0.3,-3.24 1.15,-4.07 1.44,-0.83 3.31,-0.28 4.15,1.17 0.96,1.66 2.44,9.05 4.42,21.93 0.23,1.54 0.51,3.13 0.79,4.79 1.12,6.42 2.5,14.41 2.5,25.21 0,9.18 -0.89,17.34 -1.76,25.23 -1.54,13.94 -2.99,27.1 0.76,44.08 0.36,1.63 -0.67,3.24 -2.3,3.6 -0.22,0.05 -0.44,0.07 -0.65,0.07z"/>
  <path class="fil1" d="M242.35 208.64c-1.43,0 -2.7,-1.01 -2.97,-2.46 -0.31,-1.64 0.77,-3.22 2.41,-3.53 6.42,-1.21 11.73,-15.1 11.73,-21.67 0,-1.67 1.35,-3.02 3.02,-3.02 1.67,0 3.02,1.35 3.02,3.02 0,7.31 -5.66,25.53 -16.65,27.6 -0.19,0.04 -0.38,0.06 -0.56,0.06z"/>
  <path class="fil1" d="M255.92 161.24c-0.69,0 -1.38,-0.23 -1.95,-0.7 -1.8,-1.5 -2.52,-3.98 -3.28,-6.6 -0.3,-1 -0.6,-2.04 -0.94,-2.88 -1.48,-3.67 -4.34,-8.27 -6.58,-9.6 -9.18,-5.45 -11.84,-14.07 -13.95,-23.17 -0.37,-1.62 -0.74,-3.43 -1.13,-5.35 -1.89,-9.27 -4.47,-21.97 -11.15,-26.18 -5.49,-3.47 -7.86,-5.75 -10.61,-8.39 -1.42,-1.36 -2.89,-2.77 -4.99,-4.55 -1.28,-1.08 -1.44,-2.98 -0.36,-4.26 1.08,-1.27 2.98,-1.43 4.26,-0.35 2.25,1.9 3.85,3.44 5.27,4.8 2.62,2.51 4.68,4.5 9.66,7.64 8.86,5.59 11.74,19.75 13.84,30.09 0.38,1.86 0.73,3.62 1.09,5.18 1.88,8.07 4.01,15.1 11.16,19.35 5.18,3.08 8.71,11.58 9.1,12.54 0.45,1.11 0.79,2.29 1.13,3.44 0.35,1.2 0.94,3.22 1.37,3.67 1.28,1.07 1.45,2.96 0.38,4.24 -0.6,0.72 -1.46,1.08 -2.32,1.08z"/>
  <path class="fil1" d="M283.96 165.81c-14.08,0 -21.82,-19.86 -27.09,-33.38 -1.34,-3.44 -2.5,-6.41 -3.54,-8.54 -3.11,-6.33 -6.6,-13.07 -9.4,-18.49 -2,-3.87 -3.69,-7.13 -4.72,-9.23 -2.59,-5.29 -3.52,-6.32 -12.53,-13.76 -1.29,-1.06 -1.47,-2.96 -0.41,-4.25 1.07,-1.28 2.97,-1.47 4.26,-0.4 9.25,7.64 10.96,9.34 14.11,15.75 1.01,2.07 2.68,5.29 4.65,9.11 2.82,5.45 6.32,12.22 9.46,18.61 1.16,2.36 2.36,5.44 3.75,9 4.97,12.76 12.5,32.02 23.92,29.22 0.74,-0.18 2.27,-0.35 4.71,-0.62 1.03,-0.11 1.93,-0.21 2.26,-0.26 1.63,-0.29 3.2,0.78 3.51,2.41 0.31,1.62 -0.72,3.18 -2.34,3.51 -0.39,0.08 -1.07,0.16 -2.77,0.35 -1.21,0.13 -3.45,0.37 -3.94,0.48 -1.35,0.33 -2.65,0.49 -3.89,0.49z"/>
  <path class="fil1" d="M291.18 127.09c-4.02,0 -8.15,-0.86 -11.76,-2.85 -6.32,-3.5 -9.92,-9.61 -12.07,-13.9 -12.3,-24.53 -14.68,-25.87 -37.38,-38.68l-4.05 -2.29c-9.44,-5.35 -13.51,-6.92 -14.43,-7 -1.64,-0.15 -2.91,-1.59 -2.79,-3.23 0.12,-1.64 1.49,-2.9 3.12,-2.8 1.02,0.05 3.72,0.2 17.08,7.77l4.04 2.29c23.13,13.05 26.68,15.06 39.81,41.23 2.89,5.75 5.85,9.25 9.6,11.32 7.16,3.96 17.36,1.78 20.22,-1.74 0.6,-0.74 0.74,-1.27 -0.12,-2.27 -1.09,-1.26 -0.94,-3.17 0.32,-4.26 1.27,-1.09 3.18,-0.94 4.26,0.32 2.7,3.14 2.78,6.88 0.22,10.03 -2.96,3.63 -9.34,6.06 -16.07,6.06z"/>
  <path class="fil1" d="M141.48 95.49c-4.07,0 -8.21,-0.6 -12.19,-1.83 -9.33,-2.88 -16.25,-8.71 -19.48,-16.39 -0.64,-1.54 0.08,-3.31 1.62,-3.96 1.54,-0.65 3.31,0.08 3.95,1.62 2.53,6.01 8.1,10.61 15.7,12.96 9.14,2.82 19.62,1.69 26.7,-2.88 4.54,-2.94 5.23,-4.64 6.11,-6.8 0.78,-1.91 1.75,-4.27 4.95,-7 1.12,-0.95 2.75,-0.97 3.89,-0.03 2.76,2.29 8.27,1.62 12.21,0.03 5.99,-2.42 6.99,-3.37 8.98,-5.26 0.97,-0.92 2.18,-2.07 4.12,-3.59 1.31,-1.03 3.21,-0.8 4.24,0.51 1.03,1.32 0.8,3.21 -0.52,4.24 -1.71,1.35 -2.75,2.34 -3.68,3.22 -2.51,2.38 -4.14,3.76 -10.88,6.48 -4.54,1.84 -11.04,2.86 -15.97,0.52 -0.89,1.07 -1.28,2.03 -1.74,3.16 -1.08,2.63 -2.3,5.62 -8.43,9.59 -5.51,3.56 -12.44,5.41 -19.58,5.41z"/>
  <path class="fil1" d="M88.65 92.09c-2.13,0 -4.54,-0.51 -7.33,-1.66 -0.93,-0.38 -1.58,-0.83 -2.24,-1.56 -1.13,-1.23 -1.04,-3.14 0.19,-4.26 1.24,-1.13 3.15,-1.03 4.27,0.2 5.67,2.33 8.31,1.51 12.35,-3.74 1.77,-2.32 2.99,-4.76 4.28,-7.34 2.46,-4.92 5,-10.01 11.37,-14.04 2.86,-1.81 6.11,-2.47 8.99,-3.06 1.02,-0.21 2.04,-0.41 3.02,-0.67 2,-0.52 3.96,-0.59 5.53,-0.65 0.71,-0.03 1.37,-0.05 1.93,-0.13 1.66,-0.23 3.18,0.93 3.41,2.58 0.23,1.65 -0.93,3.18 -2.58,3.41 -0.79,0.11 -1.64,0.14 -2.54,0.17 -1.41,0.06 -2.86,0.11 -4.23,0.47 -1.09,0.28 -2.21,0.51 -3.33,0.74 -2.6,0.53 -5.05,1.03 -6.97,2.24 -4.95,3.13 -6.91,7.08 -9.19,11.64 -1.36,2.72 -2.77,5.54 -4.9,8.31 -3.36,4.39 -6.9,7.35 -12.03,7.35z"/>
  <path class="fil1" d="M84.99 114.74c-3.22,0 -6.35,-0.82 -9.09,-2.47 -5.52,-3.31 -8.68,-9.55 -8.68,-17.14 0,-1.66 1.35,-3.02 3.02,-3.02 1.67,0 3.02,1.36 3.02,3.02 0,5.49 2.04,9.74 5.75,11.96 3.69,2.22 8.54,2.14 12.97,-0.22 4.16,-2.22 5.45,-4.59 6.7,-6.88 4.08,-7.53 10.52,-12.22 20.23,-14.76 1.62,-0.42 3.26,0.55 3.68,2.16 0.43,1.62 -0.54,3.27 -2.16,3.69 -7.98,2.08 -13.21,5.83 -16.45,11.79 -1.79,3.3 -3.84,6.49 -9.16,9.33 -3.18,1.69 -6.56,2.54 -9.83,2.54z"/>
  <path class="fil1" d="M84.48 168.24c-2.88,0 -5.26,-0.82 -7.08,-1.8 -8.84,-4.78 -13.83,-18.61 -14.33,-29.98 -0.01,-0.06 -0.02,-0.11 -0.04,-0.16 -0.7,-2.71 0.92,-3.95 1.44,-4.27 0.93,-0.58 2.1,-0.6 3.06,-0.07 0.95,0.53 1.55,1.54 1.55,2.64 0,0.23 0,0.47 0,0.71 0.91,1.87 4.54,6.25 9.74,6.5 2.58,0.14 6.01,-0.78 7.23,-2.72 0.88,-1.41 2.75,-1.83 4.16,-0.95 1.41,0.89 1.84,2.76 0.95,4.17 -2.59,4.12 -8.21,5.77 -12.64,5.54 -3.02,-0.15 -5.73,-1.17 -8.02,-2.6 1.8,6.94 5.21,13.41 9.77,15.87 3.45,1.86 7.3,1.34 11.78,-1.59 5.25,-3.44 6.12,-9.3 7.12,-16.09 1.32,-8.89 2.96,-19.95 16.38,-25.99 1.52,-0.69 3.31,-0.01 4,1.51 0.68,1.52 0.01,3.31 -1.51,4 -10.42,4.69 -11.62,12.79 -12.89,21.36 -1.12,7.54 -2.28,15.34 -9.78,20.26 -4.15,2.71 -7.8,3.66 -10.89,3.66z"/>
  <path class="fil1" d="M82.89 135.13c-1.02,0 -2.01,-0.13 -2.93,-0.43 -3.32,-1.06 -5.25,-3.96 -5.17,-7.74 0.04,-1.67 1.34,-3.03 3.09,-2.96 1.67,0.04 2.99,1.42 2.95,3.09 -0.03,1.54 0.58,1.73 0.98,1.86 1.84,0.59 4.83,-0.56 5.72,-1.85 0.13,-0.2 13.41,-19.34 23.56,-18.02 1.66,0.22 2.82,1.73 2.61,3.38 -0.22,1.66 -1.75,2.82 -3.39,2.61 -4.05,-0.52 -13.25,8.79 -17.79,15.44 -1.93,2.81 -5.95,4.62 -9.63,4.62z"/>
  <path class="fil1" d="M272.79 60.94c-11.86,0 -25.57,-10.11 -34.53,-16.71 -2.44,-1.79 -4.54,-3.34 -6.08,-4.31 -8.69,-5.44 -14.38,-6.52 -20.97,-7.79 -3.65,-0.7 -7.78,-1.49 -12.74,-3.09 -1.59,-0.51 -2.46,-2.21 -1.95,-3.8 0.51,-1.59 2.21,-2.46 3.8,-1.95 4.61,1.49 8.38,2.21 12.03,2.91 6.88,1.32 13.39,2.57 23.04,8.61 1.73,1.08 3.92,2.69 6.45,4.56 10.13,7.46 27.08,19.95 36.77,13.99 1.42,-0.88 3.28,-0.43 4.15,0.99 0.88,1.42 0.44,3.28 -0.98,4.15 -2.78,1.71 -5.82,2.44 -8.99,2.44z"/>
  <path class="fil1" d="M284.31 108.52c-1.15,0 -2.25,-0.66 -2.76,-1.78 -0.68,-1.52 -0.01,-3.31 1.51,-3.99 2.52,-1.15 5.78,-3.18 6.94,-6.39 0.79,-2.2 0.49,-4.76 -0.89,-7.61 -2.08,-4.28 -7.48,-7.5 -13.19,-10.9 -3.83,-2.28 -7.78,-4.64 -11.13,-7.54 -1.26,-1.1 -1.4,-3 -0.3,-4.26 1.08,-1.26 2.99,-1.4 4.26,-0.31 2.94,2.56 6.66,4.77 10.26,6.92 6.23,3.71 12.67,7.55 15.54,13.45 2.12,4.37 2.5,8.51 1.13,12.3 -1.49,4.11 -4.99,7.51 -10.13,9.84 -0.4,0.18 -0.83,0.27 -1.24,0.27z"/>
  <path class="fil1" d="M251.22 216.95c-1.67,0 -3.02,-1.35 -3.02,-3.02 0,-1.67 1.35,-3.02 3.02,-3.02 16.06,0 21.51,-13.49 24.44,-20.74 1.03,-2.54 1.6,-3.95 2.63,-4.86 6.21,-5.46 6.86,-9.34 7.55,-13.45 0.62,-3.73 1.33,-7.96 6.02,-12.5 6.06,-5.86 10.28,-20.56 10.28,-30.08 0,-1.67 1.35,-3.02 3.02,-3.02 1.67,0 3.02,1.35 3.02,3.02 0,9.15 -3.85,26.42 -12.12,34.42 -3.26,3.15 -3.7,5.81 -4.26,9.16 -0.75,4.47 -1.68,10.03 -9.35,16.84 -0.26,0.45 -0.77,1.71 -1.19,2.74 -2.96,7.33 -9.91,24.51 -30.04,24.51z"/>
  <path class="fil1" d="M117.27 44.43c-0.62,0 -1.25,-0.19 -1.79,-0.59 -1.34,-0.99 -1.63,-2.88 -0.64,-4.22 9.18,-12.5 19.44,-16.26 26.36,-18 3.22,-0.81 6.4,-2.21 9.77,-3.69 4.98,-2.2 10.14,-4.46 15.6,-4.71 6.31,-0.28 14.19,2.7 16.81,6.38 0.51,0.57 3.17,1.09 4.6,1.37 2.23,0.43 4.34,0.84 5.92,1.89 1.38,0.92 1.76,2.79 0.84,4.18 -0.92,1.39 -2.8,1.77 -4.19,0.85 -0.57,-0.38 -2.39,-0.73 -3.71,-0.99 -3.09,-0.6 -6.58,-1.28 -8.38,-3.79 -1.03,-1.46 -6.64,-4.1 -11.62,-3.85 -4.33,0.19 -8.76,2.14 -13.44,4.2 -3.45,1.51 -7.01,3.08 -10.73,4.02 -6.52,1.64 -15.03,4.91 -22.96,15.71 -0.6,0.81 -1.51,1.24 -2.44,1.24z"/>
  <path class="fil1" d="M138.62 78.07c-0.53,0 -1.07,-0.01 -1.64,-0.03 -8.65,-0.33 -17.68,-6.91 -20.56,-14.98 -0.55,-1.57 0.26,-3.3 1.83,-3.86 1.57,-0.56 3.3,0.26 3.86,1.83 2.08,5.81 8.85,10.73 15.1,10.97 5.8,0.22 8.83,-0.67 14.02,-4.12 4.48,-2.98 5.08,-5.19 5.72,-7.53 1.6,-5.91 4.57,-8.6 18.81,-10 1.36,-0.13 2.18,-0.12 3.12,-0.11l0.98 0.01c1.67,0 3.02,1.36 3.02,3.02 0,1.67 -1.35,3.03 -3.02,3.03l-1.06 -0.01c-0.86,-0.02 -1.43,-0.02 -2.45,0.08 -12.39,1.21 -12.83,2.85 -13.57,5.56 -0.77,2.85 -1.83,6.75 -8.2,10.99 -5.07,3.37 -9.07,5.15 -15.96,5.15z"/>
  <path class="fil1" d="M151.76 46.13c-0.28,0 -0.56,-0.04 -0.84,-0.12 -1.6,-0.46 -2.53,-2.14 -2.06,-3.74 0.63,-2.17 2.45,-5.16 7.58,-7.07 9.15,-3.4 25.43,-1.97 30.9,1.59 2.57,1.67 11.67,2.7 18.63,2.7 1.67,0 3.03,1.35 3.03,3.02 0,1.67 -1.36,3.02 -3.03,3.02 -1.66,0 -16.43,-0.1 -21.92,-3.68 -3.29,-2.13 -17.47,-3.97 -25.5,-0.98 -1.53,0.56 -3.45,1.56 -3.89,3.08 -0.38,1.32 -1.59,2.18 -2.9,2.18z"/>
  <path class="fil1" d="M137.36 294.43c-0.3,0 -0.6,-0.04 -0.9,-0.13 -1.59,-0.49 -2.48,-2.19 -1.99,-3.78 2.03,-6.58 1.08,-14.38 0.25,-21.26 -0.57,-4.68 -1.06,-8.72 -0.53,-11.84 0.28,-1.65 1.83,-2.76 3.48,-2.47 1.65,0.28 2.76,1.84 2.48,3.48 -0.39,2.26 0.08,6.07 0.57,10.1 0.86,7.11 1.93,15.96 -0.48,23.77 -0.4,1.3 -1.6,2.13 -2.88,2.13z"/>
  <path class="fil1" d="M51.19 339.72c-0.39,0 -0.79,-0.07 -1.17,-0.23 -1.54,-0.65 -2.26,-2.43 -1.61,-3.96 0.91,-2.16 1.54,-3.81 2.04,-5.14 2.45,-6.48 3.04,-6.95 12.95,-14.86 4.04,-3.23 5.63,-3.91 7.75,-4.65 0.84,-0.3 1.64,-0.57 2.97,-1.29 1.87,-1 4.35,-1.95 6.55,-2.78 1.25,-0.48 2.68,-1.03 3.16,-1.29 2.9,-1.59 6.58,-3.17 10.47,-4.84 8.04,-3.45 17.16,-7.36 20.89,-12.04 4.96,-6.23 8.75,-8.34 15.88,-10.98 0.8,-0.3 1.7,-0.24 2.46,0.16 0.76,0.41 1.31,1.11 1.52,1.95 1.85,7.41 4.61,12.14 7.82,17.62 1.68,2.89 3.43,5.88 5.19,9.49 0.77,1.6 1.45,2.51 2.1,3.4 0.59,0.79 1.19,1.61 1.66,2.68 0.68,1.53 -0.02,3.31 -1.55,3.99 -1.52,0.67 -3.3,-0.03 -3.98,-1.55 -0.2,-0.46 -0.53,-0.91 -0.99,-1.53 -0.7,-0.95 -1.66,-2.25 -2.68,-4.35 -1.65,-3.41 -3.34,-6.29 -4.97,-9.08 -2.83,-4.85 -5.53,-9.47 -7.54,-15.92 -4.42,1.86 -6.83,3.66 -10.2,7.89 -4.67,5.87 -14.53,10.09 -23.23,13.82 -3.75,1.61 -7.3,3.13 -9.94,4.59 -0.84,0.45 -2.2,0.97 -3.92,1.63 -1.92,0.74 -4.32,1.65 -5.85,2.47 -1.75,0.93 -2.9,1.34 -3.83,1.66 -1.41,0.49 -2.44,0.85 -5.97,3.67 -9.21,7.35 -9.21,7.35 -11.07,12.27 -0.52,1.39 -1.17,3.11 -2.13,5.36 -0.48,1.15 -1.6,1.84 -2.78,1.84z"/>
  <g>
   <path class="fil1" d="M95.87 335.84l0 0.01 0 -0.01zm-4.02 5.47c-0.32,0 -0.66,-0.05 -0.98,-0.16 -1.57,-0.55 -2.41,-2.26 -1.87,-3.83 0.06,-0.18 0.23,-0.64 0.43,-1.14 0.18,-0.47 0.39,-0.98 0.49,-1.26 1.13,-5.07 13.36,-17.09 14.9,-18.06 5.92,-3.73 13.74,-10.85 16.57,-16.32l0.94 -1.8c1.3,-2.49 1.61,-3.08 3.43,-7.28 0.66,-1.54 2.43,-2.24 3.97,-1.58 1.53,0.66 2.23,2.44 1.57,3.97 -1.91,4.41 -2.3,5.17 -3.62,7.69l-0.92 1.77c-3.43,6.63 -12.21,14.56 -18.72,18.66 -1.82,1.3 -11.27,11.54 -12.19,14.08 -0.06,0.45 -0.22,0.87 -0.79,2.33 -0.16,0.39 -0.3,0.75 -0.35,0.9 -0.43,1.25 -1.61,2.03 -2.86,2.03z"/>
  </g>
  <g>
   <path class="fil1" d="M167.82 315.14l0 0.01 0 -0.01zm0 0.01l0 0.01 0 -0.01zm154.64 12.02c-0.55,0 -1.11,-0.15 -1.62,-0.48l-1.06 -0.67c-8.23,-3.34 -15.75,-9.4 -21.81,-14.28 -2.65,-2.13 -5.14,-4.14 -7.21,-5.52 -3.51,-2.35 -6.52,-4.21 -9.43,-6 -6.42,-3.97 -12.49,-7.71 -22.04,-15.64 -2.44,-2.03 -5.05,-5.89 -7.81,-9.97 -2.31,-3.41 -5.87,-8.67 -8.42,-10.76 -7.39,11.92 -19.87,18.89 -31.97,25.64 -2.63,1.47 -5.35,2.98 -7.91,4.5 -22.22,13.16 -33.83,20.68 -35.75,22.48 -0.35,0.62 -0.92,1.11 -1.63,1.36 -2.63,0.91 -6.09,0.44 -9.75,-0.06 -2.38,-0.32 -4.83,-0.66 -6.87,-0.57 -1.64,0.06 -3.07,-1.23 -3.14,-2.9 -0.07,-1.67 1.23,-3.07 2.9,-3.14 2.57,-0.1 5.29,0.27 7.92,0.63 2.32,0.32 4.91,0.66 6.37,0.47 2.81,-2.67 11.25,-8.3 36.87,-23.47 2.63,-1.56 5.38,-3.09 8.04,-4.58 12.15,-6.77 24.71,-13.78 31,-25.65 0.59,-1.12 1.82,-1.75 3.06,-1.58 5.08,0.66 9.55,7.25 14.28,14.24 2.4,3.56 4.89,7.23 6.67,8.71 9.22,7.66 14.84,11.13 21.35,15.15 2.96,1.82 6.01,3.71 9.62,6.12 2.29,1.53 4.89,3.62 7.64,5.83 5.81,4.68 13.04,10.51 20.53,13.48 0.17,0.07 0.35,0.16 0.51,0.27l1.29 0.82c1.41,0.9 1.82,2.77 0.92,4.17 -0.57,0.91 -1.55,1.4 -2.55,1.4z"/>
  </g>
  <path class="fil1" d="M190.51 346.7c-0.52,0 -1.04,-0.13 -1.52,-0.42 -1.44,-0.84 -1.92,-2.69 -1.08,-4.13 3.29,-5.59 12.38,-14.67 22.91,-25.2 2.5,-2.49 5.04,-5.03 7.55,-7.57 18.05,-18.28 19.33,-20.95 29.25,-41.76l0.36 -0.75c0.71,-1.51 2.52,-2.15 4.02,-1.43 1.51,0.72 2.15,2.52 1.43,4.03l-0.36 0.75c-10.08,21.15 -11.63,24.4 -30.4,43.4 -2.52,2.55 -5.07,5.1 -7.58,7.61 -9.81,9.8 -19.08,19.06 -21.97,23.98 -0.56,0.96 -1.57,1.49 -2.61,1.49z"/>
  <path class="fil1" d="M249.06 62.42c-7.34,0 -11.76,-2.57 -16.88,-5.55l-1.35 -0.78c-0.85,-0.49 -1.65,-0.96 -2.43,-1.42 -5.53,-3.27 -8.57,-5.08 -14.93,-4.05 -1.63,0.27 -3.2,-0.85 -3.47,-2.49 -0.26,-1.65 0.85,-3.2 2.5,-3.47 8.51,-1.38 13.13,1.35 18.98,4.81 0.75,0.44 1.54,0.91 2.36,1.38l1.38 0.8c4.72,2.75 8.13,4.73 13.84,4.73 1.67,0 3.02,1.35 3.02,3.02 0,1.67 -1.35,3.02 -3.02,3.02z"/>
  <path class="fil1" d="M94.79 184.13c-4.69,0 -9.41,-1.05 -13.35,-3.18 -5.37,-2.91 -8.26,-7.3 -8.15,-12.38 0.03,-1.65 1.38,-2.95 3.02,-2.95 0.02,0 0.04,0 0.06,0 1.67,0.03 2.99,1.41 2.96,3.08 -0.08,3.46 2.67,5.68 4.99,6.93 5.74,3.11 15.52,3.71 21.92,-0.68 1.38,-0.94 3.26,-0.58 4.2,0.79 0.94,1.37 0.59,3.25 -0.79,4.2 -4.06,2.78 -9.44,4.19 -14.86,4.19z"/>
  <path class="fil1" d="M116.4 223.43c-1.61,0 -2.93,-1.26 -3.02,-2.84 -0.09,-1.35 -1.61,-21.73 -1.84,-23.95 -4.45,-16.53 -3.33,-26.41 -2.44,-34.36 0.56,-4.99 1.05,-9.29 0.02,-14.25 -0.33,-1.63 0.72,-3.23 2.35,-3.57 1.63,-0.33 3.23,0.72 3.57,2.35 1.22,5.9 0.66,10.88 0.06,16.15 -0.88,7.86 -1.89,16.76 2.32,32.3 0.27,1 2,24.97 2,25.15 0,1.67 -1.36,3.02 -3.02,3.02z"/>
  <path class="fil2" d="M200.7 147.93c2.78,0 5.05,2.26 5.05,5.05 0,2.79 -2.27,5.05 -5.05,5.05 -2.79,0 -5.05,-2.26 -5.05,-5.05 0,-2.79 2.26,-5.05 5.05,-5.05z"/>
  <path class="fil2" d="M138.51 147.88c2.79,0 5.05,2.26 5.05,5.05 0,2.79 -2.26,5.05 -5.05,5.05 -2.78,0 -5.05,-2.26 -5.05,-5.05 0,-2.79 2.27,-5.05 5.05,-5.05z"/>
  <path class="fil1" d="M294.44 148.1c-7.32,0 -11.79,-4.95 -15.86,-9.45 -1.49,-1.65 -3.04,-3.36 -4.7,-4.85 -0.83,-0.74 -0.91,-2.01 -0.17,-2.84 0.74,-0.83 2.02,-0.9 2.85,-0.16 1.82,1.63 3.44,3.42 5,5.15 5.39,5.95 9.65,10.65 19.56,6.63 1.02,-0.41 2.2,0.08 2.62,1.11 0.42,1.03 -0.08,2.21 -1.11,2.62 -3.09,1.26 -5.79,1.79 -8.19,1.79z"/>
  <path class="fil1" d="M274.37 190.45c-0.99,0 -2,-0.06 -3.03,-0.19 -8.21,-1.06 -15.54,-5.91 -19.14,-12.66 -2.93,-5.5 -5.88,-12.48 -7.14,-15.83 -0.59,-1.56 0.2,-3.31 1.76,-3.9 1.56,-0.58 3.31,0.21 3.9,1.77 1.2,3.2 4.01,9.88 6.81,15.12 2.65,4.98 8.37,8.71 14.58,9.5 4.25,0.55 7.85,-0.4 9.87,-2.6 1.14,-1.22 3.05,-1.3 4.27,-0.17 1.23,1.14 1.31,3.05 0.17,4.27 -2.81,3.05 -7.1,4.69 -12.05,4.69z"/>
  <path class="fil1" d="M183.53 344.39c-1.67,0 -3.02,-1.35 -3.02,-3.02 0,-17.7 -5.05,-19.09 -10.4,-20.57 -2.49,-0.69 -5.31,-1.46 -7.49,-3.73 -1.15,-1.2 -1.11,-3.12 0.09,-4.27 1.21,-1.15 3.11,-1.12 4.27,0.08 1.03,1.07 2.75,1.55 4.74,2.1 7.82,2.15 14.83,5.8 14.83,26.39 0,1.67 -1.35,3.02 -3.02,3.02z"/>
  <path class="fil1" d="M126 341.16c-1.52,0 -2.83,-1.14 -3,-2.69 -0.11,-0.93 0.11,-1.34 0.77,-2.58 5.32,-10.05 6.43,-12.38 6.62,-12.88 2.56,-8.75 8.59,-9.53 12.58,-10.05 1.77,-0.22 3.29,-0.42 4.22,-1.15 1.31,-1.03 3.21,-0.81 4.24,0.5 1.03,1.31 0.81,3.21 -0.5,4.25 -2.24,1.75 -4.86,2.09 -7.18,2.39 -3.68,0.48 -6.11,0.8 -7.6,5.86 -0.2,0.69 -0.91,2.33 -7.04,13.9l-0.41 0.77c-0.44,0.89 -1.31,1.54 -2.37,1.66 -0.11,0.01 -0.22,0.02 -0.33,0.02z"/>
  <path class="fil1" d="M153.87 336.13c-0.19,0 -0.37,-0.02 -0.56,-0.06 -1.64,-0.3 -2.72,-1.88 -2.41,-3.52l1.43 -7.73c0.31,-1.64 1.89,-2.72 3.52,-2.42 1.65,0.31 2.73,1.89 2.42,3.53l-1.44 7.73c-0.27,1.45 -1.53,2.47 -2.96,2.47z"/>
  <path class="fil1" d="M86.92 73.65c-2.39,0 -4.61,-1.05 -6.28,-2.97 -1.1,-1.26 -0.96,-3.17 0.3,-4.26 1.26,-1.09 3.16,-0.96 4.26,0.3 0.71,0.82 1.36,0.9 1.79,0.89 1.55,-0.05 3.66,-1.61 5.63,-4.18 1.77,-2.31 2.99,-4.75 4.28,-7.34 2.46,-4.92 5,-10 11.37,-14.04 2.85,-1.81 6.12,-2.47 8.99,-3.06 1.02,-0.2 2.04,-0.41 3.02,-0.66 2,-0.52 3.95,-0.6 5.52,-0.66 0.72,-0.02 1.38,-0.04 1.93,-0.12 1.67,-0.23 3.18,0.92 3.42,2.57 0.23,1.65 -0.92,3.18 -2.58,3.41 -0.79,0.11 -1.64,0.15 -2.54,0.18 -1.41,0.05 -2.87,0.11 -4.23,0.46 -1.09,0.29 -2.21,0.51 -3.33,0.74 -2.6,0.53 -5.05,1.03 -6.97,2.25 -4.95,3.13 -6.91,7.07 -9.19,11.63 -1.37,2.73 -2.77,5.55 -4.9,8.32 -4.04,5.27 -7.8,6.46 -10.24,6.54 -0.08,0 -0.17,0 -0.25,0z"/>
  <path class="fil1" d="M116.79 123.22c-1.63,0 -2.98,-1.3 -3.01,-2.94 -0.27,-10.8 2.36,-21.3 7.02,-28.08 0.95,-1.38 2.83,-1.72 4.2,-0.78 1.38,0.95 1.72,2.83 0.78,4.2 -4.68,6.8 -6.15,17.12 -5.97,24.51 0.05,1.67 -1.28,3.05 -2.94,3.09 -0.03,0 -0.05,0 -0.08,0z"/>
  <path class="fil1" d="M167.58 231.85c-3.72,0 -8.05,-0.53 -11.52,-0.95 -1.89,-0.23 -3.87,-0.48 -4.53,-0.46 -1.66,0.06 -3.04,-1.29 -3.08,-2.96 -0.03,-1.66 1.29,-3.04 2.96,-3.08 1.15,-0.02 2.91,0.2 5.38,0.5 3.31,0.41 7.44,0.91 10.79,0.91 2.35,0 8.97,-0.45 12.28,-1.16 1.63,-0.35 3.24,0.7 3.59,2.33 0.35,1.63 -0.7,3.24 -2.33,3.58 -3.91,0.84 -11,1.29 -13.54,1.29z"/>
 </g>
</svg>
