<?xml version="1.0" encoding="UTF-8"?>
<!DOCTYPE svg PUBLIC "-//W3C//DTD SVG 1.1//EN" "http://www.w3.org/Graphics/SVG/1.1/DTD/svg11.dtd">
<!-- Creator: CorelDRAW 2018 (64-Bit) -->
<svg xmlns="http://www.w3.org/2000/svg" xml:space="preserve" width="845px" height="845px" version="1.1" style="shape-rendering:geometricPrecision; text-rendering:geometricPrecision; image-rendering:optimizeQuality; fill-rule:evenodd; clip-rule:evenodd"
viewBox="0 0 360.18 360.18"
 xmlns:xlink="http://www.w3.org/1999/xlink">
 <defs>
  <style type="text/css">
   <![CDATA[
    .fil0 {fill:none}
    .fil2 {fill:black}
    .fil1 {fill:black;fill-rule:nonzero}
   ]]>
  </style>
 </defs>
 <g id="Слой_x0020_1">
  <metadata id="CorelCorpID_0Corel-Layer"/>
  <rect class="fil0" width="360.18" height="360.18"/>
 </g>
 <g id="_1">
  <metadata id="CorelCorpID_1Corel-Layer"/>
  <path class="fil1" d="M183.36 121.78c-0.74,0 -1.48,-0.27 -2.06,-0.82 -1.81,-1.69 -13.08,-8.85 -14.89,-9.45 -4.09,-1.04 -7.44,-0.32 -10.51,0.52 -0.99,0.27 -2.1,0.53 -3.28,0.81 -4.1,0.95 -9.2,2.14 -11.32,4.46 -1.12,1.23 -3.04,1.31 -4.26,0.19 -1.23,-1.12 -1.32,-3.04 -0.2,-4.27 3.38,-3.69 9.49,-5.12 14.4,-6.27 1.11,-0.25 2.15,-0.5 3.07,-0.75 3.96,-1.07 8.35,-1.89 13.65,-0.53 2.91,0.75 15.51,9.05 17.47,10.88 1.22,1.14 1.28,3.05 0.14,4.27 -0.6,0.64 -1.4,0.96 -2.21,0.96z"/>
  <path class="fil1" d="M267.78 147.75c-0.73,0 -1.45,-0.26 -2.03,-0.79 -2.9,-2.64 -4.49,-5.04 -5.89,-7.16 -2.39,-3.63 -3.97,-6.03 -11.66,-8.34 -2.75,-0.82 -5.42,-1.15 -8.21,-1.05 -1.9,0.08 -4.73,0.54 -7.23,0.96 -2.86,0.47 -4.66,0.75 -5.86,0.73 -1.66,-0.05 -2.98,-1.44 -2.93,-3.1 0.04,-1.67 1.37,-3.02 3.1,-2.94 0.64,0.02 2.91,-0.35 4.71,-0.65 2.67,-0.44 5.7,-0.94 7.97,-1.04 3.46,-0.14 6.78,0.29 10.18,1.31 9.79,2.93 12.31,6.75 14.98,10.79 1.26,1.91 2.56,3.89 4.91,6.03 1.23,1.12 1.32,3.03 0.19,4.26 -0.59,0.66 -1.41,0.99 -2.23,0.99z"/>
  <path class="fil1" d="M255.12 159.07c-0.42,0 -0.85,-0.08 -1.25,-0.27 -2.58,-1.18 -4.27,-2.56 -5.77,-3.78 -1.96,-1.59 -3.65,-2.96 -7.39,-4.06 -5.32,-1.57 -9.18,-0.85 -13.26,-0.1 -2.35,0.44 -4.78,0.89 -7.45,0.89 -1.67,0 -3.03,-1.35 -3.03,-3.02 0,-1.67 1.36,-3.02 3.03,-3.02 2.12,0 4.17,-0.38 6.35,-0.79 4.39,-0.81 9.36,-1.73 16.06,0.24 4.91,1.44 7.35,3.43 9.5,5.18 1.39,1.13 2.6,2.11 4.48,2.97 1.51,0.69 2.18,2.49 1.48,4 -0.51,1.11 -1.6,1.76 -2.75,1.76z"/>
  <path class="fil1" d="M181.24 144.05c-3.19,0 -6.66,-2.66 -10.34,-5.47 -1.91,-1.46 -3.88,-2.97 -5.27,-3.64 -2.57,-1.22 -9.97,-1.76 -15.85,-1.16 -0.67,0.07 -1.62,0.3 -2.54,0.52 -1.45,0.34 -2.94,0.7 -4.27,0.7 -1.67,0 -3.02,-1.35 -3.02,-3.02 0,-1.67 1.35,-3.02 3.02,-3.02 0.62,0 1.81,-0.29 2.86,-0.54 1.12,-0.27 2.27,-0.54 3.34,-0.65 6.16,-0.63 14.92,-0.24 19.05,1.72 1.97,0.94 4.1,2.56 6.35,4.29 1.92,1.46 5.48,4.19 6.67,4.23 1.65,0.04 3,1.4 2.98,3.06 -0.02,1.65 -1.33,2.98 -2.98,2.98z"/>
  <path class="fil1" d="M198.73 194.46c-0.51,0 -1.03,-0.04 -1.56,-0.13 -4.85,-0.78 -7.72,-3.65 -10.02,-5.95 -2.37,-2.37 -3.85,-3.72 -6.47,-3.82 -8.97,-0.33 -12.87,-6.23 -12.76,-11.91 0.1,-5.77 4.04,-10.46 8.77,-10.46 1.67,0 3.02,1.35 3.02,3.02 0,1.67 -1.35,3.02 -3.02,3.02 -1.36,0 -2.69,2.2 -2.73,4.53 -0.04,1.65 0.58,5.53 6.95,5.76 5.12,0.19 7.98,3.06 10.51,5.59 2.04,2.03 3.79,3.79 6.71,4.26 1.08,0.17 2.43,-0.19 4.13,-0.66 2.23,-0.62 5,-1.38 8.71,-1.38 1.14,0 2.2,0.37 3.23,0.73 1.1,0.38 2.14,0.74 3,0.57 0.53,-0.1 2.15,-0.43 2.53,-2.92 0.36,-2.43 -0.75,-4.94 -1.68,-5.44 -1.46,-0.79 -2.01,-2.63 -1.21,-4.09 0.79,-1.47 2.62,-2.01 4.09,-1.22 3.38,1.83 5.48,6.95 4.77,11.65 -0.63,4.19 -3.36,7.16 -7.31,7.95 -2.49,0.49 -4.62,-0.25 -6.18,-0.8 -0.45,-0.15 -1.06,-0.37 -1.28,-0.39 -2.85,0 -5,0.59 -7.07,1.16 -1.72,0.48 -3.37,0.93 -5.13,0.93z"/>
  <path class="fil1" d="M143.32 199.78c-1.49,0 -2.78,-1.09 -2.99,-2.6 -0.23,-1.65 0.92,-3.18 2.57,-3.41 3.46,-0.48 6.4,-0.94 9.01,-1.34 12.26,-1.9 17.34,-2.69 31.67,0.38 1.63,0.35 2.67,1.95 2.32,3.59 -0.35,1.63 -1.96,2.67 -3.59,2.32 -13.24,-2.84 -17.66,-2.15 -29.48,-0.32 -2.62,0.41 -5.6,0.87 -9.09,1.35 -0.14,0.02 -0.29,0.03 -0.42,0.03z"/>
  <path class="fil1" d="M226.91 217.93c-1.08,0 -2.12,-0.57 -2.67,-1.59 -1.77,-3.29 -18.95,-9.97 -24.59,-12.16 -2.1,-0.82 -3.82,-1.49 -4.89,-1.95 -1.53,-0.67 -2.24,-2.44 -1.58,-3.97 0.67,-1.53 2.44,-2.24 3.97,-1.58 1.03,0.44 2.68,1.09 4.69,1.87 15.77,6.13 25.35,10.54 27.72,14.93 0.79,1.47 0.25,3.3 -1.22,4.09 -0.46,0.25 -0.95,0.36 -1.43,0.36z"/>
  <g>
   <path class="fil1" d="M212.93 217.54c0,0.01 0,0.01 0,0.01 0,0 0,0 0,-0.01zm0 0.01c0,0.01 0,0.01 0,0.01 0,0 0,0 0,-0.01zm0 0.01l0 0.01 0 -0.01zm1.22 1.88l0.02 0 -0.02 0zm1.76 0.66c-0.76,0 -1.47,-0.29 -2.01,-0.77 -2.51,-0.99 -14.1,-3.14 -18.21,-3.73 -2.22,-0.32 -4.47,-0.75 -6.51,-1.25 -5.78,-1.42 -8.85,-2.68 -11.32,-3.7 -4.24,-1.75 -6.57,-2.71 -20.39,-2.71 -1.67,0 -3.02,-1.35 -3.02,-3.02 0,-1.67 1.35,-3.02 3.02,-3.02 14.37,0 17.51,1.03 22.69,3.17 2.4,0.98 5.12,2.1 10.46,3.41 1.85,0.46 3.9,0.85 5.93,1.14 21.74,3.12 22.08,5.27 22.35,6.99 0.26,1.65 -0.87,3.19 -2.52,3.45 -0.16,0.03 -0.31,0.04 -0.47,0.04z"/>
  </g>
  <path class="fil1" d="M192.17 232.7c-8.48,0 -14.74,-2.52 -22.54,-8.51 -4.13,-3.17 -8.1,-6.7 -10.72,-9.03l-1.11 -0.98c-1.25,-1.11 -1.37,-3.02 -0.26,-4.27 1.11,-1.25 3.01,-1.36 4.26,-0.26l1.12 1c2.56,2.27 6.43,5.71 10.38,8.75 8.91,6.84 14.9,8.32 26.64,6.62 2.61,-0.37 4.94,-0.94 7.66,-1.6 1.84,-0.45 3.86,-0.94 6.26,-1.45 1.62,-0.33 3.23,0.7 3.58,2.33 0.34,1.64 -0.7,3.24 -2.33,3.58 -2.33,0.5 -4.29,0.97 -6.09,1.41 -2.86,0.7 -5.33,1.3 -8.21,1.71 -3.17,0.46 -6.01,0.7 -8.64,0.7z"/>
  <path class="fil1" d="M103.74 171.79c-0.2,0 -0.39,-0.02 -0.59,-0.06 -1.14,-0.22 -4.61,-0.89 -10.57,-11.84 -6.23,-7.29 -2.11,-26.65 0.56,-32.9 0.97,-2.28 2.12,-4.03 3.13,-5.58 1.09,-1.67 2.03,-3.12 2.63,-4.99 1.83,-5.73 4.45,-8.42 7.85,-7.98 6.58,0.86 9.44,14.36 9.61,17.91 0.09,1.66 -1.19,3.08 -2.86,3.16 -1.69,0.08 -3.08,-1.19 -3.17,-2.86 -0.2,-4.09 -2.54,-10.24 -4.12,-11.91 -0.34,0.49 -0.91,1.5 -1.55,3.51 -0.85,2.66 -2.11,4.59 -3.33,6.46 -0.96,1.47 -1.87,2.86 -2.64,4.66 -3.04,7.11 -4.89,22.99 -1.42,26.7 0.18,0.19 0.4,0.53 0.52,0.75 3.22,5.94 5.76,8.68 6.6,9 1.64,0.32 2.66,1.9 2.34,3.53 -0.28,1.44 -1.57,2.44 -2.99,2.44z"/>
  <path class="fil1" d="M102.12 157.32c-0.87,0 -1.74,-0.38 -2.33,-1.1 -5.18,-6.26 -0.51,-18.87 2.59,-27.21 0.44,-1.2 0.84,-2.27 1.15,-3.17 0.54,-1.58 2.26,-2.43 3.84,-1.88 1.58,0.54 2.42,2.25 1.88,3.83 -0.33,0.95 -0.74,2.07 -1.21,3.32 -2.12,5.74 -6.55,17.69 -3.6,21.26 1.06,1.29 0.88,3.19 -0.4,4.25 -0.56,0.47 -1.25,0.7 -1.92,0.7z"/>
  <path class="fil1" d="M117.09 128.64c1.78,6.63 0,13 -1.58,18.68 -0.43,1.55 -0.86,3.09 -1.22,4.61 -1.91,8.29 -2.85,13.89 -3.13,18.71 -1.28,21.99 -0.06,32.13 10.05,52.68 2.58,5.24 6.36,11.1 10.94,16.95 11.36,14.54 23.51,28.97 36.07,31.76 12.53,2.77 23.65,1.67 35.01,-3.47 8.89,-4.03 18.79,-13.89 25.35,-20.4 2.33,-2.33 4.17,-4.16 5.59,-5.37 8.15,-6.94 17.5,-20.16 21.75,-30.76 8.64,-21.55 10.04,-44 10.26,-65.04 0.05,-4.32 1.34,-7.14 2.48,-9.63 0.69,-1.49 1.33,-2.9 1.73,-4.64 0.26,-1.15 0.53,-2.31 0.8,-3.47 0.29,-25.55 -0.15,-30.58 -15.37,-54.29 -10.17,-15.86 -22.72,-18.84 -40.7,-21.58 -21.75,-3.32 -40.71,-2.76 -56.33,1.65 -5.35,1.52 -9.48,3.94 -12.63,7.42 -1.83,2.08 -13.5,24.13 -15.19,28.37 -2.1,5.27 -8.59,23.74 -9.23,28.75 -0.07,0.57 -0.11,1.12 -0.16,1.62 -0.2,2.52 -0.47,5.79 -4.49,7.45zm63.92 150.89c-4.6,0 -9.28,-0.54 -14.1,-1.61 -14.51,-3.21 -27.48,-18.52 -39.52,-33.93 -4.83,-6.17 -8.84,-12.4 -11.6,-18.01 -10.63,-21.61 -11.99,-32.86 -10.66,-55.7 0.3,-5.17 1.28,-11.07 3.28,-19.71 0.37,-1.61 0.82,-3.24 1.28,-4.88 1.64,-5.87 3.18,-11.41 1.11,-16.91 -0.05,-0.13 -0.09,-0.27 -0.12,-0.4l-0.28 -1.22c-0.18,-0.82 -0.01,-1.69 0.47,-2.38 0.48,-0.7 1.23,-1.16 2.07,-1.28 2.42,-0.33 2.42,-0.33 2.62,-2.8 0.05,-0.59 0.1,-1.22 0.19,-1.9 0.78,-6.11 7.93,-26.02 9.6,-30.22 1.36,-3.4 13.52,-27.07 16.33,-30.17 3.93,-4.36 8.99,-7.36 15.48,-9.19 16.45,-4.65 36.26,-5.26 58.88,-1.81 19,2.9 33.35,6.34 44.86,24.28 8.61,13.42 12.77,21.51 14.73,30.15 0.21,-9.08 -1.24,-18.86 -6.02,-29.86 -0.83,-1.91 -6.95,-13.9 -14.07,-20.87 -11.79,-11.55 -32.24,-20.51 -52.1,-22.83 -17.43,-2.04 -33.46,0.21 -50.45,7.07 -29.49,11.89 -39.95,47.57 -39.95,74.5 0,1.66 -1.35,3.02 -3.02,3.02 -1.67,0 -3.02,-1.36 -3.02,-3.02 0,-28.81 11.45,-67.08 43.73,-80.11 17.72,-7.15 35.2,-9.59 53.41,-7.46 21.44,2.5 42.75,11.89 55.63,24.52 7.9,7.74 14.43,20.57 15.39,22.78 10.53,24.27 6.04,43.41 2.09,60.3 -0.03,0.12 -0.06,0.23 -0.08,0.35 -0.01,0.05 -0.03,0.11 -0.04,0.16 -0.29,1.23 -0.58,2.45 -0.85,3.67 -0.54,2.35 -1.38,4.19 -2.13,5.82 -1.06,2.31 -1.9,4.14 -1.93,7.17 -0.23,21.64 -1.68,44.75 -10.69,67.23 -4.64,11.57 -14.5,25.5 -23.45,33.11 -1.23,1.05 -3.09,2.91 -5.24,5.05 -6.86,6.82 -17.23,17.14 -27.12,21.62 -8.06,3.65 -16.23,5.47 -24.71,5.47z"/>
  <path class="fil1" d="M267.86 196.78c-0.8,0 -1.59,-0.31 -2.19,-0.94 -1.15,-1.2 -1.1,-3.12 0.11,-4.27 9.01,-8.56 8.76,-15.05 8.42,-24.04 -0.08,-1.94 -0.15,-3.94 -0.14,-6.08 0,-1.4 0.16,-2.96 0.33,-4.62 0.32,-3.19 0.82,-8.01 -0.53,-9.51 -0.13,-0.14 -0.52,-0.57 -1.88,-0.57 -1.67,0 -3.02,-1.35 -3.02,-3.02 0,-1.67 1.35,-3.02 3.02,-3.02 2.68,0 4.82,0.86 6.36,2.56 3.15,3.49 2.57,9.16 2.06,14.17 -0.15,1.51 -0.3,2.93 -0.3,4.04 -0.01,2.01 0.06,3.95 0.13,5.82 0.36,9.36 0.7,18.21 -10.29,28.65 -0.58,0.56 -1.33,0.83 -2.08,0.83z"/>
  <path class="fil1" d="M136.23 196.86c-1.02,0 -1.89,-0.78 -2,-1.81 -0.02,-0.2 -0.04,-0.34 -0.06,-0.46 -0.06,-0.36 -0.11,-0.65 -0.11,-1.25 0,-7.21 1.21,-8.48 5.98,-10.4 1.1,-0.44 2.48,-0.99 4.14,-1.84l2.35 -1.19c4.87,-2.45 8.38,-4.22 12.94,-7.8 0.87,-0.69 2.14,-0.53 2.83,0.34 0.68,0.88 0.53,2.14 -0.34,2.83 -4.88,3.82 -8.73,5.77 -13.62,8.23l-2.34 1.18c-1.81,0.93 -3.28,1.52 -4.46,1.99 -3.39,1.36 -3.46,1.39 -3.46,6.66 0,0.27 0.03,0.4 0.05,0.56 0.04,0.2 0.08,0.42 0.11,0.74 0.11,1.1 -0.69,2.09 -1.8,2.2 -0.07,0.01 -0.14,0.02 -0.21,0.02z"/>
  <path class="fil1" d="M90.78 234.66c-0.87,0 -1.73,-0.37 -2.33,-1.1 -1.06,-1.28 -0.88,-3.18 0.4,-4.25 1.71,-1.41 2.69,-2.17 3.28,-2.63 0.27,-0.21 0.44,-0.33 0.56,-0.43 -0.03,0.02 0.02,-0.08 0.11,-0.21 0.35,-0.57 1.02,-1.62 2.6,-3.77 5.16,-7.01 6.53,-14.67 7.62,-20.82 0.67,-3.75 1.2,-6.71 2.44,-8.94 0.81,-1.46 2.65,-1.98 4.11,-1.17 1.45,0.81 1.98,2.65 1.17,4.11 -0.75,1.35 -1.22,3.99 -1.77,7.06 -1.14,6.41 -2.71,15.2 -8.71,23.35 -1.45,1.97 -2.02,2.87 -2.36,3.4 -0.68,1.08 -0.94,1.33 -2.07,2.2 -0.57,0.44 -1.5,1.16 -3.12,2.5 -0.57,0.47 -1.25,0.7 -1.93,0.7z"/>
  <path class="fil1" d="M139.94 257.62c-0.81,0 -1.57,-0.33 -2.11,-0.87 -0.18,-0.15 -0.59,-0.49 -1.17,-0.97 -37.93,-31.46 -37.12,-38.7 -36.82,-41.43 0.19,-1.66 1.69,-2.84 3.34,-2.67 1.66,0.19 2.85,1.68 2.67,3.34 -0.08,0.69 0.24,7.56 34.66,36.11 1.89,1.56 2.33,1.93 2.44,3.21 0.15,1.66 -1.08,3.12 -2.75,3.27 -0.08,0 -0.17,0.01 -0.26,0.01z"/>
  <g>
   <path class="fil1" d="M158.87 319.64c0,0 0,0 0,0 0,0 0,0 0,0zm0.45 0.19l0 0 0 0zm-1.27 5.74c-0.27,0 -0.55,-0.04 -0.83,-0.11 -1.77,-0.51 -3.75,-2.45 -14.12,-13.88 -6.05,-6.68 -13.58,-14.99 -16.42,-16.93 -4.94,-3.38 -16.65,-20.55 -22.78,-30.16 -11.43,-17.91 -16.85,-29.14 -16.1,-33.38 0.3,-1.64 1.87,-2.74 3.51,-2.45 1.63,0.29 2.72,1.84 2.45,3.47 -0.33,6.22 28.82,52.4 36.33,57.54 3.42,2.34 10.57,10.22 17.49,17.85 4.54,5 10.17,11.21 11.66,12.25 1.37,0.59 2.13,2.12 1.71,3.6 -0.37,1.33 -1.59,2.2 -2.9,2.2z"/>
  </g>
  <path class="fil1" d="M153.72 317.91c-1.67,0 -3.02,-1.35 -3.02,-3.02 0,-3.5 1.67,-8.16 5.12,-14.24l0.05 -0.09c1.66,-6.74 16.71,-22.66 18.8,-24.54 1.24,-1.12 3.15,-1.02 4.27,0.22 1.11,1.23 1.02,3.14 -0.22,4.26 -4.83,4.36 -16.48,18.43 -16.98,21.44 -0.07,0.64 -0.27,0.99 -0.66,1.69 -3.59,6.32 -4.34,9.61 -4.34,11.26 0,1.67 -1.36,3.02 -3.02,3.02z"/>
  <g>
   <path class="fil1" d="M181.24 311.44l0.02 0 -0.02 0zm-5.82 28.31c-0.94,0 -1.87,-0.44 -2.45,-1.28 -1.18,-1.71 -0.87,-3.17 -0.71,-3.96 0.03,-0.16 0.08,-0.34 0.1,-0.57 0.56,-4.73 3,-10.1 5.16,-14.84 1.2,-2.63 2.95,-6.47 3.15,-8.07 -2.71,-1.91 -4.55,-3.06 -6.05,-3.99 -4.59,-2.87 -5.67,-3.71 -12.68,-12.99 -1,-1.33 -0.74,-3.23 0.6,-4.23 1.33,-1 3.22,-0.74 4.23,0.59 6.55,8.69 7.15,9.06 11.05,11.5 1.59,0.99 3.75,2.35 6.93,4.61 3.88,2.77 1.4,8.2 -1.73,15.08 -1.98,4.34 -4.21,9.25 -4.66,13.04 -0.04,0.35 -0.09,0.65 -0.14,0.91 0.53,1.3 0.12,2.86 -1.09,3.67 -0.52,0.36 -1.12,0.53 -1.71,0.53z"/>
  </g>
  <path class="fil1" d="M188.39 313.02c-2.06,0 -4.21,-0.4 -6.42,-1.2 -1.57,-0.56 -2.38,-2.29 -1.82,-3.86 0.57,-1.57 2.3,-2.38 3.87,-1.82 5.03,1.82 9.08,0.69 12.7,-3.53 0.37,-0.95 1.12,-3.98 1.25,-4.72 0.28,-1.65 1.86,-2.75 3.48,-2.47 1.65,0.28 2.75,1.84 2.47,3.49 -0.01,0.06 -1.09,5.81 -2.37,7.34 -3.74,4.49 -8.21,6.77 -13.16,6.77z"/>
  <path class="fil1" d="M207.33 331.9c-1.67,0 -3.02,-1.36 -3.02,-3.02 0,-6.72 -4.81,-15.19 -9.26,-19.18 -1.25,-1.12 -1.35,-3.03 -0.24,-4.27 1.12,-1.24 3.03,-1.35 4.27,-0.23 5.46,4.89 11.27,14.86 11.27,23.68 0,1.66 -1.35,3.02 -3.02,3.02z"/>
  <g>
   <path class="fil1" d="M192.65 279.07l0.02 0 -0.02 0zm7.68 25.05c-1.67,0 -3.02,-1.42 -3.02,-3.09 0,-0.63 0.14,-1.21 0.28,-1.83 0.19,-0.82 0.41,-1.76 0.2,-2.55 -0.45,-1.63 -0.86,-3.48 -1.29,-5.44 -0.8,-3.6 -2.45,-11.03 -3.99,-12.17 -1.56,-0.35 -2.59,-1.88 -2.31,-3.47 0.29,-1.64 1.86,-2.73 3.5,-2.45 5.17,0.91 6.88,8.62 8.69,16.78 0.42,1.89 0.82,3.67 1.23,5.17 0.61,2.25 0.14,4.29 -0.14,5.5 -0.06,0.23 -0.11,0.43 -0.13,0.59 0,1.67 -1.35,2.96 -3.02,2.96z"/>
  </g>
  <path class="fil1" d="M214.32 330.23c-1.36,0 -2.6,-0.93 -2.93,-2.31 -2.03,-8.41 -2.09,-43.37 -2.09,-47.33 0,-2.2 0.63,-7.76 1.22,-12.79 0.13,-1.16 0.23,-2.01 0.26,-2.32 0.05,-1.46 1.14,-2.71 2.63,-2.9 1.66,-0.22 3.17,0.95 3.39,2.6 0.05,0.44 0.05,0.44 -0.28,3.31 -0.38,3.27 -1.17,10.07 -1.17,12.1 0,13.13 0.4,39.62 1.91,45.91 0.39,1.62 -0.61,3.26 -2.23,3.65 -0.23,0.05 -0.47,0.08 -0.71,0.08z"/>
  <path class="fil1" d="M255.56 325.49c-1.24,0 -2.4,-0.77 -2.84,-2 -1.57,-4.38 -8.16,-15.16 -14.53,-25.59 -12.37,-20.22 -19.88,-32.91 -19.97,-38.46 -0.03,-1.67 1.3,-3.05 2.97,-3.07l0.05 0c1.65,0 2.99,1.32 3.02,2.97 0.07,4.31 11.06,22.29 19.08,35.41 7.13,11.67 13.29,21.74 15.07,26.71 0.56,1.56 -0.26,3.29 -1.83,3.86 -0.34,0.12 -0.68,0.17 -1.02,0.17z"/>
  <path class="fil1" d="M271.33 307.56c-0.1,0 -0.2,-0.01 -0.3,-0.02 -10.02,-0.97 -17.89,-6.46 -24.21,-10.87 -4.2,-2.94 -8.12,-5.71 -10.7,-5.46 -1.66,0.18 -3.14,-1.04 -3.31,-2.7 -0.16,-1.66 1.05,-3.14 2.71,-3.31 4.73,-0.47 9.39,2.76 14.76,6.51 6.04,4.22 12.89,9 21.34,9.82 1.66,0.16 2.87,1.64 2.71,3.3 -0.15,1.56 -1.47,2.73 -3,2.73z"/>
  <path class="fil1" d="M48.32 260.63c-1.37,0 -2.61,-0.94 -2.94,-2.34 -0.32,-1.4 0.39,-2.81 1.65,-3.4 1.61,-1.35 7.67,-9.14 12.56,-15.42 10.67,-13.7 18.51,-23.58 22.35,-26.04 7.49,-4.79 19.77,-5.92 23.42,-0.41 0.91,1.37 0.52,3.17 -0.83,4.1 -1.35,0.94 -3.24,0.57 -4.2,-0.77 -0.91,-1.26 -8.85,-1.85 -15.14,2.17 -3.26,2.09 -13.41,15.13 -20.83,24.66 -11.65,14.97 -13.38,16.92 -15.35,17.38 -0.23,0.05 -0.46,0.07 -0.69,0.07z"/>
  <path class="fil2" d="M233.64 144.78c3,0 5.44,2.44 5.44,5.44 0,3 -2.44,5.44 -5.44,5.44 -3.01,0 -5.44,-2.44 -5.44,-5.44 0,-3 2.43,-5.44 5.44,-5.44z"/>
  <path class="fil2" d="M158.96 129.63c3,0 5.44,2.43 5.44,5.44 0,3 -2.44,5.44 -5.44,5.44 -3,0 -5.44,-2.44 -5.44,-5.44 0,-3.01 2.44,-5.44 5.44,-5.44z"/>
  <path class="fil1" d="M121.8 182.36c0,0 0,0 0,0 0,0 0,0 0,0zm0.18 0.22l0 0zm-1.59 3.24c-0.51,0 -1.01,-0.19 -1.41,-0.58 -2.25,-2.2 -2.93,-16.95 -2.93,-17.09 0,-8.98 2.87,-12.86 5.65,-16.61 1.16,-1.56 2.26,-3.04 3.22,-4.94 0.5,-0.99 1.72,-1.39 2.7,-0.89 1,0.5 1.4,1.71 0.89,2.7 -1.11,2.21 -2.36,3.9 -3.57,5.53 -2.61,3.52 -4.87,6.56 -4.87,14.21 0,2.49 1.03,12.64 1.88,14.38 0.64,0.78 0.61,1.94 -0.12,2.68 -0.39,0.4 -0.92,0.61 -1.44,0.61z"/>
  <path class="fil1" d="M148.78 139.24c-0.33,0 -0.66,-0.08 -0.97,-0.25 -5.09,-2.8 -5.6,-3.28 -9.54,-7.58 -0.75,-0.82 -0.7,-2.09 0.12,-2.84 0.82,-0.75 2.1,-0.7 2.85,0.12 3.64,3.97 3.85,4.21 8.51,6.77 0.97,0.53 1.33,1.76 0.79,2.73 -0.36,0.67 -1.05,1.05 -1.76,1.05z"/>
  <path class="fil1" d="M244.77 159.75c-1.11,0 -2.01,-0.9 -2.01,-2.01 0,-1.11 0.9,-2.01 2.01,-2.01 5.43,-0.01 5.87,-0.01 11.05,-0.89 1.11,-0.19 2.13,0.55 2.32,1.65 0.19,1.09 -0.55,2.13 -1.65,2.32 -5.35,0.91 -6.03,0.94 -11.71,0.94l-0.01 0z"/>
  <path class="fil1" d="M204.9 49.69c-0.86,0 -1.66,-0.56 -1.92,-1.42 -1.06,-3.44 -0.51,-5.99 0.07,-8.69l0.18 -0.86c0.14,-0.67 0.21,-1.33 0.2,-1.73 -0.04,-1.11 0.82,-2.05 1.93,-2.09 1.03,-0.08 2.05,0.82 2.09,1.93 0.04,0.99 -0.15,2.12 -0.28,2.7l-0.18 0.9c-0.53,2.45 -0.91,4.22 -0.16,6.65 0.32,1.06 -0.27,2.19 -1.34,2.52 -0.19,0.06 -0.39,0.09 -0.59,0.09z"/>
  <path class="fil1" d="M190.97 48.46c-0.03,0 -0.05,0 -0.08,0 -1.11,-0.04 -1.98,-0.98 -1.94,-2.09 0.04,-0.87 -0.07,-1.49 -0.18,-2.22 -0.2,-1.19 -0.42,-2.55 -0.01,-4.82 0,-0.12 -0.03,-0.38 -0.04,-0.6l-0.03 -0.39c-0.05,-1.12 0.81,-2.06 1.92,-2.11 1.08,-0.05 2.05,0.8 2.1,1.91l0.02 0.3c0.05,0.62 0.07,1.13 -0.01,1.6 -0.29,1.59 -0.15,2.42 0.02,3.46 0.13,0.82 0.29,1.75 0.24,3.02 -0.04,1.09 -0.94,1.94 -2.01,1.94z"/>
  <path class="fil1" d="M177.06 51.12c-1.06,0 -1.95,-0.82 -2.01,-1.89 -0.03,-0.37 -0.05,-1.03 -0.07,-1.83 -0.05,-1.56 -0.18,-5.7 -0.42,-6.52 -0.31,-1.05 0.26,-2.19 1.31,-2.53 1.04,-0.33 2.15,0.2 2.5,1.23 0.37,1.07 0.5,3.43 0.63,7.7 0.03,0.75 0.05,1.36 0.07,1.71 0.06,1.11 -0.78,2.06 -1.89,2.13 -0.04,0 -0.09,0 -0.12,0z"/>
  <path class="fil1" d="M217.25 50.41c-0.06,0 -0.13,0 -0.19,-0.01 -1.11,-0.11 -1.92,-1.09 -1.81,-2.2 0.07,-0.77 -0.17,-5.02 -0.4,-5.82 -0.29,-1.05 0.28,-2.19 1.31,-2.52 1.04,-0.33 2.14,0.18 2.5,1.2 0.51,1.43 0.69,6.61 0.59,7.55 -0.1,1.03 -0.98,1.8 -2,1.8z"/>
  <path class="fil1" d="M229.73 52.46c-0.09,0 -0.18,0 -0.26,-0.01 -1.11,-0.15 -1.89,-1.16 -1.74,-2.26 0.02,-0.12 0.39,-3.01 0.1,-5.74 -0.12,-1.11 0.68,-2.1 1.78,-2.22 1.11,-0.12 2.1,0.69 2.22,1.79 0.34,3.15 -0.06,6.34 -0.11,6.69 -0.13,1.01 -0.99,1.75 -1.99,1.75z"/>
  <path class="fil1" d="M240.72 56.55c-1.06,0 -1.95,-0.83 -2.01,-1.9l-0.29 -5.65c-0.06,-1.11 0.79,-2.06 1.9,-2.12 1.13,-0.04 2.06,0.8 2.12,1.91l0.29 5.64c0.06,1.11 -0.79,2.06 -1.9,2.12 -0.04,0 -0.07,0 -0.11,0z"/>
  <path class="fil1" d="M163.61 46.63c0,0 0,0 0,0 0,0 0,0 0,0zm2.17 4.69c-0.99,0 -1.86,-0.73 -1.99,-1.75 -0.03,-0.18 -0.05,-0.5 -0.08,-0.89 -0.03,-0.5 -0.12,-1.81 -0.25,-2.27 -0.5,-0.86 -0.3,-1.98 0.5,-2.6 0.88,-0.69 2.15,-0.53 2.83,0.35 0.61,0.78 0.78,1.94 0.94,4.24 0.02,0.28 0.03,0.52 0.05,0.64 0.15,1.11 -0.63,2.12 -1.73,2.27 -0.09,0.01 -0.18,0.01 -0.27,0.01z"/>
  <path class="fil1" d="M251.2 63.08c-1.04,0 -1.92,-0.79 -2,-1.85l-0.3 -3.6c-0.09,-1.11 0.74,-2.08 1.84,-2.17 1.09,-0.1 2.08,0.73 2.18,1.84l0.29 3.6c0.09,1.11 -0.73,2.08 -1.84,2.17 -0.06,0.01 -0.11,0.01 -0.17,0.01z"/>
 </g>
</svg>
