<?xml version="1.0" encoding="UTF-8"?>
<!DOCTYPE svg PUBLIC "-//W3C//DTD SVG 1.1//EN" "http://www.w3.org/Graphics/SVG/1.1/DTD/svg11.dtd">
<!-- Creator: CorelDRAW 2018 (64-Bit) -->
<svg xmlns="http://www.w3.org/2000/svg" xml:space="preserve" width="845px" height="845px" version="1.1" style="shape-rendering:geometricPrecision; text-rendering:geometricPrecision; image-rendering:optimizeQuality; fill-rule:evenodd; clip-rule:evenodd"
viewBox="0 0 360.18 360.18"
 xmlns:xlink="http://www.w3.org/1999/xlink">
 <defs>
  <style type="text/css">
   <![CDATA[
    .fil0 {fill:none}
    .fil2 {fill:black}
    .fil1 {fill:black;fill-rule:nonzero}
   ]]>
  </style>
 </defs>
 <g id="Слой_x0020_1">
  <metadata id="CorelCorpID_0Corel-Layer"/>
  <rect class="fil0" width="360.18" height="360.18"/>
 </g>
 <g id="_1">
  <metadata id="CorelCorpID_1Corel-Layer"/>
  <g>
   <path class="fil1" d="M167.99 170.32l0 0 0 0zm-32.52 9.64c-1.34,0 -2.57,-0.91 -2.92,-2.27 -0.41,-1.62 0.56,-3.27 2.18,-3.68 2.55,-0.65 4.29,-2.28 6.3,-4.16 3.94,-3.68 8.84,-8.28 20.29,-4.1 3.13,1.14 5.5,3.07 6.92,4.23 0.27,0.22 0.49,0.41 0.67,0.54 1.19,0.47 1.99,1.65 1.91,3 -0.1,1.66 -1.61,2.91 -3.19,2.83 -1.23,-0.07 -2.06,-0.75 -3.21,-1.69 -1.19,-0.97 -3,-2.45 -5.17,-3.23 -7.96,-2.91 -10.53,-0.5 -14.09,2.83 -2.29,2.14 -4.88,4.57 -8.94,5.6 -0.25,0.07 -0.5,0.1 -0.75,0.1z"/>
  </g>
  <path class="fil1" d="M205.54 172.75c-0.55,0 -1.12,-0.15 -1.62,-0.47 -1.41,-0.9 -1.82,-2.76 -0.92,-4.17 2.23,-3.49 6.05,-6.22 10.5,-7.48 4.82,-1.37 9.53,-0.81 13.25,1.57l0.82 0.52c3.16,2.04 4.47,2.88 7.91,2.88 1.67,0 3.02,1.35 3.02,3.02 0,1.67 -1.35,3.02 -3.02,3.02 -5.21,0 -7.72,-1.61 -11.18,-3.84l-0.8 -0.51c-2.22,-1.41 -5.26,-1.72 -8.35,-0.85 -3,0.85 -5.64,2.69 -7.06,4.92 -0.58,0.9 -1.55,1.39 -2.55,1.39z"/>
  <path class="fil1" d="M238.65 160.75c-1.18,0 -2.31,-0.71 -2.79,-1.87l-0.23 -0.56c-0.04,-0.1 -0.08,-0.2 -0.11,-0.31 -0.35,-1.19 -2.43,-3.23 -5.33,-4.56 -2.51,-1.16 -4.54,-1.29 -5.36,-0.92 -3.31,1.5 -11.43,2.86 -19.72,4.11l-0.83 0.13c-1.65,0.25 -3.18,-0.89 -3.44,-2.54 -0.25,-1.64 0.89,-3.18 2.54,-3.44l0.83 -0.12c3.74,-0.57 15.12,-2.29 18.13,-3.65 2.68,-1.2 6.46,-0.87 10.38,0.94 3.39,1.56 7.38,4.52 8.55,8.19l0.17 0.42c0.64,1.55 -0.09,3.31 -1.64,3.95 -0.37,0.15 -0.76,0.23 -1.15,0.23z"/>
  <path class="fil1" d="M129.73 163.66c-1.14,0 -2.23,-0.64 -2.74,-1.75 -0.7,-1.51 -0.04,-3.3 1.47,-4.01 1.43,-0.66 2.55,-1.65 3.85,-2.79 2.93,-2.58 6.57,-5.8 15.1,-6.25 5.38,-0.27 9.85,1.61 13.8,3.27 2.69,1.13 5.04,2.12 6.87,2.06 1.62,-0.07 3.05,1.28 3.09,2.95 0.04,1.67 -1.28,3.05 -2.95,3.09 -3.22,0.09 -6.16,-1.19 -9.35,-2.53 -3.52,-1.48 -7.19,-3.01 -11.15,-2.8 -6.42,0.33 -8.74,2.38 -11.42,4.74 -1.51,1.33 -3.07,2.71 -5.3,3.74 -0.41,0.19 -0.84,0.28 -1.27,0.28z"/>
  <g>
   <path class="fil1" d="M173.79 205.44l0.02 0 -0.02 0zm17.71 6.93c-2.79,0 -4.82,-1.51 -6.17,-2.52 -1.97,-1.46 -2.17,-1.62 -4.22,0.21 -3.52,3.13 -6.76,1.88 -8.31,1.27 -0.26,-0.1 -0.61,-0.23 -0.74,-0.25 -2.9,-0.41 -4.75,-4.15 -5.43,-7.22 -1.16,-5.13 0.41,-9.68 4.19,-12.18 1.39,-0.91 3.26,-0.53 4.18,0.86 0.92,1.4 0.53,3.27 -0.86,4.19 -1.09,0.72 -1.69,1.8 -1.82,3.3 -0.19,2.22 0.72,4.42 1.29,5.21 0.51,0.13 0.96,0.3 1.37,0.46 1.24,0.48 1.35,0.52 2.11,-0.15 5.73,-5.11 9.71,-2.14 11.85,-0.54 1.77,1.32 2.32,1.58 3.56,1.1 0.4,-0.15 0.99,-0.82 1.51,-1.41 1.19,-1.35 2.98,-3.39 6.02,-3.39 2.22,0 3.59,1.03 4.34,1.63 0.27,-0.15 0.73,-0.44 1.4,-0.98 0.84,-0.66 1.13,-2.58 0.68,-4.38 -0.35,-1.4 -1.11,-2.5 -1.81,-2.63 -1.64,-0.3 -2.73,-1.87 -2.43,-3.51 0.3,-1.64 1.87,-2.73 3.51,-2.44 3.11,0.57 5.63,3.29 6.59,7.11 1.07,4.24 -0.02,8.4 -2.78,10.58 -3.65,2.9 -6.13,3.19 -8.87,1.02 -0.46,-0.36 -0.47,-0.36 -0.63,-0.36 -0.3,0 -0.96,0.74 -1.49,1.34 -0.93,1.06 -2.08,2.37 -3.87,3.06 -1.15,0.44 -2.21,0.62 -3.17,0.62z"/>
  </g>
  <g>
   <path class="fil1" d="M228.12 219.96l0.02 0 -0.02 0zm1.27 4.96c-0.45,0 -0.9,-0.15 -1.27,-0.45 -0.87,-0.7 -1,-1.97 -0.3,-2.83 0.07,-0.13 0.22,-0.83 0.24,-1.77 -0.32,-0.43 -1.4,-1.27 -2.2,-1.9 -1.47,-1.15 -3.3,-2.59 -5,-4.5 -2.13,-2.4 -3.9,-4.33 -5.4,-5.9 -3.2,-3.34 -4.36,-4.15 -4.71,-4.34 -0.98,-0.54 -1.33,-1.76 -0.8,-2.74 0.54,-0.97 1.77,-1.32 2.74,-0.79 0.73,0.41 2.12,1.37 5.68,5.08 1.54,1.61 3.34,3.57 5.51,6.02 1.45,1.64 3.05,2.89 4.47,4 2.09,1.64 3.74,2.94 3.74,4.85 0,1.43 -0.2,3.37 -1.14,4.53 -0.4,0.49 -0.98,0.74 -1.56,0.74z"/>
  </g>
  <path class="fil1" d="M153.56 234.93c-0.64,0 -1.28,-0.31 -1.67,-0.88 -0.32,-0.48 -1.07,-1.24 -1.8,-1.98 -2.4,-2.44 -5.38,-5.47 -4.32,-8.65 0.66,-1.95 2.63,-3.6 4.54,-5.2 0.95,-0.79 1.93,-1.61 2.44,-2.25 1.85,-2.31 3.77,-4.44 5.63,-6.5 3.71,-4.12 7.21,-8.01 9.56,-12.65 0.5,-0.99 1.71,-1.38 2.71,-0.89 0.99,0.51 1.38,1.72 0.88,2.71 -2.59,5.11 -6.27,9.2 -10.16,13.52 -1.82,2.02 -3.7,4.11 -5.48,6.33 -0.76,0.95 -1.84,1.86 -3,2.82 -1.27,1.06 -3.01,2.52 -3.3,3.39 -0.28,0.83 2.47,3.63 3.37,4.54 0.93,0.95 1.73,1.76 2.26,2.54 0.63,0.92 0.39,2.17 -0.53,2.8 -0.35,0.23 -0.74,0.35 -1.13,0.35z"/>
  <path class="fil1" d="M191.56 236.44c-3.14,0 -6.67,-1.86 -9.41,-4.08 -1.22,-0.14 -4.83,0.49 -7.27,0.91 -4.48,0.79 -9.13,1.6 -12.62,1.12 -1.66,-0.22 -2.82,-1.74 -2.59,-3.4 0.22,-1.65 1.74,-2.8 3.4,-2.58 2.58,0.34 6.93,-0.42 10.77,-1.09 6.36,-1.11 9.78,-1.61 11.88,0.15 2.49,2.09 5.4,3.19 6.08,2.89 1.64,-1.64 7.89,-5.67 11.93,-5.67 2.46,0 4.54,0.75 6.37,1.41 2.55,0.92 4.56,1.64 7.65,0.76 1.61,-0.45 3.28,0.48 3.74,2.08 0.45,1.61 -0.48,3.28 -2.08,3.73 -4.97,1.42 -8.52,0.14 -11.36,-0.89 -1.56,-0.56 -2.91,-1.05 -4.32,-1.05 -1.6,0 -6.45,2.7 -7.7,3.93 -1.26,1.26 -2.81,1.78 -4.47,1.78z"/>
  <path class="fil1" d="M190.19 247.6c-8.01,0 -11.29,-2.07 -14.75,-4.23 -2,-1.26 -4.08,-2.57 -7.54,-3.58 -1.6,-0.47 -2.52,-2.15 -2.05,-3.75 0.47,-1.61 2.15,-2.52 3.75,-2.05 4.27,1.25 6.81,2.85 9.06,4.26 3.56,2.24 6.13,3.85 15.46,3.14 5.15,-0.39 8.31,-1.95 15.38,-7.56 1.3,-1.03 3.2,-0.81 4.24,0.49 1.04,1.31 0.82,3.21 -0.49,4.25 -7.15,5.68 -11.54,8.3 -18.67,8.85 -1.61,0.12 -3.07,0.18 -4.39,0.18z"/>
  <path class="fil1" d="M119.58 221.27c-0.3,0 -0.6,-0.05 -0.9,-0.14 -5.6,-1.74 -7.58,-8.41 -7.58,-13.59 0,-5.56 -2.12,-9.53 -4.18,-13.36 -2.15,-4.03 -4.38,-8.2 -2.85,-13.15 0.82,-2.66 3.1,-4.9 6.08,-5.98 2.94,-1.07 5.98,-0.81 8.35,0.72 1.4,0.91 1.8,2.78 0.9,4.18 -0.9,1.4 -2.77,1.8 -4.18,0.9 -0.75,-0.49 -1.88,-0.54 -3,-0.13 -1.17,0.43 -2.12,1.27 -2.38,2.1 -0.74,2.42 0.37,4.69 2.41,8.51 2.18,4.07 4.89,9.13 4.89,16.21 0,2.82 1.03,7.11 3.33,7.82 1.59,0.5 2.49,2.19 1.99,3.78 -0.4,1.3 -1.59,2.13 -2.88,2.13z"/>
  <path class="fil1" d="M120.56 231.07c-2.33,0 -4.92,-0.93 -7.22,-2.76 -4.09,-3.25 -6.42,-9.15 -2.4,-15 0.95,-1.38 2.83,-1.73 4.2,-0.78 1.38,0.94 1.73,2.83 0.78,4.2 -1.96,2.85 -0.74,5.04 0.62,6.37 1.97,1.91 4.22,2.12 4.6,1.83 1.13,-1.23 3.04,-1.31 4.27,-0.18 1.23,1.12 1.31,3.04 0.18,4.27 -1.25,1.37 -3.05,2.05 -5.03,2.05z"/>
  <path class="fil1" d="M252.08 226.31c-1.5,0 -3.09,-0.21 -4.43,-0.84 -1.51,-0.72 -2.15,-2.52 -1.44,-4.03 0.71,-1.51 2.52,-2.15 4.02,-1.44 0.54,0.26 1.94,0.39 3.86,0.11 0.5,-0.08 2.03,-0.31 2.55,-2.3 0.44,-1.71 -0.15,-3.85 -1.33,-4.76 -1.32,-1.02 -1.56,-2.91 -0.54,-4.24 1.02,-1.31 2.91,-1.56 4.23,-0.54 3.12,2.41 4.55,6.96 3.48,11.06 -0.95,3.67 -3.76,6.19 -7.5,6.75 -0.86,0.13 -1.86,0.23 -2.9,0.23z"/>
  <path class="fil1" d="M252.55 209.5c0.06,0.64 -0.09,1.26 -0.39,1.78 0.28,-0.47 0.45,-1.07 0.39,-1.78zm-3.01 3.31c-1.54,0 -2.86,-1.17 -3.01,-2.74 -0.15,-1.63 0.78,-2.79 2.77,-3.45 2.27,-0.74 2.94,-1.31 3.12,-1.66 1.27,-2.64 1.41,-6.92 1.47,-8.98 0.02,-0.44 0.03,-0.8 0.05,-1.05 0.2,-2.98 0.79,-5.17 1.81,-6.7 2,-2.97 1.48,-15.46 -1.32,-17.38 -1.37,-0.94 -1.72,-2.83 -0.78,-4.2 0.95,-1.37 2.83,-1.73 4.21,-0.78 6.06,4.17 6.42,20.49 2.91,25.73 -0.14,0.21 -0.63,1.12 -0.8,3.73 -0.02,0.2 -0.03,0.49 -0.04,0.84 -0.08,2.47 -0.24,7.62 -2.08,11.42 -1.49,3.07 -5.11,4.26 -6.67,4.77l-0.15 0.06c-0.36,0.2 -0.77,0.33 -1.2,0.37 -0.1,0.01 -0.2,0.02 -0.29,0.02z"/>
  <path class="fil1" d="M109.48 181.15c-1.18,0 -2.3,-0.7 -2.78,-1.86 -0.47,-1.11 -0.97,-2.4 -1.5,-3.79 -1.8,-4.66 -4.03,-10.46 -6.55,-13.32 -5.5,-6.26 -10.88,-23.15 -10.88,-31.21 0,-3.32 -0.16,-5.1 -0.35,-7.16 -0.11,-1.22 -0.23,-2.52 -0.33,-4.24 -0.45,-2.33 -1.23,-8.27 -1.24,-8.34 -0.38,-3.29 -0.78,-5.67 -1.09,-7.59 -1.07,-6.35 -1.21,-8.4 1.92,-17.76 0.64,-1.91 1.13,-3.11 1.61,-4.26 0.32,-0.78 0.65,-1.57 1.03,-2.63 0.97,-2.66 2.47,-5.46 4.59,-8.55 0.8,-1.17 1.61,-2.41 2.43,-3.68 4.47,-6.88 9.54,-14.69 17.54,-16.73 8.94,-2.27 9.8,-3.44 10.98,-5.05 1.67,-2.28 3.56,-4.4 9.72,-7.42 3.04,-1.49 6.22,-2.75 8.78,-3.76 1.08,-0.43 2.06,-0.81 2.88,-1.16 6.97,-2.94 7.59,-3.02 13.57,-3 0.91,0.01 1.94,0.01 3.17,0 0.84,-0.11 6.22,-1.65 7.39,-2.05 7.38,-3.96 15.72,-3.65 23.09,-3.39 1.83,0.07 3.64,0.14 5.41,0.14 11.07,0 13.07,1.29 18.96,6.23 1.03,0.87 2.22,1.87 3.67,3.01 3.57,2.84 7.52,4.85 11.69,6.98 5.36,2.75 10.91,5.58 15.73,10.3l0.53 0.51c9.5,9.28 18.57,18.69 20.55,24.59 3.07,9.15 2.74,11.18 -0.15,16.58 -0.49,0.93 -1.07,2.01 -1.72,3.36 -0.13,0.33 -0.37,0.93 -0.64,1.61 -1.35,3.35 -2.54,6.24 -3.54,7.69 -1.26,2.31 -2.08,15.96 -1.08,18.43 3.68,7.08 3.68,12.74 3.67,19.9l0 0.98c0,8.99 -3.09,14.93 -7.73,21.09 -0.15,0.21 -1,1.53 -5.28,8.65 -0.43,0.7 -0.53,0.87 -0.88,1.18 -1.26,1.1 -3.17,0.98 -4.27,-0.28 -0.9,-1.03 -0.98,-2.51 -0.27,-3.61l0.24 -0.4c5.02,-8.35 5.43,-8.91 5.63,-9.18 4.13,-5.47 6.52,-10.08 6.52,-17.45l0 -0.99c0.01,-6.82 0.01,-11.33 -3.02,-17.15 -2.04,-3.93 -1.01,-20.94 1.49,-24.59 0.7,-1.02 2.14,-4.6 2.91,-6.52 0.28,-0.71 0.54,-1.35 0.74,-1.83 0.75,-1.58 1.37,-2.74 1.9,-3.74 2.07,-3.86 2.29,-4.26 -0.25,-11.8 -1.79,-5.34 -14.33,-17.59 -19.05,-22.2l-0.52 -0.51c-4.17,-4.08 -9.07,-6.58 -14.26,-9.24 -4.25,-2.17 -8.65,-4.42 -12.69,-7.62 -1.5,-1.19 -2.73,-2.22 -3.8,-3.12 -4.99,-4.18 -5.75,-4.82 -15.08,-4.82 -1.84,0 -3.72,-0.07 -5.63,-0.14 -6.98,-0.25 -14.19,-0.51 -20.15,2.75 -0.78,0.42 -8.44,2.68 -10.07,2.69 -1.25,0.01 -2.31,0.01 -3.22,0.01 -5.21,-0.02 -5.21,-0.02 -11.21,2.51 -0.85,0.37 -1.88,0.77 -3.02,1.22 -2.45,0.97 -5.51,2.18 -8.33,3.56 -5.34,2.62 -6.49,4.19 -7.51,5.57 -2.06,2.81 -3.85,4.66 -14.36,7.34 -5.71,1.45 -9.91,7.92 -13.96,14.16 -0.85,1.31 -1.68,2.59 -2.52,3.81 -1.83,2.67 -3.1,5.02 -3.89,7.19 -0.42,1.16 -0.78,2.02 -1.13,2.87 -0.46,1.11 -0.89,2.16 -1.46,3.87 -2.79,8.33 -2.62,9.33 -1.7,14.86 0.33,1.98 0.75,4.44 1.14,7.88 0.07,0.57 0.99,7.06 1.17,8.01 0.06,0.19 0.09,0.39 0.1,0.59 0.1,1.69 0.21,2.96 0.32,4.13 0.2,2.21 0.37,4.12 0.37,7.71 0,6.69 4.94,22.17 9.38,27.21 3.23,3.68 5.68,10.04 7.65,15.15 0.51,1.33 0.98,2.57 1.43,3.64 0.64,1.54 -0.08,3.31 -1.63,3.95 -0.38,0.16 -0.77,0.23 -1.16,0.23z"/>
  <path class="fil1" d="M158.2 109.45c-1.26,0 -2.44,-0.79 -2.87,-2.05l-0.14 -0.42c-0.04,-0.12 -0.07,-0.24 -0.09,-0.36 -0.32,-1.56 -0.52,-3.08 -0.72,-4.56 -0.45,-3.45 -0.87,-6.71 -2.82,-9.93 -1.45,-2.38 -1.94,-3.49 -2.46,-4.66 -0.3,-0.69 -0.63,-1.43 -1.24,-2.59 -2.74,-5.14 -3.14,-6.35 -4.12,-9.77 -0.31,-1.08 -0.7,-2.42 -1.29,-4.31 -0.5,-1.59 0.38,-3.28 1.97,-3.79 1.59,-0.5 3.29,0.39 3.79,1.98 0.62,1.95 1.02,3.34 1.34,4.46 0.85,2.98 1.08,3.78 3.64,8.59 0.72,1.35 1.1,2.22 1.44,2.99 0.45,1.03 0.85,1.92 2.09,3.97 2.61,4.3 3.17,8.54 3.66,12.28 0.17,1.37 0.34,2.66 0.6,3.95l0.08 0.24c0.53,1.58 -0.32,3.29 -1.9,3.82 -0.32,0.11 -0.64,0.16 -0.96,0.16z"/>
  <path class="fil1" d="M201.08 106.54c-0.23,0 -0.46,-0.03 -0.7,-0.08 -1.62,-0.39 -2.63,-2.02 -2.24,-3.64l0.41 -1.75c1.33,-5.74 2.59,-11.17 6.67,-16.7 5.41,-7.34 15.92,-24.42 16.17,-29.21 0.09,-1.67 1.51,-2.96 3.18,-2.86 1.66,0.09 2.94,1.51 2.85,3.18 -0.46,8.79 -17.16,32.24 -17.33,32.47 -3.35,4.54 -4.42,9.15 -5.66,14.49l-0.41 1.77c-0.33,1.39 -1.57,2.33 -2.94,2.33z"/>
  <path class="fil1" d="M215.16 107.24c-0.12,0 -0.25,-0.01 -0.38,-0.03 -1.66,-0.21 -2.83,-1.72 -2.62,-3.38 0.69,-5.39 3.59,-12.41 7.21,-17.46 3.45,-4.82 12.82,-10.66 19.01,-14.52l2.09 -1.3c2.46,-1.56 6.01,-5.57 6.14,-7.38 0.12,-1.67 1.56,-2.92 3.22,-2.81 1.67,0.12 2.92,1.56 2.81,3.23 -0.36,5.02 -6.29,10.39 -8.95,12.07l-2.12 1.32c-5.43,3.39 -14.53,9.06 -17.29,12.9 -3.04,4.25 -5.56,10.3 -6.12,14.72 -0.2,1.52 -1.5,2.64 -3,2.64z"/>
  <path class="fil1" d="M196.96 86.81c-1.59,0 -2.92,-1.24 -3.01,-2.85 -0.31,-5.47 4.34,-12.21 8.45,-18.17 1.56,-2.25 3.03,-4.39 3.88,-5.99 2.98,-5.57 3.92,-11.84 2.95,-19.73 -0.2,-1.65 0.98,-3.16 2.63,-3.36 1.64,-0.21 3.16,0.97 3.37,2.63 1.11,9.05 -0.07,16.68 -3.62,23.31 -1.01,1.9 -2.58,4.17 -4.24,6.58 -3.2,4.64 -7.58,10.99 -7.39,14.39 0.09,1.66 -1.18,3.09 -2.84,3.19 -0.06,0 -0.12,0 -0.18,0z"/>
  <path class="fil1" d="M165.92 105.16c-1.67,0 -3.03,-1.35 -3.03,-3.02l0 -0.5c0,-9.81 -0.97,-12.97 -2.59,-18.2 -0.78,-2.56 -1.77,-5.74 -2.82,-10.31 -1.86,-8.13 -1.85,-10.74 -1.8,-17.06 0,-1.04 0.01,-2.19 0.01,-3.5 0,-1.67 1.35,-3.02 3.02,-3.02 1.67,0 3.02,1.35 3.02,3.02 0,1.32 -0.01,2.49 -0.01,3.54 -0.05,6.15 -0.06,8.23 1.65,15.67 1,4.35 1.91,7.29 2.71,9.87 1.72,5.59 2.86,9.27 2.86,19.99l0 0.5c0,1.67 -1.36,3.02 -3.02,3.02z"/>
  <path class="fil1" d="M187.01 85.78c-1.61,0 -2.95,-1.27 -3.01,-2.9 -0.17,-4.25 1.58,-9.05 3.39,-11.93 0.96,-1.51 2.09,-5.18 2.09,-14.09 0,-1.67 1.35,-3.02 3.02,-3.02 1.67,0 3.02,1.35 3.02,3.02 0,8.54 -0.96,14.04 -3.01,17.31 -1.51,2.39 -2.57,6.03 -2.48,8.47 0.07,1.67 -1.23,3.07 -2.9,3.14 -0.04,0 -0.08,0 -0.12,0z"/>
  <path class="fil1" d="M218.75 112.71c-0.78,0 -1.55,-0.29 -2.14,-0.88 -1.18,-1.18 -1.18,-3.1 0,-4.27 4.07,-4.08 9.03,-7.64 14.35,-10.3 2.39,-1.21 5.65,-2.21 9.09,-3.27 8.09,-2.49 18.15,-5.59 18.39,-11.86 0.06,-1.67 1.49,-2.95 3.13,-2.9 1.67,0.06 2.97,1.46 2.91,3.13 -0.41,10.55 -12.74,14.35 -22.65,17.4 -3.2,0.99 -6.22,1.92 -8.17,2.9 -4.74,2.37 -9.16,5.55 -12.78,9.17 -0.59,0.59 -1.36,0.88 -2.13,0.88z"/>
  <path class="fil1" d="M231.1 121.46c-0.68,0 -1.37,-0.23 -1.93,-0.7 -1.28,-1.06 -1.46,-2.96 -0.4,-4.25 3.76,-4.54 13.73,-8.29 17.99,-9.21 1.72,-0.37 3.39,-0.9 6.3,-3.6 1.22,-1.13 3.13,-1.06 4.27,0.16 1.13,1.22 1.06,3.14 -0.16,4.27 -3.62,3.36 -6.27,4.46 -9.14,5.08 -4.65,1 -12.46,4.57 -14.61,7.16 -0.59,0.72 -1.46,1.09 -2.32,1.09z"/>
  <path class="fil1" d="M236.07 131.92c-1.34,0 -2.57,-0.9 -2.92,-2.26 -0.42,-1.62 0.55,-3.26 2.17,-3.68 0.37,-0.11 3.25,-1.03 4.14,-1.32 2.25,-1.19 4.64,-1.64 6.96,-2.07 2.31,-0.44 4.5,-0.86 6.08,-1.98 1.36,-0.97 3.24,-0.65 4.21,0.71 0.97,1.36 0.65,3.24 -0.7,4.21 -2.67,1.89 -5.75,2.48 -8.47,2.99 -2.02,0.38 -3.93,0.74 -5.41,1.56 -0.56,0.31 -5.26,1.74 -5.3,1.75 -0.26,0.06 -0.51,0.09 -0.76,0.09z"/>
  <path class="fil1" d="M240.19 144.27c-1.67,0 -3.02,-1.35 -3.02,-3.02 0,-1.67 1.35,-3.02 3.02,-3.02 4.69,0 10.04,-0.4 14.19,-3.38 1.35,-0.97 3.24,-0.66 4.21,0.7 0.98,1.35 0.67,3.24 -0.69,4.21 -5.58,4 -12.4,4.51 -17.71,4.51z"/>
  <path class="fil1" d="M144.99 112.03c-1.11,0 -2.17,-0.61 -2.7,-1.67 -0.76,-1.51 -5.49,-6.62 -6.96,-7.77 -9.32,-7.32 -11.39,-11.89 -13.79,-17.18 -1.38,-3.04 -2.95,-6.48 -6.29,-11.19 -0.96,-1.36 -0.64,-3.25 0.72,-4.21 1.36,-0.97 3.24,-0.65 4.21,0.71 3.68,5.18 5.37,8.91 6.86,12.19 2.24,4.95 3.87,8.52 12.02,14.93 1.68,1.31 7.26,7.08 8.63,9.81 0.75,1.5 0.14,3.31 -1.35,4.06 -0.43,0.21 -0.89,0.32 -1.35,0.32z"/>
  <g>
   <path class="fil1" d="M134.1 116.31l0.01 0 -0.01 0zm1.8 0.86c-0.8,0 -1.6,-0.31 -2.19,-0.94 -0.71,-0.16 -1.51,-0.49 -2.39,-1.36 -1.22,-1.2 -5.29,-2.49 -9.23,-3.73 -10.02,-3.16 -23.74,-7.49 -26.04,-19.76 -0.31,-1.64 0.77,-3.22 2.41,-3.53 1.65,-0.3 3.22,0.78 3.53,2.42 1.63,8.71 12.88,12.26 21.92,15.11 5.12,1.62 9.19,2.9 11.48,5.03 0.81,0.18 1.68,0.57 2.71,1.67 1.14,1.22 1.08,3.13 -0.13,4.27 -0.59,0.55 -1.33,0.82 -2.07,0.82z"/>
  </g>
  <path class="fil1" d="M126.41 128.09c0,0 0,0 0,0 0,0 0,0 0,0zm0.97 0.38c0.14,0.02 0.29,0.04 0.46,0.04 -0.15,0 -0.3,-0.01 -0.46,-0.04zm0.8 0.19c-0.5,0.01 -0.99,-0.12 -1.44,-0.36 -0.26,-0.1 -0.51,-0.22 -0.71,-0.36 -3.62,-2.44 -6.96,-3.06 -10.84,-3.78 -5.17,-0.96 -11.03,-2.05 -17.66,-7.92 -1.25,-1.11 -1.36,-3.02 -0.26,-4.27 1.11,-1.24 3.02,-1.36 4.27,-0.25 5.37,4.76 9.93,5.61 14.76,6.5 4.04,0.75 8.21,1.53 12.73,4.47 0.39,0.14 0.69,0.34 0.92,0.51 1.35,0.98 1.65,2.86 0.68,4.21 -0.59,0.82 -1.52,1.25 -2.45,1.25z"/>
  <path class="fil1" d="M125.09 145.13c-0.31,0 -0.63,-0.05 -0.95,-0.15 -5.13,-1.7 -8.18,-1.88 -10.87,-2.04 -5.16,-0.31 -8.72,-0.82 -16.81,-7.21 -1.31,-1.03 -1.53,-2.93 -0.5,-4.24 1.04,-1.31 2.93,-1.53 4.24,-0.5 7.01,5.54 9.43,5.68 13.43,5.92 2.91,0.17 6.53,0.39 12.41,2.33 1.58,0.53 2.44,2.23 1.92,3.82 -0.42,1.27 -1.6,2.07 -2.87,2.07z"/>
  <g>
   <path class="fil1" d="M119.04 155.63c0,0 0,0 0.01,0 -0.01,0 -0.01,0 -0.01,0zm0.53 0.58l0.02 0 -0.02 0zm2.09 0.93c-0.84,0 -1.67,-0.36 -2.25,-1 -0.69,-0.28 -2.49,-0.6 -3.96,-0.87 -4.73,-0.85 -11.87,-2.14 -17.17,-6.55 -1.28,-1.07 -1.45,-2.97 -0.38,-4.25 1.07,-1.29 2.97,-1.46 4.25,-0.39 4.07,3.39 10.02,4.46 14.37,5.24 3.94,0.71 6.54,1.18 7.75,3.29 0.84,1.44 0.35,3.29 -1.1,4.12 -0.48,0.28 -0.99,0.41 -1.51,0.41z"/>
  </g>
  <g>
   <path class="fil1" d="M115.58 170.49c0,0 0,0 0,0 0,0 0,0 0,0zm0 0.01l0 -0.01zm0.53 0.41l0.02 0 -0.02 0zm1.6 0.48c-0.59,0 -1.18,-0.18 -1.7,-0.53 -0.61,-0.27 -3.03,-1.11 -12.56,-3.64l-0.67 -0.17c-1.61,-0.43 -2.57,-2.09 -2.14,-3.7 0.43,-1.62 2.09,-2.58 3.7,-2.14l0.66 0.17c13.61,3.61 14.1,4.1 14.85,4.85 1.18,1.18 1.18,3.09 0,4.27 -0.59,0.59 -1.36,0.89 -2.14,0.89z"/>
  </g>
  <path class="fil1" d="M189.7 281.37c-18.39,0 -33.57,-6.33 -47.7,-19.89 -11.41,-10.93 -15.27,-18.66 -17.81,-27.57 -3.4,-11.91 -9.72,-46.52 -9.32,-60.16 0.05,-1.66 1.43,-2.98 3.1,-2.93 1.67,0.05 2.98,1.44 2.94,3.11 -0.36,12.13 5.49,45.71 9.09,58.33 2.32,8.14 5.71,14.82 16.18,24.86 13.07,12.54 27.16,18.31 44.06,18.2 7.34,-0.05 15.34,-3.24 23.79,-9.47 2.98,-2.19 9.13,-7.31 13.34,-12.61 9.11,-11.48 16.03,-29.69 18.51,-48.73 2.62,-20.17 1.24,-39.26 -4.32,-60.08 -0.44,-1.61 0.52,-3.26 2.13,-3.7 1.62,-0.43 3.27,0.53 3.7,2.14 5.78,21.61 7.2,41.44 4.48,62.42 -2.61,20.08 -10,39.41 -19.77,51.71 -5.67,7.13 -13.59,13.06 -14.48,13.71 -9.5,7.01 -18.7,10.59 -27.33,10.66 -0.2,0 -0.39,0 -0.59,0z"/>
  <path class="fil1" d="M141.63 294.41c-1.13,0 -2.23,-0.64 -2.77,-1.72 -0.24,-0.48 -1.33,-3.47 -1.34,-3.5 -1.27,-3.84 -3.22,-7.89 -5.1,-11.8 -2,-4.17 -3.89,-8.1 -5.1,-11.92 -2.56,-8.14 -2.02,-15.02 -1.11,-22.52 0.2,-1.66 1.7,-2.84 3.36,-2.64 1.66,0.2 2.84,1.71 2.63,3.36 -0.85,7.04 -1.32,12.98 0.89,19.99 1.07,3.4 2.87,7.15 4.78,11.11 1.96,4.09 4,8.31 5.38,12.52 0.11,0.3 0.9,2.44 1.07,2.82 0.75,1.49 0.11,3.24 -1.38,3.99 -0.42,0.21 -0.86,0.31 -1.31,0.31z"/>
  <path class="fil1" d="M240.53 278.75c-0.73,0 -1.46,-0.26 -2.04,-0.8 -5.71,-5.24 -6.25,-28.39 -6.26,-28.62 -0.01,-1.67 1.33,-3.03 3,-3.05l0.02 0c1.66,0 3.01,1.34 3.02,3 0.07,7.88 2.06,22.17 4.3,24.23 1.23,1.12 1.31,3.03 0.18,4.26 -0.59,0.65 -1.41,0.98 -2.22,0.98z"/>
  <path class="fil1" d="M267.46 330.21c-1,0 -1.97,-0.5 -2.55,-1.4 -4.33,-6.82 -6.65,-16.65 -9.11,-27.06 -3.98,-16.84 -8.49,-35.92 -22.43,-46.98 -1.31,-1.04 -1.53,-2.94 -0.49,-4.25 1.04,-1.3 2.94,-1.52 4.25,-0.48 15.57,12.36 20.34,32.52 24.54,50.32 2.35,9.9 4.55,19.25 8.34,25.21 0.89,1.41 0.48,3.27 -0.93,4.17 -0.5,0.32 -1.06,0.47 -1.62,0.47z"/>
  <path class="fil1" d="M64.71 290.93c-1.46,0 -2.75,-1.06 -2.98,-2.55 -0.16,-0.99 0.18,-1.93 0.83,-2.59 0.75,-1.2 2.05,-1.66 2.56,-1.83 4.62,-1.61 21.2,-13.53 32.17,-21.42 4.84,-3.48 9.02,-6.48 11.76,-8.33 6.64,-4.5 12.08,-7.93 17.08,-10.07 1.53,-0.66 3.3,0.05 3.96,1.58 0.66,1.53 -0.04,3.31 -1.58,3.97 -5.06,2.17 -10.95,6.06 -16.08,9.52 -2.66,1.8 -6.81,4.78 -11.61,8.24 -15.65,11.25 -28.09,20.05 -33.36,22.08 -0.51,0.72 -1.3,1.21 -2.28,1.36 -0.16,0.03 -0.32,0.04 -0.47,0.04z"/>
  <path class="fil1" d="M159.4 336.04c-0.3,0 -0.61,-0.04 -0.91,-0.14 -1.46,-0.45 -6.84,-6.18 -7.45,-6.84 -0.93,-0.99 -2.17,-2.34 -3.61,-3.9 -6.59,-7.14 -18.85,-20.43 -23.13,-23.66 -1.49,-1.13 -2.19,-2.05 -2.59,-2.81 -3.55,-2.96 -7.21,-10.43 -10.4,-17.28l-0.56 -1.2c-2.73,-5.8 -2.09,-18.09 -0.45,-23.99 0.45,-1.61 2.11,-2.55 3.72,-2.1 1.61,0.44 2.55,2.11 2.1,3.71 -1.51,5.44 -1.76,15.85 0.1,19.8l0.57 1.23c1.55,3.34 6.27,13.49 8.96,15.31 0.84,0.58 1.15,1.34 1.29,1.66 0.02,0.05 0.19,0.31 0.9,0.85 4.35,3.28 14.21,13.84 23.93,24.38 1.43,1.56 2.66,2.89 3.59,3.88 0.49,0.52 4.89,4.9 5.72,5.64 1.01,0.74 1.49,2.07 1.1,3.34 -0.4,1.29 -1.6,2.12 -2.88,2.12z"/>
  <g>
   <path class="fil1" d="M251.09 271.02l0 0 0 0zm-52.94 52.46c-21.68,0 -40.34,-11.14 -53.29,-21.86 -9.48,-7.87 -26.21,-22.12 -33.68,-29.18 -1.21,-1.15 -1.27,-3.06 -0.12,-4.27 1.14,-1.22 3.05,-1.27 4.27,-0.13 7.37,6.97 23.97,21.11 33.39,28.92 15.49,12.84 39.66,26.34 66.89,17.76 20.02,-6.31 27.3,-25.74 30.96,-40.39 -0.13,-0.42 -0.17,-0.88 -0.1,-1.34 0.19,-1.32 1.25,-2.39 2.57,-2.59 1.13,-0.18 2.64,0.27 3.49,2.03 0.05,0.1 0.09,0.2 0.13,0.31 0.01,0 0.01,0.01 0.01,0.01 0.19,0.56 0.23,1.17 0.08,1.77 -2.26,9.39 -9.12,37.7 -35.32,45.96 -6.63,2.09 -13.08,3 -19.28,3z"/>
  </g>
  <path class="fil1" d="M287.55 258.31c-0.21,0 -0.43,-0.02 -0.64,-0.07 -5.83,-1.26 -10.23,-2.09 -11.13,-2.16 -7.16,-0.56 -14.32,-2.91 -21.25,-5.19 -5.86,-1.93 -11.39,-3.75 -16.86,-4.54 -1.65,-0.25 -2.8,-1.78 -2.56,-3.43 0.24,-1.65 1.77,-2.8 3.43,-2.55 5.98,0.87 12.03,2.86 17.88,4.78 6.59,2.17 13.39,4.41 19.84,4.91 2.15,0.17 10.93,2.06 11.93,2.28 1.63,0.35 2.66,1.96 2.31,3.59 -0.31,1.42 -1.56,2.38 -2.95,2.38z"/>
  <path class="fil2" d="M152.73 165.67c2.92,0 5.29,2.36 5.29,5.28 0,2.92 -2.37,5.29 -5.29,5.29 -2.92,0 -5.29,-2.37 -5.29,-5.29 0,-2.92 2.37,-5.28 5.29,-5.28z"/>
  <path class="fil2" d="M217.22 160.86c2.93,0 5.29,2.37 5.29,5.29 0,2.92 -2.36,5.29 -5.29,5.29 -2.92,0 -5.29,-2.37 -5.29,-5.29 0,-2.92 2.37,-5.29 5.29,-5.29z"/>
  <g>
   <path class="fil1" d="M182.23 98.15l0.02 0 -0.02 0zm-2.25 4.98c-0.63,0 -1.26,-0.19 -1.79,-0.59 -1.8,-1.33 -2.53,-4.27 -3.82,-12.45 -0.22,-1.35 -0.48,-3.03 -0.6,-3.44 -4.4,-14.16 -2.59,-21.53 -0.84,-28.65 0.92,-3.75 1.79,-7.29 1.79,-11.95 0,-1.67 1.35,-3.02 3.02,-3.02 1.67,0 3.02,1.35 3.02,3.02 0,5.39 -1,9.46 -1.97,13.39 -1.62,6.62 -3.16,12.86 0.75,25.42 0.23,0.75 0.43,1.99 0.8,4.29 0.35,2.28 1.18,7.51 1.83,8.88 1,1.04 1.13,2.68 0.24,3.88 -0.59,0.8 -1.51,1.22 -2.43,1.22z"/>
  </g>
  <path class="fil1" d="M133.94 79.95c-0.61,0 -1.21,-0.28 -1.61,-0.8 -3.52,-4.68 -7.09,-24.6 -8.1,-30.59l0 0c-0.18,-0.82 0.17,-1.7 0.93,-2.15 0.95,-0.58 2.19,-0.27 2.76,0.69 0.13,0.21 0.24,0.54 0.28,0.79 2.06,12.23 5.14,25.89 7.35,28.84 0.67,0.89 0.49,2.15 -0.4,2.81 -0.36,0.28 -0.79,0.41 -1.21,0.41z"/>
  <path class="fil1" d="M142.29 61.77c-0.93,0 -1.76,-0.64 -1.97,-1.58 -0.12,-0.57 -0.32,-1.37 -0.56,-2.33 -2.79,-11.13 -3.82,-18.13 -0.8,-20.91 0.82,-0.76 2.09,-0.71 2.85,0.11 0.75,0.82 0.7,2.09 -0.12,2.85 -0.84,0.78 -1.19,4.36 1.97,16.98 0.26,1 0.46,1.83 0.59,2.43 0.24,1.09 -0.44,2.16 -1.53,2.4 -0.15,0.03 -0.29,0.05 -0.43,0.05z"/>
  <path class="fil1" d="M193.67 49.63c-0.39,0 -0.79,-0.11 -1.14,-0.35 -0.91,-0.63 -1.15,-1.88 -0.52,-2.8 0.72,-1.57 0.35,-11.48 0.21,-15.21 -0.07,-1.76 -0.12,-3.2 -0.12,-4.02 0,-1.11 0.91,-2.01 2.02,-2.01l0 0c1.11,0 2.01,0.91 2.01,2.02 0,0.79 0.05,2.17 0.11,3.85 0.4,10.48 0.36,15.79 -0.91,17.65 -0.39,0.57 -1.02,0.87 -1.66,0.87z"/>
  <path class="fil1" d="M113.86 92.17c-0.32,0 -0.64,-0.07 -0.95,-0.24 -7.68,-4.11 -9.55,-12.57 -11.06,-19.37 -0.62,-2.82 -1.21,-5.48 -2.11,-7.3 -0.49,-1 -0.09,-2.21 0.91,-2.7 0.99,-0.49 2.21,-0.08 2.7,0.91 1.12,2.26 1.76,5.16 2.43,8.23 1.4,6.3 2.98,13.44 9.03,16.68 0.98,0.53 1.35,1.75 0.83,2.73 -0.36,0.68 -1.06,1.06 -1.78,1.06z"/>
  <path class="fil1" d="M232.38 69.44c-0.51,0 -1.02,-0.19 -1.41,-0.57 -0.8,-0.78 -0.81,-2.06 -0.03,-2.85 5.43,-5.55 5.75,-9.57 6.09,-13.84 0.13,-1.66 0.27,-3.37 0.71,-5.13 0.28,-1.07 1.39,-1.72 2.45,-1.45 1.08,0.28 1.73,1.38 1.46,2.45 -0.37,1.43 -0.48,2.89 -0.61,4.45 -0.36,4.57 -0.77,9.75 -7.22,16.34 -0.4,0.4 -0.92,0.6 -1.44,0.6z"/>
  <path class="fil1" d="M172.57 195.9c-0.81,0 -1.57,-0.49 -1.88,-1.29 -0.34,-0.89 -0.01,-1.87 0.74,-2.39 0.16,-0.21 0.37,-0.42 0.65,-0.62 1.13,-0.8 3.28,-7.05 3.28,-9.55 0,-1.11 0.9,-2.01 2.01,-2.01 1.11,0 2.02,0.9 2.02,2.01 0,2.64 -1.9,10.02 -4.56,12.49 -0.24,0.45 -0.69,0.9 -1.53,1.22 -0.24,0.1 -0.49,0.14 -0.73,0.14z"/>
 </g>
</svg>
