<?xml version="1.0" encoding="UTF-8"?>
<!DOCTYPE svg PUBLIC "-//W3C//DTD SVG 1.1//EN" "http://www.w3.org/Graphics/SVG/1.1/DTD/svg11.dtd">
<!-- Creator: CorelDRAW 2018 (64-Bit) -->
<svg xmlns="http://www.w3.org/2000/svg" xml:space="preserve" width="845px" height="845px" version="1.1" style="shape-rendering:geometricPrecision; text-rendering:geometricPrecision; image-rendering:optimizeQuality; fill-rule:evenodd; clip-rule:evenodd"
viewBox="0 0 360.18 360.18"
 xmlns:xlink="http://www.w3.org/1999/xlink">
 <defs>
  <style type="text/css">
   <![CDATA[
    .fil0 {fill:none}
    .fil2 {fill:black}
    .fil1 {fill:black;fill-rule:nonzero}
   ]]>
  </style>
 </defs>
 <g id="Слой_x0020_1">
  <metadata id="CorelCorpID_0Corel-Layer"/>
  <rect class="fil0" width="360.18" height="360.18"/>
 </g>
 <g id="_1">
  <metadata id="CorelCorpID_1Corel-Layer"/>
  <g>
   <path class="fil1" d="M169.29 141.85l0 0 0 0zm0 0l0 0 0 0zm-0.51 6c-0.17,0 -0.34,-0.01 -0.51,-0.04 -0.85,-0.15 -1.34,-0.5 -2.81,-1.55 -1.3,-0.92 -3.25,-2.32 -5.62,-3.7 -4.46,-2.6 -11.94,-4.08 -21.07,-4.17 -1.55,0.05 -3.53,0.53 -5.46,1.05 -1.07,0.29 -2.12,0.57 -3.07,0.76 -1.65,0.34 -3.23,-0.72 -3.56,-2.36 -0.33,-1.64 0.73,-3.23 2.36,-3.56 0.84,-0.17 1.75,-0.42 2.69,-0.67 2.22,-0.6 4.65,-1.3 7.1,-1.26 7.18,0.07 17.19,1 24.05,4.99 2.61,1.52 4.7,3.02 6.09,4 0.45,0.32 0.79,0.57 1.02,0.72 1.24,0.55 2,1.88 1.77,3.28 -0.25,1.47 -1.53,2.51 -2.98,2.51z"/>
  </g>
  <path class="fil1" d="M199.27 142.63c-1.11,0 -2.17,-0.61 -2.7,-1.67 -0.75,-1.49 -0.15,-3.31 1.35,-4.05 8.32,-4.16 23.23,-8.4 34.64,-8.04 0.56,0.02 1.11,0.19 1.58,0.5l5.28 3.5c1.39,0.92 1.77,2.8 0.85,4.19 -0.92,1.39 -2.79,1.77 -4.19,0.85l-4.55 -3.02c-0.13,0 -0.26,0 -0.39,0 -10.2,0 -23.16,3.74 -30.52,7.42 -0.43,0.22 -0.9,0.32 -1.35,0.32z"/>
  <path class="fil1" d="M202.57 156.32c-0.7,0 -1.4,-0.24 -1.97,-0.74 -1.26,-1.09 -1.4,-3 -0.31,-4.26 2.03,-2.34 5.44,-3.78 7.93,-4.84l0.34 -0.14c0.46,-0.19 0.83,-0.38 1.16,-0.55 0.84,-0.43 1.79,-0.91 3.26,-1.16 5.4,-0.93 10.99,0.04 17.07,2.96l0.7 0.34c1.41,0.69 3.17,1.56 5,1.81 1.65,0.23 2.8,1.76 2.57,3.41 -0.23,1.65 -1.74,2.81 -3.41,2.58 -2.78,-0.39 -5.12,-1.54 -6.83,-2.38l-0.64 -0.32c-4.91,-2.35 -9.31,-3.15 -13.44,-2.45 -0.57,0.1 -0.87,0.25 -1.54,0.59 -0.44,0.23 -0.93,0.48 -1.54,0.73l-0.34 0.15c-1.84,0.78 -4.62,1.95 -5.72,3.23 -0.6,0.69 -1.44,1.04 -2.29,1.04z"/>
  <path class="fil1" d="M163.65 156.6c-0.3,0 -0.6,-0.04 -0.9,-0.13 -3.03,-0.94 -5.03,-2.42 -6.81,-3.73 -0.55,-0.41 -1.09,-0.81 -1.66,-1.18 -3.12,-2.04 -10.69,-2.08 -14.28,-0.62 -0.75,0.31 -1.3,0.63 -1.87,0.96 -1.34,0.79 -2.86,1.68 -6.18,2.01 -1.68,0.15 -3.14,-1.06 -3.3,-2.72 -0.16,-1.66 1.05,-3.14 2.71,-3.3 2,-0.19 2.61,-0.55 3.71,-1.2 0.67,-0.39 1.49,-0.87 2.65,-1.35 5.27,-2.13 14.87,-2.09 19.86,1.16 0.67,0.43 1.31,0.9 1.96,1.38 1.51,1.12 2.95,2.18 5,2.82 1.59,0.49 2.48,2.18 1.99,3.77 -0.4,1.3 -1.59,2.13 -2.88,2.13z"/>
  <path class="fil1" d="M185.76 207.96c-0.4,0 -0.82,-0.01 -1.27,-0.03 -4.65,-0.21 -8.66,-1.86 -11.93,-4.93 -0.35,-0.34 -2.16,-0.16 -3.23,-0.06 -2.08,0.21 -4.43,0.44 -6.75,-0.48 -3.3,-1.32 -6.76,-4.91 -5.65,-10.71 0.95,-5.01 5.02,-9.51 8.21,-11.84 1.97,-1.44 2.23,-1.97 2.63,-2.77 0.55,-1.12 0.93,-2.7 1.45,-6.05 0.45,-2.91 1.98,-16.81 1.98,-19.27 0,-1.67 1.36,-3.02 3.03,-3.02 1.66,0 3.02,1.35 3.02,3.02 0,3 -1.6,17.22 -2.06,20.2 -0.64,4.08 -1.14,6.04 -2,7.79 -0.74,1.51 -1.54,2.83 -4.49,4.98 -2.4,1.76 -5.26,5.04 -5.84,8.09 -0.49,2.58 1.02,3.59 1.96,3.96 0.95,0.38 2.46,0.23 3.92,0.09 2.5,-0.24 5.61,-0.54 7.96,1.67 2.21,2.07 4.85,3.15 8.06,3.3 3.06,0.14 4.23,-0.33 5.27,-0.74 0.11,-0.05 0.17,-0.09 0.58,-0.48 0.74,-0.7 1.87,-1.76 4.42,-3.02 3.05,-1.5 7.13,-2.12 9.2,-2.07 2.14,0.04 2.41,-0.78 2.52,-1.13 0.45,-1.36 -0.33,-3.21 -0.79,-3.54 -1.55,-0.61 -2.26,-2.34 -1.65,-3.89 0.62,-1.55 2.42,-2.29 3.98,-1.67 3.19,1.26 5.28,5.94 4.46,10.01 -0.62,3.05 -3.14,6.26 -8.38,6.26 -0.12,0 -0.24,0 -0.36,0 -1.26,0 -4.3,0.47 -6.31,1.45 -1.74,0.86 -2.38,1.47 -2.95,2 -0.58,0.54 -1.29,1.21 -2.5,1.69 -1.22,0.49 -3,1.19 -6.49,1.19z"/>
  <path class="fil1" d="M162.6 228.37c-0.8,0.01 -1.67,-0.05 -2.49,-0.11 -0.65,-0.05 -1.3,-0.09 -1.92,-0.09 -1.67,0 -3.02,-1.35 -3.02,-3.02 0,-1.67 1.35,-3.02 3.02,-3.02 0.75,0 1.53,0.05 2.33,0.1 0.68,0.05 1.38,0.1 2.07,0.1l0.01 0c1.31,0 2.56,-0.55 4.15,-1.24 1.69,-0.74 3.8,-1.66 6.51,-2.09 6.52,-1.04 8.85,0.17 10.04,1.17 0.36,0.31 1.79,0.46 2.5,-0.11 3.6,-2.85 10.09,-1.46 16.95,0 3.11,0.67 6.35,1.37 8.1,1.29 0.42,-0.01 0.88,-0.02 1.37,-0.02 1.43,-0.02 5.21,-0.06 5.79,-1.01 0.87,-1.42 2.73,-1.86 4.15,-0.99 1.42,0.87 1.87,2.73 1,4.15 -2.33,3.79 -7.47,3.85 -10.87,3.89 -0.44,0 -0.85,0.01 -1.22,0.02 -2.51,0.09 -5.96,-0.64 -9.58,-1.42 -3.43,-0.73 -10.57,-2.25 -11.94,-1.17 -2.83,2.24 -7.48,2.23 -10.14,-0.01 -0.2,-0.08 -1.76,-0.37 -5.2,0.18 -1.95,0.31 -3.46,0.96 -5.05,1.66 -1.96,0.85 -3.99,1.74 -6.56,1.74z"/>
  <path class="fil1" d="M187.93 246.53c-9.2,0 -19.51,-2.49 -25.79,-8.64 -1.19,-1.16 -1.2,-3.08 -0.04,-4.27 1.17,-1.19 3.08,-1.21 4.27,-0.04 5.39,5.27 16.52,7.97 27.07,6.55 7.23,-0.96 12.66,-3.7 14.9,-7.52 0.84,-1.44 2.69,-1.93 4.13,-1.08 1.44,0.84 1.92,2.7 1.08,4.14 -3.23,5.51 -10.09,9.22 -19.31,10.45 -2,0.27 -4.13,0.41 -6.31,0.41z"/>
  <path class="fil1" d="M153.66 44.24c-24.42,10.96 -37.14,28.32 -41.26,56.29 -4.33,29.4 2.06,64.97 7.19,93.55l0.23 1.25c0.38,2.13 0.66,4.48 0.96,6.97 0.41,3.36 0.82,6.83 1.49,9.6 1.63,6.78 5.36,13.88 12.46,23.73 11.97,16.62 28.95,36.94 37.39,39.51 5.04,1.54 10.87,2.11 18.33,1.77 16.72,-0.74 19.96,-5.31 29.59,-18.87l1.4 -1.97c8.9,-12.49 19.59,-29.71 22.08,-36.92 3.24,-9.38 5.1,-21.47 6.33,-29.46l0.43 -2.76c0.44,-2.75 0.88,-5.49 1.33,-8.22 1.7,-10.49 3.46,-21.34 4.51,-32.26 0.22,-2.27 0.45,-4.46 0.68,-6.61 1.2,-11.12 2.23,-20.72 0.19,-34.89 -1.2,-8.31 -3.47,-16.02 -6.73,-25.76 -3.42,-10.18 -8.56,-18.24 -15.29,-23.95 -5,-4.25 -12.82,-8.1 -16.15,-9.75 -12.5,-6.17 -29.6,-10.51 -38.08,-9.67 -10.59,1.03 -18.97,4.79 -27.08,8.42zm32.82 238.81c-6.23,0 -11.43,-0.7 -16.13,-2.13 -12.07,-3.69 -32.36,-30.43 -40.52,-41.76 -7.59,-10.53 -11.61,-18.26 -13.43,-25.85 -0.75,-3.11 -1.19,-6.76 -1.61,-10.29 -0.29,-2.4 -0.56,-4.66 -0.92,-6.63l-0.22 -1.24c-5.21,-29.01 -11.7,-65.12 -7.23,-95.5 4.39,-29.83 18.62,-49.18 44.77,-60.92 8.15,-3.65 17.39,-7.79 28.96,-8.93 11.12,-1.08 29.6,4.48 41.34,10.27 5.5,2.72 12.46,6.37 17.39,10.56 7.58,6.44 13.34,15.4 17.1,26.64 3.38,10.06 5.72,18.06 6.99,26.82 2.14,14.92 1.02,25.35 -0.16,36.39 -0.23,2.13 -0.46,4.3 -0.68,6.54 -1.06,11.12 -2.84,22.07 -4.56,32.66 -0.44,2.72 -0.89,5.45 -1.32,8.2l-0.42 2.73c-1.27,8.21 -3.18,20.62 -6.6,30.52 -2.77,8.01 -13.85,25.78 -22.87,38.44l-1.4 1.97c-10,14.09 -14.57,20.53 -34.24,21.41 -1.46,0.06 -2.88,0.1 -4.24,0.1z"/>
  <path class="fil1" d="M115.87 191.15c0,0 0,0 -0.01,0 0.01,0 0.01,0 0.01,0zm-9.21 4.79c-0.27,0 -0.56,-0.01 -0.85,-0.03 -8.07,-0.51 -9.38,-8.14 -10.17,-12.71 -0.3,-1.77 -0.65,-3.77 -1.18,-4.53 -4.13,-5.9 -2.1,-17.48 -0.54,-21.86 0.25,-0.7 0.73,-2.55 1.18,-7.06 0.31,-3.09 0.83,-5.81 1.39,-8.7 0.22,-1.14 0.44,-2.3 0.66,-3.51 0.33,-1.94 1.05,-5.96 4.32,-7.48 2.24,-1.05 4.97,-0.61 8.33,1.33 1.44,0.84 1.94,2.69 1.1,4.13 -0.84,1.44 -2.68,1.94 -4.13,1.1 -2.07,-1.2 -2.79,-1.07 -2.8,-1.07 0.01,0.03 -0.43,0.52 -0.87,3.04 -0.22,1.24 -0.45,2.43 -0.68,3.61 -0.53,2.74 -1.03,5.33 -1.31,8.15 -0.39,3.92 -0.89,6.78 -1.5,8.49 -1.57,4.4 -2.44,13.16 -0.2,16.36 1.31,1.87 1.74,4.35 2.19,6.98 0.96,5.62 1.76,7.52 4.6,7.7 3,0.18 4.7,-1.58 5.95,-2.88 0.83,-0.86 1.62,-1.67 2.92,-1.84 1.66,-0.22 3.17,0.94 3.39,2.6 0.17,1.3 -0.51,2.52 -1.62,3.08 -0.1,0.1 -0.21,0.23 -0.34,0.36 -1.51,1.57 -4.58,4.74 -9.84,4.74z"/>
  <path class="fil1" d="M104.63 184.67c-0.83,0 -1.61,-0.52 -1.9,-1.34 -0.06,-0.17 -0.13,-0.33 -0.19,-0.49 -0.07,-0.18 -0.14,-0.36 -0.21,-0.55 -1.63,-4.55 -2.8,-16.04 -1.18,-21.62 0.78,-2.67 1.32,-4.02 1.64,-4.82 0.39,-0.97 0.39,-0.97 0.2,-3.64 -0.05,-0.78 -0.12,-1.74 -0.2,-2.97 -0.06,-1.11 0.78,-2.06 1.89,-2.13 1.09,-0.06 2.06,0.78 2.13,1.89 0.08,1.21 0.15,2.16 0.2,2.93 0.22,3.25 0.25,3.59 -0.48,5.41 -0.31,0.78 -0.79,1.97 -1.51,4.45 -1.25,4.28 -0.42,14.89 1.1,19.14l0.16 0.42c0.08,0.21 0.17,0.42 0.24,0.63 0.38,1.05 -0.17,2.2 -1.22,2.58 -0.22,0.07 -0.45,0.11 -0.67,0.11z"/>
  <path class="fil1" d="M261.14 196.79c-0.34,0 -0.68,-0.01 -1.03,-0.03 -4.31,-0.26 -8.61,-5.92 -9.6,-8.12 -0.68,-1.53 0,-3.31 1.52,-3.99 1.53,-0.69 3.31,0 3.99,1.52 0.64,1.43 3.38,4.35 4.48,4.56 4.02,0.24 4.71,-1.19 5.17,-6.98 0.14,-1.88 0.29,-3.67 0.88,-5.21 1.69,-4.36 1.65,-6.76 1.59,-10.4 -0.02,-1.37 -0.04,-2.92 0.02,-4.74 0.02,-1.33 -1.32,-9.34 -1.69,-10.7 -0.69,-1.76 -0.72,-4.94 -0.63,-11.07 0.03,-1.88 0.07,-4.39 -0.01,-5.39 -0.42,-0.62 -0.71,-0.88 -0.84,-0.98 -0.61,0.19 -1.96,1.31 -2.71,1.93 -1.29,1.06 -3.19,0.88 -4.25,-0.41 -1.06,-1.28 -0.88,-3.19 0.41,-4.25 2.14,-1.77 4.57,-3.76 7.55,-3.26 2,0.33 3.72,1.71 5.24,4.22 0.69,1.13 0.74,2.38 0.65,8.23 -0.04,2.69 -0.11,7.69 0.23,8.81 0.55,1.23 2.16,11.21 2.09,13.09 -0.06,1.66 -0.04,3.07 -0.02,4.42 0.07,3.87 0.12,7.22 -1.99,12.68 -0.28,0.72 -0.39,2.13 -0.5,3.5 -0.32,4.13 -0.98,12.57 -10.55,12.57z"/>
  <path class="fil1" d="M261.97 178.65c-0.17,0 -0.33,-0.02 -0.5,-0.06 -0.96,-0.25 -1.59,-1.15 -1.51,-2.13l0.04 -0.41c0.06,-0.66 0.43,-1.22 0.95,-1.54 0.27,-0.33 0.55,-0.59 0.78,-0.81 0.15,-0.14 0.35,-0.33 0.4,-0.41 0.68,-2.43 -0.02,-5.44 -0.84,-8.93 -0.98,-4.14 -2.08,-8.83 -1.13,-14.18 0.2,-1.09 1.24,-1.82 2.34,-1.63 1.09,0.2 1.82,1.24 1.63,2.34 -0.8,4.52 0.15,8.6 1.08,12.55 0.91,3.87 1.76,7.53 0.74,11.07 -0.29,1 -0.95,1.64 -1.44,2.1 -0.35,0.34 -0.58,0.56 -0.7,0.84 -0.32,0.74 -1.06,1.2 -1.84,1.2z"/>
  <path class="fil1" d="M123.53 282.71c-1.67,0 -3.02,-1.35 -3.02,-3.02 0,-4.56 -0.08,-9.27 -0.16,-13.82 -0.24,-13.45 -0.48,-27.36 1.29,-40.68 0.22,-1.65 1.75,-2.83 3.39,-2.59 1.66,0.22 2.82,1.74 2.6,3.39 -1.72,12.87 -1.47,26.54 -1.24,39.77 0.08,4.58 0.16,9.31 0.16,13.93 0,1.67 -1.35,3.02 -3.02,3.02z"/>
  <path class="fil1" d="M260.17 284.97c-0.77,0 -1.55,-0.29 -2.14,-0.88 -1.06,-1.07 -1.38,-1.53 -1.72,-2.24 -0.07,-0.13 -0.15,-0.29 -0.37,-0.61 -5.42,-7.67 -10.28,-35.71 -11.17,-42.96 -0.73,-5.99 -0.11,-11.76 0.44,-16.84 0.38,-3.47 0.73,-6.74 0.56,-9.4 -0.11,-1.66 1.15,-3.1 2.82,-3.21 1.68,-0.09 3.1,1.15 3.21,2.82 0.2,3.18 -0.18,6.71 -0.58,10.44 -0.54,4.99 -1.1,10.15 -0.45,15.45 1.36,11.06 6.23,34.73 10.1,40.22 0.48,0.67 0.69,1.08 0.87,1.44 0.09,0.14 0.26,0.31 0.57,0.62 1.18,1.18 1.18,3.09 0,4.27 -0.6,0.59 -1.37,0.88 -2.14,0.88z"/>
  <path class="fil1" d="M291.82 240.39c-0.44,0 -0.62,-0.03 -0.93,-0.12 -6.77,-2.19 -39.24,-8.53 -42.89,-8.13 -1.63,0.18 -3.17,-0.96 -3.39,-2.59 -0.22,-1.63 0.85,-3.14 2.48,-3.39 5.04,-0.79 38.09,6.11 45.08,8.18 0.15,0 0.3,0 0.42,-0.01l0.33 -0.01c1.67,0 3.02,1.36 3.02,3.03 0,1.67 -1.35,3.02 -3.02,3.02l-0.17 0c-0.41,0.01 -0.71,0.02 -0.93,0.02z"/>
  <path class="fil1" d="M254.24 309.53c-1.56,0 -2.88,-1.19 -3.01,-2.76 -0.04,-0.5 -0.14,-1.66 1.51,-4.6 18.31,-32.48 13.14,-53.62 9.37,-69.07l-0.22 -0.88c-0.39,-1.62 0.6,-3.25 2.22,-3.65 1.62,-0.4 3.26,0.6 3.65,2.22l0.22 0.88c3.78,15.5 9.5,38.91 -9.98,73.46 -0.35,0.64 -0.64,1.26 -0.74,1.56 -0.09,1.47 -1.25,2.7 -2.76,2.83 -0.09,0.01 -0.18,0.01 -0.26,0.01z"/>
  <path class="fil1" d="M275.74 308.95c-0.65,0 -1.31,-0.22 -1.87,-0.66 -1.31,-1.03 -1.53,-2.93 -0.49,-4.24 1.94,-2.46 5.43,-12.59 8.04,-26.53 3.53,-18.77 3.55,-33.99 0.04,-38.76 -0.7,-0.97 -1.33,-1.15 -1.79,-1.21 -1.66,-0.2 -2.84,-1.7 -2.64,-3.36 0.19,-1.65 1.71,-2.84 3.35,-2.63 2.36,0.28 4.42,1.53 5.95,3.62 6.61,9.01 2.92,33.39 1.03,43.46 -2.14,11.41 -5.84,24.85 -9.25,29.16 -0.59,0.75 -1.47,1.15 -2.37,1.15z"/>
  <g>
   <path class="fil1" d="M123.41 236.45l0 0 0 0zm0.36 0.02l-0.36 -0.02zm-55.49 18.74c-1.25,0 -2.42,-0.78 -2.86,-2.03 -0.55,-1.58 0.29,-3.3 1.87,-3.85 1.48,-0.51 4.2,-1.48 7.68,-2.72 39.54,-14.07 47.52,-16.39 49.61,-16.12 1.65,0.22 2.81,1.74 2.59,3.39 -0.21,1.56 -1.59,2.69 -3.11,2.62 -3.9,0.45 -35.23,11.59 -47.07,15.81 -3.49,1.24 -6.23,2.21 -7.72,2.73 -0.33,0.12 -0.67,0.17 -0.99,0.17z"/>
  </g>
  <path class="fil1" d="M124.66 327.04c-0.92,0 -1.83,-0.43 -2.43,-1.22 -11.64,-15.7 -17.07,-35.33 -16.59,-60.02 0.34,-18.01 2.56,-28.62 6.59,-31.55 1.35,-0.98 3.2,-0.67 4.19,0.66 0.98,1.33 0.69,3.23 -0.64,4.22 -1.41,1.06 -3.77,9.27 -4.1,26.79 -0.45,23.3 4.59,41.72 15.41,56.29 0.99,1.35 0.71,3.24 -0.63,4.23 -0.54,0.4 -1.17,0.6 -1.8,0.6z"/>
  <path class="fil1" d="M107.67 332.95c-0.61,0 -1.22,-0.18 -1.75,-0.58 -2.01,-1.49 -2.25,-3.19 -2.41,-4.31 -0.12,-0.85 -0.23,-1.65 -1.36,-3.23 -2.55,-3.6 -5.15,-11.77 -7.71,-24.29 -3.61,-17.54 -3.1,-27.45 -2.61,-37.04 0.3,-5.9 0.61,-12 -0.04,-19.98 -0.14,-1.66 1.1,-3.12 2.76,-3.25 1.67,-0.15 3.12,1.1 3.26,2.76 0.68,8.38 0.36,14.68 0.05,20.78 -0.49,9.63 -0.95,18.73 2.49,35.52 2.3,11.19 4.75,19.22 6.73,22 1.97,2.78 2.25,4.72 2.41,5.88 0.02,0.11 0.03,0.22 0.04,0.31 1.25,1.02 1.54,2.88 0.57,4.19 -0.6,0.81 -1.51,1.24 -2.43,1.24z"/>
  <path class="fil2" d="M218.2 146.93c2.72,-0.13 5.04,1.98 5.16,4.7 0.13,2.73 -1.97,5.04 -4.7,5.17 -2.72,0.13 -5.03,-1.98 -5.16,-4.7 -0.13,-2.73 1.97,-5.04 4.7,-5.17z"/>
  <path class="fil2" d="M148.95 146.94c2.72,-0.13 5.04,1.98 5.17,4.7 0.13,2.73 -1.98,5.04 -4.7,5.17 -2.73,0.13 -5.04,-1.98 -5.17,-4.7 -0.13,-2.73 1.98,-5.04 4.7,-5.17z"/>
  <path class="fil1" d="M199.32 279.64c-0.93,0 -1.77,-0.66 -1.97,-1.61 -0.22,-1.09 0.48,-2.15 1.57,-2.38 3.14,-0.65 8.53,-4.98 16.36,-21.91 0.87,-1.87 1.9,-3.89 2.99,-6.02 3.79,-7.41 8.51,-16.63 8.35,-24.5 -0.11,-4.95 -0.11,-4.95 -3.77,-5.11 -0.75,-0.03 -1.59,-0.07 -2.52,-0.15 -7.43,-0.61 -14.5,-2.34 -20.19,-3.72 -4.03,-0.98 -7.51,-1.83 -9.41,-1.83 -1.11,0 -2.01,-0.9 -2.01,-2.01 0,-1.11 0.9,-2.01 2.01,-2.01 2.38,0 5.9,0.85 10.37,1.94 5.54,1.35 12.45,3.03 19.56,3.62 0.88,0.07 1.66,0.1 2.37,0.13 5.17,0.23 7.45,1.15 7.62,9.06 0.18,8.88 -4.8,18.6 -8.8,26.42 -1.07,2.09 -2.08,4.07 -2.91,5.87 -6.96,15.03 -13.24,22.93 -19.21,24.16 -0.13,0.03 -0.27,0.05 -0.41,0.05z"/>
  <path class="fil1" d="M175.34 280.58c-0.06,0 -0.13,0 -0.19,-0.01 -2.65,-0.24 -6.83,-4.45 -18.58,-24.14l-0.69 -1.15c-3.75,-6.23 -12.83,-30.42 -5.6,-38.52 0.32,-0.36 0.75,-0.59 1.22,-0.66 0.18,-0.02 0.28,-0.06 0.37,-0.08 0.37,-0.13 0.79,-0.25 1.41,-0.22 2.28,0.12 7.27,-1.49 11.65,-2.9 7.98,-2.56 13.01,-4.05 15.59,-2.44 0.94,0.59 1.23,1.83 0.64,2.78 -0.58,0.93 -1.82,1.22 -2.75,0.65 -1.45,-0.61 -8.21,1.55 -12.25,2.84 -5.16,1.66 -10.05,3.25 -13.05,3.1 -0.06,0.02 -0.11,0.04 -0.18,0.07 -4.14,6.06 2.28,26.46 6.4,33.3l0.7 1.16c11.35,19.03 14.72,21.89 15.64,22.23 1.11,0.11 1.85,1.07 1.74,2.18 -0.09,1.04 -1.03,1.81 -2.07,1.81z"/>
  <g>
   <path class="fil1" d="M202.81 177.18c0.01,0 0.01,0 0.01,0 0,0 0,0 -0.01,0zm0.78 0.29l0.02 0 -0.02 0zm-0.95 3.73c-0.05,0 -0.11,0 -0.17,-0.01 -3.56,-0.3 -6.3,-11.21 -6.26,-13.09 0.02,-1.1 0.92,-1.97 2.01,-1.97l0.04 0c1.11,0.02 2,0.94 1.98,2.05 -0.04,1.9 2.2,7.9 3.24,9.17 0.75,0.35 1.24,1.14 1.17,2.01 -0.09,1.05 -0.97,1.84 -2.01,1.84z"/>
  </g>
 </g>
</svg>
