<?xml version="1.0" encoding="UTF-8"?>
<!DOCTYPE svg PUBLIC "-//W3C//DTD SVG 1.1//EN" "http://www.w3.org/Graphics/SVG/1.1/DTD/svg11.dtd">
<!-- Creator: CorelDRAW 2018 (64-Bit) -->
<svg xmlns="http://www.w3.org/2000/svg" xml:space="preserve" width="845px" height="845px" version="1.1" style="shape-rendering:geometricPrecision; text-rendering:geometricPrecision; image-rendering:optimizeQuality; fill-rule:evenodd; clip-rule:evenodd"
viewBox="0 0 361.04 361.04"
 xmlns:xlink="http://www.w3.org/1999/xlink">
 <defs>
  <style type="text/css">
   <![CDATA[
    .fil0 {fill:none}
    .fil2 {fill:black}
    .fil1 {fill:black;fill-rule:nonzero}
   ]]>
  </style>
 </defs>
 <g id="Слой_x0020_1">
  <metadata id="CorelCorpID_0Corel-Layer"/>
  <rect class="fil0" width="361.04" height="361.04"/>
 </g>
 <g id="_1">
  <metadata id="CorelCorpID_1Corel-Layer"/>
  <path class="fil1" d="M167.55 152.23c-0.3,0 -0.61,-0.05 -0.91,-0.14 -3.32,-1.04 -12.98,-2.42 -21.07,-3.33 -3.03,-0.34 -5.17,-0.19 -7.43,-0.04 -1.66,0.11 -3.38,0.23 -5.38,0.13 -1.67,-0.07 -2.96,-1.49 -2.88,-3.16 0.08,-1.67 1.5,-2.96 3.17,-2.88 1.64,0.07 3.12,-0.02 4.68,-0.13 2.32,-0.16 4.94,-0.34 8.51,0.06 2.81,0.32 17.11,1.97 22.21,3.57 1.6,0.5 2.49,2.2 1.99,3.8 -0.41,1.29 -1.6,2.12 -2.89,2.12z"/>
  <path class="fil1" d="M190.46 151.48c-1.28,0 -2.47,-0.82 -2.88,-2.11 -0.51,-1.59 0.37,-3.29 1.96,-3.8 2.98,-0.96 7.11,-2.88 10.42,-4.43 2,-0.94 3.73,-1.74 5.07,-2.28 2.21,-0.9 3.44,-1.73 4.64,-2.53 3.03,-2.03 5.41,-3.29 12.97,-3.53 0.32,-0.01 0.75,-0.06 1.18,-0.11 0.77,-0.09 1.56,-0.19 2.25,-0.16 1.67,0.06 2.98,1.46 2.93,3.13 -0.06,1.67 -1.51,3 -3.13,2.92 -0.24,0.01 -0.91,0.07 -1.36,0.12 -0.62,0.07 -1.22,0.14 -1.68,0.15 -6.36,0.21 -7.65,1.07 -9.78,2.51 -1.32,0.88 -2.96,1.98 -5.75,3.11 -1.19,0.48 -2.93,1.3 -4.78,2.15 -3.65,1.71 -7.79,3.64 -11.13,4.71 -0.31,0.1 -0.62,0.15 -0.93,0.15z"/>
  <path class="fil1" d="M195.55 164.99c-1.17,0 -2.29,-0.68 -2.78,-1.82 -0.66,-1.54 0.04,-3.31 1.57,-3.98 0.4,-0.2 1.44,-1.23 2.21,-1.98 3.18,-3.13 7.99,-7.85 15.72,-8.55l1.51 -0.14c1.86,-0.17 2.89,-0.26 4.23,-0.25 4.3,0.04 6.49,1.27 10.86,3.73 0.7,0.4 1.48,0.83 2.34,1.31 1.47,0.81 2,2.65 1.19,4.12 -0.81,1.46 -2.65,1.99 -4.11,1.18 -0.88,-0.48 -1.67,-0.93 -2.39,-1.33 -4.3,-2.42 -5.3,-2.93 -7.94,-2.96 -1.06,-0.02 -1.85,0.07 -3.61,0.23l-1.53 0.14c-5.58,0.51 -9.31,4.16 -12.03,6.84 -1.49,1.46 -2.67,2.62 -4.04,3.22 -0.39,0.17 -0.8,0.24 -1.2,0.24z"/>
  <path class="fil1" d="M169.4 167.45c-0.26,0 -0.53,-0.03 -0.8,-0.1 -2.98,-0.81 -5.5,-2.09 -7.94,-3.32 -5.55,-2.8 -9.93,-5.02 -18.24,-1.18 -0.99,0.46 -5.85,2.92 -6.57,3.39 -1.39,0.9 -3.27,0.52 -4.19,-0.86 -0.91,-1.37 -0.58,-3.22 0.79,-4.15 1.07,-0.73 6.64,-3.51 7.43,-3.88 10.97,-5.07 17.63,-1.7 23.51,1.28 2.27,1.14 4.41,2.22 6.8,2.87 1.62,0.44 2.57,2.11 2.13,3.72 -0.37,1.35 -1.59,2.23 -2.92,2.23z"/>
  <g>
   <path class="fil1" d="M201.66 192.49l0 0.01 0 -0.01zm-29.27 4.86l0.01 0 -0.01 0zm15.19 9.59c-3.51,0 -7.08,-1.31 -9.87,-3.01 -1.34,-0.81 -1.6,-0.77 -2.08,-0.67 -0.49,0.1 -1.15,0.23 -2.04,0.18 -2.83,-0.18 -4.79,-0.98 -6.01,-2.47 -1.65,-2.02 -1.3,-4.5 -1.04,-6.3 0.06,-0.44 0.12,-0.9 0.16,-1.35 0.13,-1.66 1.6,-2.88 3.25,-2.78 1.67,0.12 2.91,1.58 2.79,3.25 -0.05,0.58 -0.13,1.16 -0.21,1.72 -0.07,0.51 -0.17,1.22 -0.16,1.62 0.23,0.09 0.71,0.21 1.59,0.27 0.08,0 0.23,-0.03 0.48,-0.08 1.61,-0.31 3.31,-0.45 6.42,1.44 2.9,1.77 7.28,3.13 10.04,1.16 1.3,-0.93 2.5,-1.85 3,-3.03 1.2,-2.79 3.96,-3.44 5.79,-3.88 0.34,-0.08 0.81,-0.19 1.13,-0.29 0.09,-0.19 0.2,-0.36 0.32,-0.52 0.01,-0.13 0,-0.27 -0.01,-0.39 -0.64,-1.14 -0.5,-2.61 0.46,-3.6 1.16,-1.2 3.08,-1.23 4.28,-0.07 1.69,1.64 1.38,4.77 1.11,5.84 -0.2,0.84 -0.54,1.45 -0.92,1.89 -1.08,2.11 -3.47,2.68 -4.97,3.03 -0.52,0.13 -1.36,0.33 -1.68,0.51 -1.13,2.54 -3.16,4.13 -4.99,5.43 -2.08,1.5 -4.45,2.1 -6.84,2.1z"/>
  </g>
  <path class="fil1" d="M255.97 193.39c-1.22,0 -2.32,-0.19 -3.17,-0.64l-0.27 -0.14c-1.48,-0.77 -2.06,-2.6 -1.28,-4.08 0.77,-1.49 2.6,-2.05 4.08,-1.29l0.27 0.15c1.48,0.37 7.63,-1.64 8.85,-2.81 2.12,-2.55 1.34,-6.88 0.66,-10.7l-0.15 -0.78c-0.41,-2.34 -1.06,-4.21 -1.69,-6.01 -1.16,-3.33 -2.37,-6.77 -1.88,-12.37 0.3,-3.46 -0.13,-4.81 -0.34,-5.23 -1.58,0.23 -5.23,3.69 -5.91,5.36 -0.06,1.44 -1.15,2.68 -2.63,2.87 -1.67,0.22 -3.18,-0.96 -3.4,-2.61 -0.44,-3.44 4.37,-8.15 7.05,-9.9 3.81,-2.5 6.45,-1.93 8.01,-1 4,2.39 3.44,8.9 3.25,11.04 -0.37,4.3 0.48,6.74 1.57,9.84 0.67,1.94 1.44,4.14 1.94,6.95l0.14 0.77c0.82,4.61 1.96,10.93 -2.02,15.7 -1.7,2.05 -8.35,4.88 -13.08,4.88z"/>
  <path class="fil1" d="M258.2 180.79c-0.67,0 -1.34,-0.22 -1.9,-0.68 -1.19,-0.96 -1.46,-2.63 -0.69,-3.91 0.15,-0.55 0.26,-1.93 0.21,-2.41 -0.32,-2.26 -0.64,-3.55 -0.92,-4.69 -0.6,-2.34 -0.95,-4.02 -0.76,-8.81 0.07,-1.67 1.41,-2.91 3.15,-2.9 1.67,0.06 2.97,1.47 2.9,3.14 -0.16,4.16 0.12,5.26 0.58,7.09 0.3,1.23 0.69,2.76 1.04,5.36 0.01,0.05 0.41,4.63 -1.25,6.68 -0.6,0.74 -1.48,1.13 -2.36,1.13z"/>
  <path class="fil1" d="M201.34 177.06c-0.44,0 -0.87,-0.14 -1.24,-0.43 -5.64,-4.38 -7.7,-8.31 -10.07,-12.85 -0.88,-1.67 -1.78,-3.39 -2.94,-5.3 -0.58,-0.95 -0.28,-2.19 0.67,-2.77 0.95,-0.58 2.2,-0.28 2.78,0.67 1.22,2.02 2.16,3.8 3.06,5.53 2.25,4.29 4.03,7.69 8.98,11.54 0.88,0.68 1.04,1.95 0.35,2.83 -0.39,0.51 -0.99,0.78 -1.59,0.78z"/>
  <path class="fil1" d="M164.74 182.14c-0.51,0 -1.02,-0.19 -1.42,-0.59 -0.79,-0.78 -0.79,-2.06 -0.01,-2.85 3.3,-3.32 6.23,-13.21 6.79,-20.01 0.09,-1.11 1.06,-1.94 2.18,-1.84 1.11,0.09 1.94,1.07 1.84,2.18 -0.54,6.58 -3.37,17.91 -7.94,22.52 -0.4,0.39 -0.92,0.59 -1.44,0.59z"/>
  <path class="fil1" d="M110.25 214.38c-0.62,0 -1.24,-0.08 -1.86,-0.23 -3.5,-0.85 -6.72,-3.99 -9.84,-9.59 -0.45,-0.82 -0.84,-1.5 -1.17,-2.09 -1.97,-3.45 -2.33,-4.17 -3.58,-9.27 -0.88,-3.6 -0.94,-7.12 -1,-10.22 -0.04,-2.63 -0.09,-5.12 -0.66,-6.78 -0.8,-2.31 -1,-4.1 -1.18,-5.68 -0.08,-0.71 -0.16,-1.41 -0.31,-2.17 -0.17,-0.9 0.07,-1.82 0.66,-2.52 4.26,-5.05 10.8,-1.67 14.31,0.16 0.54,0.28 1.04,0.53 1.46,0.73 1.52,0.69 2.2,2.48 1.51,4 -0.7,1.53 -2.49,2.2 -4.01,1.51 -0.51,-0.23 -1.1,-0.53 -1.75,-0.87 -2.16,-1.12 -4.48,-2.24 -5.92,-2.09 0.02,0.19 0.04,0.38 0.06,0.57 0.17,1.45 0.31,2.7 0.89,4.39 0.89,2.56 0.94,5.51 1,8.64 0.05,2.92 0.11,5.95 0.83,8.9 1.08,4.42 1.22,4.67 2.95,7.71 0.34,0.6 0.74,1.29 1.2,2.13 3.03,5.43 5.2,6.47 5.99,6.66 0.38,0.09 0.87,0.12 1.61,-0.37 0.3,-0.19 0.57,-0.36 0.81,-0.49 0.06,-1.37 1.05,-2.57 2.45,-2.85 1.64,-0.32 3.23,0.75 3.55,2.39 0.54,2.74 -0.18,4.32 -2.47,5.45 -0.26,0.13 -0.59,0.29 -1.01,0.56 -1.42,0.94 -2.96,1.42 -4.52,1.42z"/>
  <path class="fil1" d="M105.57 199.04c-1.67,0 -3.03,-1.36 -3.03,-3.03 0,-3.58 -1.41,-11.51 -2.49,-12.92 -1.01,-1.33 -0.75,-3.23 0.58,-4.24 1.33,-1.02 3.23,-0.76 4.24,0.57 2.61,3.42 3.73,13.77 3.73,16.59 0,1.67 -1.36,3.03 -3.03,3.03z"/>
  <path class="fil1" d="M219.89 78.16c-1.93,0 -4.39,0.42 -7.91,1.01l-1.09 0.19c-1.23,0.2 -2.54,0.43 -3.86,0.66 -4.73,0.82 -9.19,1.59 -11.34,1.73 -7.22,0.45 -14.05,0.47 -20.65,0.49 -10.94,0.03 -21.27,0.06 -33.22,1.87 -2.67,0.41 -5.15,0.69 -7.54,0.97 -10.86,1.24 -17.42,1.99 -22.53,11.75 -1.22,2.34 -1.69,12.22 -2.07,20.15 -0.11,2.31 -0.22,4.64 -0.35,6.91 -0.76,13.46 0.13,21.4 2.04,31.35 0.4,2.06 1.06,4.03 1.82,6.31 0.88,2.6 1.86,5.55 2.68,9.3 1.12,5.15 1.9,9.71 2.66,14.12 1.24,7.27 2.42,14.13 4.95,22.77l0 0c6.73,23.02 18.37,41.44 32.76,51.87 15.71,11.38 33.93,15.43 47.56,10.56 16.09,-5.74 35.26,-22.27 39.09,-41.56l0.83 -4.12c1.47,-7.25 3.14,-15.46 3.19,-20.02 0.05,-3.96 0.01,-7.94 -0.03,-11.8 -0.03,-2.51 -0.06,-4.96 -0.06,-7.3 0,-2.15 0.05,-4.47 0.11,-6.89 0.16,-7.23 0.34,-15.43 -0.78,-23.15 -0.21,-1.42 -0.87,-2.71 -1.63,-4.21 -0.92,-1.81 -1.96,-3.85 -2.3,-6.43 -0.62,-4.7 -0.6,-9.61 -0.58,-14.36 0.02,-5.11 0.04,-9.94 -0.76,-13.62 -2.44,-11.11 -5.38,-22.75 -12.16,-32.26 -3.4,-4.76 -5.13,-6.29 -8.83,-6.29zm-28.39 200.07c-12.58,0 -26.47,-4.77 -38.81,-13.71 -15.48,-11.22 -27.91,-30.78 -35.02,-55.08 -2.63,-8.98 -3.84,-16 -5.11,-23.44 -0.75,-4.35 -1.52,-8.84 -2.61,-13.86 -0.74,-3.43 -1.63,-6.09 -2.5,-8.67 -0.8,-2.38 -1.55,-4.63 -2.02,-7.09 -1.96,-10.18 -2.94,-18.82 -2.14,-32.83 0.12,-2.25 0.23,-4.57 0.34,-6.86 0.57,-11.87 1.01,-19.32 2.76,-22.66 6.59,-12.61 16.14,-13.71 27.2,-14.97 2.34,-0.27 4.76,-0.54 7.33,-0.93 12.39,-1.89 23.42,-1.92 34.1,-1.95 6.52,-0.02 13.26,-0.04 20.29,-0.48 1.82,-0.11 6.53,-0.93 10.68,-1.65 1.33,-0.23 2.65,-0.45 3.89,-0.66l1.09 -0.19c10.51,-1.78 15.3,-2.59 22.68,7.74 7.45,10.44 10.58,22.76 13.14,34.48 0.95,4.33 0.93,9.48 0.91,14.93 -0.02,4.55 -0.04,9.25 0.53,13.55 0.2,1.55 0.89,2.9 1.69,4.47 0.88,1.73 1.87,3.68 2.22,6.09 1.19,8.22 1.01,16.68 0.84,24.15 -0.05,2.38 -0.1,4.65 -0.1,6.76 0,2.32 0.03,4.75 0.05,7.24 0.04,3.89 0.08,7.9 0.04,11.93 -0.06,5.13 -1.72,13.28 -3.31,21.15l-0.83 4.1c-4.32,21.72 -24.9,39.62 -42.99,46.08 -4.44,1.59 -9.29,2.36 -14.34,2.36z"/>
  <path class="fil1" d="M93.62 170.81c-1.46,0 -2.74,-1.06 -2.98,-2.55 -0.12,-0.56 -1.01,-2.45 -1.73,-3.97 -1.69,-3.59 -4,-8.51 -5.11,-13.37 -1.32,-5.75 -4.08,-34.95 -3.11,-42.38 0.66,-4.94 2.67,-14.28 4.69,-21.71 3.01,-11.07 7.95,-17.72 16.01,-26.1 9.58,-9.95 25.37,-22.08 37.41,-25.2 13.04,-3.37 31.54,-5.74 46.03,-5.91 10.97,-0.12 26.18,2.54 35.73,8.75 1.48,0.96 2.67,1.72 3.72,2.38 3.14,1.99 5.04,3.19 9.38,6.59 13.66,10.75 18.62,20.31 24,36.45 2.68,8.05 4.38,15.46 6.03,22.64 1.1,4.77 2.23,9.71 3.64,14.74 1.36,4.88 1.13,18.27 -0.88,23.39 -0.61,1.56 -2.37,2.32 -3.92,1.71 -1.56,-0.61 -2.33,-2.37 -1.71,-3.92 1.47,-3.77 1.7,-15.88 0.68,-19.55 -1.45,-5.16 -2.6,-10.17 -3.71,-15.02 -1.62,-7.03 -3.28,-14.3 -5.88,-22.08 -5.09,-15.27 -9.47,-23.75 -21.99,-33.6 -4.1,-3.21 -5.9,-4.35 -8.88,-6.23 -1.07,-0.68 -2.28,-1.45 -3.79,-2.43 -8.43,-5.49 -22.77,-7.87 -32.36,-7.76 -14.04,0.16 -31.96,2.46 -44.57,5.72 -10.42,2.69 -25.27,13.87 -34.56,23.53 -8.5,8.83 -12.17,14.75 -14.54,23.48 -1.96,7.22 -3.9,16.21 -4.52,20.91 -0.86,6.57 1.8,35.02 3,40.24 0.97,4.23 3.12,8.81 4.7,12.16 1.32,2.82 2.02,4.35 2.22,5.59 0.26,1.65 -0.87,3.2 -2.52,3.46 -0.16,0.03 -0.32,0.04 -0.48,0.04z"/>
  <g>
   <path class="fil1" d="M135.76 239.79l0 0 0 0zm52.11 59.19c-7.2,0 -9.53,-0.93 -11.64,-2.05 -0.62,-0.32 -0.93,-0.49 -1.61,-0.6 -2.87,-0.47 -7.87,-4.24 -17.8,-12.12 -2.11,-1.68 -4.18,-3.32 -6.04,-4.75 -1.47,-1.13 -2.97,-2.17 -4.42,-3.17 -5.34,-3.69 -10.86,-7.51 -13.65,-15.49 -2.53,-7.21 -4.48,-20.62 -1.99,-24.36 0.92,-1.39 2.8,-1.77 4.19,-0.84 1.35,0.89 1.75,2.67 0.94,4.05 -0.6,1.81 -0.07,11.59 2.57,19.15 2.15,6.12 6.22,8.94 11.39,12.51 1.51,1.04 3.07,2.12 4.66,3.34 1.89,1.46 3.98,3.12 6.12,4.81 5.2,4.14 13.07,10.38 15.06,10.9 1.62,0.27 2.62,0.8 3.42,1.23 1.12,0.59 2.52,1.33 8.8,1.33 6.1,0 9.46,-1.7 13.18,-4.64 0.89,-0.7 1.77,-1.44 2.68,-2.22 1.95,-1.64 4.15,-3.5 6.87,-5.34l2.8 -1.89c10.39,-7.01 13.53,-9.13 21.6,-20.86 4.09,-5.95 5.52,-8.71 5.7,-9.34 0.19,-0.66 0.44,-1.4 0.7,-2.18 1.17,-3.53 2.77,-8.35 0.84,-11.19 -0.94,-1.38 -0.58,-3.26 0.8,-4.2 1.38,-0.95 3.26,-0.59 4.2,0.79 3.62,5.32 1.39,12.05 -0.1,16.51 -0.23,0.71 -0.45,1.37 -0.63,1.96 -0.53,1.83 -2.73,5.56 -6.53,11.08 -8.72,12.68 -12.66,15.34 -23.2,22.45l-2.78 1.88c-2.46,1.66 -4.44,3.34 -6.36,4.96 -0.97,0.82 -1.9,1.6 -2.83,2.34 -4.53,3.57 -9.14,5.95 -16.94,5.95z"/>
  </g>
  <path class="fil1" d="M285.9 267.91c-0.62,0 -1.25,-0.19 -1.78,-0.58 -0.97,-0.71 -2.96,-1.95 -5.25,-3.39 -11.79,-7.37 -22.57,-14.49 -24.84,-20.46 -0.75,-1.97 -4.73,-6.04 -7.11,-8.47 -3.11,-3.19 -4.05,-4.16 -4.09,-5.75 -0.03,-1.67 1.3,-3.06 2.97,-3.09 0.02,0 0.04,0 0.06,0 1.25,0 2.33,0.76 2.79,1.84 0.42,0.54 1.62,1.76 2.61,2.77 3.95,4.05 7.32,7.64 8.43,10.54 1.74,4.57 15.69,13.3 22.39,17.49 2.49,1.56 4.46,2.79 5.61,3.63 1.35,0.98 1.64,2.88 0.66,4.23 -0.6,0.81 -1.52,1.24 -2.45,1.24z"/>
  <path class="fil1" d="M81.87 285.78c-1.31,0 -2.52,-0.86 -2.9,-2.18 -0.47,-1.61 0.45,-3.29 2.05,-3.76 1.96,-0.57 10.77,-4.83 16.04,-7.38 2.66,-1.29 4.88,-2.36 5.95,-2.85 12.09,-5.44 15.79,-9.62 19.37,-13.67 2.38,-2.68 4.83,-5.46 9.43,-8.08 1.46,-0.82 3.31,-0.32 4.13,1.13 0.83,1.45 0.32,3.3 -1.13,4.13 -3.73,2.13 -5.66,4.31 -7.89,6.84 -3.82,4.31 -8.15,9.2 -21.42,15.18 -1.05,0.47 -3.21,1.52 -5.8,2.77 -8.24,3.98 -14.72,7.08 -16.98,7.74 -0.28,0.09 -0.57,0.13 -0.85,0.13z"/>
  <path class="fil1" d="M153.59 331.09c-1.29,0 -2.39,-0.81 -2.83,-1.96 -0.08,-0.18 -0.29,-0.65 -0.6,-1.35 -10.86,-24.47 -17.35,-41.01 -18.76,-47.84 -4.67,-22.69 -2.01,-26.47 -1.13,-27.71 0.76,-1.1 1.87,-1.8 3.11,-1.98 1.66,-0.24 3.19,0.92 3.43,2.57 0.19,1.35 -0.54,2.62 -1.71,3.17 -0.65,1.92 -0.56,9.13 2.23,22.73 0.76,3.66 4.15,14.58 18.37,46.6 0.92,2.08 0.92,2.08 0.92,2.74 0,1.67 -1.35,3.03 -3.03,3.03z"/>
  <path class="fil1" d="M227.72 329.92c-1.44,0 -2.72,-1.04 -2.98,-2.52 -0.22,-1.29 -0.22,-1.29 8.15,-14.23 2.96,-4.59 8.11,-12.51 9.25,-13.99 7.07,-9.17 10.27,-26.41 10.25,-38.55 -0.01,-12.77 -2.59,-23.47 -6.41,-26.62 -1.29,-1.07 -1.48,-2.98 -0.41,-4.27 1.06,-1.29 2.97,-1.47 4.26,-0.4 7.97,6.57 8.61,25.61 8.62,31.29 0.02,13.57 -3.54,31.9 -11.51,42.25 -1.71,2.21 -15.61,23.87 -16.53,25.4 -0.42,0.81 -1.2,1.43 -2.17,1.59 -0.18,0.03 -0.35,0.05 -0.52,0.05z"/>
  <path class="fil1" d="M143.76 218.48c-0.65,0 -1.28,-0.3 -1.67,-0.88 -0.63,-0.91 -1.38,-2.13 -2.22,-3.51 -2.55,-4.15 -6.81,-11.1 -9.89,-12 -1.07,-0.32 -1.68,-1.44 -1.37,-2.5 0.32,-1.08 1.45,-1.68 2.51,-1.37 4.22,1.24 8.02,6.96 12.19,13.76 0.8,1.31 1.52,2.47 2.11,3.34 0.63,0.92 0.39,2.18 -0.52,2.81 -0.35,0.24 -0.75,0.35 -1.14,0.35z"/>
  <path class="fil1" d="M233.86 207.61c-0.2,0 -0.4,-0.03 -0.59,-0.09 -1.07,-0.33 -1.67,-1.46 -1.34,-2.52 0.2,-0.86 2.43,-12.5 2.53,-13.54 0.15,-4.08 1.42,-6.11 2.26,-7.46 0.39,-0.63 0.56,-0.93 0.56,-1.13 -0.04,-1.11 0.84,-2.05 1.95,-2.08 1.11,-0.07 2.05,0.84 2.08,1.95 0.05,1.45 -0.59,2.48 -1.16,3.39 -0.73,1.17 -1.55,2.48 -1.66,5.53 -0.05,1.05 -2.51,13.9 -2.7,14.52 -0.27,0.87 -1.07,1.43 -1.93,1.43z"/>
  <path class="fil1" d="M164.98 235.93c-1.47,0 -2.76,-1.07 -2.99,-2.57 -0.25,-1.65 0.89,-3.2 2.54,-3.45 3.39,-0.51 6.64,-2 9.5,-3.31 3.6,-1.64 6.69,-3.07 9.68,-2.48 0.9,0.17 1.8,0.42 2.68,0.66 2.47,0.69 3.64,0.92 4.47,0.28 5.32,-4.1 11.1,-2.52 16.21,-1.12 2.41,0.66 4.68,1.28 6.73,1.28l2.58 0c1.67,0 3.03,1.35 3.03,3.03 0,1.67 -1.36,3.03 -3.03,3.03l-2.58 0c-2.86,0 -5.64,-0.77 -8.33,-1.5 -4.94,-1.35 -8.12,-2.07 -10.91,0.07 -3.33,2.57 -7.07,1.53 -9.8,0.77 -0.72,-0.21 -1.46,-0.42 -2.2,-0.56 -1.09,-0.21 -3.69,0.99 -6.01,2.05 -3.06,1.4 -6.88,3.15 -11.11,3.79 -0.15,0.02 -0.31,0.03 -0.46,0.03z"/>
  <path class="fil1" d="M189.88 247.79c-4.36,0 -8.44,-0.46 -11.28,-1.27 -1.62,-0.47 -2.56,-0.85 -3.39,-1.19 -0.66,-0.26 -1.18,-0.47 -2.01,-0.71 -1.61,-0.47 -2.53,-2.15 -2.06,-3.76 0.47,-1.61 2.15,-2.52 3.76,-2.06 1.12,0.33 1.86,0.63 2.57,0.92 0.77,0.31 1.49,0.6 2.81,0.98 6.9,1.98 21.49,1.12 25.95,-2.31 1.5,-1.15 4.32,-3 6.38,-2.46 1.62,0.42 2.59,2.08 2.17,3.69 -0.33,1.28 -1.43,2.15 -2.67,2.26 -0.59,0.26 -1.81,1.02 -2.19,1.31 -4.21,3.24 -12.54,4.6 -20.04,4.6z"/>
  <path class="fil1" d="M211.91 169.02c-3.43,0 -6.68,-0.54 -8.92,-1.46 -1.03,-0.42 -1.52,-1.6 -1.09,-2.63 0.42,-1.03 1.6,-1.52 2.63,-1.1 4.46,1.84 14.76,1.69 18.55,-1.96 0.81,-0.77 2.08,-0.74 2.86,0.06 0.77,0.8 0.75,2.08 -0.06,2.85 -3.11,3 -8.75,4.24 -13.97,4.24z"/>
  <path class="fil1" d="M142.21 169.25c0,0 0.01,0.01 0.01,0.01 0,0 -0.01,-0.01 -0.01,-0.01zm10.29 5.45c-2.26,0 -4.45,-0.38 -6.87,-0.81 -1.23,-0.21 -2.53,-0.44 -3.97,-0.63 -0.36,-0.05 -0.64,-0.19 -0.79,-0.27 -1.11,0.08 -2,-0.8 -2.06,-1.91 -0.05,-1.11 0.86,-2.06 1.97,-2.11 0.81,-0.05 1.38,0.17 1.71,0.32 1.39,0.2 2.65,0.42 3.84,0.63 4.91,0.86 8.15,1.43 13.22,-1.01 1.01,-0.49 2.22,-0.06 2.7,0.94 0.48,1 0.06,2.21 -0.94,2.7 -3.38,1.62 -6.15,2.15 -8.81,2.15z"/>
  <path class="fil2" d="M150.02 158.62c3,-0.14 5.54,2.18 5.69,5.18 0.14,3 -2.17,5.54 -5.17,5.69 -3,0.14 -5.55,-2.18 -5.69,-5.18 -0.14,-3 2.17,-5.54 5.17,-5.69z"/>
  <path class="fil2" d="M214.88 151.03c3,-0.15 5.55,2.17 5.69,5.17 0.14,3 -2.17,5.54 -5.18,5.69 -2.99,0.14 -5.54,-2.18 -5.68,-5.18 -0.14,-3 2.17,-5.54 5.17,-5.68z"/>
  <path class="fil1" d="M117.75 63.36c-0.98,0 -1.84,-0.71 -1.99,-1.71 -0.25,-1.58 -0.81,-2.53 -1.41,-3.54 -0.73,-1.24 -1.57,-2.65 -1.31,-4.75 0.14,-1.1 1.14,-1.89 2.26,-1.75 1.1,0.14 1.89,1.15 1.75,2.25 -0.09,0.7 0.16,1.15 0.77,2.19 0.66,1.11 1.56,2.63 1.92,4.99 0.18,1.1 -0.58,2.13 -1.68,2.3 -0.11,0.02 -0.21,0.02 -0.31,0.02z"/>
  <path class="fil1" d="M124.38 85.44c-0.56,0 -1.12,-0.23 -1.52,-0.69 -0.61,-0.7 -0.65,-1.72 -0.15,-2.46 -0.05,-0.14 -0.13,-0.3 -0.18,-0.43 -0.45,-1.05 -1.21,-2.81 -0.26,-4.76 0.49,-1 1.7,-1.42 2.7,-0.93 1,0.49 1.42,1.7 0.93,2.7 -0.12,0.24 -0.01,0.57 0.34,1.39 0.43,0.99 1.32,3.06 -0.53,4.68 -0.38,0.34 -0.85,0.5 -1.33,0.5z"/>
  <path class="fil1" d="M140.01 81.7c-0.17,0 -0.33,-0.02 -0.49,-0.06 -1.09,-0.27 -1.75,-1.36 -1.47,-2.44 0.93,-3.74 0.42,-3.89 -0.96,-4.28 -1.71,-0.48 -4.88,-1.37 -4.46,-6.64 0.09,-1.12 1.05,-1.93 2.18,-1.86 1.11,0.09 1.94,1.07 1.85,2.18 -0.16,1.96 0.06,2.03 1.52,2.44 3.4,0.96 5.35,2.87 3.78,9.13 -0.23,0.92 -1.05,1.53 -1.95,1.53z"/>
  <path class="fil1" d="M153.65 79.87c-0.32,0 -0.64,-0.07 -0.94,-0.23 -0.99,-0.52 -1.36,-1.74 -0.84,-2.73 0.91,-1.73 0.87,-2.21 0.87,-2.26 -0.07,-0.13 -0.54,-0.53 -0.88,-0.83 -1.13,-0.99 -2.84,-2.48 -4.36,-5.58 -0.49,-1 -0.08,-2.21 0.92,-2.7 1.01,-0.49 2.22,-0.07 2.71,0.92 1.15,2.37 2.39,3.45 3.39,4.32 2.44,2.13 3.15,3.79 0.92,8.02 -0.37,0.68 -1.07,1.07 -1.79,1.07z"/>
  <path class="fil1" d="M166.71 78.46c-0.53,0 -1.07,-0.21 -1.47,-0.64 -0.76,-0.81 -0.72,-2.09 0.09,-2.85 1.11,-1.04 0.99,-1.44 0.23,-3.19 -0.84,-1.92 -2.1,-4.83 0.83,-8.3 0.72,-0.85 2,-0.96 2.85,-0.24 0.85,0.72 0.96,1.99 0.24,2.84 -1.32,1.56 -0.95,2.41 -0.22,4.09 0.77,1.77 2.05,4.72 -1.16,7.74 -0.39,0.37 -0.89,0.55 -1.39,0.55z"/>
  <path class="fil1" d="M180.07 65.23c-0.98,0 -1.84,-0.71 -2,-1.71 -0.32,-2.11 -0.73,-2.96 -1.07,-3.64 -0.76,-1.57 -1.02,-2.61 -0.27,-5.96 0.25,-1.08 1.33,-1.77 2.41,-1.52 1.09,0.24 1.78,1.32 1.53,2.41 -0.51,2.32 -0.4,2.57 -0.04,3.31 0.41,0.82 1.02,2.07 1.43,4.78 0.17,1.1 -0.58,2.13 -1.68,2.31 -0.11,0.01 -0.21,0.02 -0.31,0.02z"/>
  <path class="fil1" d="M187.27 79.49c-0.31,0 -0.62,-0.07 -0.91,-0.22 -0.99,-0.5 -1.39,-1.72 -0.89,-2.71l0.26 -0.52c0.74,-1.46 1.38,-2.73 1.41,-3.07 -0.02,-0.01 -0.21,-0.36 -0.37,-0.64 -0.22,-0.39 -0.49,-0.87 -0.79,-1.49 -0.42,-0.86 -0.92,-2.07 -1.17,-3.9 -0.15,-1.1 0.63,-2.12 1.73,-2.27 1.13,-0.15 2.12,0.63 2.27,1.73 0.17,1.25 0.5,2.05 0.8,2.66 0.26,0.55 0.5,0.96 0.69,1.3 1.48,2.66 1.06,3.49 -0.97,7.5l-0.26 0.52c-0.35,0.7 -1.06,1.11 -1.8,1.11z"/>
  <path class="fil1" d="M200.31 63.22c-0.22,0 -0.44,-0.03 -0.66,-0.11 -1.06,-0.37 -1.61,-1.52 -1.24,-2.57 0.19,-0.55 -0.39,-1.77 -0.86,-2.74 -0.65,-1.39 -1.4,-2.97 -1.22,-4.65 0.27,-2.37 1.62,-4.49 3.53,-5.54 0.98,-0.53 2.21,-0.17 2.74,0.81 0.53,0.98 0.18,2.2 -0.8,2.74 -0.63,0.34 -1.32,1.23 -1.45,2.44 -0.07,0.54 0.42,1.56 0.85,2.46 0.78,1.65 1.75,3.7 1.02,5.81 -0.29,0.83 -1.07,1.35 -1.91,1.35z"/>
  <path class="fil1" d="M202.57 77.58c-0.56,0 -1.13,-0.23 -1.52,-0.69 -1.83,-2.09 -2.69,-4.57 -2.35,-6.8 0.28,-1.85 1.34,-3.38 3.06,-4.44 0.95,-0.58 2.19,-0.28 2.77,0.67 0.59,0.95 0.29,2.19 -0.66,2.78 -0.69,0.42 -1.08,0.94 -1.18,1.61 -0.16,1.03 0.37,2.35 1.4,3.53 0.73,0.84 0.64,2.11 -0.2,2.84 -0.38,0.34 -0.85,0.5 -1.32,0.5z"/>
  <path class="fil1" d="M222.1 65.69c-0.3,0 -0.59,-0.07 -0.88,-0.2 -1,-0.48 -1.42,-1.69 -0.94,-2.69 0.69,-1.45 0.83,-1.79 0.96,-2.12l0.13 -0.31c0.18,-0.41 0.44,-1 0.14,-2.95 -0.17,-1.1 0.58,-2.13 1.68,-2.3 1.12,-0.17 2.13,0.58 2.3,1.69 0.43,2.73 0.07,4.04 -0.37,5.06l-0.14 0.33c-0.14,0.36 -0.29,0.74 -1.06,2.34 -0.35,0.72 -1.07,1.15 -1.82,1.15z"/>
  <path class="fil1" d="M228.75 79.45l-0.04 0c-1.11,-0.02 -2,-0.94 -1.98,-2.05 0.05,-2.89 1.45,-4.18 2.81,-5.42 0.89,-0.81 1.89,-1.74 2.88,-3.43 0.55,-0.96 1.79,-1.29 2.75,-0.73 0.97,0.56 1.3,1.79 0.74,2.76 -1.3,2.22 -2.65,3.47 -3.64,4.37 -1.2,1.1 -1.48,1.4 -1.5,2.52 -0.02,1.1 -0.92,1.98 -2.02,1.98z"/>
  <path class="fil1" d="M244.89 97.27c-0.66,0 -1.31,-0.33 -1.7,-0.93 -0.6,-0.93 -0.33,-2.18 0.61,-2.78 1.02,-0.66 1.61,-1.52 1.74,-2.54 0.2,-1.52 -0.57,-3.39 -2.05,-5.02 -0.75,-0.82 -0.69,-2.1 0.13,-2.85 0.82,-0.75 2.1,-0.69 2.85,0.13 2.31,2.53 3.43,5.54 3.08,8.26 -0.29,2.23 -1.53,4.1 -3.57,5.41 -0.34,0.22 -0.71,0.32 -1.09,0.32z"/>
  <path class="fil1" d="M159.63 59.4c-0.98,0 -1.84,-0.72 -1.99,-1.71 -0.33,-2.11 -0.74,-2.96 -1.07,-3.64 -0.77,-1.57 -1.02,-2.61 -0.27,-5.96 0.24,-1.09 1.32,-1.77 2.4,-1.53 1.09,0.25 1.78,1.32 1.54,2.41 -0.52,2.32 -0.4,2.57 -0.04,3.31 0.4,0.83 1.01,2.08 1.43,4.79 0.17,1.1 -0.59,2.13 -1.69,2.3 -0.11,0.02 -0.21,0.03 -0.31,0.03z"/>
  <path class="fil1" d="M138.48 47.98c-0.98,0 -1.84,-0.71 -1.99,-1.71 -0.1,-0.62 -0.25,-1.22 -0.39,-1.81 -0.33,-1.35 -0.7,-2.89 -0.54,-4.59 0.11,-1.11 1.08,-1.94 2.21,-1.82 1.11,0.11 1.92,1.1 1.81,2.21 -0.1,1.02 0.15,2.05 0.44,3.25 0.18,0.7 0.34,1.41 0.46,2.14 0.17,1.1 -0.59,2.13 -1.69,2.3 -0.1,0.02 -0.21,0.03 -0.31,0.03z"/>
  <path class="fil1" d="M213.03 73.76c-0.11,0 -0.23,-0.01 -0.34,-0.03 -1.1,-0.19 -1.84,-1.24 -1.65,-2.34 0.27,-1.59 0.54,-2.62 0.72,-3.29 0.23,-0.86 0.22,-0.89 0.18,-1.09 -0.03,-0.13 -0.06,-0.27 -0.09,-0.43 -0.11,-0.59 -0.24,-1.33 -1.74,-2.83 -0.79,-0.79 -0.79,-2.07 0,-2.86 0.79,-0.78 2.07,-0.78 2.86,0.01 2.2,2.2 2.62,3.71 2.85,4.96l0.05 0.22c0.28,1.21 0.07,2.02 -0.2,3.05 -0.17,0.65 -0.41,1.53 -0.65,2.95 -0.17,0.98 -1.03,1.68 -1.99,1.68z"/>
  <path class="fil1" d="M102.26 85.84c-1.06,0 -1.94,-0.82 -2.01,-1.89 -0.26,-3.84 -0.81,-3.82 -2.23,-3.77 -1.77,0.07 -5.06,0.19 -6.28,-4.96 -0.25,-1.08 0.42,-2.17 1.5,-2.43 1.09,-0.25 2.18,0.42 2.43,1.51 0.45,1.91 0.69,1.91 2.2,1.85 3.54,-0.13 5.97,1.1 6.4,7.53 0.08,1.11 -0.76,2.08 -1.87,2.15 -0.05,0 -0.1,0.01 -0.14,0.01z"/>
  <path class="fil1" d="M91.22 120.74c-1.05,0 -1.94,-0.81 -2.01,-1.88 -0.26,-3.85 -0.81,-3.82 -2.22,-3.77 -1.79,0.07 -5.07,0.19 -6.28,-4.96 -0.26,-1.09 0.41,-2.17 1.5,-2.43 1.08,-0.25 2.17,0.42 2.43,1.5 0.45,1.92 0.68,1.91 2.19,1.86 3.54,-0.15 5.97,1.09 6.41,7.53 0.07,1.11 -0.77,2.07 -1.88,2.15 -0.05,0 -0.09,0 -0.14,0z"/>
  <path class="fil1" d="M95.01 99.63c-0.28,0 -0.56,-0.06 -0.83,-0.18 -1.95,-0.87 -2.88,-0.99 -3.63,-1.08 -1.74,-0.22 -2.75,-0.57 -5.15,-3.02 -0.78,-0.8 -0.76,-2.08 0.03,-2.86 0.8,-0.78 2.08,-0.76 2.86,0.03 1.66,1.7 1.94,1.74 2.75,1.84 0.92,0.11 2.3,0.28 4.8,1.41 1.01,0.45 1.47,1.65 1.01,2.67 -0.34,0.74 -1.07,1.19 -1.84,1.19z"/>
  <path class="fil1" d="M261.44 117.47c-1.05,0 -1.94,-0.81 -2.01,-1.88 -0.26,-3.84 -0.78,-3.83 -2.23,-3.77 -1.76,0.07 -5.06,0.19 -6.28,-4.96 -0.25,-1.08 0.42,-2.17 1.5,-2.43 1.09,-0.25 2.18,0.42 2.43,1.5 0.45,1.92 0.69,1.92 2.2,1.86 3.54,-0.13 5.97,1.1 6.4,7.53 0.08,1.11 -0.76,2.07 -1.87,2.15 -0.05,0 -0.1,0 -0.14,0z"/>
  <path class="fil1" d="M153.59 331.09c-0.43,0 -0.86,-0.1 -1.28,-0.29 -1.51,-0.71 -2.16,-2.51 -1.46,-4.02 1.53,-3.27 1.78,-8.3 1.99,-12.73 0.32,-6.74 0.6,-12.55 5.26,-13.97 0.97,-0.29 5.48,-2.4 8.78,-3.93 2.34,-1.09 4.01,-1.87 5.22,-2.41 -0.19,-1.44 0.68,-2.85 2.11,-3.29 1.59,-0.5 3.3,0.4 3.79,2l0.67 2.18c0.3,0.97 0.09,2.03 -0.56,2.82 -0.44,0.54 -1.05,0.89 -1.71,1.03 -0.91,0.34 -4.39,1.96 -6.96,3.16 -4.9,2.28 -8.04,3.73 -9.41,4.19 -0.78,1.04 -1,5.52 -1.14,8.51 -0.24,4.99 -0.51,10.65 -2.55,15 -0.52,1.1 -1.61,1.75 -2.75,1.75z"/>
  <path class="fil1" d="M227.73 329.92c-0.13,0 -0.26,-0.01 -0.39,-0.03 -1.66,-0.21 -2.83,-1.73 -2.62,-3.39 0.67,-5.18 1.56,-10.71 3.55,-16.07 0.55,-1.51 1.34,-4.22 0.36,-5.52 -1.86,-2.45 -9.66,-1.78 -14.33,-1.39 -2.25,0.19 -4.19,0.36 -5.75,0.3 -4.4,-0.16 -7.47,0.19 -9.94,0.48 -5,0.57 -8.6,0.99 -15.39,-3.57 -1.38,-0.94 -1.76,-2.82 -0.82,-4.21 0.93,-1.38 2.81,-1.75 4.2,-0.82 4.94,3.32 6.67,3.12 11.32,2.58 2.67,-0.31 5.99,-0.69 10.85,-0.51 1.2,0.03 3.05,-0.11 5.02,-0.28 7.03,-0.6 15.78,-1.35 19.66,3.76 2.09,2.74 2.25,6.54 0.49,11.28 -1.77,4.79 -2.59,9.92 -3.21,14.75 -0.2,1.52 -1.5,2.64 -3,2.64z"/>
  <path class="fil1" d="M180.17 330.61c-1.67,0 -3.03,-1.35 -3.03,-3.02 0,-13.78 -2.12,-14.94 -5.65,-16.87 -2.53,-1.38 -6.01,-3.28 -9.42,-8.53 -0.91,-1.4 -0.52,-3.27 0.88,-4.18 1.41,-0.92 3.28,-0.52 4.19,0.88 2.59,3.97 4.96,5.27 7.26,6.52 5.98,3.27 8.8,6.52 8.8,22.18 0,1.67 -1.36,3.02 -3.03,3.02z"/>
  <path class="fil1" d="M195.02 333.77c-1.67,0 -3.03,-1.35 -3.03,-3.02l0 -1.75c-0.01,-4.04 -0.01,-7.23 0.35,-11.47 0.58,-6.61 3.58,-9.48 6.23,-12.01 1.77,-1.69 3.3,-3.16 4.37,-5.87 0.61,-1.56 2.38,-2.32 3.93,-1.71 1.55,0.61 2.32,2.37 1.71,3.92 -1.56,3.96 -3.83,6.12 -5.83,8.04 -2.32,2.22 -3.99,3.82 -4.37,8.16 -0.35,3.97 -0.34,7.04 -0.34,10.93l0.01 1.76c0,1.67 -1.36,3.02 -3.03,3.02z"/>
 </g>
</svg>
