<?xml version="1.0" encoding="UTF-8"?>
<!DOCTYPE svg PUBLIC "-//W3C//DTD SVG 1.1//EN" "http://www.w3.org/Graphics/SVG/1.1/DTD/svg11.dtd">
<!-- Creator: CorelDRAW 2018 (64-Bit) -->
<svg xmlns="http://www.w3.org/2000/svg" xml:space="preserve" width="845px" height="845px" version="1.1" style="shape-rendering:geometricPrecision; text-rendering:geometricPrecision; image-rendering:optimizeQuality; fill-rule:evenodd; clip-rule:evenodd"
viewBox="0 0 361.04 361.04"
 xmlns:xlink="http://www.w3.org/1999/xlink">
 <defs>
  <style type="text/css">
   <![CDATA[
    .fil0 {fill:none}
    .fil2 {fill:black}
    .fil1 {fill:black;fill-rule:nonzero}
   ]]>
  </style>
 </defs>
 <g id="Слой_x0020_1">
  <metadata id="CorelCorpID_0Corel-Layer"/>
  <rect class="fil0" width="361.04" height="361.04"/>
 </g>
 <g id="_1">
  <metadata id="CorelCorpID_1Corel-Layer"/>
  <path class="fil1" d="M154.92 147.81c-1.4,0 -2.66,-0.98 -2.96,-2.41 -0.34,-1.64 0.71,-3.24 2.35,-3.58 4.13,-0.86 7.58,-1.88 11.24,-2.96 6.14,-1.8 12.48,-3.67 21.96,-4.63 4.96,-0.49 11.34,-0.66 16.98,2.38 2.74,0.66 4.65,1.24 5.76,1.74 1.52,0.69 2.19,2.48 1.51,4.01 -0.69,1.52 -2.49,2.2 -4.01,1.51 -0.28,-0.13 -1.48,-0.62 -4.93,-1.44 -0.23,-0.05 -0.58,-0.16 -0.79,-0.27 -3.5,-1.99 -7.62,-2.53 -13.92,-1.9 -8.91,0.9 -14.71,2.6 -20.85,4.41 -3.61,1.07 -7.35,2.17 -11.72,3.07 -0.21,0.05 -0.42,0.07 -0.62,0.07z"/>
  <path class="fil1" d="M128.22 150.65c-0.09,0 -0.19,-0.01 -0.28,-0.02 -1.16,-0.11 -2.83,-0.73 -6.18,-2.02 -2.4,-0.93 -5.13,-1.97 -7.77,-2.81 -7.72,-2.43 -17.63,-3.3 -19.32,-0.81 -0.94,1.38 -2.82,1.73 -4.21,0.79 -1.38,-0.94 -1.73,-2.83 -0.79,-4.21 5.33,-7.82 24.03,-2.21 26.14,-1.54 2.82,0.89 5.76,2.02 8.13,2.93 1.79,0.69 4.02,1.55 4.62,1.65 1.67,0.16 2.86,1.63 2.7,3.29 -0.14,1.57 -1.49,2.75 -3.04,2.75z"/>
  <g>
   <path class="fil1" d="M101.84 153.59l0 0 0 0zm26.54 6.25c-0.36,0 -0.72,-0.06 -1.07,-0.19 -1.74,-0.66 -3.08,-1.57 -4.27,-2.38 -1.92,-1.29 -3.44,-2.32 -6.58,-2.48 -4.09,-0.21 -7.9,1.87 -10.39,3.25 -1.75,0.96 -2.9,1.6 -4.23,1.6 -1.67,0 -3.02,-1.35 -3.02,-3.03 0,-1.55 1.16,-2.82 2.66,-3 0.34,-0.14 1.07,-0.54 1.67,-0.87 2.9,-1.61 7.79,-4.28 13.61,-4 4.83,0.24 7.52,2.06 9.67,3.52 1.05,0.71 1.95,1.32 3.02,1.72 1.57,0.59 2.35,2.34 1.76,3.91 -0.46,1.21 -1.61,1.95 -2.83,1.95z"/>
  </g>
  <path class="fil1" d="M198.82 157.82c-0.05,0 -0.1,0 -0.16,0 -2.64,-0.14 -4.39,-1.44 -5.93,-2.59 -1,-0.75 -1.96,-1.46 -3.27,-2 -4.55,-1.87 -10.92,-2.46 -13.76,0.14 -0.25,0.24 -0.5,0.38 -0.79,0.53 -3.91,2.1 -4.82,2.84 -4.97,2.97 -1.25,1.1 -3.17,0.98 -4.27,-0.27 -1.11,-1.26 -0.99,-3.17 0.27,-4.28 0.59,-0.51 1.85,-1.46 5.99,-3.69 5.08,-4.25 13.55,-3.59 19.83,-1 2.02,0.83 3.45,1.89 4.59,2.75 1.23,0.91 1.85,1.35 2.62,1.39 1.67,0.08 2.96,1.51 2.87,3.18 -0.08,1.61 -1.42,2.87 -3.02,2.87z"/>
  <path class="fil1" d="M129.32 179.35c-0.02,0.03 -0.03,0.06 -0.04,0.09 0.01,-0.03 0.03,-0.06 0.04,-0.09zm14.52 25.59c-5.21,0 -8.06,-2.09 -10.2,-3.64 -1.64,-1.2 -2.56,-1.83 -4.09,-1.94 -3.67,-0.28 -5.5,-1.98 -6.38,-3.35 -0.95,-1.48 -1.77,-4.07 -0.3,-8.05 1.12,-3.04 3.51,-5.53 5.26,-7.35 0.44,-0.45 1.03,-1.06 1.22,-1.32 0.73,-1.43 2.45,-2.05 3.93,-1.39 1.52,0.67 2.22,2.46 1.54,3.99 -0.42,0.95 -1.22,1.77 -2.32,2.92 -1.38,1.44 -3.27,3.4 -3.95,5.24 -0.58,1.57 -0.45,2.43 -0.29,2.69 0.15,0.23 0.69,0.5 1.75,0.58 3.32,0.25 5.38,1.76 7.2,3.08 2.11,1.55 3.78,2.75 7.86,2.43 2.05,-0.17 2.81,-0.84 4.08,-1.94 2.7,-2.34 5.52,-4.21 12.72,-3.37 1.82,0.23 2.91,-0.08 3.22,-0.91 0.45,-1.16 -0.15,-2.9 -0.66,-3.43 -1.5,-0.19 -2.65,-1.47 -2.65,-3.01 0,-1.67 1.36,-3.03 3.03,-3.03 2.13,0 4.06,1.36 5.3,3.72 1.37,2.6 1.84,6.53 -0.18,9.48 -1.01,1.46 -3.48,3.81 -8.77,3.2 -5.13,-0.61 -6.35,0.45 -8.03,1.92 -1.58,1.37 -3.54,3.08 -7.57,3.4 -0.6,0.05 -1.17,0.08 -1.72,0.08z"/>
  <path class="fil1" d="M236.95 193.7c-1.67,0 -3.03,-1.35 -3.03,-3.03 0,-1.67 1.36,-3.02 3.03,-3.02 9.75,0 10.28,-2.31 12.5,-12.01l0.17 -0.75c1.68,-7.32 4.04,-17.69 4.45,-19.51 0.96,-4.27 0.94,-5.38 0.9,-8.68 -0.01,-0.79 -0.02,-1.68 -0.02,-2.74 0,-1.94 -0.52,-3.03 -1.04,-3.26 -0.47,-0.2 -1.43,0.05 -2.35,0.92 -2.15,2.07 -2.9,3.69 -3.93,5.94 -0.5,1.1 -1.07,2.34 -1.87,3.75 -1.59,2.83 -1.65,3.18 -2.19,5.85l-0.32 1.59c-0.34,1.63 -1.94,2.68 -3.58,2.35 -1.64,-0.34 -2.69,-1.95 -2.35,-3.59l0.31 -1.53c0.63,-3.14 0.87,-4.11 2.85,-7.64 0.68,-1.19 1.17,-2.26 1.65,-3.31 1.16,-2.53 2.25,-4.92 5.24,-7.78 2.65,-2.53 6.07,-3.34 8.92,-2.12 1.42,0.61 4.72,2.68 4.72,8.83 0,1.03 0.01,1.9 0.02,2.66 0.04,3.52 0.06,5.12 -1.05,10.09 -0.42,1.83 -2.78,12.2 -4.46,19.53l-0.17 0.75c-2.22,9.7 -3.82,16.71 -18.4,16.71z"/>
  <path class="fil1" d="M240.61 180.38c-0.42,0 -0.85,-0.09 -1.26,-0.27 -1.52,-0.7 -2.19,-2.5 -1.49,-4.02l0.15 -0.33c0.13,-0.28 0.3,-0.54 0.51,-0.77 2.15,-2.38 2.86,-5.32 3.69,-8.73 1.14,-4.7 2.43,-10.02 7.93,-14.18 1.33,-1.01 3.23,-0.75 4.24,0.58 1.01,1.33 0.75,3.23 -0.59,4.24 -3.77,2.87 -4.67,6.54 -5.7,10.79 -0.86,3.55 -1.83,7.56 -4.76,10.99 -0.52,1.07 -1.59,1.7 -2.72,1.7z"/>
  <g>
   <path class="fil1" d="M236.1 154.69l0 0 0 0zm-135.99 -59.05c-0.04,0 -0.07,0 -0.1,0 -0.2,0.07 -1.04,0.81 -1.9,5.74 -3.05,17.5 -4.81,31.84 -4.18,49.21 0.13,3.79 0.62,8.05 1.15,12.56 0.41,3.61 0.84,7.34 1.08,10.87 0.15,2.24 0.33,4.61 0.58,6.76 1.14,9.66 3.25,17.38 8.07,29.51 14.32,35.99 28.69,56.63 39.43,56.63 2.65,0 6.05,0.34 9.34,0.68 3.63,0.36 7.39,0.74 9.47,0.58 9.78,-0.76 14.33,-3.82 23.38,-9.92 1.85,-1.25 3.87,-2.61 6.12,-4.08 1.98,-1.29 3.86,-2.47 5.63,-3.59 17.1,-10.76 24.17,-15.21 33.41,-60.43l0.96 -4.68c1.97,-9.43 4,-19.19 4.04,-25.47 -0.74,0.47 -1.67,0.62 -2.57,0.33 -2.77,-0.89 -6,-4.21 -8.96,-22.11 -0.2,-1.18 -0.28,-2.56 -0.38,-4.02 -0.15,-2.36 -0.44,-6.74 -1.51,-7.67 -1.42,-1.21 -2.18,-2.9 -2.86,-4.39 -0.42,-0.92 -1.05,-2.32 -1.51,-2.52 -2.91,-1.3 -3.04,-5.14 -3.22,-10 -0.06,-1.86 -0.17,-4.98 -0.57,-5.81 -3.02,-6.3 -6.45,-8.75 -12.22,-8.75l-4.88 -0.01c-12.68,-0.01 -30.05,-0.03 -38.26,0.62 -4.62,0.37 -8.36,1.55 -11.97,2.69 -3.67,1.16 -7.13,2.25 -10.94,2.27 -0.05,0 -0.1,0 -0.15,0 -4.11,0 -8.2,-0.89 -12.52,-1.83 -4.89,-1.07 -9.98,-2.16 -15.52,-2.08 -2.52,0.04 -4.54,-0.38 -6.18,-0.73 -0.89,-0.18 -1.74,-0.36 -2.26,-0.36zm61.8 178.63c-2.48,0 -5.63,-0.32 -8.94,-0.65 -3.14,-0.31 -6.39,-0.64 -8.73,-0.64 -13.94,0 -29.1,-20.34 -45.05,-60.45 -5.05,-12.68 -7.26,-20.8 -8.46,-31.04 -0.27,-2.29 -0.45,-4.74 -0.61,-7.06 -0.23,-3.39 -0.65,-7.04 -1.06,-10.58 -0.51,-4.44 -1.04,-9.02 -1.18,-13.04 -0.65,-17.9 1.15,-32.58 4.27,-50.47 0.88,-5.06 2.26,-10.47 7.54,-10.75 1.3,-0.07 2.58,0.2 3.93,0.49 1.48,0.31 3,0.64 4.82,0.6 6.32,-0.11 11.93,1.12 16.92,2.21 3.99,0.87 7.77,1.7 11.24,1.7l0.11 0c2.9,-0.02 5.79,-0.93 9.15,-1.99 3.75,-1.19 8,-2.53 13.31,-2.95 8.45,-0.67 25.96,-0.65 38.75,-0.64l4.87 0c10.61,0 15.17,6.96 17.68,12.19 0.95,1.97 1.05,5 1.17,8.22 0.05,1.54 0.14,4 0.39,5.08 2.03,1.24 3,3.39 3.8,5.15 0.39,0.87 0.89,1.96 1.29,2.3 3,2.58 3.32,7.52 3.6,11.87 0.09,1.31 0.17,2.54 0.31,3.42 2.39,14.39 4.66,17.06 5.02,17.4 1.12,0.44 1.84,1.48 1.92,2.62 0.47,-0.31 1.04,-0.49 1.65,-0.49 1.67,0 3.03,1.36 3.03,3.03 0,6.9 -2.12,17.08 -4.17,26.92l-0.96 4.65c-9.76,47.75 -18.56,53.3 -36.11,64.35 -1.75,1.1 -3.6,2.26 -5.55,3.53 -2.23,1.46 -4.22,2.8 -6.04,4.03 -9.32,6.27 -14.93,10.06 -26.3,10.93 -0.5,0.04 -1.04,0.06 -1.61,0.06z"/>
  </g>
  <path class="fil1" d="M139.72 220.15c0,0 0,0 -0.01,0 0.01,0 0.01,0 0.01,0zm32.55 8.6c-0.47,0 -0.95,-0.11 -1.39,-0.34 -1.86,-0.96 -14.28,-6.51 -15.91,-7.04 -2,-0.67 -2.66,-0.4 -2.66,-0.4 -2.6,2.4 -7.91,2.73 -10.89,0.67 -1.14,-0.79 -1.79,-1.14 -2.13,-1.29 -1.19,0.64 -3.78,2.38 -5.57,3.59 -2.8,1.88 -5.45,3.66 -7.01,4.37 -1.53,0.7 -3.32,0.02 -4.01,-1.5 -0.7,-1.52 -0.02,-3.32 1.5,-4.01 1.11,-0.51 3.9,-2.38 6.14,-3.89 5.64,-3.79 7.18,-4.72 8.7,-4.72 0.03,0 0.05,0 0.08,0 1.61,0.03 3.28,0.75 5.75,2.47 0.64,0.45 2.78,0.33 3.37,-0.18 1.99,-1.82 4.9,-2.11 8.65,-0.86 2.1,0.7 14.85,6.42 16.77,7.42 1.49,0.77 2.07,2.59 1.3,4.08 -0.54,1.04 -1.6,1.63 -2.69,1.63z"/>
  <path class="fil1" d="M149.67 242.05c-7.43,0 -13.85,-3.6 -21.25,-9.44 -1.32,-1.04 -1.54,-2.94 -0.5,-4.26 1.03,-1.31 2.94,-1.53 4.25,-0.5 10.66,8.42 17.56,11.04 30.22,4.33 0.18,-0.1 0.43,-0.28 0.73,-0.48 0.93,-0.62 2.09,-1.4 3.2,-1.76 1.59,-0.52 3.3,0.34 3.82,1.93 0.52,1.59 -0.34,3.3 -1.93,3.82 -0.35,0.12 -1.28,0.75 -1.73,1.05 -0.5,0.33 -0.95,0.62 -1.26,0.79 -5.89,3.13 -10.92,4.52 -15.55,4.52z"/>
  <path class="fil1" d="M248.65 269.57c-1.15,0 -2.25,-0.65 -2.76,-1.75 -1,-2.11 -1.77,-8.62 -2.96,-24.86 -0.08,-1.19 -0.15,-2.15 -0.2,-2.78 -0.25,-3.11 -0.54,-6.03 -0.82,-8.89 -0.68,-6.85 -1.32,-13.33 -1.32,-21.06 0,-2.02 0.19,-5.47 0.39,-9.12 0.22,-3.98 0.52,-9.43 0.37,-10.69 -0.19,-1.66 1,-3.16 2.66,-3.36 1.66,-0.2 3.17,1 3.36,2.66 0.19,1.66 0,5.54 -0.34,11.73 -0.19,3.4 -0.38,6.92 -0.38,8.78 0,7.43 0.62,13.76 1.28,20.46 0.29,2.9 0.58,5.86 0.83,9.01 0.05,0.63 0.12,1.61 0.21,2.82 0.99,13.57 1.8,21.23 2.41,22.75 0.71,1.51 0.06,3.3 -1.45,4.02 -0.42,0.19 -0.86,0.28 -1.28,0.28z"/>
  <path class="fil1" d="M285.78 252.87c-0.09,0 -0.17,0 -0.26,-0.01 -6.49,-0.54 -21.09,-5.46 -26.57,-9.57l-1.94 -1.45c-7.75,-5.78 -12.02,-8.96 -15.86,-20.04 -0.55,-1.58 0.29,-3.31 1.87,-3.85 1.58,-0.55 3.3,0.29 3.85,1.87 3.23,9.32 6.31,11.62 13.76,17.16l1.95 1.47c4.24,3.18 17.38,7.87 23.44,8.37 1.67,0.14 2.91,1.6 2.77,3.27 -0.13,1.58 -1.46,2.78 -3.01,2.78z"/>
  <path class="fil1" d="M175.3 327.34c-0.95,0 -1.89,-0.45 -2.48,-1.29 -2.6,-3.69 -5.89,-8.43 -9.04,-12.97 -1.01,-1.46 -2.32,-3.26 -3.81,-5.28 -11.11,-15.19 -20.9,-29.56 -18.67,-38.57 0.4,-1.63 2.04,-2.61 3.67,-2.22 1.62,0.4 2.61,2.05 2.21,3.67 -1.73,7.01 10.89,24.27 17.68,33.54 1.52,2.07 2.86,3.91 3.9,5.41 3.14,4.53 6.43,9.26 9.02,12.95 0.96,1.36 0.63,3.25 -0.74,4.21 -0.53,0.37 -1.14,0.55 -1.74,0.55z"/>
  <path class="fil1" d="M101.42 299.1c-0.17,0 -0.33,0 -0.48,-0.02 -1.66,-0.17 -2.87,-1.66 -2.7,-3.32 0.17,-1.66 1.67,-2.9 3.33,-2.7 1.9,-0.03 9.65,-3.39 22.93,-10 1.35,-0.67 2.43,-1.21 3.1,-1.53 4.99,-2.38 13.67,-6.46 15.77,-7.04 1.62,-0.45 3.28,0.48 3.73,2.1 0.45,1.61 -0.49,3.28 -2.1,3.73 -0.92,0.25 -5.94,2.45 -14.79,6.68 -0.65,0.31 -1.7,0.83 -3.01,1.48 -15.55,7.74 -22.52,10.62 -25.78,10.62z"/>
  <path class="fil1" d="M90.39 145.08c-1.29,0 -2.48,-0.83 -2.89,-2.12 -2.57,-8.16 -3.53,-18.8 -4.3,-27.35 -0.25,-2.81 -0.49,-5.4 -0.75,-7.62 -3.29,-27.45 2.62,-48.06 17.57,-61.27 12.02,-10.62 32.33,-18.32 54.35,-20.62 25.42,-2.64 44.59,0.58 53.27,4.15 13.38,5.5 26.51,14.69 35.11,24.59 10.7,12.32 15.91,25.5 15.91,40.3 0,4.36 -0.32,7.2 -0.64,9.94 -0.2,1.82 -0.42,3.7 -0.55,6.09 -0.07,1.39 -0.52,4.15 -1.1,7.64 -0.91,5.57 -2.29,13.98 -2.01,17.13 0.15,1.67 -1.08,3.14 -2.75,3.29 -1.67,0.16 -3.13,-1.08 -3.28,-2.75 -0.35,-3.91 0.99,-12.08 2.07,-18.65 0.5,-3.04 0.97,-5.92 1.03,-6.99 0.13,-2.57 0.36,-4.54 0.58,-6.45 0.31,-2.69 0.59,-5.23 0.59,-9.25 0,-13.46 -4.58,-25 -14.42,-36.33 -8.01,-9.22 -20.29,-17.8 -32.84,-22.96 -6.47,-2.65 -24.35,-6.43 -50.35,-3.72 -20.8,2.16 -39.85,9.31 -50.96,19.13 -13.56,11.98 -18.65,30.3 -15.57,56.01 0.28,2.27 0.52,4.92 0.78,7.8 0.74,8.26 1.67,18.54 4.03,26.07 0.51,1.6 -0.38,3.3 -1.97,3.8 -0.31,0.09 -0.61,0.14 -0.91,0.14z"/>
  <path class="fil2" d="M184.67 149.72c2.71,0 4.91,2.2 4.91,4.92 0,2.71 -2.2,4.91 -4.91,4.91 -2.72,0 -4.92,-2.2 -4.92,-4.91 0,-2.72 2.2,-4.92 4.92,-4.92z"/>
  <path class="fil2" d="M117.1 152.68c2.71,0 4.91,2.2 4.91,4.92 0,2.71 -2.2,4.91 -4.91,4.91 -2.72,0 -4.92,-2.2 -4.92,-4.91 0,-2.72 2.2,-4.92 4.92,-4.92z"/>
  <path class="fil1" d="M132.08 170.22c-0.04,0 -0.09,0 -0.14,0 -1.11,-0.07 -1.95,-1.11 -1.88,-2.22 0.04,-0.57 0.27,-1.16 0.67,-2.23 1.01,-2.63 2.87,-7.52 1.48,-11.41 -0.29,-0.81 -2.67,-3.99 -3.59,-4.91 -0.8,-0.78 -0.81,-2.06 -0.02,-2.85 0.78,-0.8 2.06,-0.81 2.85,-0.02 0.9,0.88 3.91,4.6 4.56,6.41 1.9,5.3 -0.4,11.33 -1.5,14.22 -0.21,0.54 -0.38,0.95 -0.44,1.2 -0.07,1.06 -0.94,1.81 -1.99,1.81z"/>
  <g>
   <path class="fil1" d="M98.36 81.47l0.02 0 -0.02 0zm1.51 2.21c-1.12,0 -2.02,-0.9 -2.02,-2.02 0,-0.15 0,-0.28 -0.01,-0.38 -1.25,-0.5 -2.74,-1.43 -4.69,-4.55 -0.59,-0.95 -0.3,-2.2 0.64,-2.79 0.95,-0.59 2.19,-0.3 2.78,0.65 1.57,2.51 2.45,2.83 2.98,3.02 1.95,0.7 2.34,2.02 2.34,4.05 0,1.12 -0.91,2.02 -2.02,2.02z"/>
  </g>
  <path class="fil1" d="M103.87 71.67c-1.11,0 -2.01,-0.91 -2.01,-2.02 0,-1.84 -0.5,-3.07 -0.97,-4.25 -0.59,-1.46 -1.25,-3.12 -0.63,-5.32 0.31,-1.07 1.43,-1.69 2.49,-1.39 1.08,0.31 1.7,1.42 1.4,2.5 -0.24,0.83 -0.04,1.4 0.49,2.71 0.56,1.39 1.25,3.13 1.25,5.75 0,1.11 -0.9,2.02 -2.02,2.02z"/>
  <path class="fil1" d="M114.22 83.12c-0.55,0 -1.09,-0.22 -1.49,-0.65 -0.75,-0.82 -0.7,-2.1 0.12,-2.85 0.2,-0.19 0.05,-1.23 -0.05,-1.99 -0.23,-1.64 -0.55,-3.89 0.63,-6.14 0.51,-0.99 1.73,-1.37 2.72,-0.85 0.99,0.51 1.37,1.73 0.86,2.72 -0.58,1.11 -0.4,2.37 -0.21,3.71 0.24,1.74 0.54,3.9 -1.21,5.52 -0.39,0.36 -0.88,0.53 -1.37,0.53z"/>
  <path class="fil1" d="M131.92 83c-0.26,0 -0.53,-0.05 -0.78,-0.16 -1.03,-0.43 -1.51,-1.61 -1.08,-2.64 1.76,-4.19 1.11,-4.49 -0.45,-5.2 -1.74,-0.79 -4.98,-2.27 -3.66,-7.84 0.26,-1.08 1.34,-1.75 2.43,-1.5 1.09,0.26 1.76,1.35 1.5,2.44 -0.56,2.33 -0.14,2.52 1.4,3.23 3.47,1.58 5.22,3.96 2.5,10.43 -0.32,0.78 -1.07,1.24 -1.86,1.24z"/>
  <path class="fil1" d="M118.39 62.16c-0.56,0 -1.11,-0.24 -1.5,-0.71 -1.33,-1.6 -1.17,-3.21 0.46,-4.79 0.67,-0.64 0.95,-0.9 0.17,-2.56 -0.22,-0.47 -0.54,-0.79 -0.95,-1.2 -0.72,-0.71 -1.81,-1.79 -1.81,-3.75 0,-1.11 0.91,-2.02 2.02,-2.02 1.11,0 2.02,0.91 2.02,2.02 0,0.23 0,0.27 0.61,0.89 0.53,0.52 1.25,1.23 1.77,2.35 1.9,4.07 0.14,6.05 -0.88,7.04 0.28,0.78 0.07,1.7 -0.59,2.25 -0.39,0.32 -0.86,0.48 -1.32,0.48z"/>
  <path class="fil1" d="M137.4 59.81c-0.58,0 -1.15,-0.24 -1.55,-0.72 -0.72,-0.85 -0.61,-2.13 0.25,-2.84 0.22,-0.38 0.14,-2.32 -0.41,-3.3 -0.35,-0.63 -0.88,-1.15 -1.43,-1.7 -1.12,-1.11 -2.65,-2.62 -2.19,-5.16 0.2,-1.1 1.24,-1.82 2.35,-1.63 1.09,0.19 1.82,1.24 1.62,2.34 -0.06,0.37 0.03,0.56 1.06,1.58 0.66,0.65 1.48,1.46 2.11,2.6 1.06,1.87 1.81,6.4 -0.51,8.35 -0.38,0.32 -0.84,0.48 -1.3,0.48z"/>
  <path class="fil1" d="M147.93 79.34c-0.42,0 -0.84,-0.13 -1.2,-0.39 -0.89,-0.67 -1.08,-1.93 -0.42,-2.83 1.72,-2.3 1.72,-2.3 0.52,-3.71 -1.07,-1.28 -2.69,-3.2 -3.83,-6.83 -0.33,-1.07 0.26,-2.2 1.33,-2.53 1.07,-0.33 2.2,0.26 2.53,1.32 0.89,2.86 2.09,4.29 3.06,5.43 2.25,2.67 2.73,4.57 -0.37,8.73 -0.39,0.53 -1,0.81 -1.62,0.81z"/>
  <path class="fil1" d="M159.44 58.2c-1.09,0 -1.99,-0.87 -2.01,-1.97 -0.05,-1.8 0.03,-2.98 0.08,-3.76 0.07,-1.01 0.05,-1.07 -0.06,-1.33 -0.06,-0.14 -0.12,-0.29 -0.19,-0.45 -0.26,-0.65 -0.58,-1.47 -2.61,-2.84 -0.93,-0.63 -1.17,-1.88 -0.55,-2.81 0.62,-0.92 1.88,-1.17 2.8,-0.54 2.84,1.91 3.62,3.43 4.12,4.71l0.1 0.26c0.55,1.2 0.49,2.11 0.42,3.27 -0.05,0.75 -0.12,1.77 -0.08,3.4 0.03,1.11 -0.85,2.04 -1.97,2.06 -0.01,0 -0.03,0 -0.05,0z"/>
  <path class="fil1" d="M168.63 50.64c-1.11,0 -2.02,-0.91 -2.02,-2.02 0,-0.71 -0.06,-1.4 -0.12,-2.09 -0.14,-1.61 -0.28,-3.27 0.18,-5.09 0.28,-1.08 1.37,-1.73 2.46,-1.45 1.08,0.27 1.73,1.37 1.46,2.45 -0.3,1.16 -0.19,2.36 -0.07,3.75 0.06,0.8 0.13,1.61 0.13,2.43 0,1.11 -0.9,2.02 -2.02,2.02z"/>
  <path class="fil1" d="M162.62 80.01c-0.64,0 -1.27,-0.3 -1.66,-0.88 -0.63,-0.91 -0.4,-2.17 0.52,-2.8 1.59,-1.09 1.41,-1.76 0.89,-3.75 -0.58,-2.21 -1.46,-5.55 2.26,-8.79 0.84,-0.74 2.12,-0.65 2.85,0.19 0.73,0.85 0.65,2.12 -0.2,2.85 -1.83,1.6 -1.54,2.71 -1.01,4.73 0.57,2.15 1.43,5.4 -2.51,8.1 -0.34,0.24 -0.74,0.35 -1.14,0.35z"/>
  <path class="fil1" d="M179.65 67.66c-1.12,0 -2.02,-0.9 -2.02,-2.02 0,-2.42 -0.32,-3.45 -0.57,-4.27 -0.56,-1.81 -0.66,-2.97 0.71,-6.48 0.4,-1.03 1.58,-1.55 2.61,-1.14 1.04,0.41 1.55,1.58 1.15,2.62 -1.01,2.55 -0.91,2.87 -0.62,3.81 0.3,0.97 0.76,2.43 0.76,5.46 0,1.12 -0.91,2.02 -2.02,2.02z"/>
  <path class="fil1" d="M195.34 50.8c-0.55,0 -1.09,-0.21 -1.49,-0.65 -0.75,-0.82 -0.7,-2.09 0.12,-2.85 0.38,-0.35 0.07,-1.38 -0.45,-2.92 -0.8,-2.35 -1.89,-5.58 0.67,-8.32 0.77,-0.82 2.04,-0.86 2.86,-0.1 0.81,0.76 0.85,2.04 0.09,2.86 -0.82,0.88 -0.56,2.03 0.2,4.27 0.72,2.12 1.7,5.03 -0.64,7.18 -0.38,0.36 -0.88,0.53 -1.36,0.53z"/>
  <path class="fil1" d="M189.66 81.68c-0.41,0 -0.82,-0.12 -1.17,-0.38 -0.91,-0.64 -1.12,-1.9 -0.47,-2.81l0.37 -0.53c1.11,-1.54 2.06,-2.87 2.13,-3.24 -0.01,-0.1 -0.18,-0.55 -0.31,-0.9 -0.18,-0.47 -0.39,-1.05 -0.62,-1.78 -0.3,-0.99 -0.65,-2.39 -0.61,-4.43 0.02,-1.11 0.92,-1.98 2.02,-1.98l0.04 0c1.11,0.02 2,0.94 1.97,2.06 -0.03,1.45 0.21,2.41 0.44,3.15 0.2,0.65 0.39,1.15 0.54,1.57 1.15,3.06 0.62,3.8 -2.31,7.9l-0.38 0.53c-0.39,0.55 -1.01,0.84 -1.64,0.84z"/>
  <path class="fil1" d="M202.37 68.9c-0.32,0 -0.64,-0.08 -0.94,-0.24 -0.99,-0.52 -1.36,-1.75 -0.84,-2.73 0.32,-0.6 -0.08,-1.74 -0.5,-2.94 -0.55,-1.55 -1.17,-3.29 -0.67,-5.11 0.68,-2.51 2.55,-4.88 4.55,-5.76 1.11,-0.49 2.24,-0.49 3.17,-0.01 0.99,0.52 1.37,1.73 0.86,2.73 -0.46,0.89 -1.5,1.29 -2.43,0.98 -0.57,0.25 -1.82,1.48 -2.26,3.11 -0.16,0.61 0.22,1.68 0.58,2.71 0.63,1.79 1.42,4.02 0.26,6.19 -0.36,0.68 -1.06,1.07 -1.78,1.07z"/>
  <path class="fil1" d="M218.7 59.23c-0.39,0 -0.79,-0.11 -1.14,-0.35 -0.92,-0.63 -1.15,-1.89 -0.53,-2.81 1.26,-1.83 1.2,-3.13 1.07,-5.73 -0.04,-0.85 -0.08,-1.77 -0.08,-2.81 0,-1.11 0.9,-2.01 2.02,-2.01 1.11,0 2.02,0.9 2.02,2.01 0,0.97 0.04,1.83 0.08,2.61 0.13,2.82 0.25,5.26 -1.77,8.21 -0.39,0.58 -1.03,0.88 -1.67,0.88z"/>
  <path class="fil1" d="M202.42 85.16c-0.67,0 -1.32,-0.33 -1.71,-0.94 -1.63,-2.56 -2.14,-5.38 -1.41,-7.71 0.61,-1.93 1.99,-3.4 4.01,-4.24 1.02,-0.43 2.21,0.05 2.64,1.08 0.43,1.03 -0.06,2.21 -1.09,2.64 -0.9,0.38 -1.46,0.94 -1.7,1.73 -0.38,1.18 -0.01,2.8 0.96,4.34 0.6,0.94 0.32,2.19 -0.62,2.79 -0.34,0.21 -0.71,0.31 -1.08,0.31z"/>
  <path class="fil1" d="M226.04 75.34c-0.39,0 -0.79,-0.12 -1.14,-0.35 -0.91,-0.63 -1.15,-1.89 -0.52,-2.81 1.01,-1.48 1.23,-1.84 1.42,-2.17l0.21 -0.34c0.29,-0.45 0.69,-1.08 0.69,-3.36 0,-1.11 0.9,-2.02 2.02,-2.02 1.11,0 2.01,0.91 2.01,2.02 0,3.04 -0.6,4.4 -1.25,5.42l-0.21 0.34c-0.21,0.37 -0.45,0.77 -1.56,2.39 -0.39,0.57 -1.02,0.88 -1.67,0.88z"/>
  <path class="fil1" d="M231.05 91.69c-0.11,0 -0.22,0 -0.34,-0.02 -1.1,-0.19 -1.84,-1.24 -1.65,-2.33 0.53,-3.09 2.26,-4.24 3.93,-5.36 1.13,-0.76 2.42,-1.61 3.82,-3.35 0.7,-0.87 1.97,-1 2.84,-0.3 0.86,0.7 1,1.97 0.3,2.84 -1.79,2.21 -3.48,3.34 -4.72,4.17 -1.46,0.97 -1.95,1.3 -2.19,2.68 -0.17,0.98 -1.02,1.67 -1.99,1.67z"/>
  <path class="fil1" d="M232.31 105.82c0,0 0,0 0,0 0,0 0,0 0,0zm0.74 3.9c-0.8,0 -1.56,-0.48 -1.87,-1.28 -0.37,-0.94 0.01,-1.99 0.85,-2.48 0.73,-0.6 2.57,-2.94 2.68,-3.75 0.15,-1.07 1.11,-1.9 2.21,-1.8 1.09,0.11 1.89,1 1.82,2.09 -0.17,2.59 -3.76,6.61 -4.95,7.08 -0.24,0.1 -0.49,0.14 -0.74,0.14z"/>
  <path class="fil1" d="M239.4 129.41c-0.87,0 -1.66,-0.55 -1.93,-1.42 -0.79,-2.54 -0.64,-6.55 1.19,-8.95 1.03,-1.35 2.57,-2.06 4.14,-2.01 1.11,0.04 1.99,0.97 1.95,2.09 -0.03,1.09 -0.93,1.95 -2.01,1.95 -0.04,0 -0.09,0 -0.12,0 -0.26,0 -0.49,0.08 -0.75,0.41 -0.88,1.16 -1.01,3.81 -0.55,5.32 0.34,1.06 -0.26,2.19 -1.33,2.52 -0.19,0.06 -0.4,0.09 -0.59,0.09z"/>
  <path class="fil1" d="M244.74 104.04c-0.52,0 -1.04,-0.19 -1.43,-0.59 -0.79,-0.78 -0.79,-2.06 0,-2.85 1.66,-1.66 1.66,-3.1 1.5,-6.18 -0.04,-0.85 -0.09,-1.76 -0.09,-2.74 0,-1.11 0.91,-2.02 2.02,-2.02 1.11,0 2.02,0.91 2.02,2.02 0,0.91 0.04,1.74 0.08,2.53 0.17,3.21 0.32,6.24 -2.68,9.24 -0.39,0.4 -0.91,0.59 -1.42,0.59z"/>
  <path class="fil1" d="M144.29 44.94c-0.58,0 -1.15,-0.24 -1.55,-0.71 -0.71,-0.86 -0.61,-2.13 0.25,-2.85 0.22,-0.38 0.14,-2.32 -0.41,-3.3 -0.35,-0.63 -0.87,-1.15 -1.43,-1.7 -1.12,-1.1 -2.65,-2.61 -2.19,-5.16 0.2,-1.1 1.24,-1.82 2.35,-1.63 1.1,0.2 1.82,1.25 1.63,2.35 -0.07,0.36 0.02,0.55 1.05,1.57 0.66,0.65 1.48,1.47 2.12,2.6 1.05,1.88 1.8,6.4 -0.52,8.36 -0.38,0.32 -0.84,0.47 -1.3,0.47z"/>
  <path class="fil1" d="M178.73 43.17c-0.65,0 -1.28,-0.31 -1.67,-0.88 -0.63,-0.92 -0.4,-2.17 0.52,-2.8 1.59,-1.09 1.41,-1.76 0.89,-3.75 -0.58,-2.21 -1.46,-5.56 2.27,-8.79 0.83,-0.74 2.11,-0.65 2.84,0.19 0.74,0.84 0.65,2.12 -0.2,2.85 -1.83,1.59 -1.54,2.71 -1,4.72 0.56,2.16 1.42,5.41 -2.52,8.11 -0.34,0.24 -0.74,0.35 -1.13,0.35z"/>
  <path class="fil1" d="M238.55 71.82c-0.78,0 -1.52,-0.44 -1.85,-1.2 -0.45,-1.02 0.01,-2.21 1.02,-2.66 1.32,-0.59 2.15,-1.48 2.5,-2.66 0.5,-1.71 -0.04,-3.99 -1.45,-6.1 -0.62,-0.93 -0.36,-2.18 0.57,-2.8 0.93,-0.61 2.18,-0.36 2.8,0.57 2.08,3.13 2.79,6.58 1.96,9.45 -0.69,2.35 -2.32,4.15 -4.73,5.23 -0.27,0.12 -0.55,0.17 -0.82,0.17z"/>
  <path class="fil1" d="M218.43 101.53c-0.39,0 -0.79,-0.12 -1.14,-0.36 -0.91,-0.63 -1.15,-1.88 -0.52,-2.8 1.02,-1.49 1.23,-1.84 1.43,-2.18l0.2 -0.33c0.29,-0.45 0.69,-1.08 0.69,-3.36 0,-1.12 0.9,-2.02 2.02,-2.02 1.11,0 2.02,0.9 2.02,2.02 0,3.04 -0.6,4.4 -1.25,5.42l-0.21 0.33c-0.22,0.37 -0.45,0.77 -1.57,2.4 -0.39,0.57 -1.02,0.88 -1.67,0.88z"/>
  <path class="fil1" d="M176.44 92.82c-1.12,0 -2.02,-0.91 -2.02,-2.02 0,-2.42 -0.32,-3.45 -0.57,-4.28 -0.56,-1.81 -0.66,-2.97 0.71,-6.47 0.4,-1.04 1.58,-1.55 2.61,-1.14 1.04,0.4 1.55,1.57 1.15,2.61 -1,2.56 -0.91,2.87 -0.61,3.81 0.29,0.97 0.75,2.44 0.75,5.47 0,1.11 -0.91,2.02 -2.02,2.02z"/>
  <path class="fil1" d="M155.07 93.27c-1.12,0 -2.02,-0.9 -2.02,-2.02 0,-0.7 -0.06,-1.39 -0.12,-2.08 -0.14,-1.61 -0.28,-3.27 0.18,-5.09 0.28,-1.08 1.37,-1.73 2.46,-1.46 1.08,0.28 1.73,1.38 1.46,2.46 -0.3,1.15 -0.2,2.35 -0.08,3.74 0.07,0.8 0.14,1.61 0.14,2.43 0,1.12 -0.91,2.02 -2.02,2.02z"/>
  <path class="fil1" d="M124.85 95.93c-1.11,0 -2.02,-0.91 -2.02,-2.02 0,-1.84 -0.49,-3.07 -0.96,-4.25 -0.59,-1.46 -1.26,-3.12 -0.63,-5.32 0.3,-1.07 1.42,-1.69 2.49,-1.39 1.08,0.31 1.7,1.43 1.39,2.5 -0.23,0.84 -0.03,1.4 0.49,2.71 0.56,1.39 1.26,3.13 1.26,5.75 0,1.11 -0.9,2.02 -2.02,2.02z"/>
  <path class="fil1" d="M127.98 319.92c-1.11,0 -2.02,-0.91 -2.02,-2.02 0,-1.12 0.91,-2.02 2.02,-2.02 10.82,0 14.84,-5.51 14.84,-20.35 0,-1.11 0.91,-2.01 2.02,-2.01 1.11,0 2.02,0.9 2.02,2.01 0,12.06 -2.24,24.39 -18.88,24.39z"/>
  <path class="fil1" d="M201.56 313.68c-1.33,0 -2.55,-0.88 -2.92,-2.23 -0.44,-1.61 0.51,-3.28 2.12,-3.72 6.77,-1.86 11.96,-4.54 17.45,-7.37 6.78,-3.5 13.78,-7.12 24.24,-9.52 4.18,-0.97 9.12,-1.95 13.89,-2.91 5.97,-1.2 12.15,-2.44 16.57,-3.58 1.63,-0.41 3.27,0.56 3.69,2.18 0.41,1.62 -0.56,3.27 -2.18,3.69 -4.58,1.17 -10.84,2.43 -16.89,3.64 -4.73,0.95 -9.62,1.94 -13.73,2.88 -9.71,2.24 -16.37,5.67 -22.81,9 -5.53,2.85 -11.24,5.8 -18.62,7.83 -0.27,0.07 -0.54,0.11 -0.81,0.11z"/>
  <path class="fil1" d="M214.64 82.71c-0.22,0 -0.43,-0.03 -0.64,-0.1 -1.06,-0.35 -1.63,-1.5 -1.28,-2.56 0.58,-1.71 1.05,-2.79 1.36,-3.5 0.41,-0.93 0.42,-1 0.4,-1.28 -0.01,-0.15 -0.02,-0.31 -0.03,-0.48 -0.01,-0.71 -0.04,-1.59 -1.48,-3.57 -0.66,-0.9 -0.46,-2.16 0.44,-2.82 0.9,-0.66 2.16,-0.46 2.82,0.44 2.02,2.77 2.23,4.47 2.26,5.84l0.01 0.27c0.11,1.32 -0.26,2.16 -0.72,3.21 -0.3,0.69 -0.71,1.64 -1.23,3.18 -0.28,0.84 -1.07,1.37 -1.91,1.37z"/>
 </g>
</svg>
