<?xml version="1.0" encoding="UTF-8"?>
<!DOCTYPE svg PUBLIC "-//W3C//DTD SVG 1.1//EN" "http://www.w3.org/Graphics/SVG/1.1/DTD/svg11.dtd">
<!-- Creator: CorelDRAW 2018 (64-Bit) -->
<svg xmlns="http://www.w3.org/2000/svg" xml:space="preserve" width="845px" height="845px" version="1.1" style="shape-rendering:geometricPrecision; text-rendering:geometricPrecision; image-rendering:optimizeQuality; fill-rule:evenodd; clip-rule:evenodd"
viewBox="0 0 361.04 361.04"
 xmlns:xlink="http://www.w3.org/1999/xlink">
 <defs>
  <style type="text/css">
   <![CDATA[
    .fil0 {fill:none}
    .fil2 {fill:black}
    .fil1 {fill:black;fill-rule:nonzero}
   ]]>
  </style>
 </defs>
 <g id="Слой_x0020_1">
  <metadata id="CorelCorpID_0Corel-Layer"/>
  <rect class="fil0" width="361.04" height="361.04"/>
 </g>
 <g id="_1">
  <metadata id="CorelCorpID_1Corel-Layer"/>
  <path class="fil1" d="M126.36 160.71c-0.67,0 -1.34,-0.22 -1.9,-0.67 -9.63,-7.81 -14.71,-12.23 -22.92,-21.77 -1.09,-1.27 -0.94,-3.18 0.33,-4.27 1.26,-1.09 3.18,-0.95 4.27,0.32 7.88,9.17 12.79,13.44 22.13,21.01 1.3,1.05 1.5,2.96 0.44,4.26 -0.59,0.74 -1.47,1.12 -2.35,1.12z"/>
  <path class="fil1" d="M243.8 166.93c-0.86,0 -1.71,-0.36 -2.31,-1.07 -1.09,-1.27 -0.93,-3.18 0.34,-4.27 7.58,-6.45 11.49,-10.7 17.92,-18.36 1.07,-1.28 2.98,-1.45 4.26,-0.38 1.28,1.08 1.45,2.99 0.38,4.27 -6.66,7.94 -10.72,12.35 -18.63,19.08 -0.57,0.49 -1.27,0.73 -1.96,0.73z"/>
  <path class="fil1" d="M203.96 156.34c-1.23,0 -2.38,-0.74 -2.83,-1.95 -0.6,-1.56 0.19,-3.31 1.75,-3.91l10.45 -3.96c11.69,-4.43 14.48,-3.45 22.36,0.62 1.84,0.95 3.93,2.03 6.61,3.26 1.52,0.69 2.19,2.49 1.5,4.01 -0.7,1.52 -2.49,2.19 -4.01,1.49 -2.82,-1.29 -5.07,-2.45 -6.87,-3.38 -6.73,-3.48 -7.76,-4.01 -17.44,-0.34l-10.45 3.97c-0.35,0.13 -0.72,0.19 -1.07,0.19z"/>
  <path class="fil1" d="M168.8 155.11c-0.26,0 -0.53,-0.03 -0.79,-0.11l-18.27 -4.93c-7.18,-1.66 -9.12,-0.71 -14.88,2.12 -1.3,0.63 -2.74,1.34 -4.43,2.12 -1.52,0.69 -3.32,0.02 -4.01,-1.5 -0.7,-1.52 -0.03,-3.31 1.49,-4.01 1.63,-0.75 3.03,-1.43 4.27,-2.05 6.21,-3.05 9.64,-4.73 19.03,-2.55l18.37 4.96c1.62,0.43 2.58,2.09 2.14,3.71 -0.36,1.35 -1.59,2.24 -2.92,2.24z"/>
  <path class="fil1" d="M166.55 172.22c-0.58,0 -1.16,-0.17 -1.68,-0.51 -13.09,-8.73 -15.01,-9.49 -29.44,-3.61 -1.55,0.63 -3.32,-0.12 -3.94,-1.67 -0.64,-1.55 0.11,-3.31 1.66,-3.94 16.56,-6.74 20.48,-5.55 35.08,4.18 1.39,0.93 1.77,2.81 0.84,4.2 -0.58,0.87 -1.54,1.35 -2.52,1.35z"/>
  <path class="fil1" d="M202.61 174.26c-0.96,0 -1.9,-0.46 -2.49,-1.31 -0.95,-1.38 -0.61,-3.26 0.77,-4.22 15.15,-10.46 22.95,-12.22 39.3,-2.07 1.42,0.88 1.85,2.75 0.97,4.17 -0.88,1.42 -2.75,1.86 -4.17,0.98 -14.19,-8.82 -19.16,-7.41 -32.66,1.91 -0.52,0.36 -1.12,0.54 -1.72,0.54z"/>
  <path class="fil2" d="M151.71 161.37c2.94,0 5.32,2.38 5.32,5.32 0,2.94 -2.38,5.32 -5.32,5.32 -2.94,0 -5.33,-2.38 -5.33,-5.32 0,-2.94 2.39,-5.32 5.33,-5.32z"/>
  <path class="fil2" d="M221.21 162.95c2.94,0 5.32,2.39 5.32,5.33 0,2.94 -2.38,5.32 -5.32,5.32 -2.94,0 -5.32,-2.38 -5.32,-5.32 0,-2.94 2.38,-5.33 5.32,-5.33z"/>
  <path class="fil1" d="M193.73 170.8c-0.47,0 -0.94,-0.11 -1.39,-0.34 -5.31,-2.75 -8.13,-2.46 -14.81,-0.94 -1.63,0.36 -3.26,-0.65 -3.62,-2.28 -0.38,-1.64 0.65,-3.26 2.28,-3.63 6.93,-1.57 11.56,-2.34 18.93,1.47 1.49,0.77 2.07,2.6 1.3,4.08 -0.54,1.05 -1.59,1.64 -2.69,1.64z"/>
  <path class="fil1" d="M220.4 78.91c30.2,20.18 43.2,58.32 43.59,91.44 14.58,-29.98 4.22,-56.8 -10.77,-88.02 -7.71,-16.06 -16.45,-28.44 -33.13,-36.01l0.31 32.59zm40.12 106.54c-0.33,0 -0.67,-0.06 -1,-0.18 -1.31,-0.45 -2.14,-1.74 -2.02,-3.12 2.97,-34.12 -8.79,-77.98 -41.75,-99.04 -0.86,-0.55 -1.38,-1.5 -1.39,-2.52l-0.37 -38.79c-0.01,-1 0.48,-1.94 1.3,-2.51 0.82,-0.58 1.87,-0.71 2.8,-0.35 21.31,8.04 31.64,22.12 40.59,40.77 16.94,35.28 28.96,67.49 4.36,104.39 -0.57,0.86 -1.53,1.35 -2.52,1.35z"/>
  <path class="fil1" d="M247.47 80.5c-0.94,0 -1.87,-0.44 -2.46,-1.26 -0.94,-1.3 -1.85,-2.63 -2.77,-3.96 -6.85,-9.92 -12.74,-18.49 -24.33,-15.53 -1.62,0.42 -3.27,-0.56 -3.68,-2.18 -0.42,-1.62 0.56,-3.27 2.18,-3.69 15.65,-3.99 23.71,7.67 30.81,17.96 0.9,1.3 1.8,2.6 2.71,3.87 0.98,1.36 0.66,3.25 -0.7,4.23 -0.53,0.38 -1.15,0.56 -1.76,0.56z"/>
  <path class="fil1" d="M260 110.64c-1.01,0 -2.01,-0.51 -2.58,-1.44 -11.31,-18.41 -22.17,-33.84 -40.52,-36.11 -1.65,-0.2 -2.83,-1.71 -2.63,-3.37 0.21,-1.66 1.69,-2.85 3.38,-2.64 22.73,2.81 35.56,23.7 44.93,38.95 0.87,1.42 0.43,3.29 -0.99,4.16 -0.5,0.3 -1.04,0.45 -1.59,0.45z"/>
  <path class="fil1" d="M272.73 157.18c-0.5,0 -1.01,-0.12 -1.48,-0.39 -1.04,-0.58 -4.2,-2.36 -5.18,-15.13 -0.47,-6.21 -3,-10.87 -5.94,-16.26 -0.94,-1.73 -1.91,-3.52 -2.86,-5.44 -0.75,-1.49 -0.14,-3.31 1.36,-4.06 1.5,-0.74 3.31,-0.13 4.06,1.37 0.92,1.84 1.86,3.57 2.76,5.24 3.13,5.75 6.09,11.18 6.66,18.7 0.46,5.95 1.56,9.61 2.23,10.38 1.36,0.85 1.83,2.63 1.03,4.05 -0.56,0.99 -1.58,1.54 -2.64,1.54z"/>
  <path class="fil1" d="M183.03 283.31c-4.63,0 -9.65,-0.88 -15.07,-2.99 -16.47,-6.42 -31.51,-19.8 -45.95,-40.91 -6.06,-8.84 -9.25,-17.33 -11.39,-30.28 -3.02,-18.27 -5.29,-41.97 4,-63.33 5.2,-11.96 5.2,-11.96 6.99,-19.43 0.52,-2.14 1.18,-4.87 2.13,-8.62 0.94,-3.72 0.58,-6.21 0.32,-8.02 -0.23,-1.64 -0.48,-3.34 0.54,-4.93 6.23,-9.7 12.75,-9.82 18.51,-9.92 3.84,-0.06 7.47,-0.13 11.59,-2.91 11.24,-7.59 21.88,-6.79 28.91,-6.26 2.92,0.22 5.93,0.45 6.89,-0.21 6.34,-4.39 10.35,-4.89 15.01,-5.47 2.92,-0.36 6.23,-0.77 10.91,-2.34 1.58,-0.53 3.3,0.32 3.83,1.9 0.54,1.59 -0.32,3.3 -1.9,3.84 -5.26,1.76 -9.05,2.23 -12.1,2.61 -4.33,0.54 -7.19,0.89 -12.31,4.44 -2.71,1.88 -6.27,1.61 -10.78,1.27 -6.94,-0.53 -15.57,-1.18 -25.07,5.24 -5.6,3.79 -10.75,3.88 -14.88,3.95 -5.16,0.09 -8.91,0.15 -13.29,6.8 0.02,0.29 0.08,0.74 0.14,1.13 0.29,2.05 0.79,5.48 -0.45,10.37 -0.95,3.71 -1.6,6.42 -2.11,8.55 -1.92,7.98 -2.02,8.21 -7.33,20.43 -8.66,19.91 -6.46,42.48 -3.58,59.92 1.99,12 4.9,19.8 10.41,27.85 13.74,20.07 27.86,32.73 43.15,38.69 12.35,4.81 23.14,2.99 36.11,-6.07 31.41,-21.94 38.39,-44.74 48.96,-79.26 0.78,-2.55 1.58,-5.16 2.41,-7.83 0.49,-1.6 2.19,-2.48 3.79,-2 1.6,0.5 2.49,2.2 1.99,3.79 -0.82,2.66 -1.62,5.26 -2.4,7.81 -10.54,34.44 -18.16,59.32 -51.28,82.46 -6.93,4.84 -15.73,9.73 -26.7,9.73z"/>
  <path class="fil1" d="M117.35 226.85c-0.22,0 -0.45,-0.02 -0.68,-0.08 -12.84,-2.93 -14.69,-20.54 -15.8,-31.06 -0.27,-2.63 -0.62,-5.88 -1,-6.8 -6.63,-7.93 -6.26,-14.94 -5.95,-20.58 0.19,-3.49 0.35,-6.51 -0.94,-9.53 -4.46,-10.46 -2.76,-22.14 -1.11,-33.44 0.49,-3.4 0.95,-6.6 1.25,-9.72 0.81,-8.68 5.36,-19.28 7.81,-24.98 0.5,-1.17 1.06,-2.47 1.27,-3.04 0.08,-5.18 2.99,-9.87 5.58,-14.01 1.07,-1.72 2.08,-3.35 2.82,-4.88 1.61,-3.36 7.35,-7.47 15.93,-13.36 2.86,-1.96 5.56,-3.81 6.96,-4.98 9.26,-7.74 13.74,-8.72 18.08,-9.67 3.23,-0.71 6.28,-1.38 12.09,-5.72 3.3,-2.46 8.13,-2.81 12.39,-3.11 1.7,-0.12 3.3,-0.24 4.52,-0.47 13.59,-2.64 26.42,0 38.13,7.83 1.39,0.93 1.77,2.81 0.84,4.2 -0.93,1.39 -2.81,1.77 -4.2,0.84 -10.34,-6.92 -21.65,-9.25 -33.62,-6.93 -1.57,0.31 -3.35,0.43 -5.24,0.57 -3.43,0.25 -7.32,0.52 -9.2,1.92 -6.86,5.12 -10.87,6 -14.41,6.78 -3.79,0.83 -7.37,1.62 -15.49,8.4 -1.63,1.36 -4.31,3.2 -7.42,5.34 -4.5,3.08 -12.87,8.83 -13.91,10.99 -0.87,1.82 -2.02,3.67 -3.13,5.45 -2.32,3.72 -4.72,7.56 -4.67,11.14 0.01,0.98 -0.36,1.86 -1.76,5.1 -2.31,5.39 -6.62,15.43 -7.35,23.15 -0.3,3.28 -0.8,6.71 -1.28,10.03 -1.53,10.47 -3.1,21.3 0.69,30.2 1.84,4.32 1.63,8.34 1.41,12.23 -0.3,5.54 -0.55,10.32 4.65,16.47 1.36,1.61 1.68,4.21 2.28,9.95 1,9.48 2.51,23.82 11.13,25.79 1.63,0.37 2.65,2 2.28,3.63 -0.32,1.4 -1.57,2.35 -2.95,2.35z"/>
  <path class="fil1" d="M93.47 139.88c-0.96,0 -1.9,-0.45 -2.49,-1.3 -0.96,-1.37 -0.61,-3.26 0.76,-4.22 0.28,-0.19 0.43,-1 0.65,-2.31 0.43,-2.48 1.06,-6.22 4.48,-10.41 0.1,-0.33 0.23,-1.11 0.34,-1.75 0.65,-3.94 1.87,-11.28 10.59,-17.91 2.4,-1.82 3.84,-4.27 5.37,-6.86 2.57,-4.36 5.48,-9.31 13.16,-11.3 0.58,-0.15 2.43,-1 4.06,-1.74 4.4,-2.01 10.41,-4.77 14.98,-5.34 2.95,-0.38 3.06,-0.39 4.44,-1.77 1.19,-1.18 3.1,-1.18 4.29,0 1.18,1.18 1.18,3.1 0,4.28 -2.85,2.85 -4.64,3.07 -7.89,3.48 -3.73,0.48 -9.49,3.11 -13.3,4.85 -2.53,1.16 -4.02,1.83 -5.06,2.1 -5.25,1.37 -7.11,4.52 -9.46,8.51 -1.68,2.84 -3.58,6.07 -6.92,8.61 -6.81,5.17 -7.7,10.54 -8.29,14.09 -0.31,1.84 -0.55,3.29 -1.52,4.46 -2.5,3 -2.92,5.5 -3.3,7.71 -0.36,2.16 -0.78,4.62 -3.17,6.28 -0.52,0.36 -1.13,0.54 -1.72,0.54z"/>
  <path class="fil1" d="M103.22 96.02c-1.2,0 -2.34,-0.72 -2.81,-1.92 -0.62,-1.55 0.15,-3.31 1.7,-3.92 2.1,-0.83 10.13,-7.99 14.92,-12.27 2.99,-2.67 5.57,-4.98 7.21,-6.28 4,-3.18 14.87,-6.32 16.57,-6.6 7.11,-1.17 17.96,-1.13 26.68,-1.1l3.67 0c1.68,0 3.03,1.36 3.03,3.03 0,1.67 -1.35,3.03 -3.03,3.03l-3.69 -0.01c-8.48,-0.03 -19.06,-0.06 -25.68,1.03 -1.68,0.28 -11.14,3.26 -13.78,5.36 -1.5,1.2 -4.15,3.56 -6.94,6.05 -8.24,7.35 -13.85,12.25 -16.74,13.39 -0.36,0.15 -0.74,0.21 -1.11,0.21z"/>
  <path class="fil1" d="M125.53 58.3c0,0 0,0 0.01,0 -0.01,0 -0.01,0 -0.01,0zm0.01 0c0,0 0,0.01 0,0.01 0,0 0,-0.01 0,-0.01zm-1.43 5.66c-0.63,0 -1.22,-0.16 -1.81,-0.54 -1.42,-0.9 -1.83,-2.77 -0.94,-4.18 0.62,-0.97 1.7,-1.47 2.77,-1.4 0.46,-0.15 1.28,-0.5 1.97,-0.79 2.83,-1.19 6.71,-2.82 10.57,-2.94 1.79,-0.04 4.04,0.04 6.64,0.14 1.77,0.06 3.68,0.13 5.61,0.17 6.16,0.13 9.82,-0.94 13.4,-1.94 3.65,-1.01 7.42,-2.07 13.14,-1.81 2.08,0.1 12.64,0.69 16.83,3.18 1.43,0.85 1.91,2.71 1.05,4.14 -0.85,1.44 -2.71,1.91 -4.15,1.06 -1.5,-0.89 -6.92,-2.01 -14,-2.33 -4.76,-0.21 -7.76,0.63 -11.24,1.6 -3.81,1.06 -8.08,2.27 -15.13,2.15 -1.98,-0.03 -3.93,-0.1 -5.74,-0.17 -2.49,-0.09 -4.65,-0.17 -6.23,-0.13 -2.73,0.08 -6.01,1.46 -8.4,2.46 -1.81,0.76 -3.15,1.33 -4.34,1.33z"/>
  <path class="fil1" d="M171.93 83.07c-0.89,0 -1.79,-0.12 -2.68,-0.23 -0.63,-0.08 -1.29,-0.16 -1.71,-0.16 -1.67,0 -3.03,-1.36 -3.03,-3.03 0,-1.67 1.36,-3.03 3.03,-3.03 0.81,0 1.66,0.11 2.48,0.22 0.69,0.08 1.85,0.23 2.23,0.15 4.53,-1.25 7.42,-2.33 9.96,-3.28 5.24,-1.96 8.7,-3.25 19.77,-3.25 1.67,0 3.02,1.35 3.02,3.03 0,1.67 -1.35,3.02 -3.02,3.02 -9.98,0 -12.7,1.02 -17.64,2.87 -2.54,0.95 -5.69,2.13 -10.5,3.46 -0.62,0.17 -1.26,0.23 -1.91,0.23z"/>
  <path class="fil1" d="M211.76 51.86c-1.22,0 -4.71,-0.87 -21.9,-5.8 -2.89,-0.83 -5.88,-1.69 -6.52,-1.85 -1.32,-0.23 -2.37,-1.31 -2.5,-2.7 -0.16,-1.67 1.07,-3.15 2.73,-3.3 0.68,-0.07 0.67,-0.07 7.97,2.03 6.03,1.73 18.54,5.32 20.38,5.57 1.6,0.08 2.87,1.4 2.87,3.03 0,1.67 -1.35,3.02 -3.03,3.02z"/>
  <path class="fil1" d="M181.78 217.34c-3.84,0 -9.56,-5.06 -12.63,-8.08 -0.66,-0.66 -1.49,-1.19 -2.29,-1.71 -1.62,-1.04 -3.62,-2.34 -4.14,-4.83 -0.51,-2.51 0.85,-4.9 1.91,-6.48 0.94,-1.39 2.82,-1.75 4.21,-0.82 1.38,0.94 1.75,2.82 0.81,4.2 -0.68,1.02 -0.89,1.58 -0.96,1.82 0.29,0.27 0.95,0.7 1.45,1.02 0.96,0.62 2.15,1.39 3.26,2.48 3.59,3.54 7.34,6.19 8.45,6.35 5.49,0 5.85,-0.28 7.05,-1.18 1.22,-0.9 3.06,-2.28 7.56,-4.05 2.47,-0.97 2.7,-1.35 2.24,-3.74 -0.31,-1.64 0.76,-3.23 2.4,-3.55 1.65,-0.31 3.23,0.76 3.55,2.41 1.29,6.73 -2.51,9.16 -5.97,10.52 -3.74,1.47 -5.14,2.51 -6.15,3.27 -2.54,1.89 -4.07,2.37 -10.75,2.37z"/>
  <path class="fil1" d="M222.31 227.52c-1.06,0 -1.95,-0.83 -2.01,-1.91 -0.16,-3.08 -6.09,-10.71 -13.22,-17.01 -0.83,-0.74 -0.91,-2.01 -0.17,-2.85 0.74,-0.83 2.02,-0.91 2.85,-0.17 4.9,4.33 14.27,14.06 14.57,19.82 0.06,1.11 -0.79,2.06 -1.9,2.12 -0.04,0 -0.08,0 -0.12,0z"/>
  <path class="fil1" d="M143.84 223.96c-1.01,0 -1.89,-0.76 -2,-1.8 -0.69,-6.07 7.88,-13.86 15.18,-19.33 0.89,-0.67 2.15,-0.49 2.82,0.4 0.67,0.9 0.49,2.16 -0.4,2.83 -8.6,6.44 -13.94,12.58 -13.59,15.65 0.12,1.11 -0.67,2.11 -1.78,2.23 -0.08,0.01 -0.15,0.02 -0.23,0.02z"/>
  <path class="fil1" d="M135.67 157.14c-6.65,2.02 -9.77,5.79 -9.81,11.87 -0.02,4.48 1.53,9.64 3.08,12.42 4.66,8.39 15.51,9.17 26.52,8.79 2.04,-0.08 3.54,-0.28 4.73,-0.64 4.53,-1.37 12.93,-13.57 13.43,-19.49 0.14,-1.69 0.23,-7.38 -4.52,-9.41 -8.44,-3.63 -25.24,-6.01 -33.43,-3.54zm15.66 37.19c-10.77,0 -20.87,-1.84 -25.93,-10.94 -1.74,-3.14 -3.61,-8.99 -3.57,-14.4 0.05,-7.9 4.31,-13.18 12.67,-15.71 9.13,-2.76 26.95,-0.29 36.2,3.68 4.87,2.1 7.47,7.13 6.94,13.46 -0.59,7.06 -9.78,21.06 -16.28,23.03 -1.53,0.46 -3.36,0.71 -5.76,0.8 -1.43,0.05 -2.86,0.08 -4.27,0.08z"/>
  <path class="fil1" d="M222.29 159.79c-7.41,0 -15.67,1.27 -20.87,3.19 -4.74,1.75 -4.99,7.44 -4.96,9.14 0.13,5.94 7.61,18.62 11.94,20.25 1.13,0.42 2.58,0.71 4.56,0.9 10.72,1.05 21.32,0.89 26.36,-7.19 1.68,-2.69 3.51,-7.76 3.74,-12.23 0.33,-6.09 -2.48,-10.04 -8.85,-12.43 -3.01,-1.14 -7.3,-1.63 -11.92,-1.63zm-1.08 38.03c-3.23,0 -6.24,-0.29 -8.64,-0.53 -2.34,-0.22 -4.12,-0.59 -5.59,-1.14 -6.24,-2.35 -14.4,-16.87 -14.55,-23.94 -0.14,-6.34 2.7,-11.21 7.59,-13.02 9.27,-3.42 26.85,-4.85 35.62,-1.55 8.02,3.02 11.87,8.54 11.46,16.42 -0.29,5.4 -2.46,11.12 -4.35,14.16 -4.97,7.96 -13.88,9.6 -21.54,9.6z"/>
  <path class="fil1" d="M205.97 232.6c-4.23,0 -7.48,-1.25 -10.1,-2.26 -0.84,-0.32 -1.61,-0.62 -2.36,-0.84 -0.72,-0.22 -1.79,-0.24 -2.12,-0.17 -0.73,0.19 -1.64,0.64 -2.52,1.09 -1.83,0.91 -3.9,1.95 -6.05,1.25 -1.12,-0.37 -2.17,-0.99 -3.28,-1.64 -2.04,-1.2 -4.16,-2.45 -6.4,-1.9 -10.81,2.61 -18.62,2.23 -23.88,-1.18 -1.4,-0.91 -1.8,-2.79 -0.89,-4.19 0.91,-1.4 2.79,-1.8 4.19,-0.89 3.73,2.42 10.17,2.54 19.15,0.37 4.62,-1.12 8.4,1.1 10.9,2.57 0.68,0.4 1.32,0.78 1.81,0.99 0.42,-0.14 1.19,-0.52 1.73,-0.8 1.12,-0.55 2.38,-1.19 3.77,-1.54 1.39,-0.36 3.63,-0.27 5.3,0.23 0.94,0.27 1.86,0.63 2.83,1 2.36,0.91 4.81,1.85 7.92,1.85l0.06 0c1.98,-0.01 3.92,-0.08 5.46,-0.14 1.12,-0.04 2.03,-0.08 2.62,-0.08 1.68,0 3.03,1.36 3.03,3.03 0,1.67 -1.35,3.03 -3.03,3.03 -0.53,0 -1.37,0.03 -2.39,0.07 -1.59,0.06 -3.61,0.14 -5.66,0.15l-0.09 0z"/>
  <path class="fil1" d="M181.9 246.68c-7.78,0 -13.44,-3.29 -20.06,-7.14 -1.57,-0.91 -3.22,-1.87 -5.01,-2.85 -1.46,-0.8 -2,-2.65 -1.19,-4.11 0.8,-1.47 2.64,-2.01 4.11,-1.2 1.83,1 3.52,1.99 5.14,2.93 9.19,5.34 14.74,8.57 26.98,4.44 4.59,-1.55 10.58,-4.32 12.19,-5.99 1.16,-1.2 3.08,-1.23 4.28,-0.06 1.2,1.16 1.23,3.08 0.07,4.28 -3.68,3.79 -14.16,7.36 -14.6,7.5 -4.57,1.55 -8.46,2.2 -11.91,2.2z"/>
  <path class="fil1" d="M198.76 273.78c0,0 0,0 0,0 0,0 0,0 0,0zm-48.54 29.83c-0.47,0 -0.94,-0.11 -1.37,-0.33 -0.8,-0.41 -1.38,-1.15 -1.58,-2.03 -3.05,-13.46 -5.72,-25.85 -7.52,-41.06 -0.2,-1.66 0.98,-3.17 2.64,-3.37 1.68,-0.2 3.17,0.99 3.37,2.65 1.61,13.57 3.94,24.91 6.61,36.85 11.78,-5.31 43.22,-19.99 46.64,-22.94 0.88,-1.18 2.49,-1.57 3.84,-0.88 1.48,0.78 2.05,2.61 1.27,4.09 -2.33,4.46 -52.2,26.56 -52.7,26.77 -0.38,0.17 -0.79,0.25 -1.2,0.25z"/>
  <g>
   <path class="fil1" d="M150.99 305.14l0 0 0 0zm-32.06 17.84l0.02 0 -0.02 0zm-2.66 3.92c-0.56,0 -1.14,-0.15 -1.73,-0.51 -1.91,-1.19 -1.75,-3.11 -1.51,-6l0.05 -0.71c0.53,-6.48 8.48,-25.42 11.87,-33.26 0.77,-1.78 3.75,-7.14 8.21,-15.11 2.4,-4.28 5.36,-9.58 5.85,-10.64 0.44,-1.36 1.78,-2.26 3.26,-2.06 1.66,0.21 2.83,1.73 2.62,3.39 -0.11,0.86 -0.13,0.97 -6.45,12.26 -3.22,5.76 -7.23,12.93 -7.93,14.56 -5.95,13.75 -10.16,25.08 -11.17,29.96 0.01,-0.01 0.01,-0.01 0.02,-0.02 2.08,-1.11 10.16,-6.53 16.66,-10.89 12.03,-8.07 12.58,-8.36 13.44,-8.59 1.62,-0.43 3.27,0.55 3.69,2.17 0.39,1.48 -0.4,3 -1.78,3.56 -1.13,0.62 -7.14,4.65 -11.98,7.89 -7.29,4.89 -14.82,9.94 -17.16,11.2 -1.03,0.55 -1.84,1.04 -2.48,1.43 -1.12,0.68 -2.27,1.37 -3.48,1.37z"/>
  </g>
  <path class="fil1" d="M157.27 339.56c-0.74,0 -1.47,-0.24 -2.1,-0.7 -1.51,-1.12 -3.58,-2.64 -7.74,-34.67 -0.1,-0.79 -0.17,-1.3 -0.19,-1.46 -0.26,-1.64 0.83,-3.19 2.46,-3.48 1.63,-0.29 3.18,0.76 3.49,2.39 0.03,0.11 0.11,0.74 0.25,1.77 2.19,16.9 3.74,24.62 4.69,28.13 2.34,-2.26 6.12,-5.54 12.02,-8.9 7.29,-4.17 15.14,-8.33 23.45,-12.72 14.17,-7.51 28.83,-15.27 40.48,-23.06 14.03,-9.38 17.52,-16.83 22.35,-27.15l1.07 -2.29c0.72,-1.51 2.52,-2.16 4.03,-1.44 1.52,0.71 2.16,2.52 1.45,4.03l-1.07 2.26c-4.84,10.36 -9.03,19.31 -24.46,29.62 -11.91,7.96 -26.71,15.8 -41.02,23.38 -8.26,4.37 -16.07,8.51 -23.28,12.62 -6.96,3.98 -10.66,7.81 -12.43,9.64 -1.07,1.11 -1.72,1.78 -2.87,1.98 -0.19,0.03 -0.39,0.05 -0.58,0.05z"/>
  <path class="fil1" d="M297.75 289.65c-0.5,0 -1.01,-0.12 -1.48,-0.39l-0.56 -0.31c-5.43,-2.35 -10.4,-7 -13.62,-10.51 -5.37,-5.86 -8.68,-7.99 -14.16,-11.52 -1.18,-0.76 -2.46,-1.58 -3.86,-2.51 -3.31,-2.18 -9.74,-8.31 -15.96,-14.24 -3.99,-3.8 -8.96,-8.53 -10.08,-9.2 -1.52,-0.7 -2.14,-2.48 -1.44,-4 0.71,-1.51 2.56,-2.15 4.07,-1.45 1.51,0.7 4.39,3.37 11.63,10.27 5.46,5.21 12.26,11.69 15.11,13.57 1.39,0.91 2.64,1.72 3.81,2.47 5.68,3.66 9.44,6.08 15.34,12.51 2.85,3.11 7.19,7.2 11.69,9.1 0.1,0.05 0.21,0.1 0.3,0.15l0.7 0.4c1.46,0.82 1.97,2.67 1.15,4.12 -0.55,0.99 -1.58,1.54 -2.64,1.54z"/>
  <g>
   <path class="fil1" d="M129.74 276.32c0,0 0,0 0,0 0,0 0,0 0,0zm0 0.01l0.02 0 -0.02 0zm-55.28 18.22c-0.64,0 -1.28,-0.21 -1.83,-0.62 -1.33,-1.02 -1.59,-2.92 -0.58,-4.25 0.6,-0.78 0.73,-0.83 4.27,-2.13 1.58,-0.59 4.52,-1.67 5.12,-2 8.9,-5.8 17.19,-6.28 25.98,-6.79 5.31,-0.31 10.8,-0.63 16.88,-2.17 1.19,-0.3 4.83,-1.95 6,-2.7 0.43,-0.57 1.06,-0.98 1.81,-1.14 1.64,-0.31 3.23,0.73 3.57,2.37 0.92,4.54 -9.78,7.31 -9.89,7.34 -6.64,1.68 -12.69,2.03 -18.02,2.34 -8.3,0.48 -15.48,0.9 -23.1,5.87 -0.75,0.49 -2.22,1.07 -6.26,2.56 -1.1,0.41 -2.05,0.75 -2.47,0.93 -0.45,0.25 -0.97,0.39 -1.48,0.39z"/>
  </g>
 </g>
</svg>
