<?xml version="1.0" encoding="UTF-8"?>
<!DOCTYPE svg PUBLIC "-//W3C//DTD SVG 1.1//EN" "http://www.w3.org/Graphics/SVG/1.1/DTD/svg11.dtd">
<!-- Creator: CorelDRAW 2018 (64-Bit) -->
<svg xmlns="http://www.w3.org/2000/svg" xml:space="preserve" width="845px" height="845px" version="1.1" style="shape-rendering:geometricPrecision; text-rendering:geometricPrecision; image-rendering:optimizeQuality; fill-rule:evenodd; clip-rule:evenodd"
viewBox="0 0 361.04 361.04"
 xmlns:xlink="http://www.w3.org/1999/xlink">
 <defs>
  <style type="text/css">
   <![CDATA[
    .fil0 {fill:none}
    .fil2 {fill:black}
    .fil1 {fill:black;fill-rule:nonzero}
   ]]>
  </style>
 </defs>
 <g id="Слой_x0020_1">
  <metadata id="CorelCorpID_0Corel-Layer"/>
  <rect class="fil0" width="361.04" height="361.04"/>
 </g>
 <g id="_1">
  <metadata id="CorelCorpID_1Corel-Layer"/>
  <path class="fil1" d="M196.59 151.95l-8.45 0c-1.67,0 -3.03,-1.35 -3.03,-3.03 0,-1.67 1.36,-3.02 3.03,-3.02l8.45 0c1.67,0 3.02,1.35 3.02,3.02 0,1.68 -1.35,3.03 -3.02,3.03z"/>
  <path class="fil1" d="M126.89 145.62c-0.33,0 -0.67,-0.06 -1,-0.17l-21.72 -7.55c-1.58,-0.55 -2.42,-2.27 -1.87,-3.85 0.55,-1.58 2.27,-2.42 3.86,-1.86l21.72 7.54c1.58,0.55 2.42,2.27 1.87,3.85 -0.44,1.25 -1.61,2.04 -2.86,2.04z"/>
  <path class="fil1" d="M200.18 150.09c2.75,8.07 5.64,15.02 10.78,19.37 6.93,5.85 18.13,6.67 27.89,2.02 11.71,-5.59 12.31,-15.29 13.07,-27.58 0.03,-0.53 0.07,-1.07 0.1,-1.61l-5.6 -0.42c-19.68,-1.5 -30.85,-2.35 -46.24,8.22zm25.59 30.5c-7.01,0 -13.63,-2.2 -18.72,-6.51 -6.78,-5.74 -10.05,-14.35 -13.34,-24.2 -0.41,-1.25 0.03,-2.63 1.09,-3.4 18.16,-13.23 31.65,-12.2 52.08,-10.65l8.53 0.65c0.05,0 0.09,0 0.13,0.01l2.83 0.21c1.67,0.13 2.91,1.58 2.79,3.25 -0.13,1.62 -1.47,2.85 -3.1,2.8 -0.03,0.51 -0.06,1.02 -0.1,1.53 -0.81,13.13 -1.58,25.54 -16.5,32.66 -5.12,2.44 -10.51,3.65 -15.69,3.65z"/>
  <path class="fil1" d="M188.14 151.95c-0.49,0 -0.98,-0.12 -1.44,-0.36 -20.1,-10.84 -39.34,-12.85 -58.83,-6.14 -1.58,0.55 -3.3,-0.29 -3.85,-1.88 -0.54,-1.58 0.3,-3.3 1.88,-3.84 20.88,-7.19 42.3,-5 63.68,6.53 1.47,0.79 2.02,2.63 1.22,4.1 -0.54,1.02 -1.59,1.59 -2.66,1.59z"/>
  <path class="fil1" d="M156.39 180.53c-6.49,0 -13.56,-1.3 -19.73,-4.8 -10.48,-5.96 -10.87,-13.78 -11.57,-27.97 -0.08,-1.66 -0.17,-3.43 -0.28,-5.32 -0.09,-1.67 1.18,-3.11 2.85,-3.2 1.63,-0.06 3.11,1.18 3.2,2.85 0.11,1.91 0.2,3.7 0.28,5.37 0.72,14.51 1.25,18.87 8.52,23.01 8.63,4.91 19.83,4.57 26.81,2.79 4.53,-1.15 7.86,-3.27 10.5,-6.66 3.3,-4.25 6.73,-11.46 6.48,-17.24 -0.07,-1.67 1.23,-3.09 2.9,-3.16 1.67,-0.07 3.08,1.23 3.15,2.89 0.34,7.86 -3.96,16.35 -7.75,21.22 -3.45,4.45 -7.96,7.33 -13.79,8.82 -3.34,0.85 -7.33,1.4 -11.57,1.4z"/>
  <path class="fil1" d="M140.01 153.28c-0.67,0 -1.33,-0.34 -1.72,-0.95 -0.58,-0.95 -0.29,-2.2 0.66,-2.78 14.95,-9.26 19.09,-9.32 34.07,-0.48 0.96,0.57 1.28,1.8 0.71,2.77 -0.57,0.96 -1.8,1.28 -2.76,0.71 -13.7,-8.08 -16.22,-8.04 -29.9,0.43 -0.33,0.2 -0.69,0.3 -1.06,0.3z"/>
  <path class="fil1" d="M212.43 153.58c-0.6,0 -1.2,-0.26 -1.59,-0.77 -0.69,-0.88 -0.53,-2.15 0.34,-2.84 11.19,-8.75 18.92,-11.27 30.08,-0.78 0.82,0.76 0.86,2.04 0.09,2.85 -0.76,0.81 -2.04,0.85 -2.85,0.09 -9.07,-8.52 -14.39,-7.14 -24.83,1.02 -0.37,0.29 -0.81,0.43 -1.24,0.43z"/>
  <path class="fil1" d="M213.33 136.23c-0.84,0 -1.63,-0.53 -1.91,-1.37 -0.36,-1.05 0.21,-2.2 1.26,-2.56l9.01 -3.05c11.83,-4.01 15.4,-5.22 28.46,-2.13 1.09,0.26 1.76,1.34 1.5,2.43 -0.25,1.08 -1.34,1.75 -2.43,1.5 -11.93,-2.82 -14.68,-1.9 -26.23,2.02l-9.01 3.05c-0.22,0.08 -0.44,0.11 -0.65,0.11z"/>
  <path class="fil1" d="M175.19 136.44c-0.18,0 -0.36,-0.03 -0.55,-0.08l-9.78 -2.74c-11.82,-3.32 -22.24,-5.64 -29.91,-0.48 -0.92,0.62 -2.18,0.38 -2.8,-0.55 -0.62,-0.92 -0.38,-2.18 0.55,-2.8 9.1,-6.13 20.44,-3.65 33.25,-0.06l9.79 2.75c1.07,0.3 1.69,1.41 1.39,2.49 -0.25,0.89 -1.06,1.47 -1.94,1.47z"/>
  <path class="fil1" d="M155.37 208.37c-0.11,0 -0.22,-0.01 -0.34,-0.03 -1.1,-0.18 -1.84,-1.22 -1.66,-2.32 1.29,-7.77 5.71,-14.01 13.9,-19.65 0.91,-0.64 2.17,-0.41 2.81,0.51 0.63,0.92 0.4,2.17 -0.52,2.81 -7.33,5.05 -11.09,10.29 -12.2,17 -0.17,0.98 -1.02,1.68 -1.99,1.68z"/>
  <path class="fil1" d="M228.96 213c-0.31,0 -0.63,-0.08 -0.93,-0.23 -0.99,-0.51 -1.37,-1.73 -0.86,-2.72 0.73,-1.42 1.17,-2.14 1.5,-2.71 0.49,-0.8 0.72,-1.19 1.5,-3.2 -3.21,-6.88 -14.31,-17.38 -20.18,-17.67 -1.12,-0.06 -1.98,-1 -1.92,-2.12 0.05,-1.11 1.03,-1.98 2.11,-1.91 8.24,0.4 21.01,13.33 24.04,20.9 0.19,0.47 0.19,0.99 0.01,1.46 -1.1,2.92 -1.42,3.49 -2.09,4.62 -0.31,0.51 -0.71,1.18 -1.39,2.49 -0.36,0.69 -1.06,1.09 -1.79,1.09z"/>
  <path class="fil1" d="M190.71 224.67c-1.45,0 -2.75,-0.23 -3.9,-0.5 -1.73,-0.39 -3.25,-0.91 -4.59,-1.37 -2.9,-0.99 -5.19,-1.77 -8.78,-1.14 -1.46,0.25 -4.22,0.92 -6.49,1.65 -2.21,0.72 -4.09,0.07 -5.22,-0.31 -0.21,-0.08 -0.4,-0.15 -0.58,-0.19 -1.68,-0.01 -2.94,-1.37 -2.93,-3.04 0.01,-1.67 1.45,-3 3.11,-3l0.02 0c0.91,0 1.67,0.27 2.35,0.5 0.68,0.23 1.11,0.37 1.38,0.28 2.55,-0.83 5.61,-1.56 7.31,-1.86 5.13,-0.89 8.51,0.26 11.79,1.38 1.26,0.43 2.56,0.87 3.98,1.2 1.67,0.38 3.14,0.52 4.91,-0.03 10.09,-3.16 12.18,-2.82 16.75,-1.36 1.16,0.36 2.46,0.78 4.29,1.18 1.06,0.24 1.96,0.38 3,-0.11 1.51,-0.71 3.31,-0.05 4.02,1.46 0.71,1.52 0.06,3.32 -1.45,4.03 -3,1.4 -5.62,0.82 -6.89,0.53 -2.08,-0.46 -3.59,-0.94 -4.8,-1.32 -3.33,-1.06 -4.33,-1.38 -13.11,1.37 -1.52,0.47 -2.9,0.65 -4.17,0.65z"/>
  <path class="fil1" d="M189.38 236.95c-4.81,0 -9.54,-1.98 -16.61,-6.56 -1.41,-0.91 -1.81,-2.78 -0.9,-4.19 0.91,-1.4 2.79,-1.8 4.19,-0.89 12.23,7.91 14.76,6.78 28.79,0.42 1.52,-0.69 3.31,-0.01 4,1.51 0.69,1.52 0.02,3.32 -1.51,4.01 -7.89,3.57 -12.97,5.7 -17.96,5.7z"/>
  <path class="fil1" d="M260.7 185.36c-0.78,0 -1.55,-0.29 -2.14,-0.89 -1.18,-1.18 -1.18,-3.1 0,-4.28 1.72,-1.71 2.88,-4.63 3.73,-6.76 0.59,-1.48 1.02,-2.55 1.63,-3.35 1.2,-1.72 4.21,-13.41 4.54,-17.04 0.2,-2.08 0.81,-4.22 1.4,-6.28 1.73,-5.98 1.39,-6.72 0.07,-7.17 -0.49,-0.15 -2.34,-0.05 -3.57,0.81 -1.63,1.14 -2.56,3.33 -2.59,4.02 -0.1,1.67 -1.56,2.95 -3.19,2.86 -1.67,-0.09 -2.95,-1.52 -2.86,-3.19 0.13,-2.53 1.99,-6.43 5.17,-8.65 2.9,-2.04 6.81,-2.34 9.01,-1.58 7.26,2.49 5.17,9.76 3.79,14.57 -0.52,1.8 -1.05,3.65 -1.2,5.17 -0.26,2.91 -3.27,16.91 -5.77,20.17 -0.13,0.21 -0.52,1.19 -0.8,1.9 -1.05,2.62 -2.48,6.21 -5.08,8.81 -0.59,0.59 -1.36,0.88 -2.14,0.88z"/>
  <path class="fil1" d="M108.78 192.15c-0.38,0 -0.77,-0.07 -1.14,-0.22 -3.99,-1.63 -5.23,-15.56 -5.36,-17.14 -0.19,-2.37 -2.62,-9.29 -3.92,-13.01 -1.15,-3.29 -1.3,-3.75 -1.35,-4.37 -0.12,-1.61 -0.93,-3.64 -1.72,-5.6 -1.77,-4.38 -4.18,-10.38 0.93,-14.88 1.97,-1.74 4.59,-2.46 7.36,-2.02 3.36,0.53 6.6,2.66 8.26,5.44 0.85,1.44 0.38,3.3 -1.05,4.15 -1.44,0.86 -3.3,0.39 -4.16,-1.05 -0.72,-1.21 -2.44,-2.32 -3.98,-2.56 -1,-0.16 -1.81,0.04 -2.43,0.58 -1.62,1.43 -1.25,3.27 0.68,8.08 0.94,2.32 1.9,4.71 2.13,7.17 0.15,0.49 0.62,1.85 1.05,3.06 2.1,5.99 4,11.61 4.24,14.51 0.2,2.5 1.57,10.63 2.48,12.57 0.93,0.83 1.28,2.19 0.79,3.4 -0.48,1.18 -1.62,1.89 -2.81,1.89z"/>
  <path class="fil1" d="M114.97 189.59c-1.26,0 -3.16,2.67 -3.16,6.7 0,4.03 1.9,6.7 3.16,6.7 1.25,0 3.15,-2.67 3.15,-6.7 0,-4.03 -1.9,-6.7 -3.15,-6.7zm0 19.46c-5.17,0 -9.22,-5.61 -9.22,-12.76 0,-7.16 4.05,-12.76 9.22,-12.76 5.16,0 9.21,5.6 9.21,12.76 0,7.15 -4.05,12.76 -9.21,12.76z"/>
  <path class="fil1" d="M259.95 186.94c-1.26,0 -3.16,2.68 -3.16,6.71 0,4.03 1.9,6.7 3.16,6.7 1.25,0 3.15,-2.67 3.15,-6.7 0,-4.03 -1.9,-6.71 -3.15,-6.71zm0 19.47c-5.17,0 -9.22,-5.61 -9.22,-12.76 0,-7.16 4.05,-12.76 9.22,-12.76 5.16,0 9.21,5.6 9.21,12.76 0,7.15 -4.05,12.76 -9.21,12.76z"/>
  <path class="fil1" d="M190.24 77.8c-4.58,0 -7.15,-4.14 -9.63,-8.14 -3.6,-5.81 -7.02,-11.3 -15.9,-9.53 -5.7,1.14 -8.54,3.25 -11.83,5.69 -3.98,2.96 -8.48,6.31 -18.16,8.3 -8.26,1.7 -16.69,2.25 -21.01,2.04 -0.08,0 -0.36,0.01 -0.62,0.02 -0.28,0 -0.56,0.01 -0.74,0.01 -1.67,0 -3.03,-1.36 -3.03,-3.03 0,-1.67 1.36,-3.03 3.03,-3.03l0.58 -0.01c0.44,-0.01 0.89,-0.02 1.07,-0.01 4.1,0.2 12.1,-0.4 19.5,-1.92 8.36,-1.72 11.96,-4.39 15.77,-7.23 3.55,-2.63 7.22,-5.36 14.26,-6.76 13.01,-2.6 18.55,6.35 22.23,12.27 1.53,2.47 3.27,5.27 4.51,5.27 0.04,0 0.08,0 0.13,0 1.62,0 2.97,1.29 3.02,2.93 0.06,1.67 -1.25,3.07 -2.93,3.13 -0.08,0 -0.16,0 -0.25,0z"/>
  <path class="fil1" d="M200.04 71.16c-0.38,0 -0.78,-0.08 -1.16,-0.24 -2.15,-0.9 -3.89,-3.12 -6.09,-5.93 -6.04,-7.71 -15.18,-19.36 -37.95,-12.95 -1.82,0.51 -4.61,1.43 -7.85,2.49 -9.91,3.27 -17.79,5.77 -21.47,5.77 -1.67,0 -3.03,-1.36 -3.03,-3.03 0,-1.67 1.36,-3.03 3.03,-3.03 3.01,0 12.98,-3.29 19.58,-5.46 3.3,-1.09 6.16,-2.03 8.1,-2.57 26.69,-7.51 38.18,7.17 44.36,15.05 1.25,1.59 2.96,3.78 3.66,4.08 1.53,0.66 2.26,2.43 1.61,3.97 -0.49,1.15 -1.61,1.85 -2.79,1.85z"/>
  <path class="fil1" d="M210.91 68.14c-0.71,0 -1.42,-0.25 -2,-0.76 -3.79,-3.34 -5.72,-6.17 -7.58,-8.92 -2.2,-3.23 -4.28,-6.29 -9.63,-10.57 -6.82,-5.45 -20.59,-8.72 -29.96,-8.72 -8.8,0 -14.7,0.46 -23.59,1.2 -1.68,0.14 -3.13,-1.1 -3.27,-2.76 -0.14,-1.67 1.1,-3.13 2.76,-3.27 9.09,-0.76 15.24,-1.22 24.1,-1.22 10.53,0 25.5,3.45 33.75,10.04 6.06,4.85 8.6,8.6 10.85,11.9 1.8,2.65 3.36,4.95 6.58,7.78 1.25,1.11 1.37,3.02 0.26,4.28 -0.6,0.68 -1.43,1.02 -2.27,1.02z"/>
  <path class="fil1" d="M222.38 68.14c-0.68,0 -1.36,-0.22 -1.92,-0.69 -2.97,-2.43 -5.36,-6.7 -7.88,-11.23 -2.78,-4.97 -5.93,-10.61 -9.76,-13.29 -3.21,-2.24 -5.76,-4.12 -8.02,-5.79 -9.97,-7.35 -12.05,-8.88 -29.68,-10.37 -1.67,-0.14 -2.9,-1.61 -2.76,-3.27 0.13,-1.67 1.59,-2.9 3.27,-2.77 19.34,1.64 22.18,3.74 32.76,11.54 2.23,1.64 4.75,3.5 7.9,5.7 4.97,3.48 8.48,9.76 11.58,15.3 2.24,4.01 4.35,7.8 6.43,9.5 1.29,1.06 1.48,2.97 0.42,4.26 -0.6,0.73 -1.47,1.11 -2.34,1.11z"/>
  <path class="fil1" d="M231.73 65.73c-0.47,0 -0.95,-0.11 -1.4,-0.35 -5.49,-2.87 -9.11,-10.09 -12.95,-17.75 -2.89,-5.77 -5.88,-11.74 -9.63,-15.75 -0.09,-0.09 -0.17,-0.19 -0.24,-0.29 -0.06,-0.08 -0.16,-0.24 -0.21,-0.32 -0.09,-0.15 -0.28,-0.49 -0.38,-0.64 -1.01,-1.34 -0.7,-3.19 0.64,-4.19 1.34,-1 3.27,-0.69 4.27,0.65 0.09,0.13 0.37,0.58 0.56,0.9 4.25,4.62 7.38,10.88 10.41,16.93 3.23,6.46 6.57,13.13 10.33,15.1 1.49,0.77 2.06,2.6 1.29,4.08 -0.54,1.04 -1.6,1.63 -2.69,1.63z"/>
  <path class="fil1" d="M229.21 36.7c0,0 -0.01,0 -0.01,0 0,0 0.01,0 0.01,0zm10.97 31.44c-1.67,0 -3.03,-1.35 -3.03,-3.03l0.01 -0.61c-0.07,-0.17 -0.14,-0.37 -0.23,-0.64 -1.1,-3.25 -4.16,-8.38 -6.87,-12.91 -5.14,-8.6 -7.58,-12.87 -6.66,-15.96 0.47,-1.61 2.16,-2.52 3.76,-2.05 1.51,0.45 2.41,1.97 2.11,3.49 0.21,1.74 3.68,7.55 5.99,11.42 3,5.02 6.11,10.21 7.41,14.08 0.11,0.32 0.18,0.49 0.22,0.61 0.31,0.78 0.34,1.2 0.32,1.92l0 0.65c0,1.68 -1.36,3.03 -3.03,3.03z"/>
  <path class="fil1" d="M117.86 88.52c-2.89,0 -5.57,-0.37 -7.74,-1.32 -1.52,-0.68 -2.22,-2.46 -1.55,-3.99 0.67,-1.54 2.46,-2.23 3.99,-1.56 4.07,1.79 14.47,0.47 25.3,-3.2 3.2,-1.08 5.79,-2.53 8.29,-3.94 4.56,-2.55 9.28,-5.19 16.33,-4.45 3.64,0.38 8.44,1.63 10.98,4.01 1.22,1.14 1.28,3.05 0.14,4.28 -1.14,1.22 -3.06,1.28 -4.28,0.14 -0.97,-0.91 -3.85,-2.03 -7.47,-2.41 -5.14,-0.53 -8.33,1.25 -12.74,3.72 -2.61,1.47 -5.58,3.13 -9.31,4.39 -3.59,1.22 -13.59,4.33 -21.94,4.33z"/>
  <path class="fil1" d="M106.4 102.77c-1.06,0 -2,-0.07 -2.8,-0.23 -1.64,-0.32 -2.71,-1.91 -2.39,-3.55 0.33,-1.64 1.91,-2.71 3.56,-2.39 4.42,0.87 18.68,-2.65 21.77,-5.39 1.25,-1.11 3.17,-0.99 4.27,0.26 1.11,1.25 0.99,3.16 -0.26,4.27 -3.93,3.48 -16.76,7.03 -24.15,7.03z"/>
  <path class="fil1" d="M109.64 115.56c-1.53,0 -3.24,-0.19 -5.17,-0.66 -1.63,-0.4 -2.63,-2.04 -2.23,-3.66 0.4,-1.62 2.02,-2.62 3.66,-2.23 5.05,1.24 7.48,0 10.54,-1.57 2.01,-1.02 4.28,-2.19 7.26,-2.49 1.69,-0.16 3.16,1.03 3.33,2.7 0.17,1.66 -1.04,3.15 -2.7,3.32 -1.86,0.19 -3.37,0.97 -5.13,1.86 -2.45,1.26 -5.33,2.73 -9.56,2.73z"/>
  <path class="fil1" d="M109.48 125.9c-0.85,0 -1.69,-0.03 -2.52,-0.06l-0.23 -0.01c-1.68,-0.06 -2.98,-1.46 -2.92,-3.13 0.06,-1.68 1.46,-2.99 3.13,-2.92l0.23 0.01c4.24,0.15 6.38,0.12 8.8,-2.03 1.26,-1.11 3.17,-0.99 4.28,0.26 1.11,1.25 0.99,3.16 -0.26,4.27 -3.5,3.1 -7.04,3.61 -10.51,3.61z"/>
  <path class="fil1" d="M248.31 78.36c-1.67,0 -3.03,-1.35 -3.03,-3.03 0,-6.16 -2.47,-24.38 -5.71,-28.49 -1.03,-1.31 -0.81,-3.21 0.5,-4.25 1.32,-1.03 3.22,-0.81 4.26,0.5 5.1,6.47 7.01,28.28 7.01,32.24 0,1.68 -1.36,3.03 -3.03,3.03z"/>
  <path class="fil1" d="M254.07 102.9c-1.67,0 -3.03,-1.35 -3.03,-3.02 0,-4.6 0.65,-7.71 1.27,-10.72 0.99,-4.74 1.92,-9.21 -0.04,-19.95 -0.3,-1.64 0.79,-3.22 2.43,-3.52 1.64,-0.3 3.22,0.79 3.52,2.44 2.18,11.89 1.08,17.16 0.02,22.26 -0.59,2.84 -1.14,5.52 -1.14,9.49 0,1.67 -1.36,3.02 -3.03,3.02z"/>
  <path class="fil1" d="M256.16 137.43c0,0 0,0 0,0 0,0 0,0 0,0zm-0.26 0.29l0.26 -0.29zm1.98 5.32c-0.85,0 -1.7,-0.36 -2.3,-1.05 -1.02,-1.19 -0.96,-2.95 0.1,-4.06 0.94,-1.77 2.21,-11.01 2.77,-24.97 0.82,-20.69 -4.16,-41.74 -7.19,-47.71 -8.19,-16.19 -20.89,-29.72 -33.14,-35.31 -17.36,-7.92 -35.78,-8.19 -46.27,-6.02 -6.46,1.34 -12.89,3.68 -19.1,6.97 -12.14,6.42 -23.43,16.39 -32.64,28.82 -16.4,22.14 -13.62,44.32 -11.79,59 1.05,8.38 1.81,14.44 -0.94,18.36 -0.95,1.37 -2.84,1.71 -4.21,0.75 -1.37,-0.96 -1.7,-2.85 -0.75,-4.22 1.41,-2.01 0.67,-7.9 -0.11,-14.14 -1.95,-15.63 -4.91,-39.26 12.94,-63.35 9.74,-13.16 21.73,-23.73 34.67,-30.57 6.72,-3.56 13.68,-6.1 20.7,-7.55 15,-3.1 34.63,-0.57 50.02,6.44 13.43,6.13 27.24,20.73 36.03,38.09 3.73,7.37 8.67,29.67 7.83,50.69 -1.04,25.99 -3.57,28.16 -4.64,29.09 -0.58,0.5 -1.28,0.74 -1.98,0.74z"/>
  <path class="fil1" d="M258.11 139.8c0,0 0,0 0,0 0,0 0,0 0,0zm-67.38 128.33c-16.74,0 -22.93,-3.96 -26.69,-8.01 -4.91,-5.28 -8.59,-7.37 -12.15,-9.39 -2.75,-1.57 -5.6,-3.18 -8.64,-6.1 -10.57,-10.15 -18.73,-26.25 -24.95,-49.21 -1.41,-5.2 -2.54,-12.15 -3.73,-19.51 -1.97,-12.11 -4.2,-25.84 -7.97,-32.52 -0.82,-1.45 -0.31,-3.3 1.15,-4.12 1.46,-0.83 3.3,-0.31 4.12,1.14 4.3,7.62 6.53,21.3 8.68,34.53 1.16,7.2 2.27,14 3.6,18.9 5.83,21.56 13.67,37.18 23.3,46.42 2.49,2.4 4.78,3.69 7.43,5.2 3.78,2.14 8.05,4.57 13.6,10.55 3.19,3.43 9.59,7.21 30.87,5.75 8.08,-0.55 11.71,-3.77 16.32,-8.62 4.16,-4.38 8.18,-7.47 12.06,-10.46 6.87,-5.29 12.8,-9.85 16.8,-20.13 4.3,-11.01 6.23,-20.08 5.9,-27.72 -0.16,-3.72 1.26,-10.6 2.92,-18.56 1.8,-8.69 3.83,-18.53 3.72,-24.27 -0.03,-1.13 0.13,-2.64 0.32,-4.38 0.21,-2.03 0.7,-6.65 0.22,-8.1 -1.18,-0.8 -1.66,-2.35 -1.07,-3.7 0.66,-1.54 2.45,-2.24 3.98,-1.58 4.17,1.81 3.52,8.01 2.89,14.01 -0.16,1.48 -0.3,2.88 -0.29,3.62 0.13,6.43 -1.98,16.63 -3.84,25.63 -1.44,6.93 -2.93,14.1 -2.8,17.07 0.36,8.5 -1.7,18.37 -6.3,30.18 -4.63,11.85 -11.49,17.13 -18.76,22.72 -3.69,2.85 -7.52,5.8 -11.36,9.84 -5.07,5.33 -10.09,9.79 -20.3,10.49 -3.31,0.23 -6.31,0.33 -9.03,0.33z"/>
  <path class="fil1" d="M109.48 171.1c0,0 0,0 0,0 0,0 0,0 0,0zm1.26 3.59c-0.6,0 -1.18,-0.26 -1.58,-0.76 -0.6,-0.75 -0.58,-1.79 -0.01,-2.51 0.67,-2.44 -1.57,-14.1 -3.86,-15.84 -0.89,-0.68 -1.06,-1.95 -0.38,-2.83 0.67,-0.89 1.94,-1.06 2.83,-0.39 3.54,2.7 5.49,12.88 5.54,17.57 0.02,2.3 -0.36,3.6 -1.29,4.33 -0.37,0.29 -0.81,0.43 -1.25,0.43z"/>
  <path class="fil1" d="M199.14 301.22c-1.25,0 -2.42,-0.78 -2.86,-2.04 -0.55,-1.58 0.29,-3.3 1.87,-3.85 2.49,-1.39 11.08,-15.39 16.22,-23.76 4.31,-7.03 8.04,-13.11 10.4,-16.03 2.77,-3.44 5.15,-8.09 7.25,-12.2 1.59,-3.08 2.95,-5.75 4.3,-7.54 1,-1.33 2.9,-1.6 4.24,-0.6 1.33,1.01 1.6,2.91 0.6,4.24 -1.04,1.37 -2.35,3.94 -3.75,6.67 -2.23,4.36 -4.77,9.3 -7.93,13.23 -2.11,2.62 -5.92,8.83 -9.95,15.4 -10.38,16.92 -15.68,25.03 -19.4,26.32 -0.33,0.11 -0.66,0.16 -0.99,0.16z"/>
  <path class="fil1" d="M168.03 308.05c-0.53,0 -1.06,-0.13 -1.55,-0.41 -3.86,-2.23 -25.29,-30.06 -27.89,-34.36 -10.91,-18.06 -9,-26.03 -7.47,-32.43 0.7,-2.93 1.26,-5.24 0.51,-8.33 -0.39,-1.62 0.61,-3.26 2.23,-3.65 1.63,-0.39 3.26,0.61 3.66,2.23 1.09,4.51 0.28,7.89 -0.51,11.16 -1.41,5.88 -2.86,11.95 6.77,27.89 2.88,4.77 23.02,30.27 25.82,32.3 1.45,0.83 1.9,2.66 1.06,4.11 -0.55,0.96 -1.58,1.49 -2.63,1.49z"/>
  <path class="fil1" d="M162.11 349.11c-5.55,0 -11.07,-0.36 -16.51,-1.09 -14.91,-2.03 -35.55,-7.8 -48.75,-17.95 -5.35,-4.11 -10.04,-9.17 -13.95,-15.03 -5.54,-8.31 -6.19,-21.94 -5.07,-31.09 0.58,-4.71 1.9,-9.25 4.02,-13.87 7.11,-15.47 17.93,-23.07 29.38,-31.1 6.18,-4.34 12.56,-8.82 18.49,-14.74 1.18,-1.18 3.09,-1.18 4.28,0 1.18,1.19 1.18,3.1 0,4.29 -6.3,6.29 -12.9,10.92 -19.29,15.41 -10.76,7.55 -20.93,14.68 -27.36,28.66 -1.86,4.06 -3.01,8.01 -3.51,12.08 -1.07,8.77 -0.23,20.52 4.09,27 3.55,5.31 7.79,9.88 12.61,13.59 12.26,9.42 31.73,14.83 45.87,16.74 40.17,5.46 84.65,-10.66 110.68,-40.09 1.99,-2.25 21.11,-28.96 26.13,-36.71 -4.52,-3.23 -9.57,-6.52 -14.88,-9.98 -9.74,-6.33 -19.8,-12.88 -27.06,-19.57 -1.23,-1.13 -1.31,-3.05 -0.18,-4.28 1.13,-1.23 3.05,-1.31 4.28,-0.17 6.89,6.34 16.74,12.75 26.26,18.94 6.25,4.07 12.15,7.91 17.33,11.77 0.68,0.51 1.13,1.3 1.22,2.14 0.14,1.4 0.2,1.93 -13.52,21.26 -6.32,8.92 -13.68,19.06 -15.05,20.61 -23.77,26.88 -62.2,43.18 -99.51,43.18z"/>
  <path class="fil1" d="M313.79 279.55c-0.41,0 -0.84,-0.09 -1.25,-0.27 -4.97,-2.26 -8.27,-2.73 -11.46,-3.19 -4.69,-0.67 -9.13,-1.3 -16.7,-6.86 -1.35,-0.99 -1.64,-2.88 -0.66,-4.23 0.99,-1.35 2.89,-1.64 4.24,-0.65 6.35,4.66 9.72,5.14 13.98,5.75 3.44,0.49 7.34,1.05 13.11,3.66 1.52,0.7 2.19,2.49 1.5,4.01 -0.5,1.12 -1.61,1.78 -2.76,1.78z"/>
  <path class="fil1" d="M43.42 272.72c-1.33,0 -2.56,-0.89 -2.92,-2.24 -0.44,-1.61 0.52,-3.28 2.13,-3.72 2.72,-0.73 5.41,-1.28 8.82,-1.96 1.15,-0.23 2.38,-0.48 3.71,-0.75 8.16,-1.69 15.73,-4.11 23.06,-6.44 5.29,-1.69 10.76,-3.43 16.29,-4.84 1.62,-0.41 3.27,0.56 3.68,2.18 0.41,1.63 -0.57,3.27 -2.19,3.69 -5.35,1.36 -10.49,3 -15.94,4.74 -7.48,2.38 -15.21,4.85 -23.67,6.6 -1.35,0.28 -2.59,0.53 -3.75,0.76 -3.29,0.66 -5.89,1.19 -8.43,1.87 -0.26,0.07 -0.53,0.11 -0.79,0.11z"/>
  <path class="fil1" d="M193.56 207.4c-3.42,0 -6.82,-1.91 -9.64,-5.43 -0.43,-0.53 -0.85,-1.07 -1.26,-1.6 -0.88,-1.14 -2.15,-2.8 -2.88,-3.34 -5.71,1.47 -10.68,-2.02 -12.1,-6.26 -1.2,-3.58 0.07,-8.08 5.59,-10.07 1.56,-0.57 3.3,0.24 3.87,1.81 0.57,1.58 -0.24,3.31 -1.82,3.88 -2.42,0.88 -2.04,2.02 -1.9,2.45 0.49,1.46 2.52,3.05 5.08,2.26 3.75,-1.17 6.52,2.41 8.96,5.57 0.38,0.5 0.78,1.01 1.18,1.51 1.67,2.08 3.57,3.26 5.07,3.16 1.65,-0.08 2.94,-1.56 3.74,-2.79l0.59 -0.92c0.64,-1.02 1.44,-2.29 2.52,-3.7 1.64,-2.13 4.12,-2.42 5.92,-2.63 0.66,-0.07 1.28,-0.15 1.77,-0.28 0.7,-0.2 1.31,-1.05 1.41,-1.98 0.15,-1.28 -0.75,-1.78 -1.04,-1.94 -1.46,-0.81 -1.99,-2.65 -1.18,-4.12 0.8,-1.46 2.64,-1.99 4.11,-1.18 2.92,1.61 4.5,4.65 4.13,7.93 -0.38,3.37 -2.7,6.23 -5.76,7.11 -0.97,0.27 -1.91,0.38 -2.75,0.48 -0.64,0.07 -1.6,0.18 -1.85,0.35 -0.86,1.14 -1.55,2.23 -2.16,3.19 -0.22,0.35 -0.43,0.68 -0.64,1 -2.84,4.36 -6.19,5.41 -8.51,5.52 -0.15,0.01 -0.3,0.02 -0.45,0.02z"/>
  <path class="fil1" d="M173.58 308.33c-19.52,0 -39.71,-8.78 -46.32,-27.94 -5.63,-16.33 -4.38,-34.83 2.98,-43.99 1.04,-1.3 2.95,-1.5 4.25,-0.46 1.31,1.05 1.52,2.95 0.47,4.26 -5.95,7.4 -6.81,24.18 -1.97,38.21 6.6,19.13 30.52,26.21 49.7,23.15 4.08,-0.65 10.33,-3.15 14.86,-5.94 18.56,-11.46 45.39,-36.34 43.23,-57.96 -0.17,-1.66 1.05,-3.15 2.71,-3.31 1.67,-0.17 3.15,1.04 3.32,2.71 2.62,26.28 -28.99,53.17 -46.08,63.71 -5.29,3.27 -12.16,5.99 -17.09,6.77 -3.28,0.53 -6.66,0.79 -10.06,0.79z"/>
  <path class="fil2" d="M225.69 144.02c2.93,0 5.3,2.37 5.3,5.3 0,2.93 -2.37,5.3 -5.3,5.3 -2.93,0 -5.3,-2.37 -5.3,-5.3 0,-2.93 2.37,-5.3 5.3,-5.3z"/>
  <path class="fil2" d="M156.66 144.54c2.93,0 5.31,2.37 5.31,5.3 0,2.93 -2.38,5.31 -5.31,5.31 -2.92,0 -5.3,-2.38 -5.3,-5.31 0,-2.93 2.38,-5.3 5.3,-5.3z"/>
 </g>
</svg>
