<?xml version="1.0" encoding="UTF-8"?>
<!DOCTYPE svg PUBLIC "-//W3C//DTD SVG 1.1//EN" "http://www.w3.org/Graphics/SVG/1.1/DTD/svg11.dtd">
<!-- Creator: CorelDRAW 2018 (64-Bit) -->
<svg xmlns="http://www.w3.org/2000/svg" xml:space="preserve" width="845px" height="845px" version="1.1" style="shape-rendering:geometricPrecision; text-rendering:geometricPrecision; image-rendering:optimizeQuality; fill-rule:evenodd; clip-rule:evenodd"
viewBox="0 0 361.04 361.04"
 xmlns:xlink="http://www.w3.org/1999/xlink">
 <defs>
  <style type="text/css">
   <![CDATA[
    .fil0 {fill:none}
    .fil2 {fill:black}
    .fil1 {fill:black;fill-rule:nonzero}
   ]]>
  </style>
 </defs>
 <g id="Слой_x0020_1">
  <metadata id="CorelCorpID_0Corel-Layer"/>
  <rect class="fil0" width="361.04" height="361.04"/>
 </g>
 <g id="_1">
  <metadata id="CorelCorpID_1Corel-Layer"/>
  <path class="fil1" d="M158.73 234.94c-8.65,0 -15.63,-2.16 -21.11,-6.51 -6.81,-5.39 -8.39,-11.15 -10.4,-18.43 -0.46,-1.67 -0.95,-3.46 -1.55,-5.39 -0.92,-2.97 -1.99,-6.23 -3.12,-9.67 -3.33,-10.1 -7.1,-21.53 -9.01,-31.94l-4.45 -16.51c-0.11,-0.41 -0.13,-0.84 -0.06,-1.26 0.58,-3.62 1.32,-7.19 2.04,-10.65 0.93,-4.52 1.81,-8.79 2.38,-13.17 0.37,-2.77 0.51,-5.57 0.65,-8.53 0.16,-3.28 0.32,-6.67 0.83,-10.01 0.37,-2.51 1.26,-5.01 2.21,-7.66 0.54,-1.54 1.11,-3.13 1.56,-4.7 0.05,-0.18 0.12,-0.36 0.21,-0.52l12.15 -24.31c0.35,-0.7 0.96,-1.24 1.7,-1.5 19.72,-6.93 20.74,-8.5 30.46,-23.6 1.15,-1.78 2.41,-3.74 3.83,-5.9 0.91,-1.4 2.79,-1.8 4.19,-0.87 1.4,0.91 1.79,2.79 0.87,4.19 -1.4,2.15 -2.66,4.09 -3.8,5.86 -9.87,15.32 -11.8,18.31 -32.38,25.63l-11.48 22.96c-0.49,1.66 -1.06,3.25 -1.61,4.8 -0.84,2.36 -1.64,4.59 -1.93,6.51 -0.45,3.04 -0.6,6.14 -0.76,9.41 -0.15,2.96 -0.3,6.01 -0.69,9.02 -0.6,4.61 -1.55,9.19 -2.46,13.62 -0.66,3.18 -1.34,6.47 -1.89,9.74l4.31 16c0.02,0.08 0.04,0.16 0.06,0.24 1.82,10.03 5.54,21.3 8.81,31.25 1.15,3.48 2.24,6.78 3.17,9.79 0.61,1.99 1.12,3.83 1.6,5.56 1.91,6.94 3.06,11.13 8.32,15.29 7.33,5.81 18.99,6.72 34.66,2.71 11.78,-3.02 40.9,-12.08 56.78,-30.99 1.08,-1.27 2.99,-1.44 4.27,-0.37 1.28,1.08 1.44,2.99 0.37,4.27 -17.02,20.25 -47.57,29.79 -59.92,32.95 -6.99,1.8 -13.24,2.69 -18.81,2.69z"/>
  <path class="fil1" d="M167.46 110.01c-1.02,0 -2.01,-0.51 -2.59,-1.44 -0.87,-1.42 -0.43,-3.29 0.99,-4.16 10.08,-6.22 24,-11.84 42.29,-0.11 1.41,0.91 1.82,2.78 0.92,4.19 -0.9,1.4 -2.78,1.82 -4.19,0.91 -15.32,-9.83 -26.28,-5.73 -35.84,0.16 -0.49,0.31 -1.04,0.45 -1.58,0.45z"/>
  <path class="fil1" d="M142.88 110.36c-0.67,0 -1.34,-0.22 -1.9,-0.67 -1.09,-0.88 -2.04,-1.66 -2.9,-2.37 -6.8,-5.58 -6.8,-5.58 -16.78,-6.08 -1.67,-0.08 -2.95,-1.5 -2.87,-3.17 0.08,-1.67 1.48,-2.98 3.18,-2.88 11.58,0.58 12.79,1.28 20.31,7.45 0.85,0.7 1.79,1.47 2.86,2.34 1.3,1.04 1.51,2.95 0.46,4.25 -0.6,0.74 -1.48,1.13 -2.36,1.13z"/>
  <path class="fil1" d="M204.76 129.39c-0.69,0 -1.39,-0.24 -1.96,-0.72 -11.46,-9.7 -18.12,-12.26 -27.26,-1.76 -1.09,1.26 -3.01,1.39 -4.27,0.29 -1.26,-1.1 -1.39,-3.01 -0.29,-4.27 13.47,-15.47 25.04,-7.93 35.74,1.12 1.27,1.08 1.43,2.99 0.35,4.26 -0.6,0.71 -1.45,1.08 -2.31,1.08z"/>
  <path class="fil1" d="M136.96 125.39c-0.57,0 -1.15,-0.16 -1.66,-0.5l-0.78 -0.51c-7.61,-5.03 -7.91,-5.23 -16.74,-5.23 -1.68,0 -3.03,-1.35 -3.03,-3.03 0,-1.67 1.35,-3.02 3.03,-3.02 10.25,0 11.72,0.7 20.08,6.22l0.77 0.51c1.4,0.92 1.78,2.8 0.86,4.2 -0.58,0.88 -1.54,1.36 -2.53,1.36z"/>
  <g>
   <path class="fil1" d="M137.34 155.36l0.02 0 -0.02 0zm23.48 7.49c-2.2,0 -4.14,-0.49 -4.68,-0.87 -0.38,-0.15 -2.31,-0.57 -9.97,0.11l-0.98 0.1c-3.26,0.31 -6.95,0.67 -10.77,-1.57 -4,-2.35 -3.26,-6.15 -2.66,-9.2l0.07 -0.38c0.32,-1.64 1.92,-2.7 3.55,-2.39 1.64,0.32 2.72,1.91 2.4,3.55l-0.08 0.38c-0.19,0.97 -0.44,2.28 -0.37,2.72 0.02,0.01 0.08,0.05 0.16,0.1 2.12,1.24 4.21,1.04 7.11,0.76l1.03 -0.1c7.35,-0.66 11.15,-0.52 13.32,0.57 1.22,0.2 2.9,0.22 3.59,-0.05 -0.03,-0.24 -0.14,-0.74 -0.53,-1.57 -0.72,-1.51 -0.08,-3.32 1.44,-4.03 1.51,-0.72 3.31,-0.08 4.03,1.44 2.35,4.95 0.47,7.58 -0.86,8.7 -1.55,1.32 -3.78,1.73 -5.8,1.73z"/>
  </g>
  <path class="fil1" d="M169.34 191.15c-4.48,0 -8.77,-0.43 -13.01,-3.94 -5.76,-4.75 -7.1,-4.16 -8.65,-3.49 -0.96,0.42 -2.28,0.99 -4,0.99 -1.98,0 -3.97,-0.76 -5.89,-1.48 -0.65,-0.25 -1.57,-0.6 -2.29,-0.81 -0.13,1.55 -1.43,2.77 -3.01,2.77 -1.68,0 -3.03,-1.36 -3.03,-3.03 0,-2.36 0.75,-4.07 2.23,-5.09 2.46,-1.7 5.53,-0.54 8.25,0.49 1.34,0.51 2.87,1.09 3.74,1.09 0.44,0 0.85,-0.16 1.59,-0.48 3.44,-1.5 6.94,-2.2 14.91,4.37 3.23,2.66 6.61,2.62 11.28,2.53 0.8,-0.01 1.61,-0.02 2.44,-0.02 1.67,0 3.03,1.35 3.03,3.03 0,1.67 -1.36,3.03 -3.03,3.03 -0.8,0 -1.58,0.01 -2.34,0.02 -0.75,0.01 -1.49,0.02 -2.22,0.02z"/>
  <path class="fil1" d="M151.68 201.32c-2.68,0 -5.34,-0.46 -7.74,-0.87 -2.4,-0.41 -4.24,-1.53 -5.72,-2.43 -0.63,-0.38 -1.58,-0.96 -1.92,-1 -1.67,0 -3.01,-1.35 -3.01,-3.03 0,-1.67 1.36,-3.02 3.03,-3.02 1.96,0 3.53,0.96 5.06,1.88 1.19,0.73 2.33,1.42 3.58,1.63 4.47,0.77 9.1,1.56 12.1,-0.68 1.34,-0.99 3.24,-0.72 4.24,0.62 0.99,1.34 0.72,3.24 -0.62,4.24 -2.74,2.04 -5.88,2.66 -9,2.66z"/>
  <path class="fil1" d="M249.96 169.52c-0.94,0 -1.87,-0.37 -2.63,-1.07 -4.86,-4.39 -9.42,-34.08 -9.51,-40.15 -0.01,-0.14 -0.01,-0.27 -0.01,-0.4 -0.21,-0.14 -0.44,-0.3 -0.7,-0.48 -4.51,-3.27 -14.63,-13.24 -16.11,-16.66 -2.9,-6.72 -5.7,-8.54 -8.94,-10.66 -3.81,-2.48 -8.11,-5.28 -11.83,-15.21 -2.36,-2.12 -16.48,-9.12 -19.55,-10.28 -5.55,-2.11 -23.31,-14.97 -24.08,-22.78 -0.16,-1.66 1.05,-3.14 2.72,-3.31 1.67,-0.17 3.15,1.06 3.31,2.72 0.34,3.42 13.93,15.33 20.2,17.7 0.21,0.08 21.37,9.21 22.93,13.45 3.07,8.37 6.1,10.35 9.6,12.64 3.55,2.31 7.57,4.93 11.2,13.33 0.92,1.85 9.46,10.79 14.1,14.15 0.66,0.48 1,0.64 1.22,0.75 1.55,0.75 2.21,1.97 2.04,3.71 -0.02,0.23 -0.06,0.6 -0.05,1.23 0.12,7.99 4.77,31.5 7.36,35.52 0.97,0.43 1.7,1.37 1.79,2.51 0.15,1.67 -1.09,3.13 -2.76,3.28 -0.1,0 -0.2,0.01 -0.3,0.01z"/>
  <path class="fil1" d="M246.12 174.08c-1.35,0.87 -4.41,4.97 -6.38,9.77 -1.05,2.56 -1.26,5.87 -0.57,8.87 0.81,3.49 2.81,5.18 5.65,4.8 2.98,-0.41 5.96,-3.21 5.78,-7.18 -0.28,-5.99 -2.27,-13.13 -4.48,-16.26zm-2 29.54c-4.28,0 -9.2,-2.43 -10.85,-9.53 -0.98,-4.24 -0.66,-8.81 0.87,-12.54 2.05,-4.98 5.83,-10.97 9.11,-12.81 1.14,-0.64 3,-1.22 5.43,-0.39 0.53,0.18 1,0.5 1.36,0.94l0.2 0.24c3.79,4.36 6.09,13.62 6.4,20.54 0.34,7.42 -5.32,12.66 -10.99,13.44 -0.5,0.07 -1.01,0.11 -1.53,0.11z"/>
  <path class="fil1" d="M215.31 77.77c-0.18,0 -0.36,-0.03 -0.54,-0.08 -15.09,-4.23 -31.02,-12.62 -47.36,-24.95 -0.89,-0.68 -1.07,-1.94 -0.4,-2.83 0.67,-0.89 1.94,-1.07 2.83,-0.4 15.94,12.03 31.42,20.2 46.02,24.29 1.07,0.31 1.7,1.42 1.39,2.49 -0.25,0.9 -1.06,1.48 -1.94,1.48z"/>
  <path class="fil1" d="M247.29 104.2c-1.47,0 -2.76,-1.07 -2.99,-2.57 -1.48,-9.55 -32.28,-42.01 -69.68,-55.65 -1.57,-0.58 -2.38,-2.32 -1.81,-3.89 0.57,-1.57 2.31,-2.38 3.89,-1.8 36.92,13.47 71.46,46.7 73.58,60.42 0.26,1.65 -0.88,3.2 -2.53,3.45 -0.15,0.03 -0.31,0.04 -0.46,0.04z"/>
  <path class="fil1" d="M274.74 108.59c-1.12,0 -2.2,-0.63 -2.73,-1.71 -4.28,-8.85 -12.1,-18.93 -22.61,-29.16 -27.34,-26.59 -39.07,-30.06 -56.82,-35.31 -2.03,-0.6 -4.14,-1.22 -6.35,-1.91 -1.6,-0.49 -2.5,-2.18 -2.01,-3.78 0.5,-1.6 2.19,-2.49 3.79,-2.01 2.19,0.68 4.28,1.3 6.29,1.89 18.61,5.51 30.91,9.15 59.32,36.79 7.68,7.46 18.05,18.88 23.84,30.86 0.73,1.5 0.1,3.31 -1.4,4.04 -0.43,0.2 -0.88,0.3 -1.32,0.3z"/>
  <path class="fil1" d="M258.16 68.81c-0.77,0 -1.5,-0.44 -1.84,-1.19 -7.29,-16.17 -35.86,-30.02 -47.38,-30.79 -1.11,-0.08 -1.95,-1.04 -1.88,-2.15 0.07,-1.11 1.05,-1.92 2.15,-1.88 12.65,0.84 42.79,15.43 50.79,33.17 0.46,1.01 0.01,2.21 -1.01,2.66 -0.27,0.13 -0.55,0.18 -0.83,0.18z"/>
  <path class="fil1" d="M283.63 170.43c0,0.01 -0.01,0.02 -0.01,0.02 0,0 0.01,-0.01 0.01,-0.02zm-21.39 113.17c-1.35,0 -2.58,-0.91 -2.93,-2.28 -0.42,-1.62 0.55,-3.27 2.18,-3.68 1.23,-0.56 2.73,-6.88 1.94,-11.86 -0.79,-5.03 -3.55,-6.77 -3.66,-6.84 -0.88,-0.53 -1.45,-1.49 -1.48,-2.51 -0.02,-1.02 0.44,-2.01 1.28,-2.59 3.86,-2.68 6.1,-5.4 6.47,-7.88 0.24,-1.61 -0.3,-3.23 -1.66,-4.95l-0.42 -0.52c-0.55,-0.69 -1.17,-1.47 -1.81,-2.43 -0.73,-1.08 -0.67,-2.51 0.13,-3.53 0.75,-0.97 1.99,-1.38 3.16,-1.07 1.05,-1.15 2.26,-6.13 1.94,-11.5 -0.24,-3.96 -1.17,-7.28 -1.85,-9.71 -0.77,-2.74 -1.23,-4.39 -0.28,-5.97 0.49,-0.82 1.28,-1.38 2.21,-1.58 5.06,-1.1 8.31,-6.62 9.3,-11.6 0.75,-3.78 0.42,-8.59 -2.73,-10.77 -0.8,-0.56 -1.29,-1.47 -1.31,-2.44 -0.01,-0.98 0.44,-1.9 1.23,-2.49 4.35,-3.22 4.13,-4.53 3.91,-5.8 -0.2,-1.14 -0.52,-3.06 0.99,-4.89 6.33,-8.52 7.75,-16.24 7.9,-25.17 0.52,-30.69 -4.12,-55.04 -14.16,-74.42 -4.74,-9.14 -10.52,-16.87 -17.19,-22.97 -13.88,-12.7 -25.88,-14.08 -44.06,-16.17l-1.71 -0.19c-15.23,-1.75 -34.94,1.07 -52.72,7.57 -20.25,7.41 -30.45,16.33 -37.64,32.91 -7.37,17.03 -11.44,36.68 -8.87,42.91 0.84,2.05 0.8,5.78 0.65,12.72 -0.12,5.36 -0.35,16.27 1.14,18.78 1.42,0.08 2.63,1.16 2.83,2.62 0.22,1.66 -0.94,3.18 -2.6,3.41 -1.5,0.2 -2.95,-0.25 -4.09,-1.26 -3.51,-3.15 -3.6,-11.42 -3.33,-23.68 0.08,-3.86 0.19,-9.14 -0.21,-10.31 -4.15,-10.08 3.27,-34.55 8.93,-47.6 9.03,-20.85 22.97,-29.55 41.12,-36.18 18.61,-6.81 39.36,-9.77 55.48,-7.91l1.71 0.2c18.66,2.14 32.13,3.69 47.45,17.71 7.2,6.59 13.42,14.88 18.48,24.65 10.52,20.3 15.38,45.59 14.84,77.31 -0.14,8.69 -1.34,18.16 -9.03,28.61 0.02,0.11 0.04,0.22 0.06,0.34 0.43,2.55 0.49,5.54 -3.59,9.44 2.62,3.54 3.57,8.67 2.46,14.25 -1.47,7.42 -5.88,13.28 -11.55,15.59 0.07,0.25 0.14,0.5 0.21,0.74 0.71,2.54 1.79,6.38 2.07,10.99 0.03,0.5 0.65,11.82 -3.84,16.26 2.08,2.89 2.9,5.91 2.44,9 -0.5,3.38 -2.54,6.63 -6.08,9.69 1.4,1.76 2.85,4.43 3.46,8.28 0.69,4.37 0.46,16.9 -6.42,18.67 -0.25,0.07 -0.5,0.1 -0.75,0.1z"/>
  <path class="fil1" d="M177.53 287.06c-11.61,0 -20.45,-2.28 -26.35,-6.81 -1.32,-1.02 -1.57,-2.92 -0.55,-4.25 1.02,-1.32 2.92,-1.57 4.25,-0.55 5.86,4.51 16.28,6.32 30.11,5.26 15.73,-1.22 23.43,-4.56 31.59,-8.09 4.59,-1.99 9.34,-4.05 15.65,-5.84 1.61,-0.45 3.28,0.48 3.74,2.09 0.46,1.61 -0.48,3.28 -2.09,3.74 -5.92,1.68 -10.48,3.66 -14.89,5.57 -8.64,3.74 -16.8,7.27 -33.53,8.56 -2.77,0.22 -5.42,0.32 -7.93,0.32z"/>
  <path class="fil1" d="M119.87 270.02c-4.09,0 -9.23,-1.9 -14.22,-3.74 -2.6,-0.97 -5.06,-1.87 -6.9,-2.32 -0.84,-0.2 -1.55,-0.74 -1.96,-1.5 -0.41,-0.76 -0.48,-1.65 -0.19,-2.46 0.46,-1.29 1.25,-1.61 2.81,-2.24 12.23,-4.98 14.8,-6.77 15.34,-7.31 1.18,-1.19 3.1,-1.19 4.28,-0.01 1.19,1.19 1.19,3.1 0.01,4.29 -1.44,1.43 -4.83,3.29 -11,5.98 4.21,1.55 9.36,3.46 12.19,3.24 1.66,-0.09 3.11,1.18 3.21,2.85 0.09,1.67 -1.18,3.1 -2.85,3.2 -0.24,0.01 -0.47,0.02 -0.72,0.02z"/>
  <path class="fil1" d="M34.23 290.95c-1.26,0 -2.49,-0.78 -2.94,-1.98 -0.92,-2.44 -0.39,-3.18 10.47,-10.52 3.98,-2.68 12.04,-7.98 21.29,-13.28 6.14,-3.52 50.28,-25.25 55.51,-25.97 1.67,-0.23 3.18,0.92 3.41,2.58 0.23,1.65 -0.91,3.17 -2.55,3.41 -4,0.8 -44.54,20.18 -53.36,25.23 -13.78,7.89 -26.48,16.72 -29.18,18.97 -0.42,0.75 -1.15,1.32 -2.06,1.5 -0.19,0.04 -0.39,0.06 -0.59,0.06z"/>
  <path class="fil1" d="M313.09 305.98c-0.12,0 -0.24,-0.01 -0.35,-0.02 -1.66,-0.19 -2.86,-1.69 -2.66,-3.35 1.39,-12.08 -18.99,-27.12 -32.47,-37.08 -6.28,-4.64 -11.24,-8.31 -13.37,-11.07 -1.02,-1.33 -0.77,-3.23 0.55,-4.25 1.33,-1.02 3.23,-0.77 4.25,0.55 1.61,2.1 6.74,5.89 12.17,9.9 15.48,11.43 36.68,27.09 34.88,42.64 -0.18,1.54 -1.48,2.68 -3,2.68z"/>
  <path class="fil1" d="M262.92 179.38c-1.14,0 -2.23,-0.65 -2.74,-1.75 -2.72,-5.8 -7.78,-16.61 1.61,-24.4 1.29,-1.06 3.19,-0.88 4.26,0.4 1.07,1.29 0.89,3.2 -0.4,4.27 -4.27,3.54 -4.26,8.03 0.01,17.17 0.71,1.51 0.06,3.31 -1.46,4.02 -0.41,0.2 -0.85,0.29 -1.28,0.29z"/>
  <path class="fil1" d="M274.23 166.55c-0.98,0 -1.93,-0.47 -2.52,-1.34 -0.93,-1.39 -0.55,-3.28 0.84,-4.2 3.97,-2.66 4.07,-3.8 2.38,-6.91 -0.8,-1.47 -0.26,-3.31 1.21,-4.11 1.47,-0.8 3.31,-0.25 4.11,1.22 4.19,7.71 0.16,11.82 -4.34,14.83 -0.52,0.35 -1.1,0.51 -1.68,0.51z"/>
  <g>
   <path class="fil1" d="M125.02 213.18c0.01,0.03 0.03,0.05 0.05,0.08 -0.02,-0.03 -0.04,-0.05 -0.05,-0.08zm0.11 0.2l0.01 0 -0.01 0zm-2.64 4.5c-0.98,0 -1.94,-0.48 -2.53,-1.36 -0.62,-0.94 -0.87,-2.15 -1.22,-3.82 -0.32,-1.55 -0.73,-3.48 -1.37,-4.6 -3.58,-6.16 -5.04,-22.35 0.04,-29.18 0.99,-1.35 2.89,-1.62 4.23,-0.63 1.35,1 1.63,2.89 0.63,4.24 -3.15,4.25 -2.51,17.63 0.34,22.54 1.13,1.95 1.64,4.41 2.06,6.39 0.13,0.65 0.32,1.54 0.44,1.87 0.8,1.37 0.4,3.16 -0.95,4.05 -0.51,0.34 -1.09,0.5 -1.67,0.5z"/>
  </g>
  <path class="fil1" d="M126.49 235.47c-0.93,0 -1.77,-0.43 -2.32,-1.09l-0.13 -0.14c-4.09,-4.38 -8.99,-10.7 -9.12,-15.89 -0.01,-0.07 -0.16,-7.5 3.31,-9.98 1.24,-0.88 2.77,-1.08 4.22,-0.54 1.57,0.58 2.37,2.32 1.79,3.89 -0.42,1.14 -1.46,1.87 -2.59,1.97 -0.38,1.04 -0.72,3.12 -0.68,4.5 0.05,1.93 2.05,6.07 7.5,11.93 0.39,0.41 1.05,1.12 1.05,2.32 0,1.67 -1.36,3.03 -3.03,3.03z"/>
  <path class="fil1" d="M143.44 253.21c-0.93,0 -1.84,-0.42 -2.44,-1.22 -0.99,-1.35 -0.71,-3.24 0.64,-4.24 8.07,-5.97 6.31,-9.56 4.45,-13.35 -0.55,-1.13 -1.08,-2.2 -1.36,-3.35 -0.4,-1.62 0.59,-3.26 2.22,-3.66 1.62,-0.41 3.26,0.59 3.66,2.21 0.13,0.52 0.51,1.3 0.92,2.13 2.04,4.16 5.83,11.91 -6.29,20.89 -0.54,0.4 -1.18,0.59 -1.8,0.59z"/>
  <path class="fil1" d="M130.65 251.46c-1.03,0 -2.03,-0.52 -2.6,-1.47 -0.39,-0.65 -1.87,-1.48 -3.17,-2.23 -4.8,-2.72 -12.83,-7.28 -6.62,-21.94 0.66,-1.54 2.44,-2.25 3.97,-1.6 1.54,0.65 2.26,2.43 1.61,3.97 -4.11,9.69 -0.52,11.73 4.03,14.31 2.04,1.16 4.16,2.36 5.37,4.37 0.86,1.43 0.4,3.29 -1.03,4.15 -0.49,0.3 -1.03,0.44 -1.56,0.44z"/>
  <path class="fil1" d="M128.72 267.29c-0.42,0 -0.84,-0.09 -1.25,-0.28 -7.98,-3.63 -10.52,-14.38 -8.92,-23.13 0.3,-1.64 1.86,-2.74 3.53,-2.43 1.64,0.3 2.73,1.88 2.43,3.53 -1.17,6.36 0.55,14.28 5.47,16.52 1.52,0.69 2.19,2.49 1.5,4.01 -0.51,1.12 -1.61,1.78 -2.76,1.78z"/>
  <path class="fil1" d="M146.32 279.44c-0.92,0 -1.82,-0.41 -2.41,-1.19 -1.02,-1.33 -0.76,-3.23 0.56,-4.25 3.28,-2.5 5.36,-6.44 5.43,-10.29 0.04,-2 -0.47,-4.84 -3.12,-7.04 -1.29,-1.06 -1.47,-2.97 -0.4,-4.26 1.07,-1.29 2.98,-1.46 4.26,-0.4 3.52,2.91 5.41,7.11 5.32,11.82 -0.11,5.65 -3.1,11.39 -7.81,14.98 -0.55,0.42 -1.19,0.63 -1.83,0.63z"/>
  <g>
   <path class="fil1" d="M130.5 278.03l0.02 0 -0.02 0zm3.26 6.04c0.01,0 0.01,0 0.01,0 0,0 0,0 -0.01,0zm0.01 0c0,0 0,0 0.01,0 -0.01,0 -0.01,0 -0.01,0zm1.51 0.4c-0.33,0 -0.67,-0.05 -0.99,-0.17 -0.2,-0.04 -0.51,-0.09 -0.88,-0.15 -4.5,-0.77 -7.75,-1.52 -8.65,-4.19 -0.25,-0.76 -1.01,-1.92 -1.82,-3.15 -2.35,-3.57 -5.9,-8.98 -3.82,-15.48 0.52,-1.59 2.22,-2.46 3.81,-1.96 1.6,0.51 2.47,2.22 1.96,3.81 -1.2,3.75 0.99,7.08 3.11,10.31 0.84,1.28 1.65,2.51 2.19,3.74 1.06,0.41 3.4,0.81 4.24,0.95 1.3,0.22 1.79,0.31 2.37,0.64 1.45,0.84 1.94,2.69 1.1,4.14 -0.56,0.97 -1.58,1.51 -2.62,1.51z"/>
  </g>
  <path class="fil1" d="M132.4 303.5c-0.38,0 -0.77,-0.07 -1.14,-0.22 -7.67,-3.12 -11.83,-16.65 -10.28,-23.18 0.39,-1.62 2.01,-2.64 3.65,-2.24 1.63,0.39 2.63,2.02 2.24,3.65 -1.08,4.55 2.53,14.47 6.67,16.16 1.55,0.63 2.3,2.39 1.67,3.94 -0.48,1.18 -1.61,1.89 -2.81,1.89z"/>
  <path class="fil1" d="M150.47 298.22c-0.79,0 -1.58,-0.31 -2.18,-0.92 -1.16,-1.2 -1.13,-3.12 0.08,-4.28 2.71,-2.62 2.91,-5.9 2.91,-10.6 0,-0.88 -1.96,-1.88 -3.37,-1.95 -1.67,-0.09 -2.95,-1.51 -2.86,-3.19 0.09,-1.67 1.53,-2.97 3.18,-2.86 3.67,0.2 9.11,2.87 9.11,8 0,4.61 0,10.35 -4.77,14.95 -0.58,0.57 -1.34,0.85 -2.1,0.85z"/>
  <path class="fil1" d="M140.45 323.38c-0.49,0 -0.99,-0.12 -1.45,-0.37 -11.88,-6.5 -14.11,-13.05 -15.64,-20.32 -0.34,-1.63 0.71,-3.24 2.35,-3.58 1.63,-0.35 3.24,0.7 3.58,2.34 1.34,6.38 2.94,10.95 12.61,16.25 1.47,0.8 2.01,2.64 1.21,4.11 -0.55,1 -1.59,1.57 -2.66,1.57z"/>
  <path class="fil1" d="M148.23 323.01c-0.51,0 -1.03,-0.13 -1.5,-0.41 -1.45,-0.83 -1.95,-2.68 -1.12,-4.13 5.21,-9.1 7.67,-16.18 2.72,-21.13 -1.18,-1.19 -1.18,-3.1 0,-4.29 1.18,-1.18 3.1,-1.18 4.28,0 9.24,9.24 1.82,22.21 -1.75,28.43 -0.56,0.98 -1.58,1.53 -2.63,1.53z"/>
  <path class="fil1" d="M141.59 346.54c-2.8,0 -5.49,-2 -8.01,-5.95 -3.04,-4.77 -6.4,-13.99 -3.98,-18.63 0.77,-1.48 2.59,-2.04 4.07,-1.27 1.48,0.76 2.06,2.6 1.3,4.08 -0.47,0.9 -0.05,5.19 2.39,10.18 1.9,3.9 3.74,5.43 4.29,5.54 1.7,-0.12 3.05,1.22 3.12,2.89 0.08,1.67 -1.24,3.08 -2.92,3.16 -0.08,0 -0.17,0 -0.26,0z"/>
  <path class="fil1" d="M156.66 336.86c-0.09,0 -0.19,0 -0.28,-0.01 -1.67,-0.15 -2.89,-1.63 -2.74,-3.29 0.39,-4.28 -0.31,-8.77 -1.93,-12.33 -0.69,-1.52 -0.02,-3.32 1.5,-4.01 1.53,-0.7 3.32,-0.02 4.01,1.51 2.04,4.47 2.93,10.08 2.45,15.38 -0.14,1.57 -1.46,2.75 -3.01,2.75z"/>
  <path class="fil1" d="M243.12 204.19c-5.79,0 -10.16,4.03 -10.16,9.36 0,5.61 4.45,10.17 9.92,10.17 5.47,0 9.93,-4.56 9.93,-10.17 0,-5.42 -4.08,-9.36 -9.69,-9.36zm-0.24 25.58c-8.81,0 -15.98,-7.27 -15.98,-16.22 0,-8.64 7.13,-15.42 16.22,-15.42 8.98,0 15.74,6.63 15.74,15.42 0,8.95 -7.17,16.22 -15.98,16.22z"/>
  <path class="fil2" d="M186.82 118.23c2.79,0 5.05,2.26 5.05,5.05 0,2.79 -2.26,5.06 -5.05,5.06 -2.79,0 -5.06,-2.27 -5.06,-5.06 0,-2.79 2.27,-5.05 5.06,-5.05z"/>
  <path class="fil2" d="M126.6 116.31c2.79,0 5.05,2.27 5.05,5.06 0,2.79 -2.26,5.05 -5.05,5.05 -2.79,0 -5.06,-2.26 -5.06,-5.05 0,-2.79 2.27,-5.06 5.06,-5.06z"/>
  <path class="fil1" d="M246.2 250.55c-0.44,0 -0.89,-0.1 -1.31,-0.3 -11.33,-5.43 -12.21,-12.79 -9.96,-22.89 0.36,-1.64 1.99,-2.66 3.61,-2.3 1.63,0.36 2.66,1.98 2.3,3.61 -2.04,9.17 -0.61,12.63 6.67,16.12 1.5,0.72 2.14,2.53 1.42,4.04 -0.52,1.09 -1.61,1.72 -2.73,1.72z"/>
  <path class="fil1" d="M245.87 271.28c-0.46,0 -0.93,-0.11 -1.37,-0.33 -6.97,-3.56 -11.67,-8.98 -13.22,-15.25 -1.45,-5.87 -0.08,-12.01 3.97,-17.76 0.96,-1.36 2.85,-1.7 4.22,-0.73 1.37,0.96 1.7,2.85 0.73,4.22 -3.01,4.27 -4.06,8.71 -3.04,12.82 1.12,4.54 4.7,8.56 10.09,11.31 1.49,0.76 2.08,2.58 1.32,4.07 -0.53,1.05 -1.6,1.65 -2.7,1.65z"/>
  <path class="fil1" d="M248.15 291.65c-5.1,0 -14.45,-7.89 -16.08,-12.74 -1.36,-4.02 -1.4,-8.73 -0.11,-14.83 0.35,-1.63 1.97,-2.68 3.59,-2.33 1.64,0.34 2.68,1.95 2.33,3.59 -1.05,4.98 -1.08,8.68 -0.08,11.63 0.96,2.84 8.1,8.52 10.28,8.63 1.66,-0.14 3.1,1.09 3.24,2.75 0.14,1.67 -1.12,3.14 -2.79,3.28 -0.12,0.01 -0.25,0.02 -0.38,0.02z"/>
  <path class="fil1" d="M248.11 307.47c-0.63,0 -1.26,-0.19 -1.8,-0.6 -4.18,-3.1 -14.29,-14.02 -9.94,-21.67 0.83,-1.45 2.67,-1.97 4.13,-1.14 1.45,0.83 1.96,2.68 1.13,4.13 -1.73,3.06 4.51,11.01 8.29,13.83 1.34,0.99 1.62,2.89 0.62,4.23 -0.59,0.8 -1.5,1.22 -2.43,1.22z"/>
  <path class="fil1" d="M261.23 308.66c-0.7,0 -1.4,-0.24 -1.98,-0.73 -1.26,-1.09 -1.41,-3 -0.32,-4.27 2.83,-3.29 4.76,-11.49 3.68,-15.66 -0.46,-1.81 -0.96,-2.46 -1.52,-3.22 -0.59,-0.78 -1.31,-1.75 -1.77,-3.4 -0.44,-1.61 0.5,-3.28 2.11,-3.73 1.61,-0.45 3.28,0.5 3.73,2.11 0.15,0.56 0.33,0.8 0.77,1.39 0.75,1 1.78,2.37 2.55,5.34 1.56,6.07 -0.85,16.33 -4.96,21.12 -0.59,0.7 -1.44,1.05 -2.29,1.05z"/>
  <path class="fil1" d="M245.22 324.69c-0.62,0 -1.24,-0.18 -1.78,-0.58 -6.86,-5 -9.37,-12.9 -7.06,-22.24 0.4,-1.62 2.04,-2.61 3.67,-2.21 1.62,0.4 2.61,2.04 2.21,3.66 -1.73,7 -0.13,12.34 4.75,15.9 1.35,0.98 1.65,2.88 0.66,4.23 -0.59,0.81 -1.52,1.24 -2.45,1.24z"/>
  <path class="fil1" d="M254.67 335.69c-0.82,0 -1.63,-0.33 -2.23,-0.98 -1.13,-1.23 -1.05,-3.14 0.17,-4.28 0.3,-0.27 0.71,-0.78 1.06,-1.23 0.45,-0.55 0.88,-1.07 1.25,-1.44 0.46,-0.45 0.96,-0.91 1.49,-1.39 2.46,-2.28 5.26,-4.85 6.58,-9.02 1.15,-3.61 1.03,-7.54 0.52,-9.03 -1.29,0.05 -2.59,-0.74 -3.04,-2.04 -0.53,-1.57 0.26,-3.26 1.82,-3.82 1.92,-0.67 3.83,-0.29 5.23,1.07 3.28,3.18 2.7,11.07 1.24,15.66 -1.81,5.69 -5.53,9.12 -8.25,11.63 -0.48,0.44 -0.93,0.86 -1.35,1.27 -0.23,0.22 -0.48,0.55 -0.76,0.9 -0.49,0.61 -1.05,1.31 -1.68,1.89 -0.58,0.54 -1.32,0.81 -2.05,0.81z"/>
  <path class="fil1" d="M261.57 135.59c-0.11,0 -0.22,0 -0.33,-0.01 -9.06,-0.98 -13.91,-2.48 -21.65,-6.73 -1.46,-0.8 -2,-2.64 -1.19,-4.11 0.8,-1.46 2.64,-2.01 4.11,-1.2 6.99,3.84 11.16,5.13 19.38,6.01 1.66,0.18 2.86,1.68 2.68,3.34 -0.16,1.55 -1.47,2.7 -3,2.7z"/>
  <path class="fil1" d="M113.11 77.71c-0.43,0 -0.87,-0.14 -1.24,-0.43 -0.88,-0.69 -1.03,-1.96 -0.34,-2.84 1.24,-1.57 2.37,-3.03 3.44,-4.4 8.83,-11.38 12.86,-16.57 28.09,-24.19 1,-0.49 2.21,-0.09 2.71,0.91 0.5,1 0.09,2.21 -0.9,2.71 -14.41,7.2 -18.01,11.84 -26.72,23.04 -1.07,1.38 -2.21,2.85 -3.45,4.43 -0.4,0.51 -0.99,0.77 -1.59,0.77z"/>
  <path class="fil1" d="M184.06 296.53c-9.17,0 -19.06,-1.51 -30.96,-4.77 -1.08,-0.29 -1.71,-1.4 -1.42,-2.48 0.3,-1.07 1.41,-1.7 2.48,-1.41 33.24,9.1 49.47,4.34 81.22,-9.54 1.02,-0.44 2.21,0.03 2.66,1.05 0.45,1.02 -0.02,2.21 -1.04,2.65 -20.89,9.14 -35.65,14.5 -52.94,14.5z"/>
  <path class="fil1" d="M123.93 282.82c-0.24,0 -0.48,-0.04 -0.71,-0.12 -10.43,-3.89 -18.06,-7.05 -28.49,-12.6 -0.99,-0.53 -1.36,-1.75 -0.84,-2.74 0.53,-0.98 1.75,-1.35 2.73,-0.83 10.24,5.45 17.75,8.56 28.01,12.38 1.05,0.39 1.58,1.55 1.19,2.6 -0.3,0.81 -1.07,1.31 -1.89,1.31z"/>
 </g>
</svg>
