<?xml version="1.0" encoding="UTF-8"?>
<!DOCTYPE svg PUBLIC "-//W3C//DTD SVG 1.1//EN" "http://www.w3.org/Graphics/SVG/1.1/DTD/svg11.dtd">
<!-- Creator: CorelDRAW 2018 (64-Bit) -->
<svg xmlns="http://www.w3.org/2000/svg" xml:space="preserve" width="845px" height="845px" version="1.1" style="shape-rendering:geometricPrecision; text-rendering:geometricPrecision; image-rendering:optimizeQuality; fill-rule:evenodd; clip-rule:evenodd"
viewBox="0 0 361.04 361.04"
 xmlns:xlink="http://www.w3.org/1999/xlink">
 <defs>
  <style type="text/css">
   <![CDATA[
    .fil0 {fill:none}
    .fil2 {fill:black}
    .fil1 {fill:black;fill-rule:nonzero}
   ]]>
  </style>
 </defs>
 <g id="Слой_x0020_1">
  <metadata id="CorelCorpID_0Corel-Layer"/>
  <rect class="fil0" width="361.04" height="361.04"/>
 </g>
 <g id="_1">
  <metadata id="CorelCorpID_1Corel-Layer"/>
  <g>
   <path class="fil1" d="M178.38 151.16l0.01 0 -0.01 0zm-0.18 6.04c-0.07,0 -0.13,0 -0.2,0 -1.01,-0.07 -1.74,-0.54 -3.07,-1.4 -1.24,-0.81 -2.94,-1.92 -4.67,-2.59 -7.57,-2.95 -11.43,-3.98 -16.66,-1.5 -0.54,0.25 -1.52,0.98 -2.32,1.56 -1.2,0.89 -2.24,1.65 -3.24,2.06 -1.55,0.64 -3.32,-0.1 -3.95,-1.65 -0.64,-1.54 0.1,-3.31 1.65,-3.95 0.34,-0.15 1.31,-0.86 1.95,-1.34 1.11,-0.81 2.25,-1.65 3.32,-2.16 7.56,-3.58 13.4,-1.79 21.45,1.34 2.31,0.9 4.4,2.25 5.77,3.15 0.37,0.24 0.68,0.45 0.91,0.58 1.28,0.42 2.16,1.66 2.08,3.07 -0.11,1.6 -1.44,2.83 -3.02,2.83z"/>
  </g>
  <path class="fil1" d="M173.82 145.31c-0.05,0 -0.1,0 -0.14,0 -2.45,-0.11 -5.39,-0.82 -8.5,-1.56 -3.43,-0.82 -6.98,-1.67 -9.69,-1.67 -3.95,0 -5.03,0.44 -8.25,1.75 -0.56,0.23 -1.17,0.48 -1.86,0.75 -0.64,0.4 -1.23,0.49 -1.73,0.54 -1.67,0.15 -3.15,-1.06 -3.31,-2.73 -0.14,-1.53 0.88,-2.9 2.34,-3.24 0.11,-0.05 0.23,-0.1 0.36,-0.15 0.71,-0.28 1.34,-0.54 1.91,-0.77 3.48,-1.42 5.4,-2.21 10.54,-2.21 3.43,0 7.33,0.94 11.1,1.84 2.82,0.68 5.49,1.32 7.36,1.4 1.67,0.08 2.96,1.49 2.89,3.16 -0.07,1.63 -1.41,2.89 -3.02,2.89z"/>
  <path class="fil1" d="M244.23 152.8c-0.05,0 -0.1,0 -0.16,0 -1.63,-0.08 -3.05,-0.91 -4.84,-1.95 -3.21,-1.87 -7.6,-4.4 -15.35,-4.14 -1.94,0.08 -3.76,0.28 -6.07,0.54 -1.36,0.15 -2.86,0.32 -4.61,0.48 -0.64,0.07 -1.47,0.17 -2.35,0.28 -1.93,0.23 -3.93,0.48 -5.25,0.48 -1.68,0 -3.03,-1.35 -3.03,-3.03 0,-1.67 1.35,-3.03 3.03,-3.03 0.95,0 2.92,-0.24 4.51,-0.43 0.94,-0.12 1.83,-0.23 2.52,-0.29 1.71,-0.17 3.18,-0.33 4.51,-0.48 2.34,-0.26 4.36,-0.48 6.52,-0.56 9.51,-0.37 15.2,2.96 18.61,4.94 0.82,0.48 1.84,1.07 2.2,1.15 1.67,0.08 2.91,1.5 2.83,3.17 -0.09,1.62 -1.46,2.87 -3.07,2.87z"/>
  <path class="fil1" d="M237.62 160.21c-0.48,0 -0.97,-0.11 -1.43,-0.36 -0.62,-0.34 -1.34,-0.74 -2.1,-1.17l-0.54 -0.3c-6.74,-3.79 -11.92,-3.9 -15.21,-3.65 -3.13,0.23 -5.2,1.12 -7.21,1.98 -1.49,0.65 -2.9,1.25 -4.52,1.46 -1.67,0.22 -3.17,-0.96 -3.39,-2.61 -0.21,-1.66 0.96,-3.18 2.62,-3.4 0.78,-0.1 1.76,-0.52 2.91,-1.01 2.11,-0.91 5,-2.15 9.14,-2.46 4.08,-0.3 10.46,-0.18 18.63,4.41l0.54 0.31c0.72,0.4 1.41,0.79 2,1.11 1.47,0.79 2.02,2.63 1.23,4.1 -0.54,1.02 -1.59,1.59 -2.67,1.59z"/>
  <path class="fil1" d="M156.54 204.31c-0.05,0 -0.12,0 -0.18,-0.01 -1.11,-0.1 -1.93,-1.08 -1.83,-2.19 0.05,-0.54 0.1,-1.26 0.15,-2.04 0.15,-2.09 0.31,-4.45 0.58,-5.8 1.1,-5.57 5.71,-8.7 9.77,-11.46l1.13 -0.77c0.92,-0.64 2.18,-0.4 2.81,0.51 0.64,0.92 0.4,2.18 -0.51,2.81l-1.16 0.79c-3.75,2.55 -7.3,4.96 -8.08,8.91 -0.22,1.09 -0.38,3.42 -0.51,5.29 -0.06,0.81 -0.11,1.55 -0.16,2.12 -0.09,1.05 -0.97,1.84 -2.01,1.84z"/>
  <path class="fil1" d="M191.61 195.99c-0.76,0 -1.61,-0.08 -2.58,-0.26 -3.5,-0.65 -5.24,-2.82 -6.77,-4.74 -1.22,-1.51 -2.04,-1.95 -2.25,-1.99 -2.43,0.1 -5.44,-1.51 -7.06,-3.78 -1.32,-1.85 -1.63,-3.97 -0.87,-5.97 0.6,-1.56 2.35,-2.34 3.91,-1.75 1.56,0.59 2.35,2.34 1.76,3.9 -0.01,0.02 -0.02,0.03 -0.02,0.03 0.06,0.5 1.48,1.49 2.17,1.52 2.38,-0.1 4.77,1.36 7.08,4.26 1.47,1.83 2.02,2.36 3.15,2.56 1.92,0.35 2.06,0.2 2.65,-0.45 0.76,-0.82 1.89,-2.06 4.16,-2.7 0.89,-0.25 1.81,-0.39 2.7,-0.54l0.55 -0.08c1.45,-0.24 2.95,-1.17 3.63,-2.25 0.44,-0.69 0.53,-1.4 0.29,-2.22 -0.02,-0.06 -0.16,-0.23 -0.47,-0.45 -1.36,-0.97 -1.67,-2.86 -0.7,-4.23 0.97,-1.36 2.86,-1.67 4.22,-0.7 1.42,1.01 2.35,2.25 2.77,3.69 0.72,2.51 0.38,4.98 -0.99,7.14 -1.61,2.55 -4.59,4.46 -7.77,4.99l-0.58 0.09c-0.75,0.12 -1.46,0.24 -2.02,0.39 -0.6,0.17 -0.79,0.38 -1.32,0.95 -1.21,1.33 -2.66,2.59 -5.64,2.59z"/>
  <path class="fil1" d="M225.27 204.98c-1.08,0 -1.98,-0.85 -2.02,-1.94 -0.08,-2.17 -3.89,-6.54 -6.67,-9.73 -2.35,-2.7 -4.38,-5.03 -5.2,-6.88 -0.45,-1.01 0.01,-2.21 1.03,-2.66 1.02,-0.45 2.22,0.02 2.66,1.04 0.57,1.28 2.59,3.6 4.55,5.85 3.7,4.24 7.53,8.63 7.66,12.22 0.05,1.12 -0.82,2.06 -1.94,2.1 -0.02,0 -0.05,0 -0.07,0z"/>
  <path class="fil1" d="M191.2 202.03c0.02,0.01 0.04,0.02 0.05,0.04 -0.01,-0.02 -0.03,-0.03 -0.05,-0.04zm-1.74 5.48c-0.72,0 -1.3,-0.17 -1.91,-0.65 -1.39,-0.91 -8.44,-1.41 -12.65,-1.71 -4.77,-0.34 -8.88,-0.64 -11.13,-1.42 -1.58,-0.55 -2.41,-2.28 -1.86,-3.86 0.55,-1.58 2.28,-2.42 3.86,-1.86 1.48,0.52 5.77,0.82 9.56,1.09 7.13,0.52 11.98,0.96 14.75,2.26 0.22,-0.04 0.49,-0.09 0.78,-0.15 1.39,-0.26 3.3,-0.61 5.33,-0.83 3.42,-0.36 6.28,-0.24 9.04,-0.12 1.78,0.07 3.45,0.14 5.29,0.09 2.4,-0.06 4.65,-0.39 5.82,-0.68 1.62,-0.42 3.27,0.57 3.68,2.19 0.41,1.62 -0.57,3.27 -2.19,3.68 -1.86,0.47 -4.59,0.8 -7.15,0.86 -2.03,0.05 -3.9,-0.02 -5.7,-0.09 -2.66,-0.11 -5.18,-0.22 -8.16,0.1 -1.79,0.18 -3.55,0.51 -4.84,0.75 -1.07,0.2 -1.86,0.35 -2.52,0.35z"/>
  <path class="fil1" d="M190.6 219.35c-2.36,0 -4.23,-0.11 -5.1,-0.17 -5.28,-0.38 -8.83,-2.37 -12.26,-4.3 -1.33,-0.74 -2.58,-1.44 -3.95,-2.07 -1.52,-0.7 -2.19,-2.49 -1.49,-4.01 0.7,-1.52 2.5,-2.19 4.01,-1.49 1.6,0.73 3.02,1.52 4.39,2.29 3.11,1.75 5.81,3.26 9.74,3.54 7.29,0.53 16.53,-0.29 18.77,-2.53 1.18,-1.18 3.09,-1.18 4.28,0 1.18,1.18 1.18,3.1 0,4.28 -3.77,3.78 -12.56,4.46 -18.39,4.46z"/>
  <path class="fil1" d="M250.78 200.12c-1.67,0 -3.03,-1.35 -3.03,-3.03 0,-1.67 1.36,-3.02 3.03,-3.02 2.3,0 4.62,-0.81 6.04,-6.63 0.49,-2 0.31,-4.25 -0.13,-8.76 -0.16,-1.66 1.05,-3.14 2.72,-3.3 1.67,-0.17 3.14,1.05 3.3,2.72 0.45,4.63 0.75,7.7 0,10.78 -1.83,7.46 -5.84,11.24 -11.93,11.24z"/>
  <path class="fil1" d="M130.82 195.01c-0.4,0 -0.8,-0.08 -1.18,-0.24 -0.3,-0.13 -0.45,-0.19 -0.56,-0.22 -0.81,-0.17 -1.26,-0.4 -2.98,-1.39 -7.18,-4.1 -7.04,-12.58 -6.94,-18.77 0.02,-0.74 0.03,-1.46 0.03,-2.16 0,-1.67 1.35,-3.03 3.03,-3.03 1.67,0 3.02,1.36 3.02,3.03 0,0.73 -0.01,1.49 -0.02,2.26 -0.11,6.49 0.11,11.26 3.89,13.42 0.6,0.34 0.96,0.55 1.2,0.67 0.45,-0.09 0.92,-0.08 1.39,0.04 1.62,0.42 2.58,2.08 2.16,3.7l-0.11 0.43c-0.22,0.85 -0.81,1.56 -1.59,1.94 -0.42,0.21 -0.88,0.32 -1.34,0.32z"/>
  <path class="fil1" d="M188.79 253.96c-6.63,0 -15.55,-1.98 -22.72,-5.05 -6.91,-2.95 -17.06,-11.14 -25.25,-20.38 -10.64,-12.02 -10.81,-18.65 -11,-26.32 -0.05,-2.05 -0.1,-4.17 -0.36,-6.55l-0.31 -2.92c-0.98,-9.09 -1.83,-16.94 -1.82,-24.85 0.02,-16.48 4.03,-26.38 9.58,-40.08l1.32 -3.25c0.62,-1.55 2.38,-2.3 3.93,-1.68 1.56,0.63 2.31,2.39 1.68,3.94l-1.32 3.26c-5.49,13.56 -9.12,22.52 -9.14,37.81 -0.01,7.59 0.83,15.28 1.79,24.2l0.31 2.93c0.28,2.63 0.34,4.97 0.39,7.04 0.19,7.28 0.3,12.09 9.49,22.45 7.52,8.5 17.02,16.24 23.09,18.84 6.48,2.77 14.46,4.55 20.34,4.55 3.62,0 6.51,-0.14 9.11,-0.46 1.87,-0.23 7.07,-1.91 14.08,-5.07 10.36,-4.67 19.18,-11.09 24.19,-17.61 6.11,-7.95 11.81,-37.12 13.29,-51.21 1.79,-17.05 0.03,-28.91 -4.95,-33.4 -1.14,-1.02 -4.64,-2.47 -7.19,-3.52 -1.81,-0.75 -3.53,-1.46 -4.83,-2.15 -1.48,-0.77 -2.05,-2.6 -1.28,-4.08 0.78,-1.49 2.61,-2.06 4.09,-1.28 1.06,0.56 2.65,1.21 4.33,1.91 3.45,1.43 7.02,2.9 8.93,4.62 6.65,5.99 8.97,18.95 6.92,38.53 -0.85,8.13 -6.11,43.34 -14.51,54.27 -7.66,9.98 -19.9,16.46 -26.5,19.44 -5.34,2.41 -12.3,5.13 -15.83,5.56 -2.85,0.35 -5.98,0.51 -9.85,0.51z"/>
  <path class="fil1" d="M219.81 137.33c-1.28,0 -2.58,-0.3 -3.87,-0.89 -4.78,-2.18 -8.39,-8.03 -9.54,-11.2 -1.28,-3.5 -3.03,-14.64 -3.03,-18.23 0,-1.68 1.36,-3.03 3.03,-3.03 1.67,0 3.03,1.35 3.03,3.03 0,3.14 1.71,13.57 2.66,16.16 0.86,2.38 3.63,6.51 6.37,7.77 1.07,0.49 1.72,0.34 2.12,0.19 1.56,-0.59 3.31,0.19 3.91,1.75 0.59,1.56 -0.19,3.31 -1.75,3.91 -0.95,0.36 -1.93,0.54 -2.93,0.54z"/>
  <path class="fil1" d="M169.58 115.89c-5.87,0 -10.04,-1.6 -13.88,-7.72 -4.52,-7.18 -4.18,-10.14 -3.12,-15.16 0.29,-1.4 0.63,-3 0.86,-5.04 0.18,-1.65 1.66,-2.85 3.35,-2.66 1.66,0.19 2.85,1.69 2.67,3.35 -0.27,2.32 -0.65,4.14 -0.96,5.6 -0.82,3.92 -1.1,5.24 2.33,10.69 2.44,3.88 4.47,4.98 9.54,4.88 0.52,-0.49 1.22,-0.8 1.99,-0.82 0.07,0 0.13,0 0.2,0 3.54,0 3.82,2.53 3.84,3.05 0.12,2.89 -3.34,3.7 -4.02,3.73 -0.98,0.07 -1.91,0.1 -2.8,0.1z"/>
  <path class="fil1" d="M153.57 126.56c-0.53,0 -1.06,-0.13 -1.55,-0.42 -6.23,-3.71 -14.12,-10.31 -10.8,-24.7 0.58,-2.53 0.97,-3.54 1.35,-4.51 0.21,-0.54 0.44,-1.12 0.73,-2.11 0.48,-1.6 2.17,-2.52 3.77,-2.04 1.6,0.48 2.51,2.16 2.03,3.77 -0.36,1.21 -0.63,1.91 -0.89,2.58 -0.34,0.87 -0.61,1.57 -1.09,3.67 -2.25,9.75 1.57,14.31 8,18.13 1.44,0.86 1.91,2.72 1.05,4.15 -0.56,0.96 -1.57,1.48 -2.6,1.48z"/>
  <path class="fil1" d="M126.32 98.56c-0.29,0 -0.59,0 -0.9,-0.01 -6.82,-0.2 -12.39,-2.08 -16.56,-5.58 -1.28,-1.07 -1.45,-2.98 -0.38,-4.26 1.08,-1.29 2.99,-1.45 4.27,-0.38 3.1,2.6 7.43,4 12.85,4.16 5.13,0.16 6.06,-1.03 8.46,-5.16 0.84,-1.44 2.7,-1.93 4.14,-1.09 1.45,0.84 1.94,2.69 1.1,4.14 -3.26,5.59 -5.97,8.18 -12.98,8.18z"/>
  <path class="fil1" d="M107.28 135.25c-2.62,0 -5.41,-0.38 -7.66,-1.29 -3.57,-1.43 -5.63,-4.02 -5.96,-7.46 -0.09,-0.85 -0.2,-1.33 -0.31,-1.84 -0.19,-0.8 -0.38,-1.64 -0.38,-3.46 0,-1.12 0.91,-2.02 2.02,-2.02 1.12,0 2.02,0.9 2.02,2.02 0,1.37 0.12,1.87 0.27,2.56 0.13,0.55 0.29,1.24 0.39,2.35 0.17,1.7 1.03,2.89 2.71,3.77 4.26,2.21 11.33,1.13 12.43,0.52 2.71,-2.34 6.55,-6.12 7.32,-10.96 0.18,-1.09 1.2,-1.83 2.31,-1.67 1.11,0.18 1.86,1.21 1.68,2.31 -0.98,6.15 -5.49,10.63 -8.8,13.46 -1.16,1 -4.45,1.71 -8.04,1.71z"/>
  <path class="fil1" d="M120 114.26c-4.11,0 -8.1,-0.92 -11.45,-2.86 -4.76,-2.75 -6.97,-7.81 -6.4,-14.63 0.09,-1.11 1.08,-1.95 2.17,-1.84 1.11,0.09 1.94,1.07 1.85,2.18 -0.44,5.22 1.04,8.86 4.4,10.8 7.8,4.5 20.35,2.18 26.85,-4.98 0.7,-0.77 1.24,-1.17 1.75,-1.39 0.04,-0.1 0.08,-0.21 0.14,-0.34 0.43,-1.03 1.62,-1.52 2.64,-1.09 1.03,0.43 1.52,1.61 1.09,2.64 -0.47,1.12 -0.91,2.19 -2.24,2.5 -0.07,0.07 -0.2,0.18 -0.39,0.4 -5.04,5.54 -12.92,8.61 -20.41,8.61z"/>
  <path class="fil1" d="M104.1 158.97c-1.65,0 -3.6,-0.16 -6.12,-0.38l-0.48 -0.04c-8.1,-0.7 -12.55,-9.29 -13.89,-16.43 -1.09,-5.78 -0.63,-12.75 3.93,-15.01 1.5,-0.74 3.32,-0.13 4.06,1.37 0.74,1.5 0.13,3.32 -1.37,4.06 -0.63,0.37 -1.74,3.8 -0.49,9.31 1.06,4.68 3.86,10.28 8.29,10.67l0.47 0.04c8.35,0.73 8.36,0.73 14.82,-4.09 6.64,-4.97 8.6,-8.51 11.83,-14.37 0.89,-1.6 1.85,-3.34 3,-5.28 0.85,-1.44 2.71,-1.91 4.14,-1.06 1.44,0.85 1.92,2.71 1.07,4.15 -1.12,1.88 -2.05,3.56 -2.9,5.12 -3.39,6.12 -5.83,10.54 -13.52,16.29 -5.93,4.43 -8.2,5.65 -12.84,5.65z"/>
  <path class="fil1" d="M210.78 104.65c-2.76,0 -5.22,-0.39 -6.72,-1.25 -1.91,-1.09 -3.03,-1.62 -3.77,-1.97 -2.07,-0.98 -2.47,-1.44 -3.82,-3.6 -0.31,-0.49 -0.7,-1.11 -1.23,-1.93 -0.92,-1.4 -0.52,-3.28 0.88,-4.19 1.4,-0.91 3.28,-0.52 4.19,0.88 0.56,0.86 0.97,1.51 1.29,2.02 0.3,0.49 0.61,0.99 0.72,1.11 0.04,0 0.26,0.09 0.56,0.23 0.83,0.39 2.07,0.98 4.19,2.19 2.05,1.18 12.01,0.11 14.38,-1.91 3.66,-3.13 3.79,-3.4 5.02,-5.95 0.41,-0.87 0.93,-1.95 1.69,-3.38 0.78,-1.48 2.62,-2.04 4.09,-1.26 1.48,0.78 2.04,2.61 1.26,4.09 -0.71,1.34 -1.19,2.35 -1.59,3.17 -1.54,3.22 -2.07,4.12 -6.53,7.93 -2.75,2.35 -9.24,3.82 -14.61,3.82z"/>
  <path class="fil1" d="M275.58 106.26c-0.3,0 -0.6,-0.04 -0.9,-0.14 -1.6,-0.49 -2.49,-2.19 -1.99,-3.79l0.14 -0.45c0.05,-0.16 0.11,-0.31 0.19,-0.46 2.54,-5.05 2.15,-16.58 0.9,-22.62 -0.27,-1.27 -0.5,-2.47 -0.73,-3.62 -1.75,-8.9 -2.71,-13.8 -10.24,-20.55 -1.24,-1.11 -1.35,-3.03 -0.23,-4.27 1.11,-1.25 3.03,-1.35 4.28,-0.24 9.03,8.1 10.26,14.38 12.13,23.89 0.23,1.13 0.46,2.31 0.71,3.56 1.44,6.92 1.96,19.57 -1.3,26.34l-0.07 0.22c-0.41,1.3 -1.6,2.13 -2.89,2.13z"/>
  <path class="fil1" d="M268.05 145.57c-3.26,0 -6.27,-0.88 -8.79,-2.68 -1.36,-0.97 -1.68,-2.86 -0.7,-4.22 0.97,-1.36 2.86,-1.68 4.22,-0.71 3.89,2.77 10.38,1.73 16.54,-2.67 7.16,-5.11 13.61,-14.89 10.82,-24.26 -1.29,-4.36 -4.86,-6.57 -10.61,-6.57 -1.67,0 -3.03,-1.36 -3.03,-3.03 0,-1.67 1.36,-3.03 3.03,-3.03 11.47,0 15.21,6.84 16.42,10.91 3.65,12.28 -3.96,24.37 -13.11,30.91 -4.96,3.54 -10.13,5.35 -14.79,5.35z"/>
  <path class="fil1" d="M257.68 125.3c-5.45,0 -10.02,-2.64 -13.71,-4.77 -0.82,-0.48 -1.62,-0.94 -2.38,-1.34 -1.48,-0.78 -2.04,-2.61 -1.26,-4.09 0.78,-1.48 2.62,-2.04 4.09,-1.27 0.83,0.44 1.69,0.94 2.58,1.46 3.22,1.85 6.86,3.96 10.68,3.96 0.03,0 0.06,0 0.1,0 5.67,-0.05 8.5,-0.53 11.78,-4.9 1.01,-1.34 2.91,-1.61 4.24,-0.6 1.34,1 1.61,2.9 0.6,4.24 -5.02,6.68 -10.25,7.26 -16.57,7.31l-0.15 0z"/>
  <g>
   <path class="fil1" d="M144.57 59.62l0 0 0 0zm17.65 20.18c-1.04,0 -2.25,-0.11 -5.16,-0.55 -7.89,-1.17 -13.31,-3.73 -15.98,-12.83 -0.15,-0.49 -0.88,-7.86 0.38,-9.38 0.71,-0.86 1.98,-0.98 2.84,-0.26 0.7,0.58 0.91,1.53 0.58,2.33 -0.17,1.09 -0.09,5.38 0.09,6.23 1.86,6.34 4.94,8.77 12.69,9.92 3.67,0.55 4.29,0.52 5.42,0.48 0.67,-0.03 1.49,-0.07 3,-0.02 1.11,0.03 1.99,0.97 1.95,2.08 -0.03,1.12 -0.98,2.04 -2.08,1.95 -1.35,-0.03 -2.09,-0.01 -2.69,0.02 -0.37,0.01 -0.69,0.03 -1.04,0.03z"/>
  </g>
  <path class="fil1" d="M177.96 65.87c-0.77,0 -1.42,-0.07 -1.97,-0.12 -0.48,-0.06 -0.88,-0.09 -1.22,-0.08 -3.8,0.15 -7.26,-1.55 -9.94,-4.94 -4.72,-5.98 -6.42,-16.88 -4.78,-22.64 0.45,-1.6 2.13,-2.53 3.74,-2.08 1.61,0.46 2.54,2.13 2.08,3.74 -1.05,3.71 0.04,12.58 3.71,17.23 1.47,1.85 3.1,2.7 4.93,2.64 0.78,-0.03 1.48,0.04 2.11,0.1 0.91,0.1 1.62,0.18 2.58,-0.04 1.64,-0.35 3.25,0.68 3.61,2.32 0.35,1.63 -0.68,3.25 -2.32,3.6 -0.94,0.21 -1.79,0.27 -2.53,0.27z"/>
  <path class="fil1" d="M188.83 36.36c0,0 0,0 0,0 0,0 0,0 0,0zm0.78 23.06c-0.31,0 -0.63,-0.02 -0.94,-0.06 -1.67,-0.19 -2.86,-1.69 -2.66,-3.35 0.19,-1.67 1.7,-2.87 3.35,-2.66 0.26,0.03 1.05,0.12 2.16,-0.88 1.91,-1.7 3.09,-4.95 3.09,-6.99 0,-2.71 -4.29,-8.34 -6.12,-9.1l-0.02 0c-1.51,0 -2.82,-1.13 -3,-2.67 -0.2,-1.66 0.99,-3.17 2.65,-3.36 1.72,-0.22 3.54,0.57 5.57,2.38 2.9,2.57 6.98,8.22 6.98,12.75 0,3.46 -1.76,8.52 -5.12,11.51 -1.79,1.6 -3.83,2.43 -5.94,2.43z"/>
  <path class="fil1" d="M174.73 71.79c0,0.01 0,0.01 0,0.01 0,0 0,0 0,-0.01zm-9.62 26.95c-1.47,0 -2.75,-1.07 -2.99,-2.57 -0.25,-1.65 0.88,-3.2 2.53,-3.46 6.24,-0.97 10.12,-3.39 11.54,-7.21 2.08,-5.62 -1.29,-12.75 -2.35,-14.19 -0.98,-0.77 -1.42,-2.11 -0.99,-3.36 0.55,-1.58 2.28,-2.42 3.85,-1.88 3,1.03 6.74,10.27 6.12,17.2 -0.42,4.82 -3.23,13.25 -17.24,15.43 -0.16,0.02 -0.31,0.04 -0.47,0.04z"/>
  <path class="fil1" d="M223.88 83.63c-1.85,0 -3.96,-0.19 -6.45,-0.6 -6.71,-1.12 -19.23,-8.11 -19.23,-17.51 0,-1.67 1.36,-3.03 3.03,-3.03 1.68,0 3.03,1.36 3.03,3.03 0,4.98 8.7,10.63 14.16,11.54 8.12,1.34 10.29,0.17 16.75,-3.32 0.72,-0.38 1.47,-0.79 2.29,-1.22 1.48,-0.79 3.31,-0.22 4.09,1.26 0.78,1.48 0.22,3.31 -1.26,4.09 -0.8,0.43 -1.54,0.83 -2.24,1.2 -5.09,2.75 -8.46,4.56 -14.17,4.56z"/>
  <path class="fil1" d="M222.76 63.97c-3.04,0 -6.15,-0.54 -8.91,-1.67 -5.05,-2.06 -8.05,-5.67 -8.45,-10.17 -0.14,-1.67 1.09,-3.14 2.75,-3.28 1.65,-0.13 3.14,1.08 3.29,2.74 0.24,2.73 2.68,4.28 4.69,5.1 4.95,2.02 12.02,1.45 15.13,-1.21 0.28,-0.24 0.68,-0.57 1.14,-0.93 0.6,-0.49 1.73,-1.39 2,-1.68 1.14,-1.22 3.06,-1.29 4.28,-0.16 1.22,1.13 1.31,3.03 0.18,4.26 -0.52,0.56 -1.39,1.28 -2.67,2.3 -0.39,0.32 -0.75,0.6 -0.99,0.81 -2.97,2.54 -7.63,3.89 -12.44,3.89z"/>
  <path class="fil1" d="M218.41 43.45c-0.88,0 -1.65,-0.04 -2.22,-0.09 -4.45,-0.37 -10.52,-2 -12.99,-5.4 -0.66,-0.9 -0.46,-2.17 0.44,-2.82 0.9,-0.66 2.16,-0.46 2.82,0.44 1.31,1.8 5.54,3.39 10.06,3.76 3.79,0.31 7.08,-0.3 8.38,-1.57 0.71,-0.69 1.5,-1.17 2.14,-1.55 0.3,-0.18 0.59,-0.35 0.84,-0.53 0.9,-0.67 2.16,-0.48 2.82,0.41 0.67,0.9 0.48,2.16 -0.41,2.83 -0.36,0.26 -0.76,0.51 -1.18,0.76 -0.52,0.31 -1.02,0.61 -1.39,0.96 -2.37,2.34 -6.44,2.8 -9.31,2.8z"/>
  <path class="fil1" d="M201.69 36.23c-1.15,0 -2.25,-0.65 -2.76,-1.76 -0.69,-1.52 -0.03,-3.32 1.49,-4.01 3.4,-1.57 3.57,-4.08 3.16,-10.35l-0.01 -0.19c-0.11,-1.67 1.16,-3.11 2.83,-3.22 1.66,-0.08 3.1,1.16 3.21,2.83l0.01 0.19c0.37,5.7 0.83,12.79 -6.67,16.24 -0.41,0.19 -0.84,0.27 -1.26,0.27z"/>
  <path class="fil1" d="M240.23 90.81c-3.45,0 -6.76,-0.51 -9.57,-1.55 -1.57,-0.59 -2.36,-2.33 -1.78,-3.9 0.58,-1.57 2.33,-2.36 3.9,-1.78 8.13,3.04 22.42,0.23 26.44,-6.91 0.77,-1.4 1.57,-2.86 3.3,-3.13 1.66,-0.25 3.2,0.88 3.46,2.53 0.16,1.08 -0.26,2.12 -1.04,2.77 -0.13,0.22 -0.26,0.47 -0.35,0.63 0,0.01 -0.09,0.16 -0.09,0.17 -4.09,7.27 -14.72,11.17 -24.27,11.17z"/>
  <g>
   <path class="fil1" d="M266.77 93.54l0 0.01 0 -0.01zm-16.5 6.6c-5.71,0 -7.99,-1.53 -9.93,-3.37 -0.21,-0.2 -0.41,-0.4 -0.63,-0.58 -0.87,-0.7 -1,-1.97 -0.3,-2.83 0.7,-0.87 1.97,-1.01 2.84,-0.3 0.3,0.24 0.58,0.51 0.88,0.79 1.62,1.54 4.08,3.88 20.58,0.51 0.63,-0.16 2.65,-0.96 3.3,-1.41 0.44,-0.72 1.31,-1.12 2.18,-0.92 1.09,0.25 1.77,1.34 1.51,2.43 -0.57,2.48 -6.13,3.84 -6.19,3.85 -6.34,1.3 -10.88,1.83 -14.24,1.83z"/>
  </g>
  <path class="fil1" d="M260.06 111.4c-6.22,0 -11.81,-2.21 -17.63,-9.39 -0.7,-0.87 -0.57,-2.14 0.3,-2.84 0.87,-0.71 2.14,-0.57 2.84,0.3 8.28,10.22 15.2,8.62 27.78,5.72l0.56 -0.13c1.09,-0.26 2.17,0.43 2.42,1.51 0.25,1.09 -0.43,2.17 -1.51,2.42l-0.56 0.13c-5.23,1.21 -9.87,2.28 -14.2,2.28z"/>
  <path class="fil1" d="M230.18 118.27c-4.72,0 -9.34,-0.49 -12.71,-1.74 -2.86,-1.05 -4.71,-2.6 -5.53,-4.61 -0.42,-1.04 0.08,-2.21 1.11,-2.63 1.03,-0.42 2.21,0.08 2.63,1.11 0.46,1.14 1.99,1.9 3.19,2.34 8.05,2.98 25.28,0.82 28.87,-1.04 0.99,-0.51 2.21,-0.12 2.72,0.87 0.52,0.99 0.13,2.2 -0.86,2.72 -2.99,1.55 -11.36,2.98 -19.42,2.98z"/>
  <g>
   <path class="fil1" d="M273.35 118.58l0 0 0 0zm-28.12 11.74c-7.27,0 -14.75,-1.03 -19.94,-3.34 -5.68,-2.53 -7.24,-5.95 -7.55,-8.38 -0.14,-1.1 0.64,-2.12 1.74,-2.26 1.11,-0.12 2.12,0.64 2.26,1.75 0.26,2.03 2.01,3.78 5.2,5.2 10.77,4.81 31.83,3.23 37.03,-0.36 2.76,-1.9 4.54,-4.43 5.61,-5.94 0.63,-0.9 0.98,-1.4 1.49,-1.75 0.91,-0.62 2.18,-0.39 2.8,0.53 0.6,0.87 0.42,2.04 -0.38,2.7 -0.15,0.18 -0.35,0.47 -0.61,0.85 -1.14,1.61 -3.27,4.62 -6.62,6.94 -3.7,2.55 -12.21,4.06 -21.03,4.06z"/>
  </g>
  <path class="fil1" d="M80.02 196.74c0,0 0,0 0,0 0,0 0,0 0,0zm9.52 7.79c-5.58,0 -13.32,-1.36 -15.07,-5.37 -0.67,-1.54 0.04,-3.32 1.57,-3.99 1.45,-0.63 3.13,-0.03 3.87,1.34 1.35,1.19 8.48,2.92 15.42,1.32 5.34,-1.22 8.74,-3.94 10.1,-8.05 0.59,-1.8 1.15,-3.67 1.7,-5.58 2.04,-6.89 4.13,-14.03 8.72,-19.86 3.32,-4.22 4.65,-5.39 10.08,-7.2l0.49 -0.16c1.59,-0.53 3.3,0.33 3.83,1.91 0.53,1.59 -0.32,3.3 -1.91,3.83l-0.49 0.17c-4.13,1.37 -4.56,1.79 -7.24,5.2 -3.86,4.91 -5.8,11.48 -7.66,17.83 -0.59,1.96 -1.16,3.9 -1.77,5.76 -2.55,7.68 -9.9,12.35 -20.18,12.82 -0.47,0.02 -0.95,0.03 -1.46,0.03z"/>
  <path class="fil1" d="M94.47 170.55c-6.19,0 -12.12,-2.02 -14.31,-7.83 -0.59,-1.57 0.21,-3.32 1.77,-3.9 1.57,-0.59 3.31,0.2 3.9,1.76 1.83,4.87 10.22,4.27 14.89,3.14 5,-1.21 5.72,-1.56 8.38,-2.87 0.95,-0.46 2.11,-1.03 3.72,-1.77 1.51,-0.7 3.32,-0.04 4.01,1.48 0.7,1.52 0.04,3.32 -1.48,4.02 -1.55,0.71 -2.67,1.26 -3.57,1.71 -3.09,1.52 -4.22,2.01 -9.64,3.32 -2.43,0.59 -5.07,0.94 -7.67,0.94z"/>
  <path class="fil1" d="M87.52 188.1c-4.75,0 -9.66,-1.1 -12.09,-4.86 -0.92,-1.4 -0.52,-3.27 0.89,-4.18 1.4,-0.92 3.27,-0.52 4.19,0.89 1.83,2.82 10.24,2.44 15.22,0.94 0.3,-0.1 0.57,-0.16 0.8,-0.2 1.19,-0.98 2.95,-0.91 4.06,0.2 1.18,1.18 1.18,3.1 0,4.28 -0.85,0.85 -1.64,1.4 -2.97,1.48 -2.18,0.66 -6.08,1.45 -10.1,1.45z"/>
  <path class="fil1" d="M123.42 199.7c0,0 0,0 0,0 0,0 0,0 0,0zm-26.52 39.23c-3.47,0 -6.81,-0.86 -9.42,-2.56 -3.57,-2.33 -5.54,-6.08 -5.54,-10.57 0,-1.67 1.36,-3.03 3.03,-3.03 1.68,0 3.03,1.36 3.03,3.03 0,2.48 0.91,4.27 2.79,5.49 3.01,1.97 8.13,2.11 12.16,0.33 12.46,-5.48 12.79,-10.38 13.65,-23.45 0.65,-9.82 1.31,-11.31 2.16,-12.34 1.07,-1.28 2.98,-1.46 4.27,-0.39 1.17,0.98 1.42,2.65 0.64,3.91 -0.16,0.51 -0.57,2.41 -1.03,9.22 -0.96,14.61 -2.1,21.93 -17.25,28.6 -2.69,1.18 -5.63,1.76 -8.49,1.76z"/>
  <path class="fil1" d="M122.44 248.05c-1.28,0 -2.74,-0.24 -4.38,-0.87 -0.2,-0.08 -0.46,-0.2 -0.78,-0.36 -0.23,-0.12 -0.53,-0.27 -0.9,-0.42 -1.56,-0.62 -2.31,-2.38 -1.7,-3.94 0.63,-1.55 2.38,-2.31 3.94,-1.69 0.58,0.24 1.03,0.47 1.39,0.64l0.25 0.13c2.26,0.87 3.29,0.3 3.63,0.11 1.48,-0.82 2.71,-3.26 3.39,-6.7 1.34,-6.84 -0.44,-13.32 -2.33,-20.17 -0.55,-2.01 -1.11,-4.03 -1.59,-6.07 -0.39,-1.63 0.62,-3.26 2.24,-3.65 1.63,-0.38 3.26,0.62 3.65,2.25 0.47,1.97 1,3.92 1.53,5.86 2,7.23 4.06,14.7 2.44,22.94 -1.07,5.43 -3.22,9.08 -6.4,10.84 -1.04,0.58 -2.51,1.1 -4.38,1.1z"/>
  <path class="fil1" d="M98.05 223.66c-5.57,0 -8.06,-2.32 -11.35,-6.62 -1.01,-1.33 -0.76,-3.23 0.57,-4.25 1.33,-1.02 3.23,-0.76 4.24,0.57 2.91,3.8 3.69,4.83 9.6,4 1.19,-0.16 2.08,-1.63 3.11,-3.53 0.62,-1.14 1.2,-2.22 2.06,-3.02 1.23,-1.13 3.15,-1.05 4.28,0.18 1.13,1.23 1.05,3.15 -0.18,4.28 -0.15,0.17 -0.55,0.91 -0.84,1.45 -1.23,2.26 -3.28,6.04 -7.59,6.64 -1.46,0.2 -2.74,0.3 -3.9,0.3z"/>
  <path class="fil1" d="M135.85 253.66c-0.77,0 -1.5,-0.21 -2.04,-0.43 -1.56,-0.61 -2.31,-2.37 -1.7,-3.93 0.59,-1.48 2.21,-2.23 3.7,-1.78 2.89,-0.89 4.71,-2.29 5.55,-4.26 2.48,-5.84 -3.36,-16.51 -6.49,-22.24 -0.49,-0.89 -0.94,-1.71 -1.32,-2.43 -0.78,-1.48 -0.21,-3.31 1.27,-4.09 1.47,-0.78 3.3,-0.22 4.08,1.27 0.38,0.7 0.81,1.49 1.28,2.35 4.13,7.55 10.39,18.96 6.75,27.51 -1.65,3.87 -5.05,6.53 -10.12,7.9 -0.32,0.09 -0.64,0.13 -0.96,0.13z"/>
  <g>
   <path class="fil1" d="M200.58 340.83c0,0 -0.01,0 -0.01,0 0,0 0.01,0 0.01,0zm-0.01 0.01c0,0 -0.01,0 -0.01,0 0,0 0.01,0 0.01,0zm-0.01 0l0 0 0 0zm1.75 5.5c-0.96,0 -1.9,-0.45 -2.49,-1.3 -0.62,-0.89 -0.69,-2 -0.29,-2.94 0.11,-0.61 0.27,-2.11 0.32,-2.64 0.05,-0.48 0.09,-0.84 0.11,-0.96 1.48,-8.92 -0.66,-16.41 -2.73,-23.64 -0.56,-1.95 -1.14,-3.96 -1.61,-5.94 -3.49,-14.35 0.1,-24.48 6.56,-35.26 0.59,-1 0.99,-1.91 1.31,-2.63 0.28,-0.63 0.52,-1.14 0.74,-1.51 2.87,-4.83 10.55,-19.73 12.4,-26.64 0.43,-1.62 2.09,-2.59 3.71,-2.15 1.62,0.44 2.57,2.1 2.14,3.71 -2.13,7.93 -10.19,23.37 -13.04,28.17 -0.13,0.21 -0.25,0.5 -0.4,0.86 -0.37,0.83 -0.88,1.98 -1.67,3.3 -5.85,9.78 -8.88,18.33 -5.87,30.73 0.45,1.85 0.99,3.72 1.55,5.7 2.15,7.51 4.58,16.02 2.89,26.28 -0.01,0.07 -0.03,0.3 -0.06,0.59 -0.36,3.49 -0.49,4.79 -1.84,5.73 -0.53,0.37 -1.13,0.54 -1.73,0.54z"/>
  </g>
  <path class="fil1" d="M166.73 317.23c-1.67,0 -3.03,-1.35 -3.03,-3.03 0,-14.74 -7.84,-30.89 -14.13,-43.87 -4.29,-8.83 -7.98,-16.45 -8.67,-22.26 -0.19,-1.66 1,-3.16 2.66,-3.36 1.65,-0.19 3.16,0.99 3.36,2.66 0.56,4.78 4.05,11.98 8.1,20.32 6.56,13.53 14.74,30.38 14.74,46.51 0,1.68 -1.36,3.03 -3.03,3.03z"/>
  <g>
   <path class="fil1" d="M131.48 327.64l0.02 0 -0.02 0zm-2.26 5.04c-2.55,0 -3.34,-1.52 -7.62,-14.02 -0.27,-0.77 -0.46,-1.32 -0.53,-1.51 -2.23,-5.53 -4.55,-10.29 -6.81,-14.9 -6.31,-12.91 -11.75,-24.06 -12.37,-45.56 -0.15,-5.26 2.83,-10.48 5.45,-15.08 1.14,-1.98 2.21,-3.86 2.86,-5.45 0.63,-1.55 2.39,-2.3 3.94,-1.67 1.55,0.63 2.3,2.4 1.67,3.95 -0.8,1.96 -1.97,4.01 -3.21,6.18 -2.23,3.91 -4.76,8.33 -4.66,11.9 0.58,20.19 5.77,30.79 11.76,43.07 2.3,4.7 4.68,9.57 7,15.31 0.07,0.19 0.3,0.85 0.63,1.8 0.96,2.82 1.77,5.11 2.43,6.87 5.35,-5.04 15.66,-6.99 24.31,-8.62 3.36,-0.63 7.96,-1.5 8.91,-2.16 1.25,-1.1 3.14,-0.96 4.25,0.29 1.1,1.26 0.96,3.19 -0.3,4.3 -1.81,1.59 -5.27,2.3 -11.73,3.52 -7.96,1.5 -21.27,4.02 -22.83,9.43 -0.4,1.37 -1.59,2.32 -2.97,2.35 -0.06,0 -0.12,0 -0.18,0z"/>
  </g>
  <path class="fil1" d="M210.97 261.38c0.04,0.05 0.08,0.08 0.12,0.11 -0.04,-0.03 -0.08,-0.07 -0.12,-0.11zm54.04 61.78c-1.48,0 -2.77,-1.08 -2.99,-2.59 -0.29,-2.01 -6.98,-7.36 -9.84,-9.65 -2.03,-1.62 -3.79,-3.03 -4.97,-4.2 -2.07,-2.04 -5.22,-4.11 -8.27,-6.1 -3.82,-2.5 -7.42,-4.87 -9.6,-7.53 -2.61,-3.18 -7.73,-12.57 -12.25,-20.85 -2.53,-4.64 -5.4,-9.9 -6.16,-10.9 -1.11,-1.12 -1.17,-2.92 -0.11,-4.12 1.1,-1.25 3.02,-1.38 4.27,-0.27 0.92,0.81 1.95,2.55 7.32,12.39 3.95,7.25 9.37,17.17 11.61,19.91 1.6,1.95 4.97,4.16 8.24,6.3 3.29,2.16 6.7,4.4 9.2,6.86 0.96,0.95 2.68,2.33 4.5,3.79 6.69,5.34 11.46,9.44 12.05,13.5 0.25,1.65 -0.9,3.19 -2.56,3.43 -0.15,0.02 -0.29,0.03 -0.44,0.03z"/>
  <path class="fil1" d="M225.62 340.68c-0.91,0 -1.77,-0.41 -2.35,-1.12 -1.09,-1.34 -3.86,-4.45 -6.31,-7.19 -3.93,-4.41 -5.05,-5.68 -5.42,-6.25 -1.74,-2.65 -4.2,-4.9 -6.8,-7.29 -4.92,-4.51 -10.5,-9.62 -10.4,-17.96 0.01,-1.66 1.37,-3 3.02,-3 0.01,0 0.03,0 0.04,0.01 1.67,0.02 3.01,1.39 2.99,3.06 -0.07,5.63 3.88,9.24 8.44,13.43 2.77,2.53 5.62,5.15 7.78,8.43 0.33,0.45 2.85,3.27 4.87,5.53 1.12,1.27 2.26,2.55 3.29,3.71 1.22,-3.19 3.25,-5.95 10.56,-8.81 1.07,-0.45 4.82,-2.44 6.3,-3.56 -0.51,-4.44 -4.29,-11.32 -7.37,-16.93 -2.06,-3.74 -3.99,-7.27 -5.03,-10.07 -0.57,-1.57 0.23,-3.31 1.8,-3.88 1.57,-0.58 3.31,0.22 3.89,1.79 0.87,2.38 2.7,5.71 4.64,9.24 3.84,6.98 8.18,14.88 8.18,20.79 0,4.21 -9.78,8.09 -10.2,8.26 -6.17,2.41 -6.69,4 -7.42,6.2 -0.39,1.21 -0.89,2.71 -2.02,4.32 -0.55,0.78 -1.43,1.25 -2.38,1.29 -0.03,0 -0.07,0 -0.1,0z"/>
  <path class="fil1" d="M201.96 351.66c-0.11,0 -0.22,-0.01 -0.33,-0.02 -0.94,-0.1 -1,-0.11 -12.83,-7.33 -2.68,-1.64 -5.02,-3.06 -5.93,-3.59 -2.69,-1.57 -3.16,-4.28 -3.5,-6.25 -0.29,-1.67 -0.51,-2.73 -1.38,-3.55 -1.73,-1.65 -3.02,-2.81 -4.19,-3.86 -2.23,-2 -4.16,-3.73 -7.86,-7.75 -1.13,-1.23 -1.06,-3.14 0.17,-4.28 1.23,-1.13 3.15,-1.05 4.28,0.18 3.51,3.8 5.25,5.36 7.46,7.34 1.21,1.09 2.54,2.28 4.33,3.99 2.35,2.24 2.81,4.93 3.15,6.89 0.15,0.85 0.33,1.91 0.59,2.06 0.92,0.53 3.3,1.98 6.03,3.65 2.11,1.29 5,3.05 7.33,4.45 0,-0.09 0,-0.18 0,-0.27 0,-1.68 1.35,-3.03 3.03,-3.03 1.67,0 3.03,1.35 3.03,3.03 0,1.15 -0.11,1.94 -0.21,2.65 -0.09,0.74 -0.18,1.39 -0.14,2.56 0.03,0.88 -0.32,1.73 -0.97,2.32 -0.56,0.53 -1.3,0.81 -2.06,0.81z"/>
  <path class="fil1" d="M42.38 303.04c-0.52,0 -1.04,-0.13 -1.52,-0.41 -1.45,-0.85 -1.93,-2.7 -1.09,-4.15 5.16,-8.83 41.93,-36.23 51.36,-40.17 2.71,-1.13 11.66,-7.86 12.69,-9.79 0.67,-1.54 2.43,-2.23 3.97,-1.56 1.54,0.66 2.24,2.46 1.58,4 -1.72,3.96 -13.09,11.76 -15.91,12.94 -8.95,3.74 -44.38,30.64 -48.46,37.64 -0.56,0.96 -1.58,1.5 -2.62,1.5z"/>
  <path class="fil1" d="M271.99 222.53c-7.87,0 -15.55,-1.72 -20.05,-6.05 -3.04,-2.93 -5.95,-8.31 -2.51,-17.28 0.6,-1.56 2.35,-2.34 3.91,-1.74 1.56,0.59 2.34,2.34 1.74,3.91 -1.83,4.78 -1.48,8.29 1.06,10.75 6.41,6.18 24.34,4.99 33.29,1.17 1.54,-0.66 3.32,0.06 3.98,1.6 0.65,1.54 -0.06,3.32 -1.6,3.97 -5.19,2.21 -12.58,3.67 -19.82,3.67z"/>
  <g>
   <path class="fil1" d="M255.62 170.42l0 0.01 0 -0.01zm31.02 24.54c-7.4,0 -16,-3.86 -25.72,-11.57 -6.74,-5.35 -10.48,-9.13 -11.1,-11.24 -0.48,-1.6 0.43,-3.29 2.04,-3.76 1.54,-0.47 3.16,0.37 3.7,1.86 0.55,0.91 3.75,4.13 9.12,8.39 12.14,9.63 21.74,12.5 28.53,8.52 0.3,-0.17 0.65,-0.37 1.03,-0.57 0.95,-0.52 2.13,-1.16 2.94,-1.86 1.26,-1.09 3.17,-0.95 4.26,0.31 1.1,1.27 0.96,3.18 -0.31,4.27 -1.3,1.13 -2.85,1.97 -3.99,2.59 -0.32,0.18 -0.62,0.34 -0.87,0.49 -2.93,1.72 -6.15,2.57 -9.63,2.57z"/>
  </g>
  <path class="fil1" d="M270.84 236.13c0,0 0,0 0,0 0,0 0,0 0,0zm-11.34 7.68c-8.45,0 -16,-3.99 -20.26,-11.06 -0.86,-1.43 -0.4,-3.29 1.03,-4.15 1.43,-0.87 3.3,-0.41 4.16,1.03 4.05,6.71 11.89,9.57 20.47,7.44 0.48,-0.11 1.67,-0.32 2.95,-0.53 1.08,-0.18 2.84,-0.47 3.4,-0.61 1.36,-0.56 2.96,-0.05 3.74,1.26 0.85,1.44 0.37,3.3 -1.07,4.15 -0.71,0.42 -1.47,0.57 -5.07,1.17 -1.09,0.18 -2.09,0.34 -2.5,0.44 -2.32,0.58 -4.61,0.86 -6.85,0.86z"/>
  <path class="fil1" d="M234.26 255.2c-0.25,0 -0.5,-0.04 -0.76,-0.1 -6.72,-1.73 -11.38,-6.32 -13.11,-12.92 -0.43,-1.61 0.54,-3.27 2.16,-3.7 1.6,-0.42 3.27,0.54 3.69,2.16 1.19,4.51 4.14,7.4 8.77,8.59 1.62,0.42 2.59,2.07 2.18,3.69 -0.35,1.37 -1.58,2.28 -2.93,2.28z"/>
  <path class="fil1" d="M295.17 121.8c0.01,0 0.01,0 0.01,0.01 0,-0.01 0,-0.01 -0.01,-0.01zm-62.51 146.63c-6.04,0 -12.18,-1.15 -16.94,-2.74 -1.58,-0.53 -2.44,-2.25 -1.91,-3.83 0.52,-1.59 2.24,-2.45 3.82,-1.92 8.29,2.76 27.75,5.25 31.65,-5.37 2.17,-5.91 7.48,-7.41 12.16,-8.73 6.32,-1.78 12.29,-3.47 15.58,-13.98 0.61,-1.96 1.43,-4.19 4,-7.97 3.8,-5.61 6.76,-9.15 9.14,-12 5.7,-6.82 7.05,-8.44 7.05,-26.03 0,-2.32 0.57,-5.27 1.22,-8.69 0.97,-5.08 2.59,-13.58 0.36,-15.44 -0.16,-0.13 -0.31,-0.29 -0.45,-0.45l-0.27 -0.35c-0.13,-0.13 -0.25,-0.26 -0.36,-0.41 -0.99,-1.36 -0.65,-2.64 -0.04,-4.96 0.7,-2.65 1.88,-7.1 1.62,-11.88 -0.43,-8 -4.52,-15.47 -6.49,-16.31 -1.52,-0.64 -2.33,-1.88 -2.41,-3.68 -0.08,-1.67 1.19,-3.17 2.86,-3.25 1.35,-0.08 2.58,0.73 3.01,1.95 4.91,3.2 8.66,13.2 9.08,20.97 0.31,5.72 -1.07,10.95 -1.82,13.75 -0.05,0.2 -0.11,0.42 -0.16,0.62 4.11,4.39 2.47,12.97 1.02,20.58 -0.57,2.99 -1.11,5.81 -1.11,7.55 0,19 -1.75,21.89 -8.46,29.91 -2.29,2.75 -5.15,6.16 -8.79,11.52 -2.1,3.1 -2.72,4.78 -3.22,6.37 -4.27,13.65 -13.19,16.17 -19.71,18.01 -4.62,1.3 -7.07,2.11 -8.13,4.98 -3.23,8.83 -12.65,11.78 -22.3,11.78z"/>
  <path class="fil1" d="M90.9 119.4c0,0.02 -0.01,0.03 -0.01,0.05 0,-0.02 0.01,-0.03 0.01,-0.05zm-2.7 13.65c-0.63,0 -1.27,-0.19 -1.81,-0.6 -1.34,-1 -1.62,-2.89 -0.62,-4.23 0.79,-1.07 4.58,-7.57 5.16,-8.96 0.9,-4.41 3.14,-8.79 4.94,-12.32 0.93,-1.81 1.89,-3.69 2.1,-4.55 1.3,-5.5 3.63,-13.54 7.28,-20.69 1.36,-2.66 3.1,-4.6 4.63,-6.31 1.33,-1.48 2.58,-2.87 3.46,-4.59 1.19,-2.28 1.35,-3.78 1.52,-5.24 0.09,-0.77 0.18,-1.57 0.4,-2.42 1.99,-7.5 5.51,-9.73 9.97,-12.55 0.78,-0.49 1.61,-1.02 2.51,-1.62 4.39,-2.94 6.62,-3.61 8.09,-4.05 1.18,-0.36 1.54,-0.47 4.32,-4.35 0.42,-0.59 1.82,-3.51 2.28,-4.47 0.39,-0.79 0.68,-1.35 0.74,-1.45 4.28,-6.63 6.53,-8.09 10.81,-10.49 1.54,-0.87 3.28,-1.85 5.6,-3.41 2.71,-1.82 8.39,-2.04 16.74,-2.17 2.61,-0.04 5.08,-0.08 6.55,-0.24 4.71,-0.49 6.23,-1.16 7.7,-1.81 2.74,-1.22 5.19,-2.02 13.84,-2.02 8.67,0 16.89,6.18 21.3,9.51 0.74,0.56 1.64,1.23 2.1,1.52 5.54,0.75 15.1,5.55 18.64,8.03 2.23,1.56 4.88,4.03 7.69,6.64 3.94,3.66 8.84,8.21 11.88,9.33 1.57,0.57 2.37,2.31 1.8,3.88 -0.58,1.57 -2.32,2.38 -3.89,1.8 -4.17,-1.53 -9.13,-6.13 -13.91,-10.57 -2.65,-2.47 -5.16,-4.8 -7.05,-6.12 -3.48,-2.44 -12.32,-6.64 -16.22,-7.01 -1.31,-0.13 -2.37,-0.93 -4.68,-2.66 -3.85,-2.9 -11.01,-8.29 -17.66,-8.29 -8.02,0 -9.58,0.69 -11.39,1.49 -1.81,0.8 -3.86,1.71 -9.51,2.31 -1.75,0.18 -4.23,0.22 -7.1,0.26 -3.86,0.07 -11.89,0.19 -13.46,1.15 -2.51,1.69 -4.45,2.78 -6,3.65 -3.54,1.99 -5.02,2.83 -8.62,8.4 -0.09,0.17 -0.24,0.49 -0.44,0.89 -1.37,2.86 -2.22,4.56 -2.81,5.38 -3.52,4.9 -4.7,5.76 -7.5,6.61 -1.19,0.37 -2.83,0.86 -6.48,3.3 -0.94,0.63 -1.81,1.18 -2.63,1.7 -4.23,2.67 -5.98,3.78 -7.35,8.98 -0.12,0.42 -0.17,0.95 -0.24,1.56 -0.2,1.71 -0.46,4.06 -2.15,7.33 -1.25,2.41 -2.82,4.16 -4.34,5.85 -1.41,1.58 -2.75,3.06 -3.75,5.02 -3.38,6.62 -5.55,14.17 -6.78,19.34 -0.38,1.57 -1.35,3.48 -2.59,5.91 -1.66,3.24 -3.72,7.28 -4.44,10.92 -0.37,1.92 -5.6,10.4 -6.2,11.21 -0.6,0.8 -1.51,1.22 -2.43,1.22z"/>
  <path class="fil1" d="M88.2 186.36c-0.2,0 -0.41,-0.02 -0.62,-0.07 -3.13,-0.66 -3.8,-2.77 -4.09,-3.66 -0.03,-0.08 -0.05,-0.17 -0.09,-0.25 -2.92,-4.07 -2.63,-8.43 -2.38,-12.28 0.15,-2.18 0.29,-4.24 -0.16,-6.16 -0.37,-1.63 0.64,-3.25 2.27,-3.63 1.63,-0.37 3.26,0.64 3.63,2.27 0.65,2.79 0.47,5.52 0.31,7.93 -0.23,3.37 -0.41,6.04 1.33,8.47 0.39,0.55 0.61,1.07 0.75,1.49 1.38,0.52 2.26,1.99 1.95,3.47 -0.31,1.43 -1.51,2.42 -2.9,2.42z"/>
  <path class="fil2" d="M221.13 150.6c2.57,0 4.66,2.09 4.66,4.66 0,2.57 -2.09,4.65 -4.66,4.65 -2.57,0 -4.66,-2.08 -4.66,-4.65 0,-2.57 2.09,-4.66 4.66,-4.66z"/>
  <path class="fil2" d="M160.47 146.41c2.57,0 4.65,2.08 4.65,4.65 0,2.58 -2.08,4.66 -4.65,4.66 -2.57,0 -4.66,-2.08 -4.66,-4.66 0,-2.57 2.09,-4.65 4.66,-4.65z"/>
  <path class="fil1" d="M187.95 111.66c-8.7,0 -14.53,-3.35 -16.84,-9.85 -0.55,-1.58 0.27,-3.31 1.85,-3.87 1.57,-0.56 3.3,0.27 3.86,1.85 2.79,7.88 14.94,6.05 21.93,4.25 1.63,-0.42 3.27,0.56 3.69,2.18 0.41,1.62 -0.56,3.27 -2.18,3.69 -4.57,1.17 -8.69,1.75 -12.31,1.75z"/>
  <path class="fil1" d="M282.9 168.91c-0.19,0 -0.39,-0.01 -0.58,-0.01 -3.65,-0.04 -15.91,-0.74 -20.47,-7.7 -0.92,-1.4 -0.53,-3.28 0.87,-4.19 1.4,-0.92 3.28,-0.53 4.2,0.87 1.85,2.83 8.22,4.87 15.48,4.97 7.89,0.06 13.44,-1.96 14.88,-4.03 0.95,-1.37 2.83,-1.72 4.21,-0.77 1.38,0.95 1.72,2.84 0.76,4.22 -3.4,4.9 -12.11,6.64 -19.35,6.64z"/>
 </g>
</svg>
