<?xml version="1.0" encoding="UTF-8"?>
<!DOCTYPE svg PUBLIC "-//W3C//DTD SVG 1.1//EN" "http://www.w3.org/Graphics/SVG/1.1/DTD/svg11.dtd">
<!-- Creator: CorelDRAW 2018 (64-Bit) -->
<svg xmlns="http://www.w3.org/2000/svg" xml:space="preserve" width="845px" height="845px" version="1.1" style="shape-rendering:geometricPrecision; text-rendering:geometricPrecision; image-rendering:optimizeQuality; fill-rule:evenodd; clip-rule:evenodd"
viewBox="0 0 361.04 361.04"
 xmlns:xlink="http://www.w3.org/1999/xlink">
 <defs>
  <style type="text/css">
   <![CDATA[
    .fil0 {fill:none}
    .fil2 {fill:black}
    .fil1 {fill:black;fill-rule:nonzero}
   ]]>
  </style>
 </defs>
 <g id="Слой_x0020_1">
  <metadata id="CorelCorpID_0Corel-Layer"/>
  <rect class="fil0" width="361.04" height="361.04"/>
 </g>
 <g id="_1">
  <metadata id="CorelCorpID_1Corel-Layer"/>
  <g>
   <path class="fil1" d="M253.84 133.71l0.03 0 -0.03 0zm10.86 5.26l0 0 0 0zm-10.92 0.8c0.02,0 0.03,0 0.05,0 -0.02,0 -0.04,0 -0.05,0zm10.66 5.25c-0.09,0 -0.18,0 -0.27,-0.01 -1.13,-0.1 -2.2,-0.7 -5.1,-2.41 -1.55,-0.91 -4.42,-2.6 -5.38,-2.84 -0.62,-0.02 -1.09,-0.23 -1.64,-0.45 -1.15,-0.49 -3.54,-1.5 -5.69,-0.54 -0.58,0.25 -1.43,0.57 -2.37,0.91 -1.48,0.55 -3.52,1.29 -4.35,1.84 -1.4,0.92 -3.28,0.52 -4.19,-0.88 -0.92,-1.39 -0.53,-3.27 0.87,-4.19 1.42,-0.92 3.63,-1.74 5.59,-2.45 0.79,-0.3 1.51,-0.56 2.01,-0.77 4.53,-2.01 8.85,-0.19 10.48,0.49l0.08 0.04c1.74,0.23 3.89,1.41 7.66,3.62 1.03,0.61 2.42,1.43 2.94,1.65 1.47,0.32 2.51,1.69 2.37,3.22 -0.14,1.58 -1.46,2.77 -3.01,2.77z"/>
  </g>
  <path class="fil1" d="M202.84 138.39c-0.07,0 -0.13,0 -0.19,-0.01 -3.24,-0.19 -5.1,-2.33 -6.22,-3.61 -0.21,-0.24 -0.39,-0.47 -0.57,-0.62 -1.07,-0.81 -2.7,-0.52 -12.34,1.64 -1.87,0.42 -4.02,0.9 -6.49,1.44 -1.63,0.37 -3.25,-0.67 -3.61,-2.31 -0.36,-1.63 0.67,-3.24 2.31,-3.6 2.46,-0.54 4.6,-1.02 6.47,-1.44 11.24,-2.52 13.91,-3.12 17.31,-0.57 0.58,0.44 1.04,0.97 1.49,1.48 0.81,0.94 1.35,1.51 2.01,1.55 1.67,0.1 2.94,1.53 2.84,3.2 -0.09,1.61 -1.42,2.85 -3.01,2.85z"/>
  <path class="fil1" d="M232.79 138.64c-0.53,0 -1.06,-0.14 -1.54,-0.42 -3.74,-2.22 -8.98,-2.58 -16.5,-1.15 -0.1,0.02 -0.21,0.03 -0.32,0.04 -1.67,0.15 -3.21,-1.1 -3.35,-2.77 -0.13,-1.66 1.03,-3.12 2.69,-3.25 5.55,-1.05 13.89,-2.04 20.56,1.92 1.44,0.85 1.92,2.71 1.06,4.14 -0.56,0.96 -1.57,1.49 -2.6,1.49z"/>
  <path class="fil1" d="M163.78 138.47c-4.76,0 -19.36,-2.43 -23.95,-3.34 -0.19,0 -0.39,0 -0.42,0 -1.67,0 -3.03,-1.35 -3.03,-3.02 0,-1.68 1.36,-3.03 3.03,-3.03l0.57 -0.02c0.23,0 0.49,0.02 0.72,0.06 4.67,0.96 19.14,3.3 23.08,3.3 1.67,0 3.03,1.35 3.03,3.02 0,1.68 -1.36,3.03 -3.03,3.03z"/>
  <path class="fil1" d="M286.79 147.32c-0.07,0 -0.14,-0.01 -0.2,-0.01l-5.18 -0.33c-1.66,-0.11 -2.93,-1.55 -2.82,-3.22 0.1,-1.67 1.56,-2.91 3.21,-2.83l5.18 0.34c1.66,0.1 2.93,1.54 2.82,3.21 -0.1,1.6 -1.43,2.84 -3.01,2.84z"/>
  <path class="fil1" d="M239.66 133.54c-8.16,3.85 -5.46,13.19 -3.13,18.42 1.43,3.2 2.98,4.72 6.41,6.26 3.53,1.59 10.65,4.21 18.4,4.01 7.1,-0.17 12.52,-3.79 14.86,-9.9 1.4,-3.67 1.8,-8.74 1.19,-10.48 -0.61,-1.71 -1.96,-3.13 -4.27,-4.45 -8.7,-4.98 -25.21,-7.76 -33.46,-3.86l0 0zm20.86 34.76c-8.59,0 -16.21,-2.83 -20.06,-4.56 -4.77,-2.14 -7.43,-4.75 -9.46,-9.31 -5.43,-12.16 -3.15,-22.01 6.08,-26.37l0 0c11.27,-5.32 30.24,-0.96 39.05,4.09 3.59,2.05 5.87,4.57 6.97,7.7 1.31,3.72 0.39,10.36 -1.25,14.64 -3.21,8.4 -10.82,13.56 -20.35,13.8 -0.33,0.01 -0.66,0.01 -0.98,0.01z"/>
  <path class="fil1" d="M192.89 127.12c-7.55,0 -15.87,1.75 -21.37,4.48 -2.45,1.21 -3.93,2.58 -4.65,4.31 -0.74,1.74 -0.64,6.95 0.57,10.79 2.02,6.4 7.34,10.42 14.59,11.04 7.96,0.66 15.33,-1.58 19.03,-2.98 3.6,-1.36 5.29,-2.83 6.95,-6.02 2.71,-5.2 6.03,-14.6 -2.1,-19.05 -3.28,-1.79 -7.98,-2.57 -13.02,-2.57zm-7.92 36.8c-1.13,0 -2.28,-0.05 -3.45,-0.15 -9.67,-0.82 -17.1,-6.52 -19.85,-15.25 -1.41,-4.45 -1.94,-11.26 -0.39,-14.95 1.31,-3.11 3.77,-5.53 7.54,-7.4 9.28,-4.6 28.85,-7.89 39.99,-1.79 9.11,4.98 10.82,15.13 4.58,27.15 -2.35,4.51 -5.2,7 -10.18,8.89 -3.65,1.39 -10.49,3.5 -18.24,3.5z"/>
  <path class="fil1" d="M270.39 118.21c-1.08,0 -2.13,-0.58 -2.67,-1.6 -2.21,-4.12 -5.21,-6.43 -9.43,-7.25 -0.43,-0.06 -2.56,-0.07 -4.27,-0.08 -9.6,-0.03 -12.85,-0.27 -14.52,-1.65 -1.29,-1.06 -1.47,-2.97 -0.4,-4.26 0.97,-1.18 2.66,-1.43 3.92,-0.65 1.59,0.47 7.94,0.5 11.02,0.51 3.38,0.01 4.64,0.03 5.41,0.18 6.06,1.19 10.52,4.57 13.6,10.34 0.79,1.48 0.24,3.31 -1.23,4.1 -0.46,0.24 -0.95,0.36 -1.43,0.36z"/>
  <path class="fil1" d="M164.78 110.49c-0.74,0 -1.48,-0.27 -2.06,-0.8 -1.23,-1.14 -1.3,-3.05 -0.17,-4.28 2.83,-3.07 6.03,-5.3 10.37,-7.26 3.24,-1.45 10.6,-1.33 23.05,-0.61 2.02,0.12 3.77,0.22 4.52,0.22 1.67,0 3.03,1.35 3.03,3.03 0,1.67 -1.36,3.02 -3.03,3.02 -0.93,0 -2.58,-0.09 -4.87,-0.23 -4.85,-0.28 -17.72,-1.03 -20.21,0.1 -3.62,1.62 -6.13,3.36 -8.41,5.83 -0.6,0.65 -1.41,0.98 -2.22,0.98z"/>
  <path class="fil1" d="M264.33 92.35c-0.14,0 -0.29,-0.01 -0.45,-0.04 -0.69,-0.16 -2.02,-0.44 -3.55,-0.75 -4.54,-0.92 -7.82,-1.61 -8.8,-1.98 -5.56,-2.12 -7.82,-1.92 -11.93,-1.55 -1.39,0.12 -2.97,0.26 -4.9,0.33 -9.7,0.36 -12.31,0.45 -21.94,-1.53 -4.23,-0.86 -6.52,-1.52 -8.19,-2 -1.34,-0.38 -2.15,-0.62 -3.22,-0.74 -1.11,-0.13 -1.91,-1.12 -1.78,-2.23 0.12,-1.11 1.1,-1.9 2.23,-1.78 1.41,0.16 2.44,0.46 3.88,0.87 1.61,0.46 3.81,1.1 7.89,1.93 9.15,1.87 11.42,1.8 20.98,1.45 1.83,-0.07 3.35,-0.2 4.69,-0.32 4.23,-0.39 7.29,-0.65 13.72,1.79 0.76,0.29 5.58,1.28 8.17,1.81 1.57,0.32 2.94,0.59 3.65,0.76 1.09,0.24 1.77,1.33 1.52,2.41 -0.21,0.94 -1.04,1.57 -1.97,1.57z"/>
  <path class="fil1" d="M254.47 83.06c-0.28,0 -0.58,-0.06 -0.85,-0.19 -6.76,-3.19 -12.49,-3.11 -19.12,-3.01 -2.3,0.03 -4.68,0.07 -7.23,-0.04 -3.78,-0.15 -6.91,-0.75 -9.93,-1.33l-1.84 -0.35c-1.09,-0.2 -1.82,-1.25 -1.62,-2.35 0.21,-1.09 1.24,-1.82 2.35,-1.62l1.87 0.36c2.88,0.55 5.85,1.12 9.33,1.26 2.44,0.1 4.77,0.06 7.02,0.03 6.83,-0.1 13.28,-0.19 20.89,3.4 1.01,0.47 1.44,1.67 0.96,2.68 -0.34,0.73 -1.07,1.16 -1.83,1.16z"/>
  <path class="fil1" d="M279.19 136.92l-0.01 0c-1.67,0 -3.02,-1.35 -3.02,-3.02 0,-0.34 0.05,-1.16 0.12,-2.32 0.26,-3.79 0.78,-11.68 0.27,-18.35 -0.61,-7.86 -2.54,-15.8 -5.73,-23.62 -4.99,-12.22 -17.97,-25.71 -29.55,-30.71 -1.54,-0.66 -2.24,-2.44 -1.58,-3.98 0.66,-1.53 2.45,-2.24 3.98,-1.58 13.07,5.64 27.15,20.25 32.76,33.98 3.43,8.4 5.5,16.96 6.15,25.44 0.55,7.11 0.01,15.29 -0.25,19.22 -0.07,0.96 -0.12,1.63 -0.12,1.92 0,1.67 -1.35,3.02 -3.02,3.02z"/>
  <path class="fil1" d="M280.14 129.92c-0.13,0 -0.27,0 -0.41,-0.01 -1.67,-0.07 -2.97,-1.47 -2.9,-3.14 0.07,-1.67 1.41,-2.97 3.15,-2.91 1.96,0.05 3.93,-1.34 5.17,-2.56 3.94,-3.85 6.3,-10.24 6.23,-13.94 -0.1,-5.73 -2.64,-12.62 -6.63,-17.98 -4.57,-6.16 -10.15,-12.38 -11.18,-13.25 -1.28,-1.07 -1.45,-2.98 -0.37,-4.26 1.07,-1.28 2.98,-1.45 4.26,-0.38 1.82,1.53 7.9,8.55 12.15,14.27 4.77,6.42 7.7,14.45 7.83,21.48 0.11,5.89 -3.35,13.79 -8.05,18.39 -2.88,2.81 -6.06,4.29 -9.25,4.29z"/>
  <path class="fil1" d="M281.86 168.3c-1.67,0 -3.03,-1.35 -3.03,-3.03 0,-1.67 1.36,-3.02 3.03,-3.02 13.09,0 18.55,-11.07 19.28,-21.42 0.82,-11.46 -3.71,-28.14 -11.53,-42.47 -0.8,-1.47 -0.26,-3.31 1.21,-4.11 1.47,-0.8 3.31,-0.26 4.11,1.21 8.46,15.52 13.16,33.07 12.25,45.8 -1.17,16.43 -11.11,27.04 -25.32,27.04z"/>
  <path class="fil1" d="M290.61 139.29c-0.67,0 -1.32,-0.33 -1.71,-0.93 -0.6,-0.94 -0.32,-2.19 0.62,-2.79 7.05,-4.49 6.66,-11.14 6.31,-17 -0.07,-1.19 -0.14,-2.33 -0.14,-3.37 0,-1.11 0.91,-2.01 2.02,-2.01 1.12,0 2.02,0.9 2.02,2.01 0,0.97 0.06,2.02 0.13,3.13 0.37,6.28 0.88,14.88 -8.17,20.65 -0.33,0.21 -0.71,0.31 -1.08,0.31z"/>
  <path class="fil1" d="M274.51 70.5c-1.67,0 -3.03,-1.36 -3.03,-3.03 0,-1.77 -0.04,-1.97 -0.17,-2.48 -0.13,-0.48 -0.29,-1.11 -0.48,-2.4 -1.16,-7.47 -22.31,-18.08 -28.22,-18.47 -1.67,-0.11 -2.94,-1.55 -2.83,-3.22 0.11,-1.67 1.56,-2.92 3.22,-2.82 7.24,0.47 32.01,11.95 33.81,23.59 0.15,0.98 0.27,1.47 0.37,1.84 0.26,1.04 0.36,1.65 0.36,3.96 0,1.67 -1.36,3.03 -3.03,3.03z"/>
  <path class="fil1" d="M156.83 87.65c-2.37,0 -4.72,-0.3 -7.01,-1.1 -1.58,-0.55 -2.42,-2.27 -1.88,-3.85 0.55,-1.58 2.28,-2.42 3.85,-1.87 4.38,1.51 9.6,0.48 15.12,-0.61 3.34,-0.66 6.78,-1.34 10.11,-1.42 6.4,-1.43 14.71,-5.07 16.48,-7.92 6.08,-9.8 16.82,-12.52 25.45,-14.71 8.44,-2.14 12.15,-3.45 12.15,-7.06 0,-1.67 1.35,-3.03 3.02,-3.03 1.68,0 3.03,1.36 3.03,3.03 0,8.7 -8.5,10.85 -16.71,12.93 -7.97,2.02 -17,4.31 -21.8,12.03 -3.65,5.9 -16.44,9.81 -20.62,10.71 -0.2,0.05 -0.4,0.07 -0.6,0.07 -2.88,0.04 -6.01,0.66 -9.34,1.31 -3.72,0.74 -7.51,1.49 -11.25,1.49z"/>
  <path class="fil1" d="M159.28 73.14c0,0 0,0 -0.01,0 0.01,0 0.01,0 0.01,0zm-1.93 0.7c-0.87,0 -1.73,-0.38 -2.33,-1.1 -1.07,-1.29 -0.89,-3.2 0.4,-4.27 0.96,-0.79 2.07,-0.91 4.52,-1.18 4.57,-0.5 14.1,-1.54 19.08,-7.24 6.5,-7.44 21.09,-16.17 31.56,-13.18 1.61,0.45 2.55,2.13 2.09,3.74 -0.46,1.61 -2.14,2.53 -3.74,2.08 -7.55,-2.14 -20.06,5.29 -25.35,11.35 -6.53,7.47 -17.65,8.69 -22.98,9.27 -0.72,0.08 -1.59,0.18 -1.98,0.25 -0.4,0.18 -0.84,0.28 -1.27,0.28z"/>
  <path class="fil1" d="M161.02 56.48c-1.67,0 -3.03,-1.36 -3.03,-3.03 0,-1.67 1.36,-3.03 3.03,-3.03 11.5,0 13.93,-2.13 17.3,-5.07 1.97,-1.72 4.42,-3.87 8.72,-5.76 12.78,-5.64 18.32,-3.2 23.2,-1.05 2.04,0.9 3.8,1.67 6.12,1.88 1.67,0.15 2.9,1.62 2.76,3.28 -0.15,1.67 -1.61,2.88 -3.29,2.75 -3.31,-0.29 -5.82,-1.39 -8.03,-2.37 -4.28,-1.88 -7.98,-3.51 -18.32,1.05 -3.45,1.52 -5.35,3.18 -7.18,4.78 -3.86,3.38 -7.51,6.57 -21.28,6.57z"/>
  <path class="fil1" d="M233.13 38.79c-0.06,0 -0.13,0 -0.19,-0.01 -9.1,-0.54 -12.93,-4.5 -16.31,-8 -2.78,-2.88 -5.41,-5.6 -11.3,-7.11 -7.63,-1.96 -12.49,-0.02 -18.12,2.22 -2.52,1.01 -5.12,2.05 -8.1,2.79 -1.63,0.4 -3.26,-0.58 -3.67,-2.2 -0.4,-1.62 0.58,-3.27 2.21,-3.67 2.57,-0.65 4.88,-1.57 7.32,-2.54 6.05,-2.42 12.32,-4.92 21.87,-2.46 7.55,1.94 11.05,5.56 14.14,8.76 3.24,3.35 5.57,5.76 12.32,6.17 1.67,0.1 2.94,1.53 2.84,3.2 -0.09,1.61 -1.42,2.85 -3.01,2.85z"/>
  <g>
   <path class="fil1" d="M197.71 28.04l0 0 0 0zm0 0c0,0.01 0,0.01 0,0.01 0,0 0,0 0,-0.01zm-87.76 127.58c-0.84,0 -1.68,-0.35 -2.28,-1.04 -3.74,-4.29 -8.41,-20.7 -9.27,-24.5 -4.31,-19.19 4.04,-35.91 12.21,-50.08 2,-3.47 7.62,-7.59 12.14,-10.9 1.66,-1.21 3.71,-2.72 4.27,-3.29 3.02,-5.2 10.45,-10.3 14.46,-13.06 0.69,-0.48 1.46,-1.01 1.81,-1.27 1.15,-1.51 4.11,-3.77 14.83,-8.99 0.03,-0.02 0.05,-0.03 0.08,-0.04 4.81,-6.62 19.08,-10.37 33.34,-13.63 2.79,-0.64 5.93,-1.36 6.95,-1.75 0.9,-0.73 2.19,-0.92 3.29,-0.35 1.49,0.75 2.09,2.57 1.33,4.06 -0.91,1.81 -2.51,2.18 -10.21,3.94 -8.69,1.99 -26.75,6.12 -30.03,11.63 -0.48,0.8 -0.92,1.01 -2.1,1.58 -10.44,5.09 -12.35,6.83 -12.68,7.24 -0.43,0.68 -1.07,1.12 -3.18,2.57 -3.39,2.33 -10.45,7.18 -12.71,11.21 -0.67,1.2 -2.19,2.34 -5.87,5.04 -3.63,2.66 -9.11,6.67 -10.47,9.04 -7.6,13.18 -15.38,28.66 -11.55,45.72 1.31,5.81 5.7,19.31 7.92,21.85 1.1,1.26 0.97,3.17 -0.29,4.27 -0.57,0.5 -1.28,0.75 -1.99,0.75z"/>
  </g>
  <path class="fil1" d="M130.98 187.66c-1.67,0 -3.03,-1.36 -3.03,-3.03 0,-10.29 -4.01,-22.91 -7.99,-30.85 -9.43,-18.8 -6.83,-27.85 -3.82,-38.33 1.52,-5.29 3.09,-10.77 3.47,-18.42 0.08,-1.67 1.48,-3 3.18,-2.87 1.67,0.08 2.95,1.5 2.87,3.17 -0.42,8.35 -2.16,14.43 -3.7,19.8 -2.88,10.01 -4.95,17.25 3.41,33.94 4.3,8.58 8.64,22.28 8.64,33.56 0,1.67 -1.36,3.03 -3.03,3.03z"/>
  <g>
   <path class="fil1" d="M138.6 183.76c-0.02,0.01 -0.04,0.01 -0.06,0.02 0.03,-0.01 0.05,-0.02 0.06,-0.02zm-5.19 2.34l-0.01 0 0.01 0zm0 6.06c-1.68,0 -3.03,-1.35 -3.03,-3.03 0,-1.45 1.02,-2.67 2.39,-2.96 0.38,-0.13 1.49,-0.57 4.47,-1.84 0.71,-6.37 -0.68,-34.97 -1.79,-40.27 -0.51,-2.38 -1.1,-4.75 -1.72,-7.26 -2.51,-10.06 -5.09,-20.45 -1.61,-30.59 0.54,-1.58 2.27,-2.42 3.85,-1.88 1.58,0.54 2.42,2.27 1.88,3.85 -2.9,8.44 -0.54,17.95 1.75,27.15 0.61,2.46 1.25,4.99 1.77,7.48 0.7,3.34 1.47,14.84 1.83,23.97 0.85,21.33 -0.23,21.76 -2.37,22.61l-0.58 0.24c-5.92,2.53 -6.1,2.53 -6.84,2.53z"/>
  </g>
  <path class="fil1" d="M138.08 136.42c-0.14,0 -0.28,-0.01 -0.43,-0.04 -1.65,-0.23 -2.8,-1.76 -2.57,-3.42 0.9,-6.36 3.15,-9.59 5.14,-12.44 2.77,-3.97 5.39,-7.73 3.8,-22.58 -0.65,-6.07 1.19,-12.2 2.85,-16.26 0.63,-1.55 2.4,-2.29 3.95,-1.66 1.55,0.63 2.29,2.4 1.66,3.95 -1.4,3.42 -2.96,8.51 -2.44,13.32 1.84,17.11 -1.56,21.98 -4.86,26.7 -1.83,2.62 -3.41,4.89 -4.1,9.82 -0.22,1.51 -1.51,2.61 -3,2.61z"/>
  <path class="fil1" d="M113.96 110.22c-0.25,0 -0.51,-0.03 -0.77,-0.1 -1.62,-0.42 -2.59,-2.07 -2.16,-3.69 2.58,-9.88 16.88,-27.89 26.82,-31.59 3.01,-1.13 5.4,-3.83 7.72,-6.44 2.33,-2.64 4.53,-5.13 7.46,-6.13 1.59,-0.55 3.3,0.3 3.84,1.88 0.55,1.58 -0.29,3.3 -1.87,3.85 -1.42,0.48 -3.11,2.39 -4.9,4.41 -2.67,3.02 -5.71,6.45 -10.14,8.1 -7.41,2.77 -20.78,18.67 -23.07,27.45 -0.36,1.36 -1.59,2.26 -2.93,2.26z"/>
  <g>
   <path class="fil1" d="M128.98 194.51l0.02 0 -0.02 0zm-1.86 5.33c-0.39,0 -0.79,-0.08 -1.17,-0.24 -0.44,-0.19 -0.76,-0.38 -1.06,-0.63 -0.04,-0.02 -0.1,-0.05 -0.17,-0.08 -2.87,-1.35 -3.85,-2.62 -4.46,-3.73 -6.96,-3.35 -11.47,-25.18 -11.67,-28.06 -0.57,-8.1 -0.79,-16 2.79,-23.64 0.71,-1.52 2.52,-2.17 4.03,-1.46 1.51,0.71 2.16,2.51 1.45,4.03 -2.96,6.33 -2.76,13.09 -2.23,20.64 0.38,5.54 5.47,21.46 8.21,23.02 1.71,0.64 2.32,1.8 2.65,2.42 0.14,0.27 0.32,0.6 1.81,1.3 0.54,0.25 0.96,0.48 1.33,0.78 1.3,0.78 1.87,2.42 1.25,3.84 -0.51,1.13 -1.6,1.81 -2.76,1.81z"/>
  </g>
  <path class="fil1" d="M121.8 176.48c-1.3,0 -2.5,-0.85 -2.9,-2.16 -0.14,-0.46 -3.37,-11.38 -0.29,-17.29 0.78,-1.49 2.6,-2.06 4.09,-1.29 1.48,0.78 2.06,2.6 1.29,4.09 -1.23,2.34 -0.59,8.44 0.71,12.75 0.48,1.6 -0.42,3.29 -2.03,3.77 -0.29,0.09 -0.58,0.13 -0.87,0.13z"/>
  <path class="fil1" d="M232.17 184.35c-1.77,0 -3.49,-0.86 -4.8,-2.51 -0.59,-0.75 -1.76,-1.28 -2.43,-1.43 -1.64,1.82 -3.46,2.33 -4.75,2.42 -3.44,0.25 -6.34,-2.06 -7.79,-3.47l-0.6 -0.6c-0.6,-0.58 -1.22,-1.19 -1.63,-1.54 -0.31,0.15 -0.71,0.37 -1.08,0.58 -0.49,0.27 -1.07,0.58 -1.75,0.94 -4.61,2.39 -8.04,0.5 -9.57,-1.85 -2.39,-3.67 -1.65,-10.25 3.27,-14.19 1.3,-1.05 3.21,-0.84 4.25,0.46 1.05,1.3 0.84,3.21 -0.46,4.26 -2.55,2.05 -2.65,5.14 -1.99,6.16 0.28,0.41 1.08,0.11 1.71,-0.22 0.63,-0.33 1.17,-0.62 1.63,-0.87 4.58,-2.51 5.95,-1.87 9.86,1.95l0.6 0.59c1.3,1.27 2.5,1.8 3.1,1.77 0.1,-0.01 0.41,-0.04 0.89,-0.66 0.87,-1.16 2.27,-1.8 3.92,-1.82l0.06 0c2.62,0 5.77,1.57 7.5,3.76 0.04,0.05 0.08,0.08 0.1,0.12 0.53,-0.48 1.45,-2.3 0.47,-4.82 -0.64,-1.64 -1.08,-2.28 -1.47,-2.85 -0.94,-1.38 -0.59,-3.26 0.79,-4.21 1.38,-0.94 3.27,-0.59 4.21,0.79 0.62,0.9 1.29,1.96 2.11,4.07 2.1,5.38 0.01,10.5 -3.22,12.36 -0.95,0.55 -1.95,0.81 -2.93,0.81z"/>
  <path class="fil1" d="M231.87 211.78c-0.78,0 -1.56,-0.3 -2.15,-0.9l-0.33 -0.34c-0.13,-0.14 -0.28,-0.3 -0.38,-0.39l-1.42 -1.29c-2.08,-1.9 -3.22,-2.94 -5.47,-4.26 -2.19,-1.28 -3.26,-1.06 -5.01,-0.68 -3.43,0.75 -6.72,0.98 -11.97,-3.55 -1.8,-0.24 -7.62,1.59 -10.47,2.49 -1.8,0.57 -3.49,1.1 -4.84,1.43 -1.62,0.4 -3.26,-0.59 -3.67,-2.21 -0.4,-1.62 0.59,-3.27 2.22,-3.67 1.16,-0.28 2.77,-0.79 4.48,-1.33 8.12,-2.55 13.25,-3.92 16.02,-1.48 3.56,3.13 4.83,2.86 6.95,2.4 2.16,-0.47 5.13,-1.11 9.35,1.38 2.8,1.64 4.27,2.98 6.49,5l1.39 1.27c0.19,0.17 0.47,0.45 0.71,0.71l0.25 0.26c1.18,1.18 1.17,3.1 -0.02,4.28 -0.59,0.58 -1.36,0.88 -2.13,0.88z"/>
  <path class="fil1" d="M216.2 217.23c-0.39,0 -0.8,-0.01 -1.26,-0.04l-0.61 -0.04c-2.51,-0.14 -7.17,-0.39 -12.72,-3.43l-0.86 -0.47c-1.51,-0.83 -3.75,-2.06 -4.62,-2.39 -1.2,-0.04 -2.32,-0.81 -2.75,-2.02 -0.55,-1.57 0.27,-3.3 1.84,-3.86 1.85,-0.66 3.65,0.33 8.45,2.97l0.85 0.46c4.34,2.38 7.83,2.57 10.14,2.7l0.68 0.03c1.54,0.11 2.32,-0.05 3.75,-0.34 1.49,-0.29 3.53,-0.7 7.1,-0.9 1.65,-0.09 3.1,1.18 3.19,2.85 0.1,1.67 -1.18,3.1 -2.84,3.2 -3.16,0.18 -4.88,0.52 -6.27,0.79 -1.3,0.26 -2.45,0.49 -4.07,0.49z"/>
  <path class="fil1" d="M176.37 203.84c-0.41,0 -0.84,-0.13 -1.2,-0.4 -0.89,-0.66 -1.08,-1.93 -0.42,-2.82 0.49,-0.65 0.88,-1.64 1.27,-2.59 0.27,-0.68 0.54,-1.35 0.84,-1.92 0.63,-1.21 3.53,-5.53 7.88,-11.98 2.81,-4.18 6.3,-9.36 6.78,-10.26 0.37,-0.94 1.41,-1.46 2.4,-1.2 1.08,0.28 1.72,1.39 1.43,2.47 -0.18,0.65 -0.78,1.62 -7.27,11.25 -3.15,4.67 -7.07,10.49 -7.63,11.58 -0.25,0.47 -0.46,1.01 -0.69,1.57 -0.45,1.13 -0.97,2.41 -1.76,3.48 -0.4,0.54 -1.01,0.82 -1.63,0.82z"/>
  <path class="fil1" d="M209.21 257.77c-5.42,0 -11.07,-0.8 -16.77,-2.41 -12.99,-3.66 -24.41,-9.32 -37.04,-18.34 -7.4,-5.29 -24.61,-19.45 -24.61,-36.77l0 -10.78c0,-1.67 1.35,-3.03 3.03,-3.03 1.67,0 3.03,1.36 3.03,3.03l0 10.78c0,14.5 15.43,27.1 22.07,31.84 12.03,8.6 22.88,13.98 35.16,17.44 10.12,2.85 19.93,2.92 28.36,0.18 11.01,-3.56 16.12,-8.76 20,-13.84 9.51,-12.44 12.63,-22.03 16.95,-35.31 0.46,-1.43 0.93,-2.9 1.43,-4.4 1.18,-3.57 2.7,-7.52 4.31,-11.69 3.1,-8.05 6.62,-17.17 8.07,-24.93 0.31,-1.65 1.9,-2.72 3.54,-2.42 1.64,0.31 2.72,1.89 2.42,3.54 -1.56,8.3 -5.19,17.7 -8.38,25.98 -1.58,4.11 -3.08,7.99 -4.21,11.42 -0.49,1.49 -0.96,2.95 -1.43,4.37 -4.33,13.33 -7.75,23.86 -17.89,37.12 -4.26,5.58 -10.32,11.83 -22.94,15.92 -4.73,1.54 -9.81,2.3 -15.1,2.3z"/>
  <path class="fil1" d="M166.03 224.22c-0.25,0 -0.5,-0.04 -0.74,-0.14 -1.04,-0.4 -1.55,-1.59 -1.14,-2.63 0.39,-1.01 1.15,-1.64 1.64,-2.05 0.14,-0.11 0.28,-0.21 0.38,-0.33 3.57,-7.33 8.23,-12.25 14.2,-14.98 1.02,-0.46 2.21,-0.01 2.68,0.99 0.46,1.02 0.01,2.22 -1,2.68 -5.09,2.32 -9.11,6.63 -12.3,13.17 -0.37,0.74 -0.93,1.21 -1.39,1.59 -0.16,0.13 -0.41,0.34 -0.47,0.43 -0.31,0.79 -1.06,1.27 -1.86,1.27z"/>
  <path class="fil1" d="M240.97 229.04c-0.66,0 -1.3,-0.32 -1.69,-0.91 -0.75,-1.13 -1.06,-2.75 -1.41,-4.61 -0.33,-1.7 -0.82,-4.27 -1.65,-4.92 -0.88,-0.69 -1.04,-1.95 -0.35,-2.83 0.68,-0.88 1.95,-1.04 2.83,-0.35 2.03,1.58 2.62,4.64 3.13,7.34 0.23,1.2 0.51,2.69 0.82,3.15 0.61,0.93 0.36,2.19 -0.57,2.8 -0.35,0.22 -0.73,0.33 -1.11,0.33z"/>
  <path class="fil1" d="M216.6 235.39c-0.25,0 -0.5,-0.03 -0.76,-0.09 -1.27,-0.33 -7.1,-1.25 -8.14,-1.25 0.14,0 -0.39,0 -1.22,-0.05 -1.93,-0.11 -7.77,-0.44 -8.91,-0.44 -1.67,0 -3.03,-1.36 -3.03,-3.03 0,-1.67 1.36,-3.03 3.03,-3.03 1.16,0 5.33,0.23 9.25,0.45l0.89 0.06c2.25,0.04 8.41,1.11 9.64,1.42 1.62,0.42 2.6,2.07 2.18,3.69 -0.35,1.36 -1.58,2.27 -2.93,2.27z"/>
  <path class="fil1" d="M207.08 128.83c-1.07,0 -1.96,-0.84 -2.02,-1.92 -0.34,-6.97 -2.1,-12.1 -4.38,-12.75 -1.07,-0.31 -1.69,-1.43 -1.38,-2.5 0.31,-1.07 1.44,-1.7 2.5,-1.38 5.72,1.65 7.02,11 7.3,16.43 0.05,1.11 -0.81,2.06 -1.92,2.11 -0.04,0.01 -0.07,0.01 -0.1,0.01z"/>
  <path class="fil1" d="M229.39 129.77c0,0 0,0 0,0 0,0 0,0 0,0zm1.56 3.3c-0.46,0 -0.91,-0.15 -1.29,-0.46 -0.69,-0.57 -0.9,-1.51 -0.59,-2.31 0.03,-0.16 0.05,-0.39 0.08,-0.67 0.31,-2.86 1.13,-10.46 8.04,-14.05 0.99,-0.52 2.21,-0.13 2.73,0.86 0.51,0.99 0.13,2.2 -0.86,2.72 -5,2.59 -5.6,8.2 -5.89,10.9 -0.12,1.1 -0.19,1.71 -0.67,2.28 -0.4,0.48 -0.97,0.73 -1.55,0.73z"/>
  <path class="fil1" d="M122.73 245.19c-0.11,0 -0.22,-0.01 -0.33,-0.02 -1.66,-0.18 -2.86,-1.68 -2.68,-3.34 0.54,-4.94 1.75,-9.9 2.92,-14.71l0.66 -2.75c1.18,-4.94 1.38,-14.22 1.55,-21.68 0.18,-8.26 0.31,-12.67 1.13,-14.81 0.59,-1.55 2.32,-2.32 3.88,-1.73 1.56,0.59 2.35,2.34 1.77,3.9 -0.48,1.31 -0.62,7.67 -0.73,12.77 -0.18,8.15 -0.38,17.38 -1.71,22.96l-0.67 2.78c-1.12,4.61 -2.28,9.38 -2.78,13.93 -0.17,1.55 -1.48,2.7 -3.01,2.7z"/>
  <path class="fil1" d="M211.92 308.16c-0.07,0 -0.15,-0.01 -0.23,-0.01 -1.67,-0.13 -2.92,-1.59 -2.79,-3.25 1.64,-21.26 13.4,-37.83 21.99,-49.93 3.74,-5.27 6.96,-9.82 8.39,-13.38 0.62,-1.55 2.38,-2.3 3.94,-1.68 1.55,0.62 2.3,2.38 1.68,3.94 -1.69,4.22 -5.11,9.04 -9.07,14.62 -8.63,12.17 -19.38,27.31 -20.89,46.89 -0.12,1.59 -1.45,2.8 -3.02,2.8z"/>
  <path class="fil1" d="M210.64 355.36c-0.54,0 -1.09,-0.14 -1.58,-0.44 -6.72,-4.12 -13.24,-7.58 -19.54,-10.92l-4.26 -2.26c-12.72,-6.8 -24.33,-14.78 -35.55,-22.5 -9.4,-6.46 -18.27,-12.56 -26.95,-17.37 -1.46,-0.81 -1.99,-2.65 -1.18,-4.12 0.81,-1.46 2.65,-1.99 4.11,-1.18 8.95,4.95 17.93,11.13 27.45,17.68 11.09,7.62 22.55,15.51 34.97,22.15l4.24 2.25c5.43,2.88 11.02,5.84 16.8,9.25 2.01,-7.36 3.54,-24.44 3.34,-31.16 -0.09,-3.06 -0.26,-5.98 -0.47,-8.22 -1.21,-0.81 -4.42,-2.27 -7.07,-3.47 -3.22,-1.47 -7.23,-3.29 -11.3,-5.48 -3.52,-1.9 -7.84,-4.06 -12.41,-6.35 -22.09,-11.06 -52.35,-26.21 -59.6,-44.02 -4.65,-11.43 -3.73,-20.1 2.41,-22.63 1.55,-0.64 3.32,0.1 3.96,1.64 0.64,1.55 -0.1,3.31 -1.65,3.95 -2.45,1.02 -2.07,7.5 0.89,14.75 6.39,15.71 35.47,30.27 56.7,40.9 4.61,2.31 8.97,4.49 12.57,6.43 3.89,2.09 7.63,3.8 10.94,5.29 5.82,2.65 8.67,4 9.96,5.89 0.28,0.41 0.46,0.88 0.51,1.38 0.28,2.47 0.5,6.03 0.61,9.76 0.17,5.9 -1.43,31.13 -5.33,37.38 -0.57,0.92 -1.56,1.42 -2.57,1.42z"/>
  <path class="fil1" d="M141.52 341.31c-1.16,0 -2.27,-0.68 -2.77,-1.81 -1.66,-3.76 -3.52,-7.87 -5.48,-12.19 -8.22,-18.17 -18.46,-40.78 -22.41,-57.46 -2.16,-9.12 -2.67,-19.9 -0.44,-28.75 -1.58,1.64 -3.16,3.37 -4.76,5.14 -4.73,5.21 -9.62,10.6 -15.57,14.72 -0.4,0.27 -39.95,27.52 -43.44,28.68 -1.6,0.53 -3.31,-0.33 -3.83,-1.91 -0.53,-1.59 0.33,-3.31 1.91,-3.83 2.29,-1.03 25.6,-16.62 41.91,-27.92 5.38,-3.72 10.04,-8.85 14.54,-13.81 5.89,-6.49 11.45,-12.63 18.43,-15.6 1.42,-0.61 3.07,-0.04 3.82,1.3 0.76,1.35 0.38,3.05 -0.87,3.95 -8.05,5.75 -9,23.17 -5.81,36.63 3.82,16.11 13.92,38.43 22.04,56.36 1.97,4.35 3.84,8.47 5.5,12.25 0.68,1.53 -0.02,3.32 -1.55,3.99 -0.4,0.17 -0.81,0.26 -1.22,0.26z"/>
  <path class="fil1" d="M86.08 338.2c-1.67,0 -3.03,-1.36 -3.03,-3.03 0,-16.94 -0.71,-30.58 -2.23,-42.91 -2.18,-17.69 -0.26,-22.41 6.7,-36.04 0.76,-1.49 2.59,-2.08 4.07,-1.32 1.49,0.76 2.08,2.59 1.32,4.07 -6.57,12.88 -8.05,16.52 -6.07,32.55 1.54,12.58 2.27,26.45 2.27,43.65 0,1.67 -1.36,3.03 -3.03,3.03z"/>
  <path class="fil1" d="M243.63 348.21c-0.92,0 -1.83,-0.42 -2.43,-1.22 -4.22,-5.65 -9.24,-22.18 -10.23,-27.64 -0.45,-2.48 -0.88,-4.96 -1.31,-7.46 -2.26,-12.97 -4.59,-26.37 -9.31,-38.64 -0.6,-1.56 0.17,-3.31 1.74,-3.92 1.55,-0.59 3.31,0.18 3.91,1.74 4.94,12.83 7.32,26.53 9.62,39.79 0.44,2.47 0.86,4.95 1.31,7.42 1.02,5.59 5.88,20.74 9.13,25.09 1,1.34 0.72,3.24 -0.62,4.24 -0.54,0.41 -1.18,0.6 -1.81,0.6z"/>
  <path class="fil1" d="M235.8 329.13c-0.92,0 -1.83,-0.42 -2.42,-1.21 -1.05,-1.41 -2.06,-3.19 -3.12,-5.08 -4.32,-7.66 -7.88,-12.93 -14.35,-11.11 -1.62,0.45 -3.28,-0.49 -3.73,-2.1 -0.46,-1.6 0.48,-3.28 2.09,-3.73 11.56,-3.25 17.4,7.11 21.26,13.96 0.97,1.72 1.88,3.34 2.7,4.43 1,1.34 0.73,3.24 -0.61,4.24 -0.55,0.41 -1.18,0.6 -1.82,0.6z"/>
  <path class="fil1" d="M266.99 347.21c-0.58,0 -1.18,-0.17 -1.71,-0.53 -1.78,-1.22 -23.04,-36.83 -23.18,-37.14 -3.62,-7.87 -6.87,-11.58 -10.31,-15.51 -2.51,-2.87 -5.11,-5.83 -7.91,-10.41 -0.68,-1.11 -0.57,-2.54 0.27,-3.53 0.84,-1 2.23,-1.34 3.44,-0.86 2.8,1.13 6.02,2.85 9.43,4.68 5.59,2.99 11.91,6.38 16.81,7.22 2.67,0.46 3.73,2.84 4.59,4.74 1.19,2.66 2.54,5.67 7.51,7.5 9.08,3.36 29.16,19.64 35.45,25.19 1.25,1.11 1.37,3.02 0.26,4.28 -1.1,1.25 -3.01,1.37 -4.27,0.26 -8.14,-7.19 -26.32,-21.38 -33.54,-24.05 -7.35,-2.71 -9.59,-7.71 -10.93,-10.7 -0.2,-0.44 -0.46,-1.01 -0.65,-1.35 -4.83,-0.96 -10.25,-3.6 -15.3,-6.27 3.38,3.88 6.89,8.1 10.65,16.28 1.27,2.75 19.83,32.63 21.68,35.18 0.89,1.02 1.01,2.54 0.21,3.71 -0.58,0.85 -1.53,1.31 -2.5,1.31z"/>
  <path class="fil2" d="M188.64 129.61c2.53,0 4.57,2.05 4.57,4.57 0,2.53 -2.04,4.58 -4.57,4.58 -2.52,0 -4.57,-2.05 -4.57,-4.58 0,-2.52 2.05,-4.57 4.57,-4.57z"/>
  <path class="fil2" d="M251.04 134.84c2.53,0 4.57,2.05 4.57,4.58 0,2.52 -2.04,4.57 -4.57,4.57 -2.52,0 -4.57,-2.05 -4.57,-4.57 0,-2.53 2.05,-4.58 4.57,-4.58z"/>
  <path class="fil1" d="M264.6 199.6c-0.39,0 -0.79,-0.08 -1.17,-0.24 -1.54,-0.64 -2.27,-2.42 -1.62,-3.96 0.45,-1.07 0.82,-1.25 3.21,-2.41 1.02,-0.49 2.86,-1.39 3.38,-1.68 3.14,-2.48 9.67,-15.08 14.28,-25.81 0.66,-1.53 2.45,-2.24 3.98,-1.58 1.54,0.66 2.25,2.44 1.59,3.97 -1.72,3.99 -10.55,24.07 -16.34,28.36 -0.38,0.28 -0.92,0.57 -4.25,2.19 -0.69,0.33 -1.27,0.61 -1.51,0.74 -0.47,0.27 -1,0.42 -1.55,0.42z"/>
 </g>
</svg>
