<?xml version="1.0" encoding="UTF-8"?>
<!DOCTYPE svg PUBLIC "-//W3C//DTD SVG 1.1//EN" "http://www.w3.org/Graphics/SVG/1.1/DTD/svg11.dtd">
<!-- Creator: CorelDRAW 2018 (64-Bit) -->
<svg xmlns="http://www.w3.org/2000/svg" xml:space="preserve" width="845px" height="845px" version="1.1" style="shape-rendering:geometricPrecision; text-rendering:geometricPrecision; image-rendering:optimizeQuality; fill-rule:evenodd; clip-rule:evenodd"
viewBox="0 0 361.04 361.04"
 xmlns:xlink="http://www.w3.org/1999/xlink">
 <defs>
  <style type="text/css">
   <![CDATA[
    .fil0 {fill:none}
    .fil2 {fill:black}
    .fil1 {fill:black;fill-rule:nonzero}
   ]]>
  </style>
 </defs>
 <g id="Слой_x0020_1">
  <metadata id="CorelCorpID_0Corel-Layer"/>
  <rect class="fil0" width="361.04" height="361.04"/>
 </g>
 <g id="_1">
  <metadata id="CorelCorpID_1Corel-Layer"/>
  <path class="fil1" d="M144.32 149.35c-0.81,0 -1.63,-0.33 -2.23,-0.98 -1.13,-1.23 -1.05,-3.14 0.18,-4.28l0.19 -0.17c5.33,-4.92 8.27,-7.63 12.94,-9.17 0.3,-0.1 0.57,-0.2 0.83,-0.29 1.57,-0.57 3.2,-1.16 7.22,-1.16 3.75,0 11.13,0.8 14.68,2.23 2.99,1.21 6.89,1.34 10.03,1.44 2.28,0.08 4.24,0.14 5.75,0.58 1.6,0.47 2.52,2.15 2.06,3.76 -0.48,1.61 -2.15,2.52 -3.76,2.06 -0.78,-0.23 -2.54,-0.29 -4.25,-0.35 -3.62,-0.12 -8.12,-0.27 -12.09,-1.87 -2.46,-1 -8.8,-1.79 -12.42,-1.79 -2.96,0 -3.88,0.33 -5.16,0.79 -0.31,0.11 -0.63,0.23 -0.99,0.35 -3.43,1.13 -5.87,3.38 -10.74,7.87l-0.19 0.18c-0.58,0.53 -1.32,0.8 -2.05,0.8z"/>
  <path class="fil1" d="M256.78 142.97c-0.99,0 -1.96,-0.48 -2.54,-1.38l-0.21 -0.32c-4.65,-5.03 -14.42,-7.01 -21.05,-4.22l-1.26 0.54c-4.51,1.92 -7,2.97 -13.52,2.97 -1.67,0 -3.03,-1.35 -3.03,-3.03 0,-1.67 1.36,-3.02 3.03,-3.02 5.29,0 6.88,-0.68 11.15,-2.49l1.29 -0.55c9.12,-3.84 21.72,-1.18 28.06,5.93 0.1,0.11 0.19,0.24 0.28,0.37l0.34 0.53c0.91,1.4 0.51,3.27 -0.89,4.19 -0.51,0.32 -1.08,0.48 -1.65,0.48z"/>
  <path class="fil1" d="M221.82 163.3c-1.49,0 -2.79,-1.1 -3,-2.62 -0.23,-1.64 0.91,-3.16 2.54,-3.41 0.68,-0.19 2.53,-1.6 3.89,-2.63 3.73,-2.83 8.85,-6.72 14.41,-6.83 5.1,-0.12 10.54,2.32 15.12,6.86 1.19,1.18 1.2,3.1 0.02,4.29 -1.18,1.18 -3.1,1.19 -4.28,0.01 -3.4,-3.37 -7.28,-5.21 -10.73,-5.11 -3.59,0.08 -7.63,3.14 -10.88,5.61 -2.59,1.96 -4.64,3.52 -6.68,3.8 -0.14,0.02 -0.28,0.03 -0.41,0.03z"/>
  <path class="fil1" d="M153.31 159.68c-0.03,0.04 -0.07,0.07 -0.11,0.1 0.05,-0.04 0.08,-0.07 0.11,-0.1zm35.27 3.01c-3.74,0 -5.93,-2.36 -7.86,-4.45 -2.3,-2.49 -4.48,-4.83 -9.94,-4.68 -3.65,0.11 -11.83,3.17 -15.35,5.1 -0.17,0.09 -0.47,0.24 -0.83,0.42 -0.38,0.19 -1.16,0.56 -1.44,0.73 -1.25,0.98 -3.05,0.83 -4.12,-0.37 -1.11,-1.24 -1.01,-3.16 0.24,-4.27 0.51,-0.46 1.24,-0.84 2.66,-1.53 0.26,-0.13 0.47,-0.23 0.59,-0.3 3.66,-2 12.84,-5.67 18.07,-5.83 8.23,-0.23 12.04,3.89 14.57,6.62 1.68,1.82 2.41,2.51 3.41,2.51 1.67,0 3.03,1.35 3.03,3.02 0,1.68 -1.36,3.03 -3.03,3.03z"/>
  <path class="fil1" d="M122.27 146.67c-1.52,0 -2.83,-1.14 -3,-2.69 -3.21,-28.81 0.84,-47.92 13.1,-61.94 9.08,-10.38 27.54,-23.37 46.62,-27.36 16.99,-3.55 35.35,-0.08 51.69,9.79 8.02,4.86 32.45,19.62 36.07,43.94 0.25,1.66 -0.89,3.2 -2.55,3.44 -1.66,0.25 -3.19,-0.89 -3.44,-2.55 -2.87,-19.27 -20.33,-31.86 -33.22,-39.64 -15.01,-9.08 -31.82,-12.29 -47.31,-9.05 -17.72,3.7 -34.86,15.77 -43.3,25.42 -11.2,12.8 -14.69,29.93 -11.65,57.28 0.19,1.66 -1.01,3.16 -2.67,3.34 -0.11,0.02 -0.23,0.02 -0.34,0.02z"/>
  <path class="fil1" d="M204.36 275.68c-22.52,0 -45.58,-18.13 -62.1,-49.67 -8.42,-16.07 -12.69,-30.96 -15.23,-53.1 -1.08,-9.49 -2.77,-17.88 -7.5,-27.98 -0.71,-1.52 -0.05,-3.32 1.46,-4.03 1.52,-0.7 3.32,-0.05 4.03,1.46 5.07,10.85 6.88,19.79 8.03,29.86 2.45,21.33 6.53,35.63 14.58,50.98 17.39,33.2 43.09,51 65.44,45.34 15.31,-3.87 28.19,-18.09 39.39,-43.45 11.57,-26.22 13.75,-39.73 10.61,-65.76l-1.22 -17.54 -1.37 -14.21c-0.24,-4.67 -0.08,-8.64 0.07,-12.48 0.32,-7.77 0.57,-13.9 -2.57,-21.14 -7.02,-16.21 -25.74,-36.62 -44.92,-42.71 -24.37,-7.75 -48.96,-2.83 -69.26,13.85 -20.97,17.23 -26.13,34.58 -20.43,68.75 0.27,1.65 -0.84,3.21 -2.49,3.48 -1.65,0.28 -3.21,-0.84 -3.49,-2.49 -6.04,-36.28 -0.14,-55.76 22.57,-74.42 21.93,-18.02 48.54,-23.33 74.93,-14.95 20.83,6.62 41.09,28.63 48.65,46.08 3.69,8.51 3.39,15.94 3.07,23.8 -0.15,3.7 -0.31,7.52 -0.09,11.78l1.37 14.16 1.2 17.47c3.29,27.18 1.01,41.35 -11.09,68.77 -12,27.19 -26.21,42.52 -43.45,46.88 -3.37,0.85 -6.77,1.27 -10.19,1.27z"/>
  <path class="fil1" d="M202.52 70.33c0.05,0.03 0.1,0.05 0.14,0.08 -0.05,-0.03 -0.1,-0.05 -0.14,-0.08zm-1.37 5.73c-0.46,0 -0.93,-0.1 -1.37,-0.33 -2.86,-1.45 -11.57,-14.21 -12.54,-17.28 -0.5,-1.6 0.38,-3.3 1.98,-3.8 1.59,-0.51 3.29,0.38 3.8,1.97 0.71,2.26 7.99,12.39 9.7,13.82 1.34,0.82 1.85,2.54 1.13,3.97 -0.53,1.05 -1.6,1.65 -2.7,1.65z"/>
  <path class="fil1" d="M208.73 74.69c-1.23,0 -2.39,-0.76 -2.84,-1.99 -0.8,-2.18 -1.4,-4.45 -1.97,-6.65 -0.74,-2.85 -1.44,-5.55 -2.36,-7.02 -0.88,-1.42 -0.45,-3.29 0.97,-4.17 1.42,-0.89 3.28,-0.46 4.17,0.97 1.41,2.26 2.22,5.38 3.08,8.69 0.54,2.06 1.09,4.19 1.79,6.09 0.58,1.57 -0.23,3.31 -1.8,3.89 -0.34,0.13 -0.7,0.19 -1.04,0.19z"/>
  <path class="fil1" d="M217.86 75.72c-1.67,0 -3.03,-1.36 -3.03,-3.03 -0.08,-0.88 -1.65,-10.18 -1.92,-11.27 -0.4,-1.62 0.58,-3.27 2.19,-3.68 1.62,-0.41 3.25,0.54 3.67,2.15 0.22,0.82 2.12,11.59 2.12,12.8 0,1.67 -1.36,3.03 -3.03,3.03z"/>
  <g>
   <path class="fil1" d="M224.24 67.73l0.02 0 -0.02 0zm2.61 15.05c-0.35,0 -0.72,-0.06 -1.08,-0.2 -1.56,-0.6 -2.34,-2.35 -1.74,-3.91 0.77,-2.01 0.89,-9.4 0,-11.13 -1.13,-1.05 -1.29,-2.81 -0.33,-4.06 1.02,-1.32 2.92,-1.56 4.25,-0.54 4.06,3.13 2.71,15.34 1.73,17.89 -0.46,1.21 -1.61,1.95 -2.83,1.95z"/>
  </g>
  <path class="fil1" d="M234.73 88.12c-0.49,0 -0.99,-0.12 -1.45,-0.37 -1.47,-0.8 -2.01,-2.64 -1.2,-4.11 2.68,-4.92 2.82,-5.63 3.23,-7.73 0.12,-0.61 0.26,-1.3 0.46,-2.18 0.37,-1.63 1.99,-2.65 3.62,-2.27 1.63,0.37 2.65,1.99 2.28,3.62 -0.18,0.81 -0.31,1.44 -0.42,1.99 -0.54,2.78 -0.88,4.01 -3.86,9.47 -0.55,1.01 -1.59,1.58 -2.66,1.58z"/>
  <path class="fil1" d="M240.07 97.59c-1.16,0 -2.27,-0.67 -2.77,-1.8 -0.67,-1.53 0.02,-3.32 1.55,-4 4.4,-1.95 5.8,-3.45 7.84,-8.43 0.64,-1.55 2.4,-2.29 3.95,-1.66 1.55,0.64 2.29,2.4 1.66,3.95 -2.62,6.38 -5.19,9.1 -11,11.68 -0.4,0.18 -0.82,0.26 -1.23,0.26z"/>
  <path class="fil1" d="M191.33 76.92c-0.6,0 -1.2,-0.17 -1.73,-0.55 -1.34,-0.93 -2.66,-1.77 -3.96,-2.58 -5.09,-3.22 -10.35,-6.55 -13.14,-14.03 -0.59,-1.57 0.21,-3.31 1.77,-3.9 1.57,-0.58 3.31,0.21 3.9,1.78 2.08,5.57 5.89,7.98 10.71,11.03 1.36,0.86 2.76,1.74 4.19,2.75 1.37,0.96 1.7,2.84 0.74,4.21 -0.59,0.84 -1.52,1.29 -2.48,1.29z"/>
  <g>
   <path class="fil1" d="M175.91 78.18l0.02 0 -0.02 0zm2.17 0.98c-0.86,0 -1.7,-0.36 -2.29,-1.04 -0.03,-0.01 -0.07,-0.02 -0.1,-0.03 -5.36,-2.07 -10,-5.67 -14.49,-9.14 -0.85,-0.66 -1.69,-1.3 -2.52,-1.94 -1.34,-1.01 -1.6,-2.9 -0.59,-4.24 1.01,-1.33 2.91,-1.6 4.24,-0.59 0.86,0.65 1.71,1.31 2.57,1.98 4.15,3.21 8.43,6.53 12.97,8.27 0.84,0.33 1.92,0.85 2.7,2 0.95,1.38 0.59,3.26 -0.79,4.2 -0.52,0.36 -1.12,0.53 -1.7,0.53z"/>
  </g>
  <path class="fil1" d="M166.36 83.3c-0.46,0 -0.93,-0.11 -1.37,-0.33 -3.48,-0.83 -7.03,-3.43 -10.46,-5.95 -1.64,-1.21 -3.2,-2.35 -4.47,-3.08 -1.46,-0.82 -1.97,-2.67 -1.14,-4.12 0.82,-1.46 2.67,-1.97 4.13,-1.14 1.58,0.89 3.27,2.14 5.06,3.45 2.91,2.14 6.2,4.56 8.48,4.99 0.3,0.06 0.59,0.15 0.85,0.29l0.33 0.18c1.48,0.78 2.05,2.61 1.27,4.09 -0.54,1.03 -1.59,1.62 -2.68,1.62z"/>
  <path class="fil1" d="M163.78 91.39c-0.1,0 -0.19,0 -0.29,-0.01 -10.56,-1.02 -12.88,-2.28 -19.09,-5.64 -1.53,-0.83 -3.33,-1.8 -5.59,-2.95 -1.49,-0.75 -2.08,-2.58 -1.32,-4.07 0.75,-1.49 2.58,-2.08 4.07,-1.33 2.31,1.18 4.15,2.18 5.72,3.03 5.87,3.17 7.45,4.03 16.79,4.93 1.67,0.16 2.88,1.64 2.72,3.3 -0.15,1.57 -1.47,2.74 -3.01,2.74z"/>
  <path class="fil1" d="M158.61 98.62c-11.47,0 -17.93,-0.32 -28.06,-7.24 -1.38,-0.95 -1.73,-2.83 -0.79,-4.21 0.94,-1.38 2.83,-1.73 4.21,-0.79 8.69,5.94 13.84,6.19 24.64,6.19 1.67,0 3.03,1.35 3.03,3.02 0,1.68 -1.36,3.03 -3.03,3.03z"/>
  <path class="fil1" d="M146.19 106.56c-5.19,0 -14.82,-2.85 -20.14,-4.56l-0.14 -0.05c-1.26,-0.36 -2.19,-1.53 -2.19,-2.91 0,-1.67 1.36,-3.03 3.03,-3.03 0.48,0 0.78,0.1 1.16,0.22 8.2,2.64 15.18,4.27 18.27,4.27 0.03,0 0.06,0 0.09,0l1.46 -0.01 0.03 0c1.66,0 3.01,1.34 3.03,3 0.02,1.67 -1.33,3.04 -3,3.06l-1.46 0.01 -0.14 0z"/>
  <g>
   <path class="fil1" d="M126.45 106.52l0.01 0.01 -0.01 -0.01zm15.97 9.84c-0.31,0 -0.61,-0.05 -0.91,-0.14 -0.28,-0.06 -0.89,-0.18 -1.72,-0.35 -13.59,-2.68 -16.6,-3.87 -17.91,-5.38 -1.1,-1.26 -0.96,-3.17 0.31,-4.27 1.17,-1.02 2.92,-0.96 4.04,0.07 0.92,0.53 4.27,1.58 14.73,3.64 2.66,0.53 2.76,0.55 3.39,1.07 1.29,1.06 1.47,2.97 0.41,4.26 -0.6,0.73 -1.47,1.1 -2.34,1.1z"/>
  </g>
  <path class="fil1" d="M131.46 125.71c-4.63,0 -7.97,-1.82 -11.46,-3.74 -1.47,-0.8 -2.01,-2.64 -1.2,-4.1 0.8,-1.47 2.64,-2.01 4.11,-1.21 4.53,2.48 6.91,3.63 11.48,2.67 1.64,-0.36 3.25,0.7 3.59,2.34 0.34,1.63 -0.7,3.24 -2.34,3.58 -1.51,0.32 -2.9,0.46 -4.18,0.46z"/>
  <path class="fil1" d="M317.77 261.06c-0.7,0 -1.41,-0.25 -1.99,-0.73 -3.4,-2.86 -2.04,-6.51 -1.05,-9.17 1.2,-3.22 2.56,-6.87 -0.65,-12.41 -4.01,-6.91 -0.61,-13.37 1.87,-18.09 2.33,-4.44 2.45,-5.35 1.63,-5.99 -9.28,-7.28 -4.45,-14.07 -1.26,-18.56 3.83,-5.4 6.36,-8.96 -3.15,-16.01 -2.26,-1.67 -3.88,-6.74 -2.48,-10.05 0.9,-2.14 2.41,-4.03 3.87,-5.86 1.31,-1.64 2.67,-3.34 3.08,-4.7 0.12,-0.41 0.21,-1.02 -0.11,-1.56 -0.39,-0.69 -1.4,-1.26 -2.83,-1.6 -5.97,-1.42 -10.62,-5.74 -11.31,-10.49 -0.49,-3.34 1.08,-6.4 4.19,-8.19 2.74,-1.59 2.96,-2.58 2.96,-2.59 -0.15,-0.65 -2.42,-1.86 -3.37,-1.81 -8.23,0.32 -13.07,-1.02 -15.28,-4.23 -1.01,-1.46 -1.88,-3.98 -0.31,-7.65 0.82,-1.91 2.4,-3.72 3.93,-5.48 1.47,-1.68 3.7,-4.23 3.52,-5.41 -0.06,-0.41 -0.64,-1 -1.55,-1.56 -1.67,-1.05 -4.66,-1.17 -7.3,-1.27 -1.23,-0.05 -2.39,-0.09 -3.47,-0.23 -8.25,-1.01 -8.56,-6.63 -8.72,-9.66 -0.1,-1.68 -0.18,-2.74 -0.79,-3.28 -0.63,-0.56 -2.55,-1.44 -8.32,-1.1 -1.64,0.14 -3.11,-1.17 -3.2,-2.84 -0.1,-1.67 1.17,-3.1 2.84,-3.2 6.31,-0.39 10.24,0.42 12.71,2.62 2.51,2.24 2.68,5.26 2.8,7.47 0.17,2.97 0.2,3.59 3.41,3.98 0.84,0.1 1.88,0.15 2.98,0.19 3.39,0.13 7.24,0.29 10.27,2.18 2.54,1.58 3.99,3.54 4.33,5.81 0.59,3.95 -2.35,7.32 -4.94,10.29 -1.22,1.4 -2.49,2.84 -2.93,3.88 -0.37,0.86 -0.47,1.54 -0.27,1.83 0.13,0.2 1.6,1.92 10.05,1.61 3.19,-0.14 8.27,2.17 9.43,6.2 0.7,2.41 0.26,6.02 -5.76,9.49 -1.24,0.72 -1.31,1.49 -1.22,2.08 0.29,1.97 2.88,4.56 6.73,5.47 3.93,0.94 5.8,2.95 6.67,4.47 1.09,1.88 1.32,4.12 0.66,6.33 -0.75,2.48 -2.48,4.64 -4.15,6.73 -1.2,1.51 -2.45,3.07 -3.02,4.43 -0.21,0.56 0.18,2.3 0.63,2.92 14.12,10.55 8.25,18.82 4.35,24.3 -3.54,4.99 -4.45,6.74 0.07,10.28 5.05,3.96 2.12,9.52 -0.01,13.58 -2.62,4.97 -4.16,8.5 -2,12.24 4.66,8.01 2.43,13.99 1.09,17.56 -0.33,0.89 -0.78,2.1 -0.74,2.49 1.28,1.08 1.46,2.95 0.38,4.23 -0.59,0.7 -1.43,1.06 -2.27,1.06z"/>
  <path class="fil1" d="M309.63 280.72c0,0.01 -0.01,0.01 -0.01,0.01 0,0 0.01,0 0.01,-0.01zm-0.01 0.01c0,0 0,0 -0.01,0.01 0.01,-0.01 0.01,-0.01 0.01,-0.01zm-2.21 0.96c-0.74,0 -1.48,-0.26 -2.06,-0.81 -1.23,-1.13 -1.3,-3.05 -0.16,-4.28 0.44,-0.47 0.89,-0.69 1.37,-0.93 1.38,-0.67 1.73,-1.08 1.77,-1.29 0.05,-0.27 -0.19,-1.16 -1.47,-2.61 -4.98,-5.65 -2.95,-9.84 -1.74,-12.35 1.01,-2.07 1.22,-2.51 -0.63,-4.36 -9.36,-9.36 -6.63,-13.67 -1.39,-19.93 0.71,-0.84 1.47,-1.75 2.27,-2.77 0.32,-0.41 0.35,-0.61 0.35,-0.61 -0.11,-0.75 -2.56,-2.49 -3.88,-3.43 -2.94,-2.09 -6.28,-4.47 -6.76,-8.15 -0.27,-2.08 0.42,-4.14 2.07,-6.13 5.25,-6.33 5.03,-8.09 5.02,-8.17 -0.25,-0.24 -1.83,-0.77 -2.78,-1.08 -1.6,-0.53 -3.41,-1.13 -5,-2.24 -9.63,-6.74 -4.08,-14.84 -1.09,-19.19 0.77,-1.13 1.51,-2.2 2.02,-3.16 1.25,-2.35 -0.1,-3.89 -6.59,-7.49 -1.48,-0.82 -2.88,-1.6 -4.05,-2.44 -1.91,-1.37 -4.5,-3.58 -4.92,-6.96 -0.4,-3.17 1.12,-6.53 5.08,-11.23 3.3,-3.93 3.63,-6.16 3.31,-6.86 -0.1,-0.21 -1.14,-1.99 -8.38,-1.99 -10.06,0 -11.72,-5.69 -11.97,-8.14 -0.79,-7.72 4.09,-11.46 7.31,-13.94 1.15,-0.88 2.73,-2.09 2.77,-2.69 0.03,-0.34 -0.33,-1.05 -1.44,-1.93 -2.95,-2.34 -8.2,-3.58 -9.81,-3.06 -1.6,0.48 -3.29,-0.4 -3.79,-1.99 -0.5,-1.6 0.39,-3.3 1.99,-3.8 3.91,-1.21 11.09,0.7 15.38,4.1 3.31,2.63 3.85,5.33 3.71,7.12 -0.24,3.31 -2.83,5.3 -5.12,7.05 -3.38,2.6 -5.4,4.46 -4.98,8.53 0.07,0.67 0.28,2.69 5.95,2.69 7.61,0 12.15,1.8 13.87,5.49 1.66,3.57 0.26,8.06 -4.17,13.32 -3.25,3.87 -3.81,5.71 -3.7,6.58 0.09,0.77 0.9,1.68 2.44,2.79 0.88,0.64 2.13,1.33 3.45,2.06 5.01,2.78 13.38,7.42 9,15.64 -0.67,1.26 -1.53,2.52 -2.37,3.73 -3.81,5.56 -4.75,7.78 -0.42,10.81 0.85,0.6 2.16,1.03 3.42,1.45 2.57,0.85 5.77,1.91 6.71,5.18 0.94,3.28 -0.85,7.25 -6.18,13.69 -0.51,0.61 -0.78,1.15 -0.74,1.47 0.14,1.07 2.63,2.83 4.27,4 2.89,2.06 5.88,4.18 6.37,7.51 0.25,1.79 -0.28,3.54 -1.59,5.21 -0.84,1.07 -1.65,2.03 -2.39,2.92 -4.43,5.29 -4.89,5.84 1.03,11.76 4.9,4.9 2.96,8.9 1.8,11.29 -1.05,2.17 -1.49,3.07 0.83,5.69 2.39,2.71 3.36,5.33 2.87,7.79 -0.68,3.42 -3.85,4.98 -5.04,5.56l-0.13 0.06c-0.51,0.35 -1.1,0.52 -1.69,0.52z"/>
  <path class="fil1" d="M287.59 273.93c0,0.02 0.01,0.03 0.01,0.05 0,-0.02 0,-0.03 -0.01,-0.05zm0.7 10c-1.12,0 -2.12,-0.61 -2.64,-1.54l-0.3 -0.49c-3.22,-5.19 -3.48,-5.86 -3.64,-6.52 -1.38,-5.77 0.65,-8.49 1.99,-10.29 1.12,-1.49 1.85,-2.48 -1.2,-8.01 -0.44,-0.79 -2.02,-3.04 -2.77,-4.12 -1.04,-1.47 -1.15,-1.63 -1.28,-2.27 -1.69,-8.08 3.41,-11.2 5.87,-12.7 0.45,-0.28 1.07,-0.66 1.23,-0.83 0.53,-0.74 0.91,-1.33 1.13,-1.76 0.13,-0.27 0.14,-0.39 0.14,-0.39 -0.23,-0.42 -2.02,-1.39 -2.99,-1.91 -1.98,-1.07 -4.03,-2.18 -5.1,-4.13 -1.28,-2.33 -1.68,-6.09 3.69,-10.73 0.85,-0.74 0.8,-1.27 0.78,-1.5 -0.1,-1.1 -1.28,-2.59 -2.75,-3.46 -10.62,-6.29 -6.36,-14.32 -3.81,-19.13 0.57,-1.08 1.12,-2.1 1.48,-3 1.1,-2.78 -0.89,-5.18 -2.4,-6.04 -1.46,-0.82 -1.96,-2.67 -1.14,-4.13 0.82,-1.45 2.66,-1.96 4.13,-1.14 4.12,2.34 7.29,7.88 5.03,13.55 -0.48,1.21 -1.13,2.43 -1.75,3.6 -2.85,5.36 -3.88,7.87 1.55,11.08 2.42,1.43 5.36,4.42 5.69,8.13 0.23,2.48 -0.79,4.83 -2.85,6.61 -2.03,1.77 -2.51,2.93 -2.33,3.26 0.27,0.41 1.77,1.22 2.66,1.7 2.7,1.47 8.33,4.51 5.38,10.35 -0.37,0.73 -0.88,1.54 -1.66,2.63 -0.78,1.07 -1.88,1.75 -2.95,2.41 -2.25,1.37 -3.76,2.3 -3.2,5.74 0.11,0.16 0.25,0.36 0.4,0.58 1.33,1.89 2.57,3.68 3.12,4.67 4.57,8.28 3.05,11.49 0.75,14.56 -1.02,1.37 -1.64,2.21 -0.99,5.06 0.22,0.46 0.93,1.7 2.93,4.93 0.54,0.87 0.74,1.2 0.81,1.9 0.17,1.66 -1.05,3.15 -2.71,3.31 -0.1,0.01 -0.2,0.02 -0.3,0.02z"/>
  <path class="fil1" d="M274.69 272.22c-0.74,0 -1.47,-0.26 -2.06,-0.8 -0.07,-0.07 -0.15,-0.14 -0.22,-0.22 -4.01,-2.06 -6.54,-5.46 -6.82,-9.19 -0.25,-3.26 1.27,-6.24 4.17,-8.17 0.45,-0.3 0.72,-0.8 0.82,-1.51 0.15,-1.13 -0.24,-2.29 -0.59,-2.69 -0.54,-0.62 -1.05,-1.21 -1.55,-1.78 -4.17,-4.74 -7.46,-8.49 -7.46,-16.24 0,-3.08 4.81,-10.7 6.21,-11.75 0.91,-0.67 1.01,-2.07 0.65,-3.11 -0.22,-0.63 -0.61,-1.11 -0.8,-1.03 -1.62,0 -3.07,-1.25 -3.13,-2.92 -0.06,-1.67 1.25,-3.07 2.92,-3.14 3.03,-0.04 5.6,1.9 6.72,5.08 1.08,3.07 0.7,7.25 -2.53,9.81 -0.93,1.15 -3.77,5.91 -4,7.22 0.02,5.31 2,7.57 5.97,12.08 0.51,0.58 1.04,1.19 1.59,1.83 1.58,1.83 2.37,4.76 2,7.47 -0.33,2.42 -1.56,4.46 -3.46,5.72 -0.74,0.49 -1.59,1.35 -1.49,2.68 0.09,1.3 1.17,3.15 3.91,4.43 0.61,0.29 1.07,0.68 1.41,1.19 1.02,1.15 1.02,2.9 -0.04,4.06 -0.59,0.65 -1.41,0.98 -2.22,0.98z"/>
  <path class="fil1" d="M268.1 193.08c-1.68,0 -3.03,-1.36 -3.03,-3.03 0,-1.67 1.35,-3.03 3.03,-3.03 0.51,0 2.01,-0.35 4.89,-3.6 0.14,-0.21 0.6,-1.57 0.51,-4.47 -0.11,-3.69 -1,-7.05 -1.95,-10.62 -1.22,-4.61 -2.48,-9.38 -2.31,-15.39 0.08,-2.84 0.22,-5.21 0.43,-7.25 0.02,-0.21 0.06,-0.46 0.09,-0.75 0.42,-3.15 0.08,-3.97 -0.16,-4.19 -0.14,-0.12 -0.95,-0.36 -2.85,0.14 -1.63,0.42 -3.28,-0.56 -3.69,-2.17 -0.42,-1.62 0.55,-3.27 2.17,-3.69 3.61,-0.94 6.43,-0.54 8.39,1.19 3.04,2.7 2.44,7.3 2.15,9.51l-0.07 0.58c-0.2,1.89 -0.33,4.11 -0.41,6.8 -0.14,5.14 0.96,9.29 2.12,13.67 0.99,3.74 2.01,7.6 2.14,11.98 0.14,4.1 -0.55,7.02 -2.03,8.69 -2.15,2.41 -5.46,5.63 -9.42,5.63z"/>
  <path class="fil1" d="M125.26 196.59c-0.86,0 -1.72,-0.13 -2.59,-0.38 -5.32,-1.54 -9.68,-7.67 -10.81,-12.69 -1,-4.4 -1.38,-10.74 -0.13,-13.84 0.49,-1.21 0.72,-2.4 0.71,-3.63 -0.01,-2.1 -0.57,-4.26 -1.21,-6.77 -1.14,-4.43 -2.56,-9.95 -0.95,-16.85 0.64,-2.75 2.19,-3.89 3.39,-4.36 2.51,-0.99 5.59,-0.08 10.29,3.06 1.39,0.93 1.76,2.81 0.83,4.2 -0.93,1.39 -2.81,1.76 -4.2,0.83 -2.46,-1.64 -3.8,-2.17 -4.42,-2.33 -1.27,5.44 -0.15,9.76 0.92,13.94 0.68,2.66 1.39,5.4 1.41,8.24 0.01,2.01 -0.38,4 -1.15,5.92 -0.41,1.03 -0.64,5.58 0.41,10.25 0.72,3.19 3.69,7.37 6.6,8.21 0.84,0.24 1.99,0.34 3.43,-1.1 0.69,-0.7 1.31,-1.1 2.03,-1.3 1.27,-0.91 3.07,-0.74 4.1,0.47 1.09,1.27 0.97,3.15 -0.31,4.24 -0.57,0.49 -1.09,0.8 -1.66,0.99 -2.02,1.92 -4.31,2.9 -6.69,2.9z"/>
  <g>
   <path class="fil1" d="M115.55 152.87l0.02 0 -0.02 0zm6.37 24.8c-0.87,0 -1.74,-0.38 -2.33,-1.1 -0.7,-0.84 -0.94,-1.9 -0.72,-3.14 0.17,-0.89 0.01,-2.95 -0.1,-4.3 -0.08,-1.08 -0.15,-2 -0.14,-2.76 0.02,-1.28 -0.09,-2.22 -0.2,-3.2 -0.1,-0.85 -0.2,-1.72 -0.22,-2.79 -0.03,-1.68 -1.86,-6.57 -2.97,-7.6 -1.45,-0.5 -2.31,-2.02 -1.96,-3.54 0.38,-1.63 2.02,-2.63 3.64,-2.27 4.83,1.12 7.3,10.99 7.34,13.29 0.02,0.78 0.1,1.45 0.19,2.22 0.12,1.08 0.26,2.3 0.24,3.98 -0.01,0.54 0.06,1.33 0.12,2.2 0.14,1.81 0.3,3.84 0.09,5.44 0.19,1.04 -0.18,2.15 -1.05,2.87 -0.57,0.47 -1.25,0.7 -1.93,0.7z"/>
  </g>
  <path class="fil1" d="M195.71 171.31c-0.29,0 -0.58,-0.06 -0.86,-0.19 -1.01,-0.48 -1.44,-1.68 -0.96,-2.69 1.19,-2.51 0.62,-9.24 -0.66,-11.74 -0.51,-0.99 -0.12,-2.2 0.88,-2.71 0.99,-0.51 2.21,-0.12 2.71,0.88 1.81,3.52 2.48,11.58 0.71,15.3 -0.34,0.73 -1.06,1.15 -1.82,1.15z"/>
  <path class="fil1" d="M216.38 169.08c-0.85,0 -1.64,-0.54 -1.92,-1.38 -0.05,-0.11 -0.13,-0.2 -0.21,-0.31 -1.07,-1.53 -2.13,-3.51 -2.13,-9.41 0,-3.73 2.23,-8.35 5.08,-10.53 0.8,-0.61 3.92,-2.27 6.17,-3.29 1.01,-0.45 2.21,0 2.67,1.01 0.46,1.02 0,2.21 -1.01,2.67 -2.41,1.09 -4.99,2.54 -5.39,2.83 -1.85,1.41 -3.48,4.83 -3.48,7.31 0,5.11 0.87,6.34 1.39,7.08 0.26,0.37 0.56,0.79 0.75,1.38 0.34,1.07 -0.25,2.2 -1.31,2.54 -0.2,0.07 -0.41,0.1 -0.61,0.1z"/>
  <path class="fil1" d="M208.98 204.76c-0.07,0 -0.14,0 -0.2,0 -4.63,-0.13 -8.82,-3.64 -11.87,-6.2l-0.62 -0.51c-0.58,-0.45 -3.11,-0.61 -4.47,-0.69 -1.72,-0.1 -3.34,-0.2 -4.75,-0.62 -2.35,-0.7 -4.56,-3.03 -5.49,-5.8 -0.94,-2.76 -0.78,-5.72 0.41,-7.71 0.82,-1.37 2.09,-2.26 3.59,-2.52 1.63,-0.29 3.21,0.83 3.49,2.48 0.25,1.47 -0.6,2.87 -1.96,3.36 -0.11,0.44 -0.16,1.38 0.2,2.45 0.39,1.13 1.22,1.84 1.49,1.93 0.74,0.23 2.09,0.31 3.39,0.39 2.9,0.17 5.9,0.35 7.97,2.07l0.63 0.53c2.25,1.88 5.63,4.72 8.16,4.79l0.04 0c1.58,0 4.94,-2.2 6.15,-4.03 1.73,-2.61 5.13,-3.18 8.13,-3.68 1.01,-0.16 2.53,-0.41 2.95,-0.66 0.7,-0.45 1.04,-1.65 1.01,-3.58 -0.02,-0.84 -1.58,-1.92 -2.34,-2.09 -1.63,-0.38 -2.65,-2.01 -2.27,-3.64 0.38,-1.63 2.02,-2.64 3.63,-2.26 2.87,0.66 6.95,3.55 7.03,7.88 0.08,4.17 -1.2,7.13 -3.8,8.8 -1.4,0.89 -3.26,1.2 -5.22,1.53 -1.26,0.21 -3.6,0.6 -4.11,1.09 -1.8,2.74 -6.82,6.69 -11.17,6.69z"/>
  <path class="fil1" d="M179.27 218.81c-4.22,0 -6.66,-1.32 -8.38,-2.24 -0.83,-0.45 -1.36,-0.72 -1.71,-0.72 -1.67,0 -3.02,-1.35 -3.02,-3.03 0,-1.67 1.35,-3.02 3.02,-3.02 1.9,0 3.32,0.76 4.57,1.43 1.74,0.94 3.54,1.91 7.71,1.38 1.39,-0.18 2.92,-0.34 4.47,-0.51 2.79,-0.29 5.67,-0.59 8.04,-1.03 2.6,-0.47 4.91,0.14 6.96,0.67 1.24,0.33 2.42,0.64 3.45,0.64 0.79,0 1.51,0.01 2.18,0.03 2.94,0.06 4.43,0.09 7.13,-1.15 3.28,-1.5 7.46,-1.79 11.2,-0.78 2.11,0.57 12.05,1.44 13.91,1.1 0.24,-0.06 2.55,-0.68 3.07,-0.83 1.23,-0.44 2.66,-0.05 3.47,1.07 0.99,1.35 0.69,3.24 -0.67,4.23 -0.92,0.67 -4.72,1.47 -4.76,1.48 -3.16,0.58 -14.1,-0.52 -16.6,-1.2 -2.35,-0.64 -5.13,-0.47 -7.1,0.43 -3.96,1.82 -6.52,1.77 -9.77,1.7 -0.64,-0.01 -1.32,-0.02 -2.06,-0.02 -1.81,0 -3.5,-0.45 -4.99,-0.84 -1.64,-0.43 -3.06,-0.8 -4.32,-0.57 -2.61,0.48 -5.61,0.79 -8.5,1.1 -1.52,0.15 -2.99,0.31 -4.34,0.48 -1.08,0.14 -2.06,0.2 -2.96,0.2z"/>
  <path class="fil1" d="M204.84 237.63c-10.37,0 -17.55,-3.91 -23.93,-7.38 -1.82,-0.99 -3.53,-1.92 -5.24,-2.72 -1.51,-0.71 -2.17,-2.52 -1.46,-4.03 0.71,-1.51 2.52,-2.16 4.03,-1.46 1.88,0.88 3.75,1.9 5.56,2.89 6.43,3.49 13.08,7.11 22.94,6.59 13.02,-0.68 14.64,-2.02 22.44,-8.47 1.14,-0.94 2.39,-1.97 3.81,-3.11 1.3,-1.06 3.2,-0.85 4.25,0.46 1.05,1.3 0.85,3.2 -0.46,4.25 -1.39,1.13 -2.62,2.14 -3.74,3.07 -8.69,7.18 -11.56,9.09 -25.99,9.85 -0.75,0.04 -1.49,0.06 -2.21,0.06z"/>
  <path class="fil1" d="M246.94 270.53l-0.03 0c-1.67,-0.02 -3.02,-1.39 -3,-3.06l0.27 -25.4c0.02,-1.66 1.37,-3 3.03,-3l0.03 0c1.67,0.02 3.01,1.39 3,3.06l-0.27 25.4c-0.02,1.67 -1.37,3 -3.03,3z"/>
  <path class="fil1" d="M138.78 275.7c-1.64,0 -2.98,-1.31 -3.02,-2.96 -0.7,-28.59 -3.17,-51.23 -8.81,-80.74 -0.31,-1.65 0.77,-3.23 2.41,-3.55 1.65,-0.31 3.23,0.77 3.54,2.41 5.7,29.87 8.2,52.78 8.91,81.73 0.04,1.67 -1.28,3.07 -2.95,3.1 -0.03,0 -0.05,0.01 -0.08,0.01z"/>
  <path class="fil1" d="M66.5 295.49c-1.14,0 -2.23,-0.65 -2.74,-1.75 -0.71,-1.52 -0.05,-3.32 1.47,-4.03 4.28,-1.99 9.18,-4.08 14.37,-6.3 20.32,-8.68 45.6,-19.49 55.85,-33.42 0.99,-1.34 2.89,-1.63 4.23,-0.64 1.35,0.99 1.64,2.88 0.65,4.23 -11.23,15.26 -37.36,26.43 -58.35,35.4 -5.14,2.2 -10,4.27 -14.2,6.23 -0.42,0.19 -0.85,0.28 -1.28,0.28z"/>
  <g>
   <path class="fil1" d="M277.87 282.57c0.01,0 0.03,0 0.04,0 -0.01,0 -0.03,0 -0.04,0zm0.04 0l0 0 0 0zm0.07 0l0.01 0 -0.01 0zm29.75 13.45c-0.25,0 -0.5,-0.04 -0.76,-0.1 -0.06,-0.02 -7.1,-2.06 -7.67,-2.34 -0.62,-0.31 -2.48,-1.27 -4.88,-2.52 -4.94,-2.56 -15.12,-7.84 -16.92,-8.55 -3.97,-0.79 -17.08,-7.56 -19.07,-9.24 -1.25,-0.81 -9.39,-3.61 -10.86,-3.78 -1.63,-0.19 -2.88,-1.66 -2.73,-3.29 0.16,-1.64 1.54,-2.83 3.16,-2.75 2.16,0.14 12.42,3.58 14.34,5.2 1.57,1.3 13.97,7.47 16.19,7.9 0.83,0.05 1.23,0.08 18.68,9.14 2.15,1.11 3.84,1.99 4.58,2.36 1.05,0.33 6.12,1.86 6.7,2.01 1.62,0.41 2.59,2.07 2.17,3.69 -0.35,1.36 -1.58,2.27 -2.93,2.27z"/>
  </g>
  <path class="fil1" d="M209.04 344.87c-1.55,0 -3.12,-0.1 -4.69,-0.31 -26.24,-3.42 -53.92,-26.89 -64.89,-38.83 -9.29,-10.11 -20.2,-24.75 -22.97,-35.52 -0.42,-1.62 0.56,-3.27 2.18,-3.69 1.63,-0.42 3.27,0.56 3.69,2.18 2.05,7.99 10.51,20.91 21.56,32.94 10.45,11.37 36.7,33.73 61.21,36.92 21.67,2.8 41.79,-17.92 46.3,-38.3 4.43,-20.04 2.11,-26.01 0.91,-27.65 -0.57,-0.77 -0.84,-1.19 -1.03,-1.49 -0.19,-0.3 -0.22,-0.33 -1.21,-1.3 -1.2,-1.17 -1.22,-3.09 -0.05,-4.29 1.16,-1.19 3.08,-1.22 4.28,-0.05 1.31,1.28 1.56,1.57 2.07,2.36 0.15,0.24 0.37,0.57 0.82,1.18 3.78,5.15 3.82,15.8 0.12,32.54 -4.74,21.5 -25.24,43.31 -48.3,43.31z"/>
  <g>
   <path class="fil1" d="M203.59 332.56l0.02 0 -0.02 0zm-1.08 5.82c-0.12,0 -0.24,0 -0.36,-0.02 -1.19,-0.14 -2.16,-0.83 -3.54,-2.05 -5.42,-4.7 -12.5,-9.5 -20.01,-14.57 -13.5,-9.13 -28.8,-19.48 -36.98,-31.33 -0.82,-1.18 -1.61,-2.39 -2.39,-3.64 -4.99,-7.94 -11.45,-19.52 -9.84,-28.46 0.3,-1.64 1.89,-2.74 3.52,-2.44 1.65,0.3 2.74,1.87 2.44,3.52 -0.91,5.08 2.12,13.21 9.01,24.16 0.73,1.17 1.47,2.31 2.24,3.42 7.53,10.91 22.33,20.92 35.39,29.75 7.66,5.18 14.9,10.07 20.48,14.91 0,0.01 0.14,0.14 0.15,0.14 0.46,0.41 0.72,0.61 0.86,0.72 1.32,0.45 2.2,1.77 2.03,3.22 -0.18,1.54 -1.49,2.67 -3,2.67z"/>
  </g>
  <path class="fil1" d="M215.18 334.95c-0.99,0 -1.96,-0.49 -2.54,-1.38 -0.91,-1.4 -0.52,-3.27 0.88,-4.19 2.05,-1.33 10.84,-9.27 17.39,-16.15 17.18,-18.06 18.26,-30.48 14.61,-43.58 -0.46,-1.61 0.48,-3.28 2.1,-3.73 1.61,-0.44 3.28,0.5 3.73,2.1 4.98,17.85 0.33,32.16 -16.05,49.38 -6.11,6.42 -15.6,15.18 -18.47,17.06 -0.51,0.33 -1.08,0.49 -1.65,0.49z"/>
  <path class="fil1" d="M203.54 344.42c-0.75,0 -1.5,-0.28 -2.09,-0.84 -1.84,-1.74 -3.36,-5.29 -2.56,-8.42 0.52,-2.04 1.96,-3.53 3.97,-4.13 0.92,-0.6 1.9,-0.6 3.63,-0.6 1.36,0 2.31,-0.22 3.32,-0.46 1.01,-0.24 2.18,-0.55 3.56,-0.48 0.19,0.01 2.04,0.27 2.78,0.61 0.1,0.04 0.19,0.09 0.28,0.14 1.37,0.8 2.38,1.63 2.99,2.47 0.16,0.23 0.3,0.47 0.39,0.74 1.99,5.4 0.49,7.96 -1.12,9.15 -1.34,1 -3.24,0.72 -4.23,-0.62 -0.91,-1.21 -0.77,-2.88 0.26,-3.92 0,-0.28 -0.05,-0.88 -0.39,-1.96 -0.14,-0.11 -0.35,-0.25 -0.6,-0.42 -0.24,-0.05 -0.54,-0.1 -0.74,-0.14 -0.54,0.03 -1.08,0.16 -1.79,0.32 -1.18,0.28 -2.65,0.63 -4.71,0.63 -0.41,0 -0.71,0 -0.94,0 -0.25,0.12 -0.52,0.22 -0.82,0.31 -0.06,0.59 0.37,1.89 0.89,2.39 1.22,1.15 1.26,3.07 0.11,4.28 -0.59,0.63 -1.39,0.95 -2.19,0.95z"/>
  <g>
   <path class="fil1" d="M148.3 35.87l-0.01 0 0.01 0zm112.78 33.02l-112.78 -33.02zm-100.29 177.66c-1.14,0 -2.24,-0.65 -2.75,-1.75 -0.58,-1.26 -1.2,-2.47 -1.8,-3.65 -3.48,-6.86 -7.82,-15.39 3.9,-21.44 1.3,-0.67 2.04,-1.67 2.33,-3.15 0.57,-2.95 -0.88,-6.82 -2.62,-8.86 -2.14,-2.5 -2.97,-5.48 -2.35,-8.38 0.64,-2.99 2.81,-5.55 5.97,-7.04 2.62,-1.24 4.95,-3.36 2.24,-9.6 -0.46,-1.08 -1.11,-2.11 -1.8,-3.21 -2.17,-3.47 -5.13,-8.23 -0.23,-14.1 0.83,-0.99 1.74,-1.76 2.63,-2.52 0.86,-0.73 1.68,-1.42 2.41,-2.3 0.73,-0.89 0.05,-3.62 -0.5,-5.81 -0.71,-2.84 -1.52,-6.06 -0.64,-8.98 1.41,-4.63 5.11,-5.39 7.32,-5.84 0.57,-0.11 1.54,-0.31 1.73,-0.49 0,0 0.08,-0.1 0.13,-0.43 0.19,-1.04 0.06,-2.69 -0.08,-4.43 -0.1,-1.35 -0.22,-2.89 -0.22,-4.47 0,-4.72 4.72,-6.08 8.52,-7.17 6.37,-1.84 7.94,-2.93 6.86,-7.13 -0.87,-3.37 -0.6,-6.14 0.83,-8.21 2.25,-3.29 6.39,-3.76 10.04,-4.19 1.49,-0.17 4.26,-0.49 4.71,-1.05 -0.01,0 0.11,-0.3 -0.1,-1.17 -1.07,-4.54 -1.98,-9.69 0.8,-13.29 2.69,-3.48 7.7,-3.99 11.24,-4.07 4.61,-0.11 6.15,-1.03 6.66,-1.57 0.62,-0.65 0.62,-1.85 0.56,-3.75 -0.09,-2.35 -0.19,-5.28 2.02,-7.57 1.82,-1.88 4.68,-2.75 9,-2.75 1.43,0 3.32,0.43 5.33,0.89 3.27,0.76 5.38,1.14 6.3,1.15 0.04,-0.08 0.09,-0.17 0.14,-0.27 0.62,-1.12 1.56,-2.82 3.9,-4.8 1.77,-1.49 3.95,-2.16 7.55,-2.31 1.11,-0.03 2.25,0.37 4.33,1.14 2.21,0.82 7.4,2.72 9.03,1.86 0.08,-0.04 0.2,-0.11 0.3,-0.52 2,-8.21 11.2,-6.09 15.13,-5.17 0.57,0.13 1.08,0.24 1.53,0.33 0.34,0.07 0.67,0.19 0.97,0.37 1.57,0.93 2.79,0.38 5.86,-1.44 4,-2.36 10.05,-5.93 18.13,0.65 0.69,0.09 2.41,-0.17 3.7,-0.37 5.01,-0.74 12.59,-1.88 18.13,4.09 1.3,1.4 1.94,2.66 2.41,3.57 0.63,1.22 0.86,1.67 2.63,2.44 1.37,0.6 2.83,0.53 4.52,0.45 5.09,-0.23 9.87,0.4 12,10.67 0.33,1.58 0.86,1.82 3.63,2.44 5.8,1.28 11.41,3.76 10.73,18.31 0,0.05 0,0.1 0,0.13 0.36,0.22 1.28,0.51 1.9,0.71 3.11,0.98 8.32,2.63 10.08,10.21 0.78,3.37 -1.06,13.62 -5.99,16.27 -1.48,0.8 -3.31,0.24 -4.1,-1.23 -0.79,-1.47 -0.24,-3.31 1.23,-4.1 1.53,-0.82 3.42,-7.56 2.96,-9.57 -0.98,-4.22 -3.2,-4.92 -6,-5.81 -2.38,-0.75 -6.36,-2.01 -6.13,-6.89 0.5,-10.68 -2.37,-11.32 -5.99,-12.12 -2.83,-0.63 -7.09,-1.58 -8.24,-7.12 -1.26,-6.06 -2.41,-6 -5.8,-5.85 -2.03,0.1 -4.56,0.22 -7.22,-0.95 -3.75,-1.63 -4.77,-3.62 -5.59,-5.22 -0.4,-0.77 -0.74,-1.43 -1.47,-2.23 -3.37,-3.62 -8.38,-2.87 -12.8,-2.21 -3.31,0.5 -6.18,0.93 -8.25,-0.79 -4.92,-4.09 -7.49,-2.57 -11.39,-0.26 -2.95,1.74 -6.95,4.1 -11.54,1.7 -0.39,-0.09 -0.81,-0.18 -1.26,-0.28 -6.17,-1.43 -7.5,-0.89 -7.89,0.7 -0.48,2 -1.64,3.53 -3.33,4.43 -4.02,2.14 -9.77,0.03 -13.97,-1.52 -0.8,-0.29 -1.78,-0.65 -2.2,-0.76 -2.46,0.13 -3.23,0.5 -3.69,0.88 -1.48,1.26 -2.02,2.23 -2.5,3.09 -2.38,4.33 -5.23,3.92 -13.1,2.11 -1.44,-0.33 -3.23,-0.75 -3.97,-0.75 -3.5,0 -4.44,0.7 -4.64,0.91 -0.43,0.44 -0.38,1.81 -0.33,3.15 0.08,2.35 0.19,5.58 -2.2,8.12 -2.11,2.24 -5.59,3.34 -10.93,3.46 -3.5,0.09 -5.78,0.68 -6.58,1.72 -1.11,1.44 -0.43,5.13 0.3,8.2 0.56,2.4 0.28,4.43 -0.84,6.04 -1.95,2.77 -5.52,3.19 -8.97,3.59 -2.25,0.26 -5.05,0.58 -5.75,1.6 -0.37,0.54 -0.36,1.73 0.04,3.27 2.71,10.49 -6.23,13.07 -11.04,14.46 -1.34,0.38 -3.52,1.01 -4.15,1.53 0.01,1.28 0.11,2.57 0.21,3.82 0.17,2.14 0.33,4.16 0,5.96 -0.82,4.62 -4.59,5.38 -6.61,5.8 -2.11,0.43 -2.41,0.61 -2.73,1.67 -0.4,1.31 0.16,3.56 0.71,5.73 0.93,3.71 1.98,7.9 -0.71,11.15 -1.07,1.29 -2.18,2.23 -3.15,3.06 -0.76,0.64 -1.41,1.19 -1.9,1.78 -2.01,2.4 -1.46,3.51 0.72,7.01 0.74,1.18 1.57,2.52 2.22,4.01 3.43,7.92 1.53,14.29 -5.22,17.48 -1.45,0.69 -2.39,1.7 -2.63,2.84 -0.28,1.3 0.41,2.45 1.04,3.18 2.61,3.07 4.97,8.75 3.95,13.95 -0.65,3.3 -2.55,5.85 -5.49,7.37 -6.1,3.15 -5.24,5.53 -1.28,13.31 0.63,1.24 1.28,2.52 1.89,3.85 0.71,1.52 0.05,3.32 -1.47,4.02 -0.41,0.19 -0.85,0.28 -1.27,0.28z"/>
  </g>
  <path class="fil1" d="M113.32 272.62c-1.22,0 -2.37,-0.74 -2.83,-1.96 -2.88,-7.63 1.7,-12.27 5.05,-15.66 3.88,-3.93 5.48,-5.87 2.69,-10.64 -4.23,-7.22 -4.76,-9.23 -0.7,-14.12 0.5,-0.6 1.08,-1.29 1.73,-2.15 7.86,-10.35 5.31,-14.11 3.07,-17.43 -1.16,-1.71 -2.61,-3.84 -1.9,-6.47 0.66,-2.44 2.87,-4.37 7.65,-6.67 1.5,-0.73 3.31,-0.1 4.04,1.41 0.73,1.5 0.09,3.31 -1.41,4.04 -3.11,1.5 -4.07,2.38 -4.35,2.71 0.17,0.39 0.63,1.07 0.98,1.59 3.5,5.16 6.42,11.74 -3.26,24.48 -0.71,0.94 -1.34,1.7 -1.89,2.35 -0.58,0.71 -1.31,1.59 -1.39,1.87 -0.03,0.75 1.85,3.96 2.65,5.33 5.26,8.98 0.14,14.17 -3.6,17.95 -3.42,3.47 -5.14,5.45 -3.69,9.28 0.59,1.56 -0.2,3.31 -1.77,3.9 -0.35,0.13 -0.71,0.19 -1.07,0.19z"/>
  <path class="fil1" d="M85.81 286.65c-0.57,0 -1.15,-0.16 -1.67,-0.5 -1.39,-0.93 -1.77,-2.8 -0.85,-4.2 0.55,-0.82 1.18,-1.71 1.85,-2.66 3.15,-4.46 7.9,-11.2 5.41,-14.32 -2.47,-3.09 -3.2,-6.63 -2.04,-9.97 1.09,-3.17 3.81,-5.77 6.77,-6.47 3.49,-0.83 6.25,-3.42 7.04,-6.59 0.67,-2.66 -0.25,-5.26 -2.57,-7.31 -4.04,-3.55 -5.78,-7.06 -5.16,-10.41 1,-5.44 7.7,-7.93 11.7,-9.42 0.74,-0.28 1.67,-0.62 1.93,-0.77 2.64,-1.52 2.77,-2.4 2.77,-2.41 0.09,-0.82 -2.26,-3.01 -3.52,-4.19 -2.84,-2.64 -6.36,-5.93 -5.71,-10.3 0.52,-3.54 3.63,-6.59 9.77,-9.6 1.5,-0.73 3.31,-0.11 4.05,1.39 0.73,1.5 0.11,3.32 -1.39,4.05 -5.7,2.79 -6.37,4.57 -6.44,5.05 -0.18,1.22 2.15,3.4 3.85,4.99 2.74,2.55 5.85,5.45 5.4,9.31 -0.3,2.62 -2.18,4.9 -5.76,6.96 -0.69,0.4 -1.64,0.75 -2.84,1.19 -2.23,0.84 -7.47,2.79 -7.86,4.85 -0.19,1.05 1.01,2.83 3.21,4.77 4.05,3.56 5.67,8.42 4.45,13.31 -1.33,5.35 -5.85,9.67 -11.52,11.02 -0.69,0.16 -1.95,1.09 -2.45,2.55 -0.46,1.35 -0.11,2.77 1.04,4.22 5.35,6.67 -0.99,15.65 -5.19,21.59 -0.63,0.9 -1.23,1.75 -1.74,2.52 -0.58,0.88 -1.55,1.35 -2.53,1.35z"/>
  <path class="fil1" d="M61.45 288.71c-1.21,0 -2.35,-0.72 -2.82,-1.91 -1.94,-4.9 -1.73,-10.31 0.53,-13.48 1.17,-1.65 3.23,-3.34 5.63,-5.31 3.3,-2.72 8.29,-6.82 8.34,-9.52 0,-0.28 0.01,-1.03 -1.27,-2.15 -4.54,-3.97 -6.13,-9.79 -4.14,-15.19 2.26,-6.13 6.5,-7.39 9.6,-8.31 2.2,-0.66 3.39,-1.07 4.22,-2.47 2.09,-3.56 0.61,-5.28 -3.84,-8.93 -2.52,-2.08 -5.13,-4.22 -5.58,-7.33 -0.9,-6.14 6.61,-9.62 9.08,-10.76 2.14,-1 4.36,-1.83 6.15,-2.5 1.24,-0.46 2.78,-1.04 3.17,-1.28 2.03,-1.47 2.12,-2.17 -1.34,-7.54l-0.4 -0.63c-4.35,-6.79 -5.83,-11.82 -4.65,-15.83 1.39,-4.74 5.99,-6.84 10.44,-8.87 1.62,-0.74 3.3,-1.51 4.87,-2.41 1.85,-1.06 2.38,-1.87 2.4,-2.16 0.03,-0.28 -0.36,-1.17 -2,-2.51 -2.98,-2.42 -4.52,-5.21 -4.61,-8.31 -0.14,-5.24 4,-9.6 7.12,-12.43 1.72,-1.57 2.48,-2.7 2.52,-3.77 0.06,-1.32 -0.91,-3.07 -2.79,-5.09 -2.26,-2.42 -2.81,-5.79 -1.5,-9.24 2.36,-6.21 10.05,-9.25 16.11,-8.94 1.67,0.09 2.96,1.51 2.87,3.18 -0.08,1.67 -1.45,3 -3.18,2.87 -3.86,-0.18 -8.9,1.78 -10.13,5.04 -0.48,1.26 -0.4,2.26 0.26,2.96 3.1,3.32 4.54,6.41 4.41,9.46 -0.15,3.61 -2.48,6.18 -4.5,8.01 -3.46,3.14 -5.19,5.76 -5.13,7.79 0.01,0.47 0.05,1.89 2.37,3.78 3.02,2.45 4.44,5.04 4.22,7.69 -0.22,2.66 -2.05,4.99 -5.44,6.93 -1.8,1.04 -3.61,1.86 -5.35,2.66 -3.51,1.6 -6.53,2.98 -7.15,5.07 -0.43,1.47 -0.1,4.55 3.94,10.86l0.39 0.61c2.73,4.23 6.84,10.63 -0.24,15.75 -0.86,0.63 -2.15,1.12 -4.55,2.02 -1.79,0.67 -3.81,1.43 -5.74,2.32 -4.64,2.15 -5.72,3.78 -5.63,4.4 0.11,0.79 2.11,2.43 3.43,3.52 3.79,3.11 10.13,8.31 5.22,16.67 -2.07,3.53 -5.2,4.46 -7.72,5.21 -2.66,0.79 -4.43,1.32 -5.63,4.6 -1.12,3.04 -0.21,6.23 2.43,8.54 2.26,1.97 3.38,4.26 3.34,6.8 -0.08,5.51 -5.65,10.08 -10.55,14.11 -1.88,1.55 -3.83,3.15 -4.54,4.14 -0.91,1.28 -1.1,4.53 0.17,7.74 0.62,1.56 -0.15,3.31 -1.7,3.93 -0.37,0.15 -0.74,0.21 -1.11,0.21z"/>
  <path class="fil1" d="M40.61 277.67c-0.87,0 -1.73,-0.38 -2.33,-1.1 -5.34,-6.45 -1.77,-11.4 0.37,-14.35 1.95,-2.71 3.16,-3.89 4.13,-4.84 0.58,-0.57 1,-0.98 1.49,-1.66 3.82,-5.23 3.77,-5.39 2.48,-9.34 -0.19,-0.59 -0.4,-1.24 -0.62,-1.97 -0.14,-0.45 -0.32,-0.89 -0.5,-1.37 -0.78,-1.98 -1.85,-4.71 -1.85,-9.74 0,-2.34 0.61,-4.47 1.81,-6.31 2.19,-3.37 5.81,-5.11 9.01,-6.64 1.94,-0.93 4.35,-2.09 4.67,-3.02 0.12,-0.35 -0.04,-1.01 -0.45,-1.81 -2.8,-5.62 -7.04,-14.1 1.8,-19.65l1.02 -0.63c5.89,-3.63 9.3,-6.19 5.29,-13.02 -6.12,-10.43 1.36,-15.69 6.31,-19.17 5.47,-3.84 6.41,-5.01 3.89,-8.65l-0.82 -1.2c-1.9,-2.74 -2.77,-4 -3.63,-5.82 -3.3,-6.93 2.83,-9.88 5.77,-11.29 1.17,-0.57 2.38,-1.15 2.99,-1.73 2.19,-2.1 1.88,-3.46 -0.29,-7.93l-0.4 -0.81c-3.13,-6.53 -3.85,-10.48 -2.48,-13.64 1.68,-3.86 5.77,-5.14 11.44,-6.91 0.73,-0.23 1.49,-0.47 2.29,-0.73l0.34 -0.11c1.82,-0.58 4.86,-1.56 5.24,-2.29 -0.01,0 0.05,-0.62 -1.02,-2.23 -2.37,-3.55 -3.01,-6.58 -1.94,-9.27 1.79,-4.48 7.62,-5.81 12.77,-6.98 2.25,-0.51 6.03,-1.36 6.68,-2.18 0.41,-0.89 0.31,-1.35 -0.18,-2.97l-0.07 -0.25c-1.45,-4.87 -1.32,-8.47 0.39,-11.34 2.24,-3.75 6.69,-5.1 10.32,-5.85 5.23,-1.09 5.86,-1.53 6.82,-2.18l0.24 -0.16c0.15,-0.11 0.31,-0.21 0.49,-0.32 1.06,-0.68 2.38,-1.52 3.69,-5.46 0.84,-2.54 2.4,-6.11 6.19,-7.72 3.76,-1.6 8.77,-0.84 15.35,2.3 1.5,0.72 2.14,2.53 1.42,4.04 -0.72,1.5 -2.53,2.15 -4.04,1.42 -6.03,-2.88 -8.96,-2.78 -10.36,-2.19 -1.2,0.51 -2.04,1.73 -2.81,4.06 -1.99,5.99 -4.73,7.72 -6.19,8.66l-0.55 0.36c-1.66,1.14 -2.9,1.84 -9.02,3.12 -3.54,0.74 -5.56,1.7 -6.36,3.03 -0.75,1.27 -0.68,3.46 0.23,6.51l0.06 0.24c0.57,1.9 1.28,4.27 -0.19,7.37 -1.6,3.34 -6.05,4.35 -10.77,5.42 -2.95,0.67 -7.87,1.79 -8.48,3.31 -0.2,0.5 0.05,1.73 1.34,3.66 1.93,2.88 2.48,5.36 1.7,7.6 -1.23,3.53 -5.23,4.82 -9.1,6.06l-0.34 0.11c-0.81,0.26 -1.59,0.5 -2.33,0.74 -3.83,1.19 -7.12,2.22 -7.7,3.54 -0.37,0.87 -0.27,3.07 2.39,8.61l0.38 0.78c1.96,4.04 4.65,9.57 -0.97,14.95 -1.3,1.25 -2.95,2.04 -4.54,2.81 -3.64,1.75 -3.55,1.95 -2.94,3.24 0.66,1.38 1.34,2.36 3.15,4.98l0.82 1.2c6.17,8.93 -1.06,14.01 -5.39,17.05 -5.45,3.83 -7.73,5.75 -4.56,11.15 7.21,12.28 -2.63,18.33 -7.35,21.24l-0.97 0.6c-3.61,2.26 -3.1,4.8 0.4,11.81 1.17,2.34 1.43,4.52 0.76,6.48 -1.14,3.34 -4.52,4.96 -7.78,6.52 -2.6,1.24 -5.29,2.53 -6.55,4.48 -0.56,0.86 -0.83,1.85 -0.83,3.01 0,3.89 0.76,5.83 1.43,7.54 0.24,0.62 0.47,1.21 0.65,1.8 0.21,0.69 0.41,1.3 0.59,1.86 1.86,5.72 1.78,7.77 -3.35,14.8 -0.79,1.07 -1.48,1.75 -2.14,2.4 -0.85,0.83 -1.81,1.78 -3.46,4.06 -2.4,3.33 -2.75,4.37 -0.62,6.95 1.07,1.28 0.89,3.19 -0.4,4.26 -0.56,0.47 -1.25,0.7 -1.93,0.7z"/>
  <path class="fil2" d="M171.93 151.51c2.6,0 4.72,2.12 4.72,4.72 0,2.61 -2.12,4.72 -4.72,4.72 -2.61,0 -4.72,-2.11 -4.72,-4.72 0,-2.6 2.11,-4.72 4.72,-4.72z"/>
  <path class="fil2" d="M237.23 150.83c2.61,0 4.72,2.11 4.72,4.72 0,2.61 -2.11,4.72 -4.72,4.72 -2.6,0 -4.71,-2.11 -4.71,-4.72 0,-2.61 2.11,-4.72 4.71,-4.72z"/>
  <path class="fil1" d="M131.44 142.36c-0.74,0 -1.48,-0.27 -2.06,-0.81 -0.42,-0.39 -0.58,-0.69 -1.18,-1.81 -2.79,-5.23 -4.16,-6.87 -4.76,-7.38 -1.27,-0.1 -2.39,-1.01 -2.7,-2.32 -0.38,-1.63 0.62,-3.26 2.25,-3.64 3.7,-0.89 6.56,3.01 10.55,10.49 0.17,0.31 0.3,0.56 0.39,0.71 0.79,1.14 0.72,2.72 -0.27,3.79 -0.6,0.64 -1.41,0.97 -2.22,0.97z"/>
  <path class="fil1" d="M251.04 105.5c-1.16,0 -2.26,-0.67 -2.77,-1.8 -0.67,-1.53 0.02,-3.32 1.55,-4 4.4,-1.95 5.8,-3.45 7.84,-8.44 0.63,-1.54 2.4,-2.28 3.95,-1.65 1.55,0.63 2.29,2.4 1.65,3.95 -2.61,6.38 -5.18,9.1 -10.99,11.68 -0.4,0.18 -0.82,0.26 -1.23,0.26z"/>
 </g>
</svg>
