<?xml version="1.0" encoding="UTF-8"?>
<!DOCTYPE svg PUBLIC "-//W3C//DTD SVG 1.1//EN" "http://www.w3.org/Graphics/SVG/1.1/DTD/svg11.dtd">
<!-- Creator: CorelDRAW 2018 (64-Bit) -->
<svg xmlns="http://www.w3.org/2000/svg" xml:space="preserve" width="845px" height="845px" version="1.1" style="shape-rendering:geometricPrecision; text-rendering:geometricPrecision; image-rendering:optimizeQuality; fill-rule:evenodd; clip-rule:evenodd"
viewBox="0 0 361.04 361.04"
 xmlns:xlink="http://www.w3.org/1999/xlink">
 <defs>
  <style type="text/css">
   <![CDATA[
    .fil0 {fill:none}
    .fil2 {fill:black}
    .fil1 {fill:black;fill-rule:nonzero}
   ]]>
  </style>
 </defs>
 <g id="Слой_x0020_1">
  <metadata id="CorelCorpID_0Corel-Layer"/>
  <rect class="fil0" width="361.04" height="361.04"/>
 </g>
 <g id="_1">
  <metadata id="CorelCorpID_1Corel-Layer"/>
  <path class="fil1" d="M233.16 171.76c-0.93,0 -1.84,-0.43 -2.44,-1.23 -2.44,-3.31 -6.24,-7.13 -10.42,-6.52 -1,0.15 -2.29,0.47 -3.92,0.88 -2.17,0.53 -4.87,1.2 -8.53,1.89l-18.48 3.83c-1.63,0.34 -3.23,-0.72 -3.57,-2.35 -0.34,-1.64 0.71,-3.24 2.35,-3.58l18.53 -3.84c3.54,-0.67 6.15,-1.31 8.25,-1.83 1.79,-0.45 3.2,-0.8 4.5,-0.99 3.95,-0.58 9.95,0.5 16.16,8.91 1,1.34 0.71,3.24 -0.63,4.23 -0.54,0.4 -1.17,0.6 -1.8,0.6z"/>
  <path class="fil1" d="M152.71 169.84c-0.24,0 -0.49,-0.03 -0.73,-0.09l-12.18 -3.05c-0.06,-0.01 -0.12,-0.03 -0.18,-0.05 -10.05,-3.2 -11.13,-2.92 -19.68,1.07 -1.51,0.7 -3.31,0.05 -4.02,-1.47 -0.71,-1.51 -0.05,-3.32 1.46,-4.02 9.72,-4.53 12.4,-5.05 23.98,-1.38l12.09 3.02c1.62,0.41 2.6,2.05 2.2,3.67 -0.34,1.38 -1.58,2.3 -2.94,2.3z"/>
  <path class="fil1" d="M190.18 194.12c-1.56,0 -2.89,-1.2 -3.02,-2.78 -0.14,-1.67 1.1,-3.13 2.77,-3.27 3.99,-0.32 5.59,-1.2 8.02,-2.53 1.25,-0.68 2.66,-1.46 4.58,-2.28 2.09,-0.89 4.09,-1.51 6.1,-1.91 0.98,-0.19 3.43,-0.63 5.13,-0.63 3.22,0 5.79,0.64 8.05,1.2 1.52,0.38 2.95,0.73 4.53,0.9 1.66,0.19 2.86,1.68 2.68,3.34 -0.18,1.67 -1.68,2.86 -3.34,2.68 -1.98,-0.21 -3.68,-0.63 -5.33,-1.04 -2.11,-0.53 -4.11,-1.02 -6.59,-1.02 -0.64,0 -2.12,0.16 -3.97,0.52 -1.59,0.31 -3.19,0.81 -4.88,1.53 -1.65,0.7 -2.87,1.38 -4.05,2.02 -2.77,1.52 -5.16,2.83 -10.43,3.26 -0.09,0.01 -0.17,0.01 -0.25,0.01z"/>
  <path class="fil1" d="M153.73 193.56c-1.77,0 -3.63,-1.35 -6.83,-3.68 -2.26,-1.65 -5.69,-4.14 -7.33,-4.51 -2.79,-0.65 -6.99,-0.07 -12.48,1.68 -1.68,0.54 -3.33,0.96 -4.92,1.38 -0.72,0.18 -1.44,0.37 -2.18,0.57 -1.61,0.43 -3.28,-0.52 -3.72,-2.13 -0.43,-1.61 0.52,-3.28 2.13,-3.71 0.77,-0.21 1.52,-0.4 2.25,-0.59 1.58,-0.41 3.08,-0.8 4.6,-1.29 6.63,-2.12 11.76,-2.71 15.67,-1.82 2.85,0.66 6.25,3.13 9.55,5.52 1.24,0.91 2.9,2.12 3.65,2.51 1.21,0.1 2.29,0.92 2.66,2.16 0.48,1.6 -0.44,3.29 -2.04,3.76 -0.34,0.1 -0.68,0.15 -1.01,0.15z"/>
  <path class="fil1" d="M118.84 184.64c-0.4,0 -0.81,-0.12 -1.16,-0.37 -0.91,-0.64 -1.13,-1.9 -0.49,-2.81 2.16,-3.06 7.24,-5.14 11.13,-6.35 1.07,-0.32 2.19,0.27 2.52,1.33 0.33,1.07 -0.26,2.2 -1.33,2.53 -4.51,1.4 -7.88,3.2 -9.02,4.81 -0.39,0.56 -1.02,0.86 -1.65,0.86z"/>
  <path class="fil1" d="M226.88 186.85c-0.84,0 -1.61,-0.52 -1.91,-1.35 -0.41,-1.17 -2.48,-5.12 -11.68,-6.83 -1.09,-0.2 -1.82,-1.25 -1.62,-2.35 0.21,-1.1 1.25,-1.82 2.36,-1.62 11.02,2.05 13.98,7.3 14.75,9.46 0.37,1.05 -0.18,2.2 -1.23,2.58 -0.22,0.07 -0.45,0.11 -0.67,0.11z"/>
  <path class="fil1" d="M174.28 237.39c-2.09,0 -4.79,-0.55 -8.79,-3.1 -1.13,-0.72 -2.23,-1.49 -3.11,-2.16 -0.66,-0.46 -5.39,-2.94 -6.66,-3.46 -2,-0.8 -7.33,-2.95 -5.69,-8.19 0.5,-1.6 2.2,-2.48 3.79,-1.98 1.52,0.47 2.4,2.02 2.05,3.55 0.5,0.36 1.6,0.8 2.12,1.01 1.36,0.55 6.97,3.41 8.09,4.27 0.73,0.56 1.7,1.24 2.67,1.86 3.61,2.3 5.16,2.19 6.09,2.12 1.06,-0.08 1.99,-0.71 5.05,-2.88l1.31 -0.92c2.63,-1.85 5.16,-2.98 7.74,-3.44 1.01,-0.18 2.04,-0.65 2.83,-1.28 1.02,-0.83 1.43,-1.72 1.19,-2.66 -0.41,-1.62 0.57,-3.26 2.19,-3.67 1.63,-0.43 3.27,0.57 3.68,2.19 0.83,3.28 -0.36,6.51 -3.26,8.85 -1.57,1.27 -3.55,2.17 -5.56,2.53 -1.72,0.31 -3.41,1.08 -5.33,2.43l-1.29 0.91c-3.54,2.51 -5.31,3.77 -8.1,3.98 -0.32,0.02 -0.66,0.04 -1.01,0.04z"/>
  <path class="fil1" d="M128.97 241.1c-1.68,0 -3.03,-1.35 -3.03,-3.03 0,-2.28 0.51,-3.34 1.23,-4.6 0.15,-0.26 0.32,-0.56 0.51,-0.95 0.88,-1.85 2.1,-2.93 3,-3.71 0.37,-0.33 0.69,-0.61 0.92,-0.89 2.32,-2.73 6.23,-4.78 8.81,-6.13 1.48,-0.78 3.31,-0.21 4.09,1.28 0.78,1.48 0.2,3.31 -1.28,4.08 -2.17,1.14 -5.44,2.86 -7,4.69 -0.52,0.62 -1.06,1.09 -1.54,1.51 -0.69,0.61 -1.19,1.04 -1.53,1.77 -0.27,0.56 -0.51,0.99 -0.73,1.36 -0.4,0.71 -0.43,0.75 -0.43,1.59 0,1.68 -1.35,3.03 -3.02,3.03z"/>
  <path class="fil1" d="M220.18 244.77c-0.65,0 -1.31,-0.21 -1.86,-0.63 -1.32,-1.03 -1.56,-2.94 -0.53,-4.25 0.46,-0.6 0.63,-0.82 -0.04,-2.74 -0.62,-1.8 -0.75,-1.91 -1.77,-2.77 -0.53,-0.45 -1.19,-1 -2.03,-1.83 -0.95,-0.87 -8.84,-6.21 -10.56,-7.09 -1.13,-0.33 -2.01,-1.31 -2.16,-2.55 -0.2,-1.66 0.99,-3.17 2.65,-3.37 0.04,0 0.1,0 0.15,0 2.97,0 14.09,8.61 14.18,8.7 0.69,0.69 1.23,1.14 1.67,1.51 1.68,1.41 2.54,2.35 3.6,5.41 0.84,2.43 1.54,5.29 -0.91,8.44 -0.6,0.77 -1.49,1.17 -2.39,1.17z"/>
  <path class="fil1" d="M104.96 218.25c-0.19,0 -0.4,-0.02 -0.6,-0.06 -5.72,-1.16 -7.34,-5.07 -8.52,-7.92 -0.33,-0.82 -0.65,-1.59 -1.03,-2.21 -6.91,-11.35 -6.95,-13.37 -5.98,-20.1 0.29,-2.01 0.65,-4.52 0.82,-8.15 0.04,-0.69 -0.23,-3.55 -0.44,-5.65 -0.09,-0.98 -0.19,-2 -0.27,-2.96 -0.24,-2.72 -0.65,-7.27 2.49,-9.13 2.98,-1.77 6.41,0.53 7.53,1.29 2.38,1.59 3.74,4.12 3.74,6.95 0,1.68 -1.35,3.03 -3.03,3.03l0 0c-1.67,0 -3.02,-1.36 -3.02,-3.03 0,-0.3 0,-1.22 -1.06,-1.92 -0.29,-0.2 -0.53,-0.35 -0.75,-0.47 -0.01,0.59 0.02,1.47 0.13,2.74 0.09,0.95 0.18,1.95 0.27,2.93 0.32,3.34 0.52,5.45 0.47,6.52 -0.2,3.91 -0.58,6.57 -0.89,8.71 -0.76,5.35 -0.88,6.17 5.16,16.09 0.62,1.02 1.05,2.05 1.46,3.05 1.08,2.62 1.66,3.8 4.12,4.29 1.64,0.33 2.7,1.93 2.37,3.57 -0.29,1.44 -1.56,2.43 -2.97,2.43z"/>
  <path class="fil1" d="M103.15 203.26c0.01,0.02 0.02,0.05 0.03,0.09 -0.01,-0.03 -0.02,-0.06 -0.03,-0.09zm2.97 2.41c-1.36,0 -2.58,-0.91 -2.93,-2.26 -0.14,-0.32 -0.69,-1.33 -2.94,-4.37l-0.19 -0.25c-2.78,-3.78 -3.11,-12.86 -2.23,-16.34 0.15,-0.6 0.61,-2.43 2.33,-3.24 1.51,-0.71 3.32,-0.06 4.03,1.45 0.54,1.15 0.29,2.47 -0.52,3.35 -0.57,2.11 -0.11,9.33 1.26,11.18l0.19 0.25c2.67,3.6 3.7,5.33 3.97,6.59 0.33,1.64 -0.72,3.24 -2.36,3.58 -0.2,0.04 -0.41,0.06 -0.61,0.06z"/>
  <path class="fil1" d="M250.15 218c-1.26,0 -2.73,-0.47 -4.49,-1.78 -1.35,-1 -1.62,-2.9 -0.62,-4.24 1,-1.35 2.9,-1.62 4.24,-0.62 0.43,0.32 0.7,0.47 0.85,0.54 0.14,-0.08 0.34,-0.2 0.5,-0.29 0.62,-0.39 1.49,-0.91 2.65,-1.25 2.57,-0.77 3.6,-2.49 5.35,-5.73 0.96,-1.79 2.06,-3.82 3.69,-5.79 2.43,-2.92 2.02,-12.53 1.78,-18.26 -0.07,-1.78 -0.14,-3.38 -0.14,-4.66 0,-2.37 0.66,-5.06 1.23,-7.43l0.34 -1.42c0.3,-1.31 0.33,-2.11 0.29,-2.56 -0.66,0.26 -1.75,0.95 -2.53,2.1 -0.35,0.51 -0.68,1.05 -1,1.58 -0.72,1.2 -1.47,2.44 -2.47,3.48 -1.16,1.2 -3.08,1.23 -4.28,0.07 -1.2,-1.17 -1.23,-3.09 -0.07,-4.29 0.52,-0.53 1.06,-1.43 1.63,-2.38 0.38,-0.63 0.77,-1.27 1.18,-1.87 2.29,-3.37 6.75,-5.93 10.27,-4.39 1.73,0.76 4.41,3.02 2.88,9.63l-0.35 1.47c-0.5,2.05 -1.06,4.36 -1.06,6.01 0,1.21 0.06,2.72 0.13,4.4 0.41,9.67 0.45,18.02 -3.16,22.38 -1.26,1.51 -2.16,3.19 -3.03,4.8 -1.81,3.35 -3.86,7.15 -8.96,8.66 -0.41,0.12 -0.77,0.34 -1.23,0.62 -1.04,0.63 -2.2,1.22 -3.62,1.22z"/>
  <path class="fil1" d="M256.31 204.47c-0.77,0 -1.54,-0.3 -2.13,-0.88 -1.19,-1.18 -1.2,-3.09 -0.02,-4.28 1.89,-1.91 1.85,-6.57 1.82,-10.31 -0.04,-4.08 -0.07,-7.6 1.93,-9.8 1.13,-1.23 3.05,-1.32 4.28,-0.19 1.22,1.11 1.32,3 0.23,4.23 -0.43,0.77 -0.41,3.73 -0.39,5.7 0.04,4.87 0.1,10.93 -3.57,14.63 -0.59,0.6 -1.37,0.9 -2.15,0.9z"/>
  <g>
   <path class="fil1" d="M258.36 162.19c0,0 0,0 0,0 0,0 0,0 0,0zm-0.19 0.49l0 0 0 0zm2.89 3.91c-0.46,0 -0.93,-0.11 -1.37,-0.33 -1.35,-0.69 -1.97,-2.25 -1.5,-3.65 0.28,-1.32 1.1,-8.4 1.1,-9.53 0,-15.68 -4.79,-34.37 -12.51,-48.77 -5.02,-9.37 -10.91,-18.7 -27.63,-29.8 -1.38,-0.92 -2.81,-1.66 -4.35,-2.28 -1.55,-0.61 -2.31,-2.37 -1.69,-3.93 0.61,-1.55 2.37,-2.31 3.93,-1.69 1.94,0.76 3.72,1.7 5.46,2.85 17.88,11.87 24.44,22.31 29.62,31.99 8.16,15.23 13.23,35.01 13.23,51.63 0,0.43 -0.83,10.35 -1.59,11.85 -0.53,1.05 -1.6,1.66 -2.7,1.66z"/>
  </g>
  <path class="fil1" d="M97.59 166.91c-0.09,0 -0.18,0 -0.27,-0.01 -1.67,-0.15 -2.9,-1.62 -2.75,-3.28 4.23,-47.5 17.02,-78.9 35.1,-86.16 1.56,-0.63 3.32,0.13 3.94,1.68 0.62,1.55 -0.13,3.32 -1.68,3.94 -15.43,6.19 -27.43,37.26 -31.33,81.07 -0.14,1.58 -1.46,2.76 -3.01,2.76z"/>
  <path class="fil1" d="M104.93 170.8c-1.67,0 -3.03,-1.36 -3.03,-3.03 0,-4.68 3.74,-28.64 5.92,-34.95 0.55,-1.59 2.28,-2.42 3.86,-1.88 1.58,0.55 2.41,2.28 1.87,3.85 -1.96,5.68 -5.59,28.9 -5.59,32.98 0,1.67 -1.36,3.03 -3.03,3.03z"/>
  <path class="fil1" d="M119.18 132.26c-0.04,0 -0.09,-0.01 -0.14,-0.01 -1.67,-0.07 -2.96,-1.49 -2.88,-3.16 0.42,-9.31 2.43,-16.07 4.37,-22.61 1.14,-3.85 2.22,-7.49 2.95,-11.56 0.3,-1.65 1.86,-2.74 3.52,-2.44 1.64,0.29 2.74,1.87 2.44,3.51 -0.79,4.4 -1.97,8.37 -3.11,12.21 -1.83,6.2 -3.73,12.6 -4.12,21.17 -0.08,1.62 -1.42,2.89 -3.03,2.89z"/>
  <path class="fil1" d="M132.3 123.18c-1.67,0 -3.03,-1.35 -3.03,-3.02l0 -1.45c0,-4.64 2.23,-27.05 5.58,-31.7 0.98,-1.36 2.87,-1.66 4.23,-0.69 1.36,0.98 1.66,2.87 0.69,4.23 -1.77,2.56 -4.44,21.86 -4.44,28.16l0 1.45c0,1.67 -1.36,3.02 -3.03,3.02z"/>
  <path class="fil1" d="M146.49 117.34c-1.47,0 -2.76,-1.07 -2.99,-2.56 -2.29,-14.79 -0.83,-19.52 2.36,-29.89 0.48,-1.55 1,-3.25 1.56,-5.15 0.48,-1.6 2.17,-2.52 3.77,-2.04 1.6,0.47 2.52,2.16 2.04,3.76 -0.57,1.92 -1.1,3.64 -1.58,5.22 -3.09,10.01 -4.24,13.76 -2.17,27.17 0.26,1.65 -0.88,3.2 -2.53,3.46 -0.15,0.02 -0.31,0.03 -0.46,0.03z"/>
  <path class="fil1" d="M159.34 115.01c-1.67,0 -3.03,-1.36 -3.03,-3.03l0 -2.32c0,-2.89 0.37,-7.31 0.8,-12.43 0.65,-7.8 1.55,-18.49 0.65,-21.64 -0.45,-1.61 0.48,-3.28 2.09,-3.74 1.6,-0.45 3.28,0.47 3.74,2.08 1.11,3.91 0.52,12.33 -0.44,23.81 -0.4,4.77 -0.78,9.28 -0.78,11.92l0 2.32c0,1.67 -1.36,3.03 -3.03,3.03z"/>
  <path class="fil1" d="M176.53 111.84c-1.67,0 -3.03,-1.36 -3.03,-3.03l-0.01 -3.35c-0.01,-2.26 -0.02,-4.53 0.01,-6.78 0.05,-3.61 -0.95,-9.24 -1.83,-14.22 -0.86,-4.83 -1.59,-9.01 -1.5,-11.64 0.05,-1.67 1.44,-2.91 3.13,-2.92 1.67,0.06 2.98,1.46 2.92,3.13 -0.07,1.99 0.68,6.26 1.41,10.38 0.98,5.49 1.98,11.16 1.93,15.35 -0.03,2.21 -0.02,4.45 -0.01,6.68l0.01 3.37c0,1.67 -1.36,3.03 -3.03,3.03z"/>
  <path class="fil1" d="M195.33 118.3c-1.15,0 -2.23,-0.65 -2.72,-1.77 -0.43,-0.99 -0.86,-3.06 -1.66,-7.31 -0.19,-1.01 -0.36,-1.87 -0.46,-2.36 -0.53,-2.42 -1.23,-6.48 -2.03,-11.18 -1.61,-9.43 -3.81,-22.33 -5.52,-26.21 -0.68,-1.53 0.02,-3.32 1.55,-3.99 1.53,-0.67 3.32,0.02 3.99,1.55 1.86,4.22 3.72,14.56 5.95,27.63 0.79,4.63 1.47,8.62 1.97,10.9 0.12,0.52 0.3,1.45 0.5,2.53 0.32,1.72 1,5.31 1.28,6.05 0.58,1.54 -0.15,3.31 -1.67,3.93 -0.39,0.16 -0.79,0.23 -1.18,0.23z"/>
  <path class="fil1" d="M214.08 119.35c-1.56,0 -2.89,-1.2 -3.01,-2.79 -0.74,-9.06 -9.04,-39.08 -14.4,-44.93 -1.13,-1.23 -1.06,-3.14 0.18,-4.27 1.23,-1.14 3.14,-1.06 4.27,0.18 7.12,7.74 15.32,40.41 15.98,48.53 0.14,1.67 -1.1,3.13 -2.77,3.27 -0.08,0 -0.17,0.01 -0.25,0.01z"/>
  <path class="fil1" d="M232.28 137.2c-1.19,0 -2.32,-0.7 -2.8,-1.87 -2.12,-5.14 -2.59,-11.51 -3.08,-18.25 -0.92,-12.49 -1.96,-26.65 -13.68,-37.24 -1.24,-1.12 -1.34,-3.03 -0.21,-4.27 1.12,-1.24 3.03,-1.34 4.27,-0.22 13.52,12.22 14.7,28.34 15.66,41.29 0.45,6.24 0.89,12.14 2.63,16.38 0.64,1.55 -0.09,3.32 -1.64,3.96 -0.38,0.15 -0.77,0.22 -1.15,0.22z"/>
  <path class="fil1" d="M248.3 156.9c-0.28,0 -0.57,-0.04 -0.85,-0.12 -1.61,-0.47 -2.53,-2.16 -2.06,-3.76 2.8,-9.54 -6.49,-48.87 -11.87,-54.88 -1.11,-1.24 -1,-3.16 0.24,-4.27 1.25,-1.12 3.16,-1.01 4.28,0.24 6.77,7.56 16.65,48.72 13.16,60.61 -0.38,1.32 -1.59,2.18 -2.9,2.18z"/>
  <path class="fil1" d="M226.14 62.13c-1.07,0 -2.32,-0.09 -3.8,-0.21 -0.97,-0.08 -1.89,-0.16 -2.56,-0.16 -3.45,0 -6.88,-0.04 -10.3,-0.08 -3.41,-0.04 -6.82,-0.08 -10.25,-0.08 -1.68,0 -3.03,-1.36 -3.03,-3.03 0,-1.67 1.35,-3.03 3.03,-3.03 3.46,0 6.89,0.04 10.32,0.08 3.4,0.04 6.81,0.09 10.23,0.09 0.85,0 1.92,0.08 3.05,0.17 0.67,0.05 1.66,0.13 2.53,0.17 -0.09,-1.84 -0.29,-2.74 -0.53,-3.81 -0.08,-0.38 -0.17,-0.78 -0.26,-1.24 -3.66,0.74 -8.55,0.91 -13.96,1.11 -6.9,0.25 -14.71,0.54 -18.99,2.15l-1.32 0.5c-4.62,1.74 -4.62,1.74 -7.66,4.39l-0.62 0.54c-1.26,1.09 -3.17,0.96 -4.27,-0.31 -1.1,-1.26 -0.96,-3.17 0.3,-4.27l0.61 -0.53c3.72,-3.24 4.07,-3.44 9.51,-5.49l1.31 -0.49c5.21,-1.97 13.19,-2.26 20.91,-2.54 6.07,-0.22 12.96,-0.47 15.31,-1.7 0.9,-0.46 1.98,-0.45 2.86,0.04 0.89,0.49 1.48,1.4 1.56,2.41 0.16,2.05 0.39,3.05 0.62,4.12 0.37,1.66 0.72,3.22 0.72,7.47 0,0.97 -0.39,1.87 -1.11,2.54 -0.99,0.91 -2.32,1.19 -4.21,1.19z"/>
  <path class="fil1" d="M116.11 63.43c-1.56,0 -2.89,-1.2 -3.02,-2.78 -0.13,-1.67 1.11,-3.13 2.78,-3.26 8.3,-0.68 15.12,-1.54 20.98,-5.84 2.26,-1.65 8.24,-5.72 15.13,-7.86 6.87,-2.14 12.51,-1.71 16.78,1.29 1.41,0.99 2.35,2.16 3.18,3.2 1.33,1.66 2.49,3.11 5.82,4.35 1.56,0.59 2.36,2.33 1.77,3.9 -0.59,1.56 -2.33,2.36 -3.89,1.77 -4.9,-1.83 -6.94,-4.37 -8.43,-6.24 -0.69,-0.85 -1.23,-1.53 -1.93,-2.03 -2.65,-1.85 -6.52,-2.01 -11.5,-0.46 -6.19,1.92 -11.78,5.82 -13.35,6.97 -7.7,5.65 -16.78,6.39 -24.07,6.98 -0.09,0.01 -0.17,0.01 -0.25,0.01z"/>
  <path class="fil1" d="M157.58 62.04c0.01,0 0.03,0.01 0.04,0.02 -0.01,-0.01 -0.03,-0.02 -0.04,-0.02zm1.76 0.56c-0.58,0 -1.17,-0.17 -1.68,-0.51 -2.63,-1.24 -17.86,-0.97 -22.88,-0.88 -1.54,0.03 -2.81,0.05 -3.65,0.05 -1.67,0 -3.03,-1.35 -3.03,-3.03 0,-1.67 1.36,-3.03 3.03,-3.03 0.81,0 2.04,-0.02 3.55,-0.04 17.49,-0.31 23.91,0.16 26.41,1.94 1.37,0.97 1.69,2.86 0.72,4.23 -0.6,0.82 -1.53,1.27 -2.47,1.27z"/>
  <path class="fil1" d="M115.44 76.12c-1.67,0 -3.02,-1.36 -3.02,-3.03 0,-1.68 1.35,-3.03 3.02,-3.03 2.76,0 5.14,-1.56 7.9,-3.36 1.81,-1.19 3.69,-2.42 5.84,-3.28 2.27,-0.92 4.76,-1.64 7.38,-2.15 1.63,-0.31 3.24,0.75 3.55,2.4 0.32,1.64 -0.75,3.23 -2.39,3.54 -2.25,0.44 -4.36,1.05 -6.29,1.82 -1.58,0.64 -3.13,1.66 -4.77,2.73 -3.12,2.04 -6.65,4.36 -11.22,4.36z"/>
  <path class="fil1" d="M219.43 39.45c0.02,0.01 0.05,0.01 0.07,0.02 -0.02,-0.01 -0.05,-0.01 -0.07,-0.02zm-35.56 11.97c-1.35,0 -2.58,-0.91 -2.93,-2.28 -0.42,-1.62 0.56,-3.27 2.18,-3.68 1.47,-0.39 3.01,-0.94 4.45,-1.62 3.23,-1.53 4.83,-2.69 6.24,-3.72 3.16,-2.3 5.39,-3.69 14.48,-5.37 3.05,-0.56 10.42,-1.8 12.79,-1.12 1.61,0.45 2.55,2.13 2.09,3.73 -0.44,1.57 -2.04,2.5 -3.62,2.12 -0.8,-0.07 -4.52,0.19 -10.16,1.23 -8.18,1.51 -9.62,2.56 -12.02,4.31 -1.55,1.12 -3.47,2.53 -7.22,4.29 -1.8,0.85 -3.66,1.53 -5.52,2.01 -0.25,0.06 -0.51,0.1 -0.76,0.1z"/>
  <path class="fil1" d="M112.61 51.47c-0.07,0 -0.14,-0.01 -0.21,-0.01 -1.67,-0.11 -2.92,-1.62 -2.81,-3.29 0.26,-4.03 4.79,-7.23 13.84,-9.79 6.51,-1.84 10.33,-1.71 14.37,-1.59 2.32,0.08 4.72,0.16 7.93,-0.12 1.69,-0.16 3.13,1.09 3.28,2.76 0.14,1.67 -1.1,3.13 -2.76,3.28 -3.57,0.3 -6.26,0.21 -8.64,0.14 -3.88,-0.13 -6.93,-0.23 -12.53,1.36 -7.02,1.98 -9.25,3.96 -9.47,4.49 -0.11,1.6 -1.42,2.77 -3,2.77z"/>
  <path class="fil1" d="M175.36 47.41c-0.93,0 -1.85,-0.43 -2.44,-1.24 -2.78,-3.79 -3.91,-4.53 -6.64,-6.31 -0.57,-0.38 -1.2,-0.8 -1.91,-1.28 -2.85,-1.94 -3.28,-2.11 -4.21,-2.49 -0.66,-0.26 -1.56,-0.63 -3.24,-1.49 -2.46,-1.25 -11.64,-3.11 -14.52,-3.23 -11.23,-0.48 -26.15,1.08 -31.14,7.1 -1.06,1.28 -2.97,1.46 -4.26,0.4 -1.29,-1.07 -1.47,-2.98 -0.4,-4.27 7.83,-9.45 27.84,-9.64 36.06,-9.28 3.29,0.14 13.44,2.07 17.01,3.89 1.45,0.74 2.18,1.03 2.77,1.27 1.35,0.55 2.09,0.89 5.33,3.09 0.68,0.46 1.28,0.86 1.83,1.22 2.98,1.95 4.77,3.13 8.2,7.8 0.99,1.35 0.7,3.24 -0.65,4.23 -0.54,0.4 -1.17,0.59 -1.79,0.59z"/>
  <path class="fil1" d="M232.44 42.9c-1.63,0 -2.97,-1.29 -3.03,-2.93 -0.18,-5.46 -6.81,-10.25 -12.17,-10.58 -1.14,-0.07 -2.06,-0.27 -2.96,-0.46 -1.27,-0.27 -2.58,-0.55 -4.92,-0.55 -6.38,0 -22.14,4.37 -23.17,10.34 -0.29,1.64 -1.85,2.77 -3.5,2.47 -1.65,-0.29 -2.75,-1.85 -2.47,-3.5 1.83,-10.64 21.84,-15.37 29.14,-15.37 2.97,0 4.75,0.38 6.18,0.69 0.77,0.16 1.38,0.29 2.06,0.34 8.21,0.49 17.56,7.36 17.87,16.42 0.05,1.68 -1.26,3.07 -2.93,3.13 -0.04,0 -0.07,0 -0.1,0z"/>
  <path class="fil1" d="M171.02 31.05c-0.88,0 -1.75,-0.38 -2.34,-1.11 -1.06,-1.3 -0.87,-3.2 0.43,-4.26 6.66,-5.44 13.17,-8.28 21.11,-9.21 6.78,-0.79 13.33,0.58 17.67,1.49 1.61,0.34 3.47,0.71 4.06,0.7 1.69,-0.09 3.08,1.23 3.15,2.89 0.07,1.68 -1.23,3.09 -2.9,3.16 -1.39,0.05 -3.13,-0.31 -5.56,-0.82 -4.18,-0.88 -9.92,-2.09 -15.72,-1.4 -6.72,0.78 -12.26,3.21 -17.99,7.88 -0.56,0.46 -1.24,0.68 -1.91,0.68z"/>
  <path class="fil1" d="M172.52 36.56c-0.51,0 -1.02,-0.13 -1.5,-0.4 -0.54,-0.31 -4.84,-3.97 -4.87,-4.01 -9.46,-8.38 -21.29,-12.11 -38.36,-12.11 -1.67,0 -3.03,-1.36 -3.03,-3.03 0,-1.67 1.36,-3.03 3.03,-3.03 18.65,0 31.72,4.21 42.38,13.64 0.32,0.28 3.68,3.1 4.16,3.48 1.21,0.9 1.59,2.58 0.82,3.93 -0.55,0.98 -1.58,1.53 -2.63,1.53z"/>
  <path class="fil1" d="M175.46 250.25c-1.56,0 -2.99,-1.01 -4.47,-2.05 -0.61,-0.44 -1.35,-0.81 -2.19,-1.1 -3.46,-1.21 -8.19,-1.08 -12.37,-0.95 -1.27,0.04 -2.5,0.08 -3.65,0.08 -0.93,0 -2.3,-0.13 -3.51,-0.23 -0.58,-0.06 -1.07,-0.1 -1.3,-0.11 -2.4,0.09 -4.22,-0.13 -5.83,-0.32 -1.31,-0.15 -2.45,-0.29 -3.87,-0.26 -0.01,0 -0.03,0 -0.05,0 -1.65,0 -3,-1.33 -3.02,-2.98 -0.03,-1.67 1.3,-3.05 2.97,-3.08 1.83,-0.04 3.27,0.14 4.68,0.31 1.53,0.18 2.98,0.35 5,0.28 0.36,-0.01 0.83,0.03 1.96,0.12 0.98,0.09 2.31,0.21 2.97,0.21 1.09,0 2.26,-0.04 3.47,-0.07 4.71,-0.14 10.04,-0.3 14.55,1.29 1.37,0.47 2.61,1.1 3.68,1.86 0.29,0.2 0.53,0.36 0.73,0.5 0.83,-0.68 2.15,-1.58 4.36,-2.39 3.66,-1.35 9.26,-1.36 13.75,-1.35 0.91,0 1.76,0 2.52,-0.01 1.92,-0.03 4.14,-0.09 6.02,-0.31 4.01,-0.47 7.56,-1.17 9.02,-1.78 1.55,-0.65 3.32,0.08 3.97,1.62 0.64,1.54 -0.08,3.32 -1.62,3.96 -2.9,1.22 -8.43,1.95 -10.67,2.21 -2.15,0.26 -4.55,0.32 -6.63,0.36 -0.78,0.01 -1.66,0.01 -2.62,0.01 -3.78,0 -9,-0.01 -11.65,0.97 -1.85,0.68 -2.53,1.3 -3.08,1.8 -1.12,1.02 -2.15,1.41 -3.12,1.41z"/>
  <path class="fil1" d="M174.85 264.44c-3.52,0 -7.89,-0.3 -12.36,-1.34 -7.65,-1.79 -9.92,-3.71 -13.27,-6.97 -1.06,-1.03 -2.26,-2.2 -3.95,-3.55 -1.31,-1.05 -1.51,-2.96 -0.47,-4.26 1.05,-1.3 2.95,-1.51 4.26,-0.46 1.91,1.53 3.28,2.86 4.39,3.93 2.68,2.61 4.03,3.92 10.42,5.41 6.21,1.45 13.07,1.37 17.4,0.8 7.42,-0.96 9.98,-2.86 14.21,-6.01 1.38,-1.03 2.94,-2.19 4.85,-3.45 1.4,-0.91 3.27,-0.53 4.19,0.87 0.92,1.4 0.53,3.27 -0.87,4.19 -1.75,1.16 -3.18,2.22 -4.56,3.25 -4.49,3.34 -8.05,5.99 -17.03,7.16 -1.16,0.15 -3.79,0.43 -7.21,0.43z"/>
  <path class="fil1" d="M176.3 296.84c-8.6,0 -15.76,-1.46 -21.35,-4.38 -8.07,-4.2 -15.13,-11.04 -24.9,-20.5 -1.35,-1.31 -2.75,-2.66 -4.21,-4.07 -7.17,-6.9 -15.69,-17.65 -18.53,-26.1 -5.15,-15.27 -4.86,-33.56 -4.6,-49.7 0.05,-3.29 0.11,-6.47 0.11,-9.48 0,-4.45 -0.35,-6.7 -0.71,-9.09 -0.23,-1.53 -0.47,-3.12 -0.62,-5.26 -0.12,-1.67 1.14,-3.12 2.81,-3.23 1.63,-0.13 3.11,1.14 3.23,2.81 0.13,1.9 0.34,3.29 0.57,4.77 0.38,2.5 0.77,5.09 0.77,10 0,3.05 -0.05,6.26 -0.1,9.58 -0.26,15.65 -0.54,33.38 4.27,47.67 2.15,6.37 9.14,16.11 17,23.67 1.47,1.41 2.87,2.77 4.22,4.08 9.41,9.11 16.2,15.69 23.48,19.48 6.35,3.3 15.34,4.4 26.73,3.27 15.07,-1.5 26.68,-12.82 37.9,-23.76l0.73 -0.71c7,-6.82 12.36,-13.46 14.01,-17.33 5.61,-13.14 6.7,-27.68 8.01,-50.31 0.27,-4.63 0.36,-9.49 0.45,-14.19 0.12,-6.31 0.24,-12.83 0.79,-18.9 0.15,-1.66 1.62,-2.89 3.29,-2.74 1.67,0.15 2.89,1.63 2.74,3.29 -0.53,5.85 -0.65,12.26 -0.76,18.46 -0.09,4.76 -0.18,9.68 -0.46,14.43 -1.17,20.15 -2.19,37.55 -8.49,52.34 -2.92,6.85 -12.49,16.49 -15.35,19.29l-0.73 0.7c-11.41,11.13 -24.35,23.74 -41.53,25.45 -3.07,0.31 -5.99,0.46 -8.77,0.46z"/>
  <path class="fil1" d="M123.03 291.59c-1.67,0 -3.03,-1.29 -3.03,-2.96l0 -0.31 0 0c-1.09,-4.67 -0.69,-20.68 1.46,-25.71 0.65,-1.54 2.42,-2.26 3.97,-1.6 1.54,0.66 2.25,2.44 1.59,3.98 -1.46,3.43 -2.02,18.5 -1.11,21.99 0.17,0.65 0.16,1.19 0.15,1.51 0,1.67 -1.36,3.1 -3.03,3.1z"/>
  <path class="fil1" d="M235.49 287.56c-1.67,0 -3.03,-1.35 -3.03,-3.03 0,-0.79 0.02,-1.95 0.04,-3.36 0.09,-5.58 0.25,-15.97 -0.57,-21.23 -0.25,-1.66 0.88,-3.2 2.53,-3.46 1.66,-0.25 3.2,0.88 3.46,2.53 0.89,5.77 0.73,16.09 0.64,22.25 -0.02,1.37 -0.04,2.5 -0.04,3.27 0,1.68 -1.36,3.03 -3.03,3.03z"/>
  <path class="fil1" d="M92.15 304.01c-1.5,0 -2.81,-1.12 -3,-2.64 -0.22,-1.66 0.96,-3.18 2.62,-3.39 4,-0.51 8.88,-5.89 14.53,-15.99 1.15,-2.06 2.1,-3.75 2.9,-5.02 0.42,-0.68 0.88,-1.47 1.36,-2.3 2.88,-4.97 6.81,-11.75 12.95,-11.75 0.05,0 0.1,0 0.16,0 1.67,0.03 3,1.42 2.97,3.08 -0.03,1.66 -1.38,2.98 -3.03,2.98 -0.03,0 -0.06,0 -0.09,0 -2.66,0 -5.82,5.46 -7.72,8.73 -0.52,0.9 -1.01,1.74 -1.47,2.47 -0.73,1.16 -1.64,2.77 -2.75,4.76 -4.29,7.68 -10.93,18 -19.04,19.04 -0.13,0.02 -0.26,0.03 -0.39,0.03z"/>
  <path class="fil1" d="M173.94 351.58c-1.07,0 -2.11,-0.57 -2.66,-1.57l-0.17 -0.31c-1.37,-1.67 -2.9,-3.71 -4.52,-5.87 -4.48,-5.98 -10.06,-13.42 -14.48,-16 -5.15,-3 -14.06,-11.44 -19.87,-18.82 -0.43,-0.55 -0.95,-1.19 -1.51,-1.9 -4.57,-5.69 -8.78,-11.11 -10.07,-14.92 -0.54,-1.59 0.32,-3.31 1.9,-3.84 1.6,-0.53 3.3,0.32 3.84,1.9 1.05,3.11 6.25,9.59 9.04,13.07 0.59,0.72 1.12,1.38 1.56,1.95 5.87,7.46 14.13,14.98 18.16,17.33 5.48,3.2 11.22,10.85 16.28,17.6 1.64,2.19 3.2,4.27 4.52,5.87 0.12,0.14 0.23,0.3 0.31,0.46l0.31 0.55c0.81,1.46 0.28,3.31 -1.18,4.12 -0.47,0.25 -0.97,0.38 -1.46,0.38z"/>
  <path class="fil1" d="M188.45 349.74c-1.61,0 -2.95,-1.27 -3.02,-2.9 -0.11,-2.49 -0.35,-4.82 -0.61,-7.29 -0.36,-3.44 -0.73,-7 -0.73,-11.17 0,-0.59 -0.05,-1.68 -0.11,-3.11 -0.91,-20.79 0.29,-27.89 4.92,-29.24 2.88,-0.84 7.31,-1.23 12.43,-1.68 2.79,-0.24 5.67,-0.49 8.43,-0.83 8.96,-1.11 26.66,-8.45 27.57,-16.64 0.27,-2.42 0.27,-2.42 -0.11,-3.89 -0.13,-0.48 -0.29,-1.07 -0.47,-1.84 -0.4,-1.62 0.6,-3.26 2.23,-3.65 1.62,-0.41 3.26,0.6 3.65,2.22 0.18,0.72 0.32,1.28 0.44,1.72 0.63,2.37 0.65,2.83 0.28,6.1 -1.52,13.71 -24.95,21.01 -32.85,21.99 -2.86,0.35 -5.8,0.61 -8.64,0.86 -4.33,0.37 -8.43,0.73 -10.83,1.33 -0.89,1.54 -1.71,6.93 -1,23.29 0.07,1.55 0.11,2.73 0.11,3.37 0,3.86 0.36,7.25 0.7,10.54 0.26,2.45 0.52,4.98 0.64,7.67 0.07,1.66 -1.23,3.08 -2.9,3.15 -0.04,0 -0.09,0 -0.13,0z"/>
  <path class="fil1" d="M224.67 349.24c-0.38,0 -0.77,-0.07 -1.14,-0.23 -1.55,-0.63 -2.3,-2.39 -1.66,-3.94 2.62,-6.47 6.15,-11.02 9.56,-15.43 5.36,-6.91 10.42,-13.44 12.88,-27.61 1.48,-8.51 2.37,-17.03 2.37,-20.34 0,-3.51 -0.2,-4.19 -0.42,-4.98 -0.18,-0.63 -0.4,-1.42 -0.58,-2.89 -0.53,-4.46 -5.41,-10.71 -8.42,-10.8 -1.67,-0.05 -2.98,-1.45 -2.93,-3.12 0.05,-1.67 1.44,-2.9 3.11,-2.93 7.06,0.2 13.51,9.93 14.26,16.13 0.11,1 0.24,1.44 0.39,1.96 0.38,1.37 0.64,2.58 0.64,6.63 0,4.14 -1.05,13.33 -2.45,21.38 -2.73,15.66 -8.49,23.09 -14.06,30.28 -3.31,4.27 -6.43,8.3 -8.75,14 -0.47,1.18 -1.61,1.89 -2.8,1.89z"/>
  <path class="fil1" d="M252.58 283.81c0,0.01 0,0.01 0,0.01 0,0 0,0 0,-0.01zm18.48 36.55c-0.37,0 -0.75,-0.07 -1.12,-0.21 -2.61,-1.05 -4.65,-3.06 -6.45,-4.83 -0.48,-0.48 -0.95,-0.94 -1.42,-1.38 -2.7,-2.48 -17.11,-25.6 -15.3,-31.81 0.46,-1.61 2.15,-2.54 3.75,-2.06 1.56,0.45 2.48,2.05 2.1,3.61 -0.13,3.98 10.75,23.24 13.54,25.8 0.52,0.48 1.05,1 1.59,1.53 1.46,1.43 2.97,2.92 4.45,3.51 1.55,0.63 2.3,2.39 1.68,3.94 -0.48,1.18 -1.61,1.9 -2.82,1.9z"/>
  <path class="fil2" d="M138.62 181.6c2.93,0 5.3,2.37 5.3,5.3 0,2.93 -2.37,5.3 -5.3,5.3 -2.93,0 -5.3,-2.37 -5.3,-5.3 0,-2.93 2.37,-5.3 5.3,-5.3z"/>
  <path class="fil2" d="M209.72 183.27c2.93,0 5.3,2.37 5.3,5.3 0,2.93 -2.37,5.3 -5.3,5.3 -2.93,0 -5.3,-2.37 -5.3,-5.3 0,-2.93 2.37,-5.3 5.3,-5.3z"/>
  <path class="fil1" d="M162.23 211.52c-0.22,0 -0.45,-0.04 -0.67,-0.12 -1.05,-0.36 -1.6,-1.52 -1.23,-2.57 3.56,-10.14 3,-17.16 0.72,-26.55 -0.26,-1.09 0.4,-2.18 1.49,-2.44 1.07,-0.28 2.17,0.4 2.43,1.48 2.41,9.92 3.04,17.81 -0.84,28.85 -0.29,0.83 -1.07,1.35 -1.9,1.35z"/>
 </g>
</svg>
