<?xml version="1.0" encoding="UTF-8"?>
<!DOCTYPE svg PUBLIC "-//W3C//DTD SVG 1.1//EN" "http://www.w3.org/Graphics/SVG/1.1/DTD/svg11.dtd">
<!-- Creator: CorelDRAW 2018 (64-Bit) -->
<svg xmlns="http://www.w3.org/2000/svg" xml:space="preserve" width="845px" height="845px" version="1.1" style="shape-rendering:geometricPrecision; text-rendering:geometricPrecision; image-rendering:optimizeQuality; fill-rule:evenodd; clip-rule:evenodd"
viewBox="0 0 361.04 361.04"
 xmlns:xlink="http://www.w3.org/1999/xlink">
 <defs>
  <style type="text/css">
   <![CDATA[
    .fil0 {fill:none}
    .fil2 {fill:black}
    .fil1 {fill:black;fill-rule:nonzero}
   ]]>
  </style>
 </defs>
 <g id="Слой_x0020_1">
  <metadata id="CorelCorpID_0Corel-Layer"/>
  <rect class="fil0" width="361.04" height="361.04"/>
 </g>
 <g id="_1">
  <metadata id="CorelCorpID_1Corel-Layer"/>
  <path class="fil1" d="M150.17 172.85c-0.3,0 -0.61,-0.07 -0.89,-0.21 -0.61,-0.3 -1.41,-0.71 -2.35,-1.18 -3.08,-1.57 -7.75,-3.94 -12.01,-5.83 -9.61,-4.26 -10.26,-3.98 -18.12,-0.52l-2.04 0.89c-1.03,0.45 -2.21,-0.02 -2.66,-1.04 -0.44,-1.03 0.03,-2.21 1.05,-2.66l2.02 -0.88c8.7,-3.83 10.45,-4.33 21.39,0.52 4.36,1.93 9.08,4.33 12.2,5.92 0.93,0.47 1.71,0.87 2.31,1.16 1,0.49 1.41,1.71 0.91,2.7 -0.35,0.72 -1.07,1.13 -1.81,1.13z"/>
  <path class="fil1" d="M180.05 169.68c-0.67,0 -1.33,-0.34 -1.71,-0.94 -0.59,-0.95 -0.31,-2.2 0.63,-2.79 7.77,-4.9 19.28,-10.61 28.29,-11.92 0.22,-0.03 0.3,-0.05 0.36,-0.07 0.47,-0.15 0.8,-0.17 1.63,-0.17l0 0c1.12,0 2.02,0.9 2.02,2.02 0,1.11 -0.9,2.02 -2.02,2.02 -0.28,0 -0.44,0 -0.54,0.01 -0.03,0.02 -0.25,0.1 -0.87,0.19 -8.39,1.22 -19.3,6.65 -26.72,11.33 -0.33,0.21 -0.7,0.32 -1.07,0.32z"/>
  <path class="fil1" d="M218.58 177.24c0,0.01 0,0.01 0.01,0.01 -0.01,0 -0.01,0 -0.01,-0.01zm0.28 0.19l-0.28 -0.19zm-29.6 8.22c-0.92,0 -1.83,-0.42 -2.43,-1.21 -1,-1.34 -0.73,-3.24 0.61,-4.24l0.25 -0.19c5.92,-4.44 12.63,-9.51 21.3,-9.35 11.39,0.16 12.98,1.48 13.75,2.12 1.28,1.07 1.46,2.98 0.39,4.27 -1.02,1.21 -2.79,1.43 -4.06,0.54 -0.83,-0.32 -4.11,-0.79 -10.16,-0.87l-0.21 0c-6.52,0 -12.04,4.13 -17.38,8.13l-0.25 0.19c-0.54,0.41 -1.18,0.61 -1.81,0.61z"/>
  <path class="fil1" d="M154.48 188.04c-2.31,0 -4.73,-1.43 -7.28,-2.94 -0.93,-0.55 -1.88,-1.12 -2.82,-1.59 -2.86,-1.47 -7.6,-1.48 -13.34,-0.02l-1.37 0.36c-2.09,0.55 -4.24,1.12 -6.5,1.34 -1.71,0.14 -3.14,-1.06 -3.3,-2.73 -0.16,-1.66 1.06,-3.14 2.73,-3.3 1.76,-0.17 3.67,-0.67 5.51,-1.16l1.44 -0.38c5.07,-1.29 12.24,-2.25 17.6,0.5 1.03,0.53 2.1,1.15 3.13,1.77 1.38,0.82 3.48,2.05 4.21,2.1 1.63,-0.05 3.07,1.21 3.15,2.88 0.08,1.67 -1.23,3.09 -2.9,3.17 -0.08,0 -0.17,0 -0.26,0z"/>
  <path class="fil1" d="M174.49 235.79c-3.78,0 -7.89,-1.59 -10.08,-3.6 -1.38,-1.27 -5.65,-2.93 -7.53,-2.93 -0.04,0 -0.08,0 -0.11,0 -2.92,0 -5.44,-1.42 -6.52,-3.66l-0.07 -0.11c-0.88,-1.43 -0.43,-3.29 0.99,-4.17 1.43,-0.87 3.29,-0.43 4.17,0.99l0.16 0.27c0.08,0.13 0.15,0.27 0.21,0.41 0.06,0.03 0.49,0.22 1.06,0.22 0.02,0 0.06,0 0.1,0 3.4,0 9.13,2.22 11.64,4.52 1.44,1.32 5.28,2.45 7.39,1.83 1.75,-0.51 1.75,-0.51 2.59,-1.7 0.22,-0.31 0.47,-0.65 0.76,-1.04 2.64,-3.51 4.39,-4.26 6.95,-5.06 0.72,-0.23 1.45,-0.46 2.37,-0.84 1.4,-0.59 2.32,-1.24 2.73,-1.95 0.79,-1.38 1.55,-2.68 -4.25,-6.27 -1.43,-0.88 -1.86,-2.74 -0.98,-4.16 0.88,-1.43 2.74,-1.86 4.17,-0.98 2.95,1.82 10.79,6.68 6.3,14.44 -1.1,1.91 -2.95,3.39 -5.64,4.51 -1.17,0.49 -2.12,0.79 -2.88,1.02 -1.75,0.55 -2.27,0.72 -3.93,2.93 -0.26,0.34 -0.47,0.63 -0.66,0.9 -1.46,2.07 -2.4,3.02 -5.84,4.02 -0.97,0.28 -2.02,0.41 -3.1,0.41z"/>
  <path class="fil1" d="M142.58 245.36c-0.06,0 -0.12,0 -0.18,-0.01 -1.02,-0.09 -1.79,-0.92 -1.84,-1.91 -0.21,-0.49 -1.11,-1.69 -1.78,-2.58 -2.35,-3.11 -5.27,-6.98 -4.4,-10.66 0.39,-1.63 1.37,-2.87 2.77,-3.51 6.03,-2.76 8.15,-6.86 10.84,-12.06 0.53,-1.01 1.07,-2.06 1.66,-3.14 0.54,-0.97 1.76,-1.33 2.74,-0.8 0.98,0.54 1.34,1.77 0.8,2.74 -0.57,1.05 -1.1,2.07 -1.61,3.06 -2.81,5.42 -5.46,10.54 -12.75,13.87 -0.1,0.05 -0.37,0.17 -0.52,0.77 -0.43,1.84 2.05,5.13 3.69,7.3 1.63,2.17 2.71,3.6 2.59,5.08 -0.09,1.06 -0.98,1.85 -2.01,1.85z"/>
  <path class="fil1" d="M175.87 245.07c-5.13,0 -9.35,-0.65 -13.49,-1.28 -4.09,-0.62 -8.32,-1.26 -13.46,-1.26 -1.68,0 -3.03,-1.36 -3.03,-3.03 0,-1.67 1.35,-3.03 3.03,-3.03 5.6,0 10.06,0.68 14.38,1.34 6.33,0.96 12.32,1.88 21.57,0.51 10.74,-1.58 20.91,-4.34 23.15,-6.28 1.27,-1.1 3.18,-0.96 4.27,0.31 1.09,1.26 0.96,3.18 -0.31,4.27 -5.18,4.48 -24.09,7.38 -26.23,7.69 -3.69,0.55 -6.93,0.76 -9.88,0.76z"/>
  <g>
   <path class="fil1" d="M152.59 248.29l0 0 0 0zm25.34 15.57c-3.5,0 -7.13,-0.69 -10.5,-2.42 -4.66,-2.4 -8.23,-5.68 -12.83,-10.55 -1.72,-1.82 -2.48,-2.47 -2.8,-2.71 -1.29,-0.34 -2.24,-1.52 -2.24,-2.92 0,-1.67 1.36,-3.03 3.03,-3.03 1.86,0 3.48,1.39 6.42,4.5 4.83,5.12 7.75,7.55 11.19,9.32 5.75,2.96 12.89,1.67 17.26,-0.33 4.56,-2.1 7.4,-5.39 12.43,-12.45 0.27,-0.38 2.66,-3.9 3.05,-4.51 0.59,-1.04 1.77,-1.67 3.02,-1.51 1.67,0.21 2.84,1.73 2.62,3.39 -0.08,0.67 -0.13,1.04 -3.76,6.15 -4.87,6.84 -8.54,11.54 -14.84,14.43 -3.29,1.51 -7.57,2.64 -12.05,2.64z"/>
  </g>
  <g>
   <path class="fil1" d="M181.76 202.73c0.01,0.03 0.03,0.05 0.05,0.07 -0.02,-0.02 -0.04,-0.05 -0.05,-0.07zm0.11 0.17l0.02 0 -0.02 0zm-2.5 4.72c-0.91,0 -1.8,-0.4 -2.4,-1.18 -2.68,-3.45 -2.99,-19.9 -2.87,-21.94 0.1,-1.68 1.55,-2.97 3.2,-2.85 1.67,0.1 2.94,1.53 2.85,3.2 -0.26,4.26 0.75,15.99 1.7,18.01 0.92,1.31 0.65,3.13 -0.63,4.12 -0.55,0.43 -1.21,0.64 -1.85,0.64z"/>
  </g>
  <g>
   <path class="fil1" d="M257.06 212.06l0.02 0 -0.02 0zm-0.33 20.03c-0.43,0 -0.87,-0.09 -1.29,-0.29 -3.42,-1.61 -4.01,-4.23 -4.06,-5.64 -0.11,-3.18 2.26,-6.26 4.54,-7.53 1.37,-0.78 2.05,-1.85 2.07,-3.28 0.02,-1.59 -0.8,-2.96 -1.24,-3.32 -1.51,-0.25 -2.63,-1.6 -2.54,-3.17 0.1,-1.67 1.54,-2.93 3.2,-2.84 2.86,0.16 5.47,2.96 6.35,6.8 1.05,4.56 -0.82,8.81 -4.88,11.09 -0.68,0.38 -1.49,1.61 -1.45,2.05 0,0 0.1,0.13 0.6,0.37 1.51,0.71 2.16,2.52 1.44,4.03 -0.52,1.1 -1.6,1.73 -2.74,1.73z"/>
  </g>
  <path class="fil1" d="M257.4 204.39c-0.86,0 -1.72,-0.37 -2.32,-1.09 -0.58,-0.69 -1.04,-1.24 -1.04,-10.78 0,-1.68 1.35,-3.03 3.03,-3.03 1.67,0 3.03,1.35 3.03,3.03 0,1.4 0.16,7.09 0.27,8.22 0.22,1.06 -0.14,2.2 -1.02,2.94 -0.57,0.48 -1.26,0.71 -1.95,0.71z"/>
  <path class="fil1" d="M60.3 131.98c-7.42,0 -12.17,-3.72 -12.84,-10.22 -0.68,-6.61 3.01,-8.23 7.1,-8.99 1.66,-0.31 3.23,0.77 3.53,2.41 0.31,1.65 -0.77,3.23 -2.42,3.54 -1.74,0.32 -2.12,0.6 -2.18,0.66 0.02,0 -0.15,0.39 -0.01,1.76 0.16,1.47 0.56,5.37 8.36,4.72 13.19,-1.13 17.05,-8.63 22.89,-19.99 0.83,-1.62 1.69,-3.3 2.61,-5.01 1.08,-2.01 2.3,-4.46 3.72,-7.31 10.33,-20.72 29.56,-59.27 57.03,-47.69 1.54,0.65 2.26,2.42 1.61,3.97 -0.65,1.54 -2.42,2.26 -3.97,1.61 -22.22,-9.39 -39.14,24.54 -49.25,44.82 -1.44,2.88 -2.68,5.37 -3.8,7.47 -0.91,1.68 -1.75,3.32 -2.57,4.91 -6.03,11.72 -11.23,21.83 -27.75,23.25 -0.71,0.06 -1.4,0.09 -2.06,0.09z"/>
  <path class="fil1" d="M63.88 148.34c-7.73,0 -15.32,-3.85 -22.02,-11.2 -1.12,-1.23 -1.03,-3.15 0.2,-4.27 1.24,-1.13 3.15,-1.04 4.28,0.19 5.78,6.35 12.16,9.54 18.44,9.2 6.52,-0.34 12.82,-4.39 18.22,-11.71 4.17,-5.66 8.15,-14.59 12.38,-24.03 8.1,-18.13 16.47,-36.87 28.77,-36.87 0.18,0 0.35,0 0.52,0.01 0.23,0.01 0.49,0 0.74,0l0.47 -0.01c1.68,0 3.03,1.36 3.03,3.03 0,1.67 -1.35,3.03 -3.03,3.03l-0.39 0c-0.37,0.01 -0.75,0.01 -1.07,0 -0.09,-0.01 -0.17,-0.01 -0.26,-0.01 -8.38,0 -16.28,17.68 -23.25,33.29 -4.36,9.75 -8.48,18.96 -13.04,25.15 -6.5,8.83 -14.38,13.73 -22.78,14.17 -0.4,0.02 -0.81,0.03 -1.21,0.03z"/>
  <path class="fil1" d="M70.07 175.44c-4.89,0 -9.88,-1.08 -14.36,-3.24 -7.92,-3.82 -12.76,-10.29 -13.62,-18.21 -0.09,-0.85 -0.21,-1.75 -0.34,-2.68 -0.69,-4.96 -1.54,-11.14 1.35,-16 0.86,-1.44 2.71,-1.91 4.15,-1.05 1.44,0.85 1.91,2.71 1.06,4.14 -1.81,3.05 -1.15,7.85 -0.56,12.08 0.13,0.99 0.26,1.95 0.36,2.85 0.85,7.78 6.78,11.75 10.23,13.42 7.65,3.69 17.47,3.46 23.87,-0.58 6.23,-3.93 7.87,-7.45 10.14,-12.32 1.3,-2.78 2.77,-5.94 5.29,-9.59 3.83,-5.55 5.62,-14.44 7.36,-23.04 1.76,-8.77 3.43,-17.05 7.27,-22.24 3.83,-5.17 4.26,-5.65 5.66,-6.47 0.37,-0.22 0.99,-0.58 2.88,-2.34 1.22,-1.15 3.13,-1.09 4.28,0.14 1.14,1.22 1.08,3.13 -0.14,4.28 -2.2,2.05 -3.17,2.68 -3.97,3.15l-0.17 0.1c-0.41,0.34 -2.45,3.1 -3.67,4.75 -3.04,4.1 -4.58,11.74 -6.21,19.82 -1.85,9.2 -3.77,18.72 -8.31,25.29 -2.23,3.23 -3.53,6.02 -4.78,8.71 -2.4,5.15 -4.67,10.01 -12.4,14.88 -4.37,2.76 -9.8,4.15 -15.37,4.15z"/>
  <path class="fil1" d="M178.77 294.21c-3.25,0 -5.86,-0.27 -7.14,-0.89 -5.78,-2.79 -10.24,-5.66 -13.63,-8.77 -5.4,-4.96 -15.26,-15.1 -23.19,-23.25 -2.28,-2.34 -4.34,-4.46 -6.01,-6.17 -11.15,-11.36 -17.37,-21.97 -20.46,-48.43 -0.25,-2.15 -0.53,-4.42 -0.82,-6.74 -1.13,-9.19 -2.31,-18.7 -2.29,-25.49 0.01,-2.34 0.04,-4.59 0.06,-6.63 0.02,-1.89 0.04,-3.6 0.04,-5.03 0,-7.37 1.75,-14.52 3.3,-20.84 1.14,-4.63 2.21,-9 2.21,-12.21l0 -0.41c0,-10.98 0,-11.41 2.17,-16 0.71,-1.51 1.68,-3.57 3.04,-7.05 0.61,-1.56 2.37,-2.33 3.92,-1.72 1.56,0.6 2.33,2.36 1.72,3.92 -1.43,3.67 -2.46,5.85 -3.21,7.44 -1.59,3.36 -1.59,3.36 -1.59,13.41l0 0.41c0,3.94 -1.1,8.44 -2.38,13.66 -1.46,5.97 -3.13,12.75 -3.13,19.39 0,1.45 -0.01,3.18 -0.04,5.1 -0.02,2.02 -0.04,4.26 -0.05,6.57 -0.02,6.41 1.18,16.15 2.24,24.74 0.29,2.33 0.58,4.62 0.83,6.78 2.89,24.87 8.36,34.29 18.76,44.89 1.68,1.71 3.75,3.84 6.03,6.19 7.46,7.67 17.67,18.17 22.94,23.01 2.95,2.7 6.93,5.24 12.18,7.78 2.04,0.71 16.1,0.25 25.59,-2.39 2.9,-0.81 5.47,-2.38 8.07,-4.95 9.11,-8.97 28.16,-34.2 34.71,-45.2 6.67,-11.22 6.78,-14.66 6.73,-15.23 -0.02,-0.42 -0.01,-0.53 0.15,-1.41 2.19,-12.13 2.51,-16.73 2.51,-18.39 0,-12.38 -5.91,-25.61 -17.58,-39.32 -3.12,-3.65 -9.53,-4.35 -16.33,-5.1 -4.94,-0.53 -10.05,-1.09 -14.56,-2.85 -5.87,-2.28 -9.71,-3.03 -12.8,-3.63 -7.14,-1.38 -10.7,-2.45 -20.43,-13.34 -1.98,-2.21 -4.78,-6.18 -8.02,-10.78 -4.3,-6.1 -12.3,-17.45 -14.92,-18.39 -0.66,-0.17 -0.95,-0.4 -2.17,-1.38l-0.45 -0.36c-1.33,-1 -1.61,-2.9 -0.61,-4.24 1,-1.33 2.89,-1.61 4.22,-0.62 0.11,0.08 0.35,0.27 0.63,0.49 0.19,0.16 0.41,0.34 0.59,0.48 4.12,1.64 9.5,8.96 17.66,20.53 3,4.26 5.84,8.29 7.58,10.24 8.78,9.82 11.21,10.29 17.07,11.43 3.33,0.65 7.47,1.45 13.85,3.93 3.76,1.46 8.47,1.98 13.02,2.47 7.67,0.84 15.6,1.71 20.28,7.2 12.63,14.83 19.03,29.38 19.03,43.24 0,3.31 -0.88,9.86 -2.61,19.47l-0.04 0.25c0.07,1.63 -0.24,6.04 -7.6,18.4 -6.79,11.42 -26.03,36.94 -35.66,46.43 -3.32,3.27 -6.82,5.38 -10.7,6.46 -6.06,1.69 -15.82,2.9 -22.71,2.9z"/>
  <path class="fil1" d="M135.22 113.76c-0.58,0 -1.18,-0.17 -1.7,-0.53 -1.31,-0.89 -2.33,-1.53 -3.18,-2.06 -3.39,-2.13 -4.63,-3.06 -8.29,-8.41 -0.95,-1.37 -0.59,-3.26 0.79,-4.2 1.38,-0.95 3.26,-0.59 4.2,0.78 3.13,4.57 3.78,4.98 6.52,6.7 0.9,0.57 1.99,1.24 3.38,2.2 1.38,0.94 1.73,2.82 0.79,4.21 -0.59,0.85 -1.54,1.31 -2.51,1.31z"/>
  <path class="fil1" d="M140.91 109.09c-1.05,0 -2.07,-0.55 -2.64,-1.52 -0.79,-1.39 -1.45,-2.53 -2.04,-3.53 -2.03,-3.49 -3.14,-5.41 -5.72,-10.66 -0.74,-1.51 -0.12,-3.32 1.38,-4.06 1.5,-0.73 3.32,-0.11 4.05,1.39 2.49,5.06 3.5,6.81 5.52,10.28 0.6,1.01 1.26,2.16 2.07,3.56 0.83,1.46 0.33,3.31 -1.12,4.14 -0.48,0.27 -0.99,0.4 -1.5,0.4z"/>
  <path class="fil1" d="M74.99 122.25c-0.35,0 -0.71,-0.07 -1.06,-0.2l-0.34 -0.12c-8.66,-3.26 -11.66,-4.9 -11.66,-15.03 0,-1.68 1.36,-3.03 3.03,-3.03 1.68,0 3.03,1.35 3.03,3.03 0,6.45 0.15,6.51 7.73,9.36l0.34 0.12c1.56,0.59 2.35,2.34 1.77,3.9 -0.46,1.22 -1.62,1.97 -2.84,1.97z"/>
  <path class="fil1" d="M74.86 208.14c-5.96,0 -11.9,-2.6 -17.28,-7.6 -9.06,-8.41 -15.44,-22.7 -15.17,-33.97 0.04,-1.67 1.4,-3.02 3.1,-2.95 1.67,0.04 2.99,1.42 2.95,3.1 -0.23,9.53 5.47,22.16 13.24,29.39 3.26,3.02 8.46,6.5 14.58,5.91 12.17,-1.19 14.56,-9.42 16.81,-21.82 0.9,-4.97 1.75,-9.67 4.02,-12.94 0.57,-0.83 1.01,-1.81 1.47,-2.85 0.65,-1.46 1.39,-3.11 2.63,-4.57 1.09,-1.27 3,-1.43 4.27,-0.34 1.27,1.09 1.43,3 0.34,4.27 -0.67,0.79 -1.15,1.86 -1.71,3.1 -0.53,1.19 -1.13,2.54 -2.02,3.83 -1.52,2.2 -2.26,6.27 -3.04,10.58 -1.92,10.57 -4.55,25.04 -22.18,26.76 -0.67,0.07 -1.34,0.1 -2.01,0.1z"/>
  <path class="fil1" d="M86.12 224.7c-1.02,0 -2.1,-0.11 -3.24,-0.34 -6.61,-1.35 -13.48,-6.01 -12.92,-13.06 0.12,-1.66 1.6,-2.9 3.25,-2.78 1.67,0.13 2.91,1.59 2.78,3.26 -0.28,3.58 4.82,5.97 8.09,6.64 6.47,1.31 9.42,-3.69 13.19,-11.47 1.22,-2.51 2.37,-4.88 3.75,-6.74 0.36,-0.49 4.29,-6.1 4.84,-6.98 0.7,-1.28 2.23,-1.9 3.66,-1.41 1.58,0.55 2.41,2.28 1.86,3.86 -0.34,0.98 -5.44,8.05 -5.49,8.12 -1.05,1.42 -2.08,3.54 -3.17,5.79 -2.98,6.14 -7.33,15.11 -16.6,15.11z"/>
  <g>
   <path class="fil1" d="M92.27 225.58l0 0 0 0zm22.93 22.2c-0.51,0 -1.01,-0.12 -1.47,-0.38 -0.25,-0.12 -0.88,-0.4 -1.67,-0.76 -2.68,-1.2 -4.79,-2.16 -5.58,-2.63 -5.47,-3.21 -6.66,-4.64 -8.82,-7.57 -0.6,-0.81 -1.29,-1.75 -2.28,-2.95 -2.34,-2.83 -3.08,-5.93 -3.52,-7.79 -0.07,-0.3 -0.13,-0.56 -0.19,-0.76 -0.74,-1.08 -0.72,-2.55 0.14,-3.62 1.05,-1.3 2.95,-1.5 4.26,-0.46 1.06,0.86 1.35,2.05 1.68,3.43 0.36,1.52 0.86,3.6 2.3,5.35 1.07,1.3 1.83,2.32 2.48,3.2 1.74,2.35 2.39,3.23 7.02,5.95 0.57,0.33 3.56,1.68 5,2.33 2.21,1 2.21,1 2.56,1.28 1.3,1.06 1.49,2.97 0.44,4.26 -0.6,0.74 -1.47,1.12 -2.35,1.12z"/>
  </g>
  <path class="fil1" d="M290.2 112.75c-1.05,0 -2.06,-0.54 -2.63,-1.51l-0.87 -1.52c-4.25,-7.45 -14.21,-24.88 -29.2,-38.18 -12.45,-11.05 -37.96,-24.74 -44.93,-27.12 -16.92,-5.78 -36.32,-9.83 -51.8,3.98 -1.25,1.12 -3.16,1 -4.27,-0.24 -1.12,-1.25 -1.01,-3.16 0.24,-4.28 17.92,-15.98 40.29,-11.17 57.79,-5.19 7.08,2.42 33.48,16.33 46.99,28.32 15.73,13.96 26.04,32 30.44,39.7l0.86 1.5c0.83,1.44 0.34,3.3 -1.11,4.14 -0.48,0.27 -1,0.4 -1.51,0.4z"/>
  <path class="fil1" d="M248.88 143.97c-37.01,0 -51.79,-15.48 -72.24,-36.9 -2.37,-2.48 -4.83,-5.06 -7.42,-7.71 -6.73,-6.89 -16.33,-14.81 -30.83,-14.81 -1.67,0 -3.02,-1.35 -3.02,-3.02 0,-1.68 1.35,-3.03 3.02,-3.03 16.76,0 27.6,8.89 35.16,16.63 2.61,2.67 5.08,5.26 7.47,7.76 20.14,21.09 33.44,35.02 67.86,35.02 1.67,0 3.03,1.36 3.03,3.03 0,1.67 -1.36,3.03 -3.03,3.03z"/>
  <path class="fil1" d="M266.45 136.33c-20.61,0 -76.92,-43.28 -89.04,-54.69 -6.84,-6.43 -12.7,-7.96 -18.36,-9.43 -2.92,-0.76 -5.94,-1.55 -8.93,-2.97 -1.51,-0.72 -2.16,-2.52 -1.44,-4.03 0.71,-1.51 2.52,-2.16 4.03,-1.44 2.48,1.17 5.1,1.86 7.87,2.58 6.1,1.59 13.01,3.39 20.98,10.88 18.16,17.08 75.05,57.14 86.28,52.87 1.56,-0.59 3.31,0.19 3.91,1.76 0.59,1.56 -0.2,3.31 -1.77,3.9 -1.01,0.38 -2.2,0.57 -3.53,0.57z"/>
  <path class="fil1" d="M286.61 128.62c-0.13,0 -0.25,-0.01 -0.38,-0.03 -5.62,-0.69 -17.15,-4.17 -21.66,-6.27 -10.12,-4.7 -21.51,-14.36 -33.56,-24.58 -22.26,-18.87 -47.51,-40.24 -72.26,-37.57 -1.67,0.17 -3.16,-1.02 -3.34,-2.68 -0.18,-1.67 1.02,-3.16 2.68,-3.34 27.39,-3 53.64,19.31 76.83,38.97 11.74,9.95 22.83,19.36 32.21,23.71 3.99,1.86 14.93,5.15 19.84,5.75 1.66,0.21 2.84,1.72 2.64,3.38 -0.19,1.53 -1.5,2.66 -3,2.66z"/>
  <path class="fil1" d="M299.82 120.41c-4.6,0 -8.79,-2.97 -10.52,-4.19 -9.1,-6.46 -15.82,-11.82 -21.75,-16.55 -11.13,-8.88 -20.74,-16.55 -41.52,-27.82 -23.68,-12.83 -39.57,-19.34 -47.24,-19.34 -1.68,0 -3.03,-1.36 -3.03,-3.03 0,-1.67 1.35,-3.03 3.03,-3.03 8.93,0 24.86,6.38 50.13,20.08 21.25,11.52 31.05,19.34 42.41,28.4 6.15,4.91 12.51,9.99 21.48,16.34 5.24,3.72 7.64,3.28 8.77,2.67 -0.05,-0.14 -0.13,-0.32 -0.24,-0.53 -0.15,-0.27 -0.29,-0.61 -0.35,-0.91 -0.32,-1.65 0.74,-3.24 2.38,-3.57 1.37,-0.27 2.7,0.42 3.3,1.61 2.05,3.79 0.89,6.55 -0.9,7.88 -1.95,1.45 -3.99,1.99 -5.95,1.99z"/>
  <path class="fil1" d="M283.51 150.14c-6.52,0 -13.14,-1.52 -18.37,-3.95 -1.52,-0.7 -2.18,-2.5 -1.48,-4.02 0.7,-1.51 2.5,-2.18 4.02,-1.47 8.58,3.97 21.96,4.98 29.52,-0.21 4.47,-3.07 6.52,-8.02 6.08,-14.71 -0.11,-1.66 1.15,-3.11 2.82,-3.21 1.66,-0.08 3.11,1.15 3.22,2.82 0.73,11.17 -4.32,17.1 -8.69,20.09 -4.78,3.28 -10.91,4.66 -17.12,4.66z"/>
  <path class="fil1" d="M281.34 177.76c-4.79,0 -9.6,-1.21 -13.79,-3.65 -4.27,-2.47 -7.1,-6.1 -9.83,-9.61 -3.3,-4.22 -6.41,-8.21 -12.02,-10.59 -1.54,-0.65 -2.26,-2.43 -1.61,-3.97 0.65,-1.54 2.43,-2.26 3.97,-1.61 7.06,3 10.98,8.02 14.43,12.44 2.49,3.2 4.85,6.22 8.1,8.11 6.49,3.76 14.84,3.79 21.28,0.09 5.84,-3.37 9.06,-9.23 9.06,-16.51 0,-1.67 1.36,-3.03 3.03,-3.03 1.67,0 3.03,1.36 3.03,3.03 0,9.4 -4.41,17.33 -12.1,21.75 -4.11,2.37 -8.83,3.55 -13.55,3.55z"/>
  <path class="fil1" d="M283.61 202c-2.37,0 -4.83,-0.43 -7.32,-1.39 -7.61,-2.98 -12.68,-10.49 -17.15,-17.12 -2.6,-3.85 -5.05,-7.48 -7.4,-9.25 -1.34,-1.01 -1.61,-2.91 -0.6,-4.24 1,-1.34 2.91,-1.61 4.24,-0.6 3.17,2.38 5.89,6.43 8.78,10.71 3.98,5.89 8.48,12.57 14.34,14.85 7.55,2.95 13.73,-1.49 16.03,-3.53 3.38,-2.99 4.55,-5.98 4.56,-6.99 -1.32,-0.77 -1.87,-2.43 -1.23,-3.86 0.7,-1.52 2.48,-2.2 4.01,-1.51 2.44,1.11 4.52,4.21 2.37,9.32 -2.75,6.51 -10.97,13.61 -20.63,13.61z"/>
  <path class="fil1" d="M283.19 222.13c-8.08,0 -14.87,-6.33 -18.86,-13.02 -1.86,-3.11 -3.59,-6.76 -4.62,-9.77 -0.55,-1.58 0.29,-3.3 1.87,-3.85 1.59,-0.54 3.31,0.3 3.85,1.88 0.7,2.03 2.15,5.37 4.1,8.64 1.72,2.89 8,12.11 16.45,9.66 0.06,-0.02 0.18,-0.05 0.32,-0.34 0.3,-0.62 0.27,-1.54 0.15,-1.84 -0.84,-1.45 -0.32,-3.27 1.13,-4.1 1.45,-0.84 3.31,-0.31 4.15,1.14 1.05,1.82 1.15,4.68 0.24,6.95 -0.81,2.01 -2.34,3.44 -4.3,4.01 -1.53,0.44 -3.02,0.64 -4.48,0.64z"/>
  <path class="fil1" d="M153.42 323.89c-1.68,0 -3.03,-1.36 -3.03,-3.03 0,-7.67 1.07,-32.91 4.34,-42.11 0.56,-1.57 2.3,-2.4 3.86,-1.84 1.58,0.56 2.4,2.29 1.84,3.87 -2.61,7.37 -3.99,30.01 -3.99,40.08 0,1.67 -1.35,3.03 -3.02,3.03z"/>
  <path class="fil1" d="M220.72 316.08c-0.04,0.03 -0.09,0.07 -0.14,0.11 0.04,-0.03 0.09,-0.07 0.14,-0.11zm1.8 5.47c-0.94,0 -1.85,-0.43 -2.45,-1.23 -0.94,-1.29 -0.72,-3.06 0.46,-4.08 2.38,-2.76 17.69,-30.98 19.22,-34.58 8.86,-21.01 11.5,-40.07 7.23,-52.29 -0.55,-1.58 0.28,-3.3 1.86,-3.85 1.58,-0.56 3.3,0.28 3.85,1.85 4.76,13.62 2.08,34.27 -7.36,56.64 -0.14,0.31 -17.71,34.52 -21.02,36.95 -0.54,0.4 -1.17,0.59 -1.79,0.59z"/>
  <path class="fil1" d="M41.26 290.17c-0.3,0 -0.6,-0.04 -0.9,-0.13 -1.6,-0.5 -2.49,-2.2 -1.99,-3.79 0.6,-1.93 4.61,-12.9 5.49,-14.26 3.1,-4.76 4.68,-8.99 6.21,-13.08 3.21,-8.61 5.99,-16.05 20.67,-22.02 3.6,-1.46 6.1,-2.92 8.3,-4.21 4.9,-2.87 8.76,-5.14 18.97,-4.13 1.67,0.17 2.88,1.65 2.71,3.31 -0.16,1.67 -1.61,2.88 -3.31,2.72 -8.24,-0.82 -10.75,0.65 -15.31,3.32 -2.26,1.33 -5.07,2.97 -9.08,4.6 -12.22,4.97 -14.23,10.37 -17.28,18.53 -1.57,4.19 -3.34,8.94 -6.8,14.26 -0.52,1 -4.02,10.27 -4.79,12.75 -0.4,1.3 -1.6,2.13 -2.89,2.13z"/>
  <path class="fil1" d="M334.99 257.17c-0.48,0 -0.96,-0.11 -1.41,-0.35l-0.67 -0.35c-14.82,-7.82 -42.42,-22.4 -48.84,-36.65 -0.69,-1.52 -0.01,-3.31 1.51,-4 1.53,-0.68 3.32,-0.01 4.01,1.51 5.57,12.36 32.98,26.83 46.15,33.79l0.67 0.35c1.48,0.78 2.04,2.61 1.26,4.09 -0.54,1.03 -1.59,1.61 -2.68,1.61z"/>
  <path class="fil1" d="M179.12 320.88c-0.92,0 -1.84,-0.42 -2.43,-1.22 -0.11,-0.14 -0.16,-0.21 -0.2,-0.25 -0.5,-0.57 -0.77,-1.18 -0.84,-1.93 0,-0.03 -0.01,-0.1 -0.05,-0.25 -1.12,-5.23 -3.2,-10.56 -5.2,-15.73 -1.64,-4.21 -3.19,-8.2 -4.25,-12.11 -0.44,-1.62 0.52,-3.28 2.13,-3.72 1.62,-0.43 3.28,0.52 3.72,2.13 0.97,3.61 2.47,7.45 4.04,11.51 2.09,5.38 4.25,10.94 5.49,16.64 0,0.03 0.01,0.06 0.01,0.09 0.01,0 0.01,0 0.01,0.01 1,1.34 0.72,3.24 -0.62,4.23 -0.55,0.41 -1.18,0.6 -1.81,0.6z"/>
  <path class="fil2" d="M205.13 172.01c2.64,0 4.78,2.14 4.78,4.78 0,2.64 -2.14,4.78 -4.78,4.78 -2.64,0 -4.78,-2.14 -4.78,-4.78 0,-2.64 2.14,-4.78 4.78,-4.78z"/>
  <path class="fil2" d="M138.74 177.42c2.64,0 4.78,2.14 4.78,4.78 0,2.64 -2.14,4.78 -4.78,4.78 -2.64,0 -4.78,-2.14 -4.78,-4.78 0,-2.64 2.14,-4.78 4.78,-4.78z"/>
  <path class="fil1" d="M221.34 241.25c-1.05,0 -1.93,-0.81 -2.01,-1.87 -0.05,-0.54 -0.05,-0.54 0.75,-2.21 4.87,-10.29 6.12,-13.36 6.31,-14.12 0.27,-1.08 1.36,-1.74 2.45,-1.47 1.08,0.27 1.74,1.37 1.47,2.45 -0.36,1.44 -2.33,5.89 -6.59,14.87 -0.26,0.56 -0.45,0.95 -0.51,1.09 -0.28,0.69 -0.93,1.19 -1.72,1.25 -0.05,0.01 -0.1,0.01 -0.15,0.01z"/>
  <path class="fil1" d="M120.19 310.35c-0.92,0 -1.84,-0.43 -2.43,-1.23 -1,-1.34 -0.72,-3.24 0.62,-4.23 1.19,-0.99 4.63,-7.31 6.48,-10.7 1.66,-3.03 3.09,-5.65 4.1,-7.12 1.32,-1.89 0.4,-3.63 -3.43,-8.64 -4.32,-5.66 -10.25,-13.42 -7.27,-24.94 0.42,-1.62 2.07,-2.6 3.69,-2.18 1.62,0.42 2.59,2.07 2.17,3.69 -2.24,8.68 2.06,14.31 6.23,19.75 3.57,4.67 7.61,9.97 3.59,15.77 -0.83,1.21 -2.25,3.81 -3.76,6.57 -3.76,6.88 -6.18,11.17 -8.18,12.66 -0.55,0.4 -1.18,0.6 -1.81,0.6z"/>
  <path class="fil1" d="M265.06 314.35c-0.87,0 -1.74,-0.38 -2.34,-1.1 -1.06,-1.29 -0.88,-3.2 0.41,-4.26 1.03,-1.03 5.23,-8.18 8.29,-13.41 3.93,-6.7 7.99,-13.63 10.44,-16.77 17.37,-22.35 17.14,-22.68 5.16,-40.01l-1.76 -2.54c-0.95,-1.37 -0.6,-3.26 0.78,-4.21 1.38,-0.94 3.26,-0.6 4.21,0.78l1.75 2.53c13.28,19.2 14.09,22.15 -5.36,47.17 -2.2,2.83 -6.34,9.89 -10,16.12 -5.68,9.68 -8.14,13.75 -9.65,15 -0.57,0.47 -1.25,0.7 -1.93,0.7z"/>
 </g>
</svg>
