<?xml version="1.0" encoding="UTF-8"?>
<!DOCTYPE svg PUBLIC "-//W3C//DTD SVG 1.1//EN" "http://www.w3.org/Graphics/SVG/1.1/DTD/svg11.dtd">
<!-- Creator: CorelDRAW 2018 (64-Bit) -->
<svg xmlns="http://www.w3.org/2000/svg" xml:space="preserve" width="845px" height="845px" version="1.1" style="shape-rendering:geometricPrecision; text-rendering:geometricPrecision; image-rendering:optimizeQuality; fill-rule:evenodd; clip-rule:evenodd"
viewBox="0 0 361.04 361.04"
 xmlns:xlink="http://www.w3.org/1999/xlink">
 <defs>
  <style type="text/css">
   <![CDATA[
    .fil0 {fill:none}
    .fil2 {fill:black}
    .fil1 {fill:black;fill-rule:nonzero}
   ]]>
  </style>
 </defs>
 <g id="Слой_x0020_1">
  <metadata id="CorelCorpID_0Corel-Layer"/>
  <rect class="fil0" width="361.04" height="361.04"/>
 </g>
 <g id="_1">
  <metadata id="CorelCorpID_1Corel-Layer"/>
  <path class="fil1" d="M114.91 169.48c-5.21,0 -10.03,1.53 -13.62,4.41 -3.4,2.73 -5.36,6.34 -5.65,10.46 -0.72,10.03 8.75,19.71 21.11,21.57 6.73,1.01 13.19,-0.48 17.72,-4.11 3.4,-2.72 5.35,-6.34 5.65,-10.45 0.72,-10.04 -8.75,-19.71 -21.11,-21.57 -1.38,-0.21 -2.75,-0.31 -4.1,-0.31zm5.92 40.78c-1.54,0 -3.11,-0.11 -4.69,-0.35 -14.39,-2.16 -25.39,-13.76 -24.53,-25.85 0.37,-5.19 2.91,-9.92 7.15,-13.32 5.41,-4.32 13.01,-6.13 20.85,-4.94 14.39,2.16 25.4,13.76 24.53,25.84 -0.37,5.2 -2.91,9.93 -7.15,13.32 -4.31,3.46 -10.03,5.3 -16.16,5.3z"/>
  <path class="fil1" d="M185.87 179.35c-5.21,0 -10.03,1.53 -13.62,4.41 -3.4,2.72 -5.36,6.34 -5.65,10.46 -0.72,10.03 8.75,19.71 21.1,21.57 6.74,1 13.2,-0.49 17.73,-4.11 3.4,-2.73 5.35,-6.34 5.64,-10.46 0.72,-10.03 -8.75,-19.71 -21.1,-21.56 -1.38,-0.21 -2.75,-0.31 -4.1,-0.31zm5.92 40.78c-1.54,0 -3.11,-0.12 -4.69,-0.35 -14.39,-2.17 -25.39,-13.76 -24.53,-25.85 0.37,-5.2 2.91,-9.93 7.15,-13.32 5.4,-4.32 13,-6.13 20.85,-4.94 14.39,2.16 25.4,13.75 24.53,25.84 -0.37,5.19 -2.91,9.92 -7.15,13.32 -4.31,3.45 -10.03,5.3 -16.16,5.3z"/>
  <g>
   <path class="fil1" d="M165.16 191.42l0 0 0 0zm-0.51 3.97c-0.17,0 -0.34,-0.02 -0.51,-0.07 -0.96,-0.25 -1.66,-0.96 -2.64,-1.94 -1.9,-1.93 -4.78,-4.83 -10.01,-4.83 -1.85,0 -6.18,0 -8.15,1.56 -0.88,0.7 -2.15,0.55 -2.84,-0.33 -0.69,-0.87 -0.54,-2.14 0.33,-2.83 2.71,-2.15 6.91,-2.44 10.66,-2.44 6.91,0 10.79,3.92 12.88,6.02 0.35,0.36 0.78,0.79 0.99,0.95 0.96,0.35 1.51,1.39 1.24,2.4 -0.24,0.91 -1.06,1.51 -1.95,1.51z"/>
  </g>
  <path class="fil1" d="M212.59 198.88c-1.5,0 -2.8,-1.11 -3,-2.64 -0.22,-1.66 0.95,-3.18 2.61,-3.39l5.94 -0.77 22.66 -21.36c1.21,-1.14 3.13,-1.09 4.28,0.13 1.14,1.21 1.09,3.13 -0.13,4.28l-23.36 22.03c-0.47,0.44 -1.06,0.72 -1.69,0.8l-6.92 0.89c-0.13,0.02 -0.26,0.03 -0.39,0.03z"/>
  <path class="fil1" d="M251.44 226.36c-1.49,0 -2.69,-0.37 -3.59,-0.83 -1.49,-0.75 -2.09,-2.57 -1.34,-4.06 0.75,-1.5 2.58,-2.1 4.07,-1.35 1.14,0.57 2.99,-0.29 3.99,-0.86 7,-3.95 15.62,-16.73 16.17,-23.99 0.43,-5.52 0.49,-6.37 -2.28,-10.23 -0.98,-1.36 -0.67,-3.25 0.68,-4.22 1.36,-0.98 3.25,-0.67 4.23,0.68 3.87,5.39 3.9,7.86 3.41,14.23 -0.71,9.29 -10.42,23.83 -19.23,28.8 -2.4,1.36 -4.44,1.83 -6.11,1.83z"/>
  <path class="fil1" d="M286.41 172.53c-4.21,0 -8.47,-1.12 -13.3,-3.37 -12.28,-5.74 -21.36,-18.4 -22.6,-31.5 -1.43,-15.06 -5.85,-32.64 -13.65,-32.64 -1.67,0 -3.02,-1.36 -3.02,-3.03 0,-1.67 1.35,-3.03 3.02,-3.03 13.98,0 18.33,23.89 19.68,38.13 1.04,11.04 8.73,21.72 19.13,26.58 7.34,3.43 12.51,3.68 19.11,0.95 1.64,-0.68 4.25,-2.77 4.58,-3.66 0.42,-1.62 2.07,-2.59 3.69,-2.17 1.62,0.42 2.59,2.08 2.17,3.7 -1.03,4.01 -6.76,7.16 -8.12,7.72 -3.72,1.54 -7.18,2.32 -10.69,2.32z"/>
  <path class="fil1" d="M275.82 184.29c-1.43,0 -2.93,-0.06 -4.6,-0.17 -24.53,-1.56 -26.9,-17.44 -28.98,-31.45 -0.21,-1.36 -0.41,-2.72 -0.63,-4.07 -0.26,-1.59 -0.51,-3.23 -0.76,-4.87 -0.92,-6.04 -2.63,-17.27 -5.08,-18.22 -1.56,-0.6 -2.33,-2.35 -1.73,-3.92 0.6,-1.56 2.36,-2.32 3.91,-1.73 5.73,2.21 7.19,11.83 8.89,22.96 0.24,1.62 0.48,3.23 0.74,4.79 0.23,1.39 0.44,2.78 0.65,4.17 2.08,14 3.73,25.05 23.37,26.3 6.16,0.39 9.55,0.08 15.77,-1.44 1.55,-0.37 3.06,-0.54 4.52,-0.71 1.99,-0.22 3.86,-0.43 5.57,-1.13 1.55,-0.64 3.32,0.1 3.96,1.64 0.63,1.55 -0.1,3.32 -1.65,3.95 -2.49,1.04 -5,1.31 -7.2,1.56 -1.34,0.15 -2.6,0.29 -3.76,0.58 -5.09,1.24 -8.67,1.76 -12.99,1.76z"/>
  <path class="fil1" d="M280.78 146.96c-4.87,0 -9.96,-2.52 -15.2,-10.76 -3.23,-5.09 -4.81,-9.81 -6.15,-14.19 -4.14,-13.57 -6.6,-20.51 -17.23,-29.94 -1.25,-1.11 -1.37,-3.02 -0.26,-4.27 1.11,-1.25 3.02,-1.37 4.28,-0.26 11.82,10.49 14.64,18.43 19,32.7 1.22,3.99 2.64,8.26 5.48,12.71 6.78,10.69 11.21,8.69 19.24,5.06 0.92,-0.42 1.85,-0.84 2.81,-1.25 1.54,-0.67 3.32,0.05 3.98,1.59 0.65,1.54 -0.06,3.32 -1.6,3.97 -0.91,0.4 -1.81,0.81 -2.7,1.2 -3.68,1.67 -7.58,3.44 -11.65,3.44z"/>
  <path class="fil1" d="M292.77 124.71c-0.34,0 -0.69,-0.06 -1.03,-0.18 -1.87,-0.68 -3.48,-0.99 -5.04,-1.3 -4.01,-0.78 -7.81,-1.51 -12.39,-7.62 -3.09,-4.12 -5.62,-8.83 -8.06,-13.38 -2.84,-5.3 -5.53,-10.3 -8.87,-14.06 -2.79,-3.14 -11.45,-8.69 -14.18,-8.69 -1.67,0 -3.02,-1.35 -3.02,-3.03 0,-1.67 1.35,-3.03 3.02,-3.03 5.62,0 15.88,7.55 18.71,10.73 3.81,4.29 6.79,9.84 9.68,15.21 2.33,4.36 4.75,8.86 7.57,12.62 3.18,4.24 5.14,4.62 8.69,5.31 1.71,0.33 3.64,0.71 5.96,1.55 1.57,0.57 2.38,2.31 1.81,3.88 -0.45,1.23 -1.61,1.99 -2.85,1.99z"/>
  <path class="fil1" d="M284.25 236.53c-0.01,0 -0.01,0 -0.01,0 0,0 0,0 0.01,0zm0.51 6.01c-1.45,0 -2.73,-1.04 -2.99,-2.52 -0.22,-1.33 0.45,-2.6 1.59,-3.19 0.39,-0.37 0.87,-0.79 1.56,-1.18 2.82,-1.58 4.56,-5.36 6.24,-9.01 0.81,-1.75 1.64,-3.57 2.62,-5.19 1.68,-2.8 4.42,-13.99 8.15,-33.27l0.18 -0.92c3.34,-17.23 4.67,-29.54 3.95,-36.64 -5.36,-7.18 -18.75,-39.47 -21.56,-46.31 -4.69,-11.42 -7.95,-20.05 -8.96,-23.68 -5.07,-18.39 -13.14,-28.93 -27.86,-36.36 -1.49,-0.75 -2.09,-2.57 -1.34,-4.06 0.76,-1.5 2.58,-2.09 4.07,-1.34 16.42,8.29 25.39,19.92 30.97,40.14 0.93,3.36 4.19,11.96 8.72,23 10.06,24.49 18.88,43.07 20.81,45.07 0.65,0.48 0.95,1.1 1.05,1.91 1.02,7.7 -0.26,20.59 -3.91,39.43l-0.18 0.91c-2.88,14.89 -6.18,30.7 -8.9,35.23 -0.8,1.35 -1.54,2.94 -2.31,4.62 -1.99,4.32 -4.24,9.21 -8.78,11.75 -0.12,0.07 -0.22,0.16 -0.4,0.34 -0.38,0.36 -1.09,1.03 -2.21,1.23 -0.17,0.03 -0.34,0.04 -0.51,0.04z"/>
  <path class="fil1" d="M290.99 199.53c-2.28,0 -4.61,-0.27 -7.48,-0.61l-2.59 -0.29c-1.66,-0.19 -2.86,-1.68 -2.68,-3.35 0.19,-1.66 1.69,-2.84 3.35,-2.67l2.63 0.3c7.4,0.87 9.89,1.16 17.69,-2.22 1.53,-0.67 3.32,0.04 3.98,1.58 0.67,1.53 -0.03,3.31 -1.57,3.98 -5.82,2.52 -9.51,3.28 -13.33,3.28z"/>
  <path class="fil1" d="M286.69 218.02c-2.88,0 -5.84,-0.51 -8.91,-1.98 -1.51,-0.72 -2.15,-2.53 -1.43,-4.04 0.72,-1.5 2.53,-2.14 4.04,-1.42 4.87,2.32 9.38,1.32 15.09,0.06 0.76,-0.17 1.52,-0.34 2.3,-0.51 1.62,-0.34 3.24,0.7 3.59,2.34 0.34,1.64 -0.7,3.24 -2.34,3.59 -0.76,0.16 -1.5,0.32 -2.23,0.49 -3.3,0.73 -6.65,1.47 -10.11,1.47z"/>
  <path class="fil1" d="M88.98 116.9c-1.74,0 -3.92,-0.16 -6.85,-0.47 -1,-0.1 -2.04,-0.09 -3.13,-0.08l-1.2 0.02c-1.67,0 -3.03,-1.36 -3.03,-3.03 0,-1.67 1.36,-3.03 3.03,-3.03l1.12 -0.01c1.23,-0.01 2.5,-0.03 3.85,0.11 7.99,0.85 8.83,0.38 10.88,-0.75 1.31,-0.73 3.11,-1.72 6.42,-2.77 5.1,-1.61 10.71,-13.78 13.4,-19.62l0.73 -1.58c9.34,-20.03 20.2,-32.79 32.27,-37.92 16.36,-6.96 39.19,-3.1 50.89,8.6 2.99,2.99 16.25,18.82 18.77,22.77 2.61,4.1 10.27,9.81 14.22,9.81 1.67,0 3.03,1.35 3.03,3.02 0,1.68 -1.36,3.03 -3.03,3.03 -6.79,0 -16.13,-7.59 -19.33,-12.61 -2.11,-3.3 -14.98,-18.78 -17.95,-21.74 -9.92,-9.93 -30.18,-13.28 -44.23,-7.31 -10.5,4.46 -20.58,16.53 -29.15,34.91l-0.72 1.55c-4.76,10.34 -10.01,20.63 -17.08,22.87 -2.73,0.86 -4.1,1.62 -5.31,2.29 -2.29,1.26 -3.94,1.94 -7.6,1.94z"/>
  <path class="fil1" d="M95.5 119.37c-1.68,0 -3.03,-1.36 -3.03,-3.03 0,-1.67 1.35,-3.03 3.03,-3.03 21.35,0 34.69,-3.72 43.99,-23.38 4.12,-8.71 13.5,-14.8 25.71,-16.72 12.58,-1.97 24.83,1.14 31.21,7.94 1.6,1.7 2.94,3.54 4.12,5.15 1.72,2.37 3.21,4.41 4.92,5.37 1.46,0.81 1.99,2.65 1.17,4.11 -0.81,1.46 -2.65,1.99 -4.11,1.17 -2.88,-1.6 -4.82,-4.26 -6.88,-7.08 -1.13,-1.55 -2.29,-3.15 -3.63,-4.58 -4.98,-5.29 -15.37,-7.74 -25.86,-6.1 -10.06,1.58 -17.97,6.56 -21.18,13.34 -10.58,22.35 -26.77,26.84 -49.46,26.84z"/>
  <path class="fil1" d="M65.71 143.55c0,0 0,0 0.01,0 -0.01,0 -0.01,0 -0.01,0zm0.05 5.76c-1.36,0 -2.8,-0.18 -3.91,-1.1 -1.29,-1.07 -1.47,-2.98 -0.4,-4.26 0.95,-1.14 2.56,-1.41 3.8,-0.72 0.41,0.04 1.2,0.01 1.61,-0.01 0.34,-0.02 0.65,-0.03 0.9,-0.03 11.5,0 13.72,-9.61 15.6,-23.18 0.75,-5.39 1.39,-10.05 3.33,-13.07 1.85,-2.88 3.22,-8.05 4.67,-13.52 0.71,-2.7 1.45,-5.49 2.32,-8.33 5.8,-18.99 20.25,-35.95 38.64,-45.37 20.12,-10.3 52.11,-13.04 70.82,0.21 4.51,3.19 10.66,10.11 16.61,16.81 5.62,6.31 12.6,14.17 15.35,15.21 1.56,0.59 2.35,2.34 1.75,3.91 -0.59,1.56 -2.34,2.35 -3.91,1.75 -3.85,-1.46 -9.26,-7.34 -17.72,-16.85 -5.72,-6.44 -11.64,-13.1 -15.58,-15.89 -16.61,-11.76 -46.44,-9.03 -64.56,0.24 -16.96,8.68 -30.27,24.29 -35.61,41.75 -0.84,2.73 -1.56,5.47 -2.26,8.11 -1.64,6.2 -3.06,11.56 -5.43,15.25 -1.21,1.89 -1.8,6.13 -2.42,10.63 -1.57,11.31 -3.94,28.39 -21.6,28.39 -0.17,0 -0.38,0.02 -0.62,0.03 -0.44,0.02 -0.9,0.04 -1.38,0.04z"/>
  <path class="fil1" d="M61.77 145.9c-1.52,0 -2.83,-1.14 -3,-2.68 -0.19,-1.66 1.01,-3.16 2.67,-3.35 5.23,-0.59 10.52,-26.76 12.78,-37.93 1.46,-7.22 2.72,-13.46 3.97,-16.9 4.99,-13.64 16.06,-29.83 26.91,-39.37 24.76,-21.77 53.28,-29.66 95.34,-26.38 10.83,0.84 19.82,3.71 26.72,8.53 2.84,1.98 5.24,3.51 7.35,4.85 11.56,7.37 13.22,9.8 13.22,30.76 0,10 -3.21,24.18 -9.33,31.92 -1.04,1.31 -2.95,1.54 -4.26,0.5 -1.31,-1.04 -1.53,-2.94 -0.49,-4.25 5.21,-6.59 8.02,-19.43 8.02,-28.17 0,-19.01 -0.78,-19.51 -10.41,-25.65 -2.17,-1.38 -4.62,-2.94 -7.57,-5 -6,-4.19 -13.98,-6.7 -23.72,-7.46 -40.27,-3.12 -67.45,4.31 -90.87,24.9 -10.01,8.8 -20.62,24.32 -25.22,36.91 -1.1,3 -2.32,9.03 -3.73,16.01 -4.92,24.39 -9.1,41.74 -18.03,42.75 -0.12,0.01 -0.23,0.01 -0.35,0.01z"/>
  <path class="fil1" d="M82.72 164.08c-1.47,0 -3.02,-0.21 -4.64,-0.63 -3.99,-1.05 -17.6,-9.08 -19.83,-11.41 -1.15,-1.21 -1.1,-3.13 0.11,-4.28 1.21,-1.16 3.12,-1.11 4.28,0.1 1.58,1.6 14.22,9 16.97,9.73 3.12,0.82 5.57,0.48 7.52,-1.02 6.93,-5.35 6.93,-23.93 6.93,-30.93l3.03 -0.12 3.03 0.12c0,9.27 0,28.55 -9.3,35.72 -2.35,1.82 -5.06,2.72 -8.1,2.72z"/>
  <path class="fil1" d="M114.88 129.35c-2.23,0 -3.62,-0.27 -5.11,-0.56 -1.46,-0.28 -2.98,-0.58 -5.93,-0.58 -1.67,0 -3.03,-1.35 -3.03,-3.03 0,-1.67 1.36,-3.02 3.03,-3.02 3.53,0 5.42,0.36 7.09,0.69 2.43,0.47 4.35,0.84 12.35,-0.41 10.7,-1.67 18.56,-5.71 24.03,-12.36 16.97,-20.61 24.04,-20.01 36.07,-17.03 1.5,0.37 3.11,0.77 4.85,1.13 1.64,0.34 2.7,1.94 2.36,3.58 -0.34,1.64 -1.95,2.68 -3.58,2.35 -1.83,-0.38 -3.51,-0.79 -5.09,-1.18 -10.03,-2.48 -14.61,-3.62 -29.93,15 -6.46,7.84 -15.54,12.58 -27.77,14.49 -4.39,0.69 -7.24,0.93 -9.34,0.93z"/>
  <path class="fil1" d="M164.59 177.95c-1.12,0 -2.2,-0.63 -2.72,-1.7 -0.73,-1.51 -0.11,-3.32 1.4,-4.05 10.56,-5.15 39.31,-9.02 49.33,-0.6 1.28,1.08 1.45,2.99 0.37,4.27 -1.07,1.28 -2.98,1.45 -4.26,0.37 -7.12,-5.98 -32.95,-3.39 -42.8,1.4 -0.42,0.21 -0.87,0.31 -1.32,0.31z"/>
  <path class="fil1" d="M139.05 173.11c-0.61,0 -1.22,-0.19 -1.76,-0.57 -7.06,-5.05 -18.19,-6.11 -26.27,-6.11 -1.68,0 -3.03,-1.35 -3.03,-3.02 0,-1.68 1.35,-3.03 3.03,-3.03 8.97,0 21.43,1.25 29.79,7.24 1.37,0.97 1.68,2.86 0.71,4.22 -0.59,0.83 -1.52,1.27 -2.47,1.27z"/>
  <path class="fil1" d="M111.18 180.62c-1.17,0 -2.29,-0.69 -2.78,-1.84 -0.66,-1.54 0.06,-3.32 1.59,-3.97 9.81,-4.19 16.84,-3.24 26.45,-1.3 0.22,0.05 0.35,0.05 0.47,0.06 0.46,0.02 0.94,0.05 1.73,0.25 1.62,0.42 2.59,2.07 2.18,3.69 -0.42,1.62 -2.05,2.59 -3.69,2.18 -0.24,-0.06 -0.28,-0.07 -0.47,-0.07 -0.37,-0.02 -0.74,-0.03 -1.42,-0.17 -8.75,-1.76 -14.65,-2.58 -22.87,0.93 -0.39,0.16 -0.79,0.24 -1.19,0.24z"/>
  <path class="fil1" d="M201.81 187.3c-0.63,0 -1.27,-0.2 -1.81,-0.6 -5.42,-4.05 -19.66,-5.23 -24.59,-2.06 -1.41,0.91 -3.28,0.51 -4.18,-0.9 -0.91,-1.41 -0.51,-3.28 0.9,-4.19 7.56,-4.88 24.69,-2.78 31.49,2.29 1.34,1 1.62,2.9 0.62,4.24 -0.6,0.8 -1.51,1.22 -2.43,1.22z"/>
  <g>
   <path class="fil1" d="M171.03 231.58l0 0 0 0zm0 0l0 0.01 0 -0.01zm0 0.01l0 -0.01zm0 0.02l0 0 0 0zm-0.81 1.5c-0.13,0.13 -0.27,0.25 -0.43,0.36 0.14,-0.1 0.29,-0.22 0.43,-0.36zm-20.29 11.39c-1.07,0 -2.15,-0.15 -3.21,-0.45 -3.84,-1.11 -6.9,-4.16 -8.18,-8.15 -0.81,-2.5 -1.07,-2.73 -2.51,-3.99 -0.53,-0.47 -1.16,-1.01 -1.91,-1.75 -5.03,-4.89 -2.91,-9.36 -1.78,-11.76 0.29,-0.6 0.68,-1.43 0.68,-1.74 0,-1.68 1.36,-3.03 3.03,-3.03 1.67,0 3.03,1.35 3.03,3.03 0,1.67 -0.67,3.09 -1.26,4.34 -1.05,2.2 -1.4,2.95 0.52,4.82 0.66,0.64 1.21,1.12 1.68,1.53 1.95,1.7 3.02,2.78 4.28,6.7 0.68,2.1 2.17,3.62 4.1,4.18 1.9,0.54 3.87,0.06 5.58,-1.37 2.69,-2.27 3.06,-3.29 3.33,-4.03 0.7,-1.91 1.63,-3.09 4.78,-4.26 1.08,-0.4 2.09,-0.33 2.89,-0.28 0.67,0.05 1.22,0.09 1.87,-0.1 0.04,-0.02 0.07,-0.03 0.1,-0.05 -0.04,-0.12 -0.11,-0.3 -0.23,-0.53 -0.75,-1.5 -0.14,-3.32 1.36,-4.07 1.49,-0.74 3.31,-0.14 4.06,1.36 0.97,1.95 1.18,3.75 0.62,5.37 -0.5,1.43 -1.55,2.54 -3.14,3.31 -0.17,0.1 -0.36,0.19 -0.56,0.26 -1.92,0.67 -3.47,0.56 -4.49,0.49 -0.19,-0.01 -0.36,-0.03 -0.52,-0.03 -0.56,0.22 -0.85,0.36 -0.99,0.44 -0.02,0.06 -0.04,0.11 -0.06,0.16 -0.61,1.67 -1.5,3.54 -5.13,6.59 -2.35,1.98 -5.13,3.01 -7.94,3.01z"/>
  </g>
  <path class="fil1" d="M115.42 231.91c-0.89,0 -1.69,-0.57 -1.93,-1.47 -0.81,-2.97 1.96,-6.84 3.39,-7.75 2.26,-1.44 6.39,-3 10.38,-4.51 3.14,-1.19 6.38,-2.42 7.73,-3.25 0.95,-0.59 2.19,-0.3 2.78,0.65 0.58,0.95 0.29,2.2 -0.66,2.78 -1.68,1.04 -4.8,2.22 -8.42,3.59 -3.62,1.38 -7.73,2.93 -9.65,4.15 -0.66,0.53 -1.81,2.64 -1.66,3.29 0.26,1.07 -0.38,2.18 -1.45,2.45 -0.17,0.05 -0.34,0.07 -0.51,0.07z"/>
  <g>
   <path class="fil1" d="M173.99 220.5l-0.01 0 0.01 0zm30.82 18.69c-0.32,0 -0.64,-0.07 -0.94,-0.23 -0.55,-0.29 -2.28,-1.41 -5.84,-3.72 -6.51,-4.22 -21.7,-14.07 -24.23,-14.75 -1.03,-0.06 -1.85,-0.91 -1.88,-1.96 -0.03,-1.11 0.85,-2.04 1.97,-2.07l0.05 0c1.77,0 6.09,2.3 26.29,15.39 2.63,1.71 5.12,3.32 5.53,3.54 0.98,0.52 1.36,1.75 0.84,2.73 -0.37,0.68 -1.07,1.07 -1.79,1.07z"/>
  </g>
  <path class="fil1" d="M158.82 260.28c-10.06,0 -22.5,-2.5 -30.66,-12.89 -1.03,-1.32 -0.8,-3.22 0.51,-4.25 1.32,-1.03 3.22,-0.81 4.25,0.51 10.55,13.42 31.28,10.63 37.38,9.45 7.34,-1.41 9.6,-2.72 15.64,-6.2 1.45,-0.83 3.3,-0.33 4.14,1.11 0.83,1.45 0.34,3.3 -1.11,4.14 -6.82,3.93 -9.59,5.37 -17.52,6.9 -3.01,0.58 -7.51,1.23 -12.63,1.23z"/>
  <g>
   <path class="fil1" d="M251.04 206.62l0.02 0 -0.02 0zm-2.73 3.73c-0.13,0 -0.26,-0.01 -0.39,-0.02 -1.26,-0.12 -2.78,-1.07 -2.92,-3.33l-0.16 -2.6c-0.42,-6.84 -0.84,-13.92 -2.15,-20.19 -0.71,-3.41 -2.58,-6.37 -4.55,-9.49 -3.22,-5.09 -6.87,-10.86 -6.13,-19.67 0.08,-0.91 0.13,-1.61 0.17,-2.17 0.18,-2.62 0.24,-2.88 1.44,-6.87 0.48,-1.6 2.18,-2.51 3.77,-2.03 1.61,0.48 2.51,2.17 2.03,3.78 -1.06,3.5 -1.06,3.5 -1.2,5.54 -0.04,0.58 -0.09,1.3 -0.17,2.26 -0.57,6.78 2.24,11.22 5.21,15.92 2.17,3.45 4.42,7.01 5.36,11.5 0.72,3.46 1.19,7.09 1.53,10.76 0.24,-0.8 0.42,-1.41 0.5,-1.73 1.06,-4.11 2.97,-5.11 5,-5.84 0.31,-0.12 0.64,-0.23 1,-0.42 1.48,-0.77 3.31,-0.2 4.08,1.28 0.78,1.49 0.21,3.31 -1.28,4.09 -0.67,0.35 -1.26,0.57 -1.74,0.74 -0.24,0.09 -0.58,0.21 -0.67,0.27 0,0 -0.24,0.28 -0.52,1.39 -0.21,0.83 -1.36,4.58 -2.53,8.01 -2.1,6.16 -3.11,8.82 -5.68,8.82z"/>
  </g>
  <path class="fil1" d="M118.62 315.05c-0.02,0.03 -0.04,0.05 -0.05,0.07 0.01,-0.02 0.03,-0.04 0.05,-0.07zm-6.16 32.97c-1.21,0 -2.33,-0.66 -2.96,-1.78 -2.37,-4.15 2.22,-31.95 4.14,-34.63 1.66,-2.34 1.06,-14.07 0.81,-19.08 -0.11,-2.23 -0.21,-4.15 -0.21,-5.54 0,-1.67 1.36,-3.03 3.03,-3.03 1.67,0 3.03,1.36 3.03,3.03 0,1.23 0.09,3.08 0.2,5.23 0.53,10.53 0.74,18.91 -1.82,22.74 -0.84,1.97 -2.26,10.16 -3.14,17.34 2.48,-4.15 5.64,-7.96 7.58,-10 3.41,-3.59 5.92,-3.15 9.72,-2.5 1.4,0.25 3.16,0.55 5.51,0.78 3.51,0.36 7.68,0.54 12.09,0.73 7.62,0.33 15.49,0.68 20.81,1.96 6.05,1.46 19.82,-1.01 23.26,-4.99 0.16,-0.19 17.07,-18.73 31.31,-18.73 0.11,0 0.22,0 0.33,0 7.72,0.16 14.15,7.17 18.4,11.81 0.07,0.08 0.14,0.15 0.21,0.23 2.2,-11.08 6.09,-37.94 2.4,-46.89 -0.35,-0.86 -0.37,-1.5 -0.32,-2.06 0,-1.67 1.35,-3.08 3.03,-3.08 1.67,0 3.03,1.31 3.03,2.98 0,0.07 0,0.14 0,0.2 5,13.1 -1.75,49.36 -3.24,54.58 -0.37,1.32 -1.33,2.28 -2.58,2.57 -2.4,0.57 -4.04,-1.21 -7,-4.44 -3.55,-3.88 -8.92,-9.74 -14.06,-9.84 -0.07,-0.01 -0.14,-0.01 -0.21,-0.01 -10.07,0 -24.47,14.03 -26.72,16.64 -5.42,6.27 -21.82,8.71 -29.26,6.91 -4.75,-1.14 -12.32,-1.47 -19.65,-1.79 -4.5,-0.2 -8.75,-0.38 -12.43,-0.75 -2.57,-0.25 -4.52,-0.59 -5.95,-0.84 -3.12,-0.54 -3.12,-0.54 -4.29,0.7 -2.3,2.42 -7.13,8.33 -8.98,13.41 -1.99,5.46 -3.29,7.92 -5.78,8.13 -0.1,0.01 -0.19,0.01 -0.29,0.01z"/>
  <path class="fil1" d="M170.71 317.66c-6.23,0 -16.27,-2.24 -23.76,-4.58 -13.95,-4.36 -17.56,-8.82 -24.74,-17.7 -0.98,-1.2 -2.02,-2.5 -3.18,-3.9 -6.51,-7.86 -8.53,-14.26 -10.66,-21.04 -0.87,-2.76 -1.76,-5.61 -3.01,-8.78 -2.4,-6.1 -4.58,-9.28 -6.34,-11.84 -3.98,-5.8 -5.66,-9.03 -3.73,-24.7l0.04 -0.33c1.21,-9.85 1.62,-13.17 -1.16,-22.74 -0.05,-0.16 -0.08,-0.33 -0.1,-0.5l-0.09 -0.76c-0.19,-1.66 1.01,-3.16 2.67,-3.34 1.66,-0.17 3.16,1 3.35,2.67l0.06 0.49c3.04,10.58 2.52,14.81 1.28,24.92l-0.04 0.33c-1.73,14.06 -0.43,15.95 2.71,20.53 1.83,2.67 4.33,6.31 6.98,13.05 1.33,3.37 2.26,6.33 3.16,9.18 2.12,6.74 3.79,12.05 9.54,19 1.18,1.42 2.24,2.73 3.23,3.95 7.01,8.67 9.64,11.91 21.84,15.73 9.34,2.92 19.44,4.73 23.49,4.22 6.49,-0.81 13.64,-3.32 17,-5.96 3.5,-2.75 9.08,-5.37 15.55,-8.41 12.56,-5.89 28.19,-13.23 29.35,-22.63 0.15,-1.2 0.8,-2.75 2.13,-5.86 2.23,-5.2 5.59,-13.07 6.55,-20.84 0.56,-4.53 0.6,-11.72 0.65,-18.68 0.05,-7.55 0.09,-14.07 0.76,-17.28 0.33,-1.64 1.93,-2.7 3.58,-2.35 1.63,0.34 2.68,1.94 2.34,3.58 -0.54,2.63 -0.58,9.47 -0.63,16.09 -0.04,7.13 -0.09,14.5 -0.69,19.38 -1.06,8.62 -4.78,17.3 -6.99,22.49 -0.75,1.73 -1.59,3.69 -1.69,4.25 -1.56,12.68 -18.88,20.81 -32.78,27.34 -5.88,2.75 -11.44,5.36 -14.39,7.68 -4.26,3.35 -12.29,6.24 -19.99,7.21 -0.68,0.09 -1.45,0.13 -2.29,0.13z"/>
  <path class="fil1" d="M96.65 211.99c-0.64,0 -1.29,-0.2 -1.84,-0.63 -6.3,-4.85 -8.99,-15.84 -10.14,-24.21 -0.52,-3.8 -0.13,-18.77 4.51,-24.21 0.15,-0.17 0.29,-0.49 0.45,-0.85 0.45,-1 1.28,-2.86 3.6,-3.46 1.61,-0.41 3.27,0.56 3.69,2.18 0.37,1.44 -0.36,2.9 -1.65,3.5 -0.04,0.08 -0.07,0.17 -0.11,0.25 -0.28,0.62 -0.66,1.47 -1.37,2.31 -2.63,3.08 -3.71,15.09 -3.12,19.46 1.38,10.09 4.24,17.47 7.83,20.24 1.33,1.02 1.57,2.92 0.56,4.24 -0.6,0.78 -1.5,1.18 -2.41,1.18z"/>
  <g>
   <path class="fil1" d="M111.01 250.93c0,0 0,0 0,0.01 0,-0.01 0,-0.01 0,-0.01zm0.39 0.71l0.02 0 -0.02 0zm-2.73 4.25c-0.87,0 -1.73,-0.38 -2.33,-1.1 -1.24,-1.5 -1.47,-3.72 -0.31,-13.22l0.13 -1.06c0.19,-1.67 1.69,-2.84 3.35,-2.67 1.66,0.18 2.86,1.68 2.67,3.34l-0.14 1.13c-0.74,6.1 -0.79,8.37 -0.67,9.18 0.63,1.24 0.34,2.79 -0.77,3.71 -0.56,0.46 -1.25,0.69 -1.93,0.69z"/>
  </g>
  <path class="fil1" d="M121.85 254.39c-1.38,0 -2.63,-0.95 -2.94,-2.36 -0.86,-3.74 -0.82,-5.71 -0.78,-8.43 0.02,-0.68 0.03,-1.42 0.03,-2.27 -0.42,-4.78 4.61,-6.58 7.04,-7.45 0.54,-0.19 1.03,-0.35 1.4,-0.53 1.5,-0.74 3.31,-0.12 4.05,1.38 0.73,1.5 0.11,3.32 -1.39,4.05 -0.61,0.3 -1.29,0.55 -2.03,0.81 -0.84,0.3 -2.52,0.9 -3.02,1.39 0,0.07 0.01,0.15 0.01,0.2 0,0.95 -0.02,1.78 -0.03,2.52 -0.05,2.64 -0.07,3.97 0.62,6.98 0.37,1.64 -0.65,3.26 -2.28,3.63 -0.23,0.05 -0.45,0.08 -0.68,0.08z"/>
  <path class="fil1" d="M124.86 288.1c-1.23,0 -2.39,-0.76 -2.84,-1.98 -1.05,-2.84 -4.33,-12.8 -2.81,-21.75 0.27,-1.64 1.84,-2.77 3.48,-2.48 1.66,0.28 2.77,1.84 2.49,3.49 -1.01,5.95 0.64,13.53 2.52,18.65 0.58,1.57 -0.22,3.31 -1.79,3.89 -0.35,0.12 -0.7,0.18 -1.05,0.18z"/>
  <path class="fil1" d="M136.47 297.32c-0.92,0 -1.83,-0.41 -2.45,-1.16 -0.73,-0.91 -2.67,-3.31 -2.67,-22.1 0,-1.68 1.35,-3.03 3.02,-3.03 1.68,0 3.03,1.35 3.03,3.03 0,10.36 0.72,17.11 1.42,18.42 1.06,1.3 0.81,3.14 -0.49,4.19 -0.55,0.44 -1.2,0.65 -1.86,0.65z"/>
  <g>
   <path class="fil1" d="M151.32 301.08c0,0 0,0 0,0 0,0 0,0 0,0zm0.35 0.53l0.02 0 -0.02 0zm-2.61 4.52c-0.83,0 -1.66,-0.34 -2.25,-1.01 -2.05,-2.29 -2.61,-14.26 -2.61,-14.37 0,-1.68 1.35,-3.03 3.03,-3.03 1.67,0 3.02,1.35 3.02,3.03 0,1.66 0.83,9.1 1.38,10.75 0.77,1.23 0.56,2.86 -0.55,3.85 -0.58,0.52 -1.3,0.78 -2.02,0.78z"/>
  </g>
  <path class="fil1" d="M157.15 290.93c-0.68,0 -1.37,-0.23 -1.94,-0.71 -0.9,-0.75 -1.25,-1.92 -1.01,-2.99 0.14,-1.12 0.61,-7.18 0.78,-9.5 0.09,-1.15 0.16,-1.94 0.17,-2.02 0.18,-1.66 1.69,-2.86 3.35,-2.67 1.65,0.19 2.84,1.67 2.67,3.32 -0.02,0.16 -0.07,0.86 -0.15,1.83 -0.82,10.79 -0.82,10.79 -1.54,11.65 -0.6,0.72 -1.46,1.09 -2.33,1.09z"/>
  <path class="fil1" d="M179.44 308.8c-0.72,0 -1.45,-0.26 -2.03,-0.78 -1.13,-1.02 -1.32,-2.7 -0.5,-3.93 0.62,-2.13 -0.11,-11.4 -0.62,-14.13 -0.3,-1.64 0.79,-3.22 2.43,-3.53 1.65,-0.29 3.22,0.79 3.53,2.43 0.03,0.16 2.49,15.53 -0.56,18.93 -0.6,0.67 -1.42,1.01 -2.25,1.01z"/>
  <path class="fil1" d="M192.79 291.44c-1.59,0 -2.92,-1.23 -3.02,-2.84 -0.07,-1.03 0.03,-3.97 0.18,-8.34 0.08,-2.15 0.14,-4.09 0.14,-4.87 0,-1.67 1.36,-3.03 3.03,-3.03 1.68,0 3.03,1.36 3.03,3.03 0,0.81 -0.07,2.83 -0.15,5.08 -0.09,2.76 -0.24,6.94 -0.19,7.75 0.11,1.67 -1.16,3.11 -2.83,3.21 -0.07,0.01 -0.13,0.01 -0.19,0.01z"/>
  <path class="fil1" d="M201.47 257.73c-1.67,0 -3.03,-1.36 -3.03,-3.03 0,-0.33 -0.06,-1.75 -0.81,-6.21 -0.64,-3.77 -0.64,-3.77 -5.62,-6.21 -1.37,-0.68 -3.11,-1.17 -6.68,-0.31 -1.96,0.47 -3.88,1.09 -5.73,1.7 -3.91,1.27 -7.95,2.6 -12.7,2.6 -1.67,0 -3.03,-1.36 -3.03,-3.03 0,-1.68 1.36,-3.03 3.03,-3.03 3.79,0 7.2,-1.12 10.82,-2.3 1.97,-0.64 4,-1.3 6.21,-1.83 4.27,-1.02 7.58,-0.79 10.72,0.75 6.06,2.96 7.85,4.11 8.95,10.66 0.6,3.52 0.9,5.94 0.9,7.21 0,1.67 -1.36,3.03 -3.03,3.03z"/>
  <path class="fil1" d="M212.99 276.25c-0.04,0 -0.08,0 -0.12,0 -1.67,-0.07 -2.97,-1.47 -2.91,-3.14 0.09,-2.43 0.25,-4.06 0.39,-5.37 0.25,-2.58 0.38,-3.87 -0.36,-8.57 -0.26,-1.65 0.87,-3.2 2.52,-3.46 1.65,-0.26 3.2,0.87 3.47,2.52 0.85,5.47 0.67,7.32 0.39,10.11 -0.13,1.29 -0.27,2.76 -0.36,5 -0.06,1.63 -1.41,2.91 -3.02,2.91z"/>
  <g>
   <path class="fil1" d="M205.05 294.11l0 0 0 0zm2.42 4.84c-0.62,0 -1.26,-0.2 -1.8,-0.6 -1.15,-0.86 -1.52,-2.37 -0.97,-3.63 0.36,-1.65 0.92,-9.52 0.92,-10.82 0,-1.67 1.35,-3.03 3.03,-3.03 1.67,0 3.02,1.36 3.02,3.03 0,0.12 -0.32,11.89 -1.76,13.83 -0.6,0.8 -1.51,1.22 -2.44,1.22z"/>
  </g>
  <path class="fil1" d="M228.84 275.58c-1.67,0 -3.03,-1.35 -3.03,-3.02 0,-2 -0.96,-6.69 -1.74,-10.46 -0.43,-2.07 -0.82,-3.99 -1.05,-5.41 -0.28,-1.65 0.84,-3.21 2.49,-3.48 1.65,-0.27 3.21,0.85 3.48,2.5 0.22,1.36 0.6,3.19 1.01,5.17 0.92,4.45 1.87,9.06 1.87,11.68 0,1.67 -1.36,3.02 -3.03,3.02z"/>
  <path class="fil1" d="M240.35 252.89c-1.42,0 -2.69,-1.01 -2.97,-2.47 -0.32,-1.65 -0.48,-3.07 -0.63,-4.33 -0.3,-2.6 -0.52,-4.47 -1.82,-7.33 -0.7,-1.52 -0.02,-3.31 1.5,-4.01 1.51,-0.69 3.31,-0.02 4.01,1.5 1.7,3.72 2.01,6.35 2.33,9.14 0.14,1.21 0.28,2.46 0.56,3.9 0.31,1.64 -0.76,3.23 -2.41,3.54 -0.19,0.04 -0.38,0.06 -0.57,0.06z"/>
  <path class="fil1" d="M67.78 318.98c-0.86,0 -1.73,-0.38 -2.33,-1.09 -1.07,-1.29 -0.89,-3.2 0.39,-4.27 0.58,-0.48 0.81,-0.54 2.62,-0.95 38.76,-8.86 45,-16.69 46,-18.87 0.39,-0.88 0.36,-1.59 -0.11,-2.45 -0.79,-1.47 -0.24,-3.31 1.23,-4.1 1.47,-0.8 3.31,-0.25 4.1,1.22 1.37,2.52 1.47,5.23 0.29,7.82 -3.62,8.01 -20.5,15.51 -50.16,22.29 -0.53,0.12 -0.9,0.2 -1.09,0.25 -0.31,0.1 -0.62,0.15 -0.94,0.15z"/>
  <path class="fil1" d="M305.78 303.62c-0.34,0 -0.68,-0.05 -1.01,-0.17 -2.66,-0.95 -6.06,-1.54 -9.66,-2.15 -4.67,-0.81 -9.96,-1.72 -14.74,-3.65 -4.56,-1.84 -19.97,-10.01 -28.24,-14.4l-1.5 -0.79c-1.48,-0.79 -2.04,-2.62 -1.26,-4.1 0.79,-1.48 2.62,-2.04 4.1,-1.26l1.5 0.8c7.59,4.03 23.4,12.41 27.66,14.13 4.19,1.69 8.93,2.51 13.51,3.3 3.86,0.66 7.51,1.29 10.66,2.41 1.57,0.56 2.39,2.29 1.84,3.87 -0.45,1.24 -1.61,2.01 -2.86,2.01z"/>
  <path class="fil2" d="M125.12 172.39c2.68,0 4.85,2.17 4.85,4.86 0,2.68 -2.17,4.85 -4.85,4.85 -2.68,0 -4.86,-2.17 -4.86,-4.85 0,-2.69 2.18,-4.86 4.86,-4.86z"/>
  <path class="fil2" d="M187.79 177.19c2.68,0 4.85,2.17 4.85,4.85 0,2.68 -2.17,4.86 -4.85,4.86 -2.68,0 -4.86,-2.18 -4.86,-4.86 0,-2.68 2.18,-4.85 4.86,-4.85z"/>
  <path class="fil1" d="M91.73 229.76c-0.15,0 -0.31,-0.01 -0.47,-0.04 -7.31,-1.15 -13.52,-15.7 -13.24,-21.82 0.53,-11.32 -1.3,-18.97 -3.08,-26.36 -1.33,-5.55 -2.6,-10.8 -2.6,-16.9 0,-1.67 1.36,-3.02 3.03,-3.02 1.67,0 3.03,1.35 3.03,3.02 0,5.39 1.13,10.07 2.43,15.49 1.79,7.44 3.81,15.87 3.24,28.05 -0.22,4.63 5.25,15.11 8.13,15.56 1.65,0.26 2.78,1.81 2.52,3.46 -0.24,1.49 -1.52,2.56 -2.99,2.56z"/>
  <path class="fil1" d="M253.62 255.8c-1.67,0 -3.03,-1.36 -3.03,-3.03 0,-1.68 1.36,-3.03 3.03,-3.03 5.89,0 19.89,-4.42 22.52,-8.34 0.93,-1.39 2.81,-1.76 4.21,-0.83 1.38,0.94 1.75,2.82 0.82,4.21 -4.28,6.36 -20.65,11.02 -27.55,11.02z"/>
  <g>
   <path class="fil1" d="M253.72 233.1l0 0 0 0zm22.93 9.68c-0.2,0 -0.4,-0.02 -0.6,-0.07 -0.27,-0.05 -1.56,-0.42 -2.26,-0.63l-0.1 -0.03c-8.39,-0.65 -14.17,-4.79 -17.64,-7.27 -0.94,-0.66 -2.09,-1.49 -2.58,-1.69 -1.56,-0.07 -2.82,-1.34 -2.87,-2.92 -0.06,-1.67 1.25,-3.07 2.92,-3.13 1.98,-0.1 3.71,1.14 6.05,2.82 3.37,2.41 7.99,5.71 14.86,6.17 0.37,0.03 0.49,0.07 1.08,0.24 0.54,0.16 1.5,0.45 1.8,0.52 1.6,0.39 2.63,2 2.27,3.61 -0.31,1.41 -1.54,2.38 -2.93,2.38z"/>
  </g>
  <path class="fil1" d="M172.67 286.25c-0.69,0 -1.38,-0.23 -1.95,-0.71 -0.89,-0.76 -1.24,-1.92 -1,-2.99 0.14,-1.11 0.61,-7.16 0.79,-9.49 0.08,-1.15 0.15,-1.94 0.16,-2.03 0.19,-1.66 1.69,-2.85 3.35,-2.66 1.65,0.19 2.84,1.67 2.67,3.32 -0.02,0.16 -0.07,0.86 -0.15,1.84 -0.82,10.78 -0.82,10.78 -1.55,11.65 -0.6,0.71 -1.46,1.07 -2.32,1.07z"/>
  <path class="fil1" d="M167.76 312.54c-0.45,0 -0.91,-0.1 -1.35,-0.32 -1.05,-0.52 -1.66,-1.58 -1.67,-2.68 -0.12,-1.09 -1.05,-6.97 -1.4,-9.23 -0.2,-1.24 -0.33,-2.12 -0.34,-2.21 -0.19,-1.66 1,-3.16 2.66,-3.35 1.64,-0.2 3.14,0.98 3.35,2.62 0.02,0.18 0.14,0.95 0.31,2 1.66,10.5 1.66,10.5 1.15,11.5 -0.52,1.06 -1.6,1.67 -2.71,1.67z"/>
  <path class="fil1" d="M281.48 92.72c-1.87,0 -2.75,-0.22 -3.78,-0.95 -0.12,-0.08 -0.13,-0.1 -0.29,-0.16 -3.44,-1.38 -5.99,-5.38 -8.94,-10 -4.16,-6.53 -8.87,-13.92 -16.03,-13.92 -1.67,0 -3.03,-1.36 -3.03,-3.03 0,-1.67 1.36,-3.03 3.03,-3.03 10.48,0 16.39,9.27 21.14,16.72 2.08,3.27 4.45,6.98 6.1,7.65 0.59,0.24 1,0.48 1.28,0.66 0.14,0.01 0.31,0.01 0.52,0.01 1.67,0 3.03,1.35 3.03,3.03 0,1.67 -1.36,3.02 -3.03,3.02z"/>
  <path class="fil1" d="M106.4 108.73c-0.83,0 -1.61,-0.51 -1.9,-1.35 -0.37,-1.05 0.18,-2.2 1.23,-2.57 1,-0.35 2.03,-0.66 3.09,-0.98 6.2,-1.85 13.23,-3.95 21.15,-17.61 1.67,-2.88 3.33,-6.2 4.93,-9.86 3.65,-8.33 14.09,-14.38 22.51,-16.04 13.25,-2.62 26.07,2.67 32.54,6.05 0.99,0.52 1.37,1.74 0.86,2.73 -0.52,0.99 -1.74,1.37 -2.73,0.85 -6,-3.14 -17.86,-8.05 -29.89,-5.67 -8.48,1.67 -16.91,7.56 -19.59,13.7 -1.67,3.8 -3.39,7.25 -5.14,10.26 -8.72,15.05 -16.9,17.5 -23.48,19.46 -1,0.3 -1.97,0.59 -2.91,0.92 -0.22,0.08 -0.45,0.11 -0.67,0.11z"/>
 </g>
</svg>
