<?xml version="1.0" encoding="UTF-8"?>
<!DOCTYPE svg PUBLIC "-//W3C//DTD SVG 1.1//EN" "http://www.w3.org/Graphics/SVG/1.1/DTD/svg11.dtd">
<!-- Creator: CorelDRAW 2018 (64-Bit) -->
<svg xmlns="http://www.w3.org/2000/svg" xml:space="preserve" width="845px" height="845px" version="1.1" style="shape-rendering:geometricPrecision; text-rendering:geometricPrecision; image-rendering:optimizeQuality; fill-rule:evenodd; clip-rule:evenodd"
viewBox="0 0 361.04 361.04"
 xmlns:xlink="http://www.w3.org/1999/xlink">
 <defs>
  <style type="text/css">
   <![CDATA[
    .fil0 {fill:none}
    .fil2 {fill:black}
    .fil1 {fill:black;fill-rule:nonzero}
   ]]>
  </style>
 </defs>
 <g id="Слой_x0020_1">
  <metadata id="CorelCorpID_0Corel-Layer"/>
  <rect class="fil0" width="361.04" height="361.04"/>
 </g>
 <g id="_1">
  <metadata id="CorelCorpID_1Corel-Layer"/>
  <path class="fil1" d="M160.44 163.35c-0.34,0 -0.68,-0.06 -1.02,-0.18 -3.18,-1.14 -7.85,-2.04 -12.8,-3 -2.44,-0.48 -4.97,-0.97 -7.51,-1.52 -2.72,-0.59 -5.54,-1.39 -8.03,-2.09 -2.24,-0.64 -4.36,-1.24 -6,-1.58 -1.63,-0.33 -2.69,-1.93 -2.36,-3.57 0.34,-1.64 1.94,-2.7 3.58,-2.36 1.86,0.38 4.08,1.01 6.44,1.68 2.52,0.72 5.12,1.45 7.66,2 2.49,0.55 4.98,1.03 7.38,1.49 5.17,1.01 10.07,1.96 13.68,3.25 1.58,0.56 2.4,2.3 1.83,3.87 -0.44,1.24 -1.6,2.01 -2.85,2.01z"/>
  <path class="fil1" d="M190.62 162.67c-1.09,0 -2.15,-0.59 -2.69,-1.63 -0.77,-1.48 -0.2,-3.31 1.28,-4.08 4.47,-2.33 15.09,-3.97 28.52,-5.87 5.01,-0.71 9.33,-1.32 11.33,-1.81 1.64,-0.39 3.26,0.62 3.65,2.24 0.4,1.63 -0.6,3.26 -2.23,3.65 -2.29,0.55 -6.53,1.15 -11.9,1.91 -9.03,1.28 -22.67,3.22 -26.56,5.25 -0.45,0.23 -0.93,0.34 -1.4,0.34z"/>
  <path class="fil1" d="M135.65 166.28c0,0 0,0 0,0 0,0 0,0 0,0zm-2.84 1.99c-0.35,0 -0.7,-0.06 -1.04,-0.19 -1.57,-0.58 -2.38,-2.31 -1.8,-3.89 1.33,-3.62 10.28,-6.39 13.52,-6.39 2,0 12.98,1.28 16.13,4.71 1.13,1.23 1.05,3.15 -0.18,4.28 -1.23,1.13 -3.14,1.05 -4.28,-0.18 -1.25,-1.12 -8.64,-2.75 -11.67,-2.75 -2.1,0 -6.92,1.94 -8.05,2.89 -0.55,0.95 -1.56,1.52 -2.63,1.52z"/>
  <path class="fil1" d="M197.47 161.16c0,0 0,0 0,0 0,0 0,0 0,0zm1.11 5.92c-0.73,0 -1.47,-0.27 -2.05,-0.81 -1.23,-1.13 -1.31,-3.05 -0.17,-4.27 0.51,-0.56 0.99,-0.87 1.39,-1.07 7.12,-5.74 19.76,-5.08 26.81,-0.83 1.43,0.87 1.89,2.73 1.02,4.16 -0.86,1.43 -2.72,1.89 -4.15,1.03 -5.26,-3.17 -15.16,-3.65 -20.04,0.49 -0.28,0.23 -0.54,0.38 -0.73,0.47 -0.58,0.55 -1.33,0.83 -2.08,0.83z"/>
  <path class="fil1" d="M170.74 174.91c0,0 0,0 0,0 0,0 0,0 0,0zm17.16 2.01c-0.3,0 -0.61,-0.07 -0.91,-0.22 -1.8,-0.91 -2.88,-1.65 -3.66,-2.2 -1.5,-1.03 -1.91,-1.31 -6.94,-1.31 -0.89,0.06 -4.93,1.37 -5.82,1.88 -0.76,0.67 -1.92,0.66 -2.68,-0.04 -0.82,-0.75 -0.87,-2.03 -0.12,-2.85 1.19,-1.3 7.4,-3.03 8.62,-3.03 5.99,0 7.05,0.53 9.23,2.03 0.73,0.51 1.63,1.13 3.19,1.92 1,0.5 1.4,1.71 0.89,2.71 -0.35,0.7 -1.06,1.11 -1.8,1.11z"/>
  <path class="fil1" d="M144.8 159.35c-11.69,0 -21.2,8.98 -21.2,20.01 0,11.04 9.51,20.02 21.2,20.02 11.69,0 21.21,-8.98 21.21,-20.02 0,-11.03 -9.52,-20.01 -21.21,-20.01zm0 44.07c-13.92,0 -25.24,-10.79 -25.24,-24.06 0,-13.26 11.32,-24.05 25.24,-24.05 13.92,0 25.24,10.79 25.24,24.05 0,13.27 -11.32,24.06 -25.24,24.06z"/>
  <path class="fil1" d="M213.19 157.73c-11.69,0 -21.2,8.99 -21.2,20.02 0,11.04 9.51,20.02 21.2,20.02 11.69,0 21.21,-8.98 21.21,-20.02 0,-11.03 -9.52,-20.02 -21.21,-20.02zm0 44.08c-13.92,0 -25.24,-10.79 -25.24,-24.06 0,-13.26 11.32,-24.05 25.24,-24.05 13.92,0 25.24,10.79 25.24,24.05 0,13.27 -11.32,24.06 -25.24,24.06z"/>
  <path class="fil1" d="M236.34 178.96c-1.19,0 -2.32,-0.7 -2.8,-1.87 -0.64,-1.54 0.09,-3.31 1.64,-3.95l3.87 -1.61 10.69 -22.83c0.71,-1.52 2.52,-2.17 4.03,-1.46 1.51,0.71 2.17,2.51 1.46,4.02l-11.19 23.91c-0.32,0.68 -0.89,1.22 -1.59,1.51l-4.96 2.05c-0.37,0.16 -0.77,0.23 -1.15,0.23z"/>
  <path class="fil1" d="M121.74 179.83c-0.3,0 -0.61,-0.05 -0.91,-0.14l-5.02 -1.56c-0.81,-0.25 -1.48,-0.83 -1.84,-1.6l-11.36 -24.07c-0.71,-1.51 -0.06,-3.32 1.45,-4.03 1.51,-0.71 3.31,-0.07 4.03,1.45l10.79 22.86 3.75 1.17c1.6,0.49 2.49,2.19 2,3.79 -0.41,1.29 -1.6,2.13 -2.89,2.13z"/>
  <path class="fil1" d="M180.94 226.8c-0.28,0 -0.56,-0.01 -0.85,-0.03 -2.97,-0.18 -6.77,-1.41 -8.52,-4.34 -1.25,-2.09 -1.68,-2.35 -2.62,-2.94 -0.63,-0.39 -1.5,-0.93 -2.62,-1.89 -5.78,-4.93 -6.23,-6.8 -6.12,-11.29 0.03,-1.67 1.42,-3.05 3.09,-2.97 1.68,0.03 3,1.4 2.96,3.07l0 0.04c-0.06,2.78 -0.07,3.06 4,6.55 0.78,0.66 1.31,0.99 1.88,1.34 1.63,1.02 2.76,1.86 4.63,4.98 0.3,0.51 1.76,1.29 3.68,1.41 1.61,0.09 2.83,-0.34 3.2,-0.81 0.32,-0.42 0.63,-0.68 0.82,-0.84 0.08,-0.07 0.17,-0.17 0.36,-0.52 2.3,-4.29 2.94,-5.22 5.11,-6.29 0.53,-0.26 1.2,-0.59 2.41,-1.51 2.59,-1.97 2.94,-2.75 1.15,-7.28 -0.62,-1.55 0.14,-3.31 1.7,-3.93 1.55,-0.61 3.31,0.14 3.93,1.7 2.31,5.82 2.54,10.03 -3.12,14.33 -1.68,1.28 -2.71,1.79 -3.39,2.12 -0.15,0.07 -0.27,0.12 -0.39,0.2 -0.36,0.34 -1.6,2.65 -2.06,3.52 -0.7,1.3 -1.29,1.86 -1.78,2.28 -1.53,1.97 -4.23,3.1 -7.45,3.1z"/>
  <g>
   <path class="fil1" d="M204.46 241.7l-0.01 0 0.01 0zm-0.01 0c0,0 0,0 0,0 0,0 0,0 0,0zm-21.1 5.2c-1.98,0 -4.21,-0.11 -6.63,-0.25 -1.81,-0.1 -3.53,-0.2 -4.53,-0.16 -5.95,0.19 -10.29,-1.35 -13.15,-2.37 -1.17,-0.42 -2.38,-0.85 -2.92,-0.85 -1.68,0 -3.03,-1.35 -3.03,-3.02 0,-1.68 1.35,-3.03 3.03,-3.03 1.59,0 3.15,0.55 4.96,1.2 2.71,0.96 6.09,2.17 10.92,2.02 1.27,-0.03 3.03,0.06 5.06,0.17 3.42,0.19 9.15,0.51 10.95,-0.24 1.04,-0.43 2.67,-0.79 5.25,-1.36 2.69,-0.58 6.75,-1.47 8.12,-2.26l0.23 -0.16c0.51,-0.35 1.03,-0.72 1.78,-0.85 1.65,-0.29 3.22,0.8 3.51,2.45 0.24,1.36 -0.47,2.68 -1.67,3.26l-0.15 0.1c-0.25,0.17 -0.5,0.34 -0.68,0.45 -2.03,1.17 -5.36,1.95 -9.85,2.93 -1.62,0.36 -3.63,0.79 -4.22,1.04 -1.7,0.7 -4.08,0.93 -6.98,0.93z"/>
  </g>
  <g>
   <path class="fil1" d="M100.19 145.64l0 0 0 0zm0.94 62.69c-1.7,0 -3.31,-0.53 -4.77,-1.57 -7.44,-5.3 -7.77,-21.87 -7.77,-22.03 0,-3.79 -1.45,-8.72 -2.73,-13.06 -1.26,-4.26 -2.34,-7.94 -2.18,-10.68 0.09,-1.66 -0.38,-4.34 -0.85,-6.94 -1.08,-6.07 -2.2,-12.34 1.48,-15.54 2.52,-2.19 4.93,-2.33 6.52,-2.05 4.8,0.83 7.89,6.3 9.38,8.93 0.14,0.26 0.26,0.48 0.35,0.62 0.92,1.12 0.94,2.76 -0.02,3.89 -1.08,1.28 -2.99,1.44 -4.27,0.35 -0.52,-0.44 -0.79,-0.92 -1.34,-1.88 -2.09,-3.72 -3.82,-5.72 -5.13,-5.95 -0.15,-0.01 -0.63,-0.11 -1.52,0.66 -1.08,0.95 0.04,7.22 0.51,9.9 0.55,3.08 1.07,5.99 0.94,8.36 -0.1,1.69 0.93,5.21 1.94,8.61 1.39,4.74 2.98,10.11 2.98,14.78 0,4.66 1.79,14.65 5.22,17.1 0.51,0.36 1.14,0.64 2.28,0.25 1.58,-0.54 3.3,0.3 3.84,1.88 0.55,1.58 -0.29,3.3 -1.87,3.85 -1.02,0.34 -2.02,0.52 -2.99,0.52z"/>
  </g>
  <g>
   <path class="fil1" d="M101.3 175.64l0 0 0 0zm0 0.01l0 -0.01zm0.01 0.01c0,0 0,0 0,0 0,0 0,0 0,0zm0.01 0l0 0 0 0zm0 0c0.01,0 0.01,0 0.02,0 -0.01,0 -0.01,0 -0.02,0zm0.02 0c0.07,0.02 0.15,0.03 0.23,0.05 -0.08,-0.02 -0.15,-0.03 -0.23,-0.05zm0.23 0.05c0,0 0,0 0,0.01 0,-0.01 0,-0.01 0,-0.01zm1.5 0.98l0.02 0 -0.02 0zm-2.3 4.97c-0.17,0 -0.34,-0.01 -0.52,-0.04 -1.41,-0.25 -1.86,-0.52 -4.94,-6.21 -2.85,-5.3 -5.47,-17.91 -5.36,-23.45 0.03,-1.65 1.38,-2.97 3.02,-2.97 0.02,0 0.04,0 0.06,0.01 1.68,0.03 3,1.41 2.97,3.08 -0.1,5 2.5,16.47 4.64,20.46 0.42,0.76 1.87,3.32 2.35,4.04 0.62,0.67 0.93,1.61 0.76,2.58 -0.25,1.47 -1.53,2.5 -2.98,2.5z"/>
  </g>
  <path class="fil1" d="M254.34 203.62c-0.16,0 -0.33,-0.01 -0.51,-0.03 -1.66,-0.14 -2.9,-1.6 -2.76,-3.27 0.14,-1.62 1.5,-2.85 3.13,-2.77 0.44,-0.25 1.51,-1.37 3.23,-6.33l0.12 -0.33c3.02,-8.66 3.34,-14.68 3.74,-22.3 0.12,-2.26 0.24,-4.63 0.45,-7.22 0.18,-2.39 0.75,-4.62 1.35,-6.98 0.69,-2.71 1.4,-5.51 1.54,-8.69 0.13,-3.17 -1.52,-4.25 -2.24,-4.56 -0.93,-0.41 -1.9,-0.32 -2.43,0.22 -1.18,1.18 -3.1,1.18 -4.28,-0.01 -1.18,-1.18 -1.18,-3.09 0,-4.28 2.32,-2.32 5.91,-2.9 9.14,-1.47 2.99,1.31 6.1,4.72 5.86,10.35 -0.17,3.82 -0.99,7.06 -1.72,9.93 -0.53,2.1 -1.04,4.09 -1.19,5.96 -0.19,2.54 -0.32,4.86 -0.43,7.07 -0.41,7.78 -0.77,14.5 -4.08,23.98l-0.11 0.31c-1.18,3.42 -3.61,10.42 -8.81,10.42z"/>
  <path class="fil1" d="M254.67 189.22c-0.73,0 -1.33,-0.27 -1.68,-0.42l-0.4 -0.17c-1.54,-0.64 -2.27,-2.42 -1.63,-3.96 0.32,-0.77 0.91,-1.33 1.62,-1.63 0.75,-2.8 0.74,-6.45 0.72,-10.29 -0.03,-4.83 -0.05,-10.31 1.44,-15.55 0.46,-1.61 2.13,-2.54 3.74,-2.08 1.61,0.46 2.54,2.13 2.08,3.74 -1.25,4.42 -1.23,9.22 -1.21,13.86 0.03,5.06 0.05,9.84 -1.58,13.85 -0.3,1.16 -0.88,1.91 -1.75,2.33 -0.48,0.23 -0.93,0.32 -1.35,0.32z"/>
  <path class="fil1" d="M244.69 148.46c-1.06,0 -2.08,-0.55 -2.64,-1.52 -2.77,-4.86 -4.19,-13.67 -5.7,-23 -1.54,-9.59 -3.3,-20.45 -6.46,-24.6 -4.72,-6.21 -6.59,-12.54 -8.23,-18.12 -2.6,-8.81 -4.17,-14.13 -14.84,-15.28 -1.67,-0.17 -2.87,-1.67 -2.69,-3.33 0.18,-1.66 1.66,-2.84 3.33,-2.69 14.7,1.58 17.4,10.74 20,19.59 1.58,5.33 3.2,10.84 7.25,16.16 4.08,5.35 5.8,16.02 7.62,27.31 1.36,8.39 2.76,17.05 4.98,20.95 0.83,1.45 0.33,3.3 -1.12,4.13 -0.48,0.27 -0.99,0.4 -1.5,0.4z"/>
  <path class="fil1" d="M146.46 73.08c-0.13,0 -0.26,-0.01 -0.39,-0.02 -3.94,-0.5 -5.21,-4.75 -6.32,-8.49 -0.45,-1.5 -1.28,-4.29 -1.94,-4.78 -1.45,-0.84 -1.95,-2.68 -1.11,-4.13 0.83,-1.45 2.69,-1.95 4.14,-1.12 2.7,1.55 3.73,4.98 4.71,8.3 0.41,1.36 1.07,3.59 1.61,4.27 1.48,0.35 2.49,1.78 2.3,3.32 -0.2,1.53 -1.5,2.65 -3,2.65z"/>
  <path class="fil1" d="M156.62 70.03c-1.08,0 -2.14,-0.59 -2.68,-1.62 -5.99,-11.4 -6.27,-13.75 -4.81,-18.07 0.5,-1.5 1.08,-3.19 1.08,-7.07 0,-1.67 1.35,-3.03 3.03,-3.03 1.67,0 3.02,1.36 3.02,3.03 0,4.87 -0.8,7.26 -1.39,9 -0.71,2.1 -1.01,2.97 4.43,13.33 0.78,1.48 0.21,3.31 -1.27,4.09 -0.45,0.23 -0.93,0.34 -1.41,0.34z"/>
  <path class="fil1" d="M173.24 74.78c-0.89,0 -1.78,-0.39 -2.37,-1.15 -6.69,-8.4 -8.53,-17.55 -5.18,-25.74 0.63,-1.55 2.39,-2.29 3.95,-1.66 1.55,0.64 2.29,2.4 1.65,3.95 -3.18,7.79 0.59,15 4.32,19.68 1.04,1.31 0.82,3.22 -0.49,4.26 -0.56,0.44 -1.22,0.66 -1.88,0.66z"/>
  <path class="fil1" d="M183.41 83.59c-1.67,0 -3.03,-1.35 -3.03,-3.03 0,-4.05 -0.53,-7.44 -1.04,-10.71 -0.48,-3.01 -0.92,-5.86 -0.9,-8.9 0.03,-4.84 1.28,-9.12 2.27,-12.55 0.51,-1.73 0.98,-3.37 1.03,-4.26 0.08,-1.67 1.47,-2.98 3.17,-2.87 1.67,0.08 2.96,1.5 2.88,3.17 -0.08,1.61 -0.63,3.48 -1.26,5.65 -0.89,3.07 -2.01,6.9 -2.04,10.9 -0.01,2.55 0.38,5.04 0.83,7.92 0.52,3.34 1.11,7.12 1.11,11.65 0,1.68 -1.35,3.03 -3.02,3.03z"/>
  <path class="fil1" d="M198.32 74.1c-0.77,0 -1.55,-0.3 -2.14,-0.89 -6.48,-6.48 -5.15,-13.81 -4.18,-19.17 0.32,-1.72 0.61,-3.34 0.58,-4.6 -0.03,-1.67 1.29,-3.05 2.96,-3.09 1.72,-0.01 3.06,1.28 3.1,2.95 0.04,1.87 -0.31,3.79 -0.68,5.83 -0.89,4.92 -1.74,9.56 2.5,13.8 1.19,1.18 1.19,3.1 0,4.28 -0.59,0.59 -1.36,0.89 -2.14,0.89z"/>
  <path class="fil1" d="M204.42 64.61c-0.56,0 -1.13,-0.16 -1.64,-0.49 -1.07,-0.7 -1.56,-1.95 -1.32,-3.14 0.14,-0.95 0.92,-7.56 0.97,-8.14 0.14,-1.67 1.63,-2.92 3.28,-2.75 1.66,0.14 2.89,1.61 2.75,3.28 -0.35,3.98 -0.89,8.92 -1.49,9.86 -0.58,0.89 -1.55,1.38 -2.55,1.38z"/>
  <path class="fil1" d="M90.18 135.8c-1.68,0 -3.03,-1.36 -3.03,-3.03 0,-2.66 0.77,-4.92 1.4,-6.74 0.26,-0.78 0.6,-1.75 0.6,-2.11 0.12,-4.91 -0.01,-8.16 -0.11,-10.78 -0.27,-6.9 -0.37,-9.49 4.13,-23.77 3.05,-9.69 12,-19.26 19.89,-27.7 2.03,-2.17 3.95,-4.22 5.67,-6.16 1.68,-1.91 2.47,-3.2 3.23,-4.46 1.39,-2.29 2.6,-4.27 7.47,-7.55 6.61,-4.44 14.49,-6.53 23.62,-8.94 4.45,-1.18 9.06,-2.39 13.99,-4 1.59,-0.52 3.3,0.35 3.82,1.94 0.52,1.59 -0.35,3.3 -1.94,3.82 -5.1,1.66 -9.79,2.9 -14.32,4.1 -8.6,2.27 -16.03,4.23 -21.79,8.11 -3.77,2.53 -4.49,3.71 -5.68,5.67 -0.81,1.34 -1.83,3.01 -3.86,5.31 -1.77,2.01 -3.72,4.09 -5.78,6.3 -7.46,7.97 -15.91,17 -18.55,25.38 -4.18,13.28 -4.1,15.4 -3.85,21.72 0.1,2.69 0.24,6.05 0.12,11.15 -0.03,1.3 -0.47,2.58 -0.94,3.94 -0.52,1.53 -1.07,3.12 -1.07,4.77 0,1.67 -1.35,3.03 -3.02,3.03z"/>
  <g>
   <path class="fil1" d="M110.76 150.58c0,0 0,0 0,0 0,0 0,0 0,0zm0 0l0 0.01 0 -0.01zm0.23 0.85l-0.23 -0.85zm-2.74 4.32c-0.26,0 -0.52,-0.04 -0.77,-0.1l-2.67 -0.7c-1.61,-0.43 -2.58,-2.08 -2.16,-3.7 0.35,-1.33 1.53,-2.22 2.84,-2.26 0.56,-4.22 1.85,-9.36 1.88,-9.43 2.04,-4.96 2.27,-12.17 2.51,-19.8 0.29,-9.27 0.62,-19.79 4.21,-29.56l0.3 -0.81c3.89,-10.6 7.91,-21.56 19.85,-27 1.52,-0.7 3.32,-0.03 4.01,1.49 0.69,1.53 0.02,3.32 -1.5,4.02 -9.63,4.39 -13.05,13.71 -16.67,23.57l-0.3 0.82c-3.26,8.85 -3.56,18.41 -3.85,27.66 -0.25,8.09 -0.49,15.72 -2.87,21.7 -0.44,2 -1.79,8.87 -1.84,10.5 0.17,0.87 -0.06,1.8 -0.65,2.5 -0.58,0.7 -1.44,1.1 -2.32,1.1z"/>
  </g>
  <path class="fil1" d="M103.06 143.6c-1.67,0 -3.03,-1.36 -3.03,-3.03 0,-3.47 0.25,-6.7 0.5,-9.83 0.25,-3.27 0.52,-6.66 0.52,-10.51 0,-1.67 1.35,-3.03 3.03,-3.03 1.67,0 3.02,1.36 3.02,3.03 0,4.09 -0.27,7.59 -0.53,10.98 -0.25,3.15 -0.48,6.12 -0.48,9.36 0,1.67 -1.36,3.03 -3.03,3.03z"/>
  <path class="fil1" d="M104.08 123.26c-0.03,0 -0.05,0 -0.07,0l-1.46 -0.03c-2.11,-0.04 -3.78,-0.07 -4.56,-2.03 -0.15,-0.38 -0.52,-1.59 0.3,-2.84 -0.98,-14.19 1.95,-19.48 5.33,-25.59 1.37,-2.48 2.78,-5.04 4.06,-8.5 0.57,-1.57 2.31,-2.38 3.88,-1.8 1.57,0.57 2.37,2.31 1.8,3.88 -1.43,3.9 -3.03,6.79 -4.44,9.35 -2.97,5.37 -5.35,9.66 -4.64,21.51 1.61,0.1 2.86,1.46 2.82,3.09 -0.03,1.65 -1.38,2.96 -3.02,2.96z"/>
  <path class="fil1" d="M118.65 72.07c-1.45,0 -2.73,-1.05 -2.98,-2.52 -0.45,-2.61 0.47,-5.4 2.65,-8.06 3.08,-3.76 8.03,-6.56 11.78,-6.67 1.63,-0.02 3.06,1.27 3.11,2.95 0.04,1.67 -1.27,3.06 -2.95,3.11 -1.74,0.05 -5.21,1.96 -7.25,4.45 -1,1.21 -1.51,2.41 -1.37,3.2 0.28,1.65 -0.83,3.21 -2.48,3.49 -0.17,0.03 -0.34,0.05 -0.51,0.05z"/>
  <path class="fil1" d="M259.01 135.8c-0.09,0 -0.17,0 -0.26,-0.01 -1.67,-0.14 -2.9,-1.61 -2.76,-3.28 1.48,-17.23 -9.45,-47.28 -19.48,-60.67 -5.46,-7.28 -11.58,-12.23 -16.04,-15.85 -1.25,-1.01 -2.37,-1.92 -3.33,-2.75 -4.44,-3.85 -9.24,-6.94 -13.89,-8.94 -5.45,-2.35 -11.22,-4.22 -17.14,-5.56 -6.26,-1.42 -12.7,-2.22 -18.16,-2.27 -1.67,-0.02 -3.01,-1.38 -3,-3.06 0.02,-1.66 1.37,-3 3.03,-3l0.03 0c4.15,0.04 10.9,0.49 19.44,2.42 6.28,1.43 12.41,3.41 18.2,5.91 5.21,2.24 10.56,5.67 15.46,9.93 0.92,0.79 1.98,1.66 3.17,2.61 4.71,3.82 11.17,9.05 17.07,16.93 10.88,14.52 22.29,46 20.67,64.82 -0.13,1.58 -1.45,2.77 -3.01,2.77z"/>
  <path class="fil1" d="M253.25 149.02c-1.68,0 -3.03,-1.35 -3.03,-3.03 0,-2.02 -2.27,-12.97 -3.76,-20.22 -0.86,-4.16 -1.61,-7.76 -1.96,-9.76 -0.29,-1.65 0.81,-3.22 2.46,-3.51 1.63,-0.29 3.21,0.81 3.5,2.46 0.34,1.91 1.08,5.47 1.93,9.59 2.27,11.01 3.88,18.99 3.88,21.44 0,1.68 -1.35,3.03 -3.02,3.03z"/>
  <path class="fil1" d="M242.39 98.85c-0.68,0 -1.37,-0.23 -1.93,-0.7 -0.55,-0.46 -0.55,-0.46 -3.2,-5.63 -2.61,-5.11 -8.05,-15.73 -9.51,-17.71 -0.99,-1.34 -0.7,-3.24 0.65,-4.23 1.34,-0.98 3.24,-0.7 4.23,0.65 1.61,2.19 5.66,10.01 10.02,18.53 0.98,1.91 1.99,3.89 2.26,4.37 0.73,1.09 0.69,2.57 -0.19,3.63 -0.6,0.72 -1.46,1.09 -2.33,1.09z"/>
  <path class="fil1" d="M179.96 295.55c-4.13,0 -8.22,-0.51 -12.23,-1.55 -17.81,-4.59 -39.06,-18.2 -47.37,-30.33 -12.8,-18.68 -16.94,-42.04 -18.13,-51.22 -1.62,-12.49 -1.01,-22.65 -0.51,-30.82 0.46,-7.58 0.82,-13.58 -0.71,-18.46 -0.49,-1.6 0.4,-3.3 1.99,-3.8 1.6,-0.49 3.3,0.4 3.8,1.99 1.85,5.95 1.46,12.43 0.96,20.64 -0.5,8.32 -1.07,17.75 0.47,29.67 1.13,8.75 5.07,30.98 17.13,48.57 6.66,9.72 25.88,23.25 43.88,27.9 17.77,4.58 37.64,-2.66 54.52,-19.88 13.99,-14.27 23.3,-32.93 24.91,-49.92l0.12 -1.18c1.56,-16.45 3.92,-41.31 -0.96,-55.97 -0.53,-1.59 0.33,-3.3 1.91,-3.83 1.59,-0.53 3.31,0.33 3.83,1.91 5.29,15.88 2.85,41.51 1.24,58.46l-0.11 1.18c-1.74,18.33 -11.68,38.36 -26.61,53.59 -14.73,15.02 -31.73,23.05 -48.13,23.05z"/>
  <path class="fil1" d="M141.2 258.02c-1.67,0 -3.03,-1.36 -3.03,-3.03l0 -10.06c0,-8.32 5.1,-14.34 8.15,-17.94l0.19 -0.23c1.08,-1.28 3,-1.44 4.27,-0.36 1.28,1.08 1.44,2.99 0.36,4.27l-0.2 0.23c-2.83,3.35 -6.72,7.93 -6.72,14.03l0 10.06c0,1.67 -1.35,3.03 -3.02,3.03z"/>
  <path class="fil1" d="M159.65 237.87c-1.62,0 -2.97,-1.29 -3.02,-2.93 -0.01,-0.29 -0.05,-0.6 -0.08,-0.91 -0.25,-2.2 -0.65,-5.89 4.2,-10.06 1.27,-1.09 3.18,-0.94 4.27,0.33 1.09,1.26 0.95,3.18 -0.32,4.26 -2.43,2.09 -2.32,3.11 -2.13,4.8 0.05,0.47 0.1,0.93 0.11,1.38 0.06,1.68 -1.25,3.07 -2.92,3.13 -0.04,0 -0.07,0 -0.11,0z"/>
  <path class="fil1" d="M174.25 240.05c-1.31,0 -2.52,-0.86 -2.9,-2.18 -1.11,-3.78 -0.97,-5.88 -0.62,-9.26 0.17,-1.66 1.65,-2.9 3.32,-2.7 1.67,0.17 2.88,1.66 2.7,3.32 -0.31,3.06 -0.38,4.25 0.41,6.94 0.47,1.6 -0.45,3.28 -2.06,3.76 -0.28,0.08 -0.57,0.12 -0.85,0.12z"/>
  <path class="fil1" d="M184.15 231.99c0.02,0.03 0.04,0.05 0.05,0.07 -0.01,-0.02 -0.03,-0.04 -0.05,-0.07zm4.74 7.96c-1.03,0 -2.05,-0.53 -2.63,-1.46 -0.53,-0.85 -0.86,-2.05 -1.36,-3.93 -0.22,-0.82 -0.58,-2.18 -0.79,-2.62 -0.89,-1.33 -0.59,-3.14 0.7,-4.11 1.34,-1 3.24,-0.74 4.24,0.6 0.71,0.96 1.11,2.36 1.7,4.57 0.21,0.81 0.54,2.03 0.7,2.38 0.89,1.42 0.43,3.24 -0.99,4.12 -0.49,0.31 -1.03,0.45 -1.57,0.45z"/>
  <path class="fil1" d="M201.37 237.53c-1.3,0 -2.5,-0.85 -2.9,-2.15 -0.54,-1.8 -1.13,-2.76 -1.89,-3.97 -0.68,-1.09 -1.46,-2.34 -2.24,-4.26 -0.64,-1.54 0.1,-3.31 1.65,-3.95 1.54,-0.64 3.31,0.11 3.95,1.65 0.59,1.45 1.17,2.38 1.78,3.36 0.87,1.4 1.77,2.85 2.55,5.41 0.49,1.6 -0.42,3.29 -2.02,3.78 -0.29,0.08 -0.59,0.13 -0.88,0.13z"/>
  <path class="fil1" d="M220.5 247.65c-0.1,0 -0.2,-0.01 -0.3,-0.02 -1.67,-0.17 -2.88,-1.65 -2.71,-3.31 1.39,-13.93 -4.31,-17.35 -7.71,-19.39 -1.55,-0.94 -3.32,-2 -3.46,-4.16 -0.11,-1.67 1.16,-3.11 2.83,-3.21 1.22,-0.06 2.36,0.6 2.89,1.65 0.24,0.16 0.59,0.36 0.86,0.53 3.71,2.22 12.38,7.44 10.61,25.18 -0.15,1.56 -1.47,2.73 -3.01,2.73z"/>
  <path class="fil1" d="M172.05 269.54c-1.11,0 -2.18,-0.61 -2.71,-1.67 -0.39,-0.78 -0.59,-1.5 -0.78,-2.13 -0.07,-0.26 -0.14,-0.53 -0.24,-0.8 -0.15,-0.41 -0.31,-0.82 -0.47,-1.23 -1.13,-2.92 -2.55,-6.56 -0.72,-12.2 0.52,-1.59 2.23,-2.47 3.82,-1.95 1.59,0.52 2.46,2.23 1.94,3.82 -1.16,3.59 -0.38,5.59 0.61,8.14 0.18,0.46 0.36,0.92 0.52,1.38 0.14,0.4 0.26,0.79 0.37,1.18 0.13,0.45 0.23,0.8 0.37,1.08 0.74,1.49 0.14,3.31 -1.35,4.06 -0.44,0.22 -0.9,0.32 -1.36,0.32z"/>
  <path class="fil1" d="M182.89 268.42c-1.42,0 -2.69,-1.01 -2.97,-2.46 -0.61,-3.24 -0.52,-6.84 -0.44,-10.01 0.03,-0.95 0.05,-1.84 0.05,-2.66 0,-1.67 1.35,-3.03 3.03,-3.03 1.67,0 3.03,1.36 3.03,3.03 0,0.86 -0.03,1.81 -0.06,2.81 -0.07,2.87 -0.15,6.13 0.34,8.73 0.31,1.64 -0.77,3.22 -2.41,3.54 -0.19,0.03 -0.38,0.05 -0.57,0.05z"/>
  <path class="fil1" d="M194.42 267c-0.54,0 -1.09,-0.15 -1.59,-0.46 -1.42,-0.87 -1.86,-2.74 -0.98,-4.16 0.1,-0.21 0.73,-1.91 0.73,-9.59 0,-1.68 1.36,-3.03 3.03,-3.03 1.67,0 3.03,1.35 3.03,3.03 0,7.19 -0.48,10.9 -1.64,12.78 -0.58,0.92 -1.57,1.43 -2.58,1.43z"/>
  <path class="fil1" d="M106.62 214.07c-1.67,0 -3.03,-1.36 -3.03,-3.03 0,-7.92 1.61,-10.93 3.17,-13.84 0.86,-1.61 1.68,-3.12 2.35,-5.73 0.42,-1.62 2.07,-2.6 3.69,-2.18 1.62,0.42 2.59,2.08 2.17,3.69 -0.86,3.32 -1.93,5.32 -2.87,7.08 -1.37,2.56 -2.45,4.58 -2.45,10.98 0,1.67 -1.36,3.03 -3.03,3.03z"/>
  <path class="fil1" d="M113.62 240.09l-3.03 0c0,-13.36 0,-20.02 5.87,-32.8 0.7,-1.51 2.5,-2.18 4.02,-1.49 1.52,0.7 2.18,2.5 1.49,4.02 -5.32,11.57 -5.32,17.02 -5.32,30.19l-3.03 0.08z"/>
  <path class="fil1" d="M128.63 263.85c-1.52,0 -2.83,-1.14 -3,-2.69 -0.12,-1.03 -0.18,-2.09 -0.18,-3.16 0,-1.44 0.2,-2.87 0.35,-4.02 0.1,-0.75 0.21,-1.52 0.2,-1.9 -0.03,-1.68 1.3,-3.06 2.97,-3.09 0.02,0 0.04,0 0.06,0 1.64,0 2.99,1.32 3.02,2.98 0.02,0.84 -0.11,1.8 -0.25,2.82 -0.13,1.02 -0.29,2.18 -0.29,3.21 0,0.84 0.05,1.68 0.14,2.48 0.18,1.67 -1.01,3.17 -2.68,3.35 -0.11,0.01 -0.22,0.02 -0.34,0.02z"/>
  <path class="fil1" d="M146.88 277.41c-1.35,0 -2.58,-0.91 -2.93,-2.27 -0.85,-3.34 -1.03,-6.81 -1.03,-11 0,-1.67 1.36,-3.03 3.03,-3.03 1.67,0 3.03,1.36 3.03,3.03 0,3.73 0.14,6.78 0.83,9.5 0.42,1.62 -0.56,3.27 -2.18,3.68 -0.25,0.06 -0.5,0.09 -0.75,0.09z"/>
  <path class="fil1" d="M172.25 287.83c-1.24,0 -2.41,-0.76 -2.85,-2l-0.26 -0.73c-1.76,-4.85 -1.9,-5.24 -1.87,-9.02l0.01 -1.77c0,-1.67 1.36,-3.03 3.03,-3.03 1.68,0 3.03,1.36 3.03,3.03 0,0.71 -0.01,1.31 -0.01,1.83 -0.03,2.68 -0.03,2.68 1.5,6.9l0.27 0.74c0.56,1.57 -0.25,3.3 -1.82,3.87 -0.34,0.13 -0.69,0.18 -1.03,0.18z"/>
  <path class="fil1" d="M185.96 287.8c-0.47,0 -0.94,-0.11 -1.39,-0.34 -1.48,-0.77 -2.06,-2.6 -1.29,-4.08 0.18,-0.69 -0.14,-3.73 -0.31,-5.37 -0.15,-1.43 -0.29,-2.78 -0.29,-3.83 0,-1.68 1.36,-3.03 3.03,-3.03 1.67,0 3.03,1.35 3.03,3.03 0,0.73 0.12,1.93 0.25,3.2 0.44,4.21 0.64,6.91 -0.34,8.78 -0.54,1.04 -1.59,1.64 -2.69,1.64z"/>
  <path class="fil1" d="M206.17 279.45c-0.17,0 -0.35,-0.02 -0.53,-0.05 -1.64,-0.29 -2.74,-1.86 -2.45,-3.51 0.36,-2.04 0.33,-3.7 0.28,-6.21 -0.02,-0.99 -0.04,-2.08 -0.04,-3.33 0,-1.68 1.36,-3.03 3.03,-3.03 1.67,0 3.03,1.35 3.03,3.03 0,1.2 0.02,2.26 0.04,3.21 0.05,2.66 0.09,4.76 -0.38,7.39 -0.26,1.47 -1.53,2.5 -2.98,2.5z"/>
  <path class="fil1" d="M221.21 267.23c-0.08,0 -0.16,0 -0.24,-0.01 -1.67,-0.13 -2.92,-1.59 -2.78,-3.26 0.83,-10.57 0.87,-10.7 0.97,-11.03 0.47,-1.6 2.17,-2.51 3.76,-2.03 1.43,0.43 2.31,1.81 2.14,3.24 -0.05,0.6 -0.48,5.73 -0.84,10.3 -0.12,1.58 -1.45,2.79 -3.01,2.79z"/>
  <path class="fil1" d="M232.37 253.31c-0.1,0 -0.2,-0.01 -0.3,-0.02 -1.66,-0.16 -2.88,-1.64 -2.72,-3.3 0.95,-9.79 -0.3,-16.7 -2.46,-26.92 -0.35,-1.64 0.7,-3.25 2.34,-3.59 1.62,-0.35 3.24,0.7 3.58,2.34 2.28,10.78 3.6,18.1 2.57,28.75 -0.15,1.57 -1.47,2.74 -3.01,2.74z"/>
  <g>
   <path class="fil1" d="M236.88 211.36l0.01 0.01 -0.01 -0.01zm2.89 16.85l0 0.01 0 -0.01zm2.79 4.21c-0.39,0 -0.79,-0.08 -1.17,-0.24 -1.48,-0.62 -2.21,-2.29 -1.69,-3.78 0.39,-2.5 -2.11,-15.1 -3.23,-17.45 -0.89,-1.11 -0.9,-2.72 0.05,-3.85 1.07,-1.28 2.99,-1.44 4.26,-0.37 2.52,2.12 6.03,20.39 4.57,23.84 -0.48,1.16 -1.61,1.85 -2.79,1.85z"/>
  </g>
  <path class="fil1" d="M251.69 221.66c-0.75,0 -1.51,-0.28 -2.09,-0.84 -0.14,-0.14 -0.27,-0.24 -0.39,-0.34 -0.65,-0.56 -2.02,-1.73 -1.67,-4.04 0.51,-3.45 -0.94,-8.58 -2.1,-12.7 -0.91,-3.23 -1.7,-6.02 -1.66,-8.13 0.02,-1.66 1.37,-2.98 3.02,-2.98 0.02,0 0.03,0 0.05,0 1.67,0.03 3.01,1.41 2.98,3.08 -0.02,1.22 0.72,3.85 1.44,6.38 1.28,4.58 2.74,9.72 2.37,14.22 0.05,0.04 0.09,0.08 0.14,0.13 1.21,1.15 1.25,3.07 0.1,4.28 -0.6,0.62 -1.39,0.94 -2.19,0.94z"/>
  <path class="fil1" d="M184.73 313.83c-21.18,0 -40.69,-10.45 -58.92,-22.41 -0.74,-0.48 -1.23,-1.27 -1.35,-2.14l-3.23 -25.08c-0.21,-1.66 0.96,-3.17 2.62,-3.39 1.67,-0.22 3.17,0.96 3.39,2.62l3.05 23.69c22.95,14.92 47.93,27.04 75.16,16.82 13.33,-4.99 33.98,-27.75 33.58,-33.14l-0.34 -21.6c-0.03,-1.67 1.31,-3.05 2.98,-3.07 0.02,0 0.03,0 0.05,0 1.65,0 3,1.32 3.02,2.98l0.34 21.43c0.72,9.68 -23.97,34 -37.5,39.08 -7.83,2.93 -15.44,4.21 -22.85,4.21z"/>
  <path class="fil1" d="M312.57 301.75c-0.47,0 -0.95,-0.11 -1.39,-0.34 -3.07,-1.59 -9,-3.41 -15.87,-5.51 -9.32,-2.86 -20.91,-6.42 -30.95,-11.14 -11.99,-5.64 -22.57,-13.71 -25.14,-19.18 -0.72,-1.51 -0.07,-3.32 1.44,-4.03 1.52,-0.71 3.32,-0.06 4.03,1.45 1.48,3.13 10.03,10.53 22.25,16.28 9.64,4.54 21.01,8.02 30.15,10.83 7.44,2.28 13.32,4.08 16.87,5.92 1.49,0.77 2.07,2.6 1.3,4.09 -0.54,1.03 -1.6,1.63 -2.69,1.63z"/>
  <path class="fil1" d="M63.27 327.97c-0.99,0 -1.96,-0.48 -2.54,-1.37 -0.91,-1.4 -0.52,-3.28 0.88,-4.19 3.13,-2.05 44.69,-24.78 46.32,-25.34 5.24,-1.77 7.44,-3.84 9.57,-5.83 2.22,-2.08 4.52,-4.24 9.31,-5.3 1.62,-0.36 3.25,0.66 3.61,2.29 0.37,1.63 -0.66,3.25 -2.29,3.62 -3.18,0.7 -4.49,1.94 -6.49,3.81 -2.33,2.18 -5.22,4.89 -11.55,7.07 -3.41,1.77 -41.02,22.03 -45.17,24.75 -0.51,0.33 -1.08,0.49 -1.65,0.49z"/>
  <path class="fil2" d="M146.28 161.14c2.68,0 4.86,2.18 4.86,4.86 0,2.68 -2.18,4.85 -4.86,4.85 -2.68,0 -4.85,-2.17 -4.85,-4.85 0,-2.68 2.17,-4.86 4.85,-4.86z"/>
  <path class="fil2" d="M210.02 160.12c2.68,0 4.85,2.18 4.85,4.86 0,2.68 -2.17,4.85 -4.85,4.85 -2.69,0 -4.86,-2.17 -4.86,-4.85 0,-2.68 2.17,-4.86 4.86,-4.86z"/>
  <path class="fil1" d="M128.78 244.42c-0.97,0 -1.92,-0.47 -2.51,-1.33 -0.31,-0.47 -0.45,-0.88 -0.91,-2.39 -0.13,-0.44 -0.26,-0.85 -0.33,-1.05 -1.31,-3.39 -0.73,-7.61 -0.02,-10.55 0.34,-1.39 0.86,-2.74 1.29,-3.82 0.27,-0.7 0.55,-1.43 0.64,-1.81 0.36,-1.63 1.98,-2.65 3.61,-2.29 1.63,0.36 2.66,1.98 2.3,3.61 -0.19,0.83 -0.54,1.73 -0.91,2.69 -0.38,0.96 -0.8,2.05 -1.04,3.05 -0.7,2.88 -0.78,5.48 -0.22,6.96 0.1,0.24 0.28,0.82 0.47,1.43 0.13,0.45 0.28,0.92 0.37,1.18 0.63,1.33 0.21,2.95 -1.05,3.8 -0.51,0.35 -1.1,0.52 -1.69,0.52z"/>
  <path class="fil1" d="M159.29 280.46c-1.49,0 -2.79,-1.1 -3,-2.62 -0.28,-2.09 -0.4,-4.41 -0.4,-7.77 0,-1.67 1.35,-3.03 3.03,-3.03 1.67,0 3.02,1.36 3.02,3.03 0,3.07 0.11,5.15 0.35,6.95 0.23,1.66 -0.93,3.19 -2.59,3.41 -0.14,0.02 -0.27,0.03 -0.41,0.03z"/>
 </g>
</svg>
