<?xml version="1.0" encoding="UTF-8"?>
<!DOCTYPE svg PUBLIC "-//W3C//DTD SVG 1.1//EN" "http://www.w3.org/Graphics/SVG/1.1/DTD/svg11.dtd">
<!-- Creator: CorelDRAW 2018 (64-Bit) -->
<svg xmlns="http://www.w3.org/2000/svg" xml:space="preserve" width="845px" height="845px" version="1.1" style="shape-rendering:geometricPrecision; text-rendering:geometricPrecision; image-rendering:optimizeQuality; fill-rule:evenodd; clip-rule:evenodd"
viewBox="0 0 86.81 86.81"
 xmlns:xlink="http://www.w3.org/1999/xlink">
 <defs>
  <style type="text/css">
   <![CDATA[
    .fil2 {fill:none}
    .fil1 {fill:black}
    .fil0 {fill:black;fill-rule:nonzero}
   ]]>
  </style>
 </defs>
 <g id="Слой_x0020_1">
  <metadata id="CorelCorpID_0Corel-Layer"/>
  <g id="_2891766490320">
   <path class="fil0" d="M20.68 39.5c0.71,3.44 1.26,5.93 2.54,7.09 1.02,0.92 2.98,1.41 4.78,1.17 1.38,-0.17 2.44,-0.73 2.99,-1.56 0.78,-1.2 0.8,-3.09 0.83,-5.72 0,-0.22 0.01,-0.44 0.01,-0.67 -4.78,-1.44 -6.72,-1.21 -11.15,-0.31zm6.41 9.66c-1.85,0 -3.68,-0.59 -4.77,-1.58 -1.6,-1.45 -2.16,-3.99 -2.95,-7.81l-0.66 0.14c-0.37,0.07 -0.72,-0.16 -0.79,-0.52 -0.08,-0.36 0.16,-0.72 0.52,-0.79l0.9 -0.18c5.32,-1.1 7.52,-1.56 13.36,0.26 0.29,0.09 0.48,0.35 0.47,0.65 0,0.41 -0.01,0.79 -0.01,1.17 -0.04,2.85 -0.06,4.91 -1.06,6.43 -0.76,1.16 -2.15,1.93 -3.93,2.16 -0.36,0.04 -0.72,0.07 -1.08,0.07z"/>
   <path class="fil0" d="M32.57 40.3c-0.32,0 -0.6,-0.24 -0.65,-0.57 -0.06,-0.37 0.19,-0.71 0.56,-0.76 0.87,-0.13 1.55,-0.13 2.28,-0.12 0.36,0 0.73,0 1.16,-0.02 0.37,-0.01 0.67,0.28 0.69,0.65 0.01,0.36 -0.28,0.67 -0.65,0.69 -0.44,0.01 -0.83,0.01 -1.21,0.01 -0.7,0 -1.3,-0.01 -2.08,0.11 -0.03,0 -0.06,0.01 -0.1,0.01z"/>
   <path class="fil0" d="M36.72 39.86c1.16,3.95 2.32,5.74 4.25,6.54 1.49,0.61 4.85,0.34 6.12,-0.77 1.19,-1.05 0.98,-5.39 0.88,-7.48 -0.02,-0.28 -0.03,-0.55 -0.04,-0.78l-2.13 0.06c-2.47,0.06 -4.1,0.09 -5.86,0.71l-0.07 0.02c-1.04,0.37 -2.2,0.78 -3.15,1.7zm6.34 8.19c-0.99,0 -1.92,-0.14 -2.6,-0.42 -2.76,-1.14 -4.04,-3.93 -5.13,-7.78 -0.06,-0.22 -0.01,-0.45 0.15,-0.62 1.22,-1.37 2.73,-1.9 3.95,-2.33l0.06 -0.02c1.97,-0.69 3.78,-0.73 6.28,-0.78l0.81 -0.02 3.95 -0.12c0.37,-0.01 0.67,0.27 0.69,0.64 0.01,0.37 -0.28,0.68 -0.65,0.69l-1.31 0.04c0.01,0.22 0.03,0.48 0.04,0.76 0.17,3.57 0.22,7.18 -1.33,8.54 -1.08,0.95 -3.1,1.42 -4.91,1.42z"/>
   <path class="fil0" d="M48.63 38.82c-0.3,0 -0.57,-0.21 -0.64,-0.51 -0.09,-0.36 0.13,-0.72 0.49,-0.81 5.42,-1.31 9.37,-2.96 14.36,-5.36 0.34,-0.16 0.73,-0.02 0.89,0.31 0.16,0.33 0.03,0.73 -0.31,0.89 -5.07,2.45 -9.09,4.12 -14.63,5.46 -0.05,0.01 -0.1,0.02 -0.16,0.02z"/>
   <path class="fil0" d="M40.52 35.27c-0.27,0 -0.51,-0.17 -0.59,-0.44 -0.09,-0.32 0.1,-0.66 0.42,-0.75 0.81,-0.23 1.48,-0.56 2.06,-0.84 0.99,-0.48 1.84,-0.89 2.91,-0.69 0.47,0.09 0.94,0.39 1.43,0.7 0.25,0.15 0.5,0.31 0.76,0.44 0.3,0.16 0.41,0.53 0.25,0.82 -0.15,0.3 -0.52,0.41 -0.82,0.26 -0.29,-0.16 -0.56,-0.33 -0.83,-0.49 -0.38,-0.24 -0.77,-0.49 -1.02,-0.53 -0.67,-0.13 -1.29,0.17 -2.15,0.58 -0.63,0.31 -1.34,0.65 -2.26,0.92 -0.05,0.01 -0.11,0.02 -0.16,0.02z"/>
   <path class="fil0" d="M22.47 37.47c-0.25,0 -0.49,-0.16 -0.57,-0.42 -0.11,-0.32 0.07,-0.66 0.38,-0.76 2.27,-0.75 3.04,-0.78 5.37,-0.61 0.34,0.02 0.59,0.32 0.56,0.65 -0.02,0.33 -0.31,0.58 -0.64,0.56 -2.18,-0.16 -2.84,-0.13 -4.91,0.55 -0.06,0.02 -0.12,0.03 -0.19,0.03z"/>
   <path class="fil0" d="M60.48 50.34c-0.27,0 -0.52,-0.19 -0.59,-0.47 -0.07,-0.33 0.13,-0.65 0.46,-0.72 2.24,-0.51 2.52,-1.43 3.14,-3.45 0.23,-0.74 0.48,-1.57 0.88,-2.53l0.05 -0.12c0.39,-0.94 0.8,-1.91 1.02,-2.9 0.45,-2.02 0.07,-3.86 -1.05,-5.03 -0.34,-0.37 -0.72,-0.51 -1.16,-0.44 -1.23,0.18 -2.78,1.9 -4.13,4.61 -0.15,0.3 -0.51,0.42 -0.81,0.27 -0.3,-0.15 -0.42,-0.52 -0.27,-0.82 1.57,-3.14 3.36,-5.01 5.03,-5.26 0.84,-0.13 1.61,0.15 2.22,0.8 1.4,1.48 1.9,3.71 1.36,6.13 -0.25,1.1 -0.68,2.12 -1.09,3.1l-0.05 0.13c-0.38,0.9 -0.62,1.71 -0.84,2.42 -0.64,2.09 -1.11,3.61 -4.03,4.27 -0.05,0.01 -0.09,0.01 -0.14,0.01z"/>
   <path class="fil0" d="M61.06 43.92c-0.28,0 -0.54,-0.2 -0.59,-0.49l-0.11 -0.57c-0.42,-2.15 -0.57,-2.95 0.68,-5.49 1.24,-2.52 2.57,-2.43 3.09,-2.28 1.23,0.37 1.85,2.08 1.58,4.38 -0.04,0.33 -0.34,0.57 -0.67,0.53 -0.33,-0.04 -0.57,-0.34 -0.53,-0.67 0.22,-1.91 -0.29,-2.95 -0.72,-3.08 -0.36,-0.1 -1.03,0.37 -1.66,1.66 -1.07,2.17 -0.98,2.66 -0.58,4.72l0.11 0.57c0.06,0.33 -0.16,0.65 -0.48,0.71 -0.04,0.01 -0.08,0.01 -0.12,0.01z"/>
   <path class="fil0" d="M62.83 44.18c-0.02,0 -0.03,0 -0.05,0 -0.34,-0.03 -0.58,-0.32 -0.56,-0.66 0.16,-1.88 -0.2,-2.24 -1.52,-3.59l-0.25 -0.25c-0.23,-0.24 -0.23,-0.62 0.01,-0.86 0.24,-0.23 0.63,-0.23 0.86,0.01l0.24 0.25c1.38,1.4 2.08,2.11 1.87,4.54 -0.02,0.32 -0.29,0.56 -0.6,0.56z"/>
   <path class="fil0" d="M60.93 56.64c-0.31,0 -0.58,-0.25 -0.6,-0.57 -0.38,-5.28 -0.98,-8.83 -2.04,-13.91 -0.07,-0.33 0.14,-0.65 0.47,-0.72 0.33,-0.07 0.65,0.14 0.71,0.47 1.07,5.14 1.69,8.72 2.07,14.08 0.02,0.33 -0.23,0.62 -0.56,0.65 -0.02,0 -0.03,0 -0.05,0z"/>
   <path class="fil0" d="M54.39 65.5c-0.05,0 -0.1,-0.01 -0.14,-0.02 -0.33,-0.07 -0.53,-0.4 -0.45,-0.73 1.35,-5.77 1.22,-8.77 0.96,-14.73l-0.02 -0.32c-0.01,-0.34 0.25,-0.62 0.58,-0.63 0.34,-0.03 0.62,0.24 0.64,0.58l0.01 0.32c0.26,5.88 0.4,9.12 -0.99,15.06 -0.07,0.28 -0.32,0.47 -0.59,0.47z"/>
   <path class="fil0" d="M39.65 41.8c-0.19,0 -0.37,-0.08 -0.49,-0.25 -0.2,-0.27 -0.14,-0.65 0.13,-0.84 3.31,-2.4 4.85,-2.83 8.7,-1.09 0.31,0.13 0.44,0.49 0.3,0.8 -0.13,0.31 -0.49,0.44 -0.8,0.3 -3.44,-1.55 -4.49,-1.2 -7.48,0.97 -0.11,0.08 -0.24,0.11 -0.36,0.11z"/>
   <path class="fil0" d="M31.56 42.41c-0.17,0 -0.35,-0.07 -0.47,-0.21 -1.8,-2.17 -3.8,-1.56 -6.92,-0.38l-0.2 0.07c-0.31,0.12 -0.66,-0.04 -0.78,-0.35 -0.12,-0.31 0.04,-0.66 0.35,-0.78l0.21 -0.08c2.86,-1.08 5.83,-2.2 8.28,0.74 0.21,0.26 0.18,0.64 -0.08,0.85 -0.12,0.1 -0.25,0.14 -0.39,0.14z"/>
   <path class="fil1" d="M27.87 40.39c0.74,0 1.35,0.6 1.35,1.35 0,0.74 -0.61,1.35 -1.35,1.35 -0.75,0 -1.35,-0.61 -1.35,-1.35 0,-0.75 0.6,-1.35 1.35,-1.35z"/>
   <path class="fil1" d="M44.27 39.56c0.75,0 1.35,0.6 1.35,1.35 0,0.74 -0.6,1.35 -1.35,1.35 -0.74,0 -1.35,-0.61 -1.35,-1.35 0,-0.75 0.61,-1.35 1.35,-1.35z"/>
   <path class="fil0" d="M38.39 73.23c-1.76,0 -3.56,-0.55 -5.61,-1.88 -1.92,-1.24 -5.4,-3.86 -7.14,-7.43l-0.11 -0.22c-1.87,-3.83 -3.35,-6.85 -3.53,-10.43 -0.1,-1.89 -0.03,-3.85 0.11,-6.22 0.02,-0.37 0.33,-0.65 0.7,-0.63 0.37,0.02 0.65,0.34 0.63,0.71 -0.13,2.32 -0.2,4.24 -0.11,6.07 0.17,3.31 1.6,6.22 3.4,9.92l0.11 0.21c1.17,2.4 3.6,4.91 6.67,6.9 4.75,3.07 7.72,1.51 13.65,-1.61 0.76,-0.39 1.55,-0.81 2.4,-1.24 0.33,-0.17 0.73,-0.04 0.89,0.29 0.17,0.33 0.04,0.73 -0.29,0.9 -0.84,0.43 -1.63,0.84 -2.37,1.23 -3.72,1.96 -6.52,3.43 -9.4,3.43z"/>
   <path class="fil0" d="M41.77 76.47c-0.13,0 -0.26,-0.03 -0.37,-0.11l-5.14 -3.47c-0.31,-0.2 -0.39,-0.62 -0.18,-0.92 0.2,-0.31 0.62,-0.39 0.93,-0.18l4.82 3.25c9.37,-4.44 12.89,-6.74 17.92,-15.8 1.62,-2.91 3.12,-6.24 3.05,-10.81 0,-0.37 0.29,-0.67 0.66,-0.68 0.37,0 0.67,0.29 0.68,0.66 0.07,4.88 -1.51,8.4 -3.22,11.48 -5.29,9.51 -8.94,11.83 -18.87,16.52 -0.09,0.04 -0.18,0.06 -0.28,0.06z"/>
   <path class="fil0" d="M28.12 59.04l0 0c-0.34,0 -0.61,-0.27 -0.6,-0.61l0 -0.2c0.03,-4.27 0.04,-5.42 2.96,-8.94 0.21,-0.26 0.6,-0.3 0.86,-0.08 0.25,0.21 0.29,0.59 0.08,0.85 -2.65,3.2 -2.65,4.05 -2.69,8.18l0 0.2c0,0.34 -0.27,0.6 -0.61,0.6z"/>
   <path class="fil0" d="M47 60.04c-0.32,0 -0.59,-0.25 -0.6,-0.58 -0.02,-0.24 -0.03,-0.47 -0.03,-0.7 -0.06,-1.39 -0.1,-2.48 -0.49,-3.31 -0.59,-1.26 -1.65,-2.2 -2.98,-3.39 -0.67,-0.59 -1.43,-1.27 -2.21,-2.06 -0.23,-0.24 -0.23,-0.62 0.01,-0.86 0.24,-0.23 0.62,-0.23 0.86,0.01 0.75,0.76 1.46,1.39 2.14,2 1.39,1.23 2.58,2.3 3.28,3.79 0.49,1.05 0.54,2.31 0.6,3.77 0.01,0.23 0.02,0.46 0.03,0.7 0.01,0.33 -0.25,0.61 -0.58,0.63 -0.01,0 -0.02,0 -0.03,0z"/>
   <path class="fil0" d="M34.48 55.54c-0.62,0 -1.23,-0.16 -1.67,-0.37 -0.53,-0.26 -0.73,-0.6 -0.87,-0.85 -0.11,-0.2 -0.19,-0.34 -0.51,-0.53 -0.16,-0.09 -0.32,-0.17 -0.49,-0.25 -0.75,-0.38 -2.02,-1 -1.52,-2.6 0.1,-0.32 0.44,-0.5 0.76,-0.4 0.32,0.1 0.5,0.44 0.4,0.76 -0.16,0.53 -0.04,0.69 0.9,1.15 0.19,0.09 0.38,0.19 0.56,0.29 0.6,0.35 0.81,0.71 0.96,0.98 0.11,0.19 0.15,0.26 0.34,0.36 0.48,0.23 1.3,0.34 1.81,0.13 0.17,-0.08 0.23,-0.17 0.37,-0.35 0.17,-0.24 0.4,-0.57 0.92,-0.86 0.57,-0.32 1.45,-0.62 2.11,-0.59 0.35,0.02 1.62,-0.48 1.79,-0.78 0.12,-0.31 0.47,-0.46 0.78,-0.34 0.31,0.12 0.47,0.47 0.35,0.79 -0.38,0.97 -2.38,1.56 -2.97,1.54 -0.3,-0.01 -0.94,0.15 -1.48,0.44 -0.27,0.16 -0.37,0.3 -0.51,0.5 -0.18,0.24 -0.39,0.55 -0.88,0.76 -0.36,0.15 -0.76,0.22 -1.15,0.22z"/>
   <path class="fil0" d="M35.55 59.78c-1.42,0 -2.99,-0.1 -4.93,-0.32 -0.33,-0.04 -0.57,-0.34 -0.53,-0.67 0.04,-0.33 0.34,-0.57 0.67,-0.54 6.01,0.68 8.23,0.26 13.79,-1.04 0.33,-0.08 0.65,0.12 0.73,0.45 0.08,0.32 -0.13,0.65 -0.45,0.73 -3.93,0.92 -6.3,1.39 -9.28,1.39z"/>
   <path class="fil0" d="M36.71 63.43c-0.71,0 -1.46,-0.2 -2.99,-0.61l-0.49 -0.14c-0.32,-0.08 -0.51,-0.42 -0.43,-0.74 0.09,-0.32 0.42,-0.51 0.75,-0.43l0.49 0.14c2.63,0.71 2.63,0.71 4.69,0.15 0.31,-0.08 0.67,-0.18 1.09,-0.29 0.32,-0.08 0.65,0.11 0.74,0.43 0.08,0.33 -0.11,0.66 -0.44,0.75 -0.41,0.1 -0.76,0.2 -1.07,0.28 -1.1,0.3 -1.71,0.46 -2.34,0.46z"/>
   <path class="fil0" d="M28.12 59.04c-0.07,0 -0.14,-0.01 -0.21,-0.03 -0.31,-0.12 -0.47,-0.47 -0.35,-0.79 0.77,-2.05 3.09,-4.03 3.78,-4.59 0.26,-0.21 0.64,-0.17 0.85,0.09 0.21,0.26 0.17,0.65 -0.09,0.86 -1.3,1.04 -2.88,2.67 -3.41,4.07 -0.09,0.25 -0.32,0.39 -0.57,0.39z"/>
   <path class="fil0" d="M41.95 57.35c-0.15,0 -0.3,-0.05 -0.41,-0.16 -1.07,-0.98 -1.6,-1.7 -2.41,-2.78 -0.2,-0.27 -0.15,-0.65 0.12,-0.85 0.27,-0.2 0.65,-0.15 0.85,0.12 0.8,1.07 1.28,1.72 2.26,2.62 0.25,0.23 0.26,0.61 0.03,0.86 -0.12,0.13 -0.28,0.19 -0.44,0.19z"/>
   <path class="fil0" d="M44.75 57.05c-0.13,0 -0.27,-0.04 -0.39,-0.14l-2.18 -1.83c-0.26,-0.21 -0.29,-0.6 -0.07,-0.85 0.21,-0.26 0.59,-0.29 0.85,-0.08l2.18 1.83c0.26,0.22 0.29,0.6 0.08,0.86 -0.12,0.14 -0.29,0.21 -0.47,0.21z"/>
   <path class="fil0" d="M38.7 57.62c-0.21,0 -0.42,-0.12 -0.53,-0.32l-1.25 -2.31c-0.16,-0.3 -0.05,-0.67 0.24,-0.83 0.3,-0.16 0.66,-0.05 0.82,0.25l1.26 2.31c0.16,0.3 0.05,0.66 -0.25,0.82 -0.09,0.05 -0.19,0.08 -0.29,0.08z"/>
   <path class="fil0" d="M31.1 57.75c-0.15,0 -0.31,-0.06 -0.43,-0.17 -0.24,-0.24 -0.24,-0.62 0,-0.86l1.32 -1.35c0.23,-0.23 0.62,-0.24 0.86,0 0.23,0.23 0.24,0.62 0,0.86l-1.32 1.34c-0.12,0.12 -0.27,0.18 -0.43,0.18z"/>
   <path class="fil0" d="M21.99 38.49c-0.01,0 -0.01,0 -0.02,0 -0.37,-0.01 -0.66,-0.32 -0.65,-0.69 0.06,-1.57 0,-3.16 -0.06,-4.69 -0.07,-1.73 -0.13,-3.51 -0.03,-5.27 0.47,-8.12 2.31,-9.39 9.39,-10.16 3.09,-0.34 5.94,-0.49 9.23,-0.66 0.76,-0.04 1.55,-0.08 2.36,-0.12 4.83,-0.26 8.13,-0.18 9.83,3.11 0.81,1.56 1.25,3.87 1.71,6.31 0.09,0.45 0.17,0.91 0.26,1.37 0.65,3.31 1.46,7.03 2.5,9.53 0.14,0.34 -0.02,0.73 -0.36,0.87 -0.34,0.14 -0.73,-0.02 -0.87,-0.36 -1.09,-2.61 -1.91,-6.41 -2.58,-9.78 -0.09,-0.46 -0.18,-0.92 -0.26,-1.38 -0.45,-2.34 -0.86,-4.56 -1.58,-5.94 -1.24,-2.4 -3.54,-2.67 -8.57,-2.4 -0.82,0.05 -1.61,0.09 -2.37,0.13 -3.27,0.16 -6.1,0.31 -9.16,0.64 -6.46,0.71 -7.77,1.49 -8.2,8.92 -0.1,1.69 -0.03,3.36 0.03,5.14 0.06,1.55 0.13,3.16 0.07,4.79 -0.01,0.36 -0.31,0.64 -0.67,0.64z"/>
   <path class="fil0" d="M22.01 36.63c-0.32,0 -0.61,-0.21 -0.7,-0.54 -0.13,-0.47 -0.35,-1 -0.58,-1.57 -0.34,-0.84 -0.7,-1.71 -0.85,-2.57 -0.67,-3.62 -0.62,-7.92 -0.5,-9.68 0.52,-7.57 6.84,-10.1 12.96,-12.54l0.55 -0.22c9.03,-3.62 16.46,-1.25 20.09,0.48 0.35,0.17 0.71,0.33 1.07,0.5 1.48,0.68 2.88,1.32 3.94,2.24 2.62,2.26 3.63,5.39 4.45,8.41 0.76,2.8 1.14,5.97 1.59,9.63 0.1,0.85 0.21,1.73 0.32,2.63 0.06,0.4 -0.23,0.76 -0.63,0.82 -0.4,0.05 -0.76,-0.24 -0.81,-0.63 -0.12,-0.91 -0.22,-1.79 -0.33,-2.64 -0.43,-3.61 -0.81,-6.73 -1.54,-9.43 -0.76,-2.8 -1.7,-5.7 -4,-7.69 -0.9,-0.78 -2.21,-1.38 -3.6,-2.02 -0.36,-0.17 -0.73,-0.34 -1.09,-0.51 -3.41,-1.63 -10.41,-3.85 -18.92,-0.44l-0.55 0.22c-5.96,2.38 -11.59,4.63 -12.04,11.29 -0.12,1.7 -0.17,5.84 0.47,9.31 0.13,0.72 0.45,1.52 0.77,2.29 0.25,0.61 0.48,1.19 0.63,1.74 0.11,0.39 -0.12,0.79 -0.51,0.89 -0.06,0.02 -0.13,0.03 -0.19,0.03z"/>
   <path class="fil0" d="M35.96 82.19c-0.03,0 -0.05,0 -0.07,0 -0.25,-0.03 -0.45,-0.2 -0.52,-0.44 -0.94,-3.35 -0.69,-5.38 -0.32,-8.46l0.11 -0.89c0.04,-0.34 0.34,-0.57 0.68,-0.53 0.33,0.04 0.57,0.34 0.53,0.67l-0.11 0.9c-0.31,2.49 -0.51,4.17 -0.09,6.42 0.01,-0.02 0.02,-0.05 0.03,-0.07 1.17,-2.3 1.29,-2.4 4.29,-3.66l0.56 -0.24c0.18,-0.08 0.39,-0.06 0.56,0.04 0.17,0.11 0.27,0.29 0.28,0.49l0.02 0.25c0.04,0.8 0.07,1.53 0.16,2.27 2.83,-2.14 3.4,-2.96 5.47,-5.93l0.57 -0.82c0.19,-0.28 0.57,-0.35 0.84,-0.15 0.28,0.19 0.35,0.56 0.15,0.84l-0.57 0.82c-2.29,3.3 -2.84,4.08 -6.56,6.83 -0.17,0.13 -0.4,0.16 -0.59,0.08 -0.2,-0.08 -0.34,-0.26 -0.37,-0.47 -0.17,-0.99 -0.23,-1.86 -0.28,-2.8 -2.45,1.03 -2.48,1.09 -3.45,3 -0.21,0.42 -0.46,0.93 -0.79,1.53 -0.1,0.2 -0.31,0.32 -0.53,0.32z"/>
   <path class="fil0" d="M9.76 67.64c-0.16,0 -0.32,-0.05 -0.45,-0.16 -0.32,-0.25 -0.37,-0.7 -0.12,-1.02 2.88,-3.66 8.55,-5.09 13.54,-6.35 0.44,-0.12 0.88,-0.23 1.3,-0.34 0.39,-0.1 0.79,0.14 0.89,0.53 0.1,0.39 -0.13,0.78 -0.52,0.88 -0.43,0.12 -0.87,0.23 -1.31,0.34 -4.77,1.2 -10.18,2.57 -12.76,5.84 -0.14,0.18 -0.36,0.28 -0.57,0.28z"/>
   <path class="fil0" d="M79.33 65.38c-0.17,0 -0.34,-0.06 -0.48,-0.18 -5.35,-4.72 -9.66,-9.72 -15.62,-16.63 -0.26,-0.3 -0.22,-0.76 0.08,-1.03 0.3,-0.26 0.76,-0.22 1.03,0.08 5.92,6.87 10.2,11.83 15.48,16.49 0.3,0.26 0.33,0.72 0.06,1.02 -0.14,0.17 -0.34,0.25 -0.55,0.25z"/>
   <path class="fil0" d="M43.43 18.02c-0.06,0 -0.11,-0.01 -0.17,-0.03 -0.25,-0.09 -0.38,-0.36 -0.29,-0.62 1.86,-5.19 3.19,-6.33 6.5,-8.27 0.23,-0.13 0.53,-0.05 0.66,0.18 0.14,0.23 0.06,0.53 -0.17,0.66 -3.15,1.85 -4.32,2.85 -6.08,7.76 -0.07,0.2 -0.25,0.32 -0.45,0.32z"/>
   <path class="fil0" d="M40.48 17.99c-0.04,0 -0.09,-0.01 -0.14,-0.02 -0.26,-0.08 -0.4,-0.36 -0.32,-0.61 1.55,-4.85 1.64,-5 4.57,-8.31l0.7 -0.8c0.18,-0.2 0.49,-0.22 0.69,-0.04 0.2,0.18 0.22,0.48 0.04,0.68l-0.7 0.8c-2.85,3.22 -2.85,3.22 -4.37,7.96 -0.07,0.21 -0.26,0.34 -0.47,0.34z"/>
   <path class="fil0" d="M36.75 18.42c-0.04,0 -0.07,0 -0.11,-0.01 -0.26,-0.07 -0.42,-0.33 -0.36,-0.59 0.66,-2.75 1.22,-5.12 4.98,-9.76 0.17,-0.21 0.48,-0.24 0.68,-0.07 0.21,0.17 0.24,0.47 0.08,0.68 -3.62,4.47 -4.17,6.74 -4.8,9.38 -0.05,0.22 -0.25,0.37 -0.47,0.37z"/>
   <path class="fil0" d="M33.16 18.53c-0.03,0 -0.07,-0.01 -0.11,-0.02 -0.26,-0.06 -0.42,-0.33 -0.36,-0.59 1.38,-5.56 2.36,-7.35 5.26,-9.57 0.21,-0.16 0.51,-0.12 0.68,0.09 0.16,0.22 0.12,0.52 -0.09,0.68 -2.71,2.07 -3.58,3.68 -4.9,9.04 -0.06,0.22 -0.26,0.37 -0.48,0.37z"/>
   <path class="fil0" d="M29.31 19.06c-0.03,0 -0.07,0 -0.11,-0.01 -0.26,-0.06 -0.42,-0.32 -0.36,-0.58l0.08 -0.35c0.96,-4.26 0.99,-4.33 3.47,-7.64l0.38 -0.51c0.16,-0.22 0.46,-0.26 0.68,-0.1 0.21,0.16 0.26,0.46 0.1,0.68l-0.39 0.51c-2.37,3.17 -2.37,3.17 -3.3,7.27l-0.07 0.35c-0.06,0.23 -0.26,0.38 -0.48,0.38z"/>
   <path class="fil0" d="M25.46 19.73c-0.04,0 -0.09,-0.01 -0.13,-0.02 -0.26,-0.07 -0.41,-0.34 -0.34,-0.6 0.19,-0.66 0.34,-1.27 0.48,-1.8 0.57,-2.27 0.94,-3.77 3.14,-5.74 0.2,-0.18 0.5,-0.16 0.68,0.04 0.18,0.2 0.16,0.5 -0.03,0.68 -1.98,1.78 -2.29,3.01 -2.85,5.26 -0.14,0.54 -0.29,1.15 -0.48,1.83 -0.07,0.21 -0.26,0.35 -0.47,0.35z"/>
   <path class="fil0" d="M47.24 17.95c-0.06,0 -0.11,-0.01 -0.17,-0.03 -0.25,-0.1 -0.38,-0.37 -0.29,-0.63 1.72,-4.69 4.17,-5.6 6.77,-6.56 0.25,-0.1 0.53,0.03 0.62,0.28 0.09,0.25 -0.03,0.53 -0.29,0.63 -2.48,0.92 -4.63,1.72 -6.18,5.99 -0.08,0.19 -0.26,0.32 -0.46,0.32z"/>
   <path class="fil0" d="M50.46 19.26c-0.06,0 -0.11,-0.01 -0.17,-0.03 -0.25,-0.09 -0.38,-0.37 -0.28,-0.63 1.66,-4.47 6.44,-5.7 7.66,-5.46 0.27,0.05 0.44,0.31 0.39,0.57 -0.06,0.26 -0.31,0.43 -0.57,0.38 -0.88,-0.17 -5.13,0.97 -6.58,4.85 -0.07,0.2 -0.25,0.32 -0.45,0.32z"/>
   <path class="fil0" d="M22.83 21.97c-0.25,0 -0.46,-0.19 -0.48,-0.45 -0.17,-2.15 0.18,-5.12 1.36,-6.91 0.15,-0.23 0.45,-0.29 0.67,-0.14 0.23,0.15 0.29,0.45 0.14,0.67 -1.05,1.59 -1.36,4.38 -1.2,6.31 0.02,0.26 -0.18,0.5 -0.45,0.52 -0.01,0 -0.02,0 -0.04,0z"/>
   <path class="fil0" d="M52.2 22.46c-0.06,0 -0.13,-0.01 -0.2,-0.04 -0.24,-0.11 -0.35,-0.4 -0.24,-0.64 1.39,-3.02 3.87,-4.69 8.07,-5.43 0.26,-0.05 0.51,0.12 0.56,0.39 0.05,0.26 -0.13,0.51 -0.39,0.56 -3.85,0.68 -6.12,2.19 -7.35,4.88 -0.09,0.18 -0.26,0.28 -0.45,0.28z"/>
   <path class="fil0" d="M52.95 26.31c-0.1,0 -0.2,-0.03 -0.28,-0.09 -0.22,-0.16 -0.27,-0.46 -0.11,-0.68 2.27,-3.12 3.41,-4.41 9.01,-5.07 0.27,-0.03 0.51,0.16 0.54,0.42 0.03,0.27 -0.16,0.51 -0.42,0.54 -5.15,0.61 -6.16,1.68 -8.34,4.68 -0.1,0.14 -0.25,0.2 -0.4,0.2z"/>
   <path class="fil0" d="M53.67 29.69c-0.12,0 -0.23,-0.04 -0.32,-0.12 -0.2,-0.17 -0.23,-0.48 -0.05,-0.68 2.54,-2.93 5.08,-4.3 9.06,-4.88 0.26,-0.04 0.51,0.14 0.55,0.41 0.03,0.26 -0.15,0.51 -0.41,0.55 -3.72,0.54 -6.1,1.82 -8.47,4.55 -0.09,0.11 -0.23,0.17 -0.36,0.17z"/>
   <path class="fil0" d="M54.45 33.13c-0.15,0 -0.3,-0.07 -0.39,-0.2 -0.16,-0.22 -0.12,-0.52 0.1,-0.68 2.49,-1.82 5.02,-3.55 8.64,-4.72 0.26,-0.08 0.53,0.06 0.61,0.32 0.08,0.25 -0.06,0.52 -0.31,0.61 -3.48,1.12 -5.95,2.8 -8.37,4.57 -0.08,0.07 -0.18,0.1 -0.28,0.1z"/>
   <path class="fil0" d="M36.2 58.02c-0.28,0 -0.53,-0.19 -0.59,-0.47l-0.44 -1.89c-0.08,-0.32 0.13,-0.65 0.45,-0.73 0.33,-0.07 0.66,0.13 0.73,0.46l0.44 1.89c0.08,0.32 -0.13,0.65 -0.45,0.72 -0.05,0.01 -0.1,0.02 -0.14,0.02z"/>
   <path class="fil0" d="M33.73 57.91c-0.03,0 -0.05,0 -0.08,-0.01 -0.33,-0.04 -0.57,-0.35 -0.52,-0.68l0.21 -1.57c0.04,-0.34 0.35,-0.57 0.68,-0.53 0.33,0.05 0.57,0.36 0.52,0.69l-0.21 1.57c-0.04,0.31 -0.3,0.53 -0.6,0.53z"/>
  </g>
  <rect class="fil2" width="86.81" height="86.81"/>
 </g>
</svg>
