<?xml version="1.0" encoding="UTF-8"?>
<!DOCTYPE svg PUBLIC "-//W3C//DTD SVG 1.1//EN" "http://www.w3.org/Graphics/SVG/1.1/DTD/svg11.dtd">
<!-- Creator: CorelDRAW 2018 (64-Bit) -->
<svg xmlns="http://www.w3.org/2000/svg" xml:space="preserve" width="845px" height="845px" version="1.1" style="shape-rendering:geometricPrecision; text-rendering:geometricPrecision; image-rendering:optimizeQuality; fill-rule:evenodd; clip-rule:evenodd"
viewBox="0 0 361.04 361.04"
 xmlns:xlink="http://www.w3.org/1999/xlink">
 <defs>
  <style type="text/css">
   <![CDATA[
    .fil0 {fill:none}
    .fil2 {fill:black}
    .fil1 {fill:black;fill-rule:nonzero}
   ]]>
  </style>
 </defs>
 <g id="Слой_x0020_1">
  <metadata id="CorelCorpID_0Corel-Layer"/>
  <rect class="fil0" width="361.04" height="361.04"/>
 </g>
 <g id="_1">
  <metadata id="CorelCorpID_1Corel-Layer"/>
  <path class="fil1" d="M171.6 132.21c-1.4,0 -2.66,-0.98 -2.96,-2.4 -0.34,-1.64 0.7,-3.24 2.34,-3.59 3.33,-0.7 7.55,-2.25 11.64,-3.76 5.62,-2.07 10.93,-4.02 14.55,-4.02 12.85,0 16.83,3.34 19.74,5.78 0.77,0.65 1.38,1.16 2.04,1.49 1.49,0.74 2.1,2.56 1.36,4.06 -0.75,1.49 -2.57,2.1 -4.06,1.36 -1.3,-0.65 -2.28,-1.47 -3.23,-2.27 -2.44,-2.04 -5.21,-4.36 -15.85,-4.36 -2.54,0 -7.58,1.85 -12.46,3.65 -4.29,1.58 -8.73,3.21 -12.48,4 -0.21,0.04 -0.42,0.06 -0.63,0.06z"/>
  <path class="fil1" d="M109.31 139.64c-1.23,0 -2.38,-0.75 -2.84,-1.97 -0.58,-1.57 0.21,-3.31 1.78,-3.9 0.49,-0.18 1.42,-1.13 2.25,-1.96 3.2,-3.24 8.57,-8.66 20.18,-5.94 2.56,0.6 5.4,1.29 8.12,1.96 4.19,1.02 8.15,1.99 10.32,2.43 1.64,0.33 2.71,1.92 2.38,3.56 -0.33,1.64 -1.93,2.72 -3.57,2.38 -2.3,-0.47 -6.32,-1.45 -10.57,-2.49 -2.71,-0.66 -5.52,-1.35 -8.06,-1.95 -8.31,-1.95 -11.59,1.38 -14.5,4.31 -1.38,1.4 -2.69,2.72 -4.43,3.37 -0.35,0.13 -0.71,0.2 -1.06,0.2z"/>
  <path class="fil1" d="M218.28 149.89c-0.43,0 -0.87,-0.09 -1.28,-0.29 -0.41,-0.19 -1.02,-0.49 -1.74,-0.84 -2.06,-1 -6.33,-3.08 -7.56,-3.41 -10.28,-2.73 -13.79,-2.88 -24.74,1.91 -0.28,0.13 -1.75,0.83 -2.19,1.06 -1.05,0.69 -2.46,0.68 -3.51,-0.12 -1.32,-1.02 -1.58,-2.92 -0.56,-4.25 0.32,-0.43 0.64,-0.84 3.83,-2.24 12.25,-5.36 17.14,-5.29 28.72,-2.21 1.67,0.44 4.91,1.99 8.66,3.82 0.69,0.33 1.27,0.62 1.66,0.8 1.51,0.71 2.16,2.51 1.46,4.03 -0.52,1.1 -1.61,1.74 -2.75,1.74z"/>
  <path class="fil1" d="M145.58 150.08c0.01,0.01 0.02,0.02 0.04,0.03 -0.02,-0.01 -0.03,-0.02 -0.04,-0.03zm-30.84 2.39c-0.12,0 -0.22,-0.01 -0.32,-0.03 -1.65,-0.31 -2.73,-1.89 -2.43,-3.53 0.22,-1.16 1.07,-2.05 2.13,-2.36 0.97,-0.43 4.94,-2.56 5.6,-2.98 3.62,-2.35 17.46,-3.96 21.92,-1.32 1.59,0.95 3.23,1.38 4.55,1.73 0.99,0.27 1.77,0.48 2.46,0.88 1.44,0.85 1.92,2.71 1.07,4.15 -0.83,1.41 -2.62,1.9 -4.06,1.12 -0.25,-0.1 -0.61,-0.18 -1.03,-0.29 -1.5,-0.41 -3.77,-1.01 -6.07,-2.38 -2.08,-1.14 -13.26,-0.29 -15.54,1.19 -0.06,0.04 -5.89,3.82 -8.28,3.82z"/>
  <path class="fil1" d="M258.44 197.84c-0.99,0 -2.02,-0.21 -3.06,-0.65 -2.86,-1.21 -5.18,-4.33 -7.7,-7.98 -0.95,-1.38 -0.63,-3.3 0.74,-4.25 1.38,-0.95 3.24,-0.64 4.19,0.74 1.31,1.89 3.66,5.29 5.13,5.91 0.52,0.22 1.17,0.49 1.84,-1.06l0.16 -0.36c0.32,-0.67 1.05,-2.23 1.52,-4.91 0.28,-1.62 0.94,-3.73 1.63,-5.95 0.59,-1.88 1.19,-3.81 1.56,-5.41 0.74,-3.27 2.43,-7.18 4.38,-11.71 2.41,-5.59 5.15,-11.92 6.48,-18.07 1.46,-6.66 0.59,-13.23 -1.12,-15.18 -2.19,-2.48 -6.61,-0.27 -10.96,2.19 -6.09,3.46 -7.42,5.79 -8.6,7.84 -0.87,1.53 -1.86,3.26 -4.17,4.85 -1.38,0.95 -3.26,0.6 -4.21,-0.78 -0.95,-1.37 -0.6,-3.26 0.78,-4.21 1.17,-0.8 1.61,-1.58 2.34,-2.86 1.41,-2.46 3.34,-5.83 10.87,-10.11 4.5,-2.55 12.87,-7.3 18.49,-0.92 3.84,4.35 3.99,13.66 2.5,20.47 -1.46,6.72 -4.32,13.34 -6.84,19.18 -1.76,4.08 -3.42,7.93 -4.04,10.65 -0.42,1.83 -1.06,3.88 -1.68,5.87 -0.61,1.95 -1.23,3.96 -1.45,5.19 -0.6,3.48 -1.58,5.55 -1.99,6.44l-0.08 0.18c-1.36,3.15 -3.87,4.9 -6.71,4.9z"/>
  <path class="fil1" d="M257.01 173.61c-1.68,0 -3.03,-1.36 -3.03,-3.03l0 -1.29c-0.01,-6.27 -0.02,-11.69 1.79,-18.19 0.34,-1.19 0.6,-2.2 0.83,-3.07 1.6,-6.1 2.05,-6.71 8.11,-10.85l0.69 -0.47c1.37,-0.95 3.26,-0.6 4.21,0.78 0.94,1.38 0.59,3.26 -0.79,4.21l-0.69 0.47c-4.55,3.12 -4.55,3.12 -5.67,7.4 -0.24,0.89 -0.51,1.93 -0.85,3.15 -1.59,5.7 -1.59,10.73 -1.58,16.56l0 1.3c0,1.67 -1.35,3.03 -3.02,3.03z"/>
  <path class="fil1" d="M273.23 101.21c-11.47,0 -19.9,-9.05 -20.5,-22.02 -0.69,-15.08 -9.41,-27.35 -22.74,-32.02 -1.58,-0.55 -2.41,-2.28 -1.86,-3.86 0.55,-1.58 2.29,-2.4 3.86,-1.86 15.72,5.51 25.98,19.86 26.79,37.46 0.37,8.09 4.99,16.25 14.45,16.25 1.67,0 3.03,1.35 3.03,3.03 0,1.67 -1.36,3.02 -3.03,3.02z"/>
  <path class="fil1" d="M271.22 112.6c-19.63,0 -26.21,-17.72 -29.45,-31.22 -1.97,-8.2 -4.53,-16.39 -9.84,-20.74 -0.4,-0.33 -0.95,-0.74 -1.61,-1.22 -2.1,-1.54 -5.27,-3.88 -7.73,-6.69 -1.1,-1.25 -0.98,-3.17 0.28,-4.27 1.26,-1.1 3.17,-0.98 4.27,0.28 2.03,2.31 4.77,4.33 6.78,5.81 0.75,0.55 1.39,1.02 1.85,1.4 6.69,5.49 9.67,14.78 11.89,24.01 4.61,19.19 12.05,27.11 24.82,26.56 1.72,-0.06 3.08,1.22 3.16,2.88 0.07,1.68 -1.22,3.09 -2.89,3.17 -0.52,0.02 -1.03,0.03 -1.53,0.03z"/>
  <g>
   <path class="fil1" d="M254.82 125.94l0.02 0 -0.02 0zm1.68 0.38c-0.8,0 -1.35,-0.19 -1.79,-0.41 -13.73,-3.14 -17.54,-21.68 -20.32,-35.23 -1.19,-5.83 -2.43,-11.86 -3.94,-13.61 -1.09,-1.27 -0.95,-3.18 0.32,-4.27 1.26,-1.1 3.17,-0.95 4.27,0.32 2.54,2.95 3.75,8.86 5.29,16.35 2.58,12.62 5.81,28.33 15.8,30.55 0.33,0.08 0.6,0.17 0.82,0.26 1.44,0.13 2.63,1.29 2.75,2.77 0.13,1.66 -1.08,3.11 -2.74,3.25 -0.16,0.02 -0.32,0.02 -0.46,0.02z"/>
  </g>
  <path class="fil1" d="M101.96 164.58c-1.67,0 -3.03,-1.36 -3.03,-3.03 0,-1.73 -1.13,-5.67 -2.04,-8.83 -0.85,-2.97 -1.59,-5.53 -1.81,-7.34 -0.65,-5.4 -1.78,-7.75 -2.88,-10.01 -0.65,-1.35 -1.33,-2.75 -1.83,-4.61 -0.56,-2.02 -1.17,-4.02 -1.78,-5.99 -2.97,-9.64 -6.03,-19.6 -1.23,-30.56 2.07,-4.74 4.06,-10.48 5.98,-16.04 2.96,-8.54 6.02,-17.37 9.71,-23.65 5.52,-9.35 6.59,-10.4 12.14,-15.12 1.19,-1.01 2.61,-2.22 4.36,-3.77 10.11,-8.91 24.85,-10.87 37.85,-12.6l2.97 -0.4c16.38,-2.23 18.55,-1.9 30.57,-0.03 1.78,0.27 3.79,0.59 6.1,0.93 15.45,2.29 19.22,5.63 22.55,8.58 1.69,1.5 2.9,2.58 5.97,3.47 1.6,0.47 2.53,2.15 2.06,3.75 -0.46,1.61 -2.14,2.53 -3.75,2.07 -4.37,-1.27 -6.46,-3.12 -8.3,-4.75 -2.7,-2.39 -5.75,-5.1 -19.42,-7.13 -2.32,-0.35 -4.34,-0.66 -6.14,-0.94 -11.54,-1.79 -13.32,-2.07 -28.82,0.05l-2.99 0.4c-12.15,1.62 -25.92,3.45 -34.64,11.14 -1.79,1.58 -3.24,2.81 -4.45,3.84 -5.04,4.29 -5.69,4.84 -10.84,13.59 -3.39,5.75 -6.35,14.29 -9.2,22.55 -1.97,5.67 -3.99,11.54 -6.17,16.49 -3.89,8.9 -1.41,16.98 1.48,26.34 0.63,2.04 1.26,4.1 1.83,6.19 0.36,1.32 0.86,2.36 1.44,3.56 1.19,2.46 2.68,5.52 3.45,11.93 0.16,1.32 0.89,3.89 1.61,6.38 1.12,3.9 2.28,7.92 2.28,10.51 0,1.67 -1.36,3.03 -3.03,3.03z"/>
  <path class="fil1" d="M105.33 149.27c-1.63,0 -2.97,-1.29 -3.03,-2.93 -0.23,-7.25 0.52,-43.29 2.63,-51l0.3 -1.1c1.29,-4.72 3.43,-12.61 6.52,-19.3 8.38,-18.15 24.59,-20.6 36.04,-20.86 2.84,-0.07 5.7,-0.07 8.52,-0.07 7.69,0 14.93,0.01 20.56,-1.32 1.64,-0.4 3.26,0.62 3.65,2.24 0.38,1.63 -0.62,3.26 -2.25,3.65 -6.32,1.5 -13.89,1.52 -21.96,1.49 -2.78,0 -5.59,0 -8.38,0.06 -15.85,0.37 -25.31,5.72 -30.68,17.35 -2.88,6.23 -4.94,13.81 -6.17,18.34l-0.31 1.12c-1.72,6.3 -2.71,40.17 -2.41,49.2 0.05,1.68 -1.26,3.07 -2.93,3.13 -0.04,0 -0.07,0 -0.1,0z"/>
  <path class="fil1" d="M97.11 115.91c-1.12,0 -2.02,-0.9 -2.02,-2.02 0,-2.27 0.38,-5.2 0.72,-7.79 0.25,-1.87 0.48,-3.64 0.53,-4.8 0.63,-17.48 7.32,-32.14 19.35,-42.39 12.39,-10.57 29.14,-15.17 47.13,-12.96 4.44,0.55 7.13,1.17 9.5,1.72 3.97,0.93 7.11,1.66 16.88,1.66 1.12,0 2.02,0.9 2.02,2.02 0,1.11 -0.9,2.01 -2.02,2.01 -10.23,0 -13.74,-0.81 -17.79,-1.76 -2.39,-0.55 -4.85,-1.12 -9.08,-1.65 -16.87,-2.07 -32.5,2.2 -44.03,12.03 -11.13,9.5 -17.33,23.14 -17.93,39.46 -0.05,1.36 -0.29,3.22 -0.55,5.19 -0.33,2.46 -0.7,5.25 -0.7,7.26 0,1.12 -0.9,2.02 -2.01,2.02z"/>
  <path class="fil1" d="M122.48 46.42c-1.02,0 -2,-0.51 -2.58,-1.43 -0.88,-1.42 -0.45,-3.29 0.97,-4.17 4.31,-2.69 14.03,-4.26 22.8,-5.52l1.32 -0.19c7.63,-1.11 17.65,0.81 26.49,2.5 6.5,1.25 13.22,2.54 16.17,1.9 1.63,-0.35 3.24,0.69 3.6,2.32 0.35,1.63 -0.69,3.24 -2.32,3.6 -4.16,0.9 -10.84,-0.39 -18.59,-1.87 -8.37,-1.61 -17.84,-3.42 -24.47,-2.46l-1.34 0.2c-5.48,0.78 -16.87,2.42 -20.46,4.66 -0.5,0.31 -1.05,0.46 -1.59,0.46z"/>
  <path class="fil1" d="M214.31 43.05c-12.12,0 -20.22,-2.86 -26.73,-5.15 -4.74,-1.67 -8.84,-3.12 -13.38,-3.12 -1.67,0 -3.03,-1.35 -3.03,-3.02 0,-1.68 1.36,-3.03 3.03,-3.03 5.58,0 10.35,1.68 15.39,3.45 6.39,2.26 13.63,4.81 24.72,4.81 1.67,0 3.02,1.36 3.02,3.03 0,1.67 -1.35,3.03 -3.02,3.03z"/>
  <path class="fil1" d="M156.45 127.14c-1.11,0 -2.02,-0.91 -2.02,-2.02 0,-0.14 0.08,-13.99 1.93,-17.41 0.53,-0.98 1.75,-1.35 2.73,-0.82 0.98,0.53 1.35,1.75 0.82,2.73 -0.83,1.56 -1.44,10.34 -1.44,15.5 0,1.11 -0.91,2.02 -2.02,2.02z"/>
  <path class="fil1" d="M130.12 138.62c-11.03,0 -20.02,7.85 -20.02,17.49 0,9.65 8.99,17.5 20.02,17.5 11.04,0 20.03,-7.85 20.03,-17.5 0,-9.64 -8.99,-17.49 -20.03,-17.49zm0 39.03c-13.26,0 -24.05,-9.66 -24.05,-21.54 0,-11.87 10.79,-21.53 24.05,-21.53 13.27,0 24.06,9.66 24.06,21.53 0,11.88 -10.79,21.54 -24.06,21.54z"/>
  <path class="fil1" d="M198.13 131.47c-12.76,0 -23.14,9.09 -23.14,20.25 0,11.17 10.38,20.26 23.14,20.26 12.75,0 23.13,-9.09 23.13,-20.26 0,-11.16 -10.38,-20.25 -23.13,-20.25zm0 44.54c-14.99,0 -27.18,-10.89 -27.18,-24.29 0,-13.39 12.19,-24.28 27.18,-24.28 14.98,0 27.17,10.89 27.17,24.28 0,13.4 -12.19,24.29 -27.17,24.29z"/>
  <path class="fil1" d="M149.65 149.07c-0.63,0 -1.26,-0.3 -1.65,-0.86 -0.64,-0.91 -0.42,-2.17 0.49,-2.81 0.47,-0.33 1.05,-0.66 1.66,-1 0.39,-0.22 0.95,-0.54 1.37,-0.82 -0.11,-0.07 -0.25,-0.14 -0.41,-0.22 -1.61,-0.81 -3.2,-3.3 -3.88,-5.24 -0.67,-1.91 -0.6,-3.59 0.21,-5.02 1.52,-2.69 5.15,-3.42 7.8,-3.96l0.37 -0.08c3.45,-0.72 6.46,-1.03 8.9,-0.99 0.67,0.01 6.65,0.24 9.52,3.4 1.07,1.17 1.58,2.62 1.47,4.16 -0.18,2.48 -1.83,4.86 -3.03,6.59 -0.06,0.09 -0.12,0.18 -0.19,0.28 0.87,0.32 1.65,0.58 2.3,0.75 1.07,0.28 1.72,1.38 1.44,2.46 -0.28,1.08 -1.39,1.72 -2.46,1.45 -1.26,-0.33 -2.81,-0.89 -4.59,-1.65 -0.66,-0.28 -1.14,-0.83 -1.34,-1.51 -0.38,-1.33 0.42,-2.48 1.52,-4.08 0.94,-1.34 2.22,-3.2 2.32,-4.57 0.03,-0.45 -0.1,-0.8 -0.43,-1.16 -1.16,-1.28 -4.28,-2.03 -6.62,-2.08 -2.16,-0.06 -4.84,0.25 -7.99,0.9l-0.39 0.08c-1.78,0.37 -4.47,0.91 -5.09,2 -0.21,0.37 -0.18,0.94 0.08,1.68 0.53,1.5 1.59,2.78 1.92,2.99 0.73,0.37 3.04,1.52 3.09,3.7 0.05,2.21 -2.14,3.45 -3.91,4.45 -0.48,0.27 -0.95,0.53 -1.32,0.8 -0.35,0.25 -0.76,0.36 -1.16,0.36z"/>
  <path class="fil1" d="M211.24 239.19c-1.1,0 -2,-0.88 -2.02,-1.98 -0.2,-12.7 -9.46,-24.8 -16.89,-34.52 -3.26,-4.26 -6.07,-7.94 -7.83,-11.22 -1.86,-3.48 -3.72,-6.86 -5.97,-10 -0.65,-0.9 -0.44,-2.16 0.47,-2.81 0.9,-0.65 2.16,-0.45 2.81,0.46 2.39,3.33 4.32,6.85 6.25,10.45 1.6,2.99 4.32,6.55 7.47,10.66 7.8,10.2 17.5,22.88 17.73,36.91 0.02,1.12 -0.87,2.03 -1.98,2.05l-0.04 0z"/>
  <path class="fil1" d="M130.12 234.81c-0.06,0 -0.11,0 -0.18,0 -1.11,-0.1 -1.93,-1.08 -1.83,-2.19 1.03,-11.62 10.41,-41.13 18.19,-50.85 0.7,-0.86 1.97,-1.01 2.84,-0.31 0.87,0.7 1.01,1.97 0.31,2.84 -7.25,9.05 -16.35,37.77 -17.32,48.67 -0.09,1.05 -0.97,1.84 -2.01,1.84z"/>
  <path class="fil1" d="M160.46 203.21c-4.73,0 -8.18,-2.52 -11.27,-4.79 -7.39,-5.4 -3.97,-14.76 -1.92,-20.36 1.06,-2.91 4.57,-18.38 2.74,-29.97 -0.26,-1.65 0.87,-3.2 2.52,-3.46 1.66,-0.27 3.2,0.86 3.46,2.52 2.05,12.92 -1.81,29.65 -3.03,32.99 -2.54,6.93 -3.32,11.11 -0.2,13.4 3.87,2.82 5.89,4.01 8.99,3.51 1.92,-0.31 3.19,-1.46 4.66,-2.8 1.99,-1.79 4.7,-4.25 9.02,-3.26 0.4,0.1 0.86,0.23 1.36,0.38 0.76,0.22 2.78,0.81 3.31,0.54 -0.01,0 0.44,-0.51 0.41,-2.6 -0.02,-1.67 1.31,-3.04 2.99,-3.07 0.01,0 0.02,0 0.04,0 1.65,0 3,1.33 3.02,2.99 0.06,3.57 -0.86,6.03 -2.8,7.51 -2.82,2.14 -6.34,1.11 -8.66,0.44 -0.38,-0.11 -0.73,-0.22 -1.04,-0.29 -1.11,-0.25 -1.7,0.15 -3.59,1.85 -1.81,1.65 -4.07,3.69 -7.75,4.29 -0.79,0.12 -1.54,0.18 -2.26,0.18z"/>
  <g>
   <path class="fil1" d="M156.08 225.39l0 0 0 0zm0 0c0,0 0,0.01 0,0.01l0 -0.01zm-13.09 6.04c-0.67,0 -1.29,-0.07 -1.86,-0.23 -1.61,-0.42 -2.54,-2.06 -2.13,-3.66 0.41,-1.61 2.07,-2.58 3.68,-2.19 1.4,0.34 6.54,-1.61 9,-2.55 3.76,-1.43 6.72,-2.55 8.56,-1.51 1.23,0.28 2.33,0.76 3.34,1.19 2.55,1.11 3.44,1.39 5.1,-0.08 4.59,-4.05 10.19,-1.49 13.91,0.2 1.09,0.5 2.12,0.97 2.94,1.21 1.93,0.58 5.33,1.02 6.37,0.72 1.16,-1.01 2.92,-0.98 4.06,0.1 1.21,1.16 1.25,3.07 0.1,4.28 -3.09,3.24 -10.76,1.15 -12.27,0.7 -1.22,-0.36 -2.43,-0.92 -3.72,-1.5 -3.47,-1.58 -5.85,-2.52 -7.39,-1.17 -4.63,4.08 -8.77,2.29 -11.52,1.1 -0.97,-0.43 -1.89,-0.83 -2.64,-0.91 -0.21,-0.02 -0.4,-0.06 -0.6,-0.12 -0.92,0.25 -2.71,0.93 -4.08,1.45 -4.48,1.71 -8.06,2.97 -10.85,2.97z"/>
  </g>
  <path class="fil1" d="M180.85 233.04c0,0 0,0 -0.01,0 0.01,0 0.01,0 0.01,0zm-13.4 7.53c-4.34,0 -8.03,-0.8 -10.99,-1.45 -1.73,-0.37 -3.22,-0.7 -4.15,-0.7 -1.67,0 -3.02,-1.35 -3.02,-3.03 0,-1.67 1.35,-3.02 3.02,-3.02 1.58,0 3.37,0.38 5.43,0.83 2.69,0.59 6.02,1.31 9.71,1.31 3.77,0 5.84,0 9.33,-0.93 0.31,-0.08 0.9,-0.2 1.6,-0.33 0.72,-0.13 2.33,-0.42 2.96,-0.64 1.13,-0.8 2.71,-0.73 3.78,0.25 1.24,1.12 1.32,3.04 0.19,4.27 -1,1.1 -2.54,1.47 -5.84,2.08 -0.49,0.09 -0.91,0.16 -1.13,0.22 -4.25,1.14 -6.89,1.14 -10.89,1.14z"/>
  <g>
   <path class="fil1" d="M102.42 149.85c0,0 0,0 0,0 0,0 0,0 0,0zm0 0.01l0.01 0 -0.01 0zm0.01 0c0.01,0 0.01,0 0.01,0 0,0 0,0 -0.01,0zm0.01 0c0,0.01 0.01,0.01 0.01,0.01 0,0 -0.01,0 -0.01,-0.01zm0.01 0.01c0,0 0.01,0 0.01,0 0,0 -0.01,0 -0.01,0zm0.01 0c0,0 0,0 0.01,0 -0.01,0 -0.01,0 -0.01,0zm0.01 0.01c0,0 0,0 0.01,0 -0.01,0 -0.01,0 -0.01,0zm0.01 0c0,0 0,0 0,0 0,0 0,0 0,0zm0.01 0c0,0 0,0 0,0.01 0,-0.01 0,-0.01 0,-0.01zm0 0.01c0.01,0 0.01,0 0.01,0 0,0 0,0 -0.01,0zm0.01 0c0.01,0 0.01,0 0.01,0 0,0 0,0 -0.01,0zm0.01 0c0.01,0 0.01,0 0.01,0.01 0,-0.01 0,-0.01 -0.01,-0.01zm0.01 0.01c0.01,0 0.01,0 0.01,0 0,0 0,0 -0.01,0zm150.37 41.15l0 0 0 0zm-78.72 98.48c-8.89,0 -18.02,-2.46 -25.5,-6.94 -9.38,-5.62 -17.02,-10.5 -22.89,-17.73 -11.12,-13.72 -14.31,-40.25 -16.42,-57.8l-0.44 -3.59c-0.81,-6.6 -6.82,-50.58 -8,-55.06 -0.36,-0.74 -0.42,-1.61 -0.1,-2.44 0.62,-1.55 2.38,-2.32 3.93,-1.7 2.12,0.83 2.16,0.85 6.08,28.4 1.87,13.15 3.75,27.13 4.11,30.06l0.43 3.61c2.03,16.86 5.09,42.34 15.12,54.71 5.25,6.47 12.13,10.86 21.29,16.34 7.39,4.43 16.62,6.61 25.35,5.98 27.7,-2 56.42,-29.21 63.59,-52.21 0.69,-2.19 1.85,-11.07 2.88,-18.9 2.56,-19.5 3.3,-23.49 4.64,-25.09 1.07,-1.29 2.98,-1.46 4.26,-0.38 1.2,0.99 1.42,2.71 0.6,3.97 -0.85,2.14 -2.44,14.24 -3.49,22.29 -1.41,10.72 -2.32,17.4 -3.1,19.91 -7.77,24.91 -38,54.22 -68.95,56.45 -1.12,0.08 -2.25,0.12 -3.39,0.12z"/>
  </g>
  <path class="fil1" d="M111.86 208.89c-7.74,0 -9.59,-11.51 -10.95,-19.99 -0.43,-2.62 -0.82,-5.09 -1.28,-6.51 -0.88,-2.76 -2.73,-13.03 -4.61,-23.73 -0.21,-1.19 -0.37,-2.12 -0.47,-2.68 -3.02,-4.5 -6.23,-13.77 -1.47,-18.54 1.18,-1.18 3.1,-1.18 4.28,0 1.19,1.18 1.19,3.1 0.01,4.28 -1.63,1.63 0.06,8 2.46,11.25 0.45,0.59 0.45,0.59 1.16,4.64 0.96,5.53 3.54,20.19 4.41,22.94 0.59,1.84 1.01,4.42 1.49,7.39 0.72,4.48 2.39,14.89 5.07,14.89 0.03,0 0.07,0 0.09,-0.01 1.69,-0.12 3.14,1.09 3.29,2.75 0.15,1.67 -1.08,3.14 -2.75,3.29 -0.25,0.02 -0.49,0.03 -0.73,0.03z"/>
  <path class="fil1" d="M176.81 289c0,0 0.01,0 0.01,0 0,0 -0.01,0 -0.01,0zm31.01 42.36c-6.47,0 -13.59,-8.95 -24.47,-30.72l-0.86 -1.7c-1.21,-2.4 -4.85,-8.89 -6.01,-10.14 -1.23,-0.87 -1.65,-2.52 -0.94,-3.89 0.78,-1.48 2.61,-2.05 4.09,-1.27 2.38,1.24 6.92,9.92 8.26,12.55l0.88 1.74c12.64,25.3 17.73,27.37 19.04,27.37 0.01,0 0.03,0 0.04,0 9.44,-0.31 14.06,-7.35 17.34,-14.18 5.58,-11.64 13.5,-28.79 17.94,-43.29 4.69,-15.33 9.02,-36.46 2.99,-50.03 -0.68,-1.53 0.01,-3.32 1.54,-4 1.53,-0.68 3.32,0.01 3.99,1.54 6.8,15.28 2.27,37.94 -2.73,54.27 -4.51,14.72 -12.13,31.31 -18.27,44.12 -3.53,7.36 -9.71,17.2 -22.6,17.62 -0.08,0.01 -0.16,0.01 -0.23,0.01z"/>
  <path class="fil1" d="M157.98 330.98c-0.53,0 -1.07,-0.09 -1.59,-0.27 -2.09,-0.73 -3.77,-2.83 -5.28,-6.59 -5.52,-13.75 -8.18,-25.88 -11.26,-39.94l-0.34 -1.53c-0.05,-0.2 -0.28,-0.99 -1.11,-3.49 -0.22,-0.65 -0.37,-1.13 -0.25,-1.86 0.28,-1.66 1.83,-2.77 3.49,-2.49 1.18,0.19 2.08,1.04 2.4,2.12l0.11 0.33c0.82,2.49 1.17,3.6 1.28,4.08l0.33 1.55c3.02,13.79 5.63,25.7 10.97,38.97 0.46,1.15 0.85,1.91 1.16,2.39 2.62,-4.93 6.65,-23.18 8.25,-30.42 0.62,-2.83 1.13,-5.1 1.45,-6.38 0.41,-1.62 2.07,-2.59 3.68,-2.18 1.62,0.41 2.6,2.06 2.19,3.68 -0.32,1.24 -0.8,3.44 -1.41,6.19 -5.53,25.06 -8.24,33.28 -11.58,35.17 -0.79,0.45 -1.64,0.67 -2.49,0.67z"/>
  <path class="fil1" d="M70.71 302.45c-1.27,0 -2.46,-0.81 -2.87,-2.09 -0.52,-1.58 0.34,-3.3 1.93,-3.81 2.44,-0.8 9.51,-4.06 29.39,-15.04 1.73,-0.96 1.73,-0.96 2.12,-1.06 2.28,-0.56 8.47,-5.1 12.99,-8.41 7.39,-5.42 10.64,-7.66 13.01,-7.96 1.65,-0.23 3.18,0.95 3.39,2.61 0.21,1.64 -0.93,3.14 -2.55,3.38 -1.47,0.4 -6.76,4.28 -10.27,6.86 -6.75,4.95 -11.5,8.32 -14.68,9.28 -0.23,0.12 -0.6,0.33 -1.09,0.6 -16.51,9.13 -26.46,14.19 -30.42,15.49 -0.32,0.1 -0.63,0.15 -0.95,0.15z"/>
  <path class="fil1" d="M281.19 250.83c-0.69,0 -1.16,-0.26 -3.45,-1.55 -1.94,-1.09 -7.09,-3.98 -8.34,-4.35 -6.17,-1.8 -12.85,-10.75 -20.33,-21.39 -1.7,-2.42 -3.17,-4.51 -4.35,-6.01 -1.03,-1.31 -0.8,-3.22 0.51,-4.25 1.32,-1.03 3.22,-0.81 4.25,0.51 1.28,1.62 2.79,3.78 4.55,6.27 4.65,6.62 12.44,17.71 17.07,19.06 1.77,0.52 5.55,2.61 9.6,4.88 0.83,0.47 1.47,0.83 1.78,0.99 1.02,0.41 1.78,1.37 1.87,2.55 0.15,1.66 -1.09,3.13 -2.76,3.27 -0.15,0.01 -0.28,0.02 -0.4,0.02z"/>
  <path class="fil1" d="M168.99 339.37c-1.58,0 -2.91,-1.23 -3.02,-2.83 -0.07,-1.13 -0.28,-1.87 -0.67,-2.31 -2.98,-3.41 -3.76,-4.54 -6.25,-8.35 -0.92,-1.39 -0.53,-3.27 0.87,-4.19 1.4,-0.92 3.28,-0.53 4.19,0.87 2.3,3.51 2.92,4.45 5.75,7.68 1.29,1.48 1.99,3.41 2.16,5.9 0.11,1.67 -1.16,3.11 -2.83,3.22 -0.06,0 -0.13,0.01 -0.2,0.01z"/>
  <path class="fil1" d="M201.53 325.9c-0.03,0.02 -0.06,0.04 -0.09,0.06 0.03,-0.02 0.06,-0.04 0.09,-0.06zm-6.65 9.17c-0.26,0 -0.53,-0.03 -0.8,-0.1 -1.62,-0.41 -2.57,-2.13 -2.15,-3.75 0.25,-0.96 3.79,-8.51 5.84,-10.07 1.33,-1.01 3.23,-0.76 4.24,0.57 0.98,1.28 0.78,3.1 -0.43,4.14 -0.87,0.99 -3.45,5.95 -3.83,7 -0.34,1.36 -1.54,2.21 -2.87,2.21z"/>
  <g>
   <path class="fil1" d="M150.36 330.65l0 0.01 0 -0.01zm0 0.01l0 0 0 0zm-2.33 4.95c-0.87,0 -1.73,-0.37 -2.33,-1.09 -0.84,-1.01 -1,-1.2 -0.87,-11.52l0.01 -1.22c0,-4.73 -3,-29.66 -4.31,-34.53 -0.44,-1.61 0.52,-3.28 2.13,-3.71 1.62,-0.44 3.28,0.52 3.71,2.13 1.48,5.47 4.53,30.87 4.53,36.11l-0.01 1.29c-0.06,4.84 -0.05,7.75 0.04,8.66 0.33,1.12 -0.01,2.39 -0.97,3.19 -0.57,0.46 -1.25,0.69 -1.93,0.69z"/>
  </g>
  <path class="fil1" d="M221.8 337.76c-0.33,0 -0.66,-0.05 -0.98,-0.17 -1.58,-0.54 -2.43,-2.26 -1.88,-3.84 0.61,-1.8 1.36,-4.94 2.16,-8.26 1.43,-5.98 2.91,-12.16 4.64,-15.51 0.76,-1.49 2.59,-2.07 4.08,-1.31 1.48,0.77 2.07,2.59 1.3,4.08 -1.39,2.7 -2.91,9.05 -4.13,14.15 -0.87,3.62 -1.62,6.74 -2.33,8.81 -0.43,1.26 -1.6,2.05 -2.86,2.05z"/>
  <path class="fil2" d="M199.96 139.59c3.01,0 5.45,2.44 5.45,5.45 0,3.02 -2.44,5.46 -5.45,5.46 -3.01,0 -5.45,-2.44 -5.45,-5.46 0,-3.01 2.44,-5.45 5.45,-5.45z"/>
  <path class="fil2" d="M131.08 142.96c3.02,0 5.46,2.44 5.46,5.45 0,3.01 -2.44,5.46 -5.46,5.46 -3.01,0 -5.45,-2.45 -5.45,-5.46 0,-3.01 2.44,-5.45 5.45,-5.45z"/>
  <path class="fil1" d="M268.95 126.39c-1.55,0 -2.88,-1.19 -3.02,-2.77 -0.05,-0.6 0.04,-0.9 0.32,-1.81 5.53,-18.07 4.31,-22.13 4.16,-22.53 -0.61,-1.56 0.17,-3.31 1.73,-3.92 1.55,-0.6 3.31,0.17 3.92,1.73 0.56,1.46 2.28,5.9 -4.02,26.49l-0.15 0.5c-0.3,1.22 -1.35,2.18 -2.67,2.29 -0.09,0.01 -0.18,0.02 -0.27,0.02z"/>
 </g>
</svg>
