<?xml version="1.0" encoding="UTF-8"?>
<!DOCTYPE svg PUBLIC "-//W3C//DTD SVG 1.1//EN" "http://www.w3.org/Graphics/SVG/1.1/DTD/svg11.dtd">
<!-- Creator: CorelDRAW 2018 (64-Bit) -->
<svg xmlns="http://www.w3.org/2000/svg" xml:space="preserve" width="845px" height="845px" version="1.1" style="shape-rendering:geometricPrecision; text-rendering:geometricPrecision; image-rendering:optimizeQuality; fill-rule:evenodd; clip-rule:evenodd"
viewBox="0 0 361.04 361.04"
 xmlns:xlink="http://www.w3.org/1999/xlink">
 <defs>
  <style type="text/css">
   <![CDATA[
    .fil0 {fill:none}
    .fil2 {fill:black}
    .fil1 {fill:black;fill-rule:nonzero}
   ]]>
  </style>
 </defs>
 <g id="Слой_x0020_1">
  <metadata id="CorelCorpID_0Corel-Layer"/>
  <rect class="fil0" width="361.04" height="361.04"/>
 </g>
 <g id="_1">
  <metadata id="CorelCorpID_1Corel-Layer"/>
  <path class="fil1" d="M177.76 160.92c-1.03,0 -1.91,-0.79 -2.01,-1.84 -0.25,-2.96 5.97,-5.18 6.03,-5.19 9.07,-1.84 13.02,0.13 15.15,1.19 0.25,0.13 0.45,0.24 0.63,0.31 1.04,0.05 1.88,0.89 1.92,1.95 0.03,1.11 -0.84,2.04 -1.96,2.08 -0.86,0.04 -1.62,-0.34 -2.4,-0.73 -1.67,-0.83 -4.77,-2.38 -12.4,-0.87 -0.99,0.47 -2.51,1.32 -3.06,1.79 -0.27,0.71 -0.92,1.24 -1.72,1.31 -0.06,0 -0.12,0 -0.18,0z"/>
  <path class="fil1" d="M140.51 164.09c-1.08,0 -2.11,-0.57 -2.66,-1.58 -0.81,-1.46 -0.27,-3.3 1.2,-4.11 5.74,-3.15 12.23,-6.4 16.85,-6.68 4.24,-0.26 5.56,0.23 8.38,1.45 0.73,0.32 1.63,0.71 2.8,1.16 1.56,0.61 2.33,2.37 1.72,3.93 -0.61,1.56 -2.37,2.33 -3.92,1.72 -1.26,-0.49 -2.22,-0.91 -3.02,-1.25 -2.28,-1 -2.63,-1.15 -5.59,-0.97 -3.89,0.23 -11.46,4.39 -14.31,5.95 -0.46,0.26 -0.96,0.38 -1.45,0.38z"/>
  <path class="fil1" d="M207.01 156.37c-0.62,0 -1.24,-0.19 -1.78,-0.59 -1.35,-0.99 -1.64,-2.88 -0.66,-4.23 4.67,-6.38 13.6,-5.64 16.53,-5.39 7.83,0.66 11.82,2.97 13.74,4.08l0.42 0.24c1.46,0.81 1.99,2.65 1.18,4.11 -0.81,1.46 -2.65,2 -4.12,1.18l-0.51 -0.29c-1.66,-0.96 -4.73,-2.74 -11.21,-3.28 -3.63,-0.31 -8.75,-0.33 -11.14,2.93 -0.59,0.81 -1.52,1.24 -2.45,1.24z"/>
  <path class="fil1" d="M199.18 137.89c-0.37,0 -0.74,-0.07 -1.1,-0.21 -1.56,-0.61 -2.33,-2.37 -1.72,-3.92 0.66,-1.69 0.66,-1.69 10.01,-3.35 0.31,-0.05 7.71,-1.36 8.4,-1.42 1.62,-0.14 3.3,-0.58 5.08,-1.05 5.55,-1.46 12.47,-3.29 21.94,3.26 1.38,0.95 1.72,2.84 0.77,4.21 -0.95,1.38 -2.83,1.72 -4.21,0.77 -7.18,-4.96 -11.71,-3.77 -16.96,-2.38 -1.95,0.51 -3.97,1.05 -6.12,1.22 -1.19,0.16 -13.5,2.33 -15.11,2.71 -0.32,0.1 -0.65,0.16 -0.98,0.16z"/>
  <path class="fil1" d="M128.75 146.57c-0.49,0 -0.99,-0.12 -1.45,-0.38 -1.47,-0.8 -2.01,-2.64 -1.2,-4.11 2.41,-4.41 12.36,-8.35 15.74,-8.77 6.23,-0.76 11.52,-0.31 16.18,0.1 2.8,0.24 5.44,0.46 8.07,0.42 1.74,-0.07 3.05,1.31 3.07,2.98 0.03,1.67 -1.3,3.05 -2.97,3.08 -2.92,0.05 -5.73,-0.2 -8.69,-0.45 -4.58,-0.4 -9.32,-0.81 -14.92,-0.12 -2.9,0.36 -10.18,3.86 -11.18,5.67 -0.54,1.01 -1.58,1.58 -2.65,1.58z"/>
  <path class="fil1" d="M214.6 193.88c0,0.01 0,0.01 0,0.01 0,0 0,0 0,-0.01zm-24.71 11.35c-3.07,0 -5.47,-1.33 -7.61,-2.52 -2.71,-1.5 -5.05,-2.79 -9.04,-1.93 -5.32,1.16 -8.76,-1.48 -10.22,-4.33 -1.78,-3.5 -1.02,-7.73 1.85,-10.28 1.25,-1.11 3.16,-1 4.27,0.25 1.11,1.25 1,3.16 -0.25,4.28 -0.91,0.8 -0.92,2.12 -0.47,3.01 0.73,1.43 2.32,1.41 3.53,1.15 6.21,-1.35 10.12,0.81 13.26,2.55 3.69,2.04 5.72,3.17 11.59,-1.64 2.32,-1.9 5.23,-2.29 7.8,-2.64 2.49,-0.33 4.03,-0.6 4.37,-1.47 0.06,-0.15 0.16,-0.36 0.32,-0.62 0.11,-0.2 0.17,-0.3 0.14,-0.68 -0.05,-0.56 -0.28,-1.15 -0.46,-1.44 -1.46,-0.22 -2.57,-1.48 -2.57,-3 0.01,-1.67 1.36,-3.02 3.03,-3.02l0.01 0c3.54,0.01 5.71,3.49 6.02,6.91 0.21,2.26 -0.59,3.69 -0.94,4.27 -1.73,4.06 -5.99,4.64 -9.11,5.05 -1.86,0.25 -3.78,0.51 -4.78,1.32 -4.38,3.6 -7.85,4.78 -10.74,4.78z"/>
  <path class="fil1" d="M157.58 220.58c-0.5,0 -0.98,-0.05 -1.45,-0.15 -1.63,-0.37 -2.66,-1.98 -2.3,-3.62 0.37,-1.63 1.99,-2.66 3.61,-2.29 0.61,0.07 2.55,-0.4 3.84,-0.72 1.49,-0.37 3.04,-0.75 4.58,-0.94 6.5,-0.81 15.23,-1.46 19.99,0.01 4.05,1.26 5.58,1.39 6.51,1.37 0.52,-0.02 1.39,-0.29 2.4,-0.6 2.29,-0.72 5.43,-1.7 10.21,-1.7 3.19,0 5.3,0.39 7.16,0.74 2.48,0.46 4.44,0.82 8.74,0.21 1.67,-0.24 3.19,0.91 3.42,2.57 0.24,1.66 -0.91,3.19 -2.57,3.42 -5.28,0.76 -8.03,0.25 -10.7,-0.25 -1.76,-0.32 -3.42,-0.63 -6.05,-0.63 -3.86,0 -6.38,0.78 -8.41,1.42 -1.43,0.45 -2.67,0.83 -4.02,0.87 -2.12,0.06 -4.49,-0.4 -8.49,-1.64 -2.85,-0.88 -9.22,-0.8 -17.44,0.22 -1.19,0.15 -2.55,0.48 -3.88,0.81 -1.91,0.47 -3.62,0.9 -5.15,0.9z"/>
  <path class="fil1" d="M189.46 236.01c-2.69,0 -5.34,-0.17 -7.83,-0.5 -6.93,-0.93 -11.04,-3.17 -13.76,-4.65 -0.8,-0.44 -1.56,-0.85 -2,-0.99 -1.59,-0.52 -2.46,-2.22 -1.95,-3.81 0.51,-1.59 2.22,-2.47 3.81,-1.96 0.98,0.32 1.93,0.84 3.04,1.44 2.47,1.35 5.85,3.19 11.66,3.96 11.56,1.55 23.96,-0.84 28.22,-5.41 1.14,-1.23 3.06,-1.29 4.28,-0.15 1.22,1.14 1.29,3.05 0.15,4.27 -5.04,5.41 -15.6,7.8 -25.62,7.8z"/>
  <path class="fil1" d="M224.22 234.18c-0.54,0 -1.08,-0.22 -1.48,-0.65 -0.76,-0.81 -0.71,-2.09 0.1,-2.85 2.25,-2.09 9.62,-20.74 8.6,-24.36 -1.7,-6.01 -11.26,-13.43 -15.79,-15.17 -1.04,-0.4 -1.56,-1.57 -1.16,-2.61 0.4,-1.04 1.57,-1.55 2.61,-1.16 5.01,1.93 15.99,9.97 18.22,17.83 1.57,5.56 -6.81,25.71 -9.73,28.43 -0.39,0.36 -0.88,0.54 -1.37,0.54z"/>
  <path class="fil1" d="M148.11 222.83c-0.62,0 -1.23,-0.29 -1.63,-0.83 -7.86,-10.79 0.64,-20.09 5.72,-25.65 1.16,-1.27 2.16,-2.36 2.77,-3.23 0.64,-0.92 1.9,-1.14 2.81,-0.5 0.91,0.64 1.13,1.9 0.5,2.81 -0.77,1.09 -1.85,2.27 -3.1,3.64 -6.22,6.8 -10.91,13.04 -5.44,20.55 0.66,0.9 0.46,2.17 -0.44,2.82 -0.36,0.26 -0.78,0.39 -1.19,0.39z"/>
  <g>
   <path class="fil1" d="M110.19 156.89l0.01 0 -0.01 0zm13.97 9.37c-1.47,0 -2.82,-0.94 -8.52,-5.23 -1.99,-1.5 -4.97,-3.75 -5.9,-4.23 -1.42,-0.4 -2.37,-1.78 -2.19,-3.28 0.2,-1.66 1.72,-2.85 3.37,-2.64 1.42,0.17 2.85,1.16 8.37,5.32 1.9,1.43 4.72,3.55 5.68,4.09 1.22,0.3 2.17,1.35 2.29,2.68 0.14,1.67 -1.09,3.13 -2.76,3.27 -0.11,0.02 -0.23,0.02 -0.34,0.02z"/>
  </g>
  <path class="fil1" d="M245.94 151.28c-1.1,0 -2.16,-0.6 -2.69,-1.65 -0.77,-1.49 -0.18,-3.31 1.31,-4.07l1.15 -0.58c5.23,-2.63 8.23,-4.29 8.92,-4.93 1.21,-1.13 3.13,-1.1 4.28,0.08 1.14,1.19 1.16,3.04 -0.01,4.21 -1.31,1.32 -4.83,3.21 -10.47,6.05l-1.11 0.56c-0.44,0.22 -0.91,0.33 -1.38,0.33z"/>
  <path class="fil1" d="M233.4 143.57c-5.75,0 -26.89,2.93 -29.86,4.65 -1,0.59 -2.32,1.6 -2.89,3.1 -0.66,1.72 -0.04,7.92 0.95,12.92 0.87,4.43 6.55,6.18 10.16,6.28 3.47,0.1 7.41,-0.62 11.23,-1.32 0.79,-0.14 1.56,-0.28 2.32,-0.41 1.74,-0.3 3.09,-0.51 4.22,-0.68 3.74,-0.57 4.99,-0.77 10.77,-2.83 3.61,-1.3 3.6,-2.79 3.59,-7.22l0 -0.59c0,-1.13 -0.25,-2.84 -0.44,-4.03 -0.81,-5.12 -1.47,-7.59 -3.19,-8.71 -1.1,-0.71 -2.55,-1.13 -6.72,-1.16l-0.14 0zm-21 30.99c-0.26,0 -0.51,0 -0.76,-0.01 -5.87,-0.16 -12.77,-3.21 -14,-9.53 -0.38,-1.89 -2.15,-11.49 -0.77,-15.13 0.79,-2.07 2.39,-3.85 4.65,-5.16 4.14,-2.41 26.72,-5.26 32.06,-5.2 4.54,0.04 6.86,0.51 8.86,1.81 3.29,2.12 4.12,5.92 5,11.46l0 0.01c0.34,2.13 0.49,3.57 0.49,4.66l0 0.58c0.01,4.51 0.02,8.77 -6.27,11.03 -6.14,2.2 -7.71,2.44 -11.51,3.02 -1.12,0.17 -2.44,0.37 -4.15,0.67 -0.75,0.13 -1.52,0.27 -2.29,0.41 -3.76,0.68 -7.64,1.38 -11.31,1.38z"/>
  <path class="fil1" d="M162.81 151.39c-8.12,0 -24.21,1.1 -26.85,2.37 -1.05,0.5 -2.45,1.41 -3.14,2.86 -0.79,1.66 -0.66,7.89 -0.07,12.95 0.51,4.48 6.04,6.68 9.63,7.06 3.44,0.37 7.43,-0.03 11.28,-0.42 0.8,-0.08 1.6,-0.15 2.37,-0.23 1.76,-0.16 3.11,-0.26 4.25,-0.34 3.77,-0.27 5.04,-0.37 10.96,-1.97 3.71,-1.01 3.82,-2.5 4.16,-6.91l0.05 -0.59c0.09,-1.12 -0.03,-2.85 -0.12,-4.05 -0.41,-5.17 -0.87,-7.69 -2.5,-8.94 -1.04,-0.79 -2.45,-1.32 -6.6,-1.69 -0.82,-0.07 -2,-0.1 -3.42,-0.1zm-17.42 29.42c-1.16,0 -2.32,-0.04 -3.44,-0.16 -5.85,-0.63 -12.48,-4.22 -13.21,-10.62 -0.22,-1.91 -1.24,-11.62 0.43,-15.14 0.95,-1.99 2.69,-3.65 5.04,-4.77 4.32,-2.07 27.15,-3.1 32.37,-2.65 4.53,0.4 6.8,1.06 8.7,2.5 3.11,2.38 3.63,6.23 4.07,11.83 0.17,2.16 0.21,3.6 0.12,4.68l-0.04 0.59c-0.35,4.5 -0.68,8.74 -7.13,10.49 -6.3,1.71 -7.88,1.83 -11.72,2.11 -1.12,0.08 -2.46,0.18 -4.18,0.33 -0.76,0.07 -1.55,0.15 -2.34,0.23 -2.87,0.29 -5.82,0.58 -8.67,0.58z"/>
  <path class="fil1" d="M157.43 58.44c0,0 0,0 0,0 0,0 0,0 0,0zm-48.28 102.14c-0.63,0 -1.27,-0.2 -1.81,-0.61 -1.34,-1 -1.61,-2.9 -0.61,-4.24 1.73,-2.3 2.41,-12.17 1.98,-15.67 -1.94,-15.78 2.53,-45.79 11,-59.38 3.89,-6.25 32.39,-30.46 39.69,-27.97 1.58,0.55 2.42,2.27 1.88,3.85 -0.5,1.47 -2.02,2.3 -3.51,1.97 -4.66,0.54 -28.46,18.19 -32.92,25.35 -7.62,12.24 -11.94,40.71 -10.13,55.44 0.29,2.41 0.42,15.31 -3.14,20.05 -0.6,0.79 -1.51,1.21 -2.43,1.21z"/>
  <path class="fil1" d="M106.17 92.15c-0.57,0 -1.14,-0.16 -1.66,-0.5 -1.39,-0.91 -1.78,-2.79 -0.87,-4.19 0.82,-1.24 2.02,-4.13 3.3,-7.19 2.42,-5.8 5.43,-13.02 9.47,-18.83 8.46,-12.16 19.84,-20.21 26.71,-21.88 8.34,-2.03 17.02,-0.53 22.66,3.91 4.15,3.26 6.35,7.79 6.35,13.11 0,1.67 -1.36,3.03 -3.03,3.03 -1.68,0 -3.03,-1.36 -3.03,-3.03 0,-3.44 -1.36,-6.25 -4.03,-8.35 -4.16,-3.27 -11.02,-4.36 -17.49,-2.79 -4.81,1.17 -15.19,7.99 -23.17,19.46 -3.67,5.28 -6.54,12.16 -8.85,17.7 -1.51,3.62 -2.7,6.47 -3.82,8.18 -0.59,0.89 -1.55,1.37 -2.54,1.37z"/>
  <path class="fil1" d="M180.45 63.61c-1.68,0 -3.03,-1.36 -3.03,-3.03 0,-7.29 -4.8,-15.56 -11.94,-20.57 -3.47,-2.43 -10.43,-6.11 -18.08,-3.34 -0.7,0.25 -1.29,0.27 -1.68,0.28 -0.33,0.01 -0.62,0.02 -1.47,0.38 -1.54,0.66 -3.32,-0.06 -3.97,-1.6 -0.66,-1.53 0.05,-3.31 1.59,-3.97 1.76,-0.75 2.82,-0.84 3.68,-0.86 0,0 0,0 0,0 7.42,-2.6 15.94,-1.09 23.41,4.16 8.82,6.18 14.51,16.2 14.51,25.52 0,1.67 -1.35,3.03 -3.02,3.03z"/>
  <path class="fil1" d="M191.46 67.62c-0.71,0 -1.43,-0.26 -2,-0.76 -2.69,-2.37 -3.59,-6.72 -4.63,-11.75 -0.68,-3.28 -1.38,-6.67 -2.59,-9.33 -7.9,-17.51 -15.84,-16.12 -22.24,-14.99 -3.03,0.54 -6.16,1.09 -8.55,-0.94 -1.27,-1.08 -1.43,-2.99 -0.35,-4.26 1.08,-1.28 2.99,-1.44 4.27,-0.35 0.42,0.15 2.32,-0.18 3.58,-0.41 7.1,-1.25 18.98,-3.35 28.82,18.46 1.47,3.27 2.28,7.16 2.99,10.59 0.68,3.3 1.53,7.4 2.7,8.44 1.26,1.1 1.38,3.02 0.27,4.27 -0.6,0.68 -1.43,1.03 -2.27,1.03z"/>
  <path class="fil1" d="M203.84 58.55c0,0 0,0 0,0 0,0 0,0 0,0zm-105.34 83c-1.67,0 -3.03,-1.35 -3.03,-3.03 0,-7.78 0.03,-12.79 0.2,-18.61 0.27,-9.34 1.5,-14.77 3.05,-21.64 0.55,-2.41 1.13,-5 1.73,-8.02 1,-5 2.62,-9.24 4.18,-13.34 0.9,-2.37 1.83,-4.82 2.64,-7.39l0.61 -1.97c2.91,-9.38 4,-12.89 10.25,-22.1 6.46,-9.53 24.68,-17.32 35.57,-21.97l0.72 -0.31c17.24,-7.38 31.27,-2.08 41.71,15.74 1.75,2.97 3.39,7.55 4.98,11.97 1.05,2.93 2.47,6.9 3.19,7.95 1.15,0.87 1.55,2.45 0.88,3.78 -0.75,1.5 -2.57,2.1 -4.07,1.34 -1.97,-0.99 -3,-3.5 -5.7,-11.02 -1.43,-3.97 -3.04,-8.47 -4.5,-10.96 -8.9,-15.18 -19.73,-19.38 -34.11,-13.23l-0.72 0.31c-9.6,4.1 -27.47,11.74 -32.94,19.8 -5.74,8.47 -6.61,11.26 -9.48,20.49l-0.61 1.99c-0.86,2.75 -1.83,5.28 -2.76,7.74 -1.54,4.04 -3,7.86 -3.9,12.36 -0.61,3.08 -1.21,5.72 -1.76,8.18 -1.49,6.55 -2.66,11.72 -2.91,20.47 -0.16,5.75 -0.19,10.72 -0.19,18.44 0,1.68 -1.36,3.03 -3.03,3.03z"/>
  <path class="fil1" d="M209.48 57.27c-1.29,0 -2.49,-0.84 -2.89,-2.14 -10.07,-32.84 -17.14,-31.21 -25.32,-29.33 -1.95,0.45 -3.97,0.91 -6.12,1.03 -1.67,0.12 -3.09,-1.19 -3.18,-2.86 -0.1,-1.67 1.18,-3.1 2.85,-3.19 1.63,-0.09 3.32,-0.48 5.1,-0.88 11.74,-2.71 21.6,-1.95 32.46,33.45 0.49,1.6 -0.41,3.29 -2.01,3.78 -0.29,0.1 -0.59,0.14 -0.89,0.14z"/>
  <path class="fil1" d="M217.49 56.93c-1.45,0 -2.73,-1.04 -2.98,-2.52 -0.14,-0.83 -0.24,-1.9 -0.37,-3.26 -0.48,-5.18 -1.29,-13.85 -5.48,-19.47 -0.25,-0.35 -6.34,-8.39 -10.9,-5.11 -1.35,0.97 -3.25,0.67 -4.23,-0.69 -0.97,-1.36 -0.66,-3.25 0.7,-4.22 6.52,-4.7 14.39,-0.17 19.29,6.4 5.2,6.98 6.15,17.09 6.65,22.53 0.11,1.17 0.2,2.14 0.31,2.81 0.28,1.65 -0.83,3.21 -2.48,3.49 -0.17,0.03 -0.34,0.04 -0.51,0.04z"/>
  <path class="fil1" d="M255.22 150.4c-1.13,0 -2.22,-0.64 -2.74,-1.73l-0.58 -1.22c-0.05,-0.09 -0.09,-0.19 -0.12,-0.29 -1.49,-4.23 -3.94,-14.68 -6.76,-26.79 -1.41,-5.98 -2.87,-12.27 -4.31,-18.12l-0.63 -2.62c-4.5,-18.53 -7.21,-29.71 -26.82,-35.82 -1.6,-0.5 -2.49,-2.2 -1.99,-3.8 0.5,-1.59 2.2,-2.48 3.79,-1.99 22.89,7.14 26.25,21 30.9,40.18l0.64 2.61c1.43,5.87 2.91,12.18 4.31,18.18 2.64,11.3 5.14,21.98 6.53,26l0.51 1.08c0.72,1.51 0.08,3.31 -1.43,4.03 -0.42,0.2 -0.87,0.3 -1.3,0.3z"/>
  <path class="fil1" d="M261.68 125.15c0.01,0 0.01,0 0.01,0 0,0 0,0 -0.01,0zm-0.79 3.88c-0.27,0 -0.53,-0.06 -0.79,-0.17 -2.2,-0.94 -3.62,-5.11 -7.35,-18.98 -0.48,-1.78 -0.95,-3.53 -1.4,-5.17l-0.74 -2.69c-4.22,-15.29 -7.55,-27.37 -19.45,-38.85 -3.02,-2.91 -6.25,-5.45 -8.24,-6.46 -0.99,-0.51 -1.39,-1.73 -0.88,-2.72 0.51,-0.99 1.73,-1.38 2.72,-0.88 2.35,1.2 5.87,3.94 9.2,7.15 12.7,12.26 16.33,25.43 20.54,40.69l0.74 2.68c0.46,1.64 0.93,3.41 1.41,5.2 1.6,5.97 4.01,14.93 5.28,16.45 0.85,0.51 1.22,1.58 0.82,2.52 -0.33,0.77 -1.08,1.23 -1.86,1.23z"/>
  <path class="fil1" d="M264.23 112.34c-0.56,0 -1.12,-0.24 -1.52,-0.7 -3.04,-3.49 -7.05,-16.78 -7.6,-20.69 -0.84,-5.89 -3.45,-17.26 -11.55,-27.31 -8.51,-10.54 -20.12,-17.62 -23.31,-15.82 -0.97,0.54 -2.2,0.21 -2.75,-0.76 -0.56,-0.97 -0.22,-2.2 0.75,-2.75 6.67,-3.79 20.8,7.33 28.45,16.8 8.71,10.8 11.51,22.97 12.4,29.27 0.54,3.8 4.42,16.05 6.65,18.61 0.73,0.84 0.65,2.12 -0.2,2.85 -0.38,0.33 -0.85,0.5 -1.32,0.5z"/>
  <path class="fil1" d="M262.89 157.41c-1.67,0 -3.02,-1.36 -3.02,-3.03l0 -8.35c0,-9.46 0.45,-11.64 1.14,-14.92 0.37,-1.75 0.78,-3.72 1.24,-7.48 1.09,-8.85 1.47,-28.31 -4.02,-45.1 -3.12,-9.54 -8.89,-20.05 -13.71,-24.99 -7.6,-7.8 -20.28,-15.56 -27.1,-14.69 -1.65,0.22 -3.18,-0.96 -3.39,-2.61 -0.21,-1.66 0.96,-3.18 2.62,-3.39 9.32,-1.21 23.55,7.59 32.21,16.46 5.47,5.62 11.7,16.86 15.12,27.34 5.82,17.8 5.43,38.37 4.29,47.72 -0.5,4.01 -0.96,6.21 -1.33,7.98 -0.64,3.02 -1.02,4.85 -1.02,13.68l0 8.35c0,1.67 -1.35,3.03 -3.03,3.03z"/>
  <path class="fil1" d="M112.26 197.38c-0.84,0 -1.66,-0.36 -2.23,-0.98l-0.13 -0.14c-4.85,-4.82 -6.05,-6.9 -6.52,-8.04 -1.36,-3.25 -1.72,-8.18 -2.1,-13.41 -0.29,-3.94 -0.59,-8 -1.32,-10.8 -0.2,-0.77 -0.71,-2.31 -1.24,-3.94 -2.9,-8.82 -3.73,-12.1 -2.95,-14.11 0.92,-2.4 2.31,-3.85 4.13,-4.33 2.79,-0.74 5.12,1.16 6.67,2.42 0.24,0.2 0.48,0.4 0.71,0.57 1.33,1.01 1.6,2.9 0.59,4.24 -1.01,1.33 -2.91,1.6 -4.24,0.59 -0.29,-0.22 -0.58,-0.46 -0.89,-0.71 -0.31,-0.25 -0.79,-0.64 -1.19,-0.92 -0.01,0.01 -0.01,0.01 -0.01,0.02 0.11,1.74 2,7.51 2.93,10.34 0.62,1.87 1.1,3.35 1.35,4.3 0.87,3.33 1.19,7.68 1.5,11.89 0.33,4.51 0.67,9.18 1.64,11.51 0.11,0.26 0.87,1.77 5.21,6.09 0.36,0.36 0.68,0.67 0.91,1.27 0.61,1.56 -0.15,3.31 -1.71,3.93 -0.36,0.14 -0.74,0.21 -1.11,0.21z"/>
  <path class="fil1" d="M187.17 280.57c-0.79,0 -1.56,-0.02 -2.34,-0.05 -5.89,-0.23 -10.58,-1.14 -14.32,-2.77 -1.42,-0.62 -3.63,-2.57 -9.14,-7.58 -2.15,-1.95 -4.43,-4.03 -6.5,-5.81 -3.74,-3.24 -7.36,-6.17 -10.86,-9.01 -7.12,-5.78 -13.27,-10.77 -17.7,-16.01 -6.14,-7.26 -11.42,-18.55 -13.76,-29.45 -2.22,-10.31 -2.75,-21.21 -3.22,-30.82 -0.42,-8.55 -0.85,-17.39 -2.59,-19.69 -1.01,-1.34 -0.75,-3.24 0.59,-4.24 1.33,-1.01 3.23,-0.75 4.24,0.58 2.87,3.8 3.26,11.88 3.81,23.06 0.45,9.38 0.97,20.01 3.09,29.83 2.11,9.84 7.01,20.37 12.47,26.82 4.06,4.81 10,9.63 16.88,15.22 3.54,2.87 7.19,5.83 11.01,9.12 2.1,1.82 4.43,3.93 6.62,5.92 2.79,2.54 6.62,6.02 7.56,6.54 2.96,1.29 6.93,2.04 12.06,2.24 9.73,0.39 20.57,-2.02 26.28,-5.87 4.18,-2.81 8.44,-7.81 13.02,-15.27 3.09,-5.04 6.26,-8.9 9.42,-11.47 10.55,-8.61 13.92,-13.11 20.02,-26.74 1.7,-3.8 3.7,-9.89 4.34,-14.92 1.51,-11.73 0.61,-25.38 -0.05,-35.35l-0.21 -3.26c-0.21,-3.21 -0.64,-5.79 -1.3,-7.65 -0.56,-1.58 0.27,-3.31 1.84,-3.87 1.58,-0.55 3.31,0.27 3.87,1.85 0.86,2.43 1.39,5.47 1.63,9.3l0.21 3.23c0.67,10.22 1.6,24.21 0.02,36.52 -0.77,6.02 -3.08,12.72 -4.82,16.62 -6.51,14.56 -10.37,19.7 -21.73,28.96 -2.59,2.11 -5.38,5.55 -8.08,9.95 -5.04,8.21 -9.88,13.82 -14.8,17.13 -6.31,4.24 -17.15,6.94 -27.56,6.94z"/>
  <path class="fil1" d="M166.63 340.87c0,0 0,0 0,0 0,0 0,0 0,0zm2.68 2.44c-1.08,0 -2.12,-0.58 -2.66,-1.61 -0.09,-0.19 -0.23,-0.49 -0.37,-0.82 -0.06,-0.13 -0.11,-0.27 -0.17,-0.39 -9.34,-7.14 -12.87,-22 -15.72,-33.98 -0.46,-1.93 -0.9,-3.78 -1.34,-5.51l-0.2 -0.78c-3.9,-15.13 -4.51,-18.13 -4.59,-19.13 -0.47,-6.03 -2.69,-13.93 -4.83,-21.56 -1.12,-4.01 -2.18,-7.79 -2.95,-11.18 -0.37,-1.63 0.65,-3.25 2.28,-3.62 1.62,-0.38 3.25,0.64 3.62,2.28 0.74,3.24 1.78,6.95 2.88,10.88 2.22,7.92 4.52,16.1 5.04,22.73 0.07,0.62 0.73,3.82 4.41,18.09l0.2 0.78c0.46,1.76 0.91,3.65 1.37,5.62 2.67,11.22 5.99,25.18 13.88,30.84 0.85,0.61 1.24,1.5 1.68,2.53 0.07,0.17 0.14,0.32 0.19,0.43 0.74,1.49 0.15,3.31 -1.33,4.07 -0.44,0.23 -0.92,0.33 -1.39,0.33z"/>
  <path class="fil1" d="M206.7 340.53c-1.03,0 -2.04,-0.53 -2.61,-1.48 -0.85,-1.44 -0.38,-3.3 1.06,-4.15 5.61,-3.33 10.3,-8.25 14.35,-15.05 6.49,-10.91 27.44,-72.29 23.94,-84.01 -0.48,-1.6 0.43,-3.29 2.03,-3.77 1.61,-0.47 3.29,0.43 3.77,2.04 4.3,14.39 -17.9,77.68 -24.54,88.84 -4.58,7.68 -9.96,13.3 -16.46,17.16 -0.48,0.28 -1.01,0.42 -1.54,0.42z"/>
  <path class="fil1" d="M99.6 299.96c0,0.01 0,0.02 0,0.03 0,-0.01 0,-0.02 0,-0.03zm-5.47 13.45c-1.15,0 -2.09,-0.34 -2.88,-1.16 -1.87,-1.94 -0.79,-4.37 0.25,-6.72 0.79,-1.77 1.77,-3.98 2.1,-6.39 0.4,-2.92 10.55,-20.38 16.05,-23.27 1.33,-0.7 1.81,-1.2 2.46,-1.9 1.41,-1.48 2.8,-2.73 6.74,-4.25 1.55,-0.6 3.31,0.17 3.91,1.73 0.6,1.56 -0.17,3.31 -1.73,3.92 -2.98,1.14 -3.66,1.86 -4.52,2.76 -0.81,0.86 -1.83,1.93 -4.04,3.1 -3.25,1.7 -12.06,16.2 -12.89,18.85 -0.33,2.34 -1.06,4.41 -1.77,6.13 0.41,-0.16 0.87,-0.34 1.38,-0.55 5.34,-2.13 11.35,-2.56 16.65,-2.94 7.82,-0.56 11.53,-1.1 11.73,-3.69 0.04,-0.45 5.55,-47.31 10.59,-51.26 1.32,-1.03 3.22,-0.8 4.25,0.52 0.96,1.22 0.83,2.95 -0.25,4.02 -2.43,4.03 -7.87,38.5 -8.55,47.2 -0.64,8.06 -9.13,8.67 -17.34,9.25 -4.86,0.35 -10.37,0.74 -14.83,2.53 -3.07,1.23 -5.45,2.12 -7.31,2.12z"/>
  <path class="fil1" d="M81.55 282.58c-0.92,0 -1.84,-0.42 -2.43,-1.22 -1,-1.35 -0.72,-3.24 0.62,-4.24 2.53,-1.88 7.05,-4.3 10.23,-5.1 5.73,-1.43 17.15,-8.54 26.33,-14.26 11.09,-6.91 17.02,-10.53 20.24,-10.61 0.03,0 0.06,0 0.09,0 1.63,0 2.98,1.3 3.02,2.94 0.05,1.67 -1.26,3.05 -2.91,3.11 -2.09,0.25 -10.84,5.71 -17.24,9.7 -10.52,6.55 -21.41,13.34 -28.06,15 -2.3,0.57 -6.11,2.61 -8.08,4.08 -0.55,0.4 -1.18,0.6 -1.81,0.6z"/>
  <g>
   <path class="fil1" d="M151.56 340.76l0.01 0 -0.01 0zm2.76 1.9c-1.24,0 -2.4,-0.76 -2.84,-1.98 -0.04,-0.03 -0.09,-0.07 -0.13,-0.11 -6.4,-5.47 -11.86,-15.84 -16.67,-24.99 -2.53,-4.82 -4.93,-9.38 -7.12,-12.56 -0.94,-1.37 -0.59,-3.26 0.78,-4.21 1.38,-0.94 3.26,-0.59 4.21,0.78 2.39,3.48 4.87,8.19 7.49,13.17 4.56,8.67 9.73,18.49 15.24,23.21 0.68,0.57 1.43,1.3 1.9,2.69 0.54,1.58 -0.31,3.3 -1.89,3.84 -0.32,0.11 -0.65,0.16 -0.97,0.16z"/>
  </g>
  <path class="fil1" d="M275.55 251.03c-0.05,0 -0.1,-0.01 -0.15,-0.01 -4.54,-0.21 -11.33,-5.05 -19.74,-11.34 -2.62,-1.96 -5.88,-4.4 -6.79,-4.75 -1.61,-0.44 -2.52,-2.1 -2.08,-3.71 0.44,-1.61 2.15,-2.55 3.76,-2.1 1.65,0.45 4,2.17 8.73,5.71 4.67,3.5 13.36,10 16.41,10.14 1.67,0.08 2.96,1.5 2.88,3.17 -0.08,1.62 -1.41,2.89 -3.02,2.89z"/>
  <path class="fil1" d="M280.16 329.98c-2.53,0 -5.54,-0.39 -9.02,-0.83 -4.3,-0.55 -9.18,-1.18 -14.16,-1.18l-2.52 0c-1.68,0 -3.03,-1.35 -3.03,-3.03 0,-1.67 1.35,-3.02 3.03,-3.02l2.52 0c5.37,0 10.45,0.65 14.93,1.22 2.22,0.28 4.24,0.54 5.97,0.68 -0.23,-3 -1.51,-9.21 -3.82,-18.54 -0.43,-1.72 -0.74,-3.01 -0.85,-3.57 -5.17,-26.74 -5.43,-27.18 -18.99,-49.83l-0.69 -1.15c-0.86,-1.44 -0.4,-3.3 1.04,-4.16 1.44,-0.86 3.3,-0.39 4.15,1.04l0.69 1.16c13.83,23.1 14.37,24 19.74,51.79 0.1,0.51 0.4,1.69 0.79,3.27 4.63,18.73 4.68,22.64 3.01,24.77 -0.68,0.87 -1.7,1.38 -2.79,1.38z"/>
  <path class="fil2" d="M154.15 152.34c2.32,0 4.21,1.88 4.21,4.2 0,2.32 -1.89,4.21 -4.21,4.21 -2.32,0 -4.2,-1.89 -4.2,-4.21 0,-2.32 1.88,-4.2 4.2,-4.2z"/>
  <path class="fil2" d="M217.93 145.98c2.33,0 4.21,1.89 4.21,4.21 0,2.32 -1.88,4.2 -4.21,4.2 -2.32,0 -4.2,-1.88 -4.2,-4.2 0,-2.32 1.88,-4.21 4.2,-4.21z"/>
  <path class="fil1" d="M98.53 131.27l-0.02 0c-1.11,-0.01 -2,-0.9 -2,-2.01 0,-1.44 1.61,-15.22 3.1,-22.76 1.13,-5.72 3.57,-10.72 5.18,-14.02 0.28,-0.58 0.53,-1.09 0.74,-1.55 5.74,-12.29 16.85,-25.94 27.66,-33.98 4.3,-3.2 8.41,-5.73 11.27,-6.92 1.02,-0.43 2.21,0.05 2.64,1.08 0.43,1.03 -0.06,2.21 -1.08,2.64 -2.54,1.06 -6.43,3.47 -10.43,6.44 -10.31,7.67 -20.92,20.71 -26.4,32.45 -0.22,0.47 -0.48,1.01 -0.77,1.6 -1.52,3.12 -3.82,7.84 -4.85,13.05 -1.51,7.67 -3.01,20.95 -3.03,21.98 -0.01,1.1 -0.91,2 -2.01,2z"/>
 </g>
</svg>
